<?xml version="1.0" encoding="utf-8"?>
<!-- Generator: Adobe Illustrator 19.2.0, SVG Export Plug-In . SVG Version: 6.00 Build 0)  -->
<svg version="1.1" id="Layer" xmlns="http://www.w3.org/2000/svg" xmlns:xlink="http://www.w3.org/1999/xlink" x="0px" y="0px"
	 viewBox="0 0 336 235.2" style="enable-background:new 0 0 336 235.2;" xml:space="preserve">
<style type="text/css">
	.st0{fill:#586773;}
	.st1{fill:#CFDBE5;}
	.st2{fill:#FFFFFF;}
	.st3{fill:#FAB952;}
	.st4{fill:#FFD55C;}
	.st5{fill:#CDD5D7;}
	.st6{fill:#333333;}
	.st7{fill:#F69777;}
	.st8{fill:url(#SVGID_1_);}
	.st9{fill:url(#SVGID_2_);}
	.st10{opacity:0.2;}
	.st11{fill:#3D454A;}
	.st12{fill:url(#SVGID_3_);}
	.st13{opacity:0.7;fill:#FFFFFF;}
	.st14{fill:#B2E1EE;}
</style>
<rect class="st0" width="336" height="235.2"/>
<g>
	<path class="st1" d="M219.4,161L219.4,161l-4.7-0.1h-39c-1.3,0-3,0-4.8,0c-1.7,0-3.4,0-4.8,0h-39h-4.8l0.1,0.1h-0.1l0,3l0,0v53
		h97.2v-56H219.4z"/>
	<g>
		<g>
			<rect x="118.4" y="161" class="st1" width="97.2" height="56"/>
		</g>
		<g>
			<path class="st1" d="M215.5,164l0.1-3h-97.2l0,3l12.1,10.4l8.5,7.3c1,0.8,2.3,2,3.6,3.1l11.3,9.7l9.3,8c2,1.7,5.3,1.7,7.3,0
				l9.3-8l11.3-9.7c1.3-1.1,2.6-2.2,3.6-3.1l8.5-7.3L215.5,164z"/>
		</g>
		<g>
			<path class="st2" d="M215.5,161h-4.8h-39c-1.3,0-3,0-4.8,0c-1.7,0-3.5,0-4.8,0h-39h-4.8l12.1,10.4l8.5,7.3c1,0.9,2.3,2,3.6,3.1
				l11.3,9.7l9.3,7.9c2,1.7,5.3,1.7,7.3,0l9.3-7.9l11.3-9.7c1.3-1.1,2.6-2.2,3.6-3.1l8.5-7.3L215.5,161z"/>
		</g>
	</g>
</g>
<g>
	<g>
		<path class="st1" d="M29.7,81.6v61.7h13.2V81.6l0.8,0l0-57.2c0-3.5-2.5-6.4-5.7-6.4l-3.9,0c-3.1,0-5.6,2.9-5.6,6.4l0,57.1
			L29.7,81.6z"/>
		<path class="st1" d="M42.9,148.8c-0.2-1.9-0.3-3.7-0.2-5.4H29.8c0,1.7,0,3.6-0.2,5.5c-0.2,2.5-0.7,4.9-1.2,7.1
			c3.5,1.1,6.2,6.2,6.7,12.6l0.8,0v-0.1l0.8,0l0,0.1l0.8,0c0.4-6.4,3.2-11.5,6.7-12.6C43.6,153.7,43.1,151.3,42.9,148.8z"/>
	</g>
	<g>
		<path class="st3" d="M24.6,81.6l0-57.1c0-3.5,2.5-6.4,5.6-6.4l3.9,0c3.1,0,5.6,2.9,5.7,6.4l0,57.2L24.6,81.6z"/>
	</g>
	<path class="st2" d="M38.7,143.3H25.9c0,1.7,0,3.6-0.2,5.5c-0.2,2.5-0.7,4.9-1.2,7.1c3.5,1.1,6.2,6.2,6.7,12.6l2.5,0
		c0.4-6.4,3.2-11.5,6.7-12.6c-0.6-2.2-1-4.5-1.3-7.1C38.8,146.9,38.7,145.1,38.7,143.3z"/>
	<polygon class="st4" points="25.7,81.6 25.7,143.3 38.9,143.3 38.9,81.6 	"/>
</g>
<g>
	<path class="st5" d="M85.4,204l0.5-5.3l0.5,5.3H85.4z M85.9,196l-0.8-0.5c-0.5-0.3-0.8-0.8-0.8-1.4c0-0.9,0.7-1.6,1.6-1.6
		c0.9,0,1.6,0.7,1.6,1.6c0,0.6-0.3,1.1-0.8,1.4L85.9,196z"/>
	<path class="st1" d="M77.3,181.3v-8.4c0-5.8,4.8-10.6,10.6-10.6h3.9c5.8,0,10.6,4.8,10.6,10.6v1.4h3.9v-1.4c0-8-6.5-14.5-14.5-14.5
		h-3.9c-8,0-14.5,6.5-14.5,14.5v8.4h-2.8V217H109v-35.7H77.3z"/>
	<g>
		<rect x="66.6" y="181.3" class="st4" width="38.5" height="35.7"/>
		<path class="st6" d="M98.4,174.4h3.9v-1.4c0-8-6.5-14.5-14.5-14.5h-3.9c-8,0-14.5,6.5-14.5,14.5v8.4h3.9v-8.4
			c0-5.8,4.8-10.6,10.6-10.6h3.9c5.8,0,10.6,4.8,10.6,10.6V174.4z"/>
	</g>
	<path class="st0" d="M86.2,191.1c-2.3,0-4.1,1.8-4.1,4.1c0,1.5,0.8,2.8,2,3.5l-1.8,8.4h4h4l-1.8-8.4c1.2-0.7,2-2,2-3.5
		C90.3,193,88.5,191.1,86.2,191.1L86.2,191.1z"/>
</g>
<g>
	<path class="st1" d="M54.2,177.2H28.3v11.5c1.9,2.2,3.1,5.1,3.1,8.3c0,3.2-1.2,6.1-3.1,8.3v11.5h8.5h8.8h8.5v-11.5
		c-1.9-2.2-3.1-5.1-3.1-8.3c0-3.2,1.2-6.1,3.1-8.3V177.2z"/>
	<g>
		<path class="st7" d="M46.8,197c0-3.2,1.2-6.1,3.1-8.3v-11.5H24.1v11.5c1.9,2.2,3.1,5.1,3.1,8.3c0,3.2-1.2,6.1-3.1,8.3v11.5h25.9
			v-11.5C48,203.1,46.8,200.2,46.8,197z"/>
		<path class="st1" d="M37,184.6c-1.9,0-4.4,1.6-4.4,3.5v28.7h8.8v-28.7C41.4,186.2,38.9,184.6,37,184.6z"/>
		<circle class="st0" cx="36.8" cy="192.8" r="2.4"/>
	</g>
</g>
<g>
	<path class="st6" d="M311.5,186.1c0,0-24.7,5.1-42.6,8.7c-17.9-3.6-42.6-8.7-42.6-8.7c-1,3.3,0.3,6.7,0.3,6.7s16.5,1.8,32.5,3.9
		c-2.8,0.6-5,1-6.5,1.3c-10,1.8-16.3,10.6-18.4,13.6c-2.1,3-0.8,5.3,3,4.8c3.8-0.5,2.2-11.8,13.2-15c3.4-1,10.3-2.2,18.4-3.4
		c8.1,1.2,15,2.4,18.4,3.4c11,3.2,9.4,14.5,13.2,15c3.8,0.5,5.1-1.8,3-4.8c-2.1-3-8.3-11.8-18.4-13.6c-1.4-0.3-3.7-0.7-6.5-1.3
		c16.1-2.1,32.5-3.9,32.5-3.9S312.5,189.4,311.5,186.1z"/>
	<path class="st3" d="M313.6,185.4c0,0-6.9-2.6-18.8-2.4c-14.7,0.2-20.2,2.4-22.2,4.8c-1-0.3-2.3-0.4-3.7-0.4
		c-1.4,0-2.6,0.1-3.6,0.4c-1.9-2.4-7.5-4.6-22.1-4.8c-11.9-0.1-18.8,2.4-18.8,2.4s-2.5,2.5-0.8,6.5c2.3,0.5,3.8,1.5,3.8,1.5
		s-1.2,13.9,8,18.2c9.1,4.4,18.4,2,22.6-1.7c3.7-3.2,7.9-10.3,8.4-17c0.7-0.4,1.7-0.6,2.8-0.6c1,0,1.9,0.2,2.6,0.5
		c0.4,6.7,4.6,13.8,8.4,17.1c4.3,3.7,13.5,6.1,22.6,1.7c9.1-4.4,8-18.2,8-18.2s1.5-1,3.8-1.5C316.1,187.9,313.6,185.4,313.6,185.4z
		 M258.5,206.7c-4.6,6.3-18.1,7.1-24.8,1.4c-6.7-5.7-4.2-19.3-4.2-19.3s4.4-4,14-4.6c9.6-0.6,16.4,2.1,19,5.4
		C265.2,193,263.1,200.3,258.5,206.7z M304.2,208.1c-6.7,5.7-20.2,4.9-24.8-1.4c-4.6-6.3-6.7-13.7-4-17.1c2.7-3.3,9.5-6,19-5.4
		c9.6,0.6,14,4.6,14,4.6S310.9,202.3,304.2,208.1z"/>
	<linearGradient id="SVGID_1_" gradientUnits="userSpaceOnUse" x1="274.1865" y1="198.0202" x2="308.8487" y2="198.0202">
		<stop  offset="1.300000e-03" style="stop-color:#FFFFFF;stop-opacity:0.2"/>
		<stop  offset="1" style="stop-color:#CFDBE5;stop-opacity:0.6"/>
	</linearGradient>
	<path class="st8" d="M304.2,208.1c6.7-5.7,4.2-19.3,4.2-19.3s-4.4-4-14-4.6c-9.6-0.6-16.4,2.1-19,5.4c-2.7,3.4-0.6,10.8,4,17.1
		C284,213,297.5,213.8,304.2,208.1z"/>
	<linearGradient id="SVGID_2_" gradientUnits="userSpaceOnUse" x1="229.0099" y1="198.0202" x2="263.6717" y2="198.0202">
		<stop  offset="1.300000e-03" style="stop-color:#FFFFFF;stop-opacity:0.2"/>
		<stop  offset="1" style="stop-color:#CFDBE5;stop-opacity:0.6"/>
	</linearGradient>
	<path class="st9" d="M233.6,208.1c6.7,5.7,20.2,4.9,24.8-1.4c4.6-6.3,6.7-13.7,4-17.1c-2.7-3.3-9.5-6-19-5.4
		c-9.6,0.6-14,4.6-14,4.6S226.9,202.3,233.6,208.1z"/>
</g>
<g>
	<path class="st1" d="M297.5,45.4c-5.6-1.1-11.1,1.8-16.4,2.2v-8.4c3.2,1.7,8.2,0.4,12-3.5c4.3-4.3,5.4-8.1,6-16.5l0.1-0.1
		c0,0-0.1,0-0.1,0c0,0,0-0.1,0-0.1l-0.1,0.1c-8.5,0.6-12.2,1.7-16.5,6c-3.4,3.4-4.9,7.8-3.9,11c0,0,0,0,0,0v11.3
		c-4.2-0.3-8-2.3-12.3-2.4c-0.1,0-0.1,0-0.2,0c-0.4,0-0.8,0-1.2,0c-0.1,0-0.2,0-0.4,0c-0.5,0-0.9,0.1-1.4,0.2
		c-6.1,1.2-13.5,8.9-13.5,20.9c0,12,11.3,28.7,20.1,28.7c0.5,0,1,0,1.4,0c0.3,0,0.5,0,0.7,0c0.2,0,0.3,0,0.5,0c0.3,0,0.6,0,0.8-0.1
		c0.1,0,0.1,0,0.2,0c0.3,0,0.6-0.1,0.9-0.1c0,0,0,0,0,0l0,0c4-0.5,3.9-1.8,5.5-1.8c2,0,1.3,2.1,10,2.1c8.8,0,20.1-16.8,20.1-28.7
		C310.1,54.3,303.6,46.6,297.5,45.4z"/>
	<g>
		<path class="st7" d="M293.3,45.4c-6.1-1.2-12,2.3-17.6,2.3c-5.6,0-10.6-3.5-16.7-2.3c-6.1,1.2-13.5,8.9-13.5,20.9
			c0,12,11.3,28.7,20.1,28.7c8.7,0,8-2,10-2.1c2,0,1.3,2.1,10,2.1c8.7,0,20.1-16.8,20.1-28.7C305.9,54.3,299.4,46.6,293.3,45.4"/>
		<g class="st10">
			<path class="st2" d="M252,66.3c0-11.7,7.1-19.3,13.1-20.7c-1.9-0.4-3.9-0.5-6-0.1c-6.1,1.2-13.5,8.9-13.5,20.9
				c0,12,11.3,28.7,20.1,28.7c1.9,0,3.4-0.1,4.5-0.3C261.8,92.7,252,77.4,252,66.3z"/>
		</g>
		<path class="st6" d="M275.7,35.1c-0.7,0-1.2,0.5-1.2,1.2v13.2c0,0.7,0.5,1.2,1.2,1.2c0.7,0,1.2-0.5,1.2-1.2V36.3
			C276.9,35.6,276.4,35.1,275.7,35.1"/>
		<g>
			<path class="st3" d="M295.1,19.2c-8.6,0.6-12.3,1.7-16.7,6.1c-4.4,4.4-5.5,10.3-2.6,13.2L295.1,19.2z"/>
			<path class="st4" d="M295,19.1c-0.6,8.6-1.7,12.3-6.1,16.7c-4.4,4.4-10.3,5.5-13.2,2.6L295,19.1z"/>
		</g>
	</g>
</g>
<g>
	<path class="st1" d="M305.5,116.2c-6.8-6.8-15.8-10.5-25.4-10.5c-9.6,0-18.6,3.7-25.4,10.5c-5.5,5.5-9,12.5-10.1,20.1h-7.2v-2.3
		h-4.6l0,0h-5.3l0,0l-41.4,0v0c-1.2,0-2.4,0-3.7,0c-4.2,4.2-4.2,11,0,15.2c1.2,0,2.4,0,3.6,0v0h41.4h5.3h4.6v-2.3h7.2c0,0,0,0,0,0
		c1.1,7.6,4.6,14.5,10.1,20.1c14,14,36.7,14,50.7,0c6.7-6.7,10.5-15.7,10.5-25.3C316,132,312.3,123,305.5,116.2z M244.5,138.5
		c0,0.2,0,0.4,0,0.5C244.4,138.9,244.4,138.7,244.5,138.5z M244.4,143.9c0,0.2,0,0.4,0,0.5C244.4,144.2,244.4,144.1,244.4,143.9z"/>
	<g>
		<g>
			<g>
				<path class="st1" d="M250,116.2c-6.7,6.7-10.5,15.7-10.5,25.3c0,9.6,3.7,18.6,10.5,25.4c14,14,36.7,14,50.7,0
					c6.7-6.7,10.5-15.7,10.5-25.3c0-9.6-3.7-18.6-10.5-25.4c-6.8-6.8-15.8-10.5-25.4-10.5C265.8,105.7,256.7,109.4,250,116.2z
					 M255.8,122c5.2-5.2,12.1-8.1,19.5-8.1c7.4,0,14.3,2.9,19.5,8.1c5.2,5.2,8.1,12.2,8.1,19.6c0,7.4-2.9,14.3-8.1,19.5
					c-10.8,10.8-28.3,10.8-39,0c-5.2-5.2-8.1-12.2-8.1-19.6C247.8,134.1,250.6,127.2,255.8,122z"/>
			</g>
			<path class="st7" d="M181.3,133.9L181.3,133.9c-1.2,0-2.4,0-3.7,0c-4.2,4.2-4.2,11,0,15.2c1.2,0,2.4,0,3.6,0v0h51.4v-15.2
				L181.3,133.9z"/>
			<path class="st11" d="M239.5,141.5c0-1.8,0.1-3.5,0.4-5.2h-7.2v10.6h7.2C239.6,145.1,239.5,143.3,239.5,141.5z"/>
			<linearGradient id="SVGID_3_" gradientUnits="userSpaceOnUse" x1="247.7578" y1="141.5367" x2="302.9151" y2="141.5367">
				<stop  offset="1.300000e-03" style="stop-color:#FFFFFF;stop-opacity:0.2"/>
				<stop  offset="1" style="stop-color:#CFDBE5;stop-opacity:0.6"/>
			</linearGradient>
			<path class="st12" d="M255.8,122c5.2-5.2,12.1-8.1,19.5-8.1c7.4,0,14.3,2.9,19.5,8.1c5.2,5.2,8.1,12.2,8.1,19.6
				c0,7.4-2.9,14.3-8.1,19.5c-10.8,10.8-28.3,10.8-39,0c-5.2-5.2-8.1-12.2-8.1-19.6C247.8,134.1,250.6,127.2,255.8,122z"/>
			<rect x="222.7" y="133.9" class="st2" width="5.3" height="15.2"/>
		</g>
		<circle class="st13" cx="262.7" cy="129.5" r="4.8"/>
		<circle class="st2" cx="269.7" cy="136.5" r="2.2"/>
	</g>
</g>
<g>
	<path class="st1" d="M160.9,18.2h-6.4V15H152h-7.3h-2.4v3.1H60.9v33v65.4v33h81.4v2.5h2.4h7.3h2.4v-2.5h6.4c2.6,0,4.7-2.1,4.7-4.7
		v-28.3V51.1V22.9C165.6,20.3,163.5,18.2,160.9,18.2z"/>
	<g>
		<path class="st14" d="M156.3,149.5h-100V18.2h100c2.6,0,4.7,2.1,4.7,4.7v122C161,147.4,158.9,149.5,156.3,149.5z"/>
		<rect x="56.4" y="51.1" class="st2" width="104.7" height="65.4"/>
		<rect x="140.2" y="15" class="st1" width="9.7" height="137.1"/>
		<rect x="137.8" y="15" class="st7" width="9.7" height="137.1"/>
		<g>
			
				<rect x="73.4" y="58.2" transform="matrix(1 -2.224387e-03 2.224387e-03 1 -0.1607 0.2263)" class="st11" width="56.4" height="28.4"/>
			<g>
				<polygon class="st2" points="109.1,68 109.1,68 94.2,68.1 94.2,68.1 88.5,68.1 88.5,69.6 94.2,69.6 94.2,69.6 109.1,69.6 
					109.1,69.6 114.8,69.6 114.8,68 				"/>
				<polygon class="st2" points="109.1,71.9 94.2,72 94.2,72 88.5,72 88.5,73.5 94.2,73.5 94.2,73.5 109.1,73.5 109.1,73.5 
					114.8,73.5 114.8,71.9 109.1,71.9 				"/>
				<polygon class="st2" points="109.1,75.8 94.2,75.9 94.2,75.9 88.5,75.9 88.5,77.4 94.2,77.4 94.2,77.4 109.1,77.4 109.2,77.4 
					114.8,77.4 114.8,75.8 109.1,75.8 				"/>
			</g>
		</g>
	</g>
</g>
<g>
	<path class="st1" d="M230.7,17.8h-48.8c-1.9,0-3.5,1.6-3.5,3.5v98.9c0,1.9,1.6,3.5,3.5,3.5h48.8c1.9,0,3.5-1.6,3.5-3.5V21.2
		C234.1,19.3,232.6,17.8,230.7,17.8z"/>
	<g>
		<path class="st2" d="M174.8,120.1c0,1.9,1.6,3.5,3.5,3.5H227c1.9,0,3.5-1.6,3.5-3.5V21.2c0-1.9-1.6-3.5-3.5-3.5h-48.8
			c-1.9,0-3.5,1.6-3.5,3.5V120.1z"/>
		<rect x="178.3" y="28.8" class="st4" width="48.6" height="78.4"/>
		<path class="st1" d="M195.5,25.1c-0.4,0-0.6-0.3-0.6-0.6l0,0c0-0.3,0.3-0.6,0.6-0.6h14c0.4,0,0.6,0.3,0.6,0.6l0,0
			c0,0.4-0.3,0.6-0.6,0.6H195.5z"/>
		<path class="st1" d="M196.6,115.3c0-3.3,2.7-5.9,5.9-5.9c3.3,0,5.9,2.7,5.9,5.9c0,3.3-2.7,5.9-5.9,5.9
			C199.3,121.3,196.6,118.6,196.6,115.3z M207.5,115.3c0-2.7-2.2-4.9-4.9-4.9c-2.7,0-4.9,2.2-4.9,4.9c0,2.7,2.2,4.9,4.9,4.9
			C205.2,120.2,207.5,118,207.5,115.3z"/>
		
			<rect x="191.6" y="29.9" transform="matrix(2.868303e-03 -1 1 2.868303e-03 150.6113 254.5232)" class="st2" width="22.8" height="43.8"/>
		
			<rect x="200.1" y="27" transform="matrix(2.868238e-03 -1 1 2.868238e-03 153.4471 251.7126)" class="st1" width="5.6" height="43.8"/>
		
			<rect x="199.4" y="14.8" transform="matrix(2.868238e-03 -1 1 2.868238e-03 165.6978 239.5686)" class="st14" width="7.2" height="43.8"/>
		<polygon class="st0" points="184.7,42.7 184.5,42.4 183.4,43.4 183.1,43.1 182.8,43.4 183.4,44 		"/>
		<polygon class="st0" points="184.7,48.3 184.5,48 183.4,49 183.1,48.7 182.8,49 183.4,49.6 		"/>
		<polygon class="st0" points="184.7,53.9 184.4,53.6 183.4,54.6 183.1,54.3 182.8,54.6 183.4,55.1 		"/>
		<polygon class="st0" points="184.7,59.4 184.4,59.2 183.4,60.2 183.1,59.9 182.8,60.2 183.4,60.7 		"/>
		<rect x="183.3" y="35.2" class="st2" width="39.5" height="2.5"/>
		<rect x="186.6" y="42.2" class="st1" width="35.8" height="1.9"/>
		<rect x="186.6" y="47.8" class="st2" width="35.8" height="1.9"/>
		<rect x="186.6" y="53.4" class="st1" width="35.8" height="1.9"/>
		<rect x="186.6" y="59" class="st1" width="35.8" height="1.9"/>
		<g>
			
				<rect x="181.1" y="65.8" transform="matrix(1 -1.847073e-03 1.847073e-03 1 -0.1516 0.375)" class="st2" width="43.7" height="32.8"/>
			
				<rect x="181" y="73.8" transform="matrix(1 -1.842489e-03 1.842489e-03 1 -0.1476 0.374)" class="st7" width="43.7" height="12.9"/>
			<g>
				
					<rect x="198.2" y="68.2" transform="matrix(1 -1.599358e-03 1.599358e-03 1 -0.1098 0.3247)" class="st0" width="9.5" height="1.3"/>
			</g>
			<g>
				<polygon class="st0" points="199.9,71 199.9,70.4 206,70.4 206,71 				"/>
			</g>
			<g>
				<g>
					<g>
						
							<rect x="184.8" y="90.2" transform="matrix(1 -1.946847e-03 1.946847e-03 1 -0.1763 0.3691)" class="st0" width="9.5" height="1"/>
					</g>
					<g>
						
							<rect x="184.8" y="92.6" transform="matrix(1 -1.944954e-03 1.944954e-03 1 -0.1808 0.3688)" class="st0" width="9.5" height="1"/>
					</g>
				</g>
				<g>
					<g>
						
							<rect x="198.2" y="90.2" transform="matrix(1 -1.865230e-03 1.865230e-03 1 -0.1689 0.3787)" class="st0" width="9.5" height="1"/>
					</g>
					<g>
						
							<rect x="198.2" y="92.6" transform="matrix(1 -1.831090e-03 1.831090e-03 1 -0.1701 0.3718)" class="st0" width="9.5" height="1"/>
					</g>
				</g>
				<g>
					<g>
						<rect x="211.6" y="90.2" class="st0" width="9.5" height="1"/>
					</g>
					<g>
						
							<rect x="211.6" y="92.6" transform="matrix(1 -2.917424e-03 2.917424e-03 1 -0.2706 0.6317)" class="st0" width="9.5" height="1"/>
					</g>
				</g>
			</g>
		</g>
	</g>
</g>
</svg>
