<?xml version="1.0" encoding="utf-8"?>
<!-- Generator: Adobe Illustrator 18.0.0, SVG Export Plug-In . SVG Version: 6.00 Build 0)  -->
<!DOCTYPE svg PUBLIC "-//W3C//DTD SVG 1.1//EN" "http://www.w3.org/Graphics/SVG/1.1/DTD/svg11.dtd">
<svg version="1.1" id="Layer_1" xmlns="http://www.w3.org/2000/svg" xmlns:xlink="http://www.w3.org/1999/xlink" x="0px" y="0px"
	 viewBox="0 0 1400 980" enable-background="new 0 0 1400 980" xml:space="preserve">
<g>
	<rect fill="#FFFFFF" width="1400" height="980"/>
	<g>
		<g>
			<path d="M694.7,190c-1.3,0.2-2.5,0.6-3.5,1.1c-0.9-3.7,2.2-8.4-0.9-11.5c-2.3-2.3-6.6-1.4-10.1-0.4c-0.6-2.9-1.6-5.7-2.9-8.4
				c-0.5-1.1-1.9-1.7-3-1.7c-2.7,0-5.3,0-8,0c-1.1-19.3-2.8-38.5-5.3-57.7c-0.4-3-3.8-4-5.7-2.9c-65.3-3.5-130.6-7.1-196-8.6
				c-66.4-1.5-132.9-1.3-199.3,0.5c-6.6,0.2-13.2,0.4-19.8,0.6c-0.1-3.4,2-7.4-0.7-10.1c-2.3-2.3-6.6-1.4-10.1-0.4
				c-0.6-2.9-1.6-5.7-2.9-8.4c-0.5-1.1-1.9-1.7-3-1.7c-2.8,0-5.7,0-8.5,0c0-2.2,0-4.3,0-6.5c0-2.2-1.7-3.4-3.5-3.4
				c-1.1-0.5-2.4-0.4-3.4,1c-8.3,10.7-16.6,21.4-25.2,31.9c-5.5,0.3-11,0.5-16.5,0.8c-2.8,0.1-3.8,2.8-3.2,4.8
				c-0.5,0.6-0.8,1.3-0.7,2.4c0.6,4.6,1.1,9.2,1.6,13.8c-10.3,11.1-21.3,21.6-30.8,33.3c-1.7,2.1-0.6,4.6,1.1,5.7
				c0.5,1.1,1.5,1.9,3,1.9c1,0,2,0,3,0c-0.2,3.1-0.1,6.3,2.2,8.3c2.3,2,6.3,1.6,9.9,0.9c-1.1,3.8-2.2,7.7-3.3,11.5
				c-0.7,2.6,1.8,5,4.3,4.3c3.2-0.8,6.3-1.6,9.5-2.4c0.4,2.3,0.9,4.6,1.6,6.8c0.6,2,2.4,2.7,4,2.4c0.1,0,0.1,0,0.2,0.1
				c0.4,17.4,0.3,34.9-0.4,52.4c-1.3,2.1-0.4,5.5,2.8,5.4c66.3-2.1,132.5-4.2,198.8-6.4c33.1-1.1,66.1-2.1,99.2-1.7
				c32.9,0.4,65.6,3.1,98.4,6.2c7.8,0.7,15.5,1.4,23.3,2c-0.1,2.7,0.2,5.4,2.3,7.2c2.3,2,6.3,1.6,9.9,0.9c-1.1,3.8-2.2,7.7-3.3,11.5
				c-0.7,2.6,1.8,5,4.3,4.3c3.2-0.8,6.3-1.6,9.5-2.4c0.4,2.3,0.9,4.6,1.6,6.8c0.6,2,2.4,2.7,4,2.4c1,0.3,2.2,0.1,3.1-1.1
				c8.1-10,17.2-19.1,26.1-28.4c4.9-0.2,9.8-0.6,14.7-1.1c2.2-0.2,3.3-2,3.3-3.7c0.1-0.3,0.2-0.7,0.2-1.1c0.2-5,0.3-10.1,0.5-15.1
				c10.3-12.3,20.1-25,29.9-37.7c0.6-0.8,0.8-1.6,0.8-2.4C700.4,194.1,698.4,189.5,694.7,190z"/>
			<path fill="#FFEEB3" d="M597.9,249.3c-0.6-0.9-1.7-1.5-2.9-1.5c-0.7,0-1.4,0-2.2,0c11-12.8,23.6-24.4,34.6-37.3
				c10.9-12.6,21.1-25.7,31.3-38.9c0,0.3,0,0.6,0,0.9c0,0.9,0.3,1.6,0.9,2.3c1,19.6,1.3,39.2,0.9,58.7c-1.5,1.8-3,3.5-4.5,5.3
				c-3.3,3.9-6.8,7.7-10.3,11.4C629.8,250.9,613.9,250.3,597.9,249.3z"/>
			<path fill="#FFEEB3" d="M171.6,127.6c1.8-1.9,3.5-3.9,5.2-5.8c3.3-3.8,6.5-7.7,9.7-11.6c16.4-0.8,32.7-1.4,49.1-2
				c0.5,1.1,1.2,1.8,1.9,2.1c-10.4,13.5-21,26.9-32.1,39.8c-9.5,11-20,21.1-29.8,31.8C174.9,163.9,173.5,145.7,171.6,127.6z"/>
			<path fill="#FFEEB3" d="M208.1,83c0,0.3,0,0.6,0,0.9c0,1.9,1.6,3.5,3.5,3.5c3.2,0,6.5,0,9.7,0c1,2.4,1.6,4.9,1.9,7.5
				c0.3,2.4,2,3.9,4.4,3.4c1.4-0.3,4-1.2,6.2-1.5c-0.1,1.3-0.4,2.7-0.4,3.6c0,0.3,0,0.6,0.1,0.9c-13.7,0.5-27.4,1-41.1,1.7
				C197.7,96.4,203,89.7,208.1,83z"/>
			<path fill="#F7BDBB" d="M169.7,111.4c0-0.1-0.1-0.2-0.1-0.3c2.5-0.1,4.9-0.2,7.4-0.4c-1.7,2.1-3.5,4.1-5.2,6.2
				c-0.4,0.5-0.9,1-1.3,1.5C170.3,116,170,113.7,169.7,111.4z"/>
			<path fill="#FFEEB3" d="M147.7,167.8c0-1.7,0.1-3.5,0.1-5.2c0-1.9-1.6-3.5-3.5-3.5c-0.7,0-1.4,0-2.2,0
				c7.3-8.5,15.3-16.5,23.1-24.7c1.6,15.8,2.7,31.7,3.3,47.6c-0.8-0.9-2-1.4-3.4-1c-2.4,0.6-4.9,1.2-7.3,1.9c1-3.6,2.1-7.3,3.1-10.9
				c0.6-2-1.1-4.7-3.4-4.4c-2.6,0.3-5.2,0.6-7.8,0.9C148.4,169.2,147.7,169,147.7,167.8z"/>
			<path fill="#F7BDBB" d="M566,246.6c-32.8-3.1-65.5-5.6-98.4-6c-66.2-0.7-132.5,2.9-198.6,5c-31.1,1-62.1,2-93.2,3
				c0.7-18.8,0.8-37.6,0.2-56.5c11-12.7,23.4-24.2,34.4-37c12.7-14.7,24.5-30.1,36.4-45.4c0.5-0.6,0.7-1.2,0.8-1.9
				c105.8-3.3,211.7-2.4,317.4,2.9c29.9,1.5,59.8,3.2,89.7,4.8c1.8,14.9,3.2,29.8,4.2,44.8c-11.8,15.3-23.7,30.6-36.3,45.3
				c-12.3,14.3-26.5,27-38.3,41.6c-0.3,0.3-0.4,0.7-0.6,1C577.7,247.7,571.9,247.2,566,246.6z"/>
			<path fill="#FFEEB3" d="M598.4,256.4C598.4,256.4,598.4,256.4,598.4,256.4c1.7,0,3.5,0.1,5.2,0.2c-1,0.1-2.1,0.2-3.1,0.4
				C599.1,257.9,598.4,257.7,598.4,256.4z"/>
			<path fill="#FFEEB3" d="M621,276.7c-0.3-1.2-0.5-2.5-0.6-3.7c-0.3-2.2-2-4-4.4-3.4c-2.4,0.6-4.9,1.2-7.3,1.9
				c1-3.6,2.1-7.3,3.1-10.9c0.3-1.2-0.1-2.6-1-3.5c9.4,0.4,18.8,0.6,28.1,0.4C632.8,263.8,626.7,270.1,621,276.7z"/>
			<path fill="#F7BDBB" d="M660.3,244.7c0,1.6-0.1,3.1-0.2,4.7c-1.4,0.1-2.9,0.2-4.3,0.3C657.4,248,658.9,246.3,660.3,244.7z"/>
			<path fill="#FFEEB3" d="M666.8,176.1c1.8,0,3.5,0,5.3,0c1,2.4,1.6,4.9,1.9,7.5c0.3,2.4,2,3.9,4.4,3.4c1.4-0.3,4-1.2,6.2-1.5
				c-0.1,1.3-0.4,2.7-0.4,3.6c0,2.8,1,5.3,2.1,7.8c0.5,1.2,1.2,1.9,1.9,2.2c-6.7,8.7-13.5,17.4-20.5,25.9
				C667.9,208.6,667.5,192.3,666.8,176.1z"/>
		</g>
		<g>
			<path d="M493.2,614.9c-8.8-34.7-4.4-71-3.7-106.4c0.8-37.3-0.4-74.7-3-111.9c0-0.4-0.1-0.8-0.3-1.1c-0.4-1.4-1.4-2.5-3.2-2.6
				c-103.2-3.5-206.4-3.7-309.6-0.6c-1,0-1.8,0.4-2.4,1c-1.3,0.3-2.4,1.4-2.3,3.2c2.6,37.2,3.8,74.6,3,111.9
				c-0.7,36.3-5.2,73.3,4.1,108.9c0.2,0.9,0.7,1.5,1.3,1.9c0.3,1.4,1.4,2.7,3.3,2.7c52.1,0.1,104.2,0.1,156.3,0.2
				c51.6,0.1,103.1,0.6,154.7-0.9C495.1,621.3,495.7,616.4,493.2,614.9z"/>
			<path fill="#B8E5F7" d="M336.7,615.3c-51.4-0.1-102.9-0.1-154.3-0.2c-8.9-34.8-4.5-71.1-3.7-106.6c0.8-36.4-0.3-72.9-2.9-109.3
				c101.3-3,202.6-2.8,303.9,0.5c2.5,36.2,3.6,72.5,2.8,108.7c-0.7,35.3-4.9,71.3,3.4,106C436.2,615.8,386.4,615.4,336.7,615.3z"/>
			<path d="M199.9,405.5c-7.9-0.4-13.6,6.7-14,14c-0.4,7.9,6.7,13.6,14,14c7.5,0.4,13-6.1,13.9-13c0.1-0.3,0.1-0.7,0.1-1
				c0-0.4,0-0.7-0.1-1C212.9,411.1,207.4,405.9,199.9,405.5z"/>
			<path fill="#BDBDBD" d="M192.9,419.5c-0.5-9,13.5-9,14,0C206.4,428.5,193.3,428.5,192.9,419.5z"/>
			<path d="M213.8,595.3c-0.8-7.4-6.3-12.6-13.9-13c-7.9-0.4-13.6,6.7-14,14c-0.4,7.9,6.7,13.6,14,14c7.5,0.4,13-6.1,13.9-13
				c0.1-0.3,0.1-0.7,0.1-1C213.9,596,213.8,595.7,213.8,595.3z"/>
			<path fill="#BDBDBD" d="M192.9,596.4c-0.5-9,13.5-9,14,0C206.4,605.4,193.3,605.4,192.9,596.4z"/>
			<path d="M460.4,405.5c-7.9-0.4-13.6,6.7-14,14c-0.4,7.9,6.7,13.6,14,14c7.5,0.4,13-6.1,13.9-13c0.1-0.3,0.1-0.7,0.1-1
				c0-0.4,0-0.7-0.1-1C473.4,411.1,467.9,405.9,460.4,405.5z"/>
			<path fill="#BDBDBD" d="M453.4,419.5c-0.5-9,13.5-9,14,0C466.9,428.5,453.8,428.5,453.4,419.5z"/>
			<path d="M474.3,595.3c-0.8-7.4-6.3-12.6-13.9-13c-7.9-0.4-13.6,6.7-14,14c-0.4,7.9,6.7,13.6,14,14c7.5,0.4,13-6.1,13.9-13
				c0.1-0.3,0.1-0.7,0.1-1C474.4,596,474.3,595.7,474.3,595.3z"/>
			<path fill="#BDBDBD" d="M453.4,596.4c-0.5-9,13.5-9,14,0C466.9,605.4,453.8,605.4,453.4,596.4z"/>
		</g>
		<g>
			<g>
				<path d="M1250.2,166.8c-103.8,0-207.7,0-311.5,0c-0.4-17.2-3.8-34.3-4-51.5c0-3.3-3.7-4.2-5.7-2.7c-0.3,0.1-0.6,0.3-0.9,0.5
					c-34.6,28.2-58.5,67.5-95.1,93.4c-0.6,0.4-1,1-1.3,1.5c-1.5,1.2-2.1,3.4-0.2,4.9c18.5,15.9,32.1,36.2,46.9,55.4
					c15.6,20.2,34.2,37.2,53.5,53.8c0.4,1.4,1.5,2.2,2.8,2.4c3.4,2.1,7.8-2.5,4.5-5.3c-0.1-0.1-0.3-0.3-0.4-0.4
					c0-16.1,0-32.1,0-48.2c103.5,0,207,0,310.5,0c2.6,0,3.7-2.3,3.3-4.3c0.1-0.4,0.2-0.7,0.2-1.2c0-30.9,0-61.7,0-92.6
					C1254.4,170.8,1253.6,166.8,1250.2,166.8z"/>
				<path fill="#019A8A" d="M884.3,264.9c-14.5-18.5-27.6-38.3-45.1-54.2c33.8-24.9,57.1-60.8,88.7-88.2c0.8,15.7,3.7,31.2,3.8,46.9
					c0,1.4,0.7,2.3,1.6,2.9c0.5,0.9,1.5,1.6,2.9,1.6c103.2,0,206.3,0,309.5,0c0,30,0,60,0,90c-102.7,0-205.4,0-308.1,0
					c-2-1.7-5.9-0.9-5.9,2.5c0,15.5,0,31.1,0,46.6C914.7,298.1,898.3,282.7,884.3,264.9z"/>
			</g>
			<g>
				<path d="M1249.6,135.7c-103.8,0-207.7,0-311.5,0c-0.4-17.2-3.8-34.3-4-51.5c0-3.3-3.7-4.2-5.7-2.7c-0.3,0.1-0.6,0.3-0.9,0.5
					c-34.6,28.2-58.5,67.5-95.1,93.4c-0.6,0.4-1,1-1.3,1.5c-1.5,1.2-2.1,3.4-0.2,4.9c18.5,15.9,32.1,36.2,46.9,55.4
					c15.6,20.2,34.2,37.2,53.5,53.8c0.4,1.4,1.5,2.2,2.8,2.4c3.4,2.1,7.8-2.5,4.5-5.3c-0.1-0.1-0.3-0.3-0.4-0.4
					c0-16.1,0-32.1,0-48.2c103.5,0,207,0,310.5,0c2.6,0,3.7-2.3,3.3-4.3c0.1-0.4,0.2-0.7,0.2-1.2c0-30.9,0-61.7,0-92.6
					C1253.9,139.7,1253.1,135.7,1249.6,135.7z"/>
				<path fill="#B5E0DD" d="M883.8,233.8c-14.5-18.5-27.6-38.3-45.1-54.2c33.8-24.9,57.1-60.8,88.7-88.2c0.8,15.7,3.7,31.2,3.8,46.9
					c0,1.4,0.7,2.3,1.6,2.9c0.5,0.9,1.5,1.6,2.9,1.6c103.2,0,206.3,0,309.5,0c0,30,0,60,0,90c-102.7,0-205.4,0-308.1,0
					c-2-1.7-5.9-0.9-5.9,2.5c0,15.5,0,31.1,0,46.6C914.2,267,897.8,251.6,883.8,233.8z"/>
			</g>
		</g>
		<g>
			<path d="M894.1,356.7c-102.7,4.9-205.7,5.4-308.4,1.6c-4.5-0.2-4.5,6.8,0,7c4.4,0.2,8.9,0.3,13.3,0.4
				c7.1,69.3,9.6,139.1,7.4,208.8c0,0.9,0.2,1.6,0.7,2.2c0.1,0.2,0.2,0.3,0.3,0.5c15.1,22,40,33.9,59.8,51
				c24,20.6,46.7,42.8,69.9,64.2c0.7,0.7,1.5,0.9,2.3,0.9c0.1,0,0.1,0,0.2,0c0.1,0,0.1,0,0.2,0c0.8,0,1.6-0.3,2.3-0.9
				c23.2-21.4,46-43.5,69.9-64.2c19.8-17.2,44.7-28.9,59.8-51c0.1-0.2,0.2-0.3,0.3-0.5c0.4-0.5,0.7-1.3,0.7-2.2
				c-2.2-70.2,0.3-140.4,7.5-210.2c4.7-0.2,9.3-0.4,14-0.6C898.6,363.5,898.6,356.5,894.1,356.7z M865.6,573.7
				c-14.9,21.8-40.5,33.7-60,50.7c-22.5,19.6-44.1,40.4-66,60.7c-21.9-20.3-43.6-41-66-60.7c-19.5-17.1-45.1-28.9-60-50.7
				c2.1-69.3-0.3-138.7-7.4-207.7c3.5,0.1,7,0.2,10.5,0.3c0.5,4,1,7.9,1.4,11.9c0.2,1.9,1.4,3.5,3.5,3.5c1.7,0,3.7-1.6,3.5-3.5
				c-0.5-3.9-0.9-7.8-1.4-11.7c76.9,2,153.9,1.6,230.7-1.2c0,2.6,0,5.2,0,7.9c0,4.5,7,4.5,7,0c0-2.7,0-5.4,0-8.1
				c3.9-0.2,7.9-0.3,11.8-0.5C866,434.1,863.4,504,865.6,573.7z"/>
			<path fill="#FCD64D" d="M861.3,373.2c0,4.5-7,4.5-7,0c0-2.6,0-5.2,0-7.9c-76.9,2.8-153.8,3.2-230.7,1.2c0.5,3.9,0.9,7.8,1.4,11.7
				c0.2,1.9-1.8,3.5-3.5,3.5c-2.1,0-3.3-1.6-3.5-3.5c-0.5-4-1-7.9-1.4-11.9c-3.5-0.1-7-0.2-10.5-0.3c7,69,9.5,138.4,7.4,207.7
				c15,21.8,40.6,33.5,60,50.7c22.4,19.7,44.1,40.4,66,60.7c21.9-20.3,43.5-41.1,66-60.7c19.5-17,45.1-28.9,60-50.7
				c-2.1-69.8,0.4-139.6,7.5-209.1c-3.9,0.2-7.9,0.3-11.8,0.5C861.3,367.8,861.3,370.5,861.3,373.2z M851.5,420.8
				c0.4-2.8,0.4-5.7,0.2-8.6c-0.3-4.5,6.7-4.5,7,0c0.3,3.5,0,7-0.5,10.4c-0.3,1.9-2.6,2.9-4.3,2.4
				C851.9,424.6,851.2,422.7,851.5,420.8z M622.8,504.7c0-2.7,0-5.3,0-8c0-4.5,7-4.5,7,0c0,2.7,0,5.3,0,8
				C629.8,509.3,622.8,509.3,622.8,504.7z M628.8,523.7c0,1.5,0,3,0,4.5c0,1.9-1.6,3.5-3.5,3.5s-3.5-1.6-3.5-3.5c0-1.5,0-3,0-4.5
				c0-1.9,1.6-3.5,3.5-3.5S628.8,521.8,628.8,523.7z M629.5,471.1c-0.4,2-0.4,4-0.2,6.1c0.2,1.9-1.7,3.5-3.5,3.5
				c-2,0-3.3-1.6-3.5-3.5c-0.3-2.7-0.1-5.3,0.5-7.9c0.4-1.9,2.6-2.9,4.3-2.4C629,467.4,629.9,469.3,629.5,471.1z M625.8,398.2
				c0,2.9,0.6,5.7,1.8,8.3c2,4-4.1,7.6-6,3.5c-1.8-3.7-2.8-7.7-2.8-11.9C618.8,393.7,625.8,393.7,625.8,398.2z M628.3,424.2
				c0,2.7,0,5.3,0,8c0,4.5-7,4.5-7,0c0-2.7,0-5.3,0-8C621.3,419.7,628.3,419.7,628.3,424.2z M624.7,444.7c2.1,0,3.3,1.6,3.5,3.5
				c0.3,2.5,0.6,5,0.9,7.5c0.2,1.9-1.8,3.5-3.5,3.5c-2.1,0-3.3-1.6-3.5-3.5c-0.3-2.5-0.6-5-0.9-7.5C621,446.3,623,444.7,624.7,444.7
				z M621.3,542.7c0-4.5,7-4.5,7,0c0,2.2,0,4.3,0,6.5c0,4.5-7,4.5-7,0C621.3,547.1,621.3,544.9,621.3,542.7z M622.2,570.7
				c-0.5-2.5-0.7-5-0.4-7.5c0.2-1.9,1.4-3.5,3.5-3.5c1.8,0,3.7,1.6,3.5,3.5c-0.2,1.9-0.2,3.7,0.1,5.6c0.4,1.9-0.5,3.8-2.4,4.3
				C624.8,573.6,622.6,572.6,622.2,570.7z M635.7,586.7c-1.9-2.1-4.1-3.5-6.7-4.6c-1.8-0.7-2.1-3.3-1.3-4.8c1.1-1.8,3-2,4.8-1.3
				c3.1,1.3,5.8,3.3,8.1,5.7C643.8,585.1,638.8,590.1,635.7,586.7z M657.8,598c-1,1.7-3.1,2.1-4.8,1.3c-2.3-1.2-4.7-2.3-7-3.5
				c-1.7-0.9-2.2-3.2-1.3-4.8c1-1.7,3.1-2.1,4.8-1.3c2.3,1.2,4.7,2.3,7,3.5C658.2,594.1,658.7,596.4,657.8,598z M677.8,610.9
				c-1,1.7-3.1,2.1-4.8,1.3c-3.1-1.5-5.9-3.5-8.3-5.9c-3.2-3.2,1.8-8.1,4.9-4.9c2,2,4.3,3.6,6.9,4.8
				C678.3,607,678.7,609.4,677.8,610.9z M690.7,626.8c-2-2-4.1-3.5-6.6-4.7c-1.7-0.8-2.2-3.2-1.3-4.8c1-1.7,3.1-2.1,4.8-1.3
				c3,1.5,5.7,3.5,8,5.8C698.8,625.1,693.9,630,690.7,626.8z M713.8,644c-1,1.7-3.1,2.2-4.8,1.3c-2.8-1.5-5-3.7-6.7-6.3
				c-1-1.6-0.4-3.8,1.3-4.8c1.7-1,3.8-0.4,4.8,1.3c1.1,1.7,2.2,2.8,4.2,3.8C714.2,640.1,714.7,642.4,713.8,644z M728.1,661.3
				c-1.3,1.3-3.7,1.4-5,0c-1.7-1.9-3.5-3.8-5.2-5.8c-1.3-1.4-1.4-3.6,0-4.9c1.3-1.3,3.7-1.4,4.9,0c1.7,1.9,3.5,3.8,5.2,5.8
				C729.4,657.8,729.5,659.9,728.1,661.3z M741.7,672.6c-0.9,1.6-3.2,2.3-4.8,1.3c-1.3-0.9-2.6-1.8-3.9-2.7
				c-1.6-1.1-2.3-3.1-1.3-4.8c0.9-1.6,3.2-2.3,4.8-1.3c1.3,0.9,2.6,1.8,3.9,2.7C742,668.9,742.7,670.8,741.7,672.6z M754.5,664.8
				c-0.6,0.3-1.3,0.6-1.8,1c-0.1,0.1-0.2,0.1-0.3,0.2c0,0-0.1,0.1-0.1,0.1c-0.2,0.2-0.3,0.3-0.5,0.5c-0.2,0.2-0.5,0.5-0.7,0.7
				c0,0-0.1,0.1-0.1,0.2c-0.3,0.5-0.6,1-0.9,1.5c-0.8,1.7-3.2,2.2-4.8,1.3c-1.7-1-2.1-3.1-1.3-4.8c1.4-2.9,3.9-5.4,6.9-6.7
				c1.7-0.8,3.7-0.5,4.8,1.3C756.7,661.5,756.3,664,754.5,664.8z M770.8,649.2c-2.6,2.4-5.1,4.8-7.7,7.3c-3.3,3.1-8.2-1.8-4.9-4.9
				c2.6-2.4,5.1-4.8,7.7-7.3C769.1,641.2,774,646.1,770.8,649.2z M783.4,634.3c-1.8,2.2-3.3,4.6-4.8,7.1c-2.3,3.9-8.4,0.3-6-3.5
				c1.8-3,3.8-5.8,5.9-8.5c1.2-1.5,3.7-1.2,4.9,0C784.8,630.8,784.5,632.8,783.4,634.3z M798.2,619.2c-1.5,1.7-3,3.4-4.4,5
				c-1.3,1.4-3.7,1.3-4.9,0c-1.4-1.4-1.3-3.5,0-4.9c1.5-1.7,3-3.4,4.4-5c1.3-1.4,3.7-1.3,5,0C799.6,615.6,799.5,617.8,798.2,619.2z
				 M813.7,605.7c-1.5,1.7-3,3.4-4.4,5.1c-1.3,1.4-3.7,1.3-4.9,0c-1.4-1.4-1.3-3.5,0-4.9c1.5-1.7,3-3.4,4.4-5.1
				c1.3-1.4,3.7-1.3,4.9,0C815.1,602.2,815,604.3,813.7,605.7z M831.3,591.2c-2.3,1.8-4.7,3.6-7,5.5c-1.5,1.2-3.5,1.5-4.9,0
				c-1.2-1.2-1.5-3.8,0-4.9c2.3-1.8,4.7-3.6,7-5.5c1.5-1.2,3.5-1.5,4.9,0C832.5,587.5,832.8,590.1,831.3,591.2z M849.7,580.1
				c-1.8,1.5-3.6,3.1-5.4,4.6c-1.4,1.2-3.5,1.4-4.9,0c-1.3-1.3-1.5-3.7,0-4.9c1.8-1.5,3.6-3.1,5.4-4.6c1.4-1.2,3.5-1.4,4.9,0
				C851,576.5,851.1,578.9,849.7,580.1z M854.3,558.7c0,4.5-7,4.5-7,0c0-2.5,0-5,0-7.5c0-4.5,7-4.5,7,0
				C854.3,553.7,854.3,556.2,854.3,558.7z M854.8,538.2c0,4.5-7,4.5-7,0c0-3.2,0-6.3,0-9.5c0-4.5,7-4.5,7,0
				C854.8,531.9,854.8,535.1,854.8,538.2z M855.2,515.2c-0.1,1.9-1.5,3.5-3.5,3.5c-1.8,0-3.6-1.6-3.5-3.5c0.2-2.5,0.4-5,0.6-7.5
				c0.1-1.9,1.5-3.5,3.5-3.5c1.8,0,3.6,1.6,3.5,3.5C855.6,510.2,855.4,512.7,855.2,515.2z M856.8,489.7c0,1.9-1.6,3.5-3.5,3.5
				s-3.5-1.6-3.5-3.5c0-2,0-4,0-6c0-1.9,1.6-3.5,3.5-3.5s3.5,1.6,3.5,3.5C856.8,485.7,856.8,487.7,856.8,489.7z M857.3,466.7
				c0,4.5-7,4.5-7,0c0-2.5,0-5,0-7.5c0-4.5,7-4.5,7,0C857.3,461.7,857.3,464.2,857.3,466.7z M858.2,445.7c-0.4,1.9-2.6,2.9-4.3,2.4
				c-1.9-0.5-2.8-2.4-2.4-4.3c0.4-2,0.5-4,0.3-6.1c-0.2-1.9,1.7-3.5,3.5-3.5c2,0,3.3,1.6,3.5,3.5C859,440.4,858.8,443.1,858.2,445.7
				z M860.7,387.7c-0.5,2.5-0.6,5-0.4,7.6c0.1,1.9-1.7,3.5-3.5,3.5c-2,0-3.4-1.6-3.5-3.5c-0.2-3.2,0-6.3,0.6-9.4
				c0.4-1.9,2.6-2.9,4.3-2.4C860.2,383.9,861,385.8,860.7,387.7z"/>
			<path d="M627.6,406.6c-1.3-2.6-1.8-5.4-1.8-8.3c0-4.5-7-4.5-7,0c0,4.2,1,8.1,2.8,11.9C623.5,414.1,629.6,410.6,627.6,406.6z"/>
			<path d="M621.3,424.2c0,2.7,0,5.3,0,8c0,4.5,7,4.5,7,0c0-2.7,0-5.3,0-8C628.3,419.7,621.3,419.7,621.3,424.2z"/>
			<path d="M625.7,459.3c1.7,0,3.7-1.6,3.5-3.5c-0.3-2.5-0.6-5-0.9-7.5c-0.2-1.9-1.4-3.5-3.5-3.5c-1.7,0-3.7,1.6-3.5,3.5
				c0.3,2.5,0.6,5,0.9,7.5C622.4,457.6,623.6,459.3,625.7,459.3z"/>
			<path d="M627.1,466.8c-1.7-0.5-3.9,0.6-4.3,2.4c-0.5,2.6-0.7,5.3-0.5,7.9c0.2,1.9,1.5,3.5,3.5,3.5c1.8,0,3.7-1.6,3.5-3.5
				c-0.2-2-0.2-4.1,0.2-6.1C629.9,469.3,629,467.4,627.1,466.8z"/>
			<path d="M629.8,496.7c0-4.5-7-4.5-7,0c0,2.7,0,5.3,0,8c0,4.5,7,4.5,7,0C629.8,502.1,629.8,499.4,629.8,496.7z"/>
			<path d="M625.3,520.2c-1.9,0-3.5,1.6-3.5,3.5c0,1.5,0,3,0,4.5c0,1.9,1.6,3.5,3.5,3.5s3.5-1.6,3.5-3.5c0-1.5,0-3,0-4.5
				C628.8,521.8,627.2,520.2,625.3,520.2z"/>
			<path d="M628.3,549.2c0-2.2,0-4.3,0-6.5c0-4.5-7-4.5-7,0c0,2.2,0,4.3,0,6.5C621.3,553.8,628.3,553.8,628.3,549.2z"/>
			<path d="M629,568.8c-0.4-1.9-0.3-3.7-0.1-5.6c0.2-1.9-1.7-3.5-3.5-3.5c-2.1,0-3.3,1.6-3.5,3.5c-0.3,2.5-0.1,5,0.4,7.5
				c0.4,1.9,2.6,2.9,4.3,2.4C628.5,572.6,629.3,570.7,629,568.8z"/>
			<path d="M632.6,576.1c-1.8-0.7-3.7-0.5-4.8,1.3c-0.9,1.5-0.5,4,1.3,4.8c2.6,1.1,4.8,2.6,6.7,4.6c3.1,3.3,8-1.6,4.9-4.9
				C638.4,579.4,635.7,577.4,632.6,576.1z"/>
			<path d="M656.5,593.2c-2.3-1.2-4.7-2.3-7-3.5c-1.7-0.9-3.8-0.5-4.8,1.3c-0.9,1.6-0.4,3.9,1.3,4.8c2.3,1.2,4.7,2.3,7,3.5
				c1.7,0.9,3.8,0.5,4.8-1.3C658.7,596.4,658.2,594.1,656.5,593.2z"/>
			<path d="M676.6,606.2c-2.6-1.2-4.8-2.8-6.9-4.8c-3.2-3.2-8.1,1.8-4.9,4.9c2.4,2.4,5.2,4.4,8.3,5.9c1.7,0.8,3.8,0.5,4.8-1.3
				C678.7,609.4,678.3,607,676.6,606.2z"/>
			<path d="M687.6,616c-1.7-0.9-3.8-0.5-4.8,1.3c-0.9,1.6-0.5,3.9,1.3,4.8c2.5,1.2,4.7,2.8,6.6,4.7c3.2,3.2,8.1-1.7,4.9-4.9
				C693.3,619.5,690.6,617.5,687.6,616z"/>
			<path d="M712.5,639.2c-1.9-1-3.1-2.1-4.2-3.8c-1-1.6-3.1-2.2-4.8-1.3c-1.6,0.9-2.3,3.2-1.3,4.8c1.6,2.6,3.9,4.9,6.7,6.3
				c1.7,0.9,3.8,0.4,4.8-1.3C714.7,642.4,714.2,640.1,712.5,639.2z"/>
			<path d="M722.9,650.6c-1.3-1.4-3.7-1.3-4.9,0c-1.4,1.4-1.3,3.5,0,4.9c1.7,1.9,3.5,3.8,5.2,5.8c1.3,1.4,3.7,1.3,5,0
				c1.4-1.4,1.3-3.5,0-4.9C726.4,654.5,724.6,652.5,722.9,650.6z"/>
			<path d="M740.5,667.8c-1.3-0.9-2.6-1.8-3.9-2.7c-1.6-1.1-3.9-0.3-4.8,1.3c-1,1.7-0.3,3.7,1.3,4.8c1.3,0.9,2.6,1.8,3.9,2.7
				c1.6,1.1,3.9,0.3,4.8-1.3C742.7,670.8,742,668.9,740.5,667.8z"/>
			<path d="M751,658.7c-3,1.3-5.5,3.8-6.9,6.7c-0.8,1.7-0.5,3.8,1.3,4.8c1.6,0.9,4,0.5,4.8-1.3c0.3-0.5,0.5-1,0.9-1.5
				c0-0.1,0.1-0.1,0.1-0.2c0.2-0.3,0.4-0.5,0.7-0.7c0.2-0.2,0.3-0.3,0.5-0.5c0.1-0.1,0.1-0.1,0.1-0.1c0.1,0,0.1-0.1,0.3-0.2
				c0.6-0.4,1.2-0.7,1.8-1c1.7-0.8,2.1-3.3,1.3-4.8C754.8,658.2,752.8,658,751,658.7z"/>
			<path d="M765.8,644.3c-2.6,2.4-5.1,4.8-7.7,7.3c-3.3,3.1,1.7,8,4.9,4.9c2.6-2.4,5.1-4.8,7.7-7.3
				C774,646.1,769.1,641.2,765.8,644.3z"/>
			<path d="M778.4,629.4c-2.1,2.7-4.1,5.5-5.9,8.5c-2.3,3.9,3.7,7.4,6,3.5c1.5-2.4,3-4.8,4.8-7.1c1.2-1.5,1.5-3.5,0-4.9
				C782.1,628.1,779.6,627.8,778.4,629.4z"/>
			<path d="M793.3,614.2c-1.5,1.7-3,3.4-4.4,5c-1.3,1.4-1.4,3.5,0,4.9c1.3,1.3,3.7,1.4,4.9,0c1.5-1.7,3-3.4,4.4-5
				c1.3-1.4,1.4-3.5,0-4.9C796.9,612.9,794.5,612.8,793.3,614.2z"/>
			<path d="M808.8,600.7c-1.5,1.7-3,3.4-4.4,5.1c-1.3,1.4-1.4,3.5,0,4.9c1.3,1.3,3.7,1.4,4.9,0c1.5-1.7,3-3.4,4.4-5.1
				c1.3-1.4,1.4-3.5,0-4.9C812.4,599.5,810,599.3,808.8,600.7z"/>
			<path d="M826.3,586.3c-2.3,1.8-4.7,3.6-7,5.5c-1.5,1.2-1.2,3.7,0,4.9c1.5,1.5,3.4,1.2,4.9,0c2.3-1.8,4.7-3.6,7-5.5
				c1.5-1.2,1.2-3.7,0-4.9C829.8,584.8,827.8,585.1,826.3,586.3z"/>
			<path d="M844.7,575.2c-1.8,1.5-3.6,3.1-5.4,4.6c-1.5,1.2-1.3,3.7,0,4.9c1.4,1.4,3.5,1.2,4.9,0c1.8-1.5,3.6-3.1,5.4-4.6
				c1.5-1.2,1.3-3.7,0-4.9C848.3,573.8,846.2,574,844.7,575.2z"/>
			<path d="M858.2,383.4c-1.7-0.5-3.9,0.6-4.3,2.4c-0.6,3.1-0.9,6.2-0.6,9.4c0.1,1.9,1.5,3.5,3.5,3.5c1.8,0,3.6-1.6,3.5-3.5
				c-0.2-2.5-0.1-5.1,0.4-7.6C861,385.8,860.2,383.9,858.2,383.4z"/>
			<path d="M853.9,425.1c1.7,0.5,4-0.6,4.3-2.4c0.5-3.5,0.7-6.9,0.5-10.4c-0.3-4.5-7.3-4.5-7,0c0.2,2.9,0.2,5.7-0.2,8.6
				C851.2,422.7,851.9,424.6,853.9,425.1z"/>
			<path d="M855.2,434.2c-1.8,0-3.7,1.6-3.5,3.5c0.2,2,0.1,4.1-0.3,6.1c-0.4,1.9,0.5,3.8,2.4,4.3c1.8,0.5,3.9-0.6,4.3-2.4
				c0.6-2.6,0.8-5.3,0.5-7.9C858.6,435.8,857.3,434.2,855.2,434.2z"/>
			<path d="M850.3,459.2c0,2.5,0,5,0,7.5c0,4.5,7,4.5,7,0c0-2.5,0-5,0-7.5C857.3,454.7,850.3,454.7,850.3,459.2z"/>
			<path d="M853.3,480.2c-1.9,0-3.5,1.6-3.5,3.5c0,2,0,4,0,6c0,1.9,1.6,3.5,3.5,3.5s3.5-1.6,3.5-3.5c0-2,0-4,0-6
				C856.8,481.8,855.2,480.2,853.3,480.2z"/>
			<path d="M852.3,504.2c-2,0-3.4,1.6-3.5,3.5c-0.2,2.5-0.4,5-0.6,7.5c-0.1,1.9,1.7,3.5,3.5,3.5c2,0,3.4-1.6,3.5-3.5
				c0.2-2.5,0.4-5,0.6-7.5C855.9,505.8,854.1,504.2,852.3,504.2z"/>
			<path d="M847.8,528.7c0,3.2,0,6.3,0,9.5c0,4.5,7,4.5,7,0c0-3.2,0-6.3,0-9.5C854.8,524.2,847.8,524.2,847.8,528.7z"/>
			<path d="M847.3,551.2c0,2.5,0,5,0,7.5c0,4.5,7,4.5,7,0c0-2.5,0-5,0-7.5C854.3,546.7,847.3,546.7,847.3,551.2z"/>
		</g>
		<g>
			<path d="M1228.5,680.8c0,0,0-0.1,0-0.1c0.3-101.8-3.7-203.6-7.8-305.3c2.2-1.7,1.5-6.2-2.1-6.3c-41.5-1.1-83.1-2.1-124.6-3.2
				c-41.4-1.1-82.5-1-123.8,2.1c-1.5,0.1-2.6,1-3,2.2c-1.2,0.4-2.1,1.5-2.1,3.2c4.1,102.4,8.2,204.9,7.8,307.4
				c0,2.6,2.4,3.7,4.4,3.3c41.3,0.1,82.7,0.1,124,0.2c20.5,0,41,0.1,61.6,0.1c20.7,0,41.6-0.4,62.3,0.6
				C1227.7,685,1228.8,682.8,1228.5,680.8z"/>
			<path fill="#F5BBCF" d="M1164.8,677.3c-21.2,0-42.3-0.1-63.5-0.1c-40.5-0.1-80.9-0.1-121.4-0.2c0.2-100.8-3.7-201.5-7.8-302.1
				c40.7-3,81.1-3,121.8-2c39.9,1,79.8,2.1,119.8,3.1c4,100.5,8,201.1,7.7,301.8C1202.6,677,1183.7,677.3,1164.8,677.3z"/>
			<path d="M1202.8,465.5c-3-35.8-4.6-71.6-4.6-107.5c0-0.8-0.2-1.5-0.6-2c-0.3-1.4-1.4-2.6-3.2-2.7c-12.5-0.8-25,0.9-37.5,1.3
				c-12,0.4-24.6-4-36.4-0.7c-0.9,0.3-1.5,0.8-1.9,1.4c-0.8,0.6-1.4,1.5-1.4,2.7c0,35.8,1.5,71.5,4.5,107.1
				c-0.7,1.5-0.5,3.3,1.3,4.4c6.8,4,13.6,8,20.4,12c3.4,2,6.8,4,10.2,6c2.6,1.5,5.6,4.1,8.8,4.1c2.7,0,5.7-2.4,7.9-3.6
				c3.6-2,7.3-3.9,10.9-5.9c6.7-3.7,13.4-7.6,19.8-11.9c1.3-0.8,1.7-2.1,1.6-3.3C1202.7,466.5,1202.8,466,1202.8,465.5z"/>
			<path fill="#EE6393" d="M1163.7,483.6c-2.4,1.3-5.9-1.9-8.2-3.3c-3.4-2-6.8-4-10.2-6c-5.5-3.2-11.1-6.5-16.6-9.7
				c-2.9-34.7-4.4-69.6-4.5-104.5c5-1,10.1-0.3,15.2,0.4c5.8,0.8,11.6,1.1,17.5,1c11.5-0.2,22.9-1.8,34.3-1.4
				c0,35.1,1.6,70.2,4.5,105.2C1185.4,472,1174.5,477.7,1163.7,483.6z"/>
			<g>
				<path d="M1125.1,366.5c0.1,2.3,0.3,4.7,0.4,7c0.1,1.9,1.5,3.5,3.5,3.5c1.8,0,3.6-1.6,3.5-3.5c-0.1-2.3-0.3-4.7-0.4-7
					c-0.1-1.9-1.5-3.5-3.5-3.5C1126.8,363,1125,364.6,1125.1,366.5L1125.1,366.5z"/>
			</g>
			<g>
				<path d="M1126.1,384.8c-0.1,2.9,0.3,5.8,0.9,8.6c0.4,1.9,2.5,2.9,4.3,2.4c1.9-0.5,2.9-2.4,2.4-4.3c-0.5-2.2-0.7-4.4-0.6-6.7
					C1133.2,380.3,1126.2,380.3,1126.1,384.8L1126.1,384.8z"/>
			</g>
			<g>
				<path d="M1126.6,403.5c0.4,3,0.9,6,1.6,8.9c1.1,4.4,7.9,2.5,6.8-1.9c-0.6-2.3-1.1-4.7-1.4-7.1c-0.2-1.9-1.4-3.5-3.5-3.5
					C1128.4,400,1126.4,401.6,1126.6,403.5L1126.6,403.5z"/>
			</g>
			<g>
				<path d="M1127.8,420.8c0,2.2,0,4.4,0,6.7c0,4.5,7,4.5,7,0c0-2.2,0-4.4,0-6.7C1134.8,416.3,1127.8,416.3,1127.8,420.8
					L1127.8,420.8z"/>
			</g>
			<g>
				<path d="M1128.8,437.5c-0.1,2.6,0.2,5.1,0.5,7.6c0.3,1.9,2.6,2.9,4.3,2.4c2-0.6,2.7-2.4,2.4-4.3c-0.3-1.9-0.3-3.8-0.3-5.7
					C1135.9,432.9,1128.9,432.9,1128.8,437.5L1128.8,437.5z"/>
			</g>
			<g>
				<path d="M1129.8,454.8c-0.5,3.2-0.2,6.1,1.2,9.1c0.8,1.7,3.3,2.1,4.8,1.3c1.8-1,2-3,1.3-4.8c-0.5-1-0.6-2.6-0.5-3.7
					c0.3-1.9-0.5-3.8-2.4-4.3C1132.4,451.9,1130.1,452.9,1129.8,454.8L1129.8,454.8z"/>
			</g>
			<g>
				<path d="M1181.5,365.8c0,2.4,0,4.9,0,7.3c0,4.5,7,4.5,7,0c0-2.4,0-4.9,0-7.3C1188.5,361.3,1181.5,361.3,1181.5,365.8
					L1181.5,365.8z"/>
			</g>
			<g>
				<path d="M1181.4,383.1c0.2,2.3,0.3,4.7,0.5,7c0.1,1.9,1.5,3.5,3.5,3.5c1.8,0,3.6-1.6,3.5-3.5c-0.2-2.3-0.3-4.7-0.5-7
					c-0.1-1.9-1.5-3.5-3.5-3.5C1183.1,379.6,1181.3,381.2,1181.4,383.1L1181.4,383.1z"/>
			</g>
			<g>
				<path d="M1181.1,401.5c-0.2,2.6,0.5,5.2,1.9,7.4c1,1.6,3.1,2.2,4.8,1.3c1.6-0.9,2.3-3.2,1.3-4.8c-0.8-1.3-1-2.3-0.9-3.9
					c0.1-1.9-1.7-3.5-3.5-3.5C1182.6,398,1181.3,399.6,1181.1,401.5L1181.1,401.5z"/>
			</g>
			<g>
				<path d="M1182.4,419.1c0.3,2.1,0.5,4.2,0.8,6.3c0.2,1.9,1.4,3.5,3.5,3.5c1.7,0,3.7-1.6,3.5-3.5c-0.3-2.1-0.5-4.2-0.8-6.3
					c-0.2-1.9-1.4-3.5-3.5-3.5C1184.1,415.6,1182.1,417.2,1182.4,419.1L1182.4,419.1z"/>
			</g>
			<g>
				<path d="M1183.8,437.1c-0.2,1.9,0.1,3.8,0.7,5.6c0.6,1.8,2.4,3,4.3,2.4c1.7-0.5,3.1-2.5,2.4-4.3c-0.2-0.6-0.4-1.3-0.5-2
					c0.1,0.7,0-0.4,0-0.4c0-0.5,0-0.9,0-1.4c0.2-1.9-1.7-3.5-3.5-3.5C1185.3,433.6,1184,435.2,1183.8,437.1L1183.8,437.1z"/>
			</g>
			<g>
				<path d="M1184.8,454.8c0.1,2.6,0.4,5.1,1.1,7.6c1.1,4.4,7.9,2.5,6.7-1.9c-0.5-1.9-0.8-3.8-0.8-5.8
					C1191.7,450.3,1184.7,450.3,1184.8,454.8L1184.8,454.8z"/>
			</g>
		</g>
		<g>
			<path d="M714.3,887c-0.7-4-1.6-7.9-2.1-12c-0.5-3.9-0.9-7.8-1.3-11.8c-0.9-8.5-1.9-17.1-2.7-25.6c-1.7-16.4-3.2-32.8-4.6-49.3
				c-1-11.5,0.3-26.4-12.7-31.6c-5.4-2.2-9.3-2.8-14.7-2.8c-5.6,0-11.1,0-16.7,0c-49.9,0-99.9,0-149.8,0c-64.7,0-129.4,0-194.2,0
				c-40.1,0-80.2,0-120.3,0c-5,0-9.3,0-14,2.4c-3.9,2-7.7,6.1-9.3,10.1c-2.8,6.9-0.9,14.8-0.3,22.1c1.4,16.3,2.9,32.5,4.5,48.8
				c1.6,16.2,3.4,32.4,5.3,48.6c0.6,5.3,0.5,10.2,3.3,15c2.8,4.8,8.6,8.3,14.1,8.6c2.6,0.1,5.1,0.1,7.7,0.1c41.1,0,82.2,0,123.3,0
				c64.8,0,129.6,0,194.4,0c50,0,99.9,0,149.9,0c7.4,0,14.8,0,22.2,0C708.5,909.2,716.3,898.9,714.3,887z M637,902.7
				c-0.3-2.7-0.6-5.3-0.9-8c7.8,0,15.6,0,23.4,0c0.3,2.7,0.6,5.3,0.9,8C652.7,902.7,644.9,902.7,637,902.7z M297.9,887.7
				c-31.4,0-62.8,0-94.1,0c-0.3-7.3-1.8-14.8-2.6-21.9c-1.2-10.4-2.3-20.8-3.3-31.3c-2-19.5-3.7-39-5.3-58.5
				c132.2,0,264.5,0,396.7,0c30.4,0,60.8,0,91.2,0c1.6,20.2,3.5,40.3,5.5,60.4c1.1,10.4,2.2,20.9,3.3,31.3
				c0.6,5.2,1.2,10.4,1.8,15.6c0.2,1.5,0.3,2.9,0.5,4.3C560.4,887.7,429.2,887.7,297.9,887.7z M576.2,902.7c-0.3-2.7-0.6-5.3-0.9-8
				c7.8,0,15.6,0,23.4,0c0,0,0,0,0,0c0.3,2.7,0.6,5.3,0.9,8C591.8,902.7,584,902.7,576.2,902.7z M545.8,902.7
				c-0.3-2.7-0.6-5.3-0.9-8c7.8,0,15.6,0,23.4,0c0.3,2.7,0.6,5.3,0.9,8C561.4,902.7,553.6,902.7,545.8,902.7z M485,902.7
				c-0.3-2.7-0.6-5.3-0.9-8c7.8,0,15.6,0,23.4,0c0.3,2.7,0.6,5.3,0.9,8C500.6,902.7,492.8,902.7,485,902.7z M454.5,902.7
				c-0.3-2.7-0.6-5.3-0.9-8c7.8,0,15.6,0,23.4,0c0.3,2.7,0.6,5.3,0.9,8C470.2,902.7,462.3,902.7,454.5,902.7z M424.1,902.7
				c-0.3-2.7-0.6-5.3-0.9-8c7.8,0,15.6,0,23.4,0c0.3,2.7,0.6,5.3,0.9,8C439.7,902.7,431.9,902.7,424.1,902.7z M393.7,902.7
				c-0.3-2.7-0.6-5.3-0.9-8c7.8,0,15.6,0,23.4,0c0.3,2.7,0.6,5.3,0.9,8C409.3,902.7,401.5,902.7,393.7,902.7z M363.3,902.7
				c-0.3-2.7-0.6-5.3-0.9-8c7.8,0,15.6,0,23.4,0c0.3,2.7,0.6,5.3,0.9,8C378.9,902.7,371.1,902.7,363.3,902.7z M332.9,902.7
				c-0.3-2.7-0.6-5.3-0.9-8c7.8,0,15.6,0,23.4,0c0.3,2.7,0.6,5.3,0.9,8C348.5,902.7,340.7,902.7,332.9,902.7z M302.5,902.7
				c-0.3-2.7-0.6-5.3-0.9-8c7.8,0,15.6,0,23.4,0c0.3,2.7,0.6,5.3,0.9,8C318.1,902.7,310.3,902.7,302.5,902.7z M272,902.7
				c-0.3-2.7-0.6-5.3-0.9-8c7.8,0,15.6,0,23.4,0c0.3,2.7,0.6,5.3,0.9,8C287.6,902.7,279.8,902.7,272,902.7z M211.2,902.7
				c-0.3-2.7-0.6-5.3-0.9-8c7.8,0,15.6,0,23.4,0c0.3,2.7,0.6,5.3,0.9,8C226.8,902.7,219,902.7,211.2,902.7z M186.4,786.1
				c0.6,7.7,1.3,15.3,2,23c-2.7,0-5.4,0-8,0c-0.1-1.6-0.3-3.2-0.5-4.8c-0.5-6.1-1.1-12.1-1.6-18.2
				C181,786.1,183.7,786.1,186.4,786.1z M189,816.1c0.6,6.8,1.3,13.6,2,20.4c0.1,0.9,0.2,1.7,0.3,2.6c-2.7,0-5.4,0-8.1,0
				c-0.8-7.7-1.5-15.3-2.3-23C183.7,816.1,186.4,816.1,189,816.1z M184.7,853.1c-0.2-2.3-0.5-4.7-0.7-7c2.7,0,5.4,0,8.1,0
				c0.7,6.6,1.4,13.2,2.1,19.8c0.1,1.1,0.3,2.1,0.4,3.2c-2.7,0-5.4,0-8.1,0C185.8,863.7,185.3,858.4,184.7,853.1z M248.7,761.1
				c0.3,2.7,0.6,5.3,0.9,8c-7.8,0-15.6,0-23.4,0c-0.3-2.7-0.6-5.3-0.9-8C233.1,761.1,240.9,761.1,248.7,761.1z M309.5,761.1
				c0.3,2.7,0.6,5.3,0.9,8c-7.8,0-15.6,0-23.4,0c-0.3-2.7-0.6-5.3-0.9-8C293.9,761.1,301.7,761.1,309.5,761.1z M340,761.1
				c0.3,2.7,0.6,5.3,0.9,8c-7.8,0-15.6,0-23.4,0c-0.3-2.7-0.6-5.3-0.9-8C324.3,761.1,332.1,761.1,340,761.1z M370.4,761.1
				c0.3,2.7,0.6,5.3,0.9,8c-7.8,0-15.6,0-23.4,0c-0.3-2.7-0.6-5.3-0.9-8C354.8,761.1,362.6,761.1,370.4,761.1z M400.8,761.1
				c0.3,2.7,0.6,5.3,0.9,8c-7.8,0-15.6,0-23.4,0c-0.3-2.7-0.6-5.3-0.9-8C385.2,761.1,393,761.1,400.8,761.1z M431.2,761.1
				c0.3,2.7,0.6,5.3,0.9,8c-7.8,0-15.6,0-23.4,0c-0.3-2.7-0.6-5.3-0.9-8C415.6,761.1,423.4,761.1,431.2,761.1z M492,761.1
				c0.3,2.7,0.6,5.3,0.9,8c-7.8,0-15.6,0-23.4,0c-0.3-2.7-0.6-5.3-0.9-8C476.4,761.1,484.2,761.1,492,761.1z M552.9,761.1
				c0.3,2.7,0.6,5.3,0.9,8c-7.8,0-15.6,0-23.4,0c-0.3-2.7-0.6-5.3-0.9-8C537.3,761.1,545.1,761.1,552.9,761.1z M583.3,761.1
				c0.3,2.7,0.6,5.3,0.9,8c-7.8,0-15.6,0-23.4,0c-0.3-2.7-0.6-5.3-0.9-8C567.7,761.1,575.5,761.1,583.3,761.1z M613.7,761.1
				c0.3,2.7,0.6,5.3,0.9,8c-7.8,0-15.6,0-23.4,0c-0.3-2.7-0.6-5.3-0.9-8C598.1,761.1,605.9,761.1,613.7,761.1z M644.1,761.1
				c0.3,2.7,0.6,5.3,0.9,8c-7.8,0-15.6,0-23.4,0c-0.3-2.7-0.6-5.3-0.9-8C628.5,761.1,636.3,761.1,644.1,761.1z M692.8,834.6
				c-0.6-6.2-1.2-12.3-1.8-18.5c2,0,4,0,6,0c0.8,0,1.5-0.2,2-0.6c0.1,1.5,0.3,2.9,0.4,4.4c0.6,6.4,1.3,12.8,1.9,19.2
				c-2.7,0-5.4,0-8.1,0C693.1,837.6,692.9,836.1,692.8,834.6z M696.3,786.1c0.2,2.7,0.5,5.5,0.7,8.2c0.4,5,0.9,10,1.4,15.1
				c-0.4-0.2-0.9-0.3-1.4-0.3c-2.2,0-4.4,0-6.7,0c-0.7-7.7-1.4-15.3-2-23C691,786.1,693.6,786.1,696.3,786.1z M696.1,865.8
				c-0.7-6.6-1.4-13.2-2.1-19.8c2.7,0,5.4,0,8.1,0c0.7,6.4,1.4,12.7,2.1,19.1c0.1,1.3,0.3,2.6,0.4,3.9c-2.7,0-5.4,0-8.1,0
				C696.3,868,696.2,866.9,696.1,865.8z M694.9,770.9c0.8,2.5,0.9,5.4,1,8.2c-2.7,0-5.4,0-8.2,0c-0.1-1.7-0.3-3.5-0.4-5.2
				c-0.2-2.1-1.8-3.2-3.5-3.3c-0.3-0.5-0.7-0.9-1.3-1.1c-0.3-2.8-0.6-5.5-1-8.3C687.3,761.5,693.1,765.3,694.9,770.9z M670.5,761.1
				c1.4,0,2.7,0,4.1,0c0.3,2.7,0.6,5.3,0.9,8c-7.8,0-15.6,0-23.4,0c-0.3-2.7-0.6-5.3-0.9-8C657.6,761.1,664,761.1,670.5,761.1z
				 M522.5,761.1c0.3,2.7,0.6,5.3,0.9,8c-7.8,0-15.6,0-23.4,0c-0.3-2.7-0.6-5.3-0.9-8C506.8,761.1,514.7,761.1,522.5,761.1z
				 M461.6,761.1c0.3,2.7,0.6,5.3,0.9,8c-7.8,0-15.6,0-23.4,0c-0.3-2.7-0.6-5.3-0.9-8c0.5,0,1,0,1.4,0
				C447,761.1,454.3,761.1,461.6,761.1z M279.1,761.1c0.3,2.7,0.6,5.3,0.9,8c-7.8,0-15.6,0-23.4,0c-0.3-2.7-0.6-5.3-0.9-8
				c0.8,0,1.7,0,2.5,0C265.2,761.1,272.1,761.1,279.1,761.1z M203.5,761.1c4.9,0,9.9,0,14.8,0c0.3,2.7,0.6,5.3,0.9,8
				c-7.6,0-15.3,0-22.9,0c-0.2,0-0.3,0-0.5,0c-0.3-2.7-0.6-5.3-0.9-8C197.7,761.1,200.6,761.1,203.5,761.1z M178,769.9
				c0.9-3.1,4-5.7,6.6-7.4c1-0.6,2.1-1,3.2-1.2c0.3,2.7,0.6,5.5,0.9,8.2c-0.5,0.2-1,0.5-1.4,0.9c-2.8,2.5-2,5.2-1.7,8.6
				c-2.7,0-5.4,0-8.1,0C177.4,776,177.2,773,178,769.9z M190.7,897.6c-1.6-2.2-1.9-5-1.9-7.6c0.1-3.8-0.9-7.9-1.4-11.6
				c-0.1-0.8-0.2-1.5-0.3-2.3c2.8,0,5.6,0,8.3,0c0.7,5.1,1.4,10.2,1.2,15.2c-0.1,1.9,1.6,3.5,3.5,3.5c1,0,2,0,3,0
				c0.3,2.7,0.6,5.3,0.9,8C199,902.7,194.3,902.6,190.7,897.6z M241.6,902.7c-0.3-2.7-0.6-5.3-0.9-8c7.8,0,15.6,0,23.4,0
				c0.3,2.7,0.6,5.3,0.9,8c-5.4,0-10.8,0-16.2,0C246.4,902.7,244,902.7,241.6,902.7z M515.4,902.7c-0.3-2.7-0.6-5.3-0.9-8
				c7.8,0,15.6,0,23.4,0c0.3,2.7,0.6,5.3,0.9,8C531,902.7,523.2,902.7,515.4,902.7z M606.6,902.7c-0.3-2.7-0.6-5.3-0.9-8
				c7.8,0,15.6,0,23.4,0c0.3,2.7,0.6,5.3,0.9,8c-7.3,0-14.7,0-22,0C607.6,902.7,607.1,902.7,606.6,902.7z M667.5,902.7
				c-0.3-2.7-0.6-5.3-0.9-8c7.8,0,15.6,0,23.4,0c0.3,2.7,0.6,5.3,0.9,8C683.1,902.7,675.3,902.7,667.5,902.7z M697.9,902.6
				c-0.3-2.6-0.6-5.3-0.9-7.9c2.3-0.4,3.5-3.1,2.4-5.2c-1.3-2.4-1.2-5.2-1.5-8c-0.2-1.8-0.4-3.6-0.6-5.4c2.7,0,5.4,0,8.1,0
				c0,0.3,0.1,0.6,0.1,0.9c0.4,3.4,0.4,7.1,1.7,10.3C710,894.4,704.7,901.3,697.9,902.6z"/>
			<path fill="#FDD836" d="M355.4,894.7c-7.8,0-15.6,0-23.4,0c0.3,2.7,0.6,5.3,0.9,8c7.8,0,15.6,0,23.4,0
				C356,900.1,355.7,897.4,355.4,894.7z"/>
			<path fill="#FDD836" d="M704.1,865.2c-0.7-6.4-1.4-12.7-2.1-19.1c-2.7,0-5.4,0-8.1,0c0.7,6.6,1.4,13.2,2.1,19.8
				c0.1,1.1,0.2,2.2,0.4,3.2c2.7,0,5.4,0,8.1,0C704.4,867.8,704.2,866.5,704.1,865.2z"/>
			<path fill="#FDD836" d="M690.3,809.1c2.2,0,4.4,0,6.7,0c0.5,0,1,0.1,1.4,0.3c-0.5-5-0.9-10-1.4-15.1c-0.2-2.7-0.5-5.5-0.7-8.2
				c-2.7,0-5.4,0-8.1,0C688.9,793.7,689.6,801.4,690.3,809.1z"/>
			<path fill="#FDD836" d="M682.5,769.4c0.5,0.3,1,0.7,1.3,1.1c1.7,0.1,3.3,1.2,3.5,3.3c0.1,1.7,0.3,3.5,0.4,5.2c2.7,0,5.4,0,8.2,0
				c-0.1-2.8-0.2-5.7-1-8.2c-1.8-5.6-7.5-9.3-13.3-9.8C681.9,763.9,682.2,766.6,682.5,769.4z"/>
			<path fill="#FDD836" d="M324.9,894.7c-7.8,0-15.6,0-23.4,0c0.3,2.7,0.6,5.3,0.9,8c7.8,0,15.6,0,23.4,0
				C325.6,900.1,325.3,897.4,324.9,894.7z"/>
			<path fill="#FDD836" d="M385.8,894.7c-7.8,0-15.6,0-23.4,0c0.3,2.7,0.6,5.3,0.9,8c7.8,0,15.6,0,23.4,0
				C386.4,900.1,386.1,897.4,385.8,894.7z"/>
			<path fill="#FDD836" d="M652.1,769.1c7.8,0,15.6,0,23.4,0c-0.3-2.7-0.6-5.3-0.9-8c-1.4,0-2.7,0-4.1,0c-6.5,0-12.9,0-19.4,0
				C651.4,763.7,651.7,766.4,652.1,769.1z"/>
			<path fill="#FDD836" d="M256.6,769.1c7.8,0,15.6,0,23.4,0c-0.3-2.7-0.6-5.3-0.9-8c-7,0-14,0-20.9,0c-0.8,0-1.7,0-2.5,0
				C256,763.7,256.3,766.4,256.6,769.1z"/>
			<path fill="#FDD836" d="M294.5,894.7c-7.8,0-15.6,0-23.4,0c0.3,2.7,0.6,5.3,0.9,8c7.8,0,15.6,0,23.4,0
				C295.1,900.1,294.8,897.4,294.5,894.7z"/>
			<path fill="#FDD836" d="M439.1,769.1c7.8,0,15.6,0,23.4,0c-0.3-2.7-0.6-5.3-0.9-8c-7.3,0-14.7,0-22,0c-0.5,0-1,0-1.4,0
				C438.5,763.7,438.8,766.4,439.1,769.1z"/>
			<path fill="#FDD836" d="M500,769.1c7.8,0,15.6,0,23.4,0c-0.3-2.7-0.6-5.3-0.9-8c-7.8,0-15.6,0-23.4,0
				C499.3,763.7,499.7,766.4,500,769.1z"/>
			<path fill="#FDD836" d="M591.2,769.1c7.8,0,15.6,0,23.4,0c-0.3-2.7-0.6-5.3-0.9-8c-7.8,0-15.6,0-23.4,0
				C590.6,763.7,590.9,766.4,591.2,769.1z"/>
			<path fill="#FDD836" d="M621.6,769.1c7.8,0,15.6,0,23.4,0c-0.3-2.7-0.6-5.3-0.9-8c-7.8,0-15.6,0-23.4,0
				C621,763.7,621.3,766.4,621.6,769.1z"/>
			<path fill="#FDD836" d="M195.8,769.1c0.2,0,0.3,0,0.5,0c7.6,0,15.3,0,22.9,0c-0.3-2.7-0.6-5.3-0.9-8c-4.9,0-9.9,0-14.8,0
				c-2.9,0-5.7,0-8.6,0C195.2,763.7,195.5,766.4,195.8,769.1z"/>
			<path fill="#FDD836" d="M560.8,769.1c7.8,0,15.6,0,23.4,0c-0.3-2.7-0.6-5.3-0.9-8c-7.8,0-15.6,0-23.4,0
				C560.2,763.7,560.5,766.4,560.8,769.1z"/>
			<path fill="#FDD836" d="M530.4,769.1c7.8,0,15.6,0,23.4,0c-0.3-2.7-0.6-5.3-0.9-8c-7.8,0-15.6,0-23.4,0
				C529.8,763.7,530.1,766.4,530.4,769.1z"/>
			<path fill="#FDD836" d="M469.5,769.1c7.8,0,15.6,0,23.4,0c-0.3-2.7-0.6-5.3-0.9-8c-7.8,0-15.6,0-23.4,0
				C468.9,763.7,469.2,766.4,469.5,769.1z"/>
			<path fill="#FDD836" d="M408.7,769.1c7.8,0,15.6,0,23.4,0c-0.3-2.7-0.6-5.3-0.9-8c-7.8,0-15.6,0-23.4,0
				C408.1,763.7,408.4,766.4,408.7,769.1z"/>
			<path fill="#FDD836" d="M179.9,804.3c0.1,1.6,0.3,3.2,0.5,4.8c2.7,0,5.4,0,8,0c-0.7-7.7-1.4-15.3-2-23c-2.7,0-5.4,0-8,0
				C178.8,792.1,179.3,798.2,179.9,804.3z"/>
			<path fill="#FDD836" d="M233.7,894.7c-7.8,0-15.6,0-23.4,0c0.3,2.7,0.6,5.3,0.9,8c7.8,0,15.6,0,23.4,0
				C234.3,900.1,234,897.4,233.7,894.7z"/>
			<path fill="#FDD836" d="M699.4,819.9c-0.1-1.5-0.3-2.9-0.4-4.4c-0.5,0.4-1.2,0.6-2,0.6c-2,0-4,0-6,0c0.6,6.2,1.2,12.3,1.8,18.5
				c0.2,1.5,0.3,3,0.5,4.5c2.7,0,5.4,0,8.1,0C700.6,832.7,700,826.3,699.4,819.9z"/>
			<path fill="#FDD836" d="M194.2,865.8c-0.7-6.6-1.4-13.2-2.1-19.8c-2.7,0-5.4,0-8.1,0c0.2,2.3,0.5,4.7,0.7,7
				c0.6,5.3,1.2,10.7,1.8,16c2.7,0,5.4,0,8.1,0C194.4,868,194.3,866.9,194.2,865.8z"/>
			<path fill="#FDD836" d="M191.3,839.1c-0.1-0.9-0.2-1.7-0.3-2.6c-0.7-6.8-1.3-13.6-2-20.4c-2.7,0-5.4,0-8,0
				c0.7,7.7,1.5,15.3,2.3,23C185.9,839.1,188.6,839.1,191.3,839.1z"/>
			<path fill="#FDD836" d="M287,769.1c7.8,0,15.6,0,23.4,0c-0.3-2.7-0.6-5.3-0.9-8c-7.8,0-15.6,0-23.4,0
				C286.4,763.7,286.7,766.4,287,769.1z"/>
			<path fill="#FDD836" d="M507.5,894.7c-7.8,0-15.6,0-23.4,0c0.3,2.7,0.6,5.3,0.9,8c7.8,0,15.6,0,23.4,0
				C508.1,900.1,507.8,897.4,507.5,894.7z"/>
			<path fill="#FDD836" d="M477,894.7c-7.8,0-15.6,0-23.4,0c0.3,2.7,0.6,5.3,0.9,8c7.8,0,15.6,0,23.4,0
				C477.7,900.1,477.3,897.4,477,894.7z"/>
			<path fill="#FDD836" d="M629.1,894.7c-7.8,0-15.6,0-23.4,0c0.3,2.7,0.6,5.3,0.9,8c0.5,0,0.9,0,1.4,0c7.3,0,14.7,0,22,0
				C629.7,900.1,629.4,897.4,629.1,894.7z"/>
			<path fill="#FDD836" d="M568.3,894.7c-7.8,0-15.6,0-23.4,0c0.3,2.7,0.6,5.3,0.9,8c7.8,0,15.6,0,23.4,0
				C568.9,900.1,568.6,897.4,568.3,894.7z"/>
			<path fill="#FDD836" d="M659.5,894.7c-7.8,0-15.6,0-23.4,0c0.3,2.7,0.6,5.3,0.9,8c7.8,0,15.6,0,23.4,0
				C660.2,900.1,659.9,897.4,659.5,894.7z"/>
			<path fill="#FDD836" d="M705.4,877c0-0.3-0.1-0.6-0.1-0.9c-2.7,0-5.4,0-8.1,0c0.2,1.8,0.4,3.6,0.6,5.4c0.3,2.8,0.2,5.6,1.5,8
				c1.1,2.1-0.1,4.8-2.4,5.2c0.3,2.6,0.6,5.3,0.9,7.9c6.8-1.2,12.2-8.2,9.2-15.3C705.8,884.1,705.8,880.4,705.4,877z"/>
			<path fill="#FDD836" d="M690,894.7c-7.8,0-15.6,0-23.4,0c0.3,2.7,0.6,5.3,0.9,8c7.8,0,15.6,0,23.4,0
				C690.6,900.1,690.3,897.4,690,894.7z"/>
			<path fill="#FDD836" d="M537.9,894.7c-7.8,0-15.6,0-23.4,0c0.3,2.7,0.6,5.3,0.9,8c7.8,0,15.6,0,23.4,0
				C538.5,900.1,538.2,897.4,537.9,894.7z"/>
			<path fill="#FDD836" d="M416.2,894.7c-7.8,0-15.6,0-23.4,0c0.3,2.7,0.6,5.3,0.9,8c7.8,0,15.6,0,23.4,0
				C416.8,900.1,416.5,897.4,416.2,894.7z"/>
			<path fill="#FDD836" d="M203.3,894.7c-1,0-2,0-3,0c-1.9,0-3.6-1.6-3.5-3.5c0.1-5-0.5-10.1-1.2-15.2c-2.8,0-5.6,0-8.3,0
				c0.1,0.8,0.2,1.5,0.3,2.3c0.4,3.7,1.5,7.9,1.4,11.6c-0.1,2.7,0.3,5.4,1.9,7.6c3.6,5,8.3,5.2,13.5,5.2
				C203.9,900.1,203.6,897.4,203.3,894.7z"/>
			<path fill="#FDD836" d="M226.2,769.1c7.8,0,15.6,0,23.4,0c-0.3-2.7-0.6-5.3-0.9-8c-7.8,0-15.6,0-23.4,0
				C225.6,763.7,225.9,766.4,226.2,769.1z"/>
			<path fill="#FDD836" d="M347.9,769.1c7.8,0,15.6,0,23.4,0c-0.3-2.7-0.6-5.3-0.9-8c-7.8,0-15.6,0-23.4,0
				C347.3,763.7,347.6,766.4,347.9,769.1z"/>
			<path fill="#FDD836" d="M185.8,779.1c-0.4-3.4-1.1-6.2,1.7-8.6c0.4-0.4,0.9-0.7,1.4-0.9c-0.3-2.7-0.6-5.5-0.9-8.2
				c-1.1,0.2-2.2,0.6-3.2,1.2c-2.7,1.7-5.7,4.2-6.6,7.4c-0.9,3.1-0.6,6.1-0.3,9.2C180.4,779.1,183.1,779.1,185.8,779.1z"/>
			<path fill="#FDD836" d="M378.3,769.1c7.8,0,15.6,0,23.4,0c-0.3-2.7-0.6-5.3-0.9-8c-7.8,0-15.6,0-23.4,0
				C377.7,763.7,378,766.4,378.3,769.1z"/>
			<path fill="#FDD836" d="M446.6,894.7c-7.8,0-15.6,0-23.4,0c0.3,2.7,0.6,5.3,0.9,8c7.8,0,15.6,0,23.4,0
				C447.2,900.1,446.9,897.4,446.6,894.7z"/>
			<path fill="#FDD836" d="M317.5,769.1c7.8,0,15.6,0,23.4,0c-0.3-2.7-0.6-5.3-0.9-8c-7.8,0-15.6,0-23.4,0
				C316.8,763.7,317.1,766.4,317.5,769.1z"/>
			<path fill="#FDD836" d="M598.7,894.7C598.7,894.7,598.7,894.7,598.7,894.7c-7.8,0-15.6,0-23.4,0c0.3,2.7,0.6,5.3,0.9,8
				c7.8,0,15.6,0,23.4,0C599.3,900.1,599,897.4,598.7,894.7z"/>
			<path fill="#FDD836" d="M264.1,894.7c-7.8,0-15.6,0-23.4,0c0.3,2.7,0.6,5.3,0.9,8c2.4,0,4.8,0,7.2,0c5.4,0,10.8,0,16.2,0
				C264.7,900.1,264.4,897.4,264.1,894.7z"/>
			<path fill="#E5EB9C" d="M691.6,887.7c-0.2-1.4-0.4-2.8-0.5-4.3c-0.6-5.2-1.2-10.4-1.8-15.6c-1.2-10.4-2.3-20.8-3.3-31.3
				c-2-20.1-3.9-40.3-5.5-60.4c-30.4,0-60.8,0-91.2,0c-132.2,0-264.5,0-396.7,0c1.6,19.5,3.3,39,5.3,58.5
				c1.1,10.4,2.2,20.9,3.3,31.3c0.8,7.1,2.4,14.6,2.6,21.9c31.4,0,62.8,0,94.1,0C429.2,887.7,560.4,887.7,691.6,887.7z"/>
		</g>
		<g>
			<path d="M1263.9,751.3c-111.7,0-223.5,0-335.2,0c-48.9,0-97.8,0-146.7,0c-4.5,0-4.5,7,0,7c3.3,0,6.6,0,9.9,0
				c1.8,22.8,3.5,45.6,5.3,68.4c0.9,11.9,1.8,23.8,2.7,35.7c0.9,11.2,0.8,23,4.4,33.7c0.8,2.3,4,3.7,5.9,1.5
				c6-6.9,11.9-13.8,17.9-20.7c3-3.5,6-6.9,9-10.4c1.3-1.5,2.6-3,3.8-4.4c0.9-1.1,2.2-3.2,3.6-4.4c2.8,2.3,5.2,6.8,7.2,9.2
				c3.3,4.2,6.6,8.3,10,12.5c6.2,7.8,12.4,15.6,18.7,23.4c2.2,2.7,5.6,0.1,6-2.5c3.1-23.2,0.2-47.3-0.9-70.5
				c-1.1-23.8-2.3-47.7-3.4-71.5c11.3,0,22.6,0,33.9,0c1.8,22.8,3.5,45.6,5.3,68.4c0.9,11.9,1.8,23.8,2.7,35.7
				c0.9,11.2,0.8,23,4.4,33.7c0.8,2.3,4,3.7,5.8,1.5c6-6.9,11.9-13.8,17.9-20.7c3-3.5,6-6.9,9-10.4c1.3-1.5,2.6-3,3.8-4.4
				c0.9-1.1,2.2-3.2,3.6-4.4c2.8,2.3,5.2,6.8,7.2,9.2c3.3,4.2,6.6,8.3,10,12.5c6.2,7.8,12.4,15.6,18.7,23.4c2.2,2.7,5.6,0.1,6-2.5
				c3.1-23.2,0.2-47.3-0.9-70.5c-1.1-23.8-2.3-47.7-3.4-71.5c11.3,0,22.6,0,33.9,0c1.8,22.8,3.5,45.6,5.3,68.4
				c0.9,11.9,1.8,23.8,2.7,35.7c0.9,11.2,0.8,23,4.4,33.7c0.8,2.3,4,3.7,5.9,1.5c6-6.9,11.9-13.8,17.9-20.7c3-3.5,6-6.9,9-10.4
				c1.3-1.5,2.6-3,3.8-4.4c0.9-1.1,2.2-3.2,3.6-4.4c2.8,2.3,5.2,6.8,7.2,9.2c3.3,4.2,6.6,8.3,10,12.5c6.2,7.8,12.4,15.6,18.7,23.4
				c2.2,2.7,5.6,0.1,6-2.5c3.1-23.2,0.2-47.3-0.9-70.5c-1.1-23.8-2.3-47.7-3.4-71.5c11.3,0,22.6,0,33.9,0
				c1.8,22.8,3.5,45.6,5.3,68.4c0.9,11.9,1.8,23.8,2.7,35.7c0.9,11.2,0.8,23,4.4,33.7c0.8,2.3,4,3.7,5.8,1.5
				c6-6.9,11.9-13.8,17.9-20.7c3-3.5,6-6.9,9-10.4c1.3-1.5,2.6-3,3.8-4.4c0.9-1.1,2.2-3.2,3.6-4.4c2.8,2.3,5.2,6.8,7.2,9.2
				c3.3,4.2,6.6,8.3,10,12.5c6.2,7.8,12.4,15.6,18.7,23.4c2.2,2.7,5.6,0.1,6-2.5c3.1-23.2,0.2-47.3-0.9-70.5
				c-1.1-23.8-2.3-47.7-3.4-71.5c3.5,0,7,0,10.5,0C1268.5,758.3,1268.5,751.3,1263.9,751.3z M880.2,891.5
				c-4.9-6.2-9.9-12.4-14.9-18.6c-3.3-4.2-6.6-8.3-10-12.5c-2.6-3.2-5.5-9-9.7-10.1c-3.7-1-6.4,3-8.4,5.3c-3.4,4-6.8,7.9-10.2,11.9
				c-5.9,6.8-11.7,13.6-17.6,20.4c-1.7-8.3-1.8-17.1-2.5-25.5c-0.9-11.9-1.8-23.8-2.7-35.7c-1.8-22.8-3.5-45.6-5.3-68.4
				c25.3,0,50.6,0,75.9,0c1.1,23.2,2.2,46.4,3.3,69.5C879.2,848.8,881.7,870.5,880.2,891.5z M1004,891.5
				c-4.9-6.2-9.9-12.4-14.8-18.6c-3.3-4.2-6.6-8.3-10-12.5c-2.6-3.2-5.5-9-9.7-10.1c-3.7-1-6.4,3-8.4,5.3c-3.4,4-6.8,7.9-10.2,11.9
				c-5.9,6.8-11.7,13.6-17.6,20.4c-1.7-8.3-1.8-17.1-2.5-25.5c-0.9-11.9-1.8-23.8-2.7-35.7c-1.8-22.8-3.5-45.6-5.3-68.4
				c25.3,0,50.6,0,75.9,0c1.1,23.2,2.2,46.4,3.3,69.5C1003.1,848.8,1005.6,870.5,1004,891.5z M1127.9,891.5
				c-5-6.2-9.9-12.4-14.9-18.6c-3.3-4.2-6.6-8.3-10-12.5c-2.6-3.2-5.5-9-9.7-10.1c-3.7-1-6.4,3-8.4,5.3c-3.4,4-6.8,7.9-10.2,11.9
				c-5.9,6.8-11.7,13.6-17.6,20.4c-1.7-8.3-1.8-17.1-2.5-25.5c-0.9-11.9-1.8-23.8-2.7-35.7c-1.8-22.8-3.5-45.6-5.3-68.4
				c23.5,0,47,0,70.6,0c1.8,0,3.6,0,5.4,0c1.1,23.2,2.2,46.4,3.3,69.5C1127,848.8,1129.5,870.5,1127.9,891.5z M1251.8,891.5
				c-4.9-6.2-9.9-12.4-14.8-18.6c-3.3-4.2-6.6-8.3-10-12.5c-2.6-3.2-5.5-9-9.7-10.1c-3.7-1-6.4,3-8.4,5.3c-3.4,4-6.8,7.9-10.2,11.9
				c-5.9,6.8-11.7,13.6-17.6,20.4c-1.7-8.3-1.8-17.1-2.5-25.5c-0.9-11.9-1.8-23.8-2.7-35.7c-1.8-22.8-3.5-45.6-5.3-68.4
				c25.3,0,50.6,0,75.9,0c1.1,23.2,2.2,46.4,3.3,69.5C1250.8,848.8,1253.3,870.5,1251.8,891.5z"/>
			<path fill="#B09DCA" d="M874.9,758.3c-25.3,0-50.6,0-75.9,0c1.8,22.8,3.5,45.6,5.3,68.4c0.9,11.9,1.8,23.8,2.7,35.7
				c0.6,8.4,0.7,17.2,2.5,25.5c5.9-6.8,11.7-13.6,17.6-20.4c3.4-4,6.8-7.9,10.2-11.9c2-2.3,4.7-6.4,8.4-5.3
				c4.3,1.2,7.2,6.9,9.7,10.1c3.3,4.2,6.6,8.3,10,12.5c5,6.2,9.9,12.4,14.9,18.6c1.6-21.1-0.9-42.7-1.9-63.7
				C877.1,804.6,876,781.5,874.9,758.3z"/>
			<path fill="#B09DCA" d="M998.7,758.3c-25.3,0-50.6,0-75.9,0c1.8,22.8,3.5,45.6,5.3,68.4c0.9,11.9,1.8,23.8,2.7,35.7
				c0.6,8.4,0.7,17.2,2.5,25.5c5.9-6.8,11.7-13.6,17.6-20.4c3.4-4,6.8-7.9,10.2-11.9c2-2.3,4.7-6.4,8.4-5.3
				c4.3,1.2,7.2,6.9,9.7,10.1c3.3,4.2,6.6,8.3,10,12.5c4.9,6.2,9.9,12.4,14.8,18.6c1.6-21.1-0.9-42.7-1.9-63.7
				C1001,804.6,999.9,781.5,998.7,758.3z"/>
			<path fill="#B09DCA" d="M1122.6,758.3c-1.8,0-3.6,0-5.4,0c-23.5,0-47,0-70.6,0c1.8,22.8,3.5,45.6,5.3,68.4
				c0.9,11.9,1.8,23.8,2.7,35.7c0.6,8.4,0.7,17.2,2.5,25.5c5.9-6.8,11.7-13.6,17.6-20.4c3.4-4,6.8-7.9,10.2-11.9
				c2-2.3,4.7-6.4,8.4-5.3c4.3,1.2,7.2,6.9,9.7,10.1c3.3,4.2,6.6,8.3,10,12.5c5,6.2,9.9,12.4,14.9,18.6c1.6-21.1-0.9-42.7-1.9-63.7
				C1124.8,804.6,1123.7,781.5,1122.6,758.3z"/>
			<path fill="#B09DCA" d="M1246.5,758.3c-25.3,0-50.6,0-75.9,0c1.8,22.8,3.5,45.6,5.3,68.4c0.9,11.9,1.8,23.8,2.7,35.7
				c0.6,8.4,0.7,17.2,2.5,25.5c5.9-6.8,11.7-13.6,17.6-20.4c3.4-4,6.8-7.9,10.2-11.9c2-2.3,4.7-6.4,8.4-5.3
				c4.3,1.2,7.2,6.9,9.7,10.1c3.3,4.2,6.6,8.3,10,12.5c4.9,6.2,9.9,12.4,14.8,18.6c1.6-21.1-0.9-42.7-1.9-63.7
				C1248.7,804.6,1247.6,781.5,1246.5,758.3z"/>
		</g>
	</g>
</g>
</svg>
