<?xml version="1.0" encoding="utf-8"?>
<!-- Generator: Adobe Illustrator 19.2.0, SVG Export Plug-In . SVG Version: 6.00 Build 0)  -->
<svg version="1.1" id="Layer_1" xmlns="http://www.w3.org/2000/svg" xmlns:xlink="http://www.w3.org/1999/xlink" x="0px" y="0px"
	 viewBox="0 0 336 235.2" style="enable-background:new 0 0 336 235.2;" xml:space="preserve">
<style type="text/css">
	.st0{fill:#D2CFD6;}
	.st1{fill:#E6E7E8;}
	.st2{fill:#FFD55C;}
	.st3{fill:#FFFFFF;}
	.st4{fill:#FAB952;}
	.st5{fill-rule:evenodd;clip-rule:evenodd;fill:#FAB952;}
	.st6{fill-rule:evenodd;clip-rule:evenodd;fill:#FFD55C;}
	.st7{fill-rule:evenodd;clip-rule:evenodd;fill:#F69777;}
	.st8{fill:#586773;}
	.st9{fill:#F69777;}
	.st10{fill:#B2E1EE;}
	.st11{fill:#BCB8BE;}
	.st12{font-family:'Montserrat-Medium';}
	.st13{font-size:13.8621px;}
	.st14{fill:none;}
	.st15{font-family:'Montserrat-Light';}
	.st16{font-size:8.0862px;}
</style>
<rect class="st0" width="336" height="235.2"/>
<g>
	<g>
		<path class="st1" d="M320.2,41.5c-0.8-0.8-1.9-1.3-3-1.3c0.1,0,0.2,0,0.3,0c-0.1-1.1-0.5-2.2-1.3-3.1c-0.9-0.9-2.1-1.4-3.3-1.4
			H208.2c-1.2,0-2.4,0.5-3.3,1.4c-0.9,0.9-1.3,2-1.3,3.1c0.1,0,0.3,0,0.4,0c-1.1,0-2.2,0.4-3,1.3c-0.8,0.8-1.3,1.9-1.3,3v67.4
			c0,1.1,0.4,2.2,1.3,3c0.8,0.8,1.9,1.3,3,1.3h113.1c1.1,0,2.2-0.4,3-1.3c0.8-0.8,1.3-1.9,1.3-3V44.5
			C321.4,43.4,321,42.3,320.2,41.5z"/>
		<path class="st1" d="M277.1,35.7h36.1v-2.9c0-1.1-0.4-2.2-1.3-3c-0.8-0.8-1.9-1.3-3-1.3h-31.8v-6.7c0-1.1-0.4-2.2-1.3-3
			c-0.8-0.8-1.9-1.3-3-1.3h0h-27.4h0c-1.1,0-2.2,0.4-3,1.3c-0.8,0.8-1.3,1.9-1.3,3v6.7h-29.2c-1.1,0-2.2,0.4-3,1.3
			c-0.8,0.8-1.3,1.9-1.3,3v2.9h33.5H277.1z"/>
	</g>
	<g>
		<g>
			<path class="st2" d="M317.4,111.9c0,1.1-0.4,2.2-1.3,3c-0.8,0.8-1.9,1.3-3,1.3H200c-1.1,0-2.2-0.4-3-1.3c-0.8-0.8-1.3-1.9-1.3-3
				V44.5c0-1.1,0.4-2.2,1.3-3c0.8-0.8,1.9-1.3,3-1.3h113.1c1.1,0,2.2,0.4,3,1.3c0.8,0.8,1.3,1.9,1.3,3V111.9z"/>
			<path class="st3" d="M200,40.2h113.1c0.1,0,0.2,0,0.3,0c-0.1-1.1-0.5-2.2-1.3-3.1c-0.9-0.9-2.1-1.4-3.3-1.4H204.2
				c-1.2,0-2.4,0.5-3.3,1.4c-0.9,0.9-1.3,2-1.3,3.1C199.7,40.2,199.9,40.2,200,40.2z"/>
			<path class="st4" d="M308,29.7c-0.8-0.8-1.9-1.3-3-1.3h-31.8v-6.7c0-1.1-0.4-2.2-1.3-3c-0.8-0.8-1.9-1.3-3-1.3h0h-27.4h0
				c-1.1,0-2.2,0.4-3,1.3c-0.8,0.8-1.3,1.9-1.3,3v6.7h-29.2c-1.1,0-2.2,0.4-3,1.3c-0.8,0.8-1.3,1.9-1.3,3v2.9h33.5h35.9h36.1v-2.9
				C309.2,31.7,308.8,30.6,308,29.7z"/>
		</g>
		<g>
			<g>
				<rect x="281.8" y="93.9" class="st3" width="29.8" height="1.6"/>
				<rect x="281.8" y="100" class="st3" width="29.8" height="1.6"/>
				<rect x="281.8" y="106.1" class="st3" width="29.8" height="1.6"/>
			</g>
		</g>
	</g>
</g>
<path class="st1" d="M102.2,31.2v-8.9c0-1.4-0.5-2.7-1.5-3.6c-1-1-2.3-1.5-3.6-1.5H67.4c-1.4,0-2.7,0.5-3.6,1.5
	c-1,1-1.5,2.3-1.5,3.6v8.9H21.8v12.1v15.1v63.5h55.7v0h9.7v0h55.7V58.4V43.3V31.2H102.2z M66.5,22.3c0-0.2,0.1-0.5,0.3-0.6
	c0.2-0.2,0.4-0.3,0.6-0.3h29.6c0.2,0,0.5,0.1,0.6,0.3c0.2,0.2,0.3,0.4,0.3,0.6v8.9H87.1v-0.1h-9.7v0.1H66.5V22.3z"/>
<g>
	<rect x="18.3" y="43.3" class="st5" width="121" height="78.6"/>
	<path class="st6" d="M139.3,31.2h-121v27.2c0,6.2,2.4,12.4,7.1,17.1c4.7,4.7,10.9,7.1,17.1,7.1h72.6c6.2,0,12.4-2.4,17.1-7.1
		c4.7-4.7,7.1-10.9,7.1-17.1V31.2z"/>
	<rect x="74" y="31.1" class="st7" width="9.7" height="90.9"/>
	<g>
		<path class="st3" d="M84.1,78.8c-0.6-0.6-1.5-1-2.4-1h-5.8c-0.9,0-1.7,0.3-2.4,1c-0.6,0.6-1,1.5-1,2.4v8.1H74l0-8.1
			c0-0.5,0.2-1,0.6-1.4c0.4-0.4,0.9-0.6,1.4-0.6h5.8c0.5,0,1,0.2,1.4,0.6c0.4,0.4,0.6,0.9,0.6,1.4l0,8.1h1.4v-8.1
			C85.1,80.3,84.8,79.5,84.1,78.8z"/>
		<path class="st0" d="M78.2,81.4h1.4v-4.8c0-0.1-0.1-0.3-0.2-0.4C79.3,76,79.1,76,79,76h-0.3c-0.1,0-0.3,0-0.4,0.2
			c-0.1,0.1-0.2,0.3-0.2,0.4V81.4z"/>
	</g>
	<path class="st8" d="M63.1,22.3c0-0.2,0.1-0.5,0.3-0.6c0.2-0.2,0.4-0.3,0.6-0.3h29.6c0.2,0,0.5,0.1,0.6,0.3
		c0.2,0.2,0.3,0.4,0.3,0.6v8.9h4.2v-8.9c0-1.4-0.5-2.7-1.5-3.6c-1-1-2.3-1.5-3.6-1.5H64c-1.4,0-2.7,0.5-3.6,1.5
		c-1,1-1.5,2.3-1.5,3.6v8.9h4.2V22.3z"/>
</g>
<polygon class="st1" points="247.5,65.2 233.2,65.2 233.2,65.1 228.9,65.1 228.9,65.2 171.7,65.1 171.7,65.2 95.4,65.1 95.2,178.4 
	175.6,178.5 175.6,178.4 228.7,178.5 228.7,178.5 233,178.5 233,178.5 247.3,178.5 "/>
<g>
	<g>
		<g>
			<g id="_x31_1_2_">
				<g>
					<polygon class="st9" points="244.4,65.2 168.6,65.1 168.6,65.2 92.2,65.1 92.1,178.4 172.5,178.5 172.5,178.4 244.2,178.5 
											"/>
					<path class="st3" d="M94.9,72.3c0-2.2,1.8-3.9,3.9-3.9l63.6,0c2.2,0,3.9,1.8,3.9,3.9l0,99.4c0,2.2-1.8,3.9-3.9,3.9H98.8
						c-2.2,0-3.9-1.8-3.9-3.9V72.3z"/>
					<path class="st3" d="M169.9,72.3c0-2.2,1.8-3.9,3.9-3.9l63.6,0c2.2,0,3.9,1.8,3.9,3.9v99.4c0,2.2-1.8,3.9-3.9,3.9h-63.6
						c-2.2,0-3.9-1.8-3.9-3.9L169.9,72.3z"/>
					<g>
						<g>
							<path class="st8" d="M172.6,75.5c0,0.4-0.3,0.8-0.8,0.8l-7.1,0c-0.4,0-0.8-0.3-0.8-0.8l0-0.2c0-0.4,0.3-0.8,0.8-0.8l7.1,0
								c0.4,0,0.8,0.3,0.8,0.8V75.5z"/>
							<path class="st8" d="M172.6,78.1c0,0.4-0.3,0.8-0.8,0.8l-7.1,0c-0.4,0-0.8-0.3-0.8-0.8v-0.2c0-0.4,0.3-0.8,0.8-0.8l7.1,0
								c0.4,0,0.8,0.3,0.8,0.8L172.6,78.1z"/>
						</g>
						<g>
							<path class="st8" d="M172.6,85c0,0.4-0.3,0.8-0.8,0.8l-7.1,0c-0.4,0-0.8-0.3-0.8-0.8v-0.2c0-0.4,0.3-0.8,0.8-0.8l7.1,0
								c0.4,0,0.8,0.3,0.8,0.8V85z"/>
							<path class="st8" d="M172.6,87.5c0,0.4-0.3,0.8-0.8,0.5l-7.1,0c-0.4,0.2-0.7-0.1-0.7-0.5l0-0.2c0-0.4,0.3-0.8,0.8-0.8l7.1,0
								c0.4,0,0.8,0.3,0.8,0.8L172.6,87.5z"/>
						</g>
						<g>
							<path class="st8" d="M172.6,93.6c0,0.4-0.3,0.8-0.8,0.8l-7.1,0c-0.4,0-0.8-0.3-0.8-0.8v-0.2c0-0.4,0.3-0.8,0.8-0.8l7.1,0
								c0.4,0,0.8,0.3,0.8,0.8V93.6z"/>
							<path class="st8" d="M172.6,96.1c0,0.4-0.3,0.8-0.8,0.8l-7.1,0c-0.4,0-0.8-0.3-0.8-0.8l0-0.2c0-0.4,0.3-0.8,0.8-0.8l7.1,0
								c0.4,0,0.8,0.3,0.8,0.8L172.6,96.1z"/>
						</g>
						<g>
							<path class="st8" d="M172.6,103c0,0.4-0.3,0.8-0.8,0.8l-7.1,0c-0.4,0-0.8-0.3-0.8-0.8v-0.2c0-0.4,0.3-0.8,0.8-0.8l7.1,0
								c0.4,0,0.8,0.3,0.8,0.8V103z"/>
							<path class="st8" d="M172.6,105.6c0,0.4-0.3,0.8-0.8,0.8l-7.1,0c-0.4,0-0.8-0.3-0.8-0.8v-0.2c0-0.4,0.3-0.8,0.8-0.8l7.1,0
								c0.4,0,0.8,0.3,0.8,0.8L172.6,105.6z"/>
						</g>
						<g>
							<path class="st8" d="M172.6,111.6c0,0.4-0.3,0.8-0.8,0.8l-7.1,0c-0.4,0-0.8-0.3-0.8-0.8v-0.2c0-0.4,0.3-0.8,0.8-0.8l7.1,0
								c0.4,0,0.8,0.3,0.8,0.8L172.6,111.6z"/>
							<path class="st8" d="M172.6,114.2c0,0.4-0.3,0.8-0.8,0.8l-7.1,0c-0.4,0-0.8-0.3-0.8-0.8l0-0.2c0-0.4,0.3-0.8,0.8-0.8l7.1,0
								c0.4,0,0.8,0.3,0.8,0.8L172.6,114.2z"/>
						</g>
						<g>
							<path class="st8" d="M172.5,121.1c0,0.4-0.3,0.8-0.8,0.8l-7.1,0c-0.4,0-0.8-0.3-0.8-0.8l0-0.2c0-0.4,0.3-0.8,0.8-0.8l7.1,0
								c0.4,0,0.8,0.3,0.8,0.8V121.1z"/>
							<path class="st8" d="M172.5,123.7c0,0.4-0.3,0.8-0.8,0.8l-7.1,0c-0.4,0-0.8-0.3-0.8-0.8v-0.2c0-0.4,0.3-0.8,0.8-0.8l7.1,0
								c0.4,0,0.8,0.3,0.8,0.8V123.7z"/>
						</g>
						<g>
							<path class="st8" d="M172.5,130.5c0,0.4-0.3,0.8-0.8,0.8l-7.1,0c-0.4,0-0.8-0.3-0.8-0.8v-0.2c0-0.4,0.3-0.8,0.8-0.8l7.1,0
								c0.4,0,0.8,0.3,0.8,0.8V130.5z"/>
							<path class="st8" d="M172.5,133.1c0,0.4-0.3,0.8-0.8,0.8l-7.1,0c-0.4,0-0.8-0.3-0.8-0.8v-0.2c0-0.4,0.3-0.8,0.8-0.8l7.1,0
								c0.4,0,0.8,0.3,0.8,0.8L172.5,133.1z"/>
						</g>
						<g>
							<path class="st8" d="M172.5,139.1c0,0.4-0.3,0.8-0.8,0.8l-7.1,0c-0.4,0-0.8-0.3-0.8-0.8v-0.2c0-0.4,0.3-0.8,0.8-0.8l7.1,0
								c0.4,0,0.8,0.3,0.8,0.8V139.1z"/>
							<path class="st8" d="M172.5,141.7c0,0.4-0.3,0.8-0.8,0.8l-7.1,0c-0.4,0-0.8-0.3-0.8-0.8l0-0.2c0-0.4,0.3-0.8,0.8-0.8l7.1,0
								c0.4,0,0.8,0.3,0.8,0.8V141.7z"/>
						</g>
						<g>
							<path class="st8" d="M172.5,148.6c0,0.4-0.3,0.8-0.8,0.8l-7.1,0c-0.4,0-0.8-0.3-0.8-0.8v-0.2c0-0.4,0.3-0.8,0.8-0.8l7.1,0
								c0.4,0,0.8,0.3,0.8,0.8V148.6z"/>
							<path class="st8" d="M172.5,151.2c0,0.4-0.3,0.8-0.8,0.8l-7.1,0c-0.4,0-0.8-0.3-0.8-0.8V151c0-0.4,0.3-0.8,0.8-0.8l7.1,0
								c0.4,0,0.8,0.3,0.8,0.8L172.5,151.2z"/>
						</g>
						<g>
							<path class="st8" d="M172.5,157.2c0,0.4-0.3,0.8-0.8,0.8l-7.1,0c-0.4,0-0.8-0.3-0.8-0.8l0-0.2c0-0.4,0.3-0.8,0.8-0.8l7.1,0
								c0.4,0,0.8,0.3,0.8,0.8V157.2z"/>
							<path class="st8" d="M172.5,159.8c0,0.4-0.3,0.8-0.8,0.8l-7.1,0c-0.4,0-0.8-0.3-0.8-0.8l0-0.2c0-0.4,0.3-0.8,0.8-0.8l7.1,0
								c0.4,0,0.8,0.3,0.8,0.8L172.5,159.8z"/>
						</g>
						<g>
							<path class="st8" d="M172.5,166.7c0,0.4-0.3,0.8-0.8,0.8l-7.1,0c-0.4,0-0.8-0.3-0.8-0.8v-0.2c0-0.4,0.3-0.8,0.8-0.8l7.1,0
								c0.4,0,0.8,0.3,0.8,0.8V166.7z"/>
							<path class="st8" d="M172.5,169.2c0,0.4-0.3,0.8-0.8,0.8l-7.1,0c-0.4,0-0.8-0.3-0.8-0.8l0-0.2c0-0.4,0.3-0.8,0.8-0.8l7.1,0
								c0.4,0,0.8,0.3,0.8,0.8L172.5,169.2z"/>
						</g>
					</g>
				</g>
			</g>
		</g>
		<path class="st0" d="M161.8,75.4v-0.6h-0.6H98.3v0.6v7.3v0.6v7.3v0.6l0,7.3h0V99h0v7.3h0v0.6h0v15h0v0.6v7.3v0.6v7.3v0.6l0,7.3h0
			v0.6h0v7.3h0v0.6h0v15.7h31.5h0.6h7.3h0.6h7.3h0.6h7.3h0.6h7.3h0h0.4h0.2l0-47.1h0v-0.1h0v-0.6h0L161.8,75.4L161.8,75.4z
			 M153.9,75.4h7.3v7.3h-7.3V75.4z M153.9,83.3h7.3v7.3h-7.3V83.3z M153.9,91.1h7.3v7.3h-7.3V91.1z M153.9,99h7.3v7.3l-7.3,0V99z
			 M153.9,106.9h7.3v7.3h-7.3V106.9z M161.2,114.7v7.2h-7.3v-7.2H161.2z M146.1,75.4h7.3v7.3h-7.3V75.4z M146.1,83.3h7.3v7.3h-7.3
			V83.3z M146.1,91.1h7.3v7.3h-7.3V91.1z M146.1,99h7.3v7.3h-7.3V99z M146.1,106.9l7.3,0v7.3h-7.3V106.9z M153.3,114.7v7.2h-7.3
			v-7.2H153.3z M138.2,75.4h7.3v7.3h-7.3V75.4z M138.2,83.3h7.3v7.3h-7.3V83.3z M138.2,91.1h7.3v7.3h-7.3V91.1z M138.2,99l7.3,0v7.3
			h-7.3V99z M138.2,106.9h7.3v7.3h-7.3V106.9z M145.5,114.7v7.2h-7.3v-7.2H145.5z M130.3,75.4h7.3v7.3h-7.3V75.4z M130.3,83.3h7.3
			v7.3h-7.3V83.3z M130.3,91.1h7.3v7.3h-7.3V91.1z M130.3,99h7.3v7.3h-7.3V99z M130.3,106.9h7.3v7.3h-7.3V106.9z M137.6,114.7v7.2
			h-7.3v-7.2H137.6z M114.6,121.9v-7.2h7.3v7.2H114.6z M121.9,106.9v7.3h-7.3v-7.3H121.9z M114.6,106.3V99h7.3v7.3H114.6z
			 M122.5,75.4h7.3v7.3h-7.3V75.4z M122.5,83.3h7.3v7.3h-7.3V83.3z M122.5,91.1l7.3,0v7.3h-7.3V91.1z M122.5,99h7.3l0,7.3l-7.3,0V99
			z M122.5,106.9h7.3v7.3h-7.3V106.9z M129.7,114.7v7.2h-7.3v-7.2H129.7z M114.6,75.4h7.3v7.3h-7.3V75.4z M114.6,83.3l7.3,0v7.3
			h-7.3V83.3z M121.9,91.1v7.3h-7.3l0-7.3H121.9z M106.7,75.4h7.3v7.3h-7.3V75.4z M106.7,83.3h7.3v7.3h-7.3V83.3z M106.7,91.1h7.3
			v7.3h-7.3V91.1z M106.7,99l7.3,0l0,7.3h-7.3V99z M106.7,106.9h7.3v7.3h-7.3V106.9z M114,114.7v7.2h-7.3v-7.2H114z M106.7,138.2
			h7.3v7.3h-7.3V138.2z M106.7,137.6v-7.3h7.3v7.3H106.7z M106.7,129.7v-7.1h7.3v7.1H106.7z M98.9,75.4h7.3v7.3h-7.3V75.4z
			 M98.9,83.3h7.3v7.3h-7.3V83.3z M98.9,91.1h7.3v7.3h-7.3V91.1z M98.9,99h7.3v7.3h-7.3V99z M98.9,106.9h7.3v7.3h-7.3V106.9z
			 M98.9,114.7h7.3v7.2h-7.3V114.7z M106.1,169.1h-7.3v-7.3h7.3V169.1z M106.1,161.2h-7.3v-7.3h7.3V161.2z M106.1,153.3h-7.3v-7.3
			h7.3V153.3z M106.1,145.5h-7.3v-7.3h7.3V145.5z M106.1,137.6h-7.3v-7.3h7.3V137.6z M98.9,129.7v-7.1h7.3v7.1H98.9z M114,169.1
			h-7.3v-7.3h7.3V169.1z M114,161.2h-7.3v-7.3h7.3V161.2z M106.7,153.3v-7.3l7.3,0l0,7.3H106.7z M121.9,169.1h-7.3v-7.3h7.3V169.1z
			 M121.9,161.2h-7.3v-7.3h7.3V161.2z M121.9,153.3h-7.3v-7.3h7.3V153.3z M121.9,145.5h-7.3l0-7.3h7.3V145.5z M121.9,137.6h-7.3
			v-7.3h7.3V137.6z M114.6,129.7v-7.1h7.3v7.1H114.6z M129.7,169.1h-7.3v-7.3h7.3V169.1z M129.7,161.2h-7.3v-7.3h7.3V161.2z
			 M129.7,153.3l-7.3,0v-7.3h7.3L129.7,153.3z M129.7,145.5h-7.3v-7.3h7.3V145.5z M129.7,137.6h-7.3v-7.3h7.3V137.6z M122.5,129.7
			v-7.1h7.3h0v7.1H122.5z M137.6,169.1h-7.3v-7.3h7.3V169.1z M137.6,161.2h-7.3v-7.3h7.3V161.2z M137.6,153.3h-7.3v-7.3h7.3V153.3z
			 M137.6,145.5h-7.3v-7.3h7.3V145.5z M137.6,137.6h-7.3v-7.3h7.3V137.6z M137.6,129.7h-7.3v-7.1h7.3V129.7z M145.5,169.1h-7.3v-7.3
			h7.3V169.1z M145.5,161.2h-7.3v-7.3h7.3V161.2z M145.5,153.3h-7.3v-7.3l7.3,0V153.3z M145.5,145.5h-7.3v-7.3h7.3V145.5z
			 M145.5,137.6h-7.3v-7.3h7.3V137.6z M145.5,129.7h-7.3v-7.1h7.3V129.7z M153.3,169.1h-7.3v-7.3h7.3V169.1z M153.3,161.2h-7.3v-7.3
			l7.3,0V161.2z M153.3,153.3h-7.3v-7.3h7.3V153.3z M153.3,145.5h-7.3v-7.3h7.3V145.5z M153.3,137.6h-7.3v-7.3h7.3V137.6z
			 M153.3,129.7h-7.3v-7.1h7.3V129.7z M161.2,169.1h-7.3v-7.3h7.3V169.1z M161.2,161.2h-7.3v-7.3h7.3V161.2z M161.2,153.3l-7.3,0
			v-7.3h7.3V153.3z M161.2,145.5h-7.3v-7.3h7.3V145.5z M161.2,137.6h-7.3v-7.3h7.3V137.6z M161.2,129.7h-7.3v-7.1h7.3V129.7z"/>
		<path class="st0" d="M238,75.4v-0.6h-0.6h-62.9v0.6v7.3v0.6v7.3v0.6l0,7.3h0V99h0v7.3h0v0.6h0v15h0v0.6v7.3v0.6v7.3v0.6l0,7.3h0
			v0.6h0v7.3h0v0.6h0v15.7H206h0.6h7.3h0.6h7.3h0.6h7.3h0.6h7.3h0h0.4h0.2l0-47.1h0v-0.1l0,0v-0.6l0,0V75.4L238,75.4z M230.2,75.4
			h7.3v7.3h-7.3V75.4z M230.2,83.3h7.3v7.3h-7.3V83.3z M230.2,91.1h7.3v7.3h-7.3V91.1z M230.2,99h7.3v7.3l-7.3,0V99z M230.2,106.9
			h7.3v7.3h-7.3V106.9z M237.4,114.7v7.2h-7.3v-7.2H237.4z M222.3,75.4h7.3v7.3h-7.3V75.4z M222.3,83.3h7.3v7.3h-7.3V83.3z
			 M222.3,91.1h7.3v7.3h-7.3V91.1z M222.3,99h7.3v7.3h-7.3V99z M222.3,106.9l7.3,0v7.3h-7.3V106.9z M229.5,114.7v7.2h-7.3v-7.2
			H229.5z M214.4,75.4h7.3v7.3h-7.3V75.4z M214.4,83.3h7.3v7.3h-7.3V83.3z M214.4,91.1h7.3v7.3h-7.3V91.1z M214.4,99l7.3,0v7.3h-7.3
			V99z M214.4,106.9h7.3v7.3h-7.3V106.9z M221.7,114.7v7.2h-7.3v-7.2H221.7z M206.6,75.4h7.3v7.3h-7.3V75.4z M206.6,83.3h7.3v7.3
			h-7.3V83.3z M206.6,91.1h7.3v7.3h-7.3V91.1z M206.6,99h7.3v7.3h-7.3V99z M206.6,106.9h7.3v7.3h-7.3V106.9z M213.8,114.7v7.2h-7.3
			v-7.2H213.8z M190.8,121.9v-7.2h7.3v7.2H190.8z M198.1,106.9v7.3h-7.3v-7.3H198.1z M190.8,106.3V99h7.3v7.3H190.8z M198.7,75.4
			h7.3v7.3h-7.3V75.4z M198.7,83.3h7.3v7.3h-7.3V83.3z M198.7,91.1l7.3,0v7.3h-7.3V91.1z M198.7,99h7.3l0,7.3l-7.3,0V99z
			 M198.7,106.9h7.3v7.3h-7.3V106.9z M206,114.7v7.2h-7.3v-7.2H206z M190.8,75.4h7.3v7.3h-7.3V75.4z M190.8,83.3l7.3,0v7.3h-7.3
			V83.3z M198.1,91.1v7.3h-7.3v-7.3H198.1z M183,75.4h7.3v7.3H183V75.4z M183,83.3h7.3v7.3H183V83.3z M183,91.1h7.3v7.3H183V91.1z
			 M183,99l7.3,0l0,7.3H183V99z M183,106.9h7.3v7.3H183V106.9z M190.2,114.7v7.2H183v-7.2H190.2z M183,138.2h7.3v7.3H183V138.2z
			 M183,137.6v-7.3h7.3v7.3H183z M183,129.7v-7.1h7.3v7.1H183z M175.1,75.4h7.3v7.3h-7.3V75.4z M175.1,83.3h7.3v7.3h-7.3V83.3z
			 M175.1,91.1h7.3v7.3h-7.3V91.1z M175.1,99h7.3v7.3h-7.3V99z M175.1,106.9h7.3v7.3h-7.3V106.9z M175.1,114.7h7.3v7.2h-7.3V114.7z
			 M182.4,169.1h-7.3v-7.3h7.3V169.1z M182.4,161.2h-7.3v-7.3h7.3V161.2z M182.4,153.3h-7.3v-7.3h7.3V153.3z M182.4,145.5h-7.3v-7.3
			h7.3V145.5z M182.4,137.6h-7.3v-7.3h7.3V137.6z M175.1,129.7v-7.1h7.3v7.1H175.1z M190.2,169.1H183v-7.3h7.3V169.1z M190.2,161.2
			H183v-7.3h7.3V161.2z M183,153.3v-7.3l7.3,0l0,7.3H183z M198.1,169.1h-7.3v-7.3h7.3V169.1z M198.1,161.2h-7.3v-7.3h7.3V161.2z
			 M198.1,153.3h-7.3v-7.3h7.3V153.3z M198.1,145.5h-7.3v-7.3h7.3V145.5z M198.1,137.6h-7.3v-7.3h7.3V137.6z M190.8,129.7v-7.1h7.3
			v7.1H190.8z M206,169.1h-7.3v-7.3h7.3V169.1z M206,161.2h-7.3v-7.3h7.3V161.2z M206,153.3l-7.3,0v-7.3h7.3L206,153.3z M206,145.5
			h-7.3v-7.3h7.3V145.5z M206,137.6h-7.3v-7.3h7.3V137.6z M198.7,129.7v-7.1h7.3h0v7.1H198.7z M213.8,169.1h-7.3v-7.3h7.3V169.1z
			 M213.8,161.2h-7.3v-7.3h7.3V161.2z M213.8,153.3h-7.3v-7.3h7.3V153.3z M213.8,145.5h-7.3v-7.3h7.3V145.5z M213.8,137.6h-7.3v-7.3
			h7.3V137.6z M213.8,129.7h-7.3v-7.1h7.3V129.7z M221.7,169.1h-7.3v-7.3h7.3V169.1z M221.7,161.2h-7.3v-7.3h7.3V161.2z
			 M221.7,153.3h-7.3v-7.3l7.3,0V153.3z M221.7,145.5h-7.3v-7.3h7.3V145.5z M221.7,137.6h-7.3v-7.3h7.3V137.6z M221.7,129.7h-7.3
			v-7.1h7.3V129.7z M229.5,169.1h-7.3v-7.3h7.3V169.1z M229.5,161.2h-7.3v-7.3l7.3,0V161.2z M229.5,153.3h-7.3v-7.3h7.3V153.3z
			 M229.5,145.5h-7.3v-7.3h7.3V145.5z M229.5,137.6h-7.3v-7.3h7.3V137.6z M229.5,129.7h-7.3v-7.1h7.3V129.7z M237.4,169.1h-7.3v-7.3
			h7.3V169.1z M237.4,161.2h-7.3v-7.3h7.3V161.2z M237.4,153.3l-7.3,0v-7.3h7.3V153.3z M237.4,145.5h-7.3v-7.3h7.3V145.5z
			 M237.4,137.6h-7.3v-7.3h7.3V137.6z M237.4,129.7h-7.3v-7.1h7.3V129.7z"/>
	</g>
	
		<rect x="171.1" y="119.6" transform="matrix(1.139057e-03 -1 1 1.139057e-03 105.7919 349.4884)" class="st10" width="113.4" height="4.3"/>
</g>
<g>
	<rect x="178.4" y="121.8" class="st1" width="142.6" height="56.6"/>
	<g>
		<g>
			<rect x="174.7" y="121.8" class="st8" width="142.6" height="56.6"/>
			<g>
				<g>
					<rect x="179.4" y="126.6" class="st3" width="7.1" height="7.3"/>
					<rect x="296.2" y="136.2" class="st3" width="7.1" height="7.3"/>
					<rect x="286.9" y="136.2" class="st3" width="7.1" height="7.3"/>
					<rect x="277.5" y="136.2" class="st3" width="7.1" height="7.3"/>
					<rect x="268.2" y="136.2" class="st3" width="7.1" height="7.3"/>
					<rect x="258.8" y="136.2" class="st3" width="7.1" height="7.3"/>
					<rect x="249.5" y="136.2" class="st3" width="7.1" height="7.3"/>
					<rect x="240.2" y="136.2" class="st3" width="7.1" height="7.3"/>
					<rect x="230.8" y="136.2" class="st3" width="7.1" height="7.3"/>
					<rect x="221.5" y="136.2" class="st3" width="7.1" height="7.3"/>
					<rect x="212.1" y="136.2" class="st3" width="7.1" height="7.3"/>
					<rect x="202.8" y="136.2" class="st3" width="7.1" height="7.3"/>
					<rect x="193.4" y="136.2" class="st3" width="7.1" height="7.3"/>
					<rect x="195.7" y="145.8" class="st3" width="7.1" height="7.3"/>
					<rect x="191.1" y="155.4" class="st3" width="7.1" height="7.3"/>
					<rect x="200.5" y="155.4" class="st3" width="7.1" height="7.3"/>
					<rect x="209.8" y="155.4" class="st3" width="7.1" height="7.3"/>
					<rect x="219.1" y="155.4" class="st3" width="7.1" height="7.3"/>
					<rect x="228.5" y="155.4" class="st3" width="7.1" height="7.3"/>
					<rect x="237.8" y="155.4" class="st3" width="7.1" height="7.3"/>
					<rect x="247.2" y="155.4" class="st3" width="7.1" height="7.3"/>
					<rect x="256.5" y="155.4" class="st3" width="7.1" height="7.3"/>
					<rect x="265.9" y="155.4" class="st3" width="7.1" height="7.3"/>
					<rect x="275.2" y="155.4" class="st3" width="7.1" height="7.3"/>
					<rect x="284.5" y="155.4" class="st3" width="7.1" height="7.3"/>
					<rect x="293.9" y="155.4" class="st3" width="18.8" height="7.3"/>
					<rect x="205" y="145.8" class="st3" width="7.1" height="7.3"/>
					<rect x="214.4" y="145.8" class="st3" width="7.1" height="7.3"/>
					<rect x="223.7" y="145.8" class="st3" width="7.1" height="7.3"/>
					<rect x="233.1" y="145.8" class="st3" width="7.1" height="7.3"/>
					<rect x="242.4" y="145.8" class="st3" width="7.1" height="7.3"/>
					<rect x="251.7" y="145.8" class="st3" width="7.1" height="7.3"/>
					<rect x="261.1" y="145.8" class="st3" width="7.1" height="7.3"/>
					<rect x="270.4" y="145.8" class="st3" width="7.1" height="7.3"/>
					<rect x="279.8" y="145.8" class="st3" width="7.1" height="7.3"/>
					<rect x="289.1" y="145.8" class="st3" width="7.1" height="7.3"/>
					<rect x="298.4" y="145.8" class="st3" width="7.1" height="7.3"/>
					<rect x="188.8" y="126.6" class="st3" width="7.1" height="7.3"/>
					<rect x="198.1" y="126.6" class="st3" width="7.1" height="7.3"/>
					<rect x="207.4" y="126.6" class="st3" width="7.1" height="7.3"/>
					<rect x="216.8" y="126.6" class="st3" width="7.1" height="7.3"/>
					<rect x="226.1" y="126.6" class="st3" width="7.1" height="7.3"/>
					<rect x="235.5" y="126.6" class="st3" width="7.1" height="7.3"/>
					<rect x="244.8" y="126.6" class="st3" width="7.1" height="7.3"/>
					<rect x="254.2" y="126.6" class="st3" width="7.1" height="7.3"/>
					<rect x="263.5" y="126.6" class="st3" width="7.1" height="7.3"/>
					<rect x="272.8" y="126.6" class="st3" width="7.1" height="7.3"/>
					<rect x="282.2" y="126.6" class="st3" width="7.1" height="7.3"/>
					<rect x="291.5" y="126.6" class="st3" width="7.1" height="7.3"/>
					<rect x="300.9" y="126.6" class="st3" width="11.8" height="7.3"/>
					<rect x="179.4" y="136.2" class="st3" width="11.8" height="7.3"/>
					<rect x="179.4" y="145.8" class="st3" width="14" height="7.3"/>
					<rect x="179.4" y="155.4" class="st3" width="9.5" height="7.3"/>
					<rect x="179.4" y="165" class="st3" width="7.1" height="8.5"/>
					<rect x="188.7" y="165" class="st3" width="7.1" height="8.5"/>
					<rect x="198" y="165" class="st3" width="7.1" height="8.5"/>
					<rect x="207.4" y="165" class="st3" width="9.5" height="8.5"/>
					<rect x="219.1" y="165" class="st3" width="44.5" height="8.5"/>
					<rect x="265.9" y="165" class="st3" width="9.5" height="8.5"/>
					<rect x="277.6" y="165" class="st3" width="7.1" height="8.5"/>
					<rect x="286.9" y="169.5" class="st3" width="7.1" height="4"/>
					<polygon class="st3" points="296.2,165 296.2,167.2 296.2,168.7 296.2,173.5 303.4,173.5 303.4,168.7 303.4,167.2 303.4,165 
											"/>
					<rect x="305.6" y="169.5" class="st3" width="7.1" height="4"/>
					<polygon class="st3" points="307.8,153.1 307.8,143.5 305.6,143.5 305.6,136.2 312.7,136.2 312.7,153.1 					"/>
				</g>
			</g>
		</g>
	</g>
</g>
<path class="st1" d="M71.3,122c1.4-5.1,1-10.5-1.1-15.3l0,0c-0.1-0.3-0.3-0.6-0.4-0.9c-0.1-0.2-0.2-0.5-0.4-0.7
	c-0.2-0.4-0.5-0.8-0.7-1.3c-0.1-0.2-0.2-0.4-0.4-0.6c-0.3-0.5-0.7-0.9-1-1.4c-0.1-0.1-0.2-0.3-0.3-0.4c-0.5-0.6-1-1.1-1.5-1.7
	c-0.5-0.5-1.1-1-1.7-1.5c-0.2-0.2-0.4-0.3-0.6-0.5c-0.4-0.3-0.7-0.6-1.1-0.8c-0.3-0.2-0.5-0.3-0.8-0.5c-0.3-0.2-0.7-0.4-1.1-0.6
	c-0.3-0.2-0.6-0.3-0.9-0.4c-0.2-0.1-0.5-0.3-0.7-0.4l0,0c-8.4-3.7-18.5-2.1-25.3,4.7c-4.5,4.5-6.7,10.3-6.7,16.1h0
	c0,2.1,0.3,4.1,0.9,6.1h-5.5v56.5h54.9V122H71.3z M46.8,113.3c1.2-1.2,2.9-1.4,4.3-0.7c0.1,0.1,0.3,0.1,0.4,0.2
	c0.2,0.1,0.4,0.3,0.5,0.4c0.2,0.2,0.3,0.4,0.4,0.6c0.1,0.1,0.1,0.2,0.1,0.3c0.8,1.4,0.6,3.2-0.6,4.4c-0.9,0.9-2.1,1.2-3.2,1
	c0,0-0.1,0-0.1,0c0,0-0.1,0-0.1,0c-0.2,0-0.4-0.1-0.6-0.2c-0.1,0-0.1-0.1-0.2-0.1c-0.2-0.1-0.3-0.1-0.5-0.2
	c-0.2-0.1-0.4-0.3-0.6-0.5C45.3,117,45.3,114.7,46.8,113.3z"/>
<g>
	<g>
		<path class="st11" d="M62.1,99.7c-8.9-8.9-23.4-8.9-32.3,0c-8.9,8.9-8.9,23.4,0,32.3c8.9,8.9,23.4,8.9,32.3,0
			C71,123.1,71,108.7,62.1,99.7z M50.2,120.1c-2.3,2.3-6.1,2.3-8.4,0c-2.3-2.3-2.3-6.1,0-8.4c2.3-2.3,6.1-2.3,8.4,0
			C52.5,114,52.5,117.8,50.2,120.1z"/>
		<g>
			<path class="st0" d="M46,138.7c-5.9,0-11.7-2.2-16.1-6.7c-4.5-4.5-6.7-10.3-6.7-16.1h19.1c0,0.9,0.4,1.9,1.1,2.6
				c0.7,0.7,1.7,1.1,2.6,1.1V138.7z"/>
		</g>
		<g>
			<path class="st3" d="M66.9,106.7l-17.5,7.7c-0.2-0.4-0.4-0.8-0.8-1.1c-0.3-0.3-0.7-0.6-1.1-0.8L55.2,95c2.5,1.1,4.9,2.7,6.9,4.8
				C64.2,101.8,65.7,104.2,66.9,106.7z"/>
		</g>
		<path class="st8" d="M52.3,109.5c-3.5-3.5-9.2-3.5-12.7,0c-3.5,3.5-3.5,9.2,0,12.7c3.5,3.5,9.2,3.5,12.7,0
			C55.8,118.7,55.8,113,52.3,109.5z M43.4,118.5c-1.4-1.4-1.4-3.8,0-5.2c1.4-1.4,3.8-1.4,5.2,0c1.4,1.4,1.4,3.8,0,5.2
			C47.1,119.9,44.8,119.9,43.4,118.5z"/>
	</g>
	<rect x="18.5" y="122" class="st3" width="54.9" height="56.5"/>
	<g>
		<polygon class="st10" points="20.7,150.2 24.4,153.7 28,157.1 31.6,160.5 35.2,164 38.8,167.4 42.4,170.9 45.9,174.3 49.5,170.9 
			53.1,167.5 56.7,164 60.2,160.5 63.9,157.1 67.5,153.7 71,150.2 67.5,146.7 63.8,143.4 60.3,139.9 56.6,136.5 53.1,132.9 
			49.6,129.5 45.9,126.1 42.4,129.6 38.7,132.9 35.2,136.4 31.6,139.9 28,143.3 24.4,146.8 		"/>
	</g>
	<g>
		<g>
			<rect x="36" y="144.7" class="st3" width="20" height="1.1"/>
			<rect x="36" y="148.8" class="st3" width="20" height="1.1"/>
			<rect x="36" y="152.9" class="st3" width="20" height="1.1"/>
		</g>
	</g>
</g>
<g>
	<g>
		<polygon class="st1" points="160.6,37.2 157.7,37.2 159.2,37.2 159.2,30.6 154.1,30.7 154.1,37.2 152.3,37.2 152.3,42.2 
			150.5,42.2 150.4,37.2 149.6,37.2 148.7,37.2 148.7,61.5 149.7,61.5 149.8,61.5 150.6,61.5 150.7,50.1 152.4,50.1 152.4,50 
			152.9,106.2 156.7,118.2 157.5,118.2 161.2,106.1 		"/>
		<polygon class="st1" points="156.7,118.2 156.7,120.2 157.5,120.2 157.5,118.2 		"/>
	</g>
	<g>
		<g id="_x36_">
			<polygon class="st8" points="150.7,37.2 155.8,37.2 155.8,30.6 150.7,30.7 			"/>
			
				<rect x="149.2" y="37.2" transform="matrix(-1 7.951749e-03 -7.951749e-03 -1 307.2558 142.1164)" class="st4" width="8.4" height="69"/>
			<polygon class="st11" points="157.8,106.1 149.4,106.2 153.3,118.2 154.1,118.2 			"/>
			<polygon class="st8" points="153.3,120.2 154.1,120.2 154.1,118.2 153.3,118.2 			"/>
		</g>
		<polygon class="st8" points="149,42.2 147.1,42.2 147,37.2 146.2,37.2 145.3,37.2 145.3,61.5 146.3,61.5 146.4,61.5 147.2,61.5 
			147.3,50.1 149,50.1 		"/>
	</g>
</g>
<g>
	<text transform="matrix(1 0 0 1 53.8407 202.6971)" class="st3 st12 st13">Minimalist Office essentials</text>
	<rect x="15.7" y="210.6" class="st14" width="304.6" height="10.1"/>
	<text transform="matrix(1 0 0 1 19.8231 216.5887)" class="st3 st15 st16">Lorem ipsum dolor sit amet, his minim copiosae dissentias ei. Agam nostro</text>
</g>
<g>
	<path class="st1" d="M190.4,37.2c-0.5-2.7-2.3-6.7-8.7-6.7c-6.4,0-8.2,4-8.6,6.7h-1.5v24.4h20.2V37.2H190.4z"/>
	<g>
		<rect x="168.2" y="37.2" class="st9" width="20.2" height="24.4"/>
		<path class="st3" d="M187,37.2c-0.5-2.7-2.3-6.7-8.7-6.7s-8.2,4-8.6,6.7H187z"/>
	</g>
</g>
</svg>
