<?xml version="1.0" encoding="utf-8"?>
<!-- Generator: Adobe Illustrator 19.2.0, SVG Export Plug-In . SVG Version: 6.00 Build 0)  -->
<svg version="1.1" id="Objects" xmlns="http://www.w3.org/2000/svg" xmlns:xlink="http://www.w3.org/1999/xlink" x="0px" y="0px"
	 viewBox="0 0 336 235.2" style="enable-background:new 0 0 336 235.2;" xml:space="preserve">
<style type="text/css">
	.st0{fill:#CFDBE5;}
	.st1{opacity:0.2;}
	.st2{fill:#FFFFFF;}
	.st3{fill:#FFD55C;}
	.st4{fill:#3D454A;}
	.st5{fill:#D2CFD6;}
	.st6{fill:#B2E1EE;}
	.st7{opacity:0.3;}
	.st8{fill:#F69777;}
	.st9{fill:#8FDEF6;}
	.st10{opacity:0.2;fill-rule:evenodd;clip-rule:evenodd;}
	.st11{fill-rule:evenodd;clip-rule:evenodd;fill:#BCB8BE;}
	.st12{fill-rule:evenodd;clip-rule:evenodd;fill:#3D454A;}
	.st13{opacity:0.6;fill-rule:evenodd;clip-rule:evenodd;fill:#FFFFFF;}
	.st14{fill-rule:evenodd;clip-rule:evenodd;fill:#F69777;}
	.st15{fill-rule:evenodd;clip-rule:evenodd;fill:#FFD55C;}
	.st16{fill-rule:evenodd;clip-rule:evenodd;fill:#FFFFFF;}
	.st17{fill:#FDDAC8;}
</style>
<rect id="background" class="st0" width="336" height="235.2"/>
<g id="pins">
	<g class="st1">
		<path d="M161.8,43.6l-0.3-6.7c0.8-0.5,1.5-1.2,2-2.1h-8.4c0.5,0.9,1.1,1.6,1.9,2.1l-0.3,6.7c-1.1,0.7-2,1.7-2.4,3h4.4
			c0.1,4.1,0.3,8.3,0.5,8.3c0.3,0,0.5-4.2,0.6-8.3h4.4C163.8,45.3,162.9,44.2,161.8,43.6z"/>
		<path d="M181.9,17.5c-0.2-0.2-3.4,2.6-6.3,5.4l-3.1-3.2c-0.6,1.3-0.8,2.6-0.5,3.9l-4.6,4.9c-0.9-0.3-1.9-0.2-2.9,0l5.8,6
			c0.3-0.9,0.4-1.9,0.1-2.8l5-4.4c1.2,0.3,2.6,0.2,3.9-0.4l-3.1-3.2C179.2,20.8,182.1,17.7,181.9,17.5z"/>
	</g>
	<g>
		<g>
			<path class="st2" d="M158.7,43.6l-0.3-6.7c0.8-0.5,1.5-1.2,2-2.1H152c0.5,0.9,1.1,1.6,1.9,2.1l-0.3,6.7c-1.1,0.7-2,1.7-2.4,3h10
				C160.7,45.3,159.8,44.2,158.7,43.6z"/>
			<path class="st2" d="M155.7,46.6c0.1,4.1,0.3,8.3,0.5,8.3c0.3,0,0.5-4.2,0.5-8.3H155.7z"/>
		</g>
		<g>
			<path class="st3" d="M168.9,23.6l-4.6,4.9c-0.9-0.3-1.9-0.2-2.9,0l5.8,6c0.3-0.9,0.4-1.9,0.1-2.8l5-4.4c1.2,0.3,2.6,0.2,3.9-0.4
				l-7-7.1C168.8,21,168.6,22.3,168.9,23.6z"/>
			<path class="st2" d="M173.3,23.7c2.9-2.9,5.8-6,5.6-6.2c-0.2-0.2-3.4,2.6-6.3,5.4L173.3,23.7z"/>
		</g>
	</g>
</g>
<path id="shadow_2_" class="st1" d="M285,90.1h-2.1v-9.7v-1.9c0-3-2.5-5.5-5.5-5.5H61.2c-3,0-5.5,2.5-5.5,5.5v1.9v129.8v1.9
	c0,3,2.5,5.5,5.5,5.5h216.1c3,0,5.5-2.5,5.5-5.5v-1.9V109.4h2.1V90.1z"/>
<g id="book">
	<path class="st4" d="M273.7,69.8H57.5c-3,0-5.5,2.5-5.5,5.5v1.9v129.8v1.9c0,3,2.5,5.5,5.5,5.5h216.1c3,0,5.5-2.5,5.5-5.5v-1.9
		V77.3v-1.9C279.2,72.3,276.7,69.8,273.7,69.8z"/>
	<polygon class="st2" points="183.2,72.9 178.3,72.9 166.1,72.9 166.1,85.1 166.1,88.8 166.1,210.5 276.2,210.5 276.2,72.9 	"/>
	<g>
		<path class="st2" d="M153.9,72.9H56.1v125.4h97.9c3.1,0,6.2,1.2,8.6,3.6c2.4,2.4,3.6,5.5,3.6,8.6v-90.7V85.1V72.9H153.9z"/>
		<path class="st5" d="M169.7,201.9c2.4-2.4,5.5-3.6,8.6-3.6h97.9v12.2h-110C166.1,207.4,167.3,204.2,169.7,201.9z"/>
		<g>
			<g>
				<rect x="92.6" y="87" class="st5" width="41.2" height="2.3"/>
				<rect x="92.6" y="93.1" class="st5" width="41.2" height="2.3"/>
				<rect x="92.6" y="99.1" class="st5" width="41.2" height="2.3"/>
				<rect x="92.6" y="105.2" class="st5" width="41.2" height="2.3"/>
				<rect x="68.3" y="111.3" class="st5" width="65.6" height="2.3"/>
				<rect x="68.3" y="117.4" class="st5" width="65.6" height="2.3"/>
				<rect x="68.3" y="123.4" class="st5" width="65.6" height="2.3"/>
				<rect x="68.3" y="129.5" class="st5" width="65.6" height="2.3"/>
				<rect x="68.3" y="135.6" class="st5" width="65.6" height="2.3"/>
				<rect x="68.3" y="141.7" class="st5" width="65.6" height="2.3"/>
				<rect x="68.3" y="153.8" class="st5" width="65.6" height="2.3"/>
				<rect x="68.3" y="159.8" class="st5" width="65.6" height="2.3"/>
				<rect x="68.3" y="165.9" class="st5" width="65.6" height="2.3"/>
				<rect x="68.3" y="172" class="st5" width="65.6" height="2.3"/>
				<rect x="68.3" y="178.1" class="st5" width="65.6" height="2.3"/>
				<rect x="68.3" y="184" class="st5" width="46.8" height="2.3"/>
				<rect x="68.3" y="147.7" class="st5" width="65.6" height="2.3"/>
			</g>
			<path class="st6" d="M80.6,87h-4.4l-8,20.5h4.4l1.7-4.7h8.2l1.8,4.7h4.5L80.6,87z M75.6,99.4l2.8-7.6l2.8,7.6H75.6z"/>
		</g>
		<path class="st5" d="M162.6,201.9c-2.4-2.4-5.5-3.6-8.6-3.6H56.1v12.2h110.1C166.1,207.4,164.9,204.2,162.6,201.9z"/>
	</g>
	<g class="st7">
		<path class="st5" d="M152.4,72.9v125.4h1.6c3.1,0,6.2,1.2,8.6,3.6c2.4,2.4,3.6,5.5,3.6,8.6V72.9H152.4z"/>
	</g>
	<polygon class="st8" points="133.9,72.9 133.9,210.5 137.8,206.5 141.8,210.5 141.8,72.9 	"/>
	<rect x="276.2" y="87" class="st8" width="5.1" height="19.4"/>
	<g>
		<g>
			<rect x="223.6" y="164.3" class="st6" width="34.6" height="22"/>
		</g>
		<g>
			<rect x="184.2" y="129" class="st3" width="34.5" height="22"/>
		</g>
		<g>
			<rect x="184.2" y="183.6" class="st5" width="34.5" height="2.3"/>
			<rect x="184.2" y="177.6" class="st5" width="34.5" height="2.3"/>
			<rect x="184.2" y="171.5" class="st5" width="34.5" height="2.3"/>
			<rect x="184.2" y="165.4" class="st5" width="34.5" height="2.3"/>
			<rect x="184.2" y="159.3" class="st5" width="74" height="2.3"/>
			<rect x="184.2" y="153.9" class="st5" width="74" height="2.3"/>
			<rect x="222.3" y="147.2" class="st5" width="35.8" height="2.3"/>
			<rect x="222.3" y="141.1" class="st5" width="35.8" height="2.3"/>
			<rect x="222.3" y="135.1" class="st5" width="35.8" height="2.3"/>
			<rect x="222.3" y="129" class="st5" width="35.8" height="2.3"/>
			<rect x="184.2" y="116.9" class="st5" width="74" height="2.3"/>
			<rect x="184.2" y="110.8" class="st5" width="74" height="2.3"/>
			<rect x="184.2" y="104.7" class="st5" width="74" height="2.3"/>
			<rect x="184.2" y="98.6" class="st5" width="74" height="2.3"/>
			<rect x="184.2" y="92.6" class="st5" width="74" height="2.3"/>
			<rect x="184.2" y="86.6" class="st5" width="52.8" height="2.3"/>
			<rect x="184.2" y="122.9" class="st5" width="74" height="2.3"/>
		</g>
	</g>
</g>
<path id="shadow_1_" class="st1" d="M277.8,13.3h-86c-2.5,0-4.5,2-4.5,4.5v40.8c0,2.5,2,4.5,4.5,4.5h86c2.5,0,4.5-2,4.5-4.5V17.9
	C282.3,15.4,280.3,13.3,277.8,13.3z"/>
<g id="phone">
	<g>
		<path class="st4" d="M274.7,13.3c2.5,0,4.5,2,4.5,4.5v40.8c0,2.5-2,4.5-4.5,4.5h-86c-2.5,0-4.5-2-4.5-4.5V17.9
			c0-2.5,2-4.5,4.5-4.5H274.7z"/>
		<rect x="194.1" y="17.9" class="st3" width="73.6" height="40.8"/>
		<path class="st5" d="M189.5,33.3c0.3,0,0.6,0.3,0.6,0.6v8.5c0,0.3-0.3,0.6-0.6,0.6l0,0c-0.3,0-0.6-0.3-0.6-0.6v-8.5
			C188.9,33.5,189.1,33.3,189.5,33.3L189.5,33.3z"/>
		<path class="st5" d="M269.4,37.7c0,2.2,1.8,4,4,4c2.2,0,4-1.8,4-4c0-2.2-1.8-4-4-4C271.2,33.7,269.4,35.5,269.4,37.7z M276.2,37.7
			c0,1.6-1.3,2.8-2.8,2.8c-1.6,0-2.8-1.3-2.8-2.8c0-1.6,1.3-2.8,2.8-2.8C274.9,34.9,276.2,36.1,276.2,37.7z"/>
	</g>
	<g>
		<g>
			<path class="st2" d="M227.8,20.5c0.3,0,0.6,0.1,0.9,0.4c0.2,0.2,0.4,0.6,0.4,0.9v32.2c0,0.3-0.1,0.6-0.4,0.9
				c-0.2,0.2-0.6,0.4-0.9,0.4h-20.2V20.5H227.8z"/>
			<path class="st5" d="M207.6,20.5v34.6h-5c-0.3,0-0.6-0.1-0.9-0.4c-0.2-0.2-0.4-0.6-0.4-0.9V21.7c0-0.3,0.1-0.6,0.4-0.9
				c0.2-0.2,0.6-0.4,0.9-0.4H207.6z"/>
		</g>
		<g>
			<rect x="210.6" y="23.5" class="st9" width="15.4" height="28.5"/>
			<g>
				<rect x="214.4" y="28.5" class="st2" width="3.1" height="18.9"/>
				<g>
					<g>
						<circle class="st4" cx="216" cy="45.5" r="0.6"/>
						<circle class="st4" cx="216" cy="43" r="0.6"/>
						<circle class="st4" cx="216" cy="40.5" r="0.6"/>
						<circle class="st4" cx="216" cy="38.1" r="0.6"/>
					</g>
				</g>
			</g>
			<g>
				<rect x="219.1" y="28.5" class="st2" width="3.1" height="18.9"/>
				<g>
					<g>
						<circle class="st4" cx="220.7" cy="45.5" r="0.6"/>
						<circle class="st4" cx="220.7" cy="43" r="0.6"/>
						<circle class="st4" cx="220.7" cy="40.5" r="0.6"/>
						<circle class="st4" cx="220.7" cy="38.1" r="0.6"/>
						<circle class="st4" cx="220.7" cy="35.6" r="0.6"/>
						<circle class="st4" cx="220.7" cy="33.1" r="0.6"/>
						<circle class="st4" cx="220.7" cy="30.6" r="0.6"/>
					</g>
				</g>
			</g>
		</g>
		<g>
			<circle class="st8" cx="204.5" cy="52.1" r="1"/>
			<circle class="st3" cx="204.5" cy="49" r="1"/>
			<circle class="st9" cx="204.5" cy="45.9" r="1"/>
		</g>
	</g>
	<g>
		<g>
			<path class="st2" d="M258,20.5c0.3,0,0.6,0.1,0.9,0.4c0.2,0.2,0.4,0.6,0.4,0.9v32.2c0,0.3-0.1,0.6-0.4,0.9
				c-0.2,0.2-0.6,0.4-0.9,0.4h-20.2V20.5H258z"/>
			<path class="st5" d="M237.8,20.5v34.6h-5c-0.3,0-0.6-0.1-0.9-0.4c-0.2-0.2-0.4-0.6-0.4-0.9V21.7c0-0.3,0.1-0.6,0.4-0.9
				c0.2-0.2,0.6-0.4,0.9-0.4H237.8z"/>
		</g>
		<rect x="240.7" y="33.4" class="st8" width="7.1" height="8.4"/>
		<rect x="249.3" y="23.5" class="st8" width="7.1" height="28.2"/>
		<rect x="240.7" y="23.5" class="st8" width="7.1" height="8.4"/>
		<rect x="240.7" y="43.3" class="st8" width="7.1" height="8.4"/>
		<g>
			<circle class="st8" cx="234.7" cy="52.1" r="1"/>
			<circle class="st3" cx="234.7" cy="49" r="1"/>
			<circle class="st9" cx="234.7" cy="45.9" r="1"/>
		</g>
	</g>
</g>
<g id="glasses">
	<path class="st10" d="M147.4,28.6c-0.1-1.8-0.2-2-2.6-2.8c-2-0.6-13.5-1.6-21.2-0.9c-0.4,0-0.8,0.1-1.2,0.1
		c-7.6,0.8-17.6,3.5-20.1,3.4c-6.2-0.1-14.6-2.9-21.5-3.5c-1.5-0.1-3.1-0.2-4.8-0.2c-7-0.1-14.8,0.7-16.5,1.2
		c-2.4,0.8-2.4,1-2.5,2.8c-0.1,1.8,0.2,3.4,1.6,3.8c1.8,0.6,1.9,2.7,3,8.7c-0.8,2.7-0.9,5.5-0.9,7.2c0,3.2,3.1,4.6,4.3,1.4
		c2.3,2.6,6.1,4.4,12.8,4.9c2.4,0.2,4.4,0,6.2-0.4c7-1.6,9.7-6.9,10.7-8.9c2.3-4.4,1.7-10.3,7.6-10.3c5.9,0,5.3,6,7.5,10.3
		c1.3,2.4,5.2,10,17,9.1c1.3-0.1,2.4-0.2,3.5-0.4c4.6-0.8,7.5-2.4,9.3-4.5c1.2,3.1,4.3,1.8,4.3-1.5c0-1.7-0.2-4.4-0.9-7.1
		c1-6,1.2-8.2,3-8.8C147.2,31.9,147.5,30.4,147.4,28.6z M122.9,26.8c3.9-0.3,7.9-0.3,10.9,0.1c-5.1,0.2-11.2,0.6-17.5,1
		C118.3,27.4,120.5,27,122.9,26.8z M76.4,26.6c3.9,0,8.1,0.4,11.6,1.3c-6.3-0.4-12.4-0.8-17.5-1C72.3,26.8,74.3,26.7,76.4,26.6z
		 M63.4,31.8c2,0.1,4.7,0.2,7.9,0.4c-0.8,0.1-1.4,0.2-1.8,0.3c-3.1,0.7-5.1,2.6-6.5,4.9C62.9,35.5,63,33.5,63.4,31.8z M86.1,51.7
		c-0.8,0.4-1.7,0.7-2.7,0.9c-6.1,1.3-15.1-0.5-17.8-5.4c-0.1-0.1-0.2-0.3-0.2-0.5c0-6.8,0.6-10.5,5.3-11c1.8-0.2,12.2-0.8,24.6-1.5
		C96.1,40.1,91,49.4,86.1,51.7z M138.8,47.1c-1.6,2.8-5.1,4.6-9.1,5.4c-4.1,0.8-8.5,0.6-11.4-0.8c-4.9-2.3-10.1-11.5-9.3-17.4
		c12.4,0.7,22.8,1.3,24.6,1.4c4.8,0.4,5.4,4.1,5.4,10.9c0,0,0,0,0,0C138.9,46.8,138.8,46.9,138.8,47.1z M134.8,32.5
		c-0.5-0.1-1.1-0.2-1.8-0.3c3.2-0.2,5.9-0.3,7.9-0.4c0.4,1.6,0.5,3.6,0.4,5.7C139.9,35.1,137.9,33.2,134.8,32.5z"/>
	<g id="_x31_0_1_">
		<g>
			<path class="st11" d="M142.6,24.5c-7.8-0.2-26,1-42.6,2.4c-16.7-1.3-34.9-2.4-42.7-2.3c-3-0.2-3.9,4.8,0.6,4.9
				c1,0,5.3,0.2,11.2,0.5c-0.8,0.1-1.4,0.2-1.8,0.3c-8,1.8-8.9,11.7-8.9,15.8c0,4,4.8,5.2,4.8-1.7c0-6.8,0.6-10.5,5.3-11
				c2.1-0.2,16.2-1,31.4-1.9c15.3,0.8,29.4,1.6,31.5,1.8c4.8,0.4,5.4,4.1,5.4,10.9c0,6.8,4.8,5.7,4.8,1.7c0-4-0.9-13.9-8.9-15.8
				c-0.5-0.1-1.1-0.2-1.8-0.3c6-0.3,10.2-0.5,11.2-0.6C146.5,29.3,145.6,24.3,142.6,24.5z"/>
			<path class="st12" d="M81.2,50.4c-6.1,1.3-15.1-0.5-17.8-5.4c-3.1-5.5-3.8-16.7,0.1-19c1.5-0.9,5.8-1.5,10.8-1.5l-0.5-1.9
				c-7-0.1-14.8,0.7-16.5,1.2c-2.4,0.8-2.4,1-2.5,2.8c-0.1,1.8,0.2,3.4,1.6,3.8c1.9,0.6,1.9,3,3.2,10c1.2,6.3,3.9,11.3,15.9,12.2
				c2.4,0.2,4.4,0,6.2-0.4L81.2,50.4z M78.6,22.8c-1.5-0.1-3.1-0.2-4.8-0.2l0.5,1.9c7,0,15.1,1.2,17.8,4.8
				c3.8,5.1-2.3,17.5-8.2,20.3c-0.8,0.4-1.7,0.7-2.7,0.9l0.5,1.7c7-1.6,9.7-6.9,10.7-8.9C94.6,38.9,94,33,100,33
				c5.9,0,5.3,6,7.5,10.3c1.3,2.4,5.2,10,17,9.1c1.3-0.1,2.4-0.2,3.5-0.4l-0.5-1.7c-4.1,0.8-8.5,0.6-11.4-0.8
				c-5.8-2.8-12-15.2-8.2-20.3c2-2.7,7.3-4.1,12.8-4.6l-0.5-1.8c-7.6,0.8-17.6,3.5-20.1,3.4C93.8,26.1,85.5,23.3,78.6,22.8z
				 M120.7,24.7c6.7-0.6,13.9,0.1,15.8,1.3c3.9,2.3,3.2,13.5,0.1,19c-1.6,2.8-5.1,4.6-9.1,5.4L128,52c9.1-1.6,11.4-6.2,12.4-11.8
				c1.3-6.9,1.3-9.3,3.2-10c1.4-0.5,1.7-2,1.6-3.8c-0.1-1.8-0.2-2-2.5-2.8c-2-0.6-13.5-1.6-21.2-0.9c-0.4,0-0.8,0.1-1.2,0.1
				L120.7,24.7z"/>
			<path class="st13" d="M136.5,25.9c3.9,2.3,3.2,13.5,0.1,19c-3.2,5.7-14.8,7.3-20.5,4.6c-5.8-2.8-12-15.2-8.2-20.3
				C112.5,23.2,133,23.8,136.5,25.9L136.5,25.9z M63.4,45c3.2,5.7,14.8,7.2,20.5,4.5c5.8-2.8,12-15.2,8.2-20.3
				C87.5,23.2,67,23.9,63.5,26C59.6,28.3,60.3,39.5,63.4,45z"/>
		</g>
	</g>
</g>
<g id="ruler">
	<polygon class="st10" points="44.6,212.7 44.6,210.9 44.6,203.6 44.6,201.9 44.6,194.5 44.6,192.8 44.6,185.5 44.6,183.7 
		44.6,176.4 44.6,174.6 44.6,167.3 44.6,165.6 44.6,158.2 44.6,156.5 44.6,149.2 44.6,147.4 44.6,140.1 44.6,138.3 44.6,131 
		44.6,129.2 44.6,121.9 44.6,120.2 44.6,112.8 44.6,111.1 44.6,103.8 44.6,102 44.6,94.7 44.6,92.9 44.6,85.6 44.6,83.8 44.6,76.5 
		44.6,74.8 44.6,67.5 44.6,65.7 44.6,58.4 44.6,56.6 44.6,49.3 44.6,47.5 44.6,40.2 44.6,38.5 44.6,31.1 44.6,29.4 44.6,22.1 
		44.6,20.3 44.6,15.8 33.7,15.8 24.5,15.8 24.5,217.8 33.7,217.8 44.6,217.8 	"/>
	<g>
		
			<rect x="-69.2" y="104.3" transform="matrix(-1.836970e-16 1 -1 -1.836970e-16 146.1404 82.4882)" class="st14" width="202" height="20.1"/>
		<rect x="31" y="13.3" class="st15" width="10.9" height="202"/>
		
			<rect x="38.4" y="16.1" transform="matrix(-1.836970e-16 1 -1 -1.836970e-16 57.9667 -20.5228)" class="st16" width="1.8" height="5.3"/>
		
			<rect x="38.4" y="25.2" transform="matrix(-1.836970e-16 1 -1 -1.836970e-16 67.0407 -11.4489)" class="st16" width="1.8" height="5.3"/>
		
			<rect x="38.4" y="34.2" transform="matrix(-1.836970e-16 1 -1 -1.836970e-16 76.1215 -2.3681)" class="st16" width="1.8" height="5.3"/>
		
			<rect x="38.4" y="43.3" transform="matrix(-1.836970e-16 1 -1 -1.836970e-16 85.1955 6.7059)" class="st16" width="1.8" height="5.3"/>
		
			<rect x="38.4" y="52.4" transform="matrix(-1.836970e-16 1 -1 -1.836970e-16 94.2763 15.7867)" class="st16" width="1.8" height="5.3"/>
		
			<rect x="38.4" y="61.5" transform="matrix(-1.836970e-16 1 -1 -1.836970e-16 103.3508 24.8612)" class="st16" width="1.8" height="5.3"/>
		
			<rect x="38.4" y="70.5" transform="matrix(-1.836970e-16 1 -1 -1.836970e-16 112.4316 33.942)" class="st16" width="1.8" height="5.3"/>
		
			<rect x="38.4" y="79.6" transform="matrix(-1.836970e-16 1 -1 -1.836970e-16 121.5058 43.0162)" class="st16" width="1.8" height="5.3"/>
		
			<rect x="38.4" y="88.7" transform="matrix(-1.836970e-16 1 -1 -1.836970e-16 130.5832 52.0936)" class="st16" width="1.8" height="5.3"/>
		
			<rect x="38.4" y="97.8" transform="matrix(-1.836970e-16 1 -1 -1.836970e-16 139.6608 61.1712)" class="st16" width="1.8" height="5.3"/>
		
			<rect x="38.4" y="106.8" transform="matrix(-1.836970e-16 1 -1 -1.836970e-16 148.7377 70.2482)" class="st16" width="1.8" height="5.3"/>
		
			<rect x="38.4" y="115.9" transform="matrix(-1.836970e-16 1 -1 -1.836970e-16 157.8188 79.3292)" class="st16" width="1.8" height="5.3"/>
		
			<rect x="38.4" y="125" transform="matrix(-1.836970e-16 1 -1 -1.836970e-16 166.8967 88.4071)" class="st16" width="1.8" height="5.3"/>
		
			<rect x="38.4" y="134.1" transform="matrix(-1.836970e-16 1 -1 -1.836970e-16 175.9753 97.4857)" class="st16" width="1.8" height="5.3"/>
		
			<rect x="38.4" y="143.2" transform="matrix(-1.836970e-16 1 -1 -1.836970e-16 185.052 106.5623)" class="st16" width="1.8" height="5.3"/>
		
			<rect x="38.4" y="152.2" transform="matrix(-1.836970e-16 1 -1 -1.836970e-16 194.1306 115.641)" class="st16" width="1.8" height="5.3"/>
		
			<rect x="38.4" y="161.3" transform="matrix(-1.836970e-16 1 -1 -1.836970e-16 203.2033 124.7137)" class="st16" width="1.8" height="5.3"/>
		
			<rect x="38.4" y="170.4" transform="matrix(-1.836970e-16 1 -1 -1.836970e-16 212.2849 133.7953)" class="st16" width="1.8" height="5.3"/>
		
			<rect x="38.4" y="179.5" transform="matrix(-1.836970e-16 1 -1 -1.836970e-16 221.3581 142.8685)" class="st16" width="1.8" height="5.3"/>
		
			<rect x="38.4" y="188.6" transform="matrix(-1.836970e-16 1 -1 -1.836970e-16 230.4391 151.9496)" class="st16" width="1.8" height="5.3"/>
		
			<rect x="38.4" y="197.6" transform="matrix(-1.836970e-16 1 -1 -1.836970e-16 239.5134 161.0238)" class="st16" width="1.8" height="5.3"/>
		
			<rect x="38.4" y="206.7" transform="matrix(-1.836970e-16 1 -1 -1.836970e-16 248.5949 170.1053)" class="st16" width="1.8" height="5.3"/>
	</g>
</g>
<g id="shadow" class="st1">
	<path d="M315.3,177.8H314v-8.5c0-0.8-0.6-1.4-1.4-1.4h-3.1c0.9-4.3,2.8-12.4,5.4-21.6c3.6-12.8-4.5-20.6-10.3-29.3h11.1v-6.3h-15.9
		c-5.6-5-12.9-4.6-19.4-5.9c-7.1-1.4-8.1-0.1-8.6,3.5c-0.1,0.9,0,1.7,0.3,2.4h-17.9h-0.8H252h-0.8h-1.4H249h-3.5l-8.3,2.4v0.2
		l-1.6,0.5v0.3l1.6,0.5v0.2l8.3,2.4h3.5h0.8h1.4h0.8h1.4h0.8H267c-0.7,2.3-0.9,6.4-1.6,11.8c-0.1,1-0.2,2-0.1,3h0c0,0,0,0,0,0
		c0,1.7,0.3,3.4,0.6,5.1c1.2,8.1,4.4,23.9,12.3,31.1c0,0,0,0,0,0h-2.9c-0.8,0-1.4,0.6-1.4,1.4v8.5h-2.4c-0.8,0-1.4,0.6-1.4,1.4v54.5
		c0,0.8,0.6,1.4,1.4,1.4h43.9c0.8,0,1.4-0.6,1.4-1.4v-54.5C316.7,178.5,316.1,177.8,315.3,177.8z M275.9,131.8
		c-0.4-1.7-0.5-3.9-0.4-6.8c0.1-3.9-0.6-6.4-1.7-8h16.2c3.3,2.4,6,9,7.3,14.3c0.7,5.8-0.6,7.8-3.3,9.4c-1.3,0.6-2.8,1.3-4.5,2.2
		C284,145.4,276.2,132.3,275.9,131.8z"/>
	<rect x="315.8" y="111.3" width="4.8" height="5.1"/>
</g>
<g id="hand">
	<path class="st4" d="M313.6,233.7c0,0.8-0.6,1.4-1.4,1.4h-43.9c-0.8,0-1.4-0.6-1.4-1.4v-54.5c0-0.8,0.6-1.4,1.4-1.4h43.9
		c0.8,0,1.4,0.6,1.4,1.4V233.7z"/>
	<path class="st6" d="M310.9,177.8v-8.5c0-0.8-0.6-1.4-1.4-1.4h-37.3c-0.8,0-1.4,0.6-1.4,1.4v8.5H310.9z"/>
	<path class="st17" d="M275,167.9h31.4c0.9-4.3,2.8-12.4,5.4-21.6c3.8-13.7-5.7-21.7-11.5-31.3c-5.7-9.6-15-8.6-23-10.2
		c-7.1-1.4-8.1-0.1-8.6,3.5c-0.9,6.8,11.3,5.5,17.1,8c3.7,1.6,6.9,9.1,8.3,14.9c0.7,5.8-0.6,7.8-3.3,9.4c-1.3,0.6-2.8,1.3-4.5,2.2
		c-5.4,2.6-13.2-10.5-13.5-11c-0.4-1.7-0.5-3.9-0.4-6.8c0.3-10.2-5.3-10.9-7.2-9.9c-1.9,1-1.9,6.1-2.9,13.7c-0.1,1-0.2,2-0.1,3h0
		c0,0,0,0,0,0c0,1.7,0.3,3.4,0.6,5.1C263.9,145,267.1,160.7,275,167.9C275,167.9,275,167.9,275,167.9z"/>
</g>
<g id="pen">
	<rect x="242.4" y="110.7" class="st4" width="70.3" height="6.3"/>
	<polygon class="st3" points="234.1,114.6 234.1,113.1 242.4,110.7 242.4,117 	"/>
	<polygon class="st4" points="232.4,113.9 232.4,113.7 234.1,113.2 234.1,114.4 	"/>
	<rect x="312.7" y="111.3" class="st3" width="4.8" height="5.1"/>
	<rect x="245.9" y="110.7" class="st2" width="0.8" height="6.3"/>
	<rect x="248.1" y="110.7" class="st2" width="0.8" height="6.3"/>
	<rect x="250.3" y="110.7" class="st2" width="0.8" height="6.3"/>
</g>
</svg>
