<?xml version="1.0" encoding="iso-8859-1"?>
<!-- Generator: Adobe Illustrator 24.2.1, SVG Export Plug-In . SVG Version: 6.00 Build 0)  -->
<svg version="1.1" id="Capa_1" xmlns="http://www.w3.org/2000/svg" xmlns:xlink="http://www.w3.org/1999/xlink" x="0px" y="0px"
	 viewBox="0 0 512 512" style="enable-background:new 0 0 512 512;" xml:space="preserve">
<g>
	<polygon style="fill:#98D3F3;" points="451,225 166,225 256,512 451,512 	"/>
	<rect x="61" y="225" style="fill:#ADF2F5;" width="195" height="287"/>
	<polygon style="fill:#ADF2F5;" points="481,135 256,135 211,195 256,255 481,255 	"/>
	<rect x="31" y="135" style="fill:#D6F9FA;" width="225" height="120"/>
	<path style="fill:#FF3A33;" d="M196,135c-41.355,0-75,33.645-75,75v242l60-40l60,40V150c0-8.271,6.729-15,15-15l-30-30L196,135z"/>
	<path style="fill:#CF3A48;" d="M316,135l-30-30l-30,30c8.271,0,15,6.729,15,15v302l60-40l60,40V210
		C391,168.645,357.355,135,316,135z"/>
	<path style="fill:#FF3A33;" d="M334.6,64.943c3.412-12.552,0.2-26.529-9.657-36.386s-23.833-13.069-36.386-9.657
		C282.094,7.612,269.94,0,256,0l-45,67.5l45,67.5h60c20.711,0,37.5-16.789,37.5-37.5C353.5,83.56,345.888,71.406,334.6,64.943z"/>
	<path style="fill:#FE5E49;" d="M223.443,18.9c-12.552-3.412-26.529-0.2-36.386,9.657s-13.069,23.834-9.657,36.386
		c-11.288,6.463-18.9,18.617-18.9,32.557c0,20.711,16.789,37.5,37.5,37.5h60V0C242.06,0,229.906,7.612,223.443,18.9z"/>
</g>
<g>
</g>
<g>
</g>
<g>
</g>
<g>
</g>
<g>
</g>
<g>
</g>
<g>
</g>
<g>
</g>
<g>
</g>
<g>
</g>
<g>
</g>
<g>
</g>
<g>
</g>
<g>
</g>
<g>
</g>
</svg>
