<?xml version="1.0" encoding="iso-8859-1"?>
<!-- Generator: Adobe Illustrator 24.2.1, SVG Export Plug-In . SVG Version: 6.00 Build 0)  -->
<svg version="1.1" id="Capa_1" xmlns="http://www.w3.org/2000/svg" xmlns:xlink="http://www.w3.org/1999/xlink" x="0px" y="0px"
	 viewBox="0 0 512 512" style="enable-background:new 0 0 512 512;" xml:space="preserve">
<g>
	<polygon style="fill:#ADF2F5;" points="271,437 241,437 256,512 271,512 	"/>
	<rect x="241" y="437" style="fill:#D6F9FA;" width="15" height="75"/>
	<rect x="482" y="181" style="fill:#FE5E49;" width="30" height="30"/>
	
		<rect x="449.833" y="60.468" transform="matrix(0.866 -0.5 0.5 0.866 24.5421 242.5273)" style="fill:#FE5E49;" width="30" height="30"/>
	
		<rect x="32.409" y="60.048" transform="matrix(-0.866 -0.5 0.5 -0.866 50.9422 163.7464)" style="fill:#FE7F48;" width="30" height="30"/>
	
		<rect x="0" y="180.516" transform="matrix(-1 -2.689983e-10 2.689983e-10 -1 30 391.0316)" style="fill:#FE7F48;" width="30" height="30"/>
	
		<rect x="32.167" y="301.048" transform="matrix(-0.866 0.5 -0.5 -0.866 246.0386 566.1706)" style="fill:#FE7F48;" width="30" height="30"/>
	
		<rect x="449.591" y="301.468" transform="matrix(0.866 0.5 -0.5 0.866 220.4772 -189.8969)" style="fill:#FE5E49;" width="30" height="30"/>
	<path style="fill:#FDC245;" d="M256,392l-15,30l15,30c22.5,0,22.5-15,45-14.961C301,412.147,280.853,392,256,392z"/>
	<path style="fill:#FCE444;" d="M211,437c22.5,0,22.5,15,45,15v-60C231.147,392,211,412.147,211,437z"/>
	<path style="fill:#FDC245;" d="M256,0L126.294,196L256,392c108.248,0,196-87.752,196-196S364.248,0,256,0z"/>
	<path style="fill:#FCE444;" d="M60,196c0,108.248,87.752,196,196,196V0C147.752,0,60,87.752,60,196z"/>
	<path style="fill:#CF3A48;" d="M287,211c0,17.093-13.906,31-31,31l-15,15l15,15c33.636,0,61-27.364,61-61H287z"/>
	<path style="fill:#FF3A33;" d="M225,211h-30c0,33.636,27.364,61,61,61v-30C238.906,242,225,228.093,225,211z"/>
	<rect x="195" y="136" style="fill:#554FB2;" width="30" height="45"/>
	<rect x="287" y="136" style="fill:#403C86;" width="30" height="45"/>
</g>
<g>
</g>
<g>
</g>
<g>
</g>
<g>
</g>
<g>
</g>
<g>
</g>
<g>
</g>
<g>
</g>
<g>
</g>
<g>
</g>
<g>
</g>
<g>
</g>
<g>
</g>
<g>
</g>
<g>
</g>
</svg>
