<?xml version="1.0" encoding="iso-8859-1"?>
<!-- Generator: Adobe Illustrator 24.2.1, SVG Export Plug-In . SVG Version: 6.00 Build 0)  -->
<svg version="1.1" id="Capa_1" xmlns="http://www.w3.org/2000/svg" xmlns:xlink="http://www.w3.org/1999/xlink" x="0px" y="0px"
	 viewBox="0 0 512 512" style="enable-background:new 0 0 512 512;" xml:space="preserve">
<g>
	<polygon style="fill:#83B3F1;" points="447.626,85.587 437.019,74.981 421.109,80.284 415.806,96.194 426.413,106.8 	"/>
	
		<rect x="406.109" y="72.784" transform="matrix(0.7071 -0.7071 0.7071 0.7071 66.5708 321.284)" style="fill:#98D3F3;" width="30" height="15"/>
	<rect x="0" y="241" style="fill:#FCE444;" width="30" height="30"/>
	<rect x="60" y="241" style="fill:#FF3A33;" width="30" height="30"/>
	<rect x="482" y="241" style="fill:#3EA85C;" width="30" height="30"/>
	<rect x="422" y="241" style="fill:#403C86;" width="30" height="30"/>
	<rect x="362" y="241" style="fill:#FDA147;" width="30" height="30"/>
	
		<rect x="463.655" y="148.773" transform="matrix(0.9239 -0.3827 0.3827 0.9239 -26.2379 195.6398)" style="fill:#554FB2;" width="30" height="30"/>
	
		<rect x="408.222" y="171.734" transform="matrix(0.9239 -0.3827 0.3827 0.9239 -39.2443 176.1744)" style="fill:#FF3A33;" width="30" height="30"/>
	<polygon style="fill:#FDA147;" points="405.2,128.014 394.593,117.407 378.683,122.71 373.38,138.62 383.986,149.227 	"/>
	
		<rect x="363.683" y="115.21" transform="matrix(0.7071 -0.7071 0.7071 0.7071 24.1444 303.7104)" style="fill:#FDC245;" width="30" height="15"/>
	<polygon style="fill:#FF3A33;" points="362.773,170.44 352.167,159.833 336.257,165.137 330.953,181.047 341.56,191.653 	"/>
	
		<rect x="321.257" y="157.637" transform="matrix(0.7071 -0.7071 0.7071 0.7071 -18.2821 286.1368)" style="fill:#FE5E49;" width="30" height="15"/>
	<polygon style="fill:#554FB2;" points="320.347,212.866 309.74,202.26 293.83,207.563 288.527,223.473 299.134,234.08 	"/>
	
		<rect x="278.83" y="200.063" transform="matrix(0.7071 -0.7071 0.7071 0.7071 -60.7085 268.5632)" style="fill:#736DD9;" width="30" height="15"/>
	
		<rect x="333.227" y="18.345" transform="matrix(0.3827 -0.9239 0.9239 0.3827 184.1593 342.304)" style="fill:#3DCC4E;" width="30" height="30"/>
	
		<rect x="310.266" y="73.778" transform="matrix(0.3827 -0.9239 0.9239 0.3827 118.7719 355.3103)" style="fill:#FE5E49;" width="30" height="30"/>
	<rect x="241" y="482" style="fill:#403C86;" width="30" height="30"/>
	<rect x="241" y="422" style="fill:#CF3A48;" width="30" height="30"/>
	<rect x="241" y="0" style="fill:#FDC245;" width="30" height="30"/>
	<rect x="241" y="60" style="fill:#736DD9;" width="30" height="30"/>
	<rect x="241" y="120" style="fill:#3DCC4E;" width="30" height="30"/>
	
		<rect x="333.227" y="463.655" transform="matrix(0.9239 -0.3827 0.3827 0.9239 -156.6662 169.696)" style="fill:#FF3A33;" width="30" height="30"/>
	
		<rect x="310.266" y="408.222" transform="matrix(0.9239 -0.3827 0.3827 0.9239 -137.2007 156.6897)" style="fill:#FDA147;" width="30" height="30"/>
	
		<rect x="148.773" y="18.345" transform="matrix(0.9239 -0.3827 0.3827 0.9239 -0.2941 65.2116)" style="fill:#FF3A33;" width="30" height="30"/>
	
		<rect x="171.734" y="73.778" transform="matrix(0.9239 -0.3827 0.3827 0.9239 -19.7595 78.2179)" style="fill:#83B3F1;" width="30" height="30"/>
	
		<rect x="411.413" y="411.413" transform="matrix(0.7071 -0.7071 0.7071 0.7071 -176.6259 426.4127)" style="fill:#FDA147;" width="30" height="30"/>
	
		<rect x="368.986" y="368.986" transform="matrix(0.7071 -0.7071 0.7071 0.7071 -159.0523 383.9863)" style="fill:#3EA85C;" width="30" height="30"/>
	
		<rect x="326.56" y="326.56" transform="matrix(0.7071 -0.7071 0.7071 0.7071 -141.4787 341.5599)" style="fill:#FF3A33;" width="30" height="30"/>
	
		<rect x="70.587" y="70.587" transform="matrix(0.7071 -0.7071 0.7071 0.7071 -35.4514 85.5873)" style="fill:#928BFF;" width="30" height="30"/>
	
		<rect x="113.014" y="113.014" transform="matrix(0.7071 -0.7071 0.7071 0.7071 -53.025 128.0137)" style="fill:#3DCC4E;" width="30" height="30"/>
	
		<rect x="155.44" y="155.44" transform="matrix(0.7071 -0.7071 0.7071 0.7071 -70.5986 170.4401)" style="fill:#FE5E49;" width="30" height="30"/>
	
		<rect x="463.655" y="333.227" transform="matrix(0.3827 -0.9239 0.9239 0.3827 -26.2379 657.1857)" style="fill:#FE5E49;" width="30" height="30"/>
	
		<rect x="408.222" y="310.266" transform="matrix(0.3827 -0.9239 0.9239 0.3827 -39.2443 591.7982)" style="fill:#928BFF;" width="30" height="30"/>
	
		<rect x="18.345" y="148.773" transform="matrix(0.3827 -0.9239 0.9239 0.3827 -130.7224 131.9068)" style="fill:#98D3F3;" width="30" height="30"/>
	
		<rect x="73.778" y="171.734" transform="matrix(0.3827 -0.9239 0.9239 0.3827 -117.716 197.2942)" style="fill:#FDC245;" width="30" height="30"/>
	<polygon style="fill:#FE7F48;" points="106.066,342.294 53.033,458.967 106.066,512 159.099,458.967 	"/>
	<polygon style="fill:#FDA147;" points="53.033,352.901 0,405.934 53.033,458.967 137.886,374.114 	"/>
	<polygon style="fill:#CF3A48;" points="201.526,246.835 106.066,405.934 159.099,458.967 286.379,331.687 	"/>
	<polygon style="fill:#FF3A33;" points="74.247,331.687 53.033,352.901 106.066,405.934 233.346,278.654 	"/>
	<path style="fill:#FE5E49;" d="M266.607,245.393L172.22,276.14l-30.747,94.387c50.042,13.363,105.647,0.419,144.906-38.84
		l33.261-33.261L266.607,245.393z"/>
	<path style="fill:#FE7F48;" d="M266.607,245.393l-53.033-53.033L74.247,331.687c19.32,19.32,42.6,32.264,67.226,38.84
		L266.607,245.393z"/>
</g>
<g>
</g>
<g>
</g>
<g>
</g>
<g>
</g>
<g>
</g>
<g>
</g>
<g>
</g>
<g>
</g>
<g>
</g>
<g>
</g>
<g>
</g>
<g>
</g>
<g>
</g>
<g>
</g>
<g>
</g>
</svg>
