<?xml version="1.0" encoding="iso-8859-1"?>
<!-- Generator: Adobe Illustrator 24.2.1, SVG Export Plug-In . SVG Version: 6.00 Build 0)  -->
<svg version="1.1" id="Capa_1" xmlns="http://www.w3.org/2000/svg" xmlns:xlink="http://www.w3.org/1999/xlink" x="0px" y="0px"
	 viewBox="0 0 512 512" style="enable-background:new 0 0 512 512;" xml:space="preserve">
<g>
	<rect x="60" y="241" style="fill:#FCE444;" width="30" height="30"/>
	<rect x="120" y="241" style="fill:#FDC245;" width="30" height="30"/>
	<rect x="0" y="241" style="fill:#FDC245;" width="30" height="30"/>
	<rect x="482" y="241" style="fill:#FDA147;" width="30" height="30"/>
	<rect x="422" y="241" style="fill:#FDC245;" width="30" height="30"/>
	<rect x="362" y="241" style="fill:#FDA147;" width="30" height="30"/>
	
		<rect x="150.5" y="397.751" transform="matrix(0.5 -0.866 0.866 0.5 -274.7025 349.7025)" style="fill:#FCE444;" width="30" height="30"/>
	
		<rect x="180.5" y="345.789" transform="matrix(0.5 -0.866 0.866 0.5 -214.7025 349.7025)" style="fill:#FDC245;" width="30" height="30"/>
	
		<rect x="120.5" y="449.712" transform="matrix(0.5 -0.866 0.866 0.5 -334.7025 349.7025)" style="fill:#FDC245;" width="30" height="30"/>
	
		<rect x="361.5" y="32.288" transform="matrix(0.5 -0.866 0.866 0.5 147.2975 349.7025)" style="fill:#FDA147;" width="30" height="30"/>
	
		<rect x="331.5" y="84.249" transform="matrix(0.5 -0.866 0.866 0.5 87.2975 349.7025)" style="fill:#FDC245;" width="30" height="30"/>
	
		<rect x="301.5" y="136.211" transform="matrix(0.5 -0.866 0.866 0.5 27.2975 349.7025)" style="fill:#FDA147;" width="30" height="30"/>
	
		<rect x="331.5" y="397.751" transform="matrix(0.866 -0.5 0.5 0.866 -159.9531 228.5481)" style="fill:#FDC245;" width="30" height="30"/>
	
		<rect x="301.5" y="345.789" transform="matrix(0.866 -0.5 0.5 0.866 -137.9916 206.5866)" style="fill:#FDA147;" width="30" height="30"/>
	
		<rect x="361.5" y="449.712" transform="matrix(0.866 -0.5 0.5 0.866 -181.9146 250.5096)" style="fill:#FDA147;" width="30" height="30"/>
	
		<rect x="120.5" y="32.288" transform="matrix(0.866 -0.5 0.5 0.866 -5.4904 74.0854)" style="fill:#FDC245;" width="30" height="30"/>
	
		<rect x="150.5" y="84.249" transform="matrix(0.866 -0.5 0.5 0.866 -27.4519 96.0469)" style="fill:#FCE444;" width="30" height="30"/>
	
		<rect x="180.5" y="136.211" transform="matrix(0.866 -0.5 0.5 0.866 -49.4134 118.0084)" style="fill:#FDC245;" width="30" height="30"/>
	<path style="fill:#FE7F48;" d="M191.047,218.5l-83.646-97.328c-3.316-3.856-7.229-7.1-11.633-9.642
		C74.28,99.122,46.704,106.511,34.297,128s-5.018,49.064,16.471,61.471c4.405,2.543,9.172,4.31,14.17,5.252L191.047,218.5z"/>
	<path style="fill:#FF3A33;" d="M320.953,293.5l83.645,97.326c3.315,3.857,7.228,7.102,11.634,9.645
		c21.489,12.407,49.064,5.018,61.471-16.471s5.018-49.064-16.471-61.471c-4.404-2.542-9.169-4.31-14.17-5.254L320.953,293.5z"/>
	<path style="fill:#FDA147;" d="M191.047,293.5L64.936,317.276c-4.998,0.944-9.763,2.711-14.167,5.253
		C29.28,334.936,21.891,362.511,34.297,384s39.982,28.878,61.471,16.471c4.405-2.543,8.319-5.788,11.634-9.645L191.047,293.5z"/>
	<path style="fill:#FE5E49;" d="M320.953,218.5l126.109-23.776c4.997-0.942,9.764-2.709,14.17-5.252
		c21.489-12.407,28.878-39.982,16.471-61.471s-39.982-28.878-61.471-16.471c-4.404,2.542-8.317,5.786-11.635,9.645L320.953,218.5z"
		/>
	<polygon style="fill:#FDA147;" points="332,241 281.98,241 306.99,197.682 281.01,182.682 256,226 241,256 256,286 281.01,329.318 
		306.99,314.318 281.98,271 332,271 	"/>
	<path style="fill:#FE7F48;" d="M301,45c0-24.813-20.187-45-45-45l-15,45l15,135.999l42.466-121.104
		C300.147,55.096,301,50.085,301,45z"/>
	<path style="fill:#FDA147;" d="M211,45c0,5.087,0.854,10.099,2.536,14.897L256,180.999V0C231.187,0,211,20.187,211,45z"/>
	<path style="fill:#FE5E49;" d="M301,467c0-5.085-0.853-10.096-2.535-14.898L256,331.001L226,467l30,45
		C280.813,512,301,491.813,301,467z"/>
	<path style="fill:#FE7F48;" d="M211,467c0,24.813,20.187,45,45,45V331.001l-42.464,121.102C211.854,456.901,211,461.913,211,467z"
		/>
	<polygon style="fill:#FDC245;" points="230.99,182.682 205.01,197.682 230.02,241 180,241 180,271 230.02,271 205.01,314.318 
		230.99,329.318 256,286 256,226 	"/>
</g>
<g>
</g>
<g>
</g>
<g>
</g>
<g>
</g>
<g>
</g>
<g>
</g>
<g>
</g>
<g>
</g>
<g>
</g>
<g>
</g>
<g>
</g>
<g>
</g>
<g>
</g>
<g>
</g>
<g>
</g>
</svg>
