<?xml version="1.0" encoding="iso-8859-1"?>
<!-- Generator: Adobe Illustrator 24.2.1, SVG Export Plug-In . SVG Version: 6.00 Build 0)  -->
<svg version="1.1" id="Capa_1" xmlns="http://www.w3.org/2000/svg" xmlns:xlink="http://www.w3.org/1999/xlink" x="0px" y="0px"
	 viewBox="0 0 512 512" style="enable-background:new 0 0 512 512;" xml:space="preserve">
<g>
	<path style="fill:#FDC245;" d="M211,390.978L256,512c20.602,0,38.51-13.909,43.599-33.844l11.394-42.178L211,390.978z"/>
	<path style="fill:#FCE444;" d="M201.007,435.978l11.394,42.178C217.49,498.091,235.398,512,256,512V390.978L201.007,435.978z"/>
	<polygon style="fill:#736DD9;" points="196,344.923 256,435.978 310.993,435.978 335.59,344.923 	"/>
	<polygon style="fill:#928BFF;" points="256,344.923 176.41,344.923 201.007,435.978 256,435.978 	"/>
	<path style="fill:#CF3A48;" d="M211,121.022L256,0c20.602,0,38.51,13.909,43.599,33.844l11.394,42.178L211,121.022z"/>
	<path style="fill:#FF3A33;" d="M201.007,76.022l11.394-42.178C217.49,13.909,235.398,0,256,0v121.022L201.007,76.022z"/>
	<polygon style="fill:#736DD9;" points="196,167.077 256,76.022 310.993,76.022 335.59,167.077 	"/>
	<polygon style="fill:#928BFF;" points="256,167.077 176.41,167.077 201.007,76.022 256,76.022 	"/>
	<path style="fill:#FCE444;" d="M85.407,107.164c-19.808-5.56-40.808,2.995-51.109,20.836s-7.209,40.305,7.51,54.68l30.831,30.956
		l66.468-25.125l-11.475-70.125L85.407,107.164z"/>
	<polygon style="fill:#928BFF;" points="72.638,213.636 139.196,280.465 218.785,142.612 127.631,118.386 	"/>
	<path style="fill:#CF3A48;" d="M470.193,329.32c14.719,14.374,17.811,36.838,7.51,54.68s-31.301,26.396-51.109,20.836
		l-42.224-11.222l-11.475-70.125l66.468-25.125L470.193,329.32z"/>
	<polygon style="fill:#736DD9;" points="384.369,393.614 293.215,369.388 372.804,231.535 439.362,298.364 	"/>
	<path style="fill:#FF3A33;" d="M41.807,329.32c-14.719,14.374-17.811,36.838-7.51,54.68s31.301,26.396,51.109,20.836l42.224-11.222
		l11.475-70.125l-66.468-25.125L41.807,329.32z"/>
	<polygon style="fill:#928BFF;" points="127.631,393.614 218.785,369.388 139.196,231.535 72.638,298.364 	"/>
	<path style="fill:#FDC245;" d="M426.593,107.164c19.808-5.56,40.808,2.995,51.109,20.836s7.209,40.305-7.51,54.68l-30.831,30.956
		l-66.468-25.125l11.475-70.125L426.593,107.164z"/>
	<polygon style="fill:#736DD9;" points="439.362,213.636 372.804,280.465 293.215,142.612 384.369,118.386 	"/>
	<path style="fill:#3DCC4E;" d="M256,121l-89.338,135L256,391c74.558,0,135-60.441,135-135S330.558,121,256,121z"/>
	<path style="fill:#7DDA5B;" d="M121,256c0,74.559,60.442,135,135,135V121C181.442,121,121,181.441,121,256z"/>
	<path style="fill:#FDC245;" d="M256,181l-49.632,75L256,331c41.421,0,75-33.579,75-75S297.421,181,256,181z"/>
	<path style="fill:#FCE444;" d="M181,256c0,41.421,33.579,75,75,75V181C214.579,181,181,214.579,181,256z"/>
</g>
<g>
</g>
<g>
</g>
<g>
</g>
<g>
</g>
<g>
</g>
<g>
</g>
<g>
</g>
<g>
</g>
<g>
</g>
<g>
</g>
<g>
</g>
<g>
</g>
<g>
</g>
<g>
</g>
<g>
</g>
</svg>
