<?xml version="1.0" encoding="iso-8859-1"?>
<!-- Generator: Adobe Illustrator 24.2.1, SVG Export Plug-In . SVG Version: 6.00 Build 0)  -->
<svg version="1.1" id="Capa_1" xmlns="http://www.w3.org/2000/svg" xmlns:xlink="http://www.w3.org/1999/xlink" x="0px" y="0px"
	 viewBox="0 0 512.001 512.001" style="enable-background:new 0 0 512.001 512.001;" xml:space="preserve">
<g>
	<polygon style="fill:#FE7F48;" points="466.607,66.608 456,56.001 440.09,61.305 434.787,77.215 445.393,87.821 	"/>
	
		<rect x="425.09" y="53.805" transform="matrix(0.7071 -0.7071 0.7071 0.7071 85.5504 329.1465)" style="fill:#FDA147;" width="30" height="15"/>
	<polygon style="fill:#CF3A48;" points="158.368,311.207 31.089,480.912 62.178,512.001 187.097,403.575 	"/>
	<polygon style="fill:#FF3A33;" points="108.426,324.904 0,449.823 31.089,480.912 179.581,332.42 	"/>
	<polygon style="fill:#A03B5C;" points="187.097,403.575 232.522,364.147 200.795,268.78 147.762,364.24 	"/>
	<polygon style="fill:#CF3A48;" points="222.008,289.994 147.854,279.479 108.426,324.904 147.762,364.24 	"/>
	<polygon style="fill:#FDC245;" points="413.574,98.428 296.901,151.461 445.651,236.571 512.001,196.855 	"/>
	<polygon style="fill:#FCE444;" points="413.574,98.428 315.146,0 275.43,66.35 328.721,183.28 	"/>
	
		<rect x="472.82" y="94.034" transform="matrix(-0.7071 0.7071 -0.7071 -0.7071 909.8597 -158.8073)" style="fill:#FE7F48;" width="30" height="30"/>
	
		<rect x="387.967" y="9.182" transform="matrix(-0.7071 0.7071 -0.7071 -0.7071 705.0069 -243.6601)" style="fill:#FDA147;" width="30" height="30"/>
	<polygon style="fill:#736DD9;" points="295.56,131.589 190.188,321.813 232.522,364.147 417.433,253.462 	"/>
	<polygon style="fill:#928BFF;" points="187.57,213.129 147.854,279.479 190.188,321.813 337.986,174.015 	"/>
	<path style="fill:#3DCC4E;" d="M360.541,151.461l-96.676,11.823l-11.823,96.676c52.145,23.195,113.223,21.763,165.391-6.497
		l28.218-16.891L360.541,151.461z"/>
	<path style="fill:#7DDA5B;" d="M252.042,259.96l108.499-108.499L275.43,66.35l-87.86,146.779l7.98,7.98
		C212.254,237.812,231.453,250.801,252.042,259.96z"/>
</g>
<g>
</g>
<g>
</g>
<g>
</g>
<g>
</g>
<g>
</g>
<g>
</g>
<g>
</g>
<g>
</g>
<g>
</g>
<g>
</g>
<g>
</g>
<g>
</g>
<g>
</g>
<g>
</g>
<g>
</g>
</svg>
