<?xml version="1.0" encoding="iso-8859-1"?>
<!-- Generator: Adobe Illustrator 24.2.1, SVG Export Plug-In . SVG Version: 6.00 Build 0)  -->
<svg version="1.1" id="Capa_1" xmlns="http://www.w3.org/2000/svg" xmlns:xlink="http://www.w3.org/1999/xlink" x="0px" y="0px"
	 viewBox="0 0 512 512" style="enable-background:new 0 0 512 512;" xml:space="preserve">
<g>
	<path style="fill:#FDA147;" d="M260.521,155.303c-26.537-26.537-69.715-26.536-96.252,0c-4.177,4.177-7.796,8.886-10.758,13.996
		l-21.133,36.462c-37.415-1.053-71.181,11.697-95.902,36.417C9.638,269.017-3.09,306.518,0.636,347.774
		C4.271,388.012,23.24,427.14,54.05,457.95l254.558-254.558L260.521,155.303z"/>
	<path style="fill:#FE7F48;" d="M306.238,379.622l36.463-21.133c5.109-2.962,9.817-6.581,13.994-10.759
		c26.537-26.537,26.537-69.715,0.001-96.251l-48.087-48.087L54.05,457.95c30.81,30.81,69.937,49.779,110.176,53.414
		c41.255,3.726,78.757-9.002,105.595-35.84C294.542,450.803,307.291,417.037,306.238,379.622z"/>
	<polygon style="fill:#2B2859;" points="206.182,390.671 163.755,348.244 142.542,348.244 142.542,369.458 184.969,411.884 	"/>
	
		<rect x="116.936" y="307.638" transform="matrix(0.7071 -0.7071 0.7071 0.7071 -200.1029 192.1844)" style="fill:#502946;" width="30" height="60"/>
	<polygon style="fill:#FE5E49;" points="437.754,137.886 512,63.64 480.18,31.82 352.901,116.673 	"/>
	<polygon style="fill:#FE7F48;" points="480.18,31.82 448.36,0 374.114,74.246 374.114,137.886 	"/>
	<polygon style="fill:#FFD4A1;" points="405.934,106.066 310.474,159.099 395.327,180.313 437.754,137.886 	"/>
	<polygon style="fill:#FFFBBE;" points="405.934,106.066 374.114,74.246 331.687,116.673 342.294,169.706 	"/>
	<polygon style="fill:#2B2859;" points="229.881,260.905 272.308,303.332 395.327,180.313 363.507,148.493 	"/>
	
		<rect x="199.1" y="171.593" transform="matrix(0.7071 -0.7071 0.7071 0.7071 -53.4508 259.1435)" style="fill:#502946;" width="173.975" height="45"/>
	<path style="fill:#A03B5C;" d="M269.822,242.178l-70.503,14.35l-14.35,70.503c23.431,23.431,61.421,23.431,84.853,0
		S293.253,265.609,269.822,242.178z"/>
	<path style="fill:#CF3A48;" d="M184.969,242.178c-23.432,23.431-23.431,61.421,0,84.853l84.853-84.853
		C246.39,218.746,208.4,218.746,184.969,242.178z"/>
</g>
<g>
</g>
<g>
</g>
<g>
</g>
<g>
</g>
<g>
</g>
<g>
</g>
<g>
</g>
<g>
</g>
<g>
</g>
<g>
</g>
<g>
</g>
<g>
</g>
<g>
</g>
<g>
</g>
<g>
</g>
</svg>
