<?xml version="1.0" encoding="iso-8859-1"?>
<!-- Generator: Adobe Illustrator 24.2.1, SVG Export Plug-In . SVG Version: 6.00 Build 0)  -->
<svg version="1.1" id="Capa_1" xmlns="http://www.w3.org/2000/svg" xmlns:xlink="http://www.w3.org/1999/xlink" x="0px" y="0px"
	 viewBox="0 0 512 512" style="enable-background:new 0 0 512 512;" xml:space="preserve">
<g>
	<polygon style="fill:#2B2859;" points="44.105,467.894 88.211,512 166.759,446.189 116.285,353.288 	"/>
	<polygon style="fill:#403C86;" points="65.811,345.241 0,423.789 44.105,467.894 137.498,374.502 	"/>
	<polygon style="fill:#403C86;" points="201.138,268.436 116.285,395.715 166.759,446.189 259.099,368.824 	"/>
	<polygon style="fill:#554FB2;" points="222.351,289.649 143.176,252.901 65.811,345.241 116.285,395.715 	"/>
	<polygon style="fill:#928BFF;" points="259.099,368.824 328.295,310.849 243.51,226.064 201.138,310.862 	"/>
	<polygon style="fill:#83B3F1;" points="264.723,247.277 201.151,183.705 143.176,252.901 201.138,310.862 	"/>
	<polygon style="fill:#ADF2F5;" points="179.924,353.288 169.318,342.682 153.408,347.985 148.105,363.895 158.711,374.502 	"/>
	
		<rect x="138.408" y="340.485" transform="matrix(0.7071 -0.7071 0.7071 0.7071 -201.1305 210.3983)" style="fill:#FFFFFF;" width="30" height="15"/>
	<path style="fill:#98D3F3;" d="M434.483,247.223l42.426-42.426c46.788-46.788,46.788-122.918,0-169.706L264.777,162.37
		L434.483,247.223z"/>
	<path style="fill:#ADF2F5;" d="M476.909,35.091c-46.788-46.788-122.918-46.788-169.706,0l-42.426,42.426l42.426,127.279
		L476.909,35.091z"/>
	<path style="fill:#83B3F1;" d="M349.63,162.37l-106.066,21.214l98.71,98.71l6.124,0.063c32.524,0.332,63.097-12.145,86.084-35.133
		C434.483,247.223,349.63,162.37,349.63,162.37z"/>
	<path style="fill:#98D3F3;" d="M264.777,77.517c-22.988,22.988-35.465,53.56-35.134,86.085l0.062,6.124l56.284,56.284l63.64-63.64
		L264.777,77.517z"/>
	<path style="fill:#98D3F3;" d="M359.176,277.982l-62.579-62.579l-53.033-10.607l10.607,53.033l62.579,62.579
		c11.716,11.716,30.711,11.716,42.426,0C370.892,308.692,370.892,289.697,359.176,277.982z"/>
	<path style="fill:#ADF2F5;" d="M234.018,152.824c-11.716-11.716-30.711-11.716-42.426,0c-11.716,11.716-11.716,30.711,0,42.427
		l62.579,62.579l42.426-42.426L234.018,152.824z"/>
</g>
<g>
</g>
<g>
</g>
<g>
</g>
<g>
</g>
<g>
</g>
<g>
</g>
<g>
</g>
<g>
</g>
<g>
</g>
<g>
</g>
<g>
</g>
<g>
</g>
<g>
</g>
<g>
</g>
<g>
</g>
</svg>
