<?xml version="1.0" encoding="utf-8"?>
<svg viewBox="-128.171 1261.393 488.832 152.642" xmlns="http://www.w3.org/2000/svg">
  <g transform="matrix(1, 0, 0, 1, -906.796021, 510.092743)">
    <path d="M1263.9,751.3c-111.7,0-223.5,0-335.2,0c-48.9,0-97.8,0-146.7,0c-4.5,0-4.5,7,0,7c3.3,0,6.6,0,9.9,0 c1.8,22.8,3.5,45.6,5.3,68.4c0.9,11.9,1.8,23.8,2.7,35.7c0.9,11.2,0.8,23,4.4,33.7c0.8,2.3,4,3.7,5.9,1.5 c6-6.9,11.9-13.8,17.9-20.7c3-3.5,6-6.9,9-10.4c1.3-1.5,2.6-3,3.8-4.4c0.9-1.1,2.2-3.2,3.6-4.4c2.8,2.3,5.2,6.8,7.2,9.2 c3.3,4.2,6.6,8.3,10,12.5c6.2,7.8,12.4,15.6,18.7,23.4c2.2,2.7,5.6,0.1,6-2.5c3.1-23.2,0.2-47.3-0.9-70.5 c-1.1-23.8-2.3-47.7-3.4-71.5c11.3,0,22.6,0,33.9,0c1.8,22.8,3.5,45.6,5.3,68.4c0.9,11.9,1.8,23.8,2.7,35.7 c0.9,11.2,0.8,23,4.4,33.7c0.8,2.3,4,3.7,5.8,1.5c6-6.9,11.9-13.8,17.9-20.7c3-3.5,6-6.9,9-10.4c1.3-1.5,2.6-3,3.8-4.4 c0.9-1.1,2.2-3.2,3.6-4.4c2.8,2.3,5.2,6.8,7.2,9.2c3.3,4.2,6.6,8.3,10,12.5c6.2,7.8,12.4,15.6,18.7,23.4c2.2,2.7,5.6,0.1,6-2.5 c3.1-23.2,0.2-47.3-0.9-70.5c-1.1-23.8-2.3-47.7-3.4-71.5c11.3,0,22.6,0,33.9,0c1.8,22.8,3.5,45.6,5.3,68.4 c0.9,11.9,1.8,23.8,2.7,35.7c0.9,11.2,0.8,23,4.4,33.7c0.8,2.3,4,3.7,5.9,1.5c6-6.9,11.9-13.8,17.9-20.7c3-3.5,6-6.9,9-10.4 c1.3-1.5,2.6-3,3.8-4.4c0.9-1.1,2.2-3.2,3.6-4.4c2.8,2.3,5.2,6.8,7.2,9.2c3.3,4.2,6.6,8.3,10,12.5c6.2,7.8,12.4,15.6,18.7,23.4 c2.2,2.7,5.6,0.1,6-2.5c3.1-23.2,0.2-47.3-0.9-70.5c-1.1-23.8-2.3-47.7-3.4-71.5c11.3,0,22.6,0,33.9,0 c1.8,22.8,3.5,45.6,5.3,68.4c0.9,11.9,1.8,23.8,2.7,35.7c0.9,11.2,0.8,23,4.4,33.7c0.8,2.3,4,3.7,5.8,1.5 c6-6.9,11.9-13.8,17.9-20.7c3-3.5,6-6.9,9-10.4c1.3-1.5,2.6-3,3.8-4.4c0.9-1.1,2.2-3.2,3.6-4.4c2.8,2.3,5.2,6.8,7.2,9.2 c3.3,4.2,6.6,8.3,10,12.5c6.2,7.8,12.4,15.6,18.7,23.4c2.2,2.7,5.6,0.1,6-2.5c3.1-23.2,0.2-47.3-0.9-70.5 c-1.1-23.8-2.3-47.7-3.4-71.5c3.5,0,7,0,10.5,0C1268.5,758.3,1268.5,751.3,1263.9,751.3z M880.2,891.5 c-4.9-6.2-9.9-12.4-14.9-18.6c-3.3-4.2-6.6-8.3-10-12.5c-2.6-3.2-5.5-9-9.7-10.1c-3.7-1-6.4,3-8.4,5.3c-3.4,4-6.8,7.9-10.2,11.9 c-5.9,6.8-11.7,13.6-17.6,20.4c-1.7-8.3-1.8-17.1-2.5-25.5c-0.9-11.9-1.8-23.8-2.7-35.7c-1.8-22.8-3.5-45.6-5.3-68.4 c25.3,0,50.6,0,75.9,0c1.1,23.2,2.2,46.4,3.3,69.5C879.2,848.8,881.7,870.5,880.2,891.5z M1004,891.5 c-4.9-6.2-9.9-12.4-14.8-18.6c-3.3-4.2-6.6-8.3-10-12.5c-2.6-3.2-5.5-9-9.7-10.1c-3.7-1-6.4,3-8.4,5.3c-3.4,4-6.8,7.9-10.2,11.9 c-5.9,6.8-11.7,13.6-17.6,20.4c-1.7-8.3-1.8-17.1-2.5-25.5c-0.9-11.9-1.8-23.8-2.7-35.7c-1.8-22.8-3.5-45.6-5.3-68.4 c25.3,0,50.6,0,75.9,0c1.1,23.2,2.2,46.4,3.3,69.5C1003.1,848.8,1005.6,870.5,1004,891.5z M1127.9,891.5 c-5-6.2-9.9-12.4-14.9-18.6c-3.3-4.2-6.6-8.3-10-12.5c-2.6-3.2-5.5-9-9.7-10.1c-3.7-1-6.4,3-8.4,5.3c-3.4,4-6.8,7.9-10.2,11.9 c-5.9,6.8-11.7,13.6-17.6,20.4c-1.7-8.3-1.8-17.1-2.5-25.5c-0.9-11.9-1.8-23.8-2.7-35.7c-1.8-22.8-3.5-45.6-5.3-68.4 c23.5,0,47,0,70.6,0c1.8,0,3.6,0,5.4,0c1.1,23.2,2.2,46.4,3.3,69.5C1127,848.8,1129.5,870.5,1127.9,891.5z M1251.8,891.5 c-4.9-6.2-9.9-12.4-14.8-18.6c-3.3-4.2-6.6-8.3-10-12.5c-2.6-3.2-5.5-9-9.7-10.1c-3.7-1-6.4,3-8.4,5.3c-3.4,4-6.8,7.9-10.2,11.9 c-5.9,6.8-11.7,13.6-17.6,20.4c-1.7-8.3-1.8-17.1-2.5-25.5c-0.9-11.9-1.8-23.8-2.7-35.7c-1.8-22.8-3.5-45.6-5.3-68.4 c25.3,0,50.6,0,75.9,0c1.1,23.2,2.2,46.4,3.3,69.5C1250.8,848.8,1253.3,870.5,1251.8,891.5z"/>
    <path fill="#B09DCA" d="M874.9,758.3c-25.3,0-50.6,0-75.9,0c1.8,22.8,3.5,45.6,5.3,68.4c0.9,11.9,1.8,23.8,2.7,35.7 c0.6,8.4,0.7,17.2,2.5,25.5c5.9-6.8,11.7-13.6,17.6-20.4c3.4-4,6.8-7.9,10.2-11.9c2-2.3,4.7-6.4,8.4-5.3 c4.3,1.2,7.2,6.9,9.7,10.1c3.3,4.2,6.6,8.3,10,12.5c5,6.2,9.9,12.4,14.9,18.6c1.6-21.1-0.9-42.7-1.9-63.7 C877.1,804.6,876,781.5,874.9,758.3z"/>
    <path fill="#B09DCA" d="M998.7,758.3c-25.3,0-50.6,0-75.9,0c1.8,22.8,3.5,45.6,5.3,68.4c0.9,11.9,1.8,23.8,2.7,35.7 c0.6,8.4,0.7,17.2,2.5,25.5c5.9-6.8,11.7-13.6,17.6-20.4c3.4-4,6.8-7.9,10.2-11.9c2-2.3,4.7-6.4,8.4-5.3 c4.3,1.2,7.2,6.9,9.7,10.1c3.3,4.2,6.6,8.3,10,12.5c4.9,6.2,9.9,12.4,14.8,18.6c1.6-21.1-0.9-42.7-1.9-63.7 C1001,804.6,999.9,781.5,998.7,758.3z"/>
    <path fill="#B09DCA" d="M1122.6,758.3c-1.8,0-3.6,0-5.4,0c-23.5,0-47,0-70.6,0c1.8,22.8,3.5,45.6,5.3,68.4 c0.9,11.9,1.8,23.8,2.7,35.7c0.6,8.4,0.7,17.2,2.5,25.5c5.9-6.8,11.7-13.6,17.6-20.4c3.4-4,6.8-7.9,10.2-11.9 c2-2.3,4.7-6.4,8.4-5.3c4.3,1.2,7.2,6.9,9.7,10.1c3.3,4.2,6.6,8.3,10,12.5c5,6.2,9.9,12.4,14.9,18.6c1.6-21.1-0.9-42.7-1.9-63.7 C1124.8,804.6,1123.7,781.5,1122.6,758.3z"/>
    <path fill="#B09DCA" d="M1246.5,758.3c-25.3,0-50.6,0-75.9,0c1.8,22.8,3.5,45.6,5.3,68.4c0.9,11.9,1.8,23.8,2.7,35.7 c0.6,8.4,0.7,17.2,2.5,25.5c5.9-6.8,11.7-13.6,17.6-20.4c3.4-4,6.8-7.9,10.2-11.9c2-2.3,4.7-6.4,8.4-5.3 c4.3,1.2,7.2,6.9,9.7,10.1c3.3,4.2,6.6,8.3,10,12.5c4.9,6.2,9.9,12.4,14.8,18.6c1.6-21.1-0.9-42.7-1.9-63.7 C1248.7,804.6,1247.6,781.5,1246.5,758.3z"/>
  </g>
</svg>