<?xml version="1.0" encoding="utf-8"?>
<!-- Generator: Adobe Illustrator 18.0.0, SVG Export Plug-In . SVG Version: 6.00 Build 0)  -->
<!DOCTYPE svg PUBLIC "-//W3C//DTD SVG 1.1//EN" "http://www.w3.org/Graphics/SVG/1.1/DTD/svg11.dtd">
<svg version="1.1" id="Layer_1" xmlns="http://www.w3.org/2000/svg" xmlns:xlink="http://www.w3.org/1999/xlink" x="0px" y="0px"
	 viewBox="0 0 1400 1100" enable-background="new 0 0 1400 1100" xml:space="preserve">
<g>
	<rect fill="#939598" width="1400" height="1100"/>
	<g>
		<polygon fill="#808285" points="808.8,898.7 727.3,886.9 642.7,899.2 554,886.9 461.5,899.8 461.5,1029.7 554.8,1013.7 
			644.2,1023.4 729.5,1008.2 811.6,1017.7 889.8,1003.3 886.5,886.9 		"/>
		<polygon fill="#808285" points="1278.4,776 1284.9,661.4 1277.3,551.3 1019.5,574.2 1023.8,686.3 1013.4,802.9 1032.7,919.6 
			1022.2,1042.9 1294.3,1011.6 1300.8,890.6 		"/>
		<path fill="#808285" d="M319.3,832.1c-19.5-17.2-45-27.7-73-27.7c-52.2,0-95.9,36.3-107.3,84.9c-1.9,8.1-2.9,16.6-2.9,25.3
			c0,57.8,44.5,105.2,101,109.9c3,0.3,6.1,0.4,9.2,0.4c56.6,0,103.2-42.7,109.5-97.6c0.5-4.2,0.7-8.4,0.7-12.7
			C356.5,881.8,342.1,852.3,319.3,832.1z"/>
		<path fill="#808285" d="M354.3,668c0-60.9-49.4-110.2-110.2-110.2c-60.9,0-110.2,49.4-110.2,110.2c0,57.8,44.5,105.2,101,109.9
			l0.1,0c0,0.1,0,0.3-0.1,0.4l118.7-97.2c-0.1,0-0.3,0-0.4,0l0.4-0.4C354,676.5,354.3,672.3,354.3,668z"/>
		<polygon fill="#808285" points="669,230.5 478,222.1 478,163.5 669,163.5 705.9,197 		"/>
		<path fill="#808285" d="M377.1,77.4c0.2,0,0.5,0,0.7,0l-0.6-20.4l-280,2.5v20.5c0.7-0.2,1.5-0.2,2.3-0.3
			c6.4-0.1,11.6,5.2,11.6,11.8c0,6.6-5.2,12-11.6,12c-0.8,0-1.6-0.1-2.3-0.2V493c0,16.1,12.2,29.1,27.2,29.1h240
			c15.2,0,27.1-13.1,26.6-29.3l-12.4-391.5c-0.2,0-0.5,0-0.7,0c-6.5,0.1-11.9-5.3-12.1-11.9C365.5,82.9,370.6,77.5,377.1,77.4z
			 M342.2,77.7c6.5-0.1,11.9,5.2,12.1,11.8c0.2,6.6-4.9,12-11.4,12.1c-6.5,0.1-11.9-5.3-12.1-11.9C330.6,83.2,335.7,77.8,342.2,77.7
			z M307.4,78c6.5-0.1,11.8,5.2,12,11.8c0.2,6.6-5,12-11.4,12.1c-6.5,0.1-11.8-5.3-12-11.9C295.8,83.5,300.9,78.1,307.4,78z
			 M272.6,78.3c6.4-0.1,11.8,5.2,11.9,11.8c0.1,6.6-5,12-11.5,12.1c-6.5,0.1-11.8-5.3-11.9-11.9C261,83.8,266.2,78.4,272.6,78.3z
			 M237.9,78.6c6.4-0.1,11.8,5.2,11.9,11.8c0.1,6.6-5,12-11.5,12c-6.5,0.1-11.8-5.3-11.9-11.9C226.3,84.1,231.4,78.7,237.9,78.6z
			 M203.2,78.9c6.4-0.1,11.7,5.2,11.8,11.8c0.1,6.6-5.1,12-11.5,12c-6.4,0.1-11.7-5.3-11.8-11.8C191.6,84.4,196.8,79,203.2,78.9z
			 M168.6,79.2c6.4-0.1,11.7,5.2,11.7,11.8c0.1,6.6-5.1,12-11.6,12c-6.4,0.1-11.7-5.3-11.7-11.8C157,84.6,162.1,79.3,168.6,79.2z
			 M134,79.5c6.4-0.1,11.6,5.2,11.7,11.8c0,6.6-5.2,12-11.6,12c-6.4,0.1-11.7-5.2-11.7-11.8C122.4,84.9,127.6,79.6,134,79.5z"/>
		<g>
			<polygon fill="#808285" points="917,565.4 939.6,345.6 913.2,342.7 912.8,319.3 720.7,321.4 531.5,300.4 528.8,323.5 
				502.8,323.8 503,542.5 477,763.3 503.2,766.5 503.2,790.6 697,790.5 891.4,814.5 893.8,790.4 920.8,790.4 			"/>
			
				<rect x="494.2" y="308.4" transform="matrix(0.9927 0.1203 -0.1203 0.9927 70.2691 -80.6554)" fill="#FDE081" width="417.9" height="466.5"/>
			<rect x="494.2" y="308.4" fill="#FFEEB3" width="417.9" height="466.5"/>
			<g>
				<rect x="650.6" y="287.3" fill="#58595B" width="105.1" height="48"/>
				<path fill="#BCBEC0" d="M730.5,334.5c-1.2,0-2.2-0.8-2.5-2l-12.8-51.3c3-3.1,4.7-7.3,4.7-11.6c0-9.2-7.5-16.7-16.7-16.7
					s-16.7,7.5-16.7,16.7c0,4.4,1.7,8.5,4.7,11.6l-12.8,51.3c-0.3,1.2-1.3,2-2.5,2h-11v4h11c3.1,0,5.7-2.1,6.5-5.1l13.1-52.4
					c0.2-0.7-0.1-1.5-0.6-2c-2.7-2.4-4.3-5.9-4.3-9.5c0-7,5.7-12.7,12.7-12.7s12.7,5.7,12.7,12.7c0,3.6-1.6,7.1-4.3,9.5
					c-0.6,0.5-0.8,1.3-0.6,2l13.1,52.4c0.7,3,3.4,5.1,6.5,5.1h11v-4H730.5z"/>
				<rect x="646.5" y="331.1" fill="#6D6E71" width="27.5" height="10.9"/>
				<rect x="732.3" y="331.1" fill="#6D6E71" width="27.5" height="10.9"/>
				<polygon fill="#4D4D4D" points="703.2,331.1 689.4,331.1 689.4,342 703.2,342 716.9,342 716.9,331.1 				"/>
			</g>
		</g>
		<g>
			<path fill="#F2F2F2" d="M364.2,90.3c0-6.8,5.5-12.2,12.2-12.2c0.2,0,0.5,0,0.7,0V57.1H82.4v21.2c0.8-0.2,1.6-0.2,2.4-0.2
				c6.8,0,12.2,5.5,12.2,12.2s-5.5,12.2-12.2,12.2c-0.8,0-1.6-0.1-2.4-0.2v383c0,15.1,12.2,27.4,27.4,27.4h240
				c15.1,0,27.4-12.2,27.4-27.4V102.5c-0.2,0-0.5,0-0.7,0C369.6,102.5,364.2,97,364.2,90.3z M121.3,102.5c-6.8,0-12.2-5.5-12.2-12.2
				S114.5,78,121.3,78c6.8,0,12.2,5.5,12.2,12.2S128,102.5,121.3,102.5z M157.7,102.5c-6.8,0-12.2-5.5-12.2-12.2S151,78,157.7,78
				c6.8,0,12.2,5.5,12.2,12.2S164.5,102.5,157.7,102.5z M194.2,102.5c-6.8,0-12.2-5.5-12.2-12.2S187.4,78,194.2,78
				c6.8,0,12.2,5.5,12.2,12.2S200.9,102.5,194.2,102.5z M230.6,102.5c-6.8,0-12.2-5.5-12.2-12.2S223.9,78,230.6,78
				c6.8,0,12.2,5.5,12.2,12.2S237.4,102.5,230.6,102.5z M267.1,102.5c-6.8,0-12.2-5.5-12.2-12.2S260.3,78,267.1,78
				c6.8,0,12.2,5.5,12.2,12.2S273.8,102.5,267.1,102.5z M303.5,102.5c-6.8,0-12.2-5.5-12.2-12.2S296.7,78,303.5,78
				c6.8,0,12.2,5.5,12.2,12.2S310.3,102.5,303.5,102.5z M340,102.5c-6.8,0-12.2-5.5-12.2-12.2S333.2,78,340,78
				c6.8,0,12.2,5.5,12.2,12.2S346.7,102.5,340,102.5z"/>
			<g>
				<rect x="97.1" y="142.3" fill="#A7A9AC" width="265.3" height="2.8"/>
			</g>
			<g>
				<rect x="97.1" y="175.5" fill="#A7A9AC" width="265.3" height="2.8"/>
			</g>
			<g>
				<rect x="97.1" y="208.6" fill="#A7A9AC" width="265.3" height="2.8"/>
			</g>
			<g>
				<rect x="97.1" y="241.8" fill="#A7A9AC" width="265.3" height="2.8"/>
			</g>
			<g>
				<rect x="97.1" y="274.9" fill="#A7A9AC" width="265.3" height="2.8"/>
			</g>
			<g>
				<rect x="97.1" y="308.1" fill="#A7A9AC" width="265.3" height="2.8"/>
			</g>
			<g>
				<rect x="97.1" y="341.3" fill="#A7A9AC" width="265.3" height="2.8"/>
			</g>
			<g>
				<rect x="97.1" y="374.4" fill="#A7A9AC" width="265.3" height="2.8"/>
			</g>
			<g>
				<rect x="97.1" y="407.6" fill="#A7A9AC" width="265.3" height="2.8"/>
			</g>
			<g>
				<rect x="97.1" y="440.7" fill="#A7A9AC" width="265.3" height="2.8"/>
			</g>
			<g>
				<rect x="97.1" y="473.9" fill="#A7A9AC" width="265.3" height="2.8"/>
			</g>
		</g>
		<polygon fill="#F8A727" points="669,222.1 478,222.1 478,155.1 669,155.1 705.9,188.6 		"/>
		<polygon fill="#808285" points="669,132.5 478,124.1 478,65.5 669,65.5 705.9,99 		"/>
		<polygon fill="#F391B2" points="669,124.1 478,124.1 478,57.1 669,57.1 705.9,90.6 		"/>
		<polygon fill="#808285" points="932.4,230.5 741.4,222.1 741.4,163.5 932.4,163.5 969.4,197 		"/>
		<polygon fill="#46B6AC" points="932.4,222.1 741.4,222.1 741.4,155.1 932.4,155.1 969.4,188.6 		"/>
		<polygon fill="#808285" points="932.4,132.5 741.4,124.1 741.4,65.5 932.4,65.5 969.4,99 		"/>
		<polygon fill="#86D2F4" points="932.4,124.1 741.4,124.1 741.4,57.1 932.4,57.1 969.4,90.6 		"/>
		<polygon fill="#808285" points="1071.3,71.2 1072.3,113.9 1075.7,255.8 1217.8,259.9 1316.7,219.2 1312.2,106.4 1310.2,59.4 		"/>
		<g>
			<g>
				<rect x="1063" y="59.4" fill="#785CA7" width="247.5" height="44.7"/>
				<polygon fill="#9375B5" points="1063,104.1 1063,250.8 1213.7,250.8 1310.5,210.2 1310.5,104.1 				"/>
			</g>
			<polygon fill="#B09DCA" points="1213.7,250.8 1310.5,210.2 1213.7,210.2 			"/>
		</g>
		<polygon fill="#808285" points="1063,287.3 1060.8,332.8 1057.1,409.1 1090.3,486.7 1209.9,482 1300.8,478.4 1300.8,438.8 
			1300.8,337.9 1300.8,296.7 		"/>
		<g>
			<rect x="1063" y="287.3" fill="#5AC2EF" width="247.5" height="44.7"/>
			<g>
				<polygon fill="#86D3F5" points="1063,332 1063,405.1 1097,478.7 1213.7,478.7 1310.5,478.7 1310.5,438.1 1310.5,332 				"/>
				<polygon fill="#B8E5F7" points="1097,418.4 1063,405.1 1097,478.7 				"/>
			</g>
		</g>
		<g>
			<path fill="#E84E3E" d="M340,664.7c0-60.9-49.4-110.2-110.2-110.2c-60.9,0-110.2,49.4-110.2,110.2c0,57.8,44.5,105.2,101,109.9
				l118.7-97.2C339.8,673.2,340,669,340,664.7z"/>
			<path fill="#F26C60" d="M339.3,677.8c-3-0.3-6.1-0.4-9.2-0.4c-56.6,0-103.2,42.7-109.5,97.6L339.3,677.8z"/>
		</g>
		<g>
			<path fill="#CFDB39" d="M311.8,826.1l-180.4,57.3c-1.9,8.1-2.9,16.6-2.9,25.3c0,57.8,44.5,105.2,101,109.9c3,0.3,6.1,0.4,9.2,0.4
				c56.6,0,103.2-42.7,109.5-97.6c0.5-4.2,0.7-8.4,0.7-12.7C349,875.8,334.6,846.3,311.8,826.1z"/>
			<path fill="#BFCC34" d="M238.8,798.4c-52.2,0-95.9,36.3-107.3,84.9l180.4-57.3C292.4,808.8,266.8,798.4,238.8,798.4z"/>
		</g>
		<g>
			
				<rect x="1024" y="561.1" transform="matrix(0.9972 -7.480906e-02 7.480906e-02 0.9972 -42.9231 88.5448)" fill="#7ECAC2" width="273" height="112.3"/>
			<polygon fill="#71BCB3" points="1294.2,776.1 1022,796.5 1028.6,683.4 1300.8,663 			"/>
			<polygon fill="#7ECAC2" points="1317.6,886.9 1045.4,907.3 1022,796.5 1294.2,776.1 			"/>
			<polygon fill="#71BCB3" points="1311,999.9 1038.8,1020.4 1045.4,907.3 1317.6,886.9 			"/>
		</g>
		<g>
			<polygon fill="#F8A992" points="556.5,1002 471.5,1015 471.5,885.2 556.5,872.2 			"/>
			<polygon fill="#F58A68" points="556.5,1002 641.5,1015 641.5,885.2 556.5,872.2 			"/>
			<polygon fill="#F58A68" points="726.5,1002 811.5,1015 811.5,885.2 726.5,872.2 			"/>
			<polygon fill="#F8A992" points="896.5,1002 811.5,1015 811.5,885.2 896.5,872.2 			"/>
			<polygon fill="#F8A992" points="726.5,1002 641.5,1015 641.5,885.2 726.5,872.2 			"/>
		</g>
	</g>
</g>
</svg>
