<svg height="460pt" viewBox="-20 0 460 460.32" width="460pt" xmlns="http://www.w3.org/2000/svg"><path d="m320.160156 152.175781v-120.175781c0-17.671875-14.328125-32-32-32h-256c-17.671875 0-32 14.328125-32 32v352c0 17.671875 14.328125 32 32 32h31.199219c125.34375-41.648438 228.144531-157.953125 256.800781-263.824219zm0 0" fill="#2488ff"/><path d="m63.359375 416h224.800781c17.671875 0 32-14.328125 32-32v-231.824219c-28.65625 105.871094-131.457031 222.175781-256.800781 263.824219zm0 0" fill="#006df0"/><path d="m360.726562 400.566406c-6.511718 6.511719-22.628906-.734375-31.550781 2.449219l57.304688 57.304687 5.679687-28.320312 28.320313-5.679688-57.304688-57.304687c-3.183593 8.921875 4.0625 25.039063-2.449219 31.550781zm0 0" fill="#d80027"/><path d="m247.59375 400.566406c-6.515625-6.511718.734375-22.636718-2.449219-31.550781l-57.304687 57.304687 28.320312 5.679688 5.679688 28.320312 57.304687-57.304687c-8.921875-3.183594-25.039062 4.0625-31.550781-2.449219zm0 0" fill="#d80027"/><path d="m344.160156 344c0 22.089844-17.910156 40-40 40s-40-17.910156-40-40 17.910156-40 40-40 40 17.910156 40 40zm0 0" fill="#f7941d"/><path d="m360.726562 287.433594c-6.628906-6.632813-23.269531 1.070312-32.070312-2.578125-8.496094-3.519531-14.734375-20.855469-24.496094-20.855469-9.761718 0-16 17.335938-24.496094 20.855469-8.800781 3.648437-25.441406-4.054688-32.070312 2.578125-6.632812 6.628906 1.070312 23.269531-2.578125 32.070312-3.519531 8.496094-20.855469 14.734375-20.855469 24.496094s17.335938 16 20.855469 24.496094c.0625.160156.0625.359375.128906.519531l.054688-.054687-.054688.054687c3.199219 8.914063-4.066406 25.039063 2.449219 31.550781 6.511719 6.511719 22.628906-.734375 31.550781 2.449219l.054688-.054687-.054688.054687c.160157.0625.359375.0625.519531.128906 8.496094 3.519531 14.734376 20.855469 24.496094 20.855469 9.761719 0 16-17.335938 24.496094-20.855469.160156-.066406.359375-.066406.519531-.128906l-.054687-.054687.054687.054687c8.921875-3.199219 25.039063 4.0625 31.550781-2.449219 6.511719-6.511718-.734374-22.628906 2.449219-31.550781l-.054687-.054687.054687.054687c.0625-.160156.0625-.359375.128907-.519531 3.519531-8.496094 20.855468-14.734375 20.855468-24.496094s-17.335937-16-20.855468-24.496094c-3.648438-8.800781 4.054687-25.441406-2.578126-32.070312zm-56.566406 96.566406c-22.089844 0-40-17.910156-40-40s17.910156-40 40-40 40 17.910156 40 40-17.910156 40-40 40zm0 0" fill="#ffcd00"/><g fill="#f1f2f2"><path d="m40.160156 200h240v16h-240zm0 0"/><path d="m40.160156 248h224v16h-224zm0 0"/><path d="m40.160156 296h176v16h-176zm0 0"/><path d="m40.160156 152h240v16h-240zm0 0"/><path d="m40.160156 104h240v16h-240zm0 0"/></g></svg>