<svg height="464pt" viewBox="-4 0 464 464" width="464pt" xmlns="http://www.w3.org/2000/svg"><path d="m376 144v-112h-32v400l32 16zm0 0" fill="#2488ff"/><path d="m376 32v416l32 16v-432zm0 0" fill="#ffda44"/><path d="m56 32v432l32-16v-416zm0 0" fill="#ffcd00"/><path d="m88 32v416l32-16v-400zm0 0" fill="#006df0"/><path d="m32 0c-17.671875 0-32 14.328125-32 32s14.328125 32 32 32h24v-32h176v-32zm0 0" fill="#a7a9ac"/><path d="m424 0h-192v32h176v32h16c17.671875 0 32-14.328125 32-32s-14.328125-32-32-32zm0 0" fill="#bcbec0"/><path d="m271.246094 229.847656c.332031-2.015625 1.433594-3.820312 3.074218-5.039062l36.246094-26.335938c3.027344-2.152344 4.121094-6.140625 2.617188-9.535156l-81.183594 27.0625zm0 0" fill="#fbb040"/><path d="m232 130.335938c-3.480469-.050782-6.578125 2.203124-7.609375 5.527343l-13.847656 42.609375c-.492188 1.488282-1.421875 2.800782-2.664063 3.757813l24.121094 33.769531zm0 0" fill="#f7941d"/><path d="m256.527344 182.558594c-1.445313-.984375-2.523438-2.421875-3.070313-4.085938l-13.847656-42.609375c-1.03125-3.324219-4.128906-5.578125-7.609375-5.527343v85.664062zm0 0" fill="#fbb040"/><path d="m207.878906 182.230469c-1.398437 1.132812-3.140625 1.757812-4.941406 1.769531h-44.800781c-3.230469-.035156-6.140625 1.929688-7.320313 4.9375l81.183594 27.0625zm0 0" fill="#fbb040"/><g fill="#f7941d"><path d="m313.183594 188.9375c-1.179688-3.007812-4.089844-4.972656-7.320313-4.9375h-44.800781c-1.621094-.003906-3.207031-.507812-4.535156-1.441406l-24.527344 33.441406zm0 0"/><path d="m180.710938 284.390625c2.722656 2.871094 7.15625 3.261719 10.335937.914063l36.25-26.335938c1.367187-.996094 3.011719-1.527344 4.703125-1.527344v-41.441406zm0 0"/><path d="m150.816406 188.9375c-1.503906 3.394531-.410156 7.382812 2.617188 9.535156l36.246094 26.328125c1.640624 1.21875 2.742187 3.023438 3.074218 5.039063l39.246094-13.839844zm0 0"/><path d="m232 216 50.136719 69.414062c2.980469-1.953124 4.265625-5.675781 3.121093-9.054687l-13.84375-42.605469c-.382812-1.269531-.441406-2.613281-.167968-3.90625zm0 0"/></g><path d="m232 257.441406c1.691406 0 3.335938.53125 4.703125 1.527344l36.25 26.335938c2.714844 2.019531 6.421875 2.066406 9.183594.109374l-50.136719-69.414062zm0 0" fill="#fbb040"/><path d="m192.753906 229.847656c.273438 1.292969.214844 2.636719-.167968 3.90625l-13.84375 42.605469c-.941407 2.824219-.175782 5.9375 1.96875 8l51.289062-68.359375zm0 0" fill="#fbb040"/><path d="m232 32v98.335938c3.480469-.050782 6.578125 2.203124 7.609375 5.527343l13.847656 42.609375c1.070313 3.296875 4.140625 5.527344 7.605469 5.527344h44.800781c3.464844 0 6.539063 2.230469 7.609375 5.527344 1.074219 3.296875-.101562 6.90625-2.90625 8.945312l-36.246094 26.328125c-2.804687 2.035157-3.976562 5.648438-2.90625 8.941407l13.84375 42.609374c1.066407 3.292969-.109374 6.902344-2.910156 8.9375-2.800781 2.035157-6.589844 2.039063-9.394531.007813l-36.25-26.335937c-1.367187-.992188-3.015625-1.523438-4.703125-1.519532v110.558594l112 64v-400zm0 0" fill="#dc1c3f"/><path d="m227.296875 258.96875-36.25 26.335938c-2.804687 2.03125-6.59375 2.027343-9.394531-.007813-2.800782-2.035156-3.976563-5.644531-2.910156-8.9375l13.84375-42.605469c1.074218-3.300781-.097657-6.914062-2.90625-8.953125l-36.246094-26.335937c-2.796875-2.039063-3.964844-5.648438-2.894532-8.9375 1.070313-3.292969 4.136719-5.523438 7.597657-5.527344h44.800781c3.464844 0 6.535156-2.230469 7.605469-5.527344l13.847656-42.609375c1.03125-3.324219 4.128906-5.578125 7.609375-5.527343v-98.335938h-112v400l112-64v-110.558594c-1.691406 0-3.335938.53125-4.703125 1.527344zm0 0" fill="#d80027"/></svg>