<svg height="464pt" viewBox="-6 0 464 464.03281" width="464pt" xmlns="http://www.w3.org/2000/svg"><path d="m435.519531 120.03125h-167.503906l-32.960937 131.921875c-1.773438 7.121094-8.179688 12.105469-15.519532 12.078125h-39.519531l-7.039063 28.082031c-1.210937 4.785157-.140624 9.859375 2.890626 13.753907 3.035156 3.890624 7.695312 6.167968 12.628906 6.164062h207.023437c7.34375.003906 13.746094-4.992188 15.527344-12.117188l40-160c1.195313-4.78125.121094-9.847656-2.910156-13.730468-3.035157-3.882813-7.6875-6.152344-12.617188-6.152344zm0 0" fill="#fbb040"/><path d="m224.015625 144.03125h152c4.417969 0 8 3.582031 8 8s-3.582031 8-8 8h-152zm0 0" fill="#f1f2f2"/><path d="m48.015625 72.03125v-12.320312c12.542969-7.238282 18.660156-22.003907 14.910156-35.992188-3.75-13.992188-16.425781-23.71875-30.910156-23.71875s-27.160156 9.726562-30.910156 23.71875c-3.746094 13.988281 2.367187 28.753906 14.910156 35.992188v404.320312h32zm0 0" fill="#d80027"/><path d="m259.535156 72.03125h-211.519531v192h171.519531c7.339844.027344 13.746094-4.957031 15.519532-12.078125l32.960937-131.921875 7.039063-28.078125c1.210937-4.785156.144531-9.859375-2.890626-13.753906-3.03125-3.894531-7.691406-6.167969-12.628906-6.167969zm0 0" fill="#f7941d"/><path d="m48.015625 72.03125h24v192h-24zm0 0" fill="#d88219"/><g fill="#f1f2f2"><path d="m232.015625 112.03125h8c4.417969 0 8-3.582031 8-8s-3.582031-8-8-8h-8c-4.417969 0-8 3.582031-8 8s3.582031 8 8 8zm0 0"/><path d="m416.015625 144.03125h-8c-4.417969 0-8 3.582031-8 8s3.582031 8 8 8h8c4.417969 0 8-3.582031 8-8s-3.582031-8-8-8zm0 0"/><path d="m48.015625 96.03125h152c4.417969 0 8 3.582031 8 8s-3.582031 8-8 8h-152zm0 0"/></g></svg>