<svg height="471pt" viewBox="-3 1 471 471.99893" width="471pt" xmlns="http://www.w3.org/2000/svg"><path d="m56.5 112v256l176 104v-360zm0 0" fill="#005fd2"/><path d="m232.5 472 176-104v-256h-176zm0 0" fill="#006df0"/><path d="m232.5 200.445312-23.25 71.554688h-.023438l23.273438 32zm0 0" fill="#f7941d"/><path d="m255.964844 272h-.21875l-23.246094-71.554688v103.554688zm0 0" fill="#fbb040"/><path d="m330.410156 272.414062.578125-.414062h-75.023437l-23.464844 32zm0 0" fill="#f7941d"/><path d="m209.226562 272h-75.214843l.34375.246094 98.144531 31.753906zm0 0" fill="#fbb040"/><path d="m270.234375 316.574219-.117187-.351563 60.292968-43.808594-97.910156 31.585938zm0 0" fill="#fbb040"/><path d="m171.683594 387.621094-.046875.152344 60.863281-44.222657v-39.550781zm0 0" fill="#f7941d"/><path d="m232.5 343.550781 60.863281 44.222657-.046875-.152344-60.816406-83.621094zm0 0" fill="#fbb040"/><path d="m232.5 304 60.816406 83.621094-23.082031-71.046875zm0 0" fill="#f7941d"/><path d="m194.796875 316.160156.085937.0625-23.199218 71.398438 60.816406-83.621094zm0 0" fill="#fbb040"/><path d="m134.355469 272.246094 60.441406 43.914062 37.703125-12.160156zm0 0" fill="#f7941d"/><path d="m344.5 152h24v24c0 4.417969 3.582031 8 8 8s8-3.582031 8-8v-32c0-4.417969-3.582031-8-8-8h-32c-4.417969 0-8 3.582031-8 8s3.582031 8 8 8zm0 0" fill="#f1f2f2"/><g fill="#003f8a"><path d="m360.5 88c-1.3125-.003906-2.605469-.328125-3.761719-.945312l-124.238281-69.992188-124.234375 69.992188c-2.523437 1.398437-5.609375 1.328124-8.066406-.183594-2.460938-1.515625-3.914063-4.234375-3.800781-7.121094.109374-2.882812 1.765624-5.484375 4.332031-6.808594l128-72c2.355469-1.253906 5.183593-1.253906 7.535156 0l128 72c3.238281 1.730469 4.882813 5.441406 3.992187 9-.890624 3.558594-4.089843 6.054688-7.757812 6.058594zm0 0"/><path d="m232.5 176c-4.417969 0-8-3.582031-8-8v-56c0-4.417969 3.582031-8 8-8s8 3.582031 8 8v56c0 4.417969-3.582031 8-8 8zm0 0"/><path d="m232.5 416c-4.417969 0-8 3.582031-8 8v43.269531l8 4.730469 8-4.730469v-43.269531c0-4.417969-3.582031-8-8-8zm0 0"/><path d="m232.5 376c-4.417969 0-8 3.582031-8 8v8c0 4.417969 3.582031 8 8 8s8-3.582031 8-8v-8c0-4.417969-3.582031-8-8-8zm0 0"/></g><path d="m232.5 72h-232l40 40h192zm0 0" fill="#bd0022"/><path d="m352.5 72h-120v40h192l40-40zm0 0" fill="#d80027"/></svg>