<svg height="459pt" viewBox="-58 0 459 459.66448" width="459pt" xmlns="http://www.w3.org/2000/svg"><path d="m190.578125 372.558594-.183594-.09375c0 .105468.0625.136718.183594.09375zm0 0" fill="#d80027"/><path d="m183.996094 286.457031-100 173.207031-21.601563-58.640624 79.855469-138.320313c20.449219 11.898437 40.945312 23.714844 41.746094 23.753906zm0 0" fill="#bd0022"/><path d="m142.28125 262.703125-79.886719 138.320313-61.535156 10.640624 100-173.207031s20.6875 12.167969 41.421875 24.246094zm0 0" fill="#d80027"/><path d="m159.996094 286.457031 100 173.207031 21.597656-58.640624-79.886719-138.320313c-20.417969 11.898437-40.914062 23.714844-41.710937 23.753906zm0 0" fill="#bd0022"/><path d="m201.707031 262.703125 79.886719 138.320313 61.601562 10.640624-100-173.207031s-20.753906 12.167969-41.488281 24.246094zm0 0" fill="#d80027"/><path d="m342.632812 102.703125c-8.160156-20.078125-59.277343-11.839844-73.597656-26.398437-14.882812-15.039063-5.921875-65.839844-25.121094-74-19.199218-8.160157-49.601562 33.519531-70.71875 33.359374-.394531 0-.800781-.121093-1.199218-.160156v272.320313c20.421875 1.777343 49.183594 42.398437 68.957031 34.480469 20.082031-8.160157 11.839844-59.28125 26.402344-73.601563 15.039062-14.878906 65.839843-5.917969 74-25.117187 8.160156-19.203126-33.519531-49.601563-33.359375-70.722657.238281-20.480469 42.71875-50 34.636718-70.160156zm0 0" fill="#ffcd00"/><path d="m103.035156 1.023438c-20.082031 8.160156-11.839844 59.28125-26.402344 73.601562-15.039062 14.878906-65.839843 5.917969-74 25.121094-8.160156 19.199218 33.519532 49.597656 33.363282 70.71875-.242188 20.480468-42.722656 50-34.640625 70.160156 8.078125 20.160156 59.277343 11.839844 73.597656 26.398438 14.882813 15.042968 5.921875 65.839843 25.121094 74 19.199219 8.160156 49.601562-33.519532 70.71875-33.359376.394531 0 .800781.121094 1.203125.160157v-272.320313c-20.425782-1.777344-49.1875-42.40625-68.960938-34.480468zm0 0" fill="#dfb300"/><path d="m171.996094 67.664062v208c57.4375 0 104-46.5625 104-104s-46.5625-104-104-104zm0 0" fill="#2488ff"/><path d="m67.996094 171.664062c0 57.4375 46.558594 104 104 104v-208c-57.441406 0-104 46.5625-104 104zm0 0" fill="#2488ff"/><path d="m201.875 182.207031c.382812-1.917969 1.46875-3.628906 3.039062-4.796875l21.023438-15.28125c2.972656-2.105468 4.09375-5.984375 2.703125-9.351562l-56.644531 18.886718zm0 0" fill="#fbb040"/><path d="m171.996094 111.886719c-3.484375-.046875-6.582032 2.203125-7.609375 5.53125l-8 24.71875c-.542969 1.648437-1.609375 3.074219-3.03125 4.0625l18.640625 25.464843zm0 0" fill="#f7941d"/><path d="m190.667969 146.199219c-1.425781-.988281-2.492188-2.414063-3.035157-4.0625l-8-24.71875c-1.03125-3.339844-4.144531-5.59375-7.636718-5.53125v59.777343zm0 0" fill="#fbb040"/><path d="m153.320312 146.199219c-1.335937.945312-2.933593 1.457031-4.574218 1.464843h-25.992188c-4.105468-.027343-7.546875 3.109376-7.894531 7.199219l57.136719 16.800781zm0 0" fill="#fbb040"/><path d="m228.640625 152.785156c-1.128906-3.109375-4.101563-5.160156-7.40625-5.121094h-25.992187c-1.640626-.007812-3.238282-.519531-4.574219-1.464843l-18.671875 25.464843zm0 0" fill="#f7941d"/><path d="m171.996094 203.214844c1.6875 0 3.335937.535156 4.703125 1.53125l21.023437 15.277344c2.359375 1.757812 5.511719 2.019531 8.128906.671874l-33.855468-49.03125zm0 0" fill="#fbb040"/><g fill="#f7941d"><path d="m114.859375 154.863281c-.363281 2.832031.867187 5.632813 3.199219 7.28125l21.023437 15.28125c1.570313 1.167969 2.65625 2.878907 3.039063 4.796875l29.875-10.558594zm0 0"/><path d="m136.203125 219.382812c2.75 2.640626 7 2.910157 10.0625.640626l21.023437-15.277344c1.367188-.996094 3.015626-1.53125 4.707032-1.53125v-31.550782zm0 0"/><path d="m171.996094 171.664062 33.855468 49.03125c3.640626-1.660156 5.441407-5.800781 4.183594-9.597656l-8-24.722656c-.410156-1.347656-.453125-2.78125-.128906-4.152344zm0 0"/></g><path d="m142.113281 182.207031c.324219 1.371094.28125 2.804688-.128906 4.152344l-8 24.722656c-1 2.964844-.113281 6.246094 2.25 8.300781l35.761719-47.71875zm0 0" fill="#fbb040"/></svg>