<svg height="464pt" viewBox="-31 0 463 464" width="464pt" xmlns="http://www.w3.org/2000/svg"><path d="m114.355469 288c0 17.671875-14.328125 32-32 32-17.675781 0-32-14.328125-32-32s14.324219-32 32-32c17.671875 0 32 14.328125 32 32zm0 0" fill="#d1d3d4"/><path d="m354.355469 280c0 17.671875-14.328125 32-32 32-17.675781 0-32-14.328125-32-32s14.324219-32 32-32c17.671875 0 32 14.328125 32 32zm0 0" fill="#d1d3d4"/><path d="m274.355469 0v246.6875c15 7.117188 31.394531 10.800781 48 10.792969v-257.480469zm0 0" fill="#006df0"/><path d="m370.355469 0h-48v257.480469c29.675781-.019531 58.144531-11.765625 79.199219-32.679688l.800781-.800781v-224zm0 0" fill="#1c7df2"/><path d="m34.355469 0v233.601562l38 30.398438 10 8v-272zm0 0" fill="#d80027"/><path d="m130.355469 0h-48v272l10-8 38-30.398438 32-25.601562v-208zm0 0" fill="#dc1c3f"/><path d="m2.355469 0v208l32 25.601562v-233.601562zm0 0" fill="#ebbf00"/><path d="m162.355469 0v208l-32 25.601562v-233.601562zm0 0" fill="#ffcd00"/><path d="m242.355469 0v224l.796875.800781c9.066406 9.035157 19.621094 16.441407 31.203125 21.886719v-246.6875zm0 0" fill="#ff9811"/><path d="m402.355469 0v224l-.800781.800781c-9.0625 9.035157-19.617188 16.441407-31.199219 21.886719v-246.6875zm0 0" fill="#fbb040"/><path d="m322.355469 304v32c26.507812 0 48 21.492188 48 48s-21.492188 48-48 48v32c44.179687 0 80-35.816406 80-80s-35.820313-80-80-80zm0 0" fill="#ffe371"/><path d="m274.355469 384c.023437-26.5 21.5-47.972656 48-48v-32c-44.183594 0-80 35.816406-80 80s35.816406 80 80 80v-32c-26.5-.027344-47.976563-21.5-48-48zm0 0" fill="#ffcd00"/><path d="m57.976562 358.480469c-1.363281.988281-3.003906 1.519531-4.6875 1.519531h-44.800781c-3.226562-.035156-6.140625 1.929688-7.316406 4.9375l81.183594 27.0625zm0 0" fill="#fbb040"/><path d="m82.355469 306.335938c-3.484375-.050782-6.582031 2.203124-7.609375 5.527343l-13.847656 42.609375c-.523438 1.609375-1.546876 3.011719-2.921876 4l24.378907 33.527344zm0 0" fill="#f7941d"/><path d="m107.738281 359c-1.851562-.9375-3.261719-2.5625-3.929687-4.527344l-13.847656-42.609375c-1.027344-3.324219-4.125-5.578125-7.605469-5.527343v85.664062zm0 0" fill="#fbb040"/><path d="m163.539062 364.9375c-1.179687-3.007812-4.09375-4.972656-7.320312-4.9375h-44.800781c-1.289063-.027344-2.554688-.371094-3.679688-1l-25.382812 33zm0 0" fill="#f7941d"/><path d="m122.066406 404.214844c.535156-1.355469 1.441406-2.535156 2.609375-3.40625l36.246094-26.335938c3.027344-2.152344 4.121094-6.140625 2.617187-9.535156l-81.183593 27.0625zm0 0" fill="#fbb040"/><path d="m31.730469 461.039062c2.773437 2.3125 6.773437 2.421876 9.671875.265626l36.246094-26.335938c1.367187-.996094 3.015624-1.527344 4.707031-1.527344v-41.441406zm0 0" fill="#f7941d"/><path d="m82.355469 433.441406c1.6875 0 3.335937.53125 4.703125 1.527344l36.246094 26.335938c2.582031 1.921874 6.085937 2.054687 8.800781.328124l-49.75-69.632812zm0 0" fill="#fbb040"/><path d="m135.609375 452.359375-13.839844-42.605469c-.570312-1.824218-.464843-3.789062.296875-5.539062l-39.710937-12.214844 49.734375 69.601562c3.21875-1.855468 4.691406-5.714843 3.519531-9.242187zm0 0" fill="#f7941d"/><path d="m1.171875 364.9375c-1.507813 3.394531-.414063 7.382812 2.613281 9.535156l36.25 26.328125c1.21875.910157 2.152344 2.148438 2.6875 3.574219l39.632813-12.375zm0 0" fill="#f7941d"/><path d="m42.722656 404.382812c.699219 1.710938.773438 3.609376.214844 5.371094l-13.839844 42.605469c-1.066406 3.160156-.011718 6.648437 2.632813 8.679687l50.625-69.039062zm0 0" fill="#fbb040"/><path d="m274.355469 384c.023437 26.5 21.5 47.972656 48 48v-96c-26.5.027344-47.976563 21.5-48 48zm0 0" fill="#d80027"/><path d="m322.355469 336v96c26.507812 0 48-21.492188 48-48s-21.492188-48-48-48zm0 0" fill="#dc1c3f"/><path d="m98.355469 288c0 8.835938-7.164063 16-16 16-8.835938 0-16-7.164062-16-16s7.164062-16 16-16c8.835937 0 16 7.164062 16 16zm0 0" fill="#a7a9ac"/><path d="m338.355469 280c0 8.835938-7.164063 16-16 16-8.835938 0-16-7.164062-16-16s7.164062-16 16-16c8.835937 0 16 7.164062 16 16zm0 0" fill="#a7a9ac"/><g fill="#f1f2f2"><path d="m370.355469 56c-4.417969 0-8 3.582031-8 8v8c0 4.417969 3.582031 8 8 8s8-3.582031 8-8v-8c0-4.417969-3.582031-8-8-8zm0 0"/><path d="m130.355469 80c4.417969 0 8-3.582031 8-8v-8c0-4.417969-3.582031-8-8-8s-8 3.582031-8 8v8c0 4.417969 3.582031 8 8 8zm0 0"/><path d="m122.355469 0h16v40c0 4.417969-3.582031 8-8 8s-8-3.582031-8-8zm0 0"/><path d="m362.355469 0h16v40c0 4.417969-3.582031 8-8 8s-8-3.582031-8-8zm0 0"/></g></svg>