<svg height="472pt" viewBox="-24 0 472 472" width="472pt" xmlns="http://www.w3.org/2000/svg"><path d="m208 32v80h32v-112c-17.671875 0-32 14.328125-32 32zm0 0" fill="#0052b4"/><path d="m240 0v112h32v-80c0-17.671875 14.328125-32 32-32zm0 0" fill="#006df0"/><path d="m272 294v-62h-32v56c10.945312.003906 21.796875 2.039062 32 6zm0 0" fill="#006df0"/><path d="m208 232v62c10.203125-3.960938 21.054688-5.996094 32-6v-56zm0 0" fill="#0052b4"/><path d="m208 294c-39.460938 15.367188-62.378906 56.664062-54.542969 98.277344 7.832031 41.617187 44.195313 71.753906 86.542969 71.722656v-176c-10.945312.003906-21.796875 2.039062-32 6zm0 0" fill="#ffcd00"/><path d="m272 294c-10.203125-3.960938-21.054688-5.996094-32-6v176c42.347656.03125 78.710938-30.105469 86.542969-71.722656 7.835937-41.613282-15.082031-82.910156-54.542969-98.277344zm0 0" fill="#ffd839"/><path d="m0 128v96h136.878906c9.9375.007812 19.738282 2.308594 28.640625 6.71875l4.960938 2.5625c8.902343 4.410156 18.703125 6.710938 28.640625 6.71875h64.878906c8.835938 0 16-7.164062 16-16s-7.164062-16-16-16h8c8.835938 0 16-7.164062 16-16s-7.164062-16-16-16h8c8.835938 0 16-7.164062 16-16s-7.164062-16-16-16h-8c8.835938 0 16-7.164062 16-16s-7.164062-16-16-16h-64v-32h-19.039062c-3.257813-.027344-6.46875.742188-9.359376 2.238281-7.109374 3.53125-11.605468 10.785157-11.601562 18.722657v11.039062c-.027344 8.824219-7.175781 15.972656-16 16zm0 0" fill="#ffcd00"/><path d="m320 24h-46.871094c-.714844 2.609375-1.09375 5.296875-1.128906 8v16h32c8.835938 0 16 7.164062 16 16v216.617188l-16 31.382812h48v-256c0-17.671875-14.328125-32-32-32zm0 0" fill="#57a4ff"/><path d="m384 56c0-30.929688-25.070312-56-56-56h-24c-14.558594.0273438-27.257812 9.898438-30.871094 24h46.871094c17.671875 0 32 14.328125 32 32v256h32zm0 0" fill="#6aaeff"/><path d="m184 376c0 30.929688 25.070312 56 56 56v-112c-30.929688 0-56 25.070312-56 56zm0 0" fill="#d80027"/><path d="m240 320v112c30.929688 0 56-25.070312 56-56s-25.070312-56-56-56zm0 0" fill="#dc1c3f"/><g fill="#ebbf00"><path d="m240 144h32c5.691406-.015625 10.945312-3.066406 13.785156-8h-45.785156zm0 0"/><path d="m240 176h40c5.691406-.015625 10.945312-3.066406 13.785156-8h-53.785156zm0 0"/><path d="m240 208h32c5.691406-.015625 10.945312-3.066406 13.785156-8h-45.785156zm0 0"/><path d="m240 240h24c5.691406-.015625 10.945312-3.066406 13.785156-8h-37.785156zm0 0"/><path d="m200 80h8v32h-8zm0 0"/></g><path d="m240 416c4.417969 0 8-3.582031 8-8v-64c0-3.234375-1.949219-6.152344-4.9375-7.390625s-6.429688-.550781-8.71875 1.734375l-16 16c-3.03125 3.140625-2.988281 8.128906.097656 11.214844 3.085938 3.085937 8.074219 3.128906 11.214844.097656l2.34375-2.34375v44.6875c0 4.417969 3.582031 8 8 8zm0 0" fill="#ff9811"/><path d="m392 376h16v16h-16zm0 0" fill="#fbb040"/><path d="m392 408h16v16h-16zm0 0" fill="#fbb040"/><path d="m408 392h16v16h-16zm0 0" fill="#fbb040"/><path d="m376 392h16v16h-16zm0 0" fill="#fbb040"/><path d="m64 280h16v16h-16zm0 0" fill="#ef4136"/><path d="m64 312h16v16h-16zm0 0" fill="#ef4136"/><path d="m80 296h16v16h-16zm0 0" fill="#ef4136"/><path d="m48 296h16v16h-16zm0 0" fill="#ef4136"/><path d="m96 424h16v16h-16zm0 0" fill="#f7941d"/><path d="m96 456h16v16h-16zm0 0" fill="#f7941d"/><path d="m112 440h16v16h-16zm0 0" fill="#f7941d"/><path d="m80 440h16v16h-16zm0 0" fill="#f7941d"/></svg>