<svg height="464pt" viewBox="0 0 464 464" width="464pt" xmlns="http://www.w3.org/2000/svg"><path d="m311.761719 273.359375c-21.042969-21.359375-49.777344-33.378906-79.761719-33.359375v224c45.160156.003906 85.902344-27.113281 103.332031-68.773438 17.429688-41.660156 8.136719-89.710937-23.570312-121.867187zm0 0" fill="#ffde55"/><path d="m152.238281 273.359375c-31.707031 32.15625-41 80.207031-23.570312 121.867187 17.429687 41.660157 58.171875 68.777344 103.332031 68.773438v-224c-29.984375-.019531-58.71875 12-79.761719 33.359375zm0 0" fill="#ffcd00"/><path d="m152 352c0 44.183594 35.816406 80 80 80v-160c-44.183594 0-80 35.816406-80 80zm0 0" fill="#d80027"/><path d="m232 272v160c44.183594 0 80-35.816406 80-80s-35.816406-80-80-80zm0 0" fill="#dc1c3f"/><path d="m232 306.007812c-2.925781-.050781-5.535156 1.835938-6.398438 4.632813l-6.738281 20.726563c-.394531 1.152343-1.101562 2.175781-2.039062 2.953124l15.175781 17.679688zm0 0" fill="#f7941d"/><path d="m246.976562 334.152344c-.851562-.753906-1.492187-1.710938-1.863281-2.785156l-6.714843-20.726563c-.863282-2.796875-3.472657-4.683594-6.398438-4.632813v45.992188zm0 0" fill="#fbb040"/><path d="m257.390625 363.839844c.445313-1.15625 1.210937-2.164063 2.203125-2.902344l17.597656-12.800781c2.144532-1.519531 3.15625-4.183594 2.5625-6.746094l-47.753906 10.609375zm0 0" fill="#fbb040"/><path d="m279.785156 341.382812c-.574218-3.136718-3.316406-5.40625-6.503906-5.382812h-21.792969c-1.683593-.019531-3.296875-.679688-4.511719-1.847656l-14.976562 17.847656zm0 0" fill="#f7941d"/><path d="m216.847656 334.320312c-1.195312 1.066407-2.734375 1.664063-4.335937 1.679688h-21.792969c-2.972656-.035156-5.601562 1.933594-6.398438 4.800781l47.679688 11.199219zm0 0" fill="#fbb040"/><path d="m184.320312 340.800781c-.875 2.722657.121094 5.695313 2.457032 7.34375l17.597656 12.800781c1.019531.761719 1.800781 1.800782 2.25 2.992188l25.375-11.9375zm0 0" fill="#f7941d"/><path d="m232 382.566406c1.417969.003906 2.800781.453125 3.945312 1.289063l17.597657 12.800781c2.417969 1.796875 5.75 1.71875 8.082031-.191406l-29.625-44.464844zm0 0" fill="#fbb040"/><path d="m232 352 29.648438 44.472656c2.242187-1.703125 3.144531-4.648437 2.238281-7.3125l-6.726563-20.71875c-.476562-1.511718-.390625-3.144531.230469-4.601562zm0 0" fill="#f7941d"/><path d="m202.960938 396.878906c2.289062 1.5 5.269531 1.414063 7.472656-.214844l17.597656-12.800781c1.152344-.84375 2.542969-1.296875 3.96875-1.296875v-30.566406zm0 0" fill="#f7941d"/><path d="m206.65625 363.929688c.589844 1.433593.652344 3.03125.183594 4.511718l-6.726563 20.71875c-.988281 2.921875.199219 6.136719 2.847657 7.71875l29.039062-44.878906zm0 0" fill="#fbb040"/><path d="m408 0h-352l29.335938 40h293.328124zm0 0" fill="#00489e"/><path d="m85.335938 40 29.328124 40h234.671876l29.328124-40zm0 0" fill="#0052b4"/><path d="m464 57.121094-26.535156-27.074219-163.609375 218.144531c14.21875 5.71875 27.117187 14.285156 37.90625 25.167969zm0 0" fill="#3c95ff"/><path d="m408 0-176 240c14.347656.007812 28.5625 2.792969 41.855469 8.191406l163.609375-218.144531zm0 0" fill="#2488ff"/><path d="m0 57.121094 152.238281 216.238281c10.789063-10.882813 23.6875-19.449219 37.90625-25.167969l-163.609375-218.144531zm0 0" fill="#2077df"/><path d="m56 0-29.464844 30.046875 163.609375 218.144531c13.292969-5.398437 27.507813-8.183594 41.855469-8.191406zm0 0" fill="#3986e3"/></svg>