<svg height="464pt" viewBox="0 -38 464 464" width="464pt" xmlns="http://www.w3.org/2000/svg"><path d="m464 223.601562h-464l48 64h368zm0 0" fill="#d80027"/><path d="m48 287.601562-48 64h464l-48-64zm0 0" fill="#bd0022"/><g fill="#fbb040"><path d="m175.59375 131.050781c-2.90625 2.859375-6.800781 4.488281-10.875 4.550781h-119.359375c-6.699219-.097656-12.714844 4.085938-14.960937 10.398438l201.601562 61.601562zm0 0"/><path d="m289.601562 132.25c-2.582031-1.945312-4.511718-4.625-5.539062-7.6875l-36.863281-113.519531c-2.0625-6.640625-8.246094-11.1328128-15.199219-11.042969v207.601562zm0 0"/><path d="m326.398438 241.3125c1.09375-2.609375 2.863281-4.886719 5.121093-6.589844l96.558594-70.160156c5.21875-3.707031 7.652344-10.21875 6.144531-16.441406l-202.222656 59.480468zm0 0"/></g><path d="m434.222656 148.121094c-1.535156-7.359375-8.0625-12.605469-15.582031-12.519532h-119.359375c-3.503906-.019531-6.902344-1.199218-9.664062-3.351562l-57.617188 75.351562zm0 0" fill="#f79520"/><path d="m232 0c-6.953125-.0898438-13.136719 4.402344-15.199219 11.042969l-36.878906 113.519531c-.882813 2.488281-2.367187 4.71875-4.328125 6.488281l56.40625 76.550781zm0 0" fill="#f79520"/><path d="m232 207.601562 123.832031 176.902344c6.277344-3.796875 9.074219-11.445312 6.726563-18.398437l-36.878906-113.542969c-1.167969-3.710938-.910157-7.71875.71875-11.25zm0 0" fill="#f79520"/><path d="m232 310.722656c3.398438.003906 6.707031 1.097656 9.441406 3.117188l96.480469 70.082031c5.253906 3.933594 12.40625 4.164063 17.910156.582031l-123.832031-176.902344zm0 0" fill="#fbb040"/><path d="m138.441406 243.511719c.855469 2.964843.8125 6.113281-.121094 9.050781l-36.878906 113.519531c-2.199218 6.476563.070313 13.628907 5.597656 17.65625l124.960938-176.136719zm0 0" fill="#fbb040"/><path d="m30.398438 146c-2.628907 6.71875-.359376 14.367188 5.511718 18.5625l96.5625 70.160156c2.933594 2.164063 5.035156 5.269532 5.960938 8.796875l93.566406-35.917969zm0 0" fill="#f79520"/><path d="m107 383.738281c5.59375 4.347657 13.402344 4.421875 19.078125.183594l96.480469-70.082031c2.734375-2.019532 6.042968-3.113282 9.441406-3.117188v-103.121094zm0 0" fill="#f79520"/><path d="m240 263.601562v-104c0-3.03125-1.710938-5.800781-4.421875-7.15625-2.710937-1.355468-5.953125-1.0625-8.378906.757813l-32 24 9.601562 12.796875 19.199219-14.398438v88h-24v16h64v-16zm0 0" fill="#d80027"/></svg>