<svg height="464pt" viewBox="-93 0 464 464.78863" width="464pt" xmlns="http://www.w3.org/2000/svg"><path d="m51.550781 0h88v264h-88zm0 0" fill="#005fd2"/><path d="m139.550781 0h88v264h-88zm0 0" fill="#006df0"/><path d="m139.550781 198.558594c-6.953125-.089844-13.136719 4.402344-15.203125 11.042968l-21.878906 67.328126c-1.035156 3.207031-3.054688 6.007812-5.777344 8l42.859375 51.070312zm0 0" fill="#f7941d"/><path d="m182.421875 284.910156c-2.722656-1.988281-4.742187-4.789062-5.777344-8l-21.894531-67.308594c-2.066406-6.640624-8.25-11.132812-15.199219-11.042968v137.441406zm0 0" fill="#fbb040"/><path d="m96.675781 284.910156c-2.738281 2.007813-6.042969 3.089844-9.4375 3.089844h-70.792969c-6.925781-.105469-13.105468 4.339844-15.199218 10.945312l138.304687 37.054688zm0 0" fill="#fbb040"/><path d="m209.796875 364.929688c1.074219-2.535157 2.796875-4.742188 4.992187-6.402344l57.273438-41.597656c5.71875-4.046876 8.070312-11.386719 5.765625-18l-138.277344 37.070312zm0 0" fill="#fbb040"/><path d="m277.828125 298.945312c-2.09375-6.59375-8.257813-11.039062-15.175781-10.945312h-70.792969c-3.394531 0-6.699219-1.082031-9.4375-3.089844l-42.871094 51.089844zm0 0" fill="#f7941d"/><path d="m139.550781 417c3.378907 0 6.671875 1.070312 9.40625 3.054688l57.273438 41.601562c5.148437 3.855469 12.136719 4.15625 17.597656.75l-84.277344-126.40625zm0 0" fill="#fbb040"/><g fill="#f7941d"><path d="m1.269531 298.945312c-2.304687 6.613282.046875 13.957032 5.769531 18l57.269532 41.597657c2.363281 1.765625 4.1875 4.15625 5.265625 6.90625l69.976562-29.449219zm0 0"/><path d="m139.550781 336 84.277344 126.398438c6.476563-3.75 9.414063-11.546876 7.023437-18.636719l-21.878906-67.328125c-1.195312-3.804688-.910156-7.917969.800782-11.523438zm0 0"/><path d="m52.902344 460.6875c5.570312 5.074219 13.960937 5.484375 20 .976562l57.269531-41.601562c2.726563-1.980469 6.007813-3.054688 9.378906-3.0625v-81zm0 0"/></g><path d="m69.574219 365.464844c1.484375 3.476562 1.679687 7.371094.550781 10.984375l-21.878906 67.328125c-2.0625 6.058594-.21875 12.761718 4.65625 16.910156l86.648437-124.6875zm0 0" fill="#fbb040"/><path d="m131.550781 0h16v144h-16zm0 0" fill="#f1f2f2"/><path d="m131.550781 160h16v16h-16zm0 0" fill="#f1f2f2"/></svg>