<svg height="464pt" viewBox="-128 0 464 464" width="464pt" xmlns="http://www.w3.org/2000/svg"><path d="m145.199219 397.839844 62.800781 26.160156v-128l-62.800781 26.160156c19.734375 21.367188 19.734375 54.3125 0 75.679688zm0 0" fill="#d80027"/><path d="m62.800781 322.160156-62.800781-26.160156v128l62.800781-26.160156c-19.734375-21.367188-19.734375-54.3125 0-75.679688zm0 0" fill="#d80027"/><path d="m66.160156 401.199219-26.160156 62.800781h128l-26.160156-62.800781c-21.367188 19.734375-54.3125 19.734375-75.679688 0zm0 0" fill="#a2001d"/><path d="m141.839844 318.800781 26.160156-62.800781h-128l26.160156 62.800781c21.367188-19.734375 54.3125-19.734375 75.679688 0zm0 0" fill="#d80027"/><path d="m104 168v-136h-88v176l88 32zm0 0" fill="#005fd2"/><path d="m104 32v208l88-32v-176zm0 0" fill="#006df0"/><path d="m16 0h88v32h-88zm0 0" fill="#ebbf00"/><path d="m104 0h88v32h-88zm0 0" fill="#ffcd00"/><path d="m143.9375 320.894531c-.691406-.710937-1.351562-1.445312-2.097656-2.09375-21.367188-19.734375-54.3125-19.734375-75.679688 0-1.199218 1.039063-2.320312 2.160157-3.359375 3.359375-19.734375 21.367188-19.734375 54.3125 0 75.679688.992188 1.136718 2.0625 2.207031 3.199219 3.199218 45.488281-13.261718 77.40625-44.09375 77.9375-80.144531zm0 0" fill="#fbb040"/><path d="m145.199219 322.160156c-.390625-.449218-.847657-.839844-1.261719-1.265625-.53125 36.050781-32.449219 66.882813-77.9375 80.144531l.160156.160157c21.367188 19.734375 54.3125 19.734375 75.679688 0 1.199218-1.039063 2.320312-2.160157 3.359375-3.359375 19.734375-21.367188 19.734375-54.3125 0-75.679688zm0 0" fill="#f7941d"/><g fill="#f1f2f2"><path d="m104 152c-4.417969 0-8 3.582031-8 8v8c0 4.417969 3.582031 8 8 8s8-3.582031 8-8v-8c0-4.417969-3.582031-8-8-8zm0 0"/><path d="m128 352c-4.417969 0-8 3.582031-8 8 .054688 3.992188-1.460938 7.847656-4.214844 10.734375l-1.152344 1.144531c-2.875 2.703125-6.6875 4.179688-10.632812 4.121094-4.417969 0-8 3.582031-8 8s3.582031 8 8 8c7.957031.070312 15.636719-2.914062 21.457031-8.335938l.941407-.855468c.203124-.183594.394531-.382813.578124-.585938l.640626-.710937c5.449218-5.832031 8.449218-13.53125 8.382812-21.511719 0-4.417969-3.582031-8-8-8zm0 0"/><path d="m96 0v128c0 4.417969 3.582031 8 8 8s8-3.582031 8-8v-128zm0 0"/></g></svg>