<svg height="460pt" viewBox="-27 0 460 460.31259" width="460pt" xmlns="http://www.w3.org/2000/svg"><path d="m405.46875 406.984375-96-134.855469s-21.960938 15.199219-42.96875 29.40625l74.503906 99.304688.214844-.800782zm0 0" fill="#006df0"/><path d="m228.949219 325.640625 95.886719 134.671875 16.167968-59.457031-74.503906-99.304688c-12.09375 8.671875-24.628906 16.710938-37.550781 24.089844zm0 0" fill="#005fd2"/><path d="m260.949219 357.640625-.113281-.175781c-.070313.136718-.015626.183594.113281.175781zm0 0" fill="#006df0"/><path d="m.15625 406.984375 96-134.855469s21.960938 15.199219 42.96875 29.40625l-74.503906 99.320313-.21875-.800781zm0 0" fill="#006df0"/><path d="m176.675781 325.640625-95.886719 134.671875-16.167968-59.457031 74.503906-99.304688c12.09375 8.671875 24.628906 16.710938 37.550781 24.089844zm0 0" fill="#005fd2"/><path d="m329.851562 59.664062c-5.597656 59.761719-38.398437 113.601563-89 154.105469-1.046874 3.054688-3.804687 5.199219-7.023437 5.464844-45.5 33.367187-98.296875 55.414063-154.015625 64.316406 62.257812 67.105469 166.804688 71.949219 235 10.886719 68.199219-61.0625 74.886719-165.507812 15.039062-234.773438zm0 0" fill="#ffcd00"/><path d="m228.539062 217.746094-21.023437-15.28125c-2.804687-2.039063-6.601563-2.039063-9.40625 0l-21.023437 15.28125c-2.804688 2.035156-6.601563 2.039062-9.40625 0-2.804688-2.039063-3.980469-5.648438-2.90625-8.945313l8-24.71875c1.070312-3.296875-.105469-6.910156-2.914063-8.945312l-21.023437-15.28125c-2.808594-2.039063-3.980469-5.660157-2.902344-8.960938 1.082031-3.296875 4.167968-5.523437 7.640625-5.511719h25.988281c3.46875 0 6.539062-2.230468 7.609375-5.527343l8-24.71875c1.078125-3.28125 4.144531-5.503907 7.601563-5.503907 3.453124 0 6.519531 2.222657 7.597656 5.503907l8 24.71875c1.070312 3.296875 4.144531 5.527343 7.609375 5.527343h25.992187c3.464844 0 6.539063 2.234376 7.609375 5.527344 1.070313 3.296875-.101562 6.910156-2.90625 8.945313l-21.023437 15.28125c-2.804688 2.035156-3.980469 5.648437-2.910156 8.945312l8 24.71875c.539062 1.613281.539062 3.355469 0 4.96875 50.558593-40.511719 83.390624-94.34375 89-154.105469-39.429688-46.769531-101.175782-68.386718-161.164063-56.421874-59.992187 11.964843-108.71875 55.617187-127.1875 113.933593-18.464844 58.316407-3.746094 122.0625 38.421875 166.375 55.71875-8.902343 108.515625-30.949219 154.015625-64.316406-1.886719.164063-3.765625-.363281-5.289063-1.488281zm0 0" fill="#ffde55"/><path d="m313.269531 122.441406c-20.074219-47.273437-68.003906-76.527344-119.222656-72.777344-51.21875 3.753907-94.375 39.683594-107.34375 89.375-12.96875 49.691407 7.121094 102.128907 49.972656 130.433594 82.535157-27.351562 147.097657-80.824218 176.59375-147.03125zm0 0" fill="#dc1c3f"/><path d="m136.675781 269.472656c44.171875 29.175782 102.242188 25.960938 142.921875-7.910156 40.679688-33.871094 54.359375-90.398438 33.671875-139.121094-29.496093 66.207032-94.058593 119.679688-176.59375 147.03125zm0 0" fill="#d80027"/><path d="m183.484375 144.257812c-1.1875.710938-2.539063 1.097657-3.921875 1.125h-25.988281c-3.726563-.035156-6.957031 2.558594-7.730469 6.203126l56.96875 17.796874zm0 0" fill="#fbb040"/><path d="m202.8125 109.609375c-3.480469-.050781-6.578125 2.199219-7.609375 5.527344l-8 24.71875c-.632813 1.878906-1.949219 3.449219-3.6875 4.402343l19.296875 25.125zm0 0" fill="#f7941d"/><path d="m259.460938 150.503906c-1.132813-3.105468-4.101563-5.160156-7.410157-5.121094h-25.992187c-1.769532-.007812-3.488282-.609374-4.878906-1.710937l-18.367188 25.710937zm0 0" fill="#f7941d"/><g fill="#fbb040"><path d="m232.675781 180.046875c.359375-1.964844 1.449219-3.722656 3.054688-4.910156l21.027343-15.28125c2.972657-2.105469 4.09375-5.984375 2.703126-9.351563l-56.648438 18.878906zm0 0"/><path d="m221.210938 143.671875c-1.269532-.96875-2.21875-2.300781-2.726563-3.816406l-8-24.71875c-1.035156-3.347657-4.167969-5.605469-7.671875-5.527344v59.773437zm0 0"/><path d="m202.8125 200.9375c1.691406 0 3.335938.535156 4.703125 1.527344l21.023437 15.28125c2.359376 1.753906 5.515626 2.015625 8.128907.671875l-33.855469-49.035157zm0 0"/></g><path d="m202.8125 169.382812 33.855469 49.035157c3.640625-1.664063 5.445312-5.800781 4.183593-9.601563l-8-24.71875c-.386718-1.300781-.4375-2.675781-.144531-4zm0 0" fill="#f7941d"/><path d="m145.84375 151.585938c-.804688 3.117187.398438 6.40625 3.023438 8.269531l21.023437 15.28125c1.261719.929687 2.214844 2.210937 2.746094 3.679687l30.175781-9.433594zm0 0" fill="#f7941d"/><path d="m167.484375 217.5625c2.785156 2.242188 6.730469 2.316406 9.601563.183594l21.023437-15.28125c1.367187-.992188 3.011719-1.527344 4.703125-1.527344v-31.554688zm0 0" fill="#f7941d"/><path d="m172.636719 178.816406c.65625 1.683594.714843 3.542969.167969 5.265625l-8 24.71875c-1.085938 3.199219.007812 6.734375 2.710937 8.761719l35.296875-48.179688zm0 0" fill="#fbb040"/></svg>