<svg height="464pt" viewBox="-96 0 464 464" width="464pt" xmlns="http://www.w3.org/2000/svg"><path d="m177.519531 198.398438c-13.429687-4.253907-27.433593-6.414063-41.519531-6.398438v84.222656c3.480469-.046875 6.578125 2.203125 7.609375 5.53125l8 24.71875c1.070313 3.296875 4.140625 5.527344 7.605469 5.527344h25.992187c3.46875 0 6.539063 2.230469 7.609375 5.527344 1.074219 3.296875-.101562 6.90625-2.90625 8.945312l-21.023437 15.28125c-2.804688 2.035156-3.980469 5.644532-2.910157 8.941406l8 24.71875c1.070313 3.296876-.101562 6.910157-2.90625 8.949219-2.804687 2.035157-6.601562 2.035157-9.40625-.003906l-21.023437-15.28125c-1.351563-.980469-2.972656-1.511719-4.640625-1.527344v96.449219c67.003906-.035156 124.007812-48.84375 134.355469-115.042969 10.347656-66.199219-29.039063-130.078125-92.835938-150.558593zm0 0" fill="#ffcd00"/><path d="m131.296875 369.078125-21.023437 15.28125c-2.804688 2.039063-6.601563 2.039063-9.40625.003906-2.804688-2.039062-3.980469-5.652343-2.90625-8.949219l8-24.71875c1.070312-3.296874-.105469-6.90625-2.914063-8.941406l-21.023437-15.28125c-2.808594-2.042968-3.980469-5.660156-2.898438-8.960937 1.078125-3.300781 4.164062-5.527344 7.636719-5.511719h25.992187c3.464844 0 6.535156-2.230469 7.605469-5.527344l8-24.71875c1.03125-3.339844 4.148437-5.59375 7.640625-5.53125v-84.222656c-75.109375 0-136 60.890625-136 136s60.890625 136 136 136v-96.449219c-1.691406 0-3.335938.535157-4.703125 1.527344zm0 0" fill="#dfb300"/><path d="m32 328c0 57.4375 46.5625 104 104 104v-208c-57.4375 0-104 46.5625-104 104zm0 0" fill="#bd0022"/><path d="m136 224v208c57.4375 0 104-46.5625 104-104s-46.5625-104-104-104zm0 0" fill="#d80027"/><path d="m64 168v-40h72v-24h-96v80l54.480469 14.398438c13.429687-4.253907 27.433593-6.414063 41.519531-6.398438v-24zm0 0" fill="#bcbec0"/><path d="m200 104h-64v24h72v40h-72v24c14.085938-.015625 28.089844 2.144531 41.519531 6.398438l54.480469-14.398438v-80zm0 0" fill="#e6e7e8"/><path d="m64 128h72v40h-72zm0 0" fill="#0052b4"/><path d="m136 128h72v40h-72zm0 0" fill="#005ece"/><path d="m117.96875 309.960938c-1.433594 1.292968-3.289062 2.019531-5.214844 2.039062h-25.992187c-3.726563-.035156-6.957031 2.558594-7.730469 6.199219l56.96875 17.800781zm0 0" fill="#fbb040"/><path d="m154.03125 309.960938c-1.101562-.921876-1.933594-2.128907-2.398438-3.488282l-8-24.71875c-1.03125-3.335937-4.140624-5.589844-7.632812-5.53125v59.777344zm0 0" fill="#fbb040"/><path d="m136 276.222656c-3.480469-.046875-6.578125 2.203125-7.609375 5.53125l-8 24.71875c-.464844 1.359375-1.292969 2.566406-2.398437 3.488282l18.007812 26.039062zm0 0" fill="#f7941d"/><path d="m192.96875 318.199219c-.773438-3.640625-4.003906-6.234375-7.730469-6.199219h-25.992187c-1.925782-.019531-3.78125-.746094-5.214844-2.039062l-18.03125 26.039062zm0 0" fill="#f7941d"/><path d="m165.785156 347.199219c.25-2.160157 1.386719-4.121094 3.136719-5.414063l21.023437-15.28125c2.625-1.863281 3.828126-5.152344 3.023438-8.273437l-56.96875 17.769531zm0 0" fill="#fbb040"/><path d="m105.824219 345.433594c.65625 1.683594.714843 3.539062.167969 5.261718l-8 24.71875c-1.085938 3.199219.007812 6.734376 2.710937 8.761719l35.296875-48.175781zm0 0" fill="#fbb040"/><path d="m136 336 35.328125 48.175781c2.703125-2.027343 3.796875-5.5625 2.710937-8.761719l-8-24.71875c-.339843-1.144531-.417968-2.347656-.222656-3.527343zm0 0" fill="#f7941d"/><path d="m136 367.550781c1.691406 0 3.335938.535157 4.703125 1.527344l21.023437 15.28125c2.867188 2.136719 6.816407 2.058594 9.601563-.183594l-35.328125-48.175781zm0 0" fill="#fbb040"/><path d="m100.671875 384.175781c2.785156 2.242188 6.734375 2.320313 9.601563.183594l21.023437-15.28125c1.367187-.992187 3.011719-1.527344 4.703125-1.527344v-31.550781zm0 0" fill="#f7941d"/><path d="m79.03125 318.199219c-.804688 3.117187.398438 6.410156 3.023438 8.273437l21.023437 15.28125c1.261719.925782 2.214844 2.207032 2.746094 3.679688l30.175781-9.433594zm0 0" fill="#f7941d"/><path d="m72 0h64v104h-64zm0 0" fill="#005fd2"/><path d="m136 0h64v104h-64zm0 0" fill="#006df0"/></svg>