<svg height="468pt" viewBox="0 -2 468.48 468" width="468pt" xmlns="http://www.w3.org/2000/svg"><path d="m213.28125 145.679688c-8.375 1.03125-16.644531 2.769531-24.722656 5.199218-20.636719 6.160156-39.820313 16.417969-56.398438 30.160156-6.402344 5.242188-12.34375 11.023438-17.761718 17.28125-41.699219 47.125-51.886719 114.324219-26.03125 171.695313 25.851562 57.371094 82.945312 94.25 145.871093 94.222656v-320c-7.011719-.003906-14.011719.476563-20.957031 1.441407zm0 0" fill="#dc9a38"/><path d="m354.078125 198.320312c-5.414063-6.257812-11.355469-12.039062-17.757813-17.28125-16.582031-13.742187-35.761718-24-56.398437-30.160156-8.078125-2.429687-16.347656-4.167968-24.722656-5.199218-6.945313-.964844-13.949219-1.445313-20.960938-1.441407v320c62.929688.027344 120.023438-36.851562 145.875-94.222656 25.855469-57.371094 15.667969-124.570313-26.035156-171.695313zm0 0" fill="#fbb040"/><path d="m106.238281 304.238281c0 70.695313 57.308594 128 128 128v-256c-70.691406 0-128 57.308594-128 128zm0 0" fill="#ee8700"/><path d="m234.238281 176.238281v256c70.695313 0 128-57.304687 128-128 0-70.691406-57.304687-128-128-128zm0 0" fill="#f7941d"/><path d="m234.238281 200.238281v208c57.4375 0 104-46.5625 104-104s-46.5625-104-104-104zm0 0" fill="#ffcd00"/><path d="m130.238281 304.238281c0 57.4375 46.5625 104 104 104v-208c-57.4375 0-104 46.5625-104 104zm0 0" fill="#dfb300"/><path d="m366.878906.238281h-27.679687l-84 145.441407c8.375 1.03125 16.644531 2.769531 24.722656 5.199218zm0 0" fill="#d1d3d4"/><path d="m213.28125 145.679688-84-145.441407h-27.679688l86.957032 150.640625c8.078125-2.429687 16.347656-4.167968 24.722656-5.199218zm0 0" fill="#f1f2f2"/><path d="m188.558594 150.878906-86.957032-150.640625h-73.839843l104.398437 180.800781c16.578125-13.742187 35.761719-24 56.398438-30.160156zm0 0" fill="#005ece"/><path d="m132.160156 181.039062-104.398437-180.800781h-27.761719l114.398438 198.082031c5.417968-6.257812 11.359374-12.039062 17.761718-17.28125zm0 0" fill="#d1d3d4"/><path d="m336.320312 181.039062c6.402344 5.242188 12.34375 11.023438 17.757813 17.28125l114.402344-198.082031h-27.761719zm0 0" fill="#f1f2f2"/><path d="m336.320312 181.039062 104.398438-180.800781h-73.839844l-86.957031 150.640625c20.636719 6.160156 39.816406 16.417969 56.398437 30.160156zm0 0" fill="#006df0"/><path d="m250.238281 232.238281h-32l-24 31.441407 24 .558593v80h-24v24h80v-24h-24zm0 0" fill="#d80027"/></svg>