<svg height="464pt" viewBox="-25 0 464 464.00001" width="464pt" xmlns="http://www.w3.org/2000/svg"><path d="m201.761719 144.160156c-35.617188 1.089844-69.824219 14.136719-97.121094 37.039063-51.722656 43.128906-70.890625 114.03125-47.949219 177.34375 22.945313 63.3125 83.085938 105.476562 150.429688 105.457031v-320c-1.761719 0-3.601563 0-5.359375.160156zm0 0" fill="#ffcd00"/><path d="m309.601562 181.199219c-27.300781-22.898438-61.507812-35.945313-97.121093-37.039063-1.761719-.160156-3.601563-.160156-5.359375-.160156v320c67.339844.019531 127.484375-42.144531 150.425781-105.457031 22.945313-63.3125 3.773437-134.214844-47.945313-177.34375zm0 0" fill="#ffde55"/><path d="m79.121094 304c0 70.691406 57.304687 128 128 128v-256c-70.695313 0-128 57.308594-128 128zm0 0" fill="#d80027"/><path d="m207.121094 176v256c70.691406 0 128-57.308594 128-128s-57.308594-128-128-128zm0 0" fill="#dc1c3f"/><path d="m36.878906 0h-36.878906l104.640625 181.199219c8.191406-6.882813 17.0625-12.914063 26.480469-18zm0 0" fill="#f7941d"/><path d="m405.121094 0h-27.761719l-94.238281 163.199219c9.414062 5.085937 18.285156 11.117187 26.480468 18l104.636719-181.199219zm0 0" fill="#fbb040"/><path d="m160.960938 150.800781 27.679687-47.921875-59.359375-102.878906h-92.402344l94.242188 163.199219c9.496094-5.144531 19.492187-9.300781 29.839844-12.398438zm0 0" fill="#006df0"/><path d="m207.121094 70.878906-40.960938-70.878906h-36.878906l59.359375 102.878906zm0 0" fill="#fbb040"/><path d="m160.960938 150.800781c13.246093-4.015625 26.964843-6.246093 40.800781-6.640625l5.359375-9.359375 18.480468-31.921875 59.359376-102.878906h-36.882813l-40.957031 70.878906-18.480469 32zm0 0" fill="#f7941d"/><path d="m207.121094 134.800781-5.359375 9.359375c1.757812-.160156 3.597656-.160156 5.359375-.160156 1.757812 0 3.597656 0 5.359375.160156 24.707031.761719 48.894531 7.28125 70.640625 19.039063l94.238281-163.199219h-92.398437l-59.359376 102.878906zm0 0" fill="#2488ff"/><path d="m230.800781 269.792969c-1.015625-.898438-1.78125-2.042969-2.226562-3.320313l-13.847657-42.609375c-1.027343-3.324219-4.125-5.578125-7.605468-5.527343v85.664062zm0 0" fill="#fbb040"/><path d="m207.121094 218.335938c-3.484375-.050782-6.582032 2.203124-7.609375 5.527343l-13.847657 42.609375c-.492187 1.488282-1.421874 2.800782-2.664062 3.757813l24.121094 33.769531zm0 0" fill="#f7941d"/><path d="m183 270.230469c-1.398438 1.132812-3.144531 1.757812-4.945312 1.769531h-44.796876c-3.230468-.035156-6.144531 1.929688-7.320312 4.9375l81.183594 27.0625zm0 0" fill="#fbb040"/><path d="m246.367188 317.847656c.332031-2.015625 1.433593-3.820312 3.074218-5.039062l36.246094-26.335938c3.027344-2.152344 4.121094-6.140625 2.617188-9.535156l-81.183594 27.0625zm0 0" fill="#fbb040"/><path d="m288.304688 276.9375c-1.179688-3.007812-4.09375-4.972656-7.320313-4.9375h-44.800781c-2.007813-.023438-3.933594-.8125-5.382813-2.207031l-23.679687 34.207031zm0 0" fill="#f7941d"/><path d="m167.488281 316.382812c.699219 1.710938.777344 3.609376.214844 5.371094l-13.839844 42.605469c-1.066406 3.160156-.007812 6.648437 2.632813 8.679687l50.625-69.039062zm0 0" fill="#fbb040"/><path d="m207.121094 304 49.3125 69.855469c3.5-1.734375 5.183594-5.789063 3.941406-9.496094l-13.839844-42.605469c-.386718-1.269531-.441406-2.613281-.167968-3.90625zm0 0" fill="#f7941d"/><path d="m125.9375 276.9375c-1.507812 3.394531-.414062 7.382812 2.613281 9.535156l36.25 26.328125c1.21875.910157 2.152344 2.148438 2.6875 3.574219l39.632813-12.375zm0 0" fill="#f7941d"/><path d="m207.121094 345.441406c1.6875 0 3.335937.53125 4.703125 1.527344l36.246093 26.335938c2.4375 1.8125 5.707032 2.027343 8.363282.550781l-49.3125-69.855469zm0 0" fill="#fbb040"/><path d="m156.496094 373.039062c2.777344 2.3125 6.773437 2.421876 9.671875.265626l36.246093-26.335938c1.371094-.996094 3.015626-1.527344 4.707032-1.527344v-41.441406zm0 0" fill="#f7941d"/></svg>