<svg height="461pt" viewBox="-70 0 461 461.312" width="461pt" xmlns="http://www.w3.org/2000/svg"><path d="m160.15625 0v320c88.367188 0 160-71.632812 160-160s-71.632812-160-160-160zm0 0" fill="#006df0"/><path d="m.15625 160c.101562 88.324219 71.675781 159.898438 160 160v-320c-88.324219.101562-159.898438 71.675781-160 160zm0 0" fill="#005ece"/><path d="m32.15625 160c0 70.691406 57.308594 128 128 128v-256c-70.691406 0-128 57.308594-128 128zm0 0" fill="#ebbf00"/><path d="m160.15625 32v256c70.691406 0 128-57.308594 128-128s-57.308594-128-128-128zm0 0" fill="#ffcd00"/><path d="m80.15625 298.472656v162.839844l32-19.199219v-129.457031c-11.15625-3.535156-21.886719-8.292969-32-14.183594zm0 0" fill="#f7941d"/><path d="m208.15625 442.113281 32 19.199219v-162.839844c-10.113281 5.890625-20.84375 10.648438-32 14.183594zm0 0" fill="#fbb040"/><path d="m200.15625 232v-32.113281c.007812-5.007813 2.378906-9.722657 6.398438-12.710938 23.628906-17.71875 32.0625-49.308593 20.414062-76.449219-11.652344-27.136718-40.363281-42.78125-69.484375-37.855468-29.121094 4.925781-51.089844 29.140625-53.167969 58.601562-.160156 2.988282-.699218 5.945313-1.601562 8.800782l-14.558594 43.726562h24v24h32v32zm0 0" fill="#d80027"/><path d="m112.15625 312.65625v129.457031l48-28.800781v-93.3125c-16.28125.011719-32.46875-2.464844-48-7.34375zm0 0" fill="#bd0022"/><path d="m160.15625 320v93.320312l48 28.800782v-129.464844c-15.53125 4.878906-31.71875 7.355469-48 7.34375zm0 0" fill="#d80027"/></svg>