<svg height="464pt" viewBox="-48 0 464 464" width="464pt" xmlns="http://www.w3.org/2000/svg"><path d="m248 296h-64v120.054688l64 47.945312zm0 0" fill="#d80027"/><path d="m120 296v168l63.929688-48 .070312.054688v-120.054688zm0 0" fill="#bd0022"/><path d="m131.921875 58.320312c-19.523437 8.078126-63.28125-19.199218-78-4.398437-14.722656 14.796875 12.476563 58.476563 4.398437 78-7.839843 18.878906-58.320312 30.398437-58.320312 52.078125s50.480469 33.199219 58.320312 52.078125c8.078126 19.523437-19.199218 63.28125-4.398437 78 14.796875 14.722656 58.476563-12.476563 78-4.398437 18.878906 7.839843 30.398437 58.320312 52.078125 58.320312v-368c-21.679688 0-33.199219 50.480469-52.078125 58.320312zm0 0" fill="#dfb300"/><path d="m368 184c0-21.679688-50.480469-33.199219-58.320312-52.078125-8.078126-19.523437 19.199218-63.28125 4.398437-78-14.796875-14.722656-58.476563 12.476563-78 4.398437-18.878906-7.839843-30.398437-58.320312-52.078125-58.320312v368c21.679688 0 33.199219-50.480469 52.078125-58.320312 19.523437-8.078126 63.28125 19.199218 78 4.398437 14.722656-14.796875-12.476563-58.476563-4.398437-78 7.839843-18.878906 58.320312-30.398437 58.320312-52.078125zm0 0" fill="#ffcd00"/><path d="m80 184c0 57.4375 46.5625 104 104 104v-208c-57.4375 0-104 46.5625-104 104zm0 0" fill="#1b66bf"/><path d="m184 80v208c57.4375 0 104-46.5625 104-104s-46.5625-104-104-104zm0 0" fill="#2488ff"/><path d="m202.671875 158.535156c-1.425781-.988281-2.488281-2.414062-3.03125-4.0625l-8-24.71875c-1.03125-3.339844-4.148437-5.59375-7.640625-5.53125v59.777344zm0 0" fill="#fbb040"/><path d="m184 124.222656c-3.480469-.046875-6.578125 2.203125-7.609375 5.53125l-8 24.71875c-.542969 1.648438-1.605469 3.074219-3.03125 4.0625l18.640625 25.464844zm0 0" fill="#f7941d"/><path d="m240.648438 165.121094c-1.132813-3.109375-4.101563-5.160156-7.410157-5.121094h-25.992187c-1.636719-.007812-3.234375-.519531-4.574219-1.464844l-18.671875 25.464844zm0 0" fill="#f7941d"/><path d="m213.878906 194.542969c.386719-1.917969 1.46875-3.628907 3.042969-4.800781l21.023437-15.277344c2.972657-2.105469 4.09375-5.988282 2.703126-9.351563l-56.648438 18.886719zm0 0" fill="#fbb040"/><path d="m165.328125 158.535156c-1.339844.945313-2.9375 1.457032-4.574219 1.464844h-25.992187c-3.308594-.039062-6.277344 2.011719-7.410157 5.121094l56.648438 18.878906zm0 0" fill="#fbb040"/><path d="m184 184 34.398438 48.742188c3.308593-1.820313 4.835937-5.746094 3.632812-9.328126l-8-24.71875c-.40625-1.347656-.449219-2.78125-.128906-4.152343zm0 0" fill="#f7941d"/><path d="m184 215.550781c1.691406 0 3.335938.535157 4.703125 1.527344l21.023437 15.28125c2.546876 1.886719 5.980469 2.039063 8.679688.382813l-34.40625-48.742188zm0 0" fill="#fbb040"/><path d="m127.351562 165.121094c-1.390624 3.367187-.269531 7.246094 2.703126 9.351562l21.023437 15.28125c1.574219 1.167969 2.65625 2.878906 3.042969 4.796875l29.878906-10.550781zm0 0" fill="#f7941d"/><path d="m154.121094 194.542969c.324218 1.371093.277344 2.804687-.128906 4.152343l-8 24.71875c-1.085938 3.199219.007812 6.734376 2.710937 8.761719l35.296875-48.175781zm0 0" fill="#fbb040"/><path d="m148.671875 232.175781c2.785156 2.242188 6.734375 2.320313 9.601563.183594l21.023437-15.28125c1.367187-.992187 3.011719-1.527344 4.703125-1.527344v-31.550781zm0 0" fill="#f7941d"/></svg>