<svg height="461pt" viewBox="-10 0 461 461.66478" width="461pt" xmlns="http://www.w3.org/2000/svg"><g fill="#fbb040"><path d="m384.714844 52.152344c-1.375-.988282-2.398438-2.390625-2.925782-4l-13.847656-42.625c-1.03125-3.324219-4.128906-5.574219-7.609375-5.527344v85.664062zm0 0"/><path d="m335.40625 52.425781c-1.238281.789063-2.671875 1.21875-4.136719 1.238281h-44.800781c-3.976562-.03125-7.34375 2.917969-7.839844 6.863282l81.703125 25.136718zm0 0"/><path d="m399.582031 99.511719c.328125-2.015625 1.429688-3.820313 3.070313-5.039063l36.246094-26.335937c3.03125-2.152344 4.121093-6.140625 2.617187-9.535157l-81.183594 27.0625zm0 0"/></g><path d="m441.515625 58.601562c-1.179687-3.007812-4.089844-4.96875-7.320313-4.9375h-44.800781c-1.679687 0-3.316406-.527343-4.679687-1.511718l-24.382813 33.511718zm0 0" fill="#f7941d"/><path d="m360.332031 0c-3.480469-.046875-6.578125 2.203125-7.609375 5.527344l-13.847656 42.609375c-.597656 1.800781-1.832031 3.324219-3.46875 4.289062l24.925781 33.238281zm0 0" fill="#f7941d"/><path d="m360.332031 127.105469c1.691407 0 3.335938.535156 4.703125 1.527343l36.25 26.335938c2.898438 2.15625 6.894532 2.046875 9.671875-.265625l-50.625-69.039063zm0 0" fill="#fbb040"/><path d="m360.332031 85.664062 50.625 69.039063c2.640625-2.03125 3.699219-5.519531 2.632813-8.679687l-13.839844-42.605469c-.386719-1.265625-.445312-2.609375-.167969-3.90625zm0 0" fill="#f7941d"/><path d="m320.699219 98.046875c.699219 1.710937.777343 3.609375.21875 5.371094l-13.839844 42.605469c-.945313 2.824218-.179687 5.9375 1.964844 8l51.289062-68.359376zm0 0" fill="#fbb040"/><path d="m309.042969 154.058594c2.722656 2.867187 7.15625 3.257812 10.335937.910156l36.25-26.335938c1.367188-.992187 3.011719-1.527343 4.703125-1.527343v-41.441407zm0 0" fill="#f7941d"/><path d="m278.628906 60.527344c-.503906 2.929687.714844 5.886718 3.136719 7.609375l36.246094 26.328125c1.222656.910156 2.15625 2.152344 2.6875 3.574218l39.632812-12.375zm0 0" fill="#f7941d"/><path d="m72.332031 317.664062h72v144h-72zm0 0" fill="#ffde55"/><path d="m.332031 317.664062h72v144h-72zm0 0" fill="#ffcd00"/><path d="m144.332031 245.664062v216h72v-216zm0 0" fill="#006df0"/><path d="m216.332031 245.664062h72v216h-72zm0 0" fill="#1c7df2"/><path d="m360.332031 189.664062h72v272h-72zm0 0" fill="#d80027"/><path d="m288.332031 189.664062v272h72v-272zm0 0" fill="#bd0022"/><path d="m80.332031 349.664062h-24c-8.835937 0-16 7.164063-16 16 0 4.417969 3.582031 8 8 8s8-3.582031 8-8h24c4.417969 0 8 3.582032 8 8 0 4.417969-3.582031 8-8 8h-16c-4.417969 0-8 3.582032-8 8 0 4.417969 3.582031 8 8 8h16c4.417969 0 8 3.582032 8 8 0 4.417969-3.582031 8-8 8h-24c0-4.417968-3.582031-8-8-8s-8 3.582032-8 8c0 8.835938 7.164063 16 16 16h24c9.484375.042969 18.097657-5.527343 21.945313-14.199218 3.851562-8.667969 2.207031-18.792969-4.183594-25.800782 6.390625-7.007812 8.035156-17.132812 4.183594-25.800781-3.847656-8.667969-12.460938-14.242187-21.945313-14.199219zm0 0" fill="#f1f2f2"/><path d="m205.804688 409.609375 26.121093-8.746094c9.785157-3.261719 16.390625-12.410156 16.40625-22.726562v-4.472657c0-13.253906-10.746093-24-24-24h-16c-13.253906 0-24 10.746094-24 24 0 4.417969 3.582031 8 8 8s8-3.582031 8-8c0-4.417968 3.582031-8 8-8h16c4.417969 0 8 3.582032 8 8v4.472657c-.003906 3.441406-2.207031 6.496093-5.472656 7.585937l-26.117187 8.742188c-9.785157 3.261718-16.394532 12.414062-16.410157 22.726562v4.472656c0 4.417969 3.582031 8 8 8h48c4.417969 0 8-3.582031 8-8 0-4.417968-3.582031-8-8-8h-39.199219c.949219-1.921874 2.632813-3.382812 4.671876-4.054687zm0 0" fill="#f1f2f2"/><path d="m344.332031 413.664062c-4.417969 0-8 3.582032-8 8 0 4.417969 3.582031 8 8 8h32c4.417969 0 8-3.582031 8-8 0-4.417968-3.582031-8-8-8h-8v-56c.015625-2.78125-1.414062-5.367187-3.773437-6.835937-2.363282-1.46875-5.316406-1.605469-7.800782-.363281l-16 8c-3.957031 1.976562-5.558593 6.78125-3.585937 10.734375 1.976563 3.957031 6.78125 5.558593 10.738281 3.585937l4.421875-2.175781v43.054687zm0 0" fill="#f1f2f2"/></svg>