<svg height="472pt" viewBox="-12 0 472 472" width="472pt" xmlns="http://www.w3.org/2000/svg"><g fill="#a7a9ac"><path d="m256 32c0 17.671875-14.328125 32-32 32s-32-14.328125-32-32 14.328125-32 32-32 32 14.328125 32 32zm0 0"/><path d="m184 200h32v96h-32zm0 0"/><path d="m232 200h32v96h-32zm0 0"/></g><path d="m224 96c13.253906 0 24-10.746094 24-24h-48c0 13.253906 10.746094 24 24 24zm0 0" fill="#f1f2f2"/><path d="m304 168v-64c0-17.671875-14.328125-32-32-32v96zm0 0" fill="#a7a9ac"/><path d="m144 104v64h32v-96c-17.671875 0-32 14.328125-32 32zm0 0" fill="#a7a9ac"/><path d="m296 296h-72v176h72zm0 0" fill="#d80027"/><path d="m208 296h-56v176h72v-176zm0 0" fill="#a2001d"/><path d="m72 344h80v128h-80zm0 0" fill="#1c7df2"/><path d="m0 344h72v128h-72zm0 0" fill="#006df0"/><path d="m376 344h72v128h-72zm0 0" fill="#ffde55"/><path d="m296 344h80v128h-80zm0 0" fill="#ffcd00"/><path d="m200 72h-24v128h48v-104c-13.253906 0-24-10.746094-24-24zm0 0" fill="#ab2300"/><path d="m248 72c0 13.253906-10.746094 24-24 24v104h48v-128zm0 0" fill="#cd2a00"/><path d="m240 384h-8v-56c.015625-2.78125-1.414062-5.367188-3.773438-6.835938-2.363281-1.46875-5.316406-1.605468-7.800781-.363281l-16 8c-3.957031 1.972657-5.5625 6.78125-3.585937 10.734375 1.976562 3.957032 6.78125 5.558594 10.734375 3.585938l4.425781-2.175782v43.054688h-8c-4.417969 0-8 3.582031-8 8s3.582031 8 8 8h32c4.417969 0 8-3.582031 8-8s-3.582031-8-8-8zm0 0" fill="#f1f2f2"/><path d="m80 368h-16c-13.253906 0-24 10.746094-24 24 0 4.417969 3.582031 8 8 8s8-3.582031 8-8 3.582031-8 8-8h16c4.417969 0 8 3.582031 8 8v4.472656c-.003906 3.441406-2.207031 6.496094-5.472656 7.582032l-26.121094 8.746093c-9.785156 3.261719-16.390625 12.414063-16.40625 22.726563v4.472656c0 4.417969 3.582031 8 8 8h48c4.417969 0 8-3.582031 8-8s-3.582031-8-8-8h-39.199219c.945313-1.917969 2.617188-3.378906 4.648438-4.054688l26.144531-8.746093c9.785156-3.261719 16.390625-12.414063 16.40625-22.726563v-4.472656c0-13.253906-10.746094-24-24-24zm0 0" fill="#f1f2f2"/><path d="m384 432h-24c0-4.417969-3.582031-8-8-8s-8 3.582031-8 8c0 8.835938 7.164062 16 16 16h24c9.484375.042969 18.097656-5.53125 21.945312-14.199219 3.847657-8.667969 2.207032-18.792969-4.183593-25.800781 6.390625-7.007812 8.03125-17.132812 4.183593-25.800781-3.847656-8.667969-12.460937-14.242188-21.945312-14.199219h-24c-8.835938 0-16 7.164062-16 16 0 4.417969 3.582031 8 8 8s8-3.582031 8-8h24c4.417969 0 8 3.582031 8 8s-3.582031 8-8 8h-16c-4.417969 0-8 3.582031-8 8s3.582031 8 8 8h16c4.417969 0 8 3.582031 8 8s-3.582031 8-8 8zm0 0" fill="#f1f2f2"/></svg>