<svg height="464pt" viewBox="-8 0 464 464" width="464pt" xmlns="http://www.w3.org/2000/svg"><path d="m328 32v-32h-32v64c17.671875 0 32-14.328125 32-32zm0 0" fill="#fbb040"/><path d="m152 64v-64h-32v32c0 17.671875 14.328125 32 32 32zm0 0" fill="#d88219"/><path d="m152 0v72c.003906 33.605469 23.238281 62.75 56 70.238281v65.761719h-26.664062c-3.460938 0-6.832032 1.121094-9.601563 3.199219l-27.734375 20.800781h80v-232zm0 0" fill="#f7941d"/><path d="m276.265625 211.199219c-2.769531-2.078125-6.140625-3.199219-9.601563-3.199219h-26.664062v-65.761719c32.761719-7.488281 55.996094-36.632812 56-70.238281v-72h-72v232h80zm0 0" fill="#f8a036"/><path d="m224 256h64v208h-64zm0 0" fill="#d80027"/><path d="m160 256h64v208h-64zm0 0" fill="#bd0022"/><path d="m0 304h64v160h-64zm0 0" fill="#005fd2"/><path d="m64 304h64v160h-64zm0 0" fill="#006df0"/><path d="m320 352h64v112h-64zm0 0" fill="#dfb300"/><path d="m384 352h64v112h-64zm0 0" fill="#ffcd00"/><g fill="#f1f2f2"><path d="m264 64c-4.417969 0-8 3.582031-8 8-.078125 14.890625-10.351562 27.792969-24.847656 31.199219-3.96875.90625-6.625 4.644531-6.171875 8.6875.449219 4.042969 3.863281 7.105469 7.929687 7.113281.601563 0 1.199219-.066406 1.785156-.199219 21.761719-5.097656 37.1875-24.453125 37.304688-46.800781 0-4.417969-3.582031-8-8-8zm0 0"/><path d="m264 24c-4.417969 0-8 3.582031-8 8v15.632812c0 4.417969 3.582031 8 8 8s8-3.582031 8-8v-15.632812c0-4.417969-3.582031-8-8-8zm0 0"/></g></svg>