<svg height="464pt" viewBox="-40 0 464 464" width="464pt" xmlns="http://www.w3.org/2000/svg"><path d="m383.664062 71.871094-191.664062-71.871094-192 64v168.238281c.0078125 38.148438 9.765625 75.664063 28.351562 108.976563 201.183594-33.335938 349.457032-140.726563 355.3125-269.34375zm0 0" fill="#ffde55"/><path d="m28.351562 341.214844c23.160157 41.640625 58.992188 74.816406 102.289063 94.707031l61.359375 28.078125 61.359375-28.078125c79.601563-36.539063 130.632813-116.09375 130.640625-203.683594v-160.238281l-.335938-.128906c-5.855468 128.617187-154.128906 236.007812-355.3125 269.34375zm0 0" fill="#ffcd00"/><path d="m352 166.6875v-72.511719l-160.632812-60.230469-159.367188 53.117188v145.175781c.042969 36.375 10.417969 71.988281 29.921875 102.691407 133.414063-28.417969 239.628906-90.128907 290.078125-168.242188zm0 0" fill="#dc1c3f"/><path d="m61.921875 334.929688c19.832031 31.394531 48.34375 56.367187 82.078125 71.894531l48 21.976562 48-21.96875c68.148438-31.421875 111.851562-99.550781 112-174.59375v-65.550781c-50.449219 78.113281-156.664062 139.824219-290.078125 168.242188zm0 0" fill="#d80027"/><path d="m162.9375 189.367188c-1.484375 1.652343-3.589844 2.609374-5.808594 2.632812h-63.617187c-3.460938-.042969-6.539063 2.179688-7.582031 5.480469l106.070312 26.519531zm0 0" fill="#fbb040"/><path d="m221.0625 189.367188c-.800781-.820313-1.417969-1.808594-1.796875-2.894532l-19.65625-60.496094c-1.03125-3.328124-4.128906-5.578124-7.609375-5.527343v103.550781zm0 0" fill="#fbb040"/><path d="m298.070312 197.480469c-1.042968-3.300781-4.121093-5.523438-7.582031-5.480469h-63.617187c-2.21875-.023438-4.324219-.980469-5.808594-2.632812l-29.0625 34.632812zm0 0" fill="#f7941d"/><path d="m241.273438 246.976562c.535156-1.230468 1.382812-2.304687 2.453124-3.113281l51.472657-37.390625c2.859375-2.019531 4.039062-5.6875 2.890625-8.992187l-106.089844 26.519531zm0 0" fill="#fbb040"/><path d="m192 120.449219c-3.480469-.050781-6.578125 2.199219-7.609375 5.527343l-19.65625 60.496094c-.378906 1.085938-.996094 2.074219-1.796875 2.894532l29.0625 34.632812zm0 0" fill="#f7941d"/><path d="m192 283.328125c1.691406 0 3.335938.535156 4.703125 1.527344l51.464844 37.390625c2.777343 2.058594 6.574219 2.058594 9.351562 0l-65.519531-98.246094zm0 0" fill="#fbb040"/><path d="m192 224 65.519531 98.28125c2.878907-2 4.085938-5.660156 2.960938-8.976562l-19.679688-60.503907c-.601562-1.929687-.4375-4.019531.457031-5.832031zm0 0" fill="#f7941d"/><path d="m142.816406 247.144531c.816406 1.777344.949219 3.792969.367188 5.664063l-19.664063 60.496094c-.953125 2.8125-.207031 5.925781 1.921875 8l66.558594-97.304688zm0 0" fill="#fbb040"/><g fill="#f7941d"><path d="m125.441406 321.28125c2.710938 2.921875 7.191406 3.339844 10.398438.964844l51.464844-37.390625c1.363281-.992188 3.007812-1.527344 4.695312-1.527344v-59.328125zm0 0"/><path d="m85.929688 197.480469c-1.152344 3.304687.027343 6.972656 2.886718 8.992187l51.457032 37.390625c1.125.84375 2.003906 1.976563 2.542968 3.28125l49.183594-23.144531zm0 0"/></g></svg>