<svg height="464pt" viewBox="0 0 464 464" width="464pt" xmlns="http://www.w3.org/2000/svg"><path d="m256 24c0 13.253906-10.746094 24-24 24s-24-10.746094-24-24 10.746094-24 24-24 24 10.746094 24 24zm0 0" fill="#006df0"/><path d="m200 176h32v112h-32zm0 0" fill="#6d6e71"/><path d="m232 176h32v112h-32zm0 0" fill="#6d6e71"/><path d="m408 112c0 13.253906-10.746094 24-24 24s-24-10.746094-24-24 10.746094-24 24-24 24 10.746094 24 24zm0 0" fill="#ed1c24"/><path d="m352 248h32v104h-32zm0 0" fill="#6d6e71"/><path d="m384 248h32v104h-32zm0 0" fill="#6d6e71"/><path d="m104 112c0 13.253906-10.746094 24-24 24s-24-10.746094-24-24 10.746094-24 24-24 24 10.746094 24 24zm0 0" fill="#ffcd00"/><path d="m48 248h32v104h-32zm0 0" fill="#6d6e71"/><path d="m80 248h32v104h-32zm0 0" fill="#6d6e71"/><path d="m304 288h-72v176h72zm0 0" fill="#d80027"/><path d="m200 288h-40v176h72v-176zm0 0" fill="#a2001d"/><path d="m48 352h-48v112h80v-112zm0 0" fill="#005fd2"/><path d="m112 352h-32v112h80v-112zm0 0" fill="#006df0"/><path d="m464 352h-80v112h80zm0 0" fill="#ffda44"/><path d="m352 352h-48v112h80v-112zm0 0" fill="#bfa433"/><path d="m64 152h-48c-8.835938 0-16 7.164062-16 16v60c0 6.628906 5.371094 12 12 12s12-5.371094 12-12v-44c0-4.417969 3.582031-8 8-8h16v72h32v-88zm0 0" fill="#dfbf3c"/><path d="m144 152h-48l-16 8v88h32v-72h16c4.417969 0 8 3.582031 8 8v44c0 6.628906 5.371094 12 12 12s12-5.371094 12-12v-60c0-8.835938-7.164062-16-16-16zm0 0" fill="#ffcd00"/><path d="m324 0c-6.628906 0-12 5.371094-12 12v36c0 8.835938-7.164062 16-16 16h-40l-24 16v96h40v-88h32c17.671875 0 32-14.328125 32-32v-44c0-6.628906-5.371094-12-12-12zm0 0" fill="#006df0"/><path d="m208 64h-40c-8.835938 0-16-7.164062-16-16v-36c0-6.628906-5.371094-12-12-12s-12 5.371094-12 12v44c0 17.671875 14.328125 32 32 32h32v88h40v-96zm0 0" fill="#005fd2"/><path d="m368 152h-48c-8.835938 0-16 7.164062-16 16v60c0 6.628906 5.371094 12 12 12s12-5.371094 12-12v-44c0-4.417969 3.582031-8 8-8h16v72h32v-88zm0 0" fill="#cf1820"/><path d="m448 152h-48l-16 8v88h32v-72h16c4.417969 0 8 3.582031 8 8v44c0 6.628906 5.371094 12 12 12s12-5.371094 12-12v-60c0-8.835938-7.164062-16-16-16zm0 0" fill="#ed1c24"/><g fill="#f1f2f2"><path d="m448 408h-16v24h-24v16h40zm0 0"/><path d="m104 448h40v-40h-16v24h-24zm0 0"/><path d="m248 320h24v24h16v-40h-40zm0 0"/></g></svg>