<svg height="476pt" viewBox="0 -10 476.128 476" width="476pt" xmlns="http://www.w3.org/2000/svg"><path d="m461.191406 175.160156c-34.554687 7.4375-56.535156 41.484375-49.09375 76.039063 34.554688-7.4375 56.535156-41.484375 49.09375-76.039063zm0 0" fill="#5eac24"/><path d="m409.566406 335.136719c35.316406 1.441406 65.117188-26.015625 66.5625-61.328125-35.316406-1.445313-65.113281 26.011718-66.5625 61.328125zm0 0" fill="#5eac24"/><path d="m459.863281 369.257812c-30.492187-17.875-69.699219-7.644531-87.574219 22.847657 30.492188 17.871093 69.699219 7.640625 87.574219-22.847657zm0 0" fill="#529720"/><path d="m325.511719 424.753906c17.929687 30.457032 57.15625 40.613282 87.617187 22.6875-17.929687-30.460937-57.15625-40.617187-87.617187-22.6875zm0 0" fill="#529720"/><path d="m339.558594 210.0625c2.023437 35.289062 32.273437 62.257812 67.5625 60.234375-2.023438-35.289063-32.273438-62.257813-67.5625-60.234375zm0 0" fill="#7ed63e"/><path d="m390.921875 356.335938c5.140625-34.96875-19.035156-67.484376-54-72.632813-5.144531 34.96875 19.03125 67.488281 54 72.632813zm0 0" fill="#6ebb36"/><path d="m309.65625 331.320312c-19.371094 29.566407-11.109375 69.234376 18.457031 88.609376 19.371094-29.566407 11.109375-69.238282-18.457031-88.609376zm0 0" fill="#6ebb36"/><path d="m64.03125 251.199219c7.441406-34.554688-14.539062-68.601563-49.09375-76.039063-7.441406 34.554688 14.539062 68.601563 49.09375 76.039063zm0 0" fill="#5eac24"/><path d="m66.558594 335.136719c-1.445313-35.316407-31.242188-62.773438-66.558594-61.328125 1.445312 35.3125 31.246094 62.769531 66.558594 61.328125zm0 0" fill="#5eac24"/><path d="m103.839844 384.105469c-17.875-30.492188-57.082032-40.722657-87.574219-22.847657 17.875 30.488282 57.082031 40.71875 87.574219 22.847657zm0 0" fill="#529720"/><path d="m150.617188 424.753906c-30.460938-17.929687-69.6875-7.773437-87.617188 22.6875 30.460938 17.925782 69.6875 7.769532 87.617188-22.6875zm0 0" fill="#529720"/><path d="m69.007812 270.296875c35.289063 2.023437 65.539063-24.945313 67.558594-60.234375-35.289062-2.023438-65.535156 24.945312-67.558594 60.234375zm0 0" fill="#7ed63e"/><path d="m85.207031 356.335938c34.96875-5.144532 59.144531-37.664063 54-72.632813-34.964843 5.148437-59.144531 37.664063-54 72.632813zm0 0" fill="#6ebb36"/><path d="m166.472656 331.320312c-29.566406 19.371094-37.828125 59.042969-18.457031 88.609376 29.566406-19.375 37.828125-59.042969 18.457031-88.609376zm0 0" fill="#6ebb36"/><path d="m302.0625 272.0625h-40v-272l-96 56v16h48v200h-40v32h128zm0 0" fill="#d80027"/><path d="m166.0625 56.0625v16h48v200h-40v32h64v-290zm0 0" fill="#bd0022"/><path d="m302.0625 272.0625h-40v-272l-24 14v290h64zm0 0" fill="#d80027"/><path d="m293.632812 450.777344c-3.90625.007812-7.246093-2.804688-7.902343-6.65625-.65625-3.847656 1.558593-7.609375 5.246093-8.898438 44.894532-15.847656 80.960938-49.996094 99.242188-93.957031s17.0625-93.613281-3.355469-136.625c-1.332031-2.597656-1.144531-5.710937.488281-8.128906 1.628907-2.417969 4.449219-3.757813 7.355469-3.492188s5.4375 2.089844 6.605469 4.765625c22.359375 47.105469 23.691406 101.484375 3.671875 149.632813-20.023437 48.144531-59.527344 85.542969-108.695313 102.902343-.855468.300782-1.753906.453126-2.65625.457032zm0 0" fill="#4e901e"/><path d="m182.496094 450.777344c-.90625-.003906-1.800782-.15625-2.65625-.457032-49.160156-17.371093-88.652344-54.769531-108.664063-102.917968-20.015625-48.144532-18.671875-102.519532 3.6875-149.617188 1.167969-2.675781 3.699219-4.5 6.605469-4.765625s5.726562 1.074219 7.359375 3.492188c1.628906 2.417969 1.816406 5.53125.484375 8.128906-20.433594 43.007813-21.667969 92.664063-3.394531 136.636719 18.273437 43.96875 54.335937 78.128906 99.234375 93.988281 3.6875 1.285156 5.902344 5.046875 5.246094 8.898437-.65625 3.847657-3.996094 6.660157-7.902344 6.652344zm0 0" fill="#4e901e"/><g fill="#91dc5a"><path d="m367.542969 131.265625c-13.523438 32.652344 1.984375 70.089844 34.640625 83.613281 13.523437-32.65625-1.984375-70.089844-34.640625-83.613281zm0 0"/><path d="m73.945312 214.878906c32.652344-13.523437 48.160157-50.960937 34.640626-83.613281-32.65625 13.523437-48.164063 50.957031-34.640626 83.613281zm0 0"/></g></svg>