<svg height="464pt" viewBox="0 -14 464 464" width="464pt" xmlns="http://www.w3.org/2000/svg"><path d="m84.960938 412.242188c-2.585938 7.632812.304687 16.050781 7.039062 20.480468l39.199219-56h-34.71875zm0 0" fill="#fbb040"/><path d="m112.71875 432.402344 76.5625-55.679688h-58.082031l-39.199219 56c6.25 4.378906 14.605469 4.25 20.71875-.320312zm0 0" fill="#f7941d"/><path d="m379.039062 412.242188-11.519531-35.519532h-36.207031l39.199219 56.863282c7.675781-4.074219 11.28125-13.101563 8.527343-21.34375zm0 0" fill="#f7941d"/><path d="m351.28125 432.402344c5.609375 4.1875 13.167969 4.652344 19.246094 1.183594l-39.214844-56.863282h-56.59375zm0 0" fill="#fbb040"/><path d="m232 0c-7.847656-.105469-14.820312 4.980469-17.121094 12.480469l-41.519531 127.761719c-1.40625 4.277343-4.363281 7.875-8.289063 10.078124l66.929688 82.402344zm0 0" fill="#f7941d"/><path d="m296.359375 148.5625c-2.664063-2.167969-4.648437-5.054688-5.71875-8.320312l-41.519531-127.761719c-2.304688-7.5-9.277344-12.582031-17.121094-12.480469v232.722656zm0 0" fill="#fbb040"/><path d="m459.457031 165.824219c-2.09375-7.804688-9.214843-13.199219-17.296875-13.101563h-134.398437c-4.167969-.019531-8.199219-1.492187-11.402344-4.160156l-64.359375 84.160156zm0 0" fill="#f7941d"/><path d="m4.9375 164.601562c-2.871094 7.53125-.257812 16.054688 6.34375 20.679688l87.199219 63.441406h91.839843l41.679688-16zm0 0" fill="#f7941d"/><path d="m243.03125 248.722656h23.28125l-34.3125-16zm0 0" fill="#f7941d"/><path d="m165.070312 150.320312c-2.675781 1.550782-5.707031 2.375-8.796874 2.402344h-134.433594c-7.609375-.113281-14.429688 4.679688-16.902344 11.878906l227.0625 68.121094zm0 0" fill="#fbb040"/><path d="m232 232.722656 34.3125 16h99.199219l87.199219-63.441406c6.203124-4.359375 8.914062-12.195312 6.738281-19.457031zm0 0" fill="#fbb040"/><path d="m232 248.722656h11.03125l-11.03125-16zm0 0" fill="#fbb040"/><path d="m220.800781 248.722656h11.199219v-16zm0 0" fill="#f7941d"/><path d="m190.320312 248.722656h30.480469l11.199219-16zm0 0" fill="#fbb040"/><path d="m0 376.722656h464l-48-64h-368zm0 0" fill="#bd0022"/><path d="m376 248.722656h-376l48 64h368c16-21.359375 32-42.695312 48-64zm0 0" fill="#d80027"/><g fill="#f1f2f2"><path d="m224 280.722656h16v64h-16zm0 0"/><path d="m304 317.410156-34.34375-34.34375c-2.289062-2.289062-5.730469-2.972656-8.71875-1.734375s-4.9375 4.15625-4.9375 7.390625v56h16v-36.6875l34.34375 34.34375c1.5 1.5 3.535156 2.34375 5.65625 2.34375 1.050781.003906 2.09375-.203125 3.0625-.609375 2.988281-1.238281 4.9375-4.15625 4.9375-7.390625v-56h-16zm0 0"/><path d="m192 313.914062-17.753906-22.191406c-1.570313-1.8125-3.847656-2.851562-6.246094-2.851562s-4.675781 1.039062-6.246094 2.851562l-17.753906 22.191406v-33.191406h-16v56c0 3.398438 2.144531 6.425782 5.351562 7.550782 3.207032 1.125 6.773438.101562 8.894532-2.550782l25.753906-32.199218 25.753906 32.191406c2.121094 2.652344 5.683594 3.675781 8.890625 2.550781 3.207031-1.121094 5.355469-4.148437 5.355469-7.542969v-56h-16zm0 0"/><path d="m336 304.722656h16v16h-16zm0 0"/><path d="m96 304.722656h16v16h-16zm0 0"/></g></svg>