<svg height="476pt" viewBox="0 -6 476.128 476" width="476pt" xmlns="http://www.w3.org/2000/svg"><path d="m461.191406 175.65625c-34.554687 7.441406-56.535156 41.484375-49.09375 76.039062 34.554688-7.4375 56.535156-41.484374 49.09375-76.039062zm0 0" fill="#5eac24"/><path d="m409.566406 335.632812c35.316406 1.441407 65.117188-26.011718 66.5625-61.328124-35.316406-1.441407-65.113281 26.011718-66.5625 61.328124zm0 0" fill="#5eac24"/><path d="m459.863281 369.753906c-30.492187-17.875-69.699219-7.644531-87.574219 22.847656 30.492188 17.871094 69.699219 7.644532 87.574219-22.847656zm0 0" fill="#47811b"/><path d="m413.128906 455.9375c-17.929687-30.460938-57.15625-40.617188-87.617187-22.6875 17.929687 30.457031 57.15625 40.613281 87.617187 22.6875zm0 0" fill="#47811b"/><path d="m407.121094 270.792969c-2.023438-35.289063-32.273438-62.257813-67.5625-60.230469 2.023437 35.289062 32.273437 62.253906 67.5625 60.230469zm0 0" fill="#7ed63e"/><path d="m390.921875 356.832031c5.140625-34.96875-19.035156-67.484375-54-72.632812-5.144531 34.96875 19.03125 67.488281 54 72.632812zm0 0" fill="#6ebb36"/><path d="m309.65625 331.816406c-19.371094 29.566406-11.109375 69.238282 18.457031 88.609375 19.371094-29.566406 11.109375-69.238281-18.457031-88.609375zm0 0" fill="#6ebb36"/><path d="m64.03125 251.695312c7.441406-34.554687-14.539062-68.597656-49.09375-76.039062-7.441406 34.554688 14.539062 68.601562 49.09375 76.039062zm0 0" fill="#5eac24"/><path d="m66.558594 335.632812c-1.445313-35.316406-31.242188-62.769531-66.558594-61.328124 1.445312 35.316406 31.246094 62.769531 66.558594 61.328124zm0 0" fill="#5eac24"/><path d="m16.265625 369.753906c17.875 30.492188 57.082031 40.71875 87.574219 22.847656-17.875-30.492187-57.082032-40.722656-87.574219-22.847656zm0 0" fill="#47811b"/><path d="m150.617188 433.25c-30.460938-17.929688-69.6875-7.773438-87.617188 22.6875 30.460938 17.925781 69.6875 7.769531 87.617188-22.6875zm0 0" fill="#47811b"/><path d="m69.007812 270.792969c35.289063 2.023437 65.539063-24.941407 67.558594-60.230469-35.289062-2.027344-65.535156 24.941406-67.558594 60.230469zm0 0" fill="#7ed63e"/><path d="m85.207031 356.832031c34.96875-5.144531 59.144531-37.664062 54-72.632812-34.964843 5.148437-59.144531 37.664062-54 72.632812zm0 0" fill="#6ebb36"/><path d="m166.472656 331.816406c-29.566406 19.371094-37.828125 59.042969-18.457031 88.609375 29.566406-19.371093 37.828125-59.042969 18.457031-88.609375zm0 0" fill="#6ebb36"/><path d="m264.710938 62.640625c-.949219-.820313-1.664063-1.878906-2.070313-3.0625l-17.71875-54.539063c-.929687-2.992187-3.722656-5.0195308-6.859375-4.9726558v96.4960938zm0 0" fill="#fbb040"/><path d="m238.0625.0664062c-3.132812-.046875-5.925781 1.9804688-6.855469 4.9726558l-17.71875 54.539063c-.558593 1.644531-1.695312 3.027344-3.199219 3.894531l27.773438 33.089844zm0 0" fill="#f7941d"/><path d="m281.9375 115.761719c.320312-1.777344 1.300781-3.363281 2.75-4.441407l46.402344-33.703124c2.417968-1.71875 3.496094-4.777344 2.6875-7.632813l-95.714844 26.578125zm0 0" fill="#fbb040"/><path d="m210.304688 63.472656c-1.101563.691406-2.371094 1.066406-3.671876 1.089844h-57.367187c-3.023437-.039062-5.730469 1.859375-6.730469 4.710938l95.527344 27.289062zm0 0" fill="#fbb040"/><g fill="#f7941d"><path d="m333.769531 69.976562c-.761719-3.191406-3.625-5.4375-6.90625-5.414062h-57.367187c-1.78125-.027344-3.492188-.710938-4.800782-1.921875l-26.632812 33.921875zm0 0"/><path d="m142.558594 69.273438c-1.179688 3.019531-.152344 6.457031 2.488281 8.335937l46.402344 33.703125c1.160156.859375 2.039062 2.046875 2.519531 3.410156l44.09375-18.160156zm0 0"/><path d="m178.808594 181.824219c2.511718 2.003906 6.054687 2.0625 8.632812.144531l46.398438-33.703125c1.230468-.898437 2.71875-1.378906 4.238281-1.375v-50.328125zm0 0"/><path d="m238.0625 96.5625 59 85.453125c2.632812-1.78125 3.75-5.101563 2.730469-8.109375l-17.730469-54.539062c-.359375-1.171876-.40625-2.417969-.132812-3.613282zm0 0"/></g><path d="m238.0625 146.890625c1.523438-.003906 3.007812.476563 4.242188 1.375l46.398437 33.703125c2.480469 1.851562 5.878906 1.871094 8.375.046875l-59.015625-85.453125zm0 0" fill="#fbb040"/><path d="m193.960938 114.722656c.550781 1.492188.585937 3.128906.09375 4.644532l-17.71875 54.539062c-.976563 2.894531.019531 6.089844 2.472656 7.917969l59.253906-85.261719zm0 0" fill="#fbb040"/><path d="m293.632812 451.273438c-3.90625.007812-7.246093-2.804688-7.902343-6.652344-.65625-3.851563 1.558593-7.613282 5.246093-8.898438 44.894532-15.851562 80.960938-50 99.242188-93.960937 18.28125-43.960938 17.0625-93.613281-3.355469-136.625-1.332031-2.59375-1.144531-5.710938.488281-8.128907 1.628907-2.417968 4.449219-3.757812 7.355469-3.492187s5.4375 2.089844 6.605469 4.765625c22.359375 47.105469 23.691406 101.484375 3.671875 149.632812-20.023437 48.144532-59.527344 85.542969-108.695313 102.902344-.855468.300782-1.753906.453125-2.65625.457032zm0 0" fill="#4e901e"/><path d="m182.496094 451.273438c-.90625-.003907-1.800782-.15625-2.65625-.457032-49.160156-17.371094-88.652344-54.769531-108.664063-102.914062-20.015625-48.148438-18.671875-102.519532 3.6875-149.621094 1.167969-2.675781 3.699219-4.5 6.605469-4.765625s5.726562 1.074219 7.359375 3.492187c1.628906 2.417969 1.816406 5.535157.484375 8.128907-20.433594 43.007812-21.667969 92.667969-3.394531 136.636719 18.273437 43.972656 54.335937 78.128906 99.234375 93.988281 3.6875 1.289062 5.902344 5.046875 5.246094 8.898437-.65625 3.847656-3.996094 6.660156-7.902344 6.652344zm0 0" fill="#4e901e"/><path d="m108.585938 131.761719c-32.65625 13.523437-48.164063 50.960937-34.640626 83.613281 32.652344-13.523438 48.160157-50.957031 34.640626-83.613281zm0 0" fill="#7ed63e"/><path d="m402.183594 215.375c13.523437-32.652344-1.984375-70.089844-34.640625-83.613281-13.523438 32.65625 1.984375 70.089843 34.640625 83.613281zm0 0" fill="#7ed63e"/></svg>