<?xml version="1.0" encoding="utf-8"?>
<!-- Generator: Adobe Illustrator 21.0.0, SVG Export Plug-In . SVG Version: 6.00 Build 0)  -->
<svg version="1.1" xmlns="http://www.w3.org/2000/svg" xmlns:xlink="http://www.w3.org/1999/xlink" x="0px" y="0px"
	 viewBox="0 0 1400 980" style="enable-background:new 0 0 1400 980;" xml:space="preserve">
<style type="text/css">
	.st0{display:none;}
	.st1{display:inline;fill:#4AC6E0;}
	.st2{display:inline;fill:#F09B36;}
	.st3{display:inline;fill:#DDBB12;}
	.st4{display:inline;fill:#EF4D4E;}
	.st5{display:inline;fill:#C2CE2F;}
	.st6{display:inline;fill:#ED7C31;}
	.st7{display:inline;fill:#E84C41;}
	.st8{display:inline;}
	.st9{fill:#6E0400;}
	.st10{fill:#197380;}
	.st11{fill:#824737;}
	.st12{display:inline;fill:#C43431;}
	.st13{display:inline;fill:#219AAA;}
	.st14{display:inline;fill:#00ADDC;}
	.st15{fill:#168189;}
	.st16{display:inline;fill:#16827E;}
	.st17{fill:#FFFFFF;}
	.st18{fill:#7F2E19;}
	.st19{fill:#9DA01C;}
	.st20{display:inline;fill:#9DA01C;}
	.st21{display:inline;fill:#E07204;}
	.st22{fill:#5B161A;}
	.st23{display:inline;fill:#FFFFFF;}
	.st24{display:inline;fill:none;stroke:#5B161A;stroke-width:4;stroke-miterlimit:10;}
	.st25{display:inline;fill:none;stroke:#5B161A;stroke-width:3;stroke-linecap:round;stroke-miterlimit:10;}
	.st26{display:inline;fill:#BF2C34;}
	.st27{display:inline;fill:#7F2E19;}
	.st28{display:inline;fill:#319EAD;}
	.st29{fill:#F9B8B8;}
	.st30{fill:#C7C8CA;}
	.st31{fill:#4AC6E0;}
	.st32{fill:#E84C41;}
	.st33{fill:#C43431;}
	.st34{fill:#219AAA;}
	.st35{fill:#F09B36;}
	.st36{fill:#ED7C31;}
	.st37{fill:#00ADDC;}
	.st38{fill:#C2CE2F;}
	.st39{fill:#16827E;}
	.st40{fill:#DDBB12;}
	.st41{fill:#E07204;}
	.st42{fill:none;stroke:#5B161A;stroke-width:4;stroke-miterlimit:10;}
	.st43{fill:none;stroke:#5B161A;stroke-width:3;stroke-linecap:round;stroke-miterlimit:10;}
	.st44{fill:#EF4D4E;}
	.st45{fill:#BF2C34;}
	.st46{fill:#319EAD;}
</style>
<g id="Layer_2" class="st0">
	<path class="st1" d="M760.9,322.3v192.5c0,6.6-5.4,12-12,12H603.5c-6.6,0-12-5.4-12-12V322.3c0-6.6,5.4-12,12-12h145.4
		C755.5,310.3,760.9,315.7,760.9,322.3z"/>
	<path class="st2" d="M1143.4,812h-186c-6.6,0-12-5.4-12-12V619.5c0-6.6,5.4-12,12-12h186c6.6,0,12,5.4,12,12V800
		C1155.4,806.6,1150,812,1143.4,812z"/>
	<path class="st3" d="M430.1,603.5V784c0,6.6-5.2,12-11.5,12h-187c-6.3,0-11.5-5.4-11.5-12V603.5c0-6.6,5.2-12,11.5-12h187
		C424.9,591.5,430.1,596.9,430.1,603.5z"/>
	<path class="st4" d="M793.5,603.5V784c0,6.6-5.5,12-12.3,12H580.9c-6.8,0-12.3-5.4-12.3-12V603.5c0-6.6,5.6-12,12.3-12h200.3
		C788,591.5,793.5,596.9,793.5,603.5z"/>
	<path class="st5" d="M1138.9,338.1v167.6c0,6.6-5.4,12-12,12h-153c-6.6,0-12-5.4-12-12V325.2c0-6.6,5.4-12,12-12H1107L1138.9,338.1
		z"/>
	<path class="st6" d="M1155.4,643v157c0,6.6-5.2,12-11.5,12h-22L1155.4,643z"/>
	<path class="st1" d="M411,325.2v180.5c0,6.6-5.4,12-12,12H243c-6.6,0-12-5.4-12-12V325.2c0-6.6,5.4-12,12-12h156
		C405.6,313.2,411,318.6,411,325.2z"/>
	<path class="st7" d="M260,313.2v204.5h-17c-6.6,0-12-5.4-12-12V325.2c0-6.6,5.4-12,12-12H260z"/>
	<g class="st8">
		<path class="st9" d="M240,339.9h-12.5c-2.7,0-5-2.3-5-5l0,0c0-2.8,2.3-5,5-5H240c2.8,0,5,2.3,5,5l0,0
			C245,337.7,242.8,339.9,240,339.9z"/>
		<path class="st9" d="M240,362.9h-12.5c-2.7,0-5-2.3-5-5l0,0c0-2.8,2.3-5,5-5H240c2.8,0,5,2.3,5,5l0,0
			C245,360.7,242.8,362.9,240,362.9z"/>
		<path class="st9" d="M240,385.9h-12.5c-2.7,0-5-2.3-5-5l0,0c0-2.8,2.3-5,5-5H240c2.8,0,5,2.3,5,5l0,0
			C245,383.7,242.8,385.9,240,385.9z"/>
		<path class="st9" d="M240,408.9h-12.5c-2.7,0-5-2.3-5-5l0,0c0-2.8,2.3-5,5-5H240c2.8,0,5,2.3,5,5l0,0
			C245,406.7,242.8,408.9,240,408.9z"/>
		<path class="st9" d="M240,431.9h-12.5c-2.7,0-5-2.3-5-5l0,0c0-2.8,2.3-5,5-5H240c2.8,0,5,2.3,5,5l0,0
			C245,429.7,242.8,431.9,240,431.9z"/>
		<path class="st9" d="M240,454.9h-12.5c-2.7,0-5-2.3-5-5l0,0c0-2.8,2.3-5,5-5H240c2.8,0,5,2.3,5,5l0,0
			C245,452.7,242.8,454.9,240,454.9z"/>
		<path class="st9" d="M240,477.9h-12.5c-2.7,0-5-2.3-5-5l0,0c0-2.8,2.3-5,5-5H240c2.8,0,5,2.3,5,5l0,0
			C245,475.7,242.8,477.9,240,477.9z"/>
		<path class="st9" d="M240,500.9h-12.5c-2.7,0-5-2.3-5-5l0,0c0-2.8,2.3-5,5-5H240c2.8,0,5,2.3,5,5l0,0
			C245,498.7,242.8,500.9,240,500.9z"/>
	</g>
	<g class="st8">
		<g>
			<path class="st10" d="M321.5,335.4H276c-0.8,0-1.5-0.7-1.5-1.5s0.7-1.5,1.5-1.5h45.5c0.8,0,1.5,0.7,1.5,1.5
				S322.3,335.4,321.5,335.4z"/>
		</g>
		<g>
			<path class="st10" d="M380,358.4H276c-0.8,0-1.5-0.7-1.5-1.5s0.7-1.5,1.5-1.5h104c0.8,0,1.5,0.7,1.5,1.5S380.8,358.4,380,358.4z"
				/>
		</g>
		<g>
			<path class="st10" d="M380,376.4H276c-0.8,0-1.5-0.7-1.5-1.5s0.7-1.5,1.5-1.5h104c0.8,0,1.5,0.7,1.5,1.5S380.8,376.4,380,376.4z"
				/>
		</g>
		<g>
			<path class="st10" d="M380,394.4H276c-0.8,0-1.5-0.7-1.5-1.5s0.7-1.5,1.5-1.5h104c0.8,0,1.5,0.7,1.5,1.5S380.8,394.4,380,394.4z"
				/>
		</g>
		<g>
			<path class="st10" d="M380,412.4H276c-0.8,0-1.5-0.7-1.5-1.5s0.7-1.5,1.5-1.5h104c0.8,0,1.5,0.7,1.5,1.5S380.8,412.4,380,412.4z"
				/>
		</g>
		<g>
			<path class="st10" d="M380,430.4H276c-0.8,0-1.5-0.7-1.5-1.5s0.7-1.5,1.5-1.5h104c0.8,0,1.5,0.7,1.5,1.5S380.8,430.4,380,430.4z"
				/>
		</g>
		<g>
			<path class="st10" d="M380,448.4H276c-0.8,0-1.5-0.7-1.5-1.5s0.7-1.5,1.5-1.5h104c0.8,0,1.5,0.7,1.5,1.5S380.8,448.4,380,448.4z"
				/>
		</g>
		<g>
			<path class="st10" d="M380,466.4H276c-0.8,0-1.5-0.7-1.5-1.5s0.7-1.5,1.5-1.5h104c0.8,0,1.5,0.7,1.5,1.5S380.8,466.4,380,466.4z"
				/>
		</g>
		<g>
			<path class="st10" d="M380,484.4H276c-0.8,0-1.5-0.7-1.5-1.5s0.7-1.5,1.5-1.5h104c0.8,0,1.5,0.7,1.5,1.5S380.8,484.4,380,484.4z"
				/>
		</g>
		<g>
			<path class="st10" d="M380,502.4H276c-0.8,0-1.5-0.7-1.5-1.5s0.7-1.5,1.5-1.5h104c0.8,0,1.5,0.7,1.5,1.5S380.8,502.4,380,502.4z"
				/>
		</g>
	</g>
	<g class="st8">
		<g>
			<path class="st11" d="M1079.3,661.2h-115c-0.8,0-1.4-0.7-1.4-1.5s0.6-1.5,1.4-1.5h115c0.8,0,1.4,0.7,1.4,1.5
				S1080.1,661.2,1079.3,661.2z"/>
		</g>
		<g>
			<path class="st11" d="M1135.4,680.7H964.2c-0.8,0-1.4-0.7-1.4-1.5s0.6-1.5,1.4-1.5h171.1c0.8,0,1.4,0.7,1.4,1.5
				S1136.2,680.7,1135.4,680.7z"/>
		</g>
		<g>
			<path class="st11" d="M1135.4,698.7H964.2c-0.8,0-1.4-0.7-1.4-1.5s0.6-1.5,1.4-1.5h171.1c0.8,0,1.4,0.7,1.4,1.5
				S1136.2,698.7,1135.4,698.7z"/>
		</g>
		<g>
			<path class="st11" d="M1135.4,716.7H964.2c-0.8,0-1.4-0.7-1.4-1.5s0.6-1.5,1.4-1.5h171.1c0.8,0,1.4,0.7,1.4,1.5
				S1136.2,716.7,1135.4,716.7z"/>
		</g>
		<g>
			<path class="st11" d="M1135.4,734.7H964.2c-0.8,0-1.4-0.7-1.4-1.5s0.6-1.5,1.4-1.5h171.1c0.8,0,1.4,0.7,1.4,1.5
				S1136.2,734.7,1135.4,734.7z"/>
		</g>
		<g>
			<path class="st11" d="M1135.4,752.7H964.2c-0.8,0-1.4-0.7-1.4-1.5s0.6-1.5,1.4-1.5h171.1c0.8,0,1.4,0.7,1.4,1.5
				S1136.2,752.7,1135.4,752.7z"/>
		</g>
		<g>
			<path class="st11" d="M1135.4,770.7H964.2c-0.8,0-1.4-0.7-1.4-1.5s0.6-1.5,1.4-1.5h171.1c0.8,0,1.4,0.7,1.4,1.5
				S1136.2,770.7,1135.4,770.7z"/>
		</g>
		<g>
			<path class="st11" d="M1135.4,788.7H964.2c-0.8,0-1.4-0.7-1.4-1.5s0.6-1.5,1.4-1.5h171.1c0.8,0,1.4,0.7,1.4,1.5
				S1136.2,788.7,1135.4,788.7z"/>
		</g>
	</g>
	<rect x="260" y="313.2" class="st12" width="4.5" height="204.5"/>
	<path class="st13" d="M411,325.2v180.5c0,6.6-5.4,12-12,12h-7V313.2h7C405.6,313.2,411,318.6,411,325.2z"/>
	<path class="st14" d="M1155.4,619.5V635h-210v-15.5c0-6.6,5.2-12,11.5-12h187C1150.2,607.5,1155.4,612.9,1155.4,619.5z"/>
	<g class="st8">
		<path class="st15" d="M965.5,619.8L965.5,619.8c-1.6,0-2.9-1.3-2.9-2.9v-10.2c0-1.6,1.3-2.9,2.9-2.9l0,0c1.6,0,2.9,1.3,2.9,2.9
			V617C968.4,618.5,967.1,619.8,965.5,619.8z"/>
		<path class="st15" d="M982.9,619.8L982.9,619.8c-1.6,0-2.9-1.3-2.9-2.9v-10.2c0-1.6,1.3-2.9,2.9-2.9l0,0c1.6,0,2.9,1.3,2.9,2.9
			V617C985.8,618.5,984.5,619.8,982.9,619.8z"/>
		<path class="st15" d="M1000.3,619.8L1000.3,619.8c-1.6,0-2.9-1.3-2.9-2.9v-10.2c0-1.6,1.3-2.9,2.9-2.9l0,0c1.6,0,2.9,1.3,2.9,2.9
			V617C1003.2,618.5,1001.9,619.8,1000.3,619.8z"/>
		<path class="st15" d="M1017.7,619.8L1017.7,619.8c-1.6,0-2.9-1.3-2.9-2.9v-10.2c0-1.6,1.3-2.9,2.9-2.9l0,0c1.6,0,2.9,1.3,2.9,2.9
			V617C1020.6,618.5,1019.3,619.8,1017.7,619.8z"/>
		<path class="st15" d="M1035.1,619.8L1035.1,619.8c-1.6,0-2.9-1.3-2.9-2.9v-10.2c0-1.6,1.3-2.9,2.9-2.9l0,0c1.6,0,2.9,1.3,2.9,2.9
			V617C1037.9,618.5,1036.6,619.8,1035.1,619.8z"/>
		<path class="st15" d="M1052.4,619.8L1052.4,619.8c-1.6,0-2.9-1.3-2.9-2.9v-10.2c0-1.6,1.3-2.9,2.9-2.9l0,0c1.6,0,2.9,1.3,2.9,2.9
			V617C1055.3,618.5,1054,619.8,1052.4,619.8z"/>
		<path class="st15" d="M1069.8,619.8L1069.8,619.8c-1.6,0-2.9-1.3-2.9-2.9v-10.2c0-1.6,1.3-2.9,2.9-2.9l0,0c1.6,0,2.9,1.3,2.9,2.9
			V617C1072.7,618.5,1071.4,619.8,1069.8,619.8z"/>
		<path class="st15" d="M1087.2,619.8L1087.2,619.8c-1.6,0-2.9-1.3-2.9-2.9v-10.2c0-1.6,1.3-2.9,2.9-2.9l0,0c1.6,0,2.9,1.3,2.9,2.9
			V617C1090.1,618.5,1088.8,619.8,1087.2,619.8z"/>
		<path class="st15" d="M1104.6,619.8L1104.6,619.8c-1.6,0-2.9-1.3-2.9-2.9v-10.2c0-1.6,1.3-2.9,2.9-2.9l0,0c1.6,0,2.9,1.3,2.9,2.9
			V617C1107.4,618.5,1106.1,619.8,1104.6,619.8z"/>
		<path class="st15" d="M1121.9,619.8L1121.9,619.8c-1.6,0-2.9-1.3-2.9-2.9v-10.2c0-1.6,1.3-2.9,2.9-2.9l0,0c1.6,0,2.9,1.3,2.9,2.9
			V617C1124.8,618.5,1123.5,619.8,1121.9,619.8z"/>
		<path class="st15" d="M1139.3,619.8L1139.3,619.8c-1.6,0-2.9-1.3-2.9-2.9v-10.2c0-1.6,1.3-2.9,2.9-2.9l0,0c1.6,0,2.9,1.3,2.9,2.9
			V617C1142.2,618.5,1140.9,619.8,1139.3,619.8z"/>
	</g>
	<g class="st8">
		<path class="st11" d="M965.5,616.3L965.5,616.3c-1.6,0-2.9-1.3-2.9-2.9v-10.2c0-1.6,1.3-2.9,2.9-2.9l0,0c1.6,0,2.9,1.3,2.9,2.9
			v10.2C968.4,615,967.1,616.3,965.5,616.3z"/>
		<path class="st11" d="M982.9,616.3L982.9,616.3c-1.6,0-2.9-1.3-2.9-2.9v-10.2c0-1.6,1.3-2.9,2.9-2.9l0,0c1.6,0,2.9,1.3,2.9,2.9
			v10.2C985.8,615,984.5,616.3,982.9,616.3z"/>
		<path class="st11" d="M1000.3,616.3L1000.3,616.3c-1.6,0-2.9-1.3-2.9-2.9v-10.2c0-1.6,1.3-2.9,2.9-2.9l0,0c1.6,0,2.9,1.3,2.9,2.9
			v10.2C1003.2,615,1001.9,616.3,1000.3,616.3z"/>
		<path class="st11" d="M1017.7,616.3L1017.7,616.3c-1.6,0-2.9-1.3-2.9-2.9v-10.2c0-1.6,1.3-2.9,2.9-2.9l0,0c1.6,0,2.9,1.3,2.9,2.9
			v10.2C1020.6,615,1019.3,616.3,1017.7,616.3z"/>
		<path class="st11" d="M1035.1,616.3L1035.1,616.3c-1.6,0-2.9-1.3-2.9-2.9v-10.2c0-1.6,1.3-2.9,2.9-2.9l0,0c1.6,0,2.9,1.3,2.9,2.9
			v10.2C1037.9,615,1036.6,616.3,1035.1,616.3z"/>
		<path class="st11" d="M1052.4,616.3L1052.4,616.3c-1.6,0-2.9-1.3-2.9-2.9v-10.2c0-1.6,1.3-2.9,2.9-2.9l0,0c1.6,0,2.9,1.3,2.9,2.9
			v10.2C1055.3,615,1054,616.3,1052.4,616.3z"/>
		<path class="st11" d="M1069.8,616.3L1069.8,616.3c-1.6,0-2.9-1.3-2.9-2.9v-10.2c0-1.6,1.3-2.9,2.9-2.9l0,0c1.6,0,2.9,1.3,2.9,2.9
			v10.2C1072.7,615,1071.4,616.3,1069.8,616.3z"/>
		<path class="st11" d="M1087.2,616.3L1087.2,616.3c-1.6,0-2.9-1.3-2.9-2.9v-10.2c0-1.6,1.3-2.9,2.9-2.9l0,0c1.6,0,2.9,1.3,2.9,2.9
			v10.2C1090.1,615,1088.8,616.3,1087.2,616.3z"/>
		<path class="st11" d="M1104.6,616.3L1104.6,616.3c-1.6,0-2.9-1.3-2.9-2.9v-10.2c0-1.6,1.3-2.9,2.9-2.9l0,0c1.6,0,2.9,1.3,2.9,2.9
			v10.2C1107.4,615,1106.1,616.3,1104.6,616.3z"/>
		<path class="st11" d="M1121.9,616.3L1121.9,616.3c-1.6,0-2.9-1.3-2.9-2.9v-10.2c0-1.6,1.3-2.9,2.9-2.9l0,0c1.6,0,2.9,1.3,2.9,2.9
			v10.2C1124.8,615,1123.5,616.3,1121.9,616.3z"/>
		<path class="st11" d="M1139.3,616.3L1139.3,616.3c-1.6,0-2.9-1.3-2.9-2.9v-10.2c0-1.6,1.3-2.9,2.9-2.9l0,0c1.6,0,2.9,1.3,2.9,2.9
			v10.2C1142.2,615,1140.9,616.3,1139.3,616.3z"/>
	</g>
	<rect x="945.4" y="635" class="st13" width="210" height="8"/>
	<path class="st16" d="M990.3,313.2v204.5h-16.4c-6.6,0-12-5.4-12-12V325.2c0-6.6,5.4-12,12-12H990.3z"/>
	<g class="st8">
		<circle class="st17" cx="975.9" cy="327.9" r="3.8"/>
		<circle class="st17" cx="975.9" cy="349.6" r="3.8"/>
		<circle class="st17" cx="975.9" cy="371.4" r="3.8"/>
		<circle class="st17" cx="975.9" cy="393.1" r="3.8"/>
		<circle class="st17" cx="975.9" cy="414.9" r="3.8"/>
		<circle class="st17" cx="975.9" cy="436.6" r="3.8"/>
		<circle class="st17" cx="975.9" cy="458.4" r="3.8"/>
		<circle class="st17" cx="975.9" cy="480.2" r="3.8"/>
		<circle class="st17" cx="975.9" cy="501.9" r="3.8"/>
	</g>
	<g class="st8">
		<circle class="st18" cx="768" cy="612.5" r="4.8"/>
		<circle class="st18" cx="746.3" cy="612.5" r="4.8"/>
		<circle class="st18" cx="724.5" cy="612.5" r="4.8"/>
		<circle class="st18" cx="702.8" cy="612.5" r="4.8"/>
		<circle class="st18" cx="681" cy="612.5" r="4.8"/>
		<circle class="st18" cx="659.3" cy="612.5" r="4.8"/>
		<circle class="st18" cx="637.5" cy="612.5" r="4.8"/>
		<circle class="st18" cx="615.8" cy="612.5" r="4.8"/>
		<circle class="st18" cx="594" cy="612.5" r="4.8"/>
	</g>
	<g class="st8">
		<g>
			<rect x="998.3" y="333.7" class="st19" width="56.1" height="3"/>
		</g>
		<g>
			<rect x="998.3" y="348.8" class="st19" width="126" height="3"/>
		</g>
		<g>
			<rect x="998.3" y="360.8" class="st19" width="126" height="3"/>
		</g>
		<g>
			<rect x="998.3" y="372.8" class="st19" width="126" height="3"/>
		</g>
		<g>
			<rect x="998.3" y="384.8" class="st19" width="126" height="3"/>
		</g>
		<g>
			<rect x="998.3" y="396.8" class="st19" width="126" height="3"/>
		</g>
		<g>
			<rect x="998.3" y="408.8" class="st19" width="126" height="3"/>
		</g>
		<g>
			<rect x="998.3" y="420.8" class="st19" width="126" height="3"/>
		</g>
		<g>
			<rect x="998.3" y="432.8" class="st19" width="126" height="3"/>
		</g>
		<g>
			<rect x="998.3" y="444.8" class="st19" width="126" height="3"/>
		</g>
		<g>
			<rect x="998.3" y="456.8" class="st19" width="126" height="3"/>
		</g>
		<g>
			<rect x="998.3" y="468.8" class="st19" width="126" height="3"/>
		</g>
		<g>
			<rect x="998.3" y="480.8" class="st19" width="126" height="3"/>
		</g>
		<g>
			<rect x="998.3" y="492.8" class="st19" width="126" height="3"/>
		</g>
	</g>
	<path class="st20" d="M1138.9,338.1c-0.6,0.2-1.1,0.3-1.7,0.3h-24c-3.4,0-6.2-2.8-6.2-6.2v-19L1138.9,338.1z"/>
	<path class="st21" d="M248.1,591.5V796h-16.5c-6.3,0-11.5-5.4-11.5-12V603.5c0-6.6,5.2-12,11.5-12H248.1z"/>
	<g class="st8">
		<path class="st22" d="M225,618h-9.7c-1.9,0-3.4-1.5-3.4-3.4l0,0c0-1.9,1.5-3.4,3.4-3.4h9.7c1.9,0,3.4,1.5,3.4,3.4l0,0
			C228.4,616.5,226.8,618,225,618z"/>
		<path class="st22" d="M225,649.7h-9.7c-1.9,0-3.4-1.5-3.4-3.4l0,0c0-1.9,1.5-3.4,3.4-3.4h9.7c1.9,0,3.4,1.5,3.4,3.4l0,0
			C228.4,648.1,226.8,649.7,225,649.7z"/>
		<path class="st22" d="M225,681.3h-9.7c-1.9,0-3.4-1.5-3.4-3.4l0,0c0-1.9,1.5-3.4,3.4-3.4h9.7c1.9,0,3.4,1.5,3.4,3.4l0,0
			C228.4,679.8,226.8,681.3,225,681.3z"/>
		<path class="st22" d="M225,713h-9.7c-1.9,0-3.4-1.5-3.4-3.4l0,0c0-1.9,1.5-3.4,3.4-3.4h9.7c1.9,0,3.4,1.5,3.4,3.4l0,0
			C228.4,711.5,226.8,713,225,713z"/>
		<path class="st22" d="M225,744.7h-9.7c-1.9,0-3.4-1.5-3.4-3.4l0,0c0-1.9,1.5-3.4,3.4-3.4h9.7c1.9,0,3.4,1.5,3.4,3.4l0,0
			C228.4,743.1,226.8,744.7,225,744.7z"/>
		<path class="st22" d="M225,776.3h-9.7c-1.9,0-3.4-1.5-3.4-3.4l0,0c0-1.9,1.5-3.4,3.4-3.4h9.7c1.9,0,3.4,1.5,3.4,3.4l0,0
			C228.4,774.8,226.8,776.3,225,776.3z"/>
	</g>
	<path class="st23" d="M383,662.3h-94.5c-6.6,0-12-5.4-12-12v-15c0-6.6,5.4-12,12-12H383c6.6,0,12,5.4,12,12v15
		C395,656.9,389.6,662.3,383,662.3z"/>
	<line class="st24" x1="289.2" y1="761" x2="382.2" y2="761"/>
	<line class="st25" x1="248.1" y1="621.5" x2="248.1" y2="766"/>
	<path class="st26" d="M782.3,637.5H579.8c-1,0-1.8-0.8-1.8-1.8l0,0c0-1,0.8-1.8,1.8-1.8h202.5c1,0,1.7,0.8,1.7,1.8l0,0
		C784,636.7,783.2,637.5,782.3,637.5z"/>
	<path class="st27" d="M717.7,480.6h-81.4c-1,0-1.8,0.8-1.8,1.8l0,0c0,1,0.8,1.8,1.8,1.8h81.4c1,0,1.8-0.8,1.8-1.8l0,0
		C719.4,481.4,718.6,480.6,717.7,480.6z"/>
	<path class="st27" d="M723.8,495.9h-93.7c-1,0-1.8,0.8-1.8,1.8l0,0c0,1,0.8,1.8,1.8,1.8h93.7c1,0,1.8-0.8,1.8-1.8l0,0
		C725.6,496.7,724.8,495.9,723.8,495.9z"/>
	<g class="st8">
		<g>
			<rect x="585" y="656.2" class="st17" width="192" height="2"/>
		</g>
		<g>
			<rect x="585" y="668" class="st17" width="192" height="2"/>
		</g>
		<g>
			<rect x="585" y="679.8" class="st17" width="192" height="2"/>
		</g>
		<g>
			<rect x="585" y="691.7" class="st17" width="192" height="2"/>
		</g>
		<g>
			<rect x="585" y="703.5" class="st17" width="192" height="2"/>
		</g>
		<g>
			<rect x="585" y="715.3" class="st17" width="192" height="2"/>
		</g>
		<g>
			<rect x="585" y="727.2" class="st17" width="192" height="2"/>
		</g>
		<g>
			<rect x="585" y="739" class="st17" width="192" height="2"/>
		</g>
		<g>
			<rect x="585" y="750.8" class="st17" width="192" height="2"/>
		</g>
		<g>
			<rect x="585" y="762.7" class="st17" width="192" height="2"/>
		</g>
		<g>
			<rect x="585" y="774.5" class="st17" width="192" height="2"/>
		</g>
	</g>
	<path class="st28" d="M760.9,326.8v12.1l-10.6,10.6l-10.6-10.6l-10.6,10.6l-10.6-10.6L708,349.5l-10.6-10.6l-10.6,10.6l-10.6-10.6
		l-10.6,10.6L655,338.9l-10.6,10.6l-10.6-10.6l-10.6,10.6l-10.6-10.6l-10.6,10.6l-10.6-10.6v-12.1c0-6.6,5.4-12,12-12h145.4
		C755.5,314.8,760.9,320.2,760.9,326.8z"/>
	<path class="st4" d="M760.9,322.3v12.1L750.3,345l-10.6-10.6L729.1,345l-10.6-10.6L708,345l-10.6-10.6L686.8,345l-10.6-10.6
		L665.6,345L655,334.4L644.4,345l-10.6-10.6L623.3,345l-10.6-10.6L602.1,345l-10.6-10.6v-12.1c0-6.6,5.4-12,12-12h145.4
		C755.5,310.3,760.9,315.7,760.9,322.3z"/>
	<g class="st8">
		<path class="st29" d="M607,321L607,321c-1.6,0-2.9-1.3-2.9-2.9v-10.2c0-1.6,1.3-2.9,2.9-2.9h0c1.6,0,2.9,1.3,2.9,2.9v10.2
			C609.8,319.7,608.5,321,607,321z"/>
		<path class="st29" d="M624.3,321L624.3,321c-1.6,0-2.9-1.3-2.9-2.9v-10.2c0-1.6,1.3-2.9,2.9-2.9l0,0c1.6,0,2.9,1.3,2.9,2.9v10.2
			C627.2,319.7,625.9,321,624.3,321z"/>
		<path class="st29" d="M641.7,321L641.7,321c-1.6,0-2.9-1.3-2.9-2.9v-10.2c0-1.6,1.3-2.9,2.9-2.9l0,0c1.6,0,2.9,1.3,2.9,2.9v10.2
			C644.6,319.7,643.3,321,641.7,321z"/>
		<path class="st29" d="M659.1,321L659.1,321c-1.6,0-2.9-1.3-2.9-2.9v-10.2c0-1.6,1.3-2.9,2.9-2.9l0,0c1.6,0,2.9,1.3,2.9,2.9v10.2
			C662,319.7,660.7,321,659.1,321z"/>
		<path class="st29" d="M676.5,321L676.5,321c-1.6,0-2.9-1.3-2.9-2.9v-10.2c0-1.6,1.3-2.9,2.9-2.9h0c1.6,0,2.9,1.3,2.9,2.9v10.2
			C679.3,319.7,678,321,676.5,321z"/>
		<path class="st29" d="M693.8,321L693.8,321c-1.6,0-2.9-1.3-2.9-2.9v-10.2c0-1.6,1.3-2.9,2.9-2.9l0,0c1.6,0,2.9,1.3,2.9,2.9v10.2
			C696.7,319.7,695.4,321,693.8,321z"/>
		<path class="st29" d="M711.2,321L711.2,321c-1.6,0-2.9-1.3-2.9-2.9v-10.2c0-1.6,1.3-2.9,2.9-2.9l0,0c1.6,0,2.9,1.3,2.9,2.9v10.2
			C714.1,319.7,712.8,321,711.2,321z"/>
		<path class="st29" d="M728.6,321L728.6,321c-1.6,0-2.9-1.3-2.9-2.9v-10.2c0-1.6,1.3-2.9,2.9-2.9l0,0c1.6,0,2.9,1.3,2.9,2.9v10.2
			C731.5,319.7,730.2,321,728.6,321z"/>
		<path class="st29" d="M746,321L746,321c-1.6,0-2.9-1.3-2.9-2.9v-10.2c0-1.6,1.3-2.9,2.9-2.9l0,0c1.6,0,2.9,1.3,2.9,2.9v10.2
			C748.8,319.7,747.5,321,746,321z"/>
	</g>
	<g class="st8">
		<path class="st18" d="M607,318.3L607,318.3c-1.6,0-2.9-1.3-2.9-2.9v-10.2c0-1.6,1.3-2.9,2.9-2.9h0c1.6,0,2.9,1.3,2.9,2.9v10.2
			C609.8,317,608.5,318.3,607,318.3z"/>
		<path class="st18" d="M624.3,318.3L624.3,318.3c-1.6,0-2.9-1.3-2.9-2.9v-10.2c0-1.6,1.3-2.9,2.9-2.9l0,0c1.6,0,2.9,1.3,2.9,2.9
			v10.2C627.2,317,625.9,318.3,624.3,318.3z"/>
		<path class="st18" d="M641.7,318.3L641.7,318.3c-1.6,0-2.9-1.3-2.9-2.9v-10.2c0-1.6,1.3-2.9,2.9-2.9l0,0c1.6,0,2.9,1.3,2.9,2.9
			v10.2C644.6,317,643.3,318.3,641.7,318.3z"/>
		<path class="st18" d="M659.1,318.3L659.1,318.3c-1.6,0-2.9-1.3-2.9-2.9v-10.2c0-1.6,1.3-2.9,2.9-2.9l0,0c1.6,0,2.9,1.3,2.9,2.9
			v10.2C662,317,660.7,318.3,659.1,318.3z"/>
		<path class="st18" d="M676.5,318.3L676.5,318.3c-1.6,0-2.9-1.3-2.9-2.9v-10.2c0-1.6,1.3-2.9,2.9-2.9h0c1.6,0,2.9,1.3,2.9,2.9v10.2
			C679.3,317,678,318.3,676.5,318.3z"/>
		<path class="st18" d="M693.8,318.3L693.8,318.3c-1.6,0-2.9-1.3-2.9-2.9v-10.2c0-1.6,1.3-2.9,2.9-2.9l0,0c1.6,0,2.9,1.3,2.9,2.9
			v10.2C696.7,317,695.4,318.3,693.8,318.3z"/>
		<path class="st18" d="M711.2,318.3L711.2,318.3c-1.6,0-2.9-1.3-2.9-2.9v-10.2c0-1.6,1.3-2.9,2.9-2.9l0,0c1.6,0,2.9,1.3,2.9,2.9
			v10.2C714.1,317,712.8,318.3,711.2,318.3z"/>
		<path class="st18" d="M728.6,318.3L728.6,318.3c-1.6,0-2.9-1.3-2.9-2.9v-10.2c0-1.6,1.3-2.9,2.9-2.9l0,0c1.6,0,2.9,1.3,2.9,2.9
			v10.2C731.5,317,730.2,318.3,728.6,318.3z"/>
		<path class="st18" d="M746,318.3L746,318.3c-1.6,0-2.9-1.3-2.9-2.9v-10.2c0-1.6,1.3-2.9,2.9-2.9l0,0c1.6,0,2.9,1.3,2.9,2.9v10.2
			C748.8,317,747.5,318.3,746,318.3z"/>
	</g>
	<circle class="st27" cx="676.5" cy="412.8" r="46.3"/>
	<circle class="st23" cx="676.5" cy="412.8" r="37.1"/>
</g>
<g id="PREVIEW">
	<g>
		<path class="st30" d="M191.1,249.6l4.8,0l0,15l-4.8,0c-2.8,0-5,2.3-5,5l0,1.5c0,2.8,2.3,5,5,5l4.8,0l0,15l-4.8,0c-2.8,0-5,2.3-5,5
			l0,1.5c0,2.8,2.3,5,5,5l4.8,0l0,15l-4.8,0c-2.8,0-5,2.3-5,5l0,1.5c0,2.8,2.3,5,5,5l4.8,0l0,15l-4.8,0c-2.8,0-5,2.3-5,5l0,1.5
			c0,2.8,2.3,5,5,5l4.8,0l0,15l-4.8,0c-2.8,0-5,2.3-5,5l0,1.5c0,2.8,2.3,5,5,5l4.8,0l0,15l-4.8,0c-2.8,0-5,2.3-5,5l0,1.5
			c0,2.8,2.3,5,5,5l4.8,0l0,15l-4.8,0c-2.8,0-5,2.3-5,5l0,1.5c0,2.7,2.3,5,5,5l4.8,0l0,5.5c0,7.6,6.2,13.8,13.8,13.8l19.6,0l3.9,0
			l156,0c7.6,0,13.8-6.2,13.8-13.8l0-207.7c0-7.6-6.2-13.8-13.8-13.8l-8.1,0l0,0l-146.7,0l0,0l-1.2,0l-23.5,0
			c-7.6,0-13.8,6.2-13.8,13.8l0,5.5l-4.8,0c-2.8,0-5,2.3-5,5l0,1.5C186.1,247.4,188.3,249.6,191.1,249.6z"/>
		<path class="st30" d="M1258.5,587.3c0-6.6-5.4-12-12-12l-3.2,0l0-5.4c0-1.6-1.3-2.9-2.9-2.9l-0.9,0c-1.6,0-2.9,1.3-2.9,2.9l0,5.4
			l-13.4,0l0-1.3c0,0,0,0,0,0l0-4c0-1.6-1.3-2.9-2.9-2.9l-0.9,0c-1.6,0-2.9,1.3-2.9,2.9l0,4v0l0,1.3l-13.4,0l0-5.4
			c0-1.6-1.3-2.9-2.9-2.9l-0.9,0c-1.6,0-2.9,1.3-2.9,2.9l0,4v0l0,1.3l-13.4,0l0-5.4c0-1.6-1.3-2.9-2.9-2.9l-0.9,0
			c-1.6,0-2.9,1.3-2.9,2.9l0,5.4l-13.4,0l0-5.4c0-1.6-1.3-2.9-2.9-2.9l-0.9,0c-1.6,0-2.9,1.3-2.9,2.9l0,4v0l0,1.3l-13.4,0l0-5.4
			c0-1.6-1.3-2.9-2.9-2.9l-0.9,0c-1.6,0-2.9,1.3-2.9,2.9l0,4v0l0,1.3l-13.4,0l0-5.4c0-1.6-1.3-2.9-2.9-2.9l-0.9,0
			c-1.6,0-2.9,1.3-2.9,2.9l0,5.4l-13.4,0l0-5.4c0-1.6-1.3-2.9-2.9-2.9l-0.9,0c-1.6,0-2.9,1.3-2.9,2.9l0,4v0l0,1.3l-13.4,0l0-5.4
			c0-1.6-1.3-2.9-2.9-2.9l-0.9,0c-1.6,0-2.9,1.3-2.9,2.9l0,4v0l0,1.3l-13.4,0l0-1.3c0,0,0,0,0,0l0-4c0-1.6-1.3-2.9-2.9-2.9l-0.9,0
			c-1.6,0-2.9,1.3-2.9,2.9l0,4v0l0,1.3l-13.4,0l0-5.4c0-1.6-1.3-2.9-2.9-2.9l-0.9,0c-1.6,0-2.9,1.3-2.9,2.9l0,4v0l0,1.3l-6.6,0
			c0,0,0,0,0,0l-1.2,0c-6.6,0-12,5.4-12,12l0,1.8c0,0,0,0,0,0l0,17.8l0,9.2l0,0l0,182.5c0,6.6,5.4,12,12,12l202.6,0l13.9,0
			c0,0,0,0,0,0l1.2,0c6.6,0,12-5.4,12-12L1258.5,587.3z"/>
		<path class="st30" d="M626.9,454.2l176.1,0c7.6,0,13.8-6.2,13.8-13.8l0-192.9L780,218.8l-153.2,0c-7.6,0-13.8,6.2-13.8,13.8
			l0,207.7C613.1,448,619.3,454.2,626.9,454.2z"/>
		<path class="st30" d="M406.9,571.2l-196.2,0l0,0l-19,0c-7.3,0-13.2,6.2-13.2,13.8l0,8.8l-6.1,0c-1.9,0-3.4,1.5-3.4,3.4l0,1
			c0,1.9,1.5,3.4,3.4,3.4l6.1,0l0,28.6l-6.1,0c-1.9,0-3.4,1.5-3.4,3.4l0,1c0,1.9,1.5,3.4,3.4,3.4l6.1,0l0,28.6l-6.1,0
			c-1.9,0-3.4,1.5-3.4,3.4l0,1c0,1.9,1.5,3.4,3.4,3.4l6.1,0l0,28.6l-6.1,0c-1.9,0-3.4,1.5-3.4,3.4l0,1c0,1.9,1.5,3.4,3.4,3.4l6.1,0
			l0,28.6l-6.1,0c-1.9,0-3.4,1.5-3.4,3.4l0,1c0,1.9,1.5,3.4,3.4,3.4l6.1,0l0,28.6l-6.1,0c-1.9,0-3.4,1.5-3.4,3.4l0,1
			c0,1.9,1.5,3.4,3.4,3.4l6.1,0l0,8.8c0,7.6,6,13.8,13.2,13.8l215.2,0c7.3,0,13.2-6.2,13.2-13.8l0-207.7
			C420.1,577.4,414.2,571.2,406.9,571.2z"/>
		<path class="st30" d="M830.2,571.2l-230.6,0c-7.8,0-14.2,6.2-14.2,13.8l0,207.7c0,7.6,6.4,13.8,14.2,13.8l230.6,0
			c7.8,0,14.2-6.2,14.2-13.8l0-207.7C844.3,577.4,838,571.2,830.2,571.2z"/>
		<path class="st30" d="M1040.1,249.5L1040.1,249.5l0,202.4c0,7.6,6.2,13.8,13.8,13.8l167.4,0c7.6,0,13.8-6.2,13.8-13.8l0-221.6
			c0-7.6-6.2-13.8-13.8-13.8h-0.1l0-3.3c0,0,0,0,0,0l0-3c0-1.6-1.3-2.9-2.9-2.9l-0.9,0c-1.6,0-2.9,1.3-2.9,2.9l0,3v0l0,3.3l-13.4,0
			l0-6.3c0-1.6-1.3-2.9-2.9-2.9l-0.9,0c-1.6,0-2.9,1.3-2.9,2.9l0,3v0l0,3.3l-13.4,0l0-6.3c0-1.6-1.3-2.9-2.9-2.9l-0.9,0
			c-1.6,0-2.9,1.3-2.9,2.9l0,6.3l-13.4,0l0-3.3c0,0,0,0,0,0l0-3c0-1.6-1.3-2.9-2.9-2.9l-0.9,0c-1.6,0-2.9,1.3-2.9,2.9l0,3v0l0,3.3
			l-13.4,0l0-6.3c0-1.6-1.3-2.9-2.9-2.9l-0.9,0c-1.6,0-2.9,1.3-2.9,2.9l0,3v0l0,3.3l-13.4,0l0-6.3c0-1.6-1.3-2.9-2.9-2.9l-0.9,0
			c-1.6,0-2.9,1.3-2.9,2.9l0,6.3l-13.4,0l0-3.3c0,0,0,0,0,0l0-3c0-1.6-1.3-2.9-2.9-2.9l-0.9,0c-1.6,0-2.9,1.3-2.9,2.9l0,3v0l0,3.3
			l-13.4,0l0-6.3c0-1.6-1.3-2.9-2.9-2.9l-0.9,0c-1.6,0-2.9,1.3-2.9,2.9l0,3v0l0,3.3l-13.4,0l0-6.3c0-1.6-1.3-2.9-2.9-2.9l-0.9,0
			c-1.6,0-2.9,1.3-2.9,2.9l0,6.3l-0.7,0c-7.6,0-13.8,6.2-13.8,13.8l0,18.3L1040.1,249.5z"/>
	</g>
	<g>
		<g>
			<path class="st31" d="M389.3,213.6l0,207.7c0,7.6-6.2,13.8-13.8,13.8l-179.5,0c-7.6,0-13.8-6.2-13.8-13.8l0-207.7
				c0-7.6,6.2-13.8,13.8-13.8l179.5,0C383.1,199.8,389.3,206,389.3,213.6z"/>
			<path class="st32" d="M215.5,199.9l0,235.4l-19.6,0c-7.6,0-13.8-6.2-13.8-13.8l0-207.7c0-7.6,6.2-13.8,13.8-13.8L215.5,199.9z"/>
			<g>
				<path class="st9" d="M193.2,230.6l-15.9,0c-2.8,0-5-2.2-5-5l0-1.5c0-2.8,2.2-5,5-5l15.9,0c2.8,0,5,2.2,5,5l0,1.5
					C198.2,228.4,196,230.6,193.2,230.6z"/>
				<path class="st9" d="M193.2,257.1l-15.9,0c-2.8,0-5-2.2-5-5l0-1.5c0-2.8,2.2-5,5-5l15.9,0c2.8,0,5,2.2,5,5l0,1.5
					C198.2,254.9,196,257.1,193.2,257.1z"/>
				<path class="st9" d="M193.2,283.6l-15.9,0c-2.8,0-5-2.2-5-5l0-1.5c0-2.8,2.2-5,5-5l15.9,0c2.8,0,5,2.2,5,5l0,1.5
					C198.2,281.3,196,283.6,193.2,283.6z"/>
				<path class="st9" d="M193.2,310.1l-15.9,0c-2.8,0-5-2.2-5-5l0-1.5c0-2.8,2.2-5,5-5l15.9,0c2.8,0,5,2.2,5,5l0,1.5
					C198.2,307.8,196,310.1,193.2,310.1z"/>
				<path class="st9" d="M193.3,336.5l-15.9,0c-2.7,0-5-2.2-5-5l0-1.5c0-2.8,2.2-5,5-5l15.9,0c2.8,0,5,2.2,5,5l0,1.5
					C198.3,334.3,196,336.5,193.3,336.5z"/>
				<path class="st9" d="M193.3,363l-15.9,0c-2.7,0-5-2.2-5-5l0-1.5c0-2.8,2.2-5,5-5l15.9,0c2.8,0,5,2.2,5,5l0,1.5
					C198.3,360.7,196,363,193.3,363z"/>
				<path class="st9" d="M193.3,389.5l-15.9,0c-2.8,0-5-2.2-5-5l0-1.5c0-2.8,2.2-5,5-5l15.9,0c2.8,0,5,2.2,5,5l0,1.5
					C198.3,387.2,196,389.5,193.3,389.5z"/>
				<path class="st9" d="M193.3,415.9l-15.9,0c-2.8,0-5-2.2-5-5l0-1.5c0-2.8,2.2-5,5-5l15.9,0c2.7,0,5,2.2,5,5l0,1.5
					C198.3,413.7,196,415.9,193.3,415.9z"/>
			</g>
			<g>
				<g>
					<path class="st10" d="M286.3,225.4l-52.4,0c-1,0-1.7-0.8-1.7-1.7c0-1,0.8-1.7,1.7-1.7l52.4,0c1,0,1.7,0.8,1.7,1.7
						C288,224.7,287.2,225.4,286.3,225.4z"/>
				</g>
				<g>
					<path class="st10" d="M353.6,251.9l-119.7,0c-1,0-1.7-0.8-1.7-1.7c0-1,0.8-1.7,1.7-1.7l119.7,0c1,0,1.7,0.8,1.7,1.7
						S354.6,251.9,353.6,251.9z"/>
				</g>
				<g>
					<path class="st10" d="M353.6,272.6l-119.7,0c-1,0-1.7-0.8-1.7-1.7c0-1,0.8-1.7,1.7-1.7l119.7,0c1,0,1.7,0.8,1.7,1.7
						C355.3,271.8,354.6,272.6,353.6,272.6z"/>
				</g>
				<g>
					<path class="st10" d="M353.6,293.3l-119.7,0c-1,0-1.7-0.8-1.7-1.7c0-1,0.8-1.7,1.7-1.7l119.7,0c1,0,1.7,0.8,1.7,1.7
						C355.3,292.6,354.6,293.3,353.6,293.3z"/>
				</g>
				<g>
					<path class="st10" d="M353.6,314.1l-119.7,0c-1,0-1.7-0.8-1.7-1.7c0-1,0.8-1.7,1.7-1.7l119.7,0c1,0,1.7,0.8,1.7,1.7
						C355.3,313.3,354.6,314.1,353.6,314.1z"/>
				</g>
				<g>
					<path class="st10" d="M353.6,334.8l-119.7,0c-1,0-1.7-0.8-1.7-1.7c0-1,0.8-1.7,1.7-1.7l119.7,0c1,0,1.7,0.8,1.7,1.7
						C355.4,334,354.6,334.8,353.6,334.8z"/>
				</g>
				<g>
					<path class="st10" d="M353.6,355.5l-119.7,0c-1,0-1.7-0.8-1.7-1.7c0-1,0.8-1.7,1.7-1.7l119.7,0c1,0,1.7,0.8,1.7,1.7
						C355.4,354.7,354.6,355.5,353.6,355.5z"/>
				</g>
				<g>
					<path class="st10" d="M353.6,376.2l-119.7,0c-1,0-1.7-0.8-1.7-1.7c0-1,0.8-1.7,1.7-1.7l119.7,0c1,0,1.7,0.8,1.7,1.7
						S354.6,376.2,353.6,376.2z"/>
				</g>
				<g>
					<path class="st10" d="M353.6,396.9l-119.7,0c-1,0-1.7-0.8-1.7-1.7c0-1,0.8-1.7,1.7-1.7l119.7,0c1,0,1.7,0.8,1.7,1.7
						S354.6,396.9,353.6,396.9z"/>
				</g>
				<g>
					<path class="st10" d="M353.6,417.6l-119.7,0c-1,0-1.7-0.8-1.7-1.7c0-1,0.8-1.7,1.7-1.7l119.7,0c1,0,1.7,0.8,1.7,1.7
						C355.4,416.9,354.6,417.6,353.6,417.6z"/>
				</g>
			</g>
			<rect x="215.5" y="199.9" class="st33" width="5.2" height="235.4"/>
			<path class="st34" d="M389.3,213.6l0,207.7c0,7.6-6.2,13.8-13.8,13.8l-8.1,0l0-235.4l8.1,0C383.1,199.8,389.3,206,389.3,213.6z"
				/>
		</g>
		<g>
			<path class="st35" d="M1232.8,791.6l-217.7,0c-6.6,0-12-5.4-12-12l0-211.4c0-6.6,5.4-12,12-12l217.7,0c6.6,0,12,5.4,12,12
				l0,211.4C1244.8,786.2,1239.4,791.6,1232.8,791.6z"/>
			<path class="st36" d="M1244.8,597.1l0,180.7c0,7.6-6,13.8-13.2,13.8l-25.3,0L1244.8,597.1z"/>
			<g>
				<g>
					<path class="st11" d="M1157.1,618.1l-132.4,0c-0.9,0-1.7-0.8-1.7-1.7c0-1,0.7-1.7,1.7-1.7l132.4,0c0.9,0,1.7,0.8,1.7,1.7
						C1158.8,617.3,1158,618.1,1157.1,618.1z"/>
				</g>
				<g>
					<path class="st11" d="M1221.7,640.6l-197,0c-0.9,0-1.7-0.8-1.7-1.7c0-1,0.7-1.7,1.7-1.7l197,0c0.9,0,1.7,0.8,1.7,1.7
						C1223.4,639.8,1222.6,640.6,1221.7,640.6z"/>
				</g>
				<g>
					<path class="st11" d="M1221.7,661.3l-197,0c-0.9,0-1.7-0.8-1.7-1.7c0-1,0.7-1.7,1.7-1.7l197,0c0.9,0,1.7,0.8,1.7,1.7
						C1223.4,660.5,1222.6,661.3,1221.7,661.3z"/>
				</g>
				<g>
					<path class="st11" d="M1221.7,682l-197,0c-0.9,0-1.7-0.8-1.7-1.7c0-1,0.7-1.7,1.7-1.7l197,0c0.9,0,1.7,0.8,1.7,1.7
						C1223.4,681.3,1222.6,682,1221.7,682z"/>
				</g>
				<g>
					<path class="st11" d="M1221.7,702.7l-197,0c-0.9,0-1.7-0.8-1.7-1.7c0-1,0.7-1.7,1.7-1.7l197,0c0.9,0,1.7,0.8,1.7,1.7
						C1223.4,702,1222.6,702.7,1221.7,702.7z"/>
				</g>
				<g>
					<path class="st11" d="M1221.7,723.5l-197,0c-0.9,0-1.7-0.8-1.7-1.7c0-1,0.7-1.7,1.7-1.7l197,0c0.9,0,1.7,0.8,1.7,1.7
						C1223.4,722.7,1222.6,723.5,1221.7,723.5z"/>
				</g>
				<g>
					<path class="st11" d="M1221.7,744.2l-197,0c-0.9,0-1.7-0.8-1.7-1.7c0-1,0.7-1.7,1.7-1.7l197,0c0.9,0,1.7,0.8,1.7,1.7
						C1223.4,743.4,1222.6,744.2,1221.7,744.2z"/>
				</g>
				<g>
					<path class="st11" d="M1221.7,764.9l-197,0c-0.9,0-1.7-0.8-1.7-1.7c0-1,0.7-1.7,1.7-1.7l197,0c0.9,0,1.7,0.8,1.7,1.7
						C1223.4,764.1,1222.6,764.9,1221.7,764.9z"/>
				</g>
			</g>
			<path class="st37" d="M1244.7,570.1l0,17.8l-241.7,0l0-17.8c0-7.6,6-13.8,13.2-13.8l215.2,0
				C1238.8,556.3,1244.7,562.5,1244.7,570.1z"/>
			<g>
				<path class="st15" d="M1026.7,570.5l-0.9,0c-1.6,0-2.9-1.3-2.9-2.9l0-12.7c0-1.6,1.3-2.9,2.9-2.9l0.9,0c1.6,0,2.9,1.3,2.9,2.9
					l0,12.7C1029.5,569.2,1028.2,570.5,1026.7,570.5z"/>
				<path class="st15" d="M1046.7,570.5l-0.9,0c-1.6,0-2.9-1.3-2.9-2.9l0-12.7c0-1.6,1.3-2.9,2.9-2.9l0.9,0c1.6,0,2.9,1.3,2.9,2.9
					l0,12.7C1049.5,569.2,1048.2,570.5,1046.7,570.5z"/>
				<path class="st15" d="M1066.7,570.5l-0.9,0c-1.6,0-2.9-1.3-2.9-2.9l0-12.7c0-1.6,1.3-2.9,2.9-2.9l0.9,0c1.6,0,2.9,1.3,2.9,2.9
					l0,12.7C1069.5,569.2,1068.2,570.5,1066.7,570.5z"/>
				<path class="st15" d="M1086.7,570.5l-0.9,0c-1.6,0-2.9-1.3-2.9-2.9l0-12.7c0-1.6,1.3-2.9,2.9-2.9l0.9,0c1.6,0,2.9,1.3,2.9,2.9
					l0,12.7C1089.5,569.2,1088.2,570.5,1086.7,570.5z"/>
				<path class="st15" d="M1106.7,570.5l-0.9,0c-1.6,0-2.9-1.3-2.9-2.9l0-12.7c0-1.6,1.3-2.9,2.9-2.9l0.9,0c1.6,0,2.9,1.3,2.9,2.9
					l0,12.7C1109.5,569.2,1108.2,570.5,1106.7,570.5z"/>
				<path class="st15" d="M1126.7,570.5l-0.9,0c-1.6,0-2.9-1.3-2.9-2.9l0-12.7c0-1.6,1.3-2.9,2.9-2.9l0.9,0c1.6,0,2.9,1.3,2.9,2.9
					l0,12.7C1129.5,569.2,1128.2,570.5,1126.7,570.5z"/>
				<path class="st15" d="M1146.7,570.5l-0.9,0c-1.6,0-2.9-1.3-2.9-2.9l0-12.7c0-1.6,1.3-2.9,2.9-2.9l0.9,0c1.6,0,2.9,1.3,2.9,2.9
					l0,12.7C1149.5,569.2,1148.2,570.5,1146.7,570.5z"/>
				<path class="st15" d="M1166.6,570.5l-0.9,0c-1.6,0-2.9-1.3-2.9-2.9l0-12.7c0-1.6,1.3-2.9,2.9-2.9l0.9,0c1.6,0,2.9,1.3,2.9,2.9
					l0,12.7C1169.5,569.2,1168.2,570.5,1166.6,570.5z"/>
				<path class="st15" d="M1186.6,570.5l-0.9,0c-1.6,0-2.9-1.3-2.9-2.9l0-12.7c0-1.6,1.3-2.9,2.9-2.9l0.9,0c1.6,0,2.9,1.3,2.9,2.9
					l0,12.7C1189.5,569.2,1188.2,570.5,1186.6,570.5z"/>
				<path class="st15" d="M1206.6,570.5l-0.9,0c-1.6,0-2.9-1.3-2.9-2.9l0-12.7c0-1.6,1.3-2.9,2.9-2.9l0.9,0c1.6,0,2.9,1.3,2.9,2.9
					l0,12.7C1209.5,569.2,1208.2,570.5,1206.6,570.5z"/>
				<path class="st15" d="M1226.6,570.5l-0.9,0c-1.6,0-2.9-1.3-2.9-2.9l0-12.7c0-1.6,1.3-2.9,2.9-2.9l0.9,0c1.6,0,2.9,1.3,2.9,2.9
					l0,12.7C1229.5,569.2,1228.2,570.5,1226.6,570.5z"/>
			</g>
			<g>
				<path class="st11" d="M1026.7,566.5l-0.9,0c-1.6,0-2.9-1.3-2.9-2.9l0-12.7c0-1.6,1.3-2.9,2.9-2.9l0.9,0c1.6,0,2.9,1.3,2.9,2.9
					l0,12.7C1029.5,565.2,1028.2,566.5,1026.7,566.5z"/>
				<path class="st11" d="M1046.7,566.5l-0.9,0c-1.6,0-2.9-1.3-2.9-2.9l0-12.7c0-1.6,1.3-2.9,2.9-2.9l0.9,0c1.6,0,2.9,1.3,2.9,2.9
					l0,12.7C1049.5,565.2,1048.2,566.5,1046.7,566.5z"/>
				<path class="st11" d="M1066.7,566.5l-0.9,0c-1.6,0-2.9-1.3-2.9-2.9l0-12.7c0-1.6,1.3-2.9,2.9-2.9l0.9,0c1.6,0,2.9,1.3,2.9,2.9
					l0,12.7C1069.5,565.2,1068.2,566.5,1066.7,566.5z"/>
				<path class="st11" d="M1086.7,566.5l-0.9,0c-1.6,0-2.9-1.3-2.9-2.9l0-12.7c0-1.6,1.3-2.9,2.9-2.9l0.9,0c1.6,0,2.9,1.3,2.9,2.9
					l0,12.7C1089.5,565.2,1088.2,566.5,1086.7,566.5z"/>
				<path class="st11" d="M1106.7,566.5l-0.9,0c-1.6,0-2.9-1.3-2.9-2.9l0-12.7c0-1.6,1.3-2.9,2.9-2.9l0.9,0c1.6,0,2.9,1.3,2.9,2.9
					l0,12.7C1109.5,565.2,1108.2,566.5,1106.7,566.5z"/>
				<path class="st11" d="M1126.7,566.5l-0.9,0c-1.6,0-2.9-1.3-2.9-2.9l0-12.7c0-1.6,1.3-2.9,2.9-2.9l0.9,0c1.6,0,2.9,1.3,2.9,2.9
					l0,12.7C1129.5,565.2,1128.2,566.5,1126.7,566.5z"/>
				<path class="st11" d="M1146.6,566.5l-0.9,0c-1.6,0-2.9-1.3-2.9-2.9l0-12.7c0-1.6,1.3-2.9,2.9-2.9l0.9,0c1.6,0,2.9,1.3,2.9,2.9
					l0,12.7C1149.5,565.2,1148.2,566.5,1146.6,566.5z"/>
				<path class="st11" d="M1166.6,566.5l-0.9,0c-1.6,0-2.9-1.3-2.9-2.9l0-12.7c0-1.6,1.3-2.9,2.9-2.9l0.9,0c1.6,0,2.9,1.3,2.9,2.9
					l0,12.7C1169.5,565.2,1168.2,566.5,1166.6,566.5z"/>
				<path class="st11" d="M1186.6,566.5l-0.9,0c-1.6,0-2.9-1.3-2.9-2.9l0-12.7c0-1.6,1.3-2.9,2.9-2.9l0.9,0c1.6,0,2.9,1.3,2.9,2.9
					l0,12.7C1189.5,565.2,1188.2,566.5,1186.6,566.5z"/>
				<path class="st11" d="M1206.6,566.5l-0.9,0c-1.6,0-2.9-1.3-2.9-2.9l0-12.7c0-1.6,1.3-2.9,2.9-2.9l0.9,0c1.6,0,2.9,1.3,2.9,2.9
					l0,12.7C1209.5,565.2,1208.2,566.5,1206.6,566.5z"/>
				<path class="st11" d="M1226.6,566.5l-0.9,0c-1.6,0-2.9-1.3-2.9-2.9l0-12.7c0-1.6,1.3-2.9,2.9-2.9l0.9,0c1.6,0,2.9,1.3,2.9,2.9
					l0,12.7C1229.5,565.2,1228.2,566.5,1226.6,566.5z"/>
			</g>
			<rect x="1003.1" y="588" class="st34" width="241.7" height="9.2"/>
		</g>
		<g>
			<path class="st38" d="M803,228.5l0,192.9c0,7.6-6.2,13.8-13.8,13.8l-176.1,0c-7.6,0-13.8-6.2-13.8-13.8l0-207.7
				c0-7.6,6.2-13.8,13.8-13.8l153.2,0L803,228.5z"/>
			<path class="st39" d="M632,199.8l0,235.4l-18.9,0c-7.6,0-13.8-6.2-13.8-13.8l0-207.7c0-7.6,6.2-13.8,13.8-13.8L632,199.8z"/>
			<g>
				<circle class="st17" cx="615.4" cy="216.8" r="4.4"/>
				<circle class="st17" cx="615.4" cy="241.8" r="4.4"/>
				<circle class="st17" cx="615.4" cy="266.9" r="4.4"/>
				<circle class="st17" cx="615.4" cy="291.9" r="4.4"/>
				<circle class="st17" cx="615.4" cy="316.9" r="4.4"/>
				<circle class="st17" cx="615.4" cy="342" r="4.4"/>
				<circle class="st17" cx="615.4" cy="367" r="4.4"/>
				<circle class="st17" cx="615.4" cy="392" r="4.4"/>
				<circle class="st17" cx="615.4" cy="417.1" r="4.4"/>
			</g>
			<g>
				<g>
					<rect x="641.2" y="223.4" class="st19" width="64.5" height="3.5"/>
				</g>
				<g>
					<rect x="641.2" y="240.9" class="st19" width="145" height="3.5"/>
				</g>
				<g>
					<rect x="641.2" y="254.7" class="st19" width="145" height="3.5"/>
				</g>
				<g>
					<rect x="641.2" y="268.5" class="st19" width="145" height="3.5"/>
				</g>
				<g>
					<rect x="641.2" y="282.3" class="st19" width="145" height="3.5"/>
				</g>
				<g>
					<rect x="641.2" y="296.1" class="st19" width="145" height="3.5"/>
				</g>
				<g>
					<rect x="641.2" y="309.9" class="st19" width="145" height="3.5"/>
				</g>
				<g>
					<rect x="641.2" y="323.7" class="st19" width="145" height="3.5"/>
				</g>
				<g>
					<rect x="641.2" y="337.6" class="st19" width="145" height="3.5"/>
				</g>
				<g>
					<rect x="641.2" y="351.4" class="st19" width="145" height="3.5"/>
				</g>
				<g>
					<rect x="641.2" y="365.2" class="st19" width="145" height="3.5"/>
				</g>
				<g>
					<rect x="641.2" y="379" class="st19" width="145" height="3.5"/>
				</g>
				<g>
					<rect x="641.2" y="392.8" class="st19" width="145" height="3.5"/>
				</g>
				<g>
					<rect x="641.2" y="406.6" class="st19" width="145" height="3.5"/>
				</g>
			</g>
			<path class="st19" d="M803,228.5c-0.6,0.2-1.3,0.3-2,0.3l-27.6,0c-3.9,0-7.1-3.2-7.1-7.1l0-21.9L803,228.5z"/>
		</g>
		<g>
			<path class="st40" d="M406.4,566l0,207.7c0,7.6-6,13.8-13.2,13.8l-215.2,0c-7.3,0-13.2-6.2-13.2-13.8l0-207.7
				c0-7.6,6-13.8,13.2-13.8l215.2,0C400.4,552.2,406.4,558.4,406.4,566z"/>
			<path class="st41" d="M196.9,552.2l0,235.4l-19,0c-7.3,0-13.2-6.2-13.2-13.8l0-207.7c0-7.6,6-13.8,13.2-13.8L196.9,552.2z"/>
			<g>
				<path class="st22" d="M170.8,582.7l-12.2,0c-1.9,0-3.4-1.5-3.4-3.4l0-1c0-1.9,1.5-3.4,3.4-3.4l12.2,0c1.9,0,3.4,1.5,3.4,3.4l0,1
					C174.2,581.2,172.7,582.7,170.8,582.7z"/>
				<path class="st22" d="M170.8,619.1l-12.2,0c-1.9,0-3.4-1.5-3.4-3.4l0-1c0-1.9,1.5-3.4,3.4-3.4l12.2,0c1.9,0,3.4,1.5,3.4,3.4l0,1
					C174.2,617.6,172.7,619.1,170.8,619.1z"/>
				<path class="st22" d="M170.8,655.6l-12.2,0c-1.9,0-3.4-1.5-3.4-3.4l0-1c0-1.9,1.5-3.4,3.4-3.4l12.2,0c1.9,0,3.4,1.5,3.4,3.4l0,1
					C174.2,654.1,172.7,655.6,170.8,655.6z"/>
				<path class="st22" d="M170.8,692l-12.2,0c-1.9,0-3.4-1.5-3.4-3.4l0-1c0-1.9,1.5-3.4,3.4-3.4l12.2,0c1.9,0,3.4,1.5,3.4,3.4l0,1
					C174.2,690.5,172.7,692,170.8,692z"/>
				<path class="st22" d="M170.8,728.5l-12.2,0c-1.9,0-3.4-1.5-3.4-3.4l0-1c0-1.9,1.5-3.4,3.4-3.4l12.2,0c1.9,0,3.4,1.5,3.4,3.4l0,1
					C174.2,726.9,172.7,728.5,170.8,728.5z"/>
				<path class="st22" d="M170.8,764.9l-12.2,0c-1.9,0-3.4-1.5-3.4-3.4l0-1c0-1.9,1.5-3.4,3.4-3.4l12.2,0c1.9,0,3.4,1.5,3.4,3.4l0,1
					C174.2,763.4,172.7,764.9,170.8,764.9z"/>
			</g>
			<path class="st17" d="M353.9,633.7l-112.4,0c-6.6,0-12-5.4-12-12l0-20.9c0-6.6,5.4-12,12-12l112.4,0c6.6,0,12,5.4,12,12l0,20.9
				C365.9,628.3,360.5,633.7,353.9,633.7z"/>
			<line class="st42" x1="244.3" y1="747.3" x2="351.3" y2="747.2"/>
			<line class="st43" x1="196.9" y1="586.7" x2="197" y2="753"/>
		</g>
		<g>
			<path class="st44" d="M830.6,566l0,207.7c0,7.6-6.4,13.8-14.2,13.8l-230.6,0c-7.8,0-14.2-6.2-14.2-13.8l0-207.7
				c0-7.6,6.4-13.8,14.2-13.8l230.6,0C824.2,552.2,830.6,558.4,830.6,566z"/>
			<g>
				<circle class="st18" cx="801.3" cy="576.4" r="5.5"/>
				<circle class="st18" cx="776.2" cy="576.4" r="5.5"/>
				<circle class="st18" cx="751.2" cy="576.4" r="5.5"/>
				<circle class="st18" cx="726.2" cy="576.4" r="5.5"/>
				<circle class="st18" cx="701.1" cy="576.4" r="5.5"/>
				<circle class="st18" cx="676.1" cy="576.4" r="5.5"/>
				<circle class="st18" cx="651.1" cy="576.4" r="5.5"/>
				<circle class="st18" cx="626" cy="576.4" r="5.5"/>
				<circle class="st18" cx="601" cy="576.4" r="5.5"/>
			</g>
			<path class="st45" d="M817.9,605.1l-233.6,0c-1,0-1.8-0.8-1.8-1.7l0-0.5c0-1,0.8-1.8,1.7-1.8l233.6,0c1,0,1.8,0.8,1.8,1.7l0,0.5
				C819.7,604.3,818.9,605.1,817.9,605.1z"/>
			<g>
				<g>
					<rect x="590.7" y="626.6" class="st17" width="221" height="2.3"/>
				</g>
				<g>
					<rect x="590.7" y="640.2" class="st17" width="221" height="2.3"/>
				</g>
				<g>
					<rect x="590.7" y="653.8" class="st17" width="221" height="2.3"/>
				</g>
				<g>
					<rect x="590.7" y="667.5" class="st17" width="221" height="2.3"/>
				</g>
				<g>
					<rect x="590.7" y="681.1" class="st17" width="221" height="2.3"/>
				</g>
				<g>
					<rect x="590.7" y="694.7" class="st17" width="221" height="2.3"/>
				</g>
				<g>
					<rect x="590.7" y="708.3" class="st17" width="221" height="2.3"/>
				</g>
				<g>
					<rect x="590.7" y="721.9" class="st17" width="221" height="2.3"/>
				</g>
				<g>
					<rect x="590.7" y="735.6" class="st17" width="221" height="2.3"/>
				</g>
				<g>
					<rect x="590.7" y="749.2" class="st17" width="221" height="2.3"/>
				</g>
				<g>
					<rect x="590.7" y="762.8" class="st17" width="221" height="2.3"/>
				</g>
			</g>
		</g>
		<g>
			<path class="st31" d="M1221.4,211.3l0,221.6c0,7.6-6.2,13.8-13.8,13.8l-167.4,0c-7.6,0-13.8-6.2-13.8-13.8l0-221.6
				c0-7.6,6.2-13.8,13.8-13.8l167.4,0C1215.2,197.5,1221.4,203.7,1221.4,211.3z"/>
			<path class="st18" d="M1171.9,393.5l-94.2,0c-1,0-1.7,0.8-1.7,1.8l0,0.5c0,1,0.8,1.7,1.8,1.7l94.2,0c1,0,1.7-0.8,1.7-1.8l0-0.5
				C1173.6,394.3,1172.9,393.5,1171.9,393.5z"/>
			<path class="st18" d="M1179,411.1l-108.4,0c-1,0-1.7,0.8-1.7,1.8l0,0.5c0,1,0.8,1.7,1.8,1.7l108.4,0c1,0,1.7-0.8,1.7-1.8l0-0.5
				C1180.8,411.9,1180,411.1,1179,411.1z"/>
			<path class="st46" d="M1221.4,216.5l0,13.9l-12.2,12.2l-12.2-12.2l-12.2,12.2l-12.2-12.2l-12.2,12.2l-12.2-12.2l-12.2,12.2
				l-12.2-12.2l-12.2,12.2l-12.2-12.2l-12.2,12.2l-12.2-12.2l-12.2,12.2l-12.2-12.2l-12.2,12.2l-12.2-12.2l0-13.9
				c0-7.6,6.2-13.8,13.8-13.8l167.4,0C1215.2,202.7,1221.4,208.9,1221.4,216.5z"/>
			<path class="st44" d="M1221.4,211.3l0,13.9l-12.2,12.2l-12.2-12.2l-12.2,12.2l-12.2-12.2l-12.2,12.2l-12.2-12.2l-12.2,12.2
				l-12.2-12.2l-12.2,12.2l-12.2-12.2l-12.2,12.2l-12.2-12.2l-12.2,12.2l-12.2-12.2l-12.2,12.2l-12.2-12.2l0-13.9
				c0-7.6,6.2-13.8,13.8-13.8l167.4,0C1215.2,197.5,1221.4,203.7,1221.4,211.3z"/>
			<g>
				<path class="st29" d="M1044.6,209.8l-0.9,0c-1.6,0-2.9-1.3-2.9-2.9l0-12.7c0-1.6,1.3-2.9,2.9-2.9l0.9,0c1.6,0,2.9,1.3,2.9,2.9
					l0,12.7C1047.5,208.5,1046.2,209.8,1044.6,209.8z"/>
				<path class="st29" d="M1064.6,209.8l-0.9,0c-1.6,0-2.9-1.3-2.9-2.9l0-12.7c0-1.6,1.3-2.9,2.9-2.9l0.9,0c1.6,0,2.9,1.3,2.9,2.9
					l0,12.7C1067.5,208.5,1066.2,209.8,1064.6,209.8z"/>
				<path class="st29" d="M1084.6,209.8l-0.9,0c-1.6,0-2.9-1.3-2.9-2.9l0-12.7c0-1.6,1.3-2.9,2.9-2.9l0.9,0c1.6,0,2.9,1.3,2.9,2.9
					l0,12.7C1087.5,208.5,1086.2,209.8,1084.6,209.8z"/>
				<path class="st29" d="M1104.6,209.8l-0.9,0c-1.6,0-2.9-1.3-2.9-2.9l0-12.7c0-1.6,1.3-2.9,2.9-2.9l0.9,0c1.6,0,2.9,1.3,2.9,2.9
					l0,12.7C1107.5,208.5,1106.2,209.8,1104.6,209.8z"/>
				<path class="st29" d="M1124.6,209.8l-0.9,0c-1.6,0-2.9-1.3-2.9-2.9l0-12.7c0-1.6,1.3-2.9,2.9-2.9l0.9,0c1.6,0,2.9,1.3,2.9,2.9
					l0,12.7C1127.5,208.5,1126.2,209.8,1124.6,209.8z"/>
				<path class="st29" d="M1144.6,209.8l-0.9,0c-1.6,0-2.9-1.3-2.9-2.9l0-12.7c0-1.6,1.3-2.9,2.9-2.9l0.9,0c1.6,0,2.9,1.3,2.9,2.9
					l0,12.7C1147.5,208.5,1146.2,209.8,1144.6,209.8z"/>
				<path class="st29" d="M1164.6,209.8l-0.9,0c-1.6,0-2.9-1.3-2.9-2.9l0-12.7c0-1.6,1.3-2.9,2.9-2.9l0.9,0c1.6,0,2.9,1.3,2.9,2.9
					l0,12.7C1167.5,208.5,1166.2,209.8,1164.6,209.8z"/>
				<path class="st29" d="M1184.6,209.8l-0.9,0c-1.6,0-2.9-1.3-2.9-2.9l0-12.7c0-1.6,1.3-2.9,2.9-2.9l0.9,0c1.6,0,2.9,1.3,2.9,2.9
					l0,12.7C1187.5,208.5,1186.2,209.8,1184.6,209.8z"/>
				<path class="st29" d="M1204.6,209.8l-0.9,0c-1.6,0-2.9-1.3-2.9-2.9l0-12.7c0-1.6,1.3-2.9,2.9-2.9l0.9,0c1.6,0,2.9,1.3,2.9,2.9
					l0,12.7C1207.5,208.5,1206.2,209.8,1204.6,209.8z"/>
			</g>
			<g>
				<path class="st18" d="M1044.6,206.8l-0.9,0c-1.6,0-2.9-1.3-2.9-2.9l0-12.7c0-1.6,1.3-2.9,2.9-2.9l0.9,0c1.6,0,2.9,1.3,2.9,2.9
					l0,12.7C1047.5,205.5,1046.2,206.8,1044.6,206.8z"/>
				<path class="st18" d="M1064.6,206.8l-0.9,0c-1.6,0-2.9-1.3-2.9-2.9l0-12.7c0-1.6,1.3-2.9,2.9-2.9l0.9,0c1.6,0,2.9,1.3,2.9,2.9
					l0,12.7C1067.5,205.5,1066.2,206.8,1064.6,206.8z"/>
				<path class="st18" d="M1084.6,206.8l-0.9,0c-1.6,0-2.9-1.3-2.9-2.9l0-12.7c0-1.6,1.3-2.9,2.9-2.9l0.9,0c1.6,0,2.9,1.3,2.9,2.9
					l0,12.7C1087.5,205.5,1086.2,206.8,1084.6,206.8z"/>
				<path class="st18" d="M1104.6,206.7l-0.9,0c-1.6,0-2.9-1.3-2.9-2.9l0-12.7c0-1.6,1.3-2.9,2.9-2.9l0.9,0c1.6,0,2.9,1.3,2.9,2.9
					l0,12.7C1107.5,205.5,1106.2,206.7,1104.6,206.7z"/>
				<path class="st18" d="M1124.6,206.7l-0.9,0c-1.6,0-2.9-1.3-2.9-2.9l0-12.7c0-1.6,1.3-2.9,2.9-2.9l0.9,0c1.6,0,2.9,1.3,2.9,2.9
					l0,12.7C1127.5,205.4,1126.2,206.7,1124.6,206.7z"/>
				<path class="st18" d="M1144.6,206.7l-0.9,0c-1.6,0-2.9-1.3-2.9-2.9l0-12.7c0-1.6,1.3-2.9,2.9-2.9l0.9,0c1.6,0,2.9,1.3,2.9,2.9
					l0,12.7C1147.5,205.4,1146.2,206.7,1144.6,206.7z"/>
				<path class="st18" d="M1164.6,206.7l-0.9,0c-1.6,0-2.9-1.3-2.9-2.9l0-12.7c0-1.6,1.3-2.9,2.9-2.9l0.9,0c1.6,0,2.9,1.3,2.9,2.9
					l0,12.7C1167.5,205.4,1166.2,206.7,1164.6,206.7z"/>
				<path class="st18" d="M1184.6,206.7l-0.9,0c-1.6,0-2.9-1.3-2.9-2.9l0-12.7c0-1.6,1.3-2.9,2.9-2.9l0.9,0c1.6,0,2.9,1.3,2.9,2.9
					l0,12.7C1187.5,205.4,1186.2,206.7,1184.6,206.7z"/>
				<path class="st18" d="M1204.6,206.7l-0.9,0c-1.6,0-2.9-1.3-2.9-2.9l0-12.7c0-1.6,1.3-2.9,2.9-2.9l0.9,0c1.6,0,2.9,1.3,2.9,2.9
					l0,12.7C1207.5,205.4,1206.2,206.7,1204.6,206.7z"/>
			</g>
			<circle class="st18" cx="1124.2" cy="315.5" r="53.3"/>
			<circle class="st17" cx="1124.2" cy="315.5" r="42.7"/>
		</g>
	</g>
</g>
</svg>
