<?xml version="1.0" encoding="utf-8"?>
<svg viewBox="508.331 674.521 217 235.6" xmlns="http://www.w3.org/2000/svg">
  <g transform="matrix(1, 0, 0, 1, 336.030945, 474.821136)">
    <path class="st31" d="M389.3,213.6l0,207.7c0,7.6-6.2,13.8-13.8,13.8l-179.5,0c-7.6,0-13.8-6.2-13.8-13.8l0-207.7 c0-7.6,6.2-13.8,13.8-13.8l179.5,0C383.1,199.8,389.3,206,389.3,213.6z" style="fill: rgb(74, 198, 224);"/>
    <path class="st32" d="M215.5,199.9l0,235.4l-19.6,0c-7.6,0-13.8-6.2-13.8-13.8l0-207.7c0-7.6,6.2-13.8,13.8-13.8L215.5,199.9z" style="fill: rgb(232, 76, 65);"/>
    <g>
      <path class="st9" d="M193.2,230.6l-15.9,0c-2.8,0-5-2.2-5-5l0-1.5c0-2.8,2.2-5,5-5l15.9,0c2.8,0,5,2.2,5,5l0,1.5 C198.2,228.4,196,230.6,193.2,230.6z" style="fill: rgb(110, 4, 0);"/>
      <path class="st9" d="M193.2,257.1l-15.9,0c-2.8,0-5-2.2-5-5l0-1.5c0-2.8,2.2-5,5-5l15.9,0c2.8,0,5,2.2,5,5l0,1.5 C198.2,254.9,196,257.1,193.2,257.1z" style="fill: rgb(110, 4, 0);"/>
      <path class="st9" d="M193.2,283.6l-15.9,0c-2.8,0-5-2.2-5-5l0-1.5c0-2.8,2.2-5,5-5l15.9,0c2.8,0,5,2.2,5,5l0,1.5 C198.2,281.3,196,283.6,193.2,283.6z" style="fill: rgb(110, 4, 0);"/>
      <path class="st9" d="M193.2,310.1l-15.9,0c-2.8,0-5-2.2-5-5l0-1.5c0-2.8,2.2-5,5-5l15.9,0c2.8,0,5,2.2,5,5l0,1.5 C198.2,307.8,196,310.1,193.2,310.1z" style="fill: rgb(110, 4, 0);"/>
      <path class="st9" d="M193.3,336.5l-15.9,0c-2.7,0-5-2.2-5-5l0-1.5c0-2.8,2.2-5,5-5l15.9,0c2.8,0,5,2.2,5,5l0,1.5 C198.3,334.3,196,336.5,193.3,336.5z" style="fill: rgb(110, 4, 0);"/>
      <path class="st9" d="M193.3,363l-15.9,0c-2.7,0-5-2.2-5-5l0-1.5c0-2.8,2.2-5,5-5l15.9,0c2.8,0,5,2.2,5,5l0,1.5 C198.3,360.7,196,363,193.3,363z" style="fill: rgb(110, 4, 0);"/>
      <path class="st9" d="M193.3,389.5l-15.9,0c-2.8,0-5-2.2-5-5l0-1.5c0-2.8,2.2-5,5-5l15.9,0c2.8,0,5,2.2,5,5l0,1.5 C198.3,387.2,196,389.5,193.3,389.5z" style="fill: rgb(110, 4, 0);"/>
      <path class="st9" d="M193.3,415.9l-15.9,0c-2.8,0-5-2.2-5-5l0-1.5c0-2.8,2.2-5,5-5l15.9,0c2.7,0,5,2.2,5,5l0,1.5 C198.3,413.7,196,415.9,193.3,415.9z" style="fill: rgb(110, 4, 0);"/>
    </g>
    <g>
      <g>
        <path class="st10" d="M286.3,225.4l-52.4,0c-1,0-1.7-0.8-1.7-1.7c0-1,0.8-1.7,1.7-1.7l52.4,0c1,0,1.7,0.8,1.7,1.7 C288,224.7,287.2,225.4,286.3,225.4z" style="fill: rgb(25, 115, 128);"/>
      </g>
      <g>
        <path class="st10" d="M353.6,251.9l-119.7,0c-1,0-1.7-0.8-1.7-1.7c0-1,0.8-1.7,1.7-1.7l119.7,0c1,0,1.7,0.8,1.7,1.7 S354.6,251.9,353.6,251.9z" style="fill: rgb(25, 115, 128);"/>
      </g>
      <g>
        <path class="st10" d="M353.6,272.6l-119.7,0c-1,0-1.7-0.8-1.7-1.7c0-1,0.8-1.7,1.7-1.7l119.7,0c1,0,1.7,0.8,1.7,1.7 C355.3,271.8,354.6,272.6,353.6,272.6z" style="fill: rgb(25, 115, 128);"/>
      </g>
      <g>
        <path class="st10" d="M353.6,293.3l-119.7,0c-1,0-1.7-0.8-1.7-1.7c0-1,0.8-1.7,1.7-1.7l119.7,0c1,0,1.7,0.8,1.7,1.7 C355.3,292.6,354.6,293.3,353.6,293.3z" style="fill: rgb(25, 115, 128);"/>
      </g>
      <g>
        <path class="st10" d="M353.6,314.1l-119.7,0c-1,0-1.7-0.8-1.7-1.7c0-1,0.8-1.7,1.7-1.7l119.7,0c1,0,1.7,0.8,1.7,1.7 C355.3,313.3,354.6,314.1,353.6,314.1z" style="fill: rgb(25, 115, 128);"/>
      </g>
      <g>
        <path class="st10" d="M353.6,334.8l-119.7,0c-1,0-1.7-0.8-1.7-1.7c0-1,0.8-1.7,1.7-1.7l119.7,0c1,0,1.7,0.8,1.7,1.7 C355.4,334,354.6,334.8,353.6,334.8z" style="fill: rgb(25, 115, 128);"/>
      </g>
      <g>
        <path class="st10" d="M353.6,355.5l-119.7,0c-1,0-1.7-0.8-1.7-1.7c0-1,0.8-1.7,1.7-1.7l119.7,0c1,0,1.7,0.8,1.7,1.7 C355.4,354.7,354.6,355.5,353.6,355.5z" style="fill: rgb(25, 115, 128);"/>
      </g>
      <g>
        <path class="st10" d="M353.6,376.2l-119.7,0c-1,0-1.7-0.8-1.7-1.7c0-1,0.8-1.7,1.7-1.7l119.7,0c1,0,1.7,0.8,1.7,1.7 S354.6,376.2,353.6,376.2z" style="fill: rgb(25, 115, 128);"/>
      </g>
      <g>
        <path class="st10" d="M353.6,396.9l-119.7,0c-1,0-1.7-0.8-1.7-1.7c0-1,0.8-1.7,1.7-1.7l119.7,0c1,0,1.7,0.8,1.7,1.7 S354.6,396.9,353.6,396.9z" style="fill: rgb(25, 115, 128);"/>
      </g>
      <g>
        <path class="st10" d="M353.6,417.6l-119.7,0c-1,0-1.7-0.8-1.7-1.7c0-1,0.8-1.7,1.7-1.7l119.7,0c1,0,1.7,0.8,1.7,1.7 C355.4,416.9,354.6,417.6,353.6,417.6z" style="fill: rgb(25, 115, 128);"/>
      </g>
    </g>
    <rect x="215.5" y="199.9" class="st33" width="5.2" height="235.4" style="fill: rgb(196, 52, 49);"/>
    <path class="st34" d="M389.3,213.6l0,207.7c0,7.6-6.2,13.8-13.8,13.8l-8.1,0l0-235.4l8.1,0C383.1,199.8,389.3,206,389.3,213.6z" style="fill: rgb(33, 154, 170);"/>
  </g>
</svg>