<?xml version="1.0" encoding="utf-8"?>
<svg viewBox="1339.031 1022.821 241.8 243.6" xmlns="http://www.w3.org/2000/svg">
  <g transform="matrix(1, 0, 0, 1, 336.030945, 474.821136)">
    <path class="st35" d="M1232.8,791.6l-217.7,0c-6.6,0-12-5.4-12-12l0-211.4c0-6.6,5.4-12,12-12l217.7,0c6.6,0,12,5.4,12,12 l0,211.4C1244.8,786.2,1239.4,791.6,1232.8,791.6z" style="fill: rgb(240, 155, 54);"/>
    <path class="st36" d="M1244.8,597.1l0,180.7c0,7.6-6,13.8-13.2,13.8l-25.3,0L1244.8,597.1z" style="fill: rgb(237, 124, 49);"/>
    <g>
      <g>
        <path class="st11" d="M1157.1,618.1l-132.4,0c-0.9,0-1.7-0.8-1.7-1.7c0-1,0.7-1.7,1.7-1.7l132.4,0c0.9,0,1.7,0.8,1.7,1.7 C1158.8,617.3,1158,618.1,1157.1,618.1z" style="fill: rgb(130, 71, 55);"/>
      </g>
      <g>
        <path class="st11" d="M1221.7,640.6l-197,0c-0.9,0-1.7-0.8-1.7-1.7c0-1,0.7-1.7,1.7-1.7l197,0c0.9,0,1.7,0.8,1.7,1.7 C1223.4,639.8,1222.6,640.6,1221.7,640.6z" style="fill: rgb(130, 71, 55);"/>
      </g>
      <g>
        <path class="st11" d="M1221.7,661.3l-197,0c-0.9,0-1.7-0.8-1.7-1.7c0-1,0.7-1.7,1.7-1.7l197,0c0.9,0,1.7,0.8,1.7,1.7 C1223.4,660.5,1222.6,661.3,1221.7,661.3z" style="fill: rgb(130, 71, 55);"/>
      </g>
      <g>
        <path class="st11" d="M1221.7,682l-197,0c-0.9,0-1.7-0.8-1.7-1.7c0-1,0.7-1.7,1.7-1.7l197,0c0.9,0,1.7,0.8,1.7,1.7 C1223.4,681.3,1222.6,682,1221.7,682z" style="fill: rgb(130, 71, 55);"/>
      </g>
      <g>
        <path class="st11" d="M1221.7,702.7l-197,0c-0.9,0-1.7-0.8-1.7-1.7c0-1,0.7-1.7,1.7-1.7l197,0c0.9,0,1.7,0.8,1.7,1.7 C1223.4,702,1222.6,702.7,1221.7,702.7z" style="fill: rgb(130, 71, 55);"/>
      </g>
      <g>
        <path class="st11" d="M1221.7,723.5l-197,0c-0.9,0-1.7-0.8-1.7-1.7c0-1,0.7-1.7,1.7-1.7l197,0c0.9,0,1.7,0.8,1.7,1.7 C1223.4,722.7,1222.6,723.5,1221.7,723.5z" style="fill: rgb(130, 71, 55);"/>
      </g>
      <g>
        <path class="st11" d="M1221.7,744.2l-197,0c-0.9,0-1.7-0.8-1.7-1.7c0-1,0.7-1.7,1.7-1.7l197,0c0.9,0,1.7,0.8,1.7,1.7 C1223.4,743.4,1222.6,744.2,1221.7,744.2z" style="fill: rgb(130, 71, 55);"/>
      </g>
      <g>
        <path class="st11" d="M1221.7,764.9l-197,0c-0.9,0-1.7-0.8-1.7-1.7c0-1,0.7-1.7,1.7-1.7l197,0c0.9,0,1.7,0.8,1.7,1.7 C1223.4,764.1,1222.6,764.9,1221.7,764.9z" style="fill: rgb(130, 71, 55);"/>
      </g>
    </g>
    <path class="st37" d="M1244.7,570.1l0,17.8l-241.7,0l0-17.8c0-7.6,6-13.8,13.2-13.8l215.2,0 C1238.8,556.3,1244.7,562.5,1244.7,570.1z" style="fill: rgb(0, 173, 220);"/>
    <g>
      <path class="st15" d="M1026.7,570.5l-0.9,0c-1.6,0-2.9-1.3-2.9-2.9l0-12.7c0-1.6,1.3-2.9,2.9-2.9l0.9,0c1.6,0,2.9,1.3,2.9,2.9 l0,12.7C1029.5,569.2,1028.2,570.5,1026.7,570.5z" style="fill: rgb(22, 129, 137);"/>
      <path class="st15" d="M1046.7,570.5l-0.9,0c-1.6,0-2.9-1.3-2.9-2.9l0-12.7c0-1.6,1.3-2.9,2.9-2.9l0.9,0c1.6,0,2.9,1.3,2.9,2.9 l0,12.7C1049.5,569.2,1048.2,570.5,1046.7,570.5z" style="fill: rgb(22, 129, 137);"/>
      <path class="st15" d="M1066.7,570.5l-0.9,0c-1.6,0-2.9-1.3-2.9-2.9l0-12.7c0-1.6,1.3-2.9,2.9-2.9l0.9,0c1.6,0,2.9,1.3,2.9,2.9 l0,12.7C1069.5,569.2,1068.2,570.5,1066.7,570.5z" style="fill: rgb(22, 129, 137);"/>
      <path class="st15" d="M1086.7,570.5l-0.9,0c-1.6,0-2.9-1.3-2.9-2.9l0-12.7c0-1.6,1.3-2.9,2.9-2.9l0.9,0c1.6,0,2.9,1.3,2.9,2.9 l0,12.7C1089.5,569.2,1088.2,570.5,1086.7,570.5z" style="fill: rgb(22, 129, 137);"/>
      <path class="st15" d="M1106.7,570.5l-0.9,0c-1.6,0-2.9-1.3-2.9-2.9l0-12.7c0-1.6,1.3-2.9,2.9-2.9l0.9,0c1.6,0,2.9,1.3,2.9,2.9 l0,12.7C1109.5,569.2,1108.2,570.5,1106.7,570.5z" style="fill: rgb(22, 129, 137);"/>
      <path class="st15" d="M1126.7,570.5l-0.9,0c-1.6,0-2.9-1.3-2.9-2.9l0-12.7c0-1.6,1.3-2.9,2.9-2.9l0.9,0c1.6,0,2.9,1.3,2.9,2.9 l0,12.7C1129.5,569.2,1128.2,570.5,1126.7,570.5z" style="fill: rgb(22, 129, 137);"/>
      <path class="st15" d="M1146.7,570.5l-0.9,0c-1.6,0-2.9-1.3-2.9-2.9l0-12.7c0-1.6,1.3-2.9,2.9-2.9l0.9,0c1.6,0,2.9,1.3,2.9,2.9 l0,12.7C1149.5,569.2,1148.2,570.5,1146.7,570.5z" style="fill: rgb(22, 129, 137);"/>
      <path class="st15" d="M1166.6,570.5l-0.9,0c-1.6,0-2.9-1.3-2.9-2.9l0-12.7c0-1.6,1.3-2.9,2.9-2.9l0.9,0c1.6,0,2.9,1.3,2.9,2.9 l0,12.7C1169.5,569.2,1168.2,570.5,1166.6,570.5z" style="fill: rgb(22, 129, 137);"/>
      <path class="st15" d="M1186.6,570.5l-0.9,0c-1.6,0-2.9-1.3-2.9-2.9l0-12.7c0-1.6,1.3-2.9,2.9-2.9l0.9,0c1.6,0,2.9,1.3,2.9,2.9 l0,12.7C1189.5,569.2,1188.2,570.5,1186.6,570.5z" style="fill: rgb(22, 129, 137);"/>
      <path class="st15" d="M1206.6,570.5l-0.9,0c-1.6,0-2.9-1.3-2.9-2.9l0-12.7c0-1.6,1.3-2.9,2.9-2.9l0.9,0c1.6,0,2.9,1.3,2.9,2.9 l0,12.7C1209.5,569.2,1208.2,570.5,1206.6,570.5z" style="fill: rgb(22, 129, 137);"/>
      <path class="st15" d="M1226.6,570.5l-0.9,0c-1.6,0-2.9-1.3-2.9-2.9l0-12.7c0-1.6,1.3-2.9,2.9-2.9l0.9,0c1.6,0,2.9,1.3,2.9,2.9 l0,12.7C1229.5,569.2,1228.2,570.5,1226.6,570.5z" style="fill: rgb(22, 129, 137);"/>
    </g>
    <g>
      <path class="st11" d="M1026.7,566.5l-0.9,0c-1.6,0-2.9-1.3-2.9-2.9l0-12.7c0-1.6,1.3-2.9,2.9-2.9l0.9,0c1.6,0,2.9,1.3,2.9,2.9 l0,12.7C1029.5,565.2,1028.2,566.5,1026.7,566.5z" style="fill: rgb(130, 71, 55);"/>
      <path class="st11" d="M1046.7,566.5l-0.9,0c-1.6,0-2.9-1.3-2.9-2.9l0-12.7c0-1.6,1.3-2.9,2.9-2.9l0.9,0c1.6,0,2.9,1.3,2.9,2.9 l0,12.7C1049.5,565.2,1048.2,566.5,1046.7,566.5z" style="fill: rgb(130, 71, 55);"/>
      <path class="st11" d="M1066.7,566.5l-0.9,0c-1.6,0-2.9-1.3-2.9-2.9l0-12.7c0-1.6,1.3-2.9,2.9-2.9l0.9,0c1.6,0,2.9,1.3,2.9,2.9 l0,12.7C1069.5,565.2,1068.2,566.5,1066.7,566.5z" style="fill: rgb(130, 71, 55);"/>
      <path class="st11" d="M1086.7,566.5l-0.9,0c-1.6,0-2.9-1.3-2.9-2.9l0-12.7c0-1.6,1.3-2.9,2.9-2.9l0.9,0c1.6,0,2.9,1.3,2.9,2.9 l0,12.7C1089.5,565.2,1088.2,566.5,1086.7,566.5z" style="fill: rgb(130, 71, 55);"/>
      <path class="st11" d="M1106.7,566.5l-0.9,0c-1.6,0-2.9-1.3-2.9-2.9l0-12.7c0-1.6,1.3-2.9,2.9-2.9l0.9,0c1.6,0,2.9,1.3,2.9,2.9 l0,12.7C1109.5,565.2,1108.2,566.5,1106.7,566.5z" style="fill: rgb(130, 71, 55);"/>
      <path class="st11" d="M1126.7,566.5l-0.9,0c-1.6,0-2.9-1.3-2.9-2.9l0-12.7c0-1.6,1.3-2.9,2.9-2.9l0.9,0c1.6,0,2.9,1.3,2.9,2.9 l0,12.7C1129.5,565.2,1128.2,566.5,1126.7,566.5z" style="fill: rgb(130, 71, 55);"/>
      <path class="st11" d="M1146.6,566.5l-0.9,0c-1.6,0-2.9-1.3-2.9-2.9l0-12.7c0-1.6,1.3-2.9,2.9-2.9l0.9,0c1.6,0,2.9,1.3,2.9,2.9 l0,12.7C1149.5,565.2,1148.2,566.5,1146.6,566.5z" style="fill: rgb(130, 71, 55);"/>
      <path class="st11" d="M1166.6,566.5l-0.9,0c-1.6,0-2.9-1.3-2.9-2.9l0-12.7c0-1.6,1.3-2.9,2.9-2.9l0.9,0c1.6,0,2.9,1.3,2.9,2.9 l0,12.7C1169.5,565.2,1168.2,566.5,1166.6,566.5z" style="fill: rgb(130, 71, 55);"/>
      <path class="st11" d="M1186.6,566.5l-0.9,0c-1.6,0-2.9-1.3-2.9-2.9l0-12.7c0-1.6,1.3-2.9,2.9-2.9l0.9,0c1.6,0,2.9,1.3,2.9,2.9 l0,12.7C1189.5,565.2,1188.2,566.5,1186.6,566.5z" style="fill: rgb(130, 71, 55);"/>
      <path class="st11" d="M1206.6,566.5l-0.9,0c-1.6,0-2.9-1.3-2.9-2.9l0-12.7c0-1.6,1.3-2.9,2.9-2.9l0.9,0c1.6,0,2.9,1.3,2.9,2.9 l0,12.7C1209.5,565.2,1208.2,566.5,1206.6,566.5z" style="fill: rgb(130, 71, 55);"/>
      <path class="st11" d="M1226.6,566.5l-0.9,0c-1.6,0-2.9-1.3-2.9-2.9l0-12.7c0-1.6,1.3-2.9,2.9-2.9l0.9,0c1.6,0,2.9,1.3,2.9,2.9 l0,12.7C1229.5,565.2,1228.2,566.5,1226.6,566.5z" style="fill: rgb(130, 71, 55);"/>
    </g>
    <rect x="1003.1" y="588" class="st34" width="241.7" height="9.2" style="fill: rgb(33, 154, 170);"/>
  </g>
</svg>