<?xml version="1.0" encoding="utf-8"?>
<svg viewBox="907.631 1027.021 259 235.3" xmlns="http://www.w3.org/2000/svg">
  <g transform="matrix(1, 0, 0, 1, 336.030945, 474.821136)">
    <path class="st44" d="M830.6,566l0,207.7c0,7.6-6.4,13.8-14.2,13.8l-230.6,0c-7.8,0-14.2-6.2-14.2-13.8l0-207.7 c0-7.6,6.4-13.8,14.2-13.8l230.6,0C824.2,552.2,830.6,558.4,830.6,566z" style="fill: rgb(239, 77, 78);"/>
    <g>
      <circle class="st18" cx="801.3" cy="576.4" r="5.5" style="fill: rgb(127, 46, 25);"/>
      <circle class="st18" cx="776.2" cy="576.4" r="5.5" style="fill: rgb(127, 46, 25);"/>
      <circle class="st18" cx="751.2" cy="576.4" r="5.5" style="fill: rgb(127, 46, 25);"/>
      <circle class="st18" cx="726.2" cy="576.4" r="5.5" style="fill: rgb(127, 46, 25);"/>
      <circle class="st18" cx="701.1" cy="576.4" r="5.5" style="fill: rgb(127, 46, 25);"/>
      <circle class="st18" cx="676.1" cy="576.4" r="5.5" style="fill: rgb(127, 46, 25);"/>
      <circle class="st18" cx="651.1" cy="576.4" r="5.5" style="fill: rgb(127, 46, 25);"/>
      <circle class="st18" cx="626" cy="576.4" r="5.5" style="fill: rgb(127, 46, 25);"/>
      <circle class="st18" cx="601" cy="576.4" r="5.5" style="fill: rgb(127, 46, 25);"/>
    </g>
    <path class="st45" d="M817.9,605.1l-233.6,0c-1,0-1.8-0.8-1.8-1.7l0-0.5c0-1,0.8-1.8,1.7-1.8l233.6,0c1,0,1.8,0.8,1.8,1.7l0,0.5 C819.7,604.3,818.9,605.1,817.9,605.1z" style="fill: rgb(191, 44, 52);"/>
    <g>
      <g>
        <rect x="590.7" y="626.6" class="st17" width="221" height="2.3" style="fill: rgb(255, 255, 255);"/>
      </g>
      <g>
        <rect x="590.7" y="640.2" class="st17" width="221" height="2.3" style="fill: rgb(255, 255, 255);"/>
      </g>
      <g>
        <rect x="590.7" y="653.8" class="st17" width="221" height="2.3" style="fill: rgb(255, 255, 255);"/>
      </g>
      <g>
        <rect x="590.7" y="667.5" class="st17" width="221" height="2.3" style="fill: rgb(255, 255, 255);"/>
      </g>
      <g>
        <rect x="590.7" y="681.1" class="st17" width="221" height="2.3" style="fill: rgb(255, 255, 255);"/>
      </g>
      <g>
        <rect x="590.7" y="694.7" class="st17" width="221" height="2.3" style="fill: rgb(255, 255, 255);"/>
      </g>
      <g>
        <rect x="590.7" y="708.3" class="st17" width="221" height="2.3" style="fill: rgb(255, 255, 255);"/>
      </g>
      <g>
        <rect x="590.7" y="721.9" class="st17" width="221" height="2.3" style="fill: rgb(255, 255, 255);"/>
      </g>
      <g>
        <rect x="590.7" y="735.6" class="st17" width="221" height="2.3" style="fill: rgb(255, 255, 255);"/>
      </g>
      <g>
        <rect x="590.7" y="749.2" class="st17" width="221" height="2.3" style="fill: rgb(255, 255, 255);"/>
      </g>
      <g>
        <rect x="590.7" y="762.8" class="st17" width="221" height="2.3" style="fill: rgb(255, 255, 255);"/>
      </g>
    </g>
  </g>
</svg>