<?xml version="1.0" encoding="utf-8"?>
<svg viewBox="935.331 674.621 203.7 235.4" xmlns="http://www.w3.org/2000/svg">
  <g transform="matrix(1, 0, 0, 1, 336.030945, 474.821136)">
    <path class="st38" d="M803,228.5l0,192.9c0,7.6-6.2,13.8-13.8,13.8l-176.1,0c-7.6,0-13.8-6.2-13.8-13.8l0-207.7 c0-7.6,6.2-13.8,13.8-13.8l153.2,0L803,228.5z" style="fill: rgb(194, 206, 47);"/>
    <path class="st39" d="M632,199.8l0,235.4l-18.9,0c-7.6,0-13.8-6.2-13.8-13.8l0-207.7c0-7.6,6.2-13.8,13.8-13.8L632,199.8z" style="fill: rgb(22, 130, 126);"/>
    <g>
      <circle class="st17" cx="615.4" cy="216.8" r="4.4" style="fill: rgb(255, 255, 255);"/>
      <circle class="st17" cx="615.4" cy="241.8" r="4.4" style="fill: rgb(255, 255, 255);"/>
      <circle class="st17" cx="615.4" cy="266.9" r="4.4" style="fill: rgb(255, 255, 255);"/>
      <circle class="st17" cx="615.4" cy="291.9" r="4.4" style="fill: rgb(255, 255, 255);"/>
      <circle class="st17" cx="615.4" cy="316.9" r="4.4" style="fill: rgb(255, 255, 255);"/>
      <circle class="st17" cx="615.4" cy="342" r="4.4" style="fill: rgb(255, 255, 255);"/>
      <circle class="st17" cx="615.4" cy="367" r="4.4" style="fill: rgb(255, 255, 255);"/>
      <circle class="st17" cx="615.4" cy="392" r="4.4" style="fill: rgb(255, 255, 255);"/>
      <circle class="st17" cx="615.4" cy="417.1" r="4.4" style="fill: rgb(255, 255, 255);"/>
    </g>
    <g>
      <g>
        <rect x="641.2" y="223.4" class="st19" width="64.5" height="3.5" style="fill: rgb(157, 160, 28);"/>
      </g>
      <g>
        <rect x="641.2" y="240.9" class="st19" width="145" height="3.5" style="fill: rgb(157, 160, 28);"/>
      </g>
      <g>
        <rect x="641.2" y="254.7" class="st19" width="145" height="3.5" style="fill: rgb(157, 160, 28);"/>
      </g>
      <g>
        <rect x="641.2" y="268.5" class="st19" width="145" height="3.5" style="fill: rgb(157, 160, 28);"/>
      </g>
      <g>
        <rect x="641.2" y="282.3" class="st19" width="145" height="3.5" style="fill: rgb(157, 160, 28);"/>
      </g>
      <g>
        <rect x="641.2" y="296.1" class="st19" width="145" height="3.5" style="fill: rgb(157, 160, 28);"/>
      </g>
      <g>
        <rect x="641.2" y="309.9" class="st19" width="145" height="3.5" style="fill: rgb(157, 160, 28);"/>
      </g>
      <g>
        <rect x="641.2" y="323.7" class="st19" width="145" height="3.5" style="fill: rgb(157, 160, 28);"/>
      </g>
      <g>
        <rect x="641.2" y="337.6" class="st19" width="145" height="3.5" style="fill: rgb(157, 160, 28);"/>
      </g>
      <g>
        <rect x="641.2" y="351.4" class="st19" width="145" height="3.5" style="fill: rgb(157, 160, 28);"/>
      </g>
      <g>
        <rect x="641.2" y="365.2" class="st19" width="145" height="3.5" style="fill: rgb(157, 160, 28);"/>
      </g>
      <g>
        <rect x="641.2" y="379" class="st19" width="145" height="3.5" style="fill: rgb(157, 160, 28);"/>
      </g>
      <g>
        <rect x="641.2" y="392.8" class="st19" width="145" height="3.5" style="fill: rgb(157, 160, 28);"/>
      </g>
      <g>
        <rect x="641.2" y="406.6" class="st19" width="145" height="3.5" style="fill: rgb(157, 160, 28);"/>
      </g>
    </g>
    <path class="st19" d="M803,228.5c-0.6,0.2-1.3,0.3-2,0.3l-27.6,0c-3.9,0-7.1-3.2-7.1-7.1l0-21.9L803,228.5z" style="fill: rgb(157, 160, 28);"/>
  </g>
</svg>