<?xml version="1.0" encoding="utf-8"?>
<svg viewBox="422.34 196.041 257.8 257.8" xmlns="http://www.w3.org/2000/svg">
  <g transform="matrix(1, 0, 0, 1, -524.760315, -349.659332)">
    <circle class="st21" cx="1076" cy="674.6" r="128.9" style="fill: rgb(249, 147, 193);"/>
    <g>
      <g>
        <rect x="1032.2" y="612.9" class="st8" width="96.5" height="123.4" style="fill: rgb(255, 202, 133);"/>
        <rect x="1032.2" y="612.9" class="st22" width="11.7" height="123.4" style="fill: rgb(0, 166, 81);"/>
        <rect x="1053.3" y="621.5" class="st23" width="65.5" height="11.1" style="fill: rgb(255, 255, 255);"/>
      </g>
      <g>
        <rect x="1027.5" y="613.5" class="st24" width="9.7" height="3.6" style="fill: rgb(43, 57, 144);"/>
        <rect x="1026.7" y="653" class="st25" width="11.3" height="67.8" style="fill: rgb(28, 117, 188);"/>
        <polygon class="st24" points="1032.4,720.8 1026.7,720.8 1030.7,732.5 1032.4,732.5 1034,732.5 1038,720.8 &#9;&#9;&#9;" style="fill: rgb(43, 57, 144);"/>
        <g>
          <path class="st6" d="M1031.2,732.5v2.1c0,0.6,0.5,1.1,1.1,1.1s1.1-0.5,1.1-1.1v-2.1H1031.2z" style="fill: rgb(35, 31, 32);"/>
        </g>
        <rect x="1026.7" y="717.1" class="st24" width="11.3" height="2.1" style="fill: rgb(43, 57, 144);"/>
        <g>
          <rect x="1026.7" y="617.2" class="st25" width="11.3" height="35.2" style="fill: rgb(28, 117, 188);"/>
          <path class="st15" d="M1025.1,645v-28.5h12.2v-1.7h-13.8v1.7l0,0v34.7h1.7v-1.9c0.6,0,1-0.9,1-2.1 C1026.1,645.9,1025.6,645,1025.1,645z" style="fill: rgb(128, 130, 133);"/>
        </g>
        <rect x="1026.7" y="651.8" class="st24" width="11.3" height="1.2" style="fill: rgb(43, 57, 144);"/>
      </g>
    </g>
  </g>
</svg>