<?xml version="1.0" encoding="utf-8"?>
<svg viewBox="-351.916 -132.082 257.8 257.8" xmlns="http://www.w3.org/2000/svg">
  <g transform="matrix(1, 0, 0, 1, -547.11554, -326.481628)">
    <circle class="st0" cx="324.1" cy="323.3" r="128.9" style="fill: rgb(155, 106, 198);"/>
    <g>
      <g>
        <rect x="272.9" y="272.7" class="st2" width="8.4" height="12.3" style="fill: rgb(188, 190, 192);"/>
        <rect x="272.9" y="273.7" class="st3" width="8.4" height="1.6" style="fill: rgb(132, 167, 178);"/>
        <rect x="272.9" y="276.1" class="st3" width="8.4" height="1.6" style="fill: rgb(132, 167, 178);"/>
        <rect x="272.9" y="279.8" class="st3" width="8.4" height="1.6" style="fill: rgb(132, 167, 178);"/>
        <rect x="272.9" y="282.1" class="st3" width="8.4" height="1.6" style="fill: rgb(132, 167, 178);"/>
        <g>
          <path class="st4" d="M281.3,268.7c0-1.4-1.1-2.5-2.5-2.5h-3.4c-1.4,0-2.5,1.1-2.5,2.5v4h8.4V268.7z" style="fill: rgb(252, 124, 124);"/>
        </g>
        <g>
          <polygon class="st5" points="281.3,373.6 272.9,373.6 276,382.1 278.3,382.1 &#9;&#9;&#9;&#9;" style="fill: rgb(252, 221, 180);"/>
          <polygon class="st6" points="278.3,382.1 276,382.1 277.1,385.3 &#9;&#9;&#9;&#9;" style="fill: rgb(35, 31, 32);"/>
        </g>
        <g>
          <polygon class="st7" points="275.7,285.1 275.7,373.6 277.1,375.9 278.5,373.6 278.5,285.1 &#9;&#9;&#9;&#9;" style="fill: rgb(251, 176, 64);"/>
          <polygon class="st8" points="272.9,285.1 272.9,373.6 274.3,375.9 275.7,373.6 275.7,285.1 &#9;&#9;&#9;&#9;" style="fill: rgb(255, 202, 133);"/>
          <polygon class="st8" points="278.5,285.1 278.5,373.6 279.9,375.9 281.3,373.6 281.3,285.1 &#9;&#9;&#9;&#9;" style="fill: rgb(255, 202, 133);"/>
        </g>
      </g>
      <g>
        <polygon class="st9" points="375.3,261.3 284,261.3 284,385.3 357.4,385.3 375.3,367.3 &#9;&#9;&#9;" style="fill: rgb(187, 255, 218);"/>
        <polygon class="st10" points="357.4,385.3 375.3,367.3 357.4,367.3 &#9;&#9;&#9;" style="fill: rgb(116, 206, 154);"/>
      </g>
      <rect x="284" y="261.3" class="st6" width="91.3" height="14.6" style="fill: rgb(35, 31, 32);"/>
      <g>
        <rect x="296.3" y="283.9" class="st11" width="67.3" height="1.3" style="fill: rgb(109, 110, 113);"/>
      </g>
      <g>
        <rect x="296.3" y="291.4" class="st11" width="67.3" height="1.3" style="fill: rgb(109, 110, 113);"/>
      </g>
      <g>
        <rect x="296.3" y="298.9" class="st11" width="67.3" height="1.3" style="fill: rgb(109, 110, 113);"/>
      </g>
      <g>
        <rect x="296.3" y="306.4" class="st11" width="67.3" height="1.3" style="fill: rgb(109, 110, 113);"/>
      </g>
      <g>
        <rect x="296.3" y="313.8" class="st11" width="67.3" height="1.3" style="fill: rgb(109, 110, 113);"/>
      </g>
      <g>
        <rect x="296.3" y="321.3" class="st11" width="67.3" height="1.3" style="fill: rgb(109, 110, 113);"/>
      </g>
      <g>
        <rect x="296.3" y="328.8" class="st11" width="67.3" height="1.3" style="fill: rgb(109, 110, 113);"/>
      </g>
      <g>
        <rect x="296.3" y="336.3" class="st11" width="67.3" height="1.3" style="fill: rgb(109, 110, 113);"/>
      </g>
      <g>
        <rect x="296.3" y="343.8" class="st11" width="67.3" height="1.3" style="fill: rgb(109, 110, 113);"/>
      </g>
      <g>
        <rect x="296.3" y="351.2" class="st11" width="67.3" height="1.3" style="fill: rgb(109, 110, 113);"/>
      </g>
    </g>
  </g>
</svg>