<?xml version="1.0" encoding="utf-8"?>
<svg viewBox="54.332 203.508 257.8 257.8" xmlns="http://www.w3.org/2000/svg">
  <g transform="matrix(1, 0, 0, 1, -516.868164, -343.692108)">
    <circle class="st21" cx="700.1" cy="676.1" r="128.9" style="fill: rgb(249, 147, 193);"/>
    <g>
      <g>
        <g>
          <polygon class="st6" points="620.2,731.5 615.9,734 615.9,725.5 620.2,725.5 &#9;&#9;&#9;&#9;" style="fill: rgb(35, 31, 32);"/>
          <rect x="608.1" y="624" class="st26" width="19.9" height="27.7" style="fill: rgb(255, 133, 142);"/>
          <rect x="609.3" y="621.9" class="st27" width="17.6" height="2.1" style="fill: rgb(252, 238, 112);"/>
          <rect x="609.3" y="651.7" class="st27" width="17.6" height="1.8" style="fill: rgb(252, 238, 112);"/>
          <g>
            <path class="st26" d="M628,714.1c0-8.3-4.5-15.1-10-15.1c-5.5,0-10,6.8-10,15.1c0,0,2.3,7.9,5.7,12.3h8.5 C625.7,722,628,714.1,628,714.1z" style="fill: rgb(255, 133, 142);"/>
            <path class="st27" d="M622.3,726.4h-8.5c0.6,0.8,1.3,1.5,2,2h4.4C621,727.9,621.7,727.2,622.3,726.4z" style="fill: rgb(252, 238, 112);"/>
          </g>
          <rect x="608.1" y="653.5" class="st26" width="19.9" height="59" style="fill: rgb(255, 133, 142);"/>
          <rect x="608.1" y="712.5" class="st27" width="19.9" height="1.6" style="fill: rgb(252, 238, 112);"/>
          <polygon class="st27" points="612.8,627.7 612.8,642.8 618.1,648 623.3,642.8 623.3,627.7 &#9;&#9;&#9;&#9;" style="fill: rgb(252, 238, 112);"/>
        </g>
        <g>
          <rect x="630.4" y="632.8" class="st13" width="161.7" height="90.3" style="fill: rgb(255, 248, 164);"/>
          <rect x="630.4" y="624.1" class="st6" width="161.7" height="17.3" style="fill: rgb(35, 31, 32);"/>
          <g>
            <rect x="639.6" y="651" class="st11" width="143.3" height="1.3" style="fill: rgb(109, 110, 113);"/>
          </g>
          <g>
            <rect x="639.6" y="659.2" class="st11" width="143.3" height="1.3" style="fill: rgb(109, 110, 113);"/>
          </g>
          <g>
            <rect x="639.6" y="667.3" class="st11" width="143.3" height="1.3" style="fill: rgb(109, 110, 113);"/>
          </g>
          <g>
            <rect x="639.6" y="675.5" class="st11" width="143.3" height="1.3" style="fill: rgb(109, 110, 113);"/>
          </g>
          <g>
            <rect x="639.6" y="683.6" class="st11" width="143.3" height="1.3" style="fill: rgb(109, 110, 113);"/>
          </g>
          <g>
            <rect x="639.6" y="691.7" class="st11" width="143.3" height="1.3" style="fill: rgb(109, 110, 113);"/>
          </g>
          <g>
            <rect x="639.6" y="699.9" class="st11" width="143.3" height="1.3" style="fill: rgb(109, 110, 113);"/>
          </g>
          <g>
            <rect x="639.6" y="708" class="st11" width="143.3" height="1.3" style="fill: rgb(109, 110, 113);"/>
          </g>
        </g>
      </g>
      <rect x="704.5" y="626.5" class="st21" width="13.6" height="6.3" style="fill: rgb(249, 147, 193);"/>
      <rect x="758.6" y="626.5" class="st21" width="13.6" height="6.3" style="fill: rgb(249, 147, 193);"/>
      <rect x="650.3" y="626.5" class="st21" width="13.6" height="6.3" style="fill: rgb(249, 147, 193);"/>
      <rect x="654.5" y="618.3" class="st15" width="5.2" height="11.4" style="fill: rgb(128, 130, 133);"/>
      <rect x="708.7" y="618.3" class="st17" width="5.2" height="11.4" style="fill: rgb(167, 169, 172);"/>
      <rect x="762.8" y="618.3" class="st15" width="5.2" height="11.4" style="fill: rgb(128, 130, 133);"/>
    </g>
  </g>
</svg>