<?xml version="1.0" encoding="utf-8"?>
<!-- Generator: Adobe Illustrator 19.2.0, SVG Export Plug-In . SVG Version: 6.00 Build 0)  -->
<svg version="1.1" id="items" xmlns="http://www.w3.org/2000/svg" xmlns:xlink="http://www.w3.org/1999/xlink" x="0px" y="0px"
	 viewBox="0 0 335.99 235.19" style="enable-background:new 0 0 335.99 235.19;" xml:space="preserve">
<style type="text/css">
	.st0{fill:#F69777;}
	.st1{fill:#DDDDDD;}
	.st2{fill:#FFFFFF;}
	.st3{fill:#FFD55C;}
	.st4{fill-rule:evenodd;clip-rule:evenodd;fill:#DDDDDD;}
	.st5{fill:#CFDBE5;}
	.st6{opacity:0.4;fill-rule:evenodd;clip-rule:evenodd;fill:#FFFFFF;}
	.st7{fill-rule:evenodd;clip-rule:evenodd;fill:#586773;}
	.st8{fill:#586773;}
	.st9{opacity:0.2;fill:#FFFFFF;}
	.st10{fill:#3D454A;}
	.st11{fill:none;}
	.st12{opacity:0.3;}
</style>
<rect id="background" class="st0" width="335.99" height="235.19"/>
<g id="pen_2_">
	<polygon class="st1" points="321.76,141.84 263.01,141.84 236.78,141.84 236.78,148.82 239.38,148.82 239.38,150.4 239.37,150.4 
		239.38,150.4 239.38,151.42 240.39,151.42 240.39,151.42 240.39,151.42 263.13,151.42 263.13,150.13 240.66,150.13 240.66,148.82 
		263.01,148.82 321.76,148.82 321.76,148.82 321.76,141.84 	"/>
	<g>
		<g>
			<rect x="232.43" y="141.84" class="st0" width="84.98" height="6.98"/>
			<rect x="232.43" y="141.84" class="st2" width="84.98" height="6.98"/>
		</g>
		<rect x="232.43" y="141.84" class="st3" width="26.24" height="6.98"/>
		<polygon class="st3" points="258.78,151.42 236.04,151.42 236.04,151.42 236.04,151.42 235.02,151.42 235.02,150.4 235.02,150.4 
			235.02,150.4 235.02,148.82 236.31,148.82 236.31,150.13 258.78,150.13 		"/>
	</g>
</g>
<g id="eyeglass">
	<g>
		<path class="st4" d="M321.63,165.15c-3.45-1.96-12.34-3.06-16.4-3.46c-1.45-0.14-2.9-0.19-3.66-0.24
			c-4.79,0.03-8.82,0.5-12.67,1.96c-1.13,0.43-2.22,0.97-3.32,1.49c-0.66,0.31-1.26,0.29-1.91-0.04c-0.4-0.2-0.88-0.33-1.32-0.33
			c-2.66-0.01-5.33-0.01-7.99,0c-0.44,0-0.92,0.13-1.32,0.33c-0.66,0.33-1.26,0.35-1.91,0.04c-1.1-0.51-2.19-1.06-3.32-1.49
			c-3.86-1.46-7.89-1.93-12.67-1.96c-0.76,0.05-2.22,0.1-3.66,0.24c-4.07,0.39-12.95,1.5-16.4,3.46c-0.16,0.09-0.3,0.38-0.3,0.58
			c0,1.08,0.02,2.16,0.09,3.23c0.05,0.8,0.41,1.4,1.24,1.7c1.44,0.51,2.4,1.53,2.88,2.99c0.56,1.69,1.09,3.39,1.67,5.07
			c0.01,0.04,0.03,0.08,0.04,0.11c-1.46,0.78-2.47,1.38-2.8,1.64c-1.39,1.08-2.2,1.95-1.92,3.1c0.28,1.15,2.79,2.54,4.95,0.45
			c0.33-0.32,0.83-0.79,1.47-1.36c0.61,1.08,1.31,2.09,2.14,3.04c2.38,2.68,5.48,3.95,8.95,4.39c3.17,0.4,6.28,0.08,9.32-0.92
			c1.92-0.63,3.57-1.67,4.96-3.15c1.26-1.33,2.2-2.85,2.97-4.5c1.24-2.62,2.18-5.34,2.78-8.18c0.06-0.27,0.09-0.52,0.08-0.75
			c1.18-0.04,2.4-0.09,3.66-0.13c2.06,0.07,4.03,0.14,5.85,0.21c0,0.21,0.03,0.43,0.08,0.68c0.6,2.84,1.54,5.56,2.78,8.18
			c0.77,1.65,1.72,3.17,2.97,4.5c1.39,1.47,3.05,2.51,4.96,3.15c3.04,1,6.15,1.33,9.32,0.92c3.47-0.45,6.58-1.71,8.95-4.39
			c0.5-0.56,0.94-1.15,1.35-1.76c0.02,0.02,0.05,0.05,0.08,0.07c2.16,2.09,4.67,0.7,4.95-0.45c0.28-1.15-0.52-2.02-1.92-3.1
			c-0.17-0.13-0.51-0.35-0.99-0.63c0.14-0.37,0.28-0.74,0.41-1.12c0.57-1.68,1.11-3.38,1.67-5.07c0.48-1.46,1.44-2.47,2.88-2.99
			c0.84-0.3,1.19-0.9,1.24-1.7c0.07-1.08,0.09-2.15,0.09-3.23C321.93,165.54,321.79,165.25,321.63,165.15z M289.04,165.88
			c1.46-1.01,3.14-1.49,4.86-1.8c3.76-0.68,7.55-0.77,11.34-0.31c1.76,0.21,3.51,0.53,5.17,1.22c1.41,0.59,2.51,1.39,3.29,2.4
			c-4.1,0.21-15.72,0.82-27.13,1.53C287.06,167.71,287.87,166.69,289.04,165.88z M246.26,164.98c1.66-0.7,3.41-1.01,5.17-1.22
			c3.79-0.46,7.58-0.37,11.34,0.31c1.73,0.31,3.41,0.79,4.87,1.8c1.21,0.84,2.04,1.92,2.52,3.17c-10.53-0.66-21.68-1.26-27.27-1.56
			C243.68,166.43,244.8,165.59,246.26,164.98z M241.47,172.12c0-0.26,0.02-0.52,0.04-0.77c3.08,0.09,8.98,0.27,15.75,0.48
			c-5.19,1.49-11.1,4.19-15.05,6.21C241.76,176.08,241.45,174.12,241.47,172.12z M268.37,182.37c-1.42,3.02-3.85,4.79-7.04,5.65
			c-3.82,1.02-6.12,1.1-9.88,0.21c-3.33-0.78-6.16-3.49-7.85-6.6c3.96-3.26,11.14-8.18,18.76-8.58c1.83-0.1,4.76-0.22,8.33-0.35
			C270.68,176.09,269.82,179.3,268.37,182.37z M272.99,169.23c0.24-0.34,0.6-0.62,1.06-0.75c2.65-0.74,5.93-0.74,8.58,0
			c0.4,0.11,0.72,0.33,0.96,0.61c-2.17,0.14-4.3,0.28-6.34,0.42C275.86,169.42,274.44,169.33,272.99,169.23z M305.23,188.23
			c-3.76,0.89-6.06,0.81-9.88-0.21c-3.18-0.85-5.61-2.63-7.03-5.65c-1.44-3.05-2.3-6.23-2.32-9.58c2.57,0.1,4.69,0.19,6.14,0.27
			c8.68,0.45,16.77,6.76,20.21,9.81C310.61,185.44,308.1,187.56,305.23,188.23z M297.22,171.82c9.33-0.29,17-0.52,17.93-0.54
			c0.02,0.27,0.04,0.55,0.04,0.84c0.02,2.01-0.29,3.98-0.74,5.94c-0.08,0.33-0.17,0.65-0.27,0.98
			C310.47,177.02,303.34,173.58,297.22,171.82z"/>
		<path class="st5" d="M312.51,180.48c-1.19-0.92-11.21-6.3-19.4-8.65c9.96-0.31,18.03-0.55,18.03-0.55v-3.97
			c0,0-21.75,1.1-38.01,2.21c-16.25-1.12-38.01-2.21-38.01-2.21v3.97c0,0,8.07,0.24,18.03,0.55c-8.19,2.35-18.21,7.73-19.4,8.65
			c-1.39,1.08-2.19,1.95-1.91,3.1c0.28,1.15,2.79,2.54,4.95,0.45c2.16-2.09,11.43-10.46,21.47-10.98c2.87-0.15,8.42-0.36,14.89-0.58
			c6.46,0.22,12.01,0.43,14.88,0.58c10.04,0.52,19.31,8.89,21.47,10.98c2.16,2.09,4.67,0.7,4.95-0.45
			C314.7,182.43,313.9,181.56,312.51,180.48z"/>
		<path id="XMLID_12_" class="st6" d="M311.08,172.12L311.08,172.12c0.02,2.01-0.29,3.98-0.74,5.94c-1.03,4.42-4.66,9.11-9.23,10.18
			c-3.76,0.89-6.06,0.81-9.88-0.21c-3.18-0.85-5.61-2.63-7.03-5.65c-1.64-3.47-2.53-7.11-2.29-10.97c0.15-2.29,1.1-4.2,3.01-5.52
			c1.46-1.01,3.14-1.49,4.87-1.8c3.76-0.68,7.55-0.77,11.34-0.31c1.77,0.21,3.52,0.53,5.17,1.22
			C309.45,166.3,311.05,168.68,311.08,172.12L311.08,172.12z"/>
		<path id="XMLID_11_" class="st6" d="M237.35,172.12L237.35,172.12c0.03-3.44,1.63-5.81,4.79-7.13c1.66-0.7,3.41-1.01,5.17-1.22
			c3.79-0.46,7.58-0.37,11.34,0.31c1.73,0.31,3.41,0.79,4.87,1.8c1.91,1.32,2.86,3.23,3.01,5.52c0.25,3.86-0.65,7.5-2.29,10.97
			c-1.42,3.02-3.85,4.79-7.04,5.65c-3.82,1.02-6.12,1.1-9.88,0.21c-4.57-1.08-8.21-5.76-9.23-10.18
			C237.64,176.09,237.34,174.13,237.35,172.12z"/>
		<g id="Johnny_Depp_eyeglass_1_">
			<g>
				<path id="XMLID_37_" class="st7" d="M263.66,163.42c-3.86-1.46-7.89-1.93-12.67-1.96c-0.76,0.05-2.22,0.1-3.66,0.24
					c-4.07,0.39-12.95,1.5-16.4,3.46c-0.16,0.09-0.3,0.38-0.3,0.58c0,1.08,0.02,2.16,0.08,3.23c0.05,0.8,0.41,1.4,1.24,1.7
					c1.44,0.51,2.4,1.53,2.88,2.99c0.56,1.69,1.09,3.39,1.67,5.07c0.88,2.56,2.08,4.95,3.89,6.99c2.37,2.68,5.48,3.95,8.95,4.39
					c3.17,0.4,6.28,0.08,9.32-0.92c1.92-0.63,3.57-1.67,4.96-3.15c1.26-1.33,2.2-2.85,2.98-4.5c1.24-2.62,2.18-5.34,2.78-8.18
					c0.16-0.77,0.13-1.36-0.41-2.01c-0.85-1.02-0.33-2.5,0.96-2.86c2.65-0.74,5.93-0.74,8.59,0c1.28,0.36,1.8,1.84,0.96,2.86
					c-0.54,0.65-0.57,1.24-0.41,2.01c0.6,2.84,1.54,5.56,2.78,8.18c0.77,1.65,1.72,3.17,2.97,4.5c1.39,1.47,3.05,2.51,4.96,3.15
					c3.04,1,6.15,1.33,9.32,0.92c3.48-0.45,6.58-1.71,8.96-4.39c1.8-2.04,3.01-4.43,3.88-6.99c0.58-1.68,1.11-3.38,1.67-5.07
					c0.48-1.46,1.45-2.47,2.88-2.99c0.84-0.3,1.19-0.9,1.24-1.7c0.07-1.08,0.09-2.15,0.09-3.23c0-0.2-0.14-0.49-0.3-0.58
					c-3.45-1.96-12.33-3.06-16.4-3.46c-1.45-0.14-2.9-0.19-3.66-0.24c-4.79,0.03-8.81,0.5-12.67,1.96
					c-1.13,0.43-2.22,0.97-3.32,1.49c-0.66,0.31-1.26,0.29-1.91-0.04c-0.4-0.2-0.88-0.33-1.32-0.33c-2.66-0.01-5.33-0.01-7.99,0
					c-0.44,0-0.92,0.13-1.32,0.33c-0.66,0.33-1.26,0.35-1.91,0.04C265.89,164.39,264.8,163.84,263.66,163.42L263.66,163.42z
					 M311.08,172.12L311.08,172.12c0.02,2.01-0.29,3.98-0.74,5.94c-1.03,4.42-4.66,9.11-9.23,10.18c-3.76,0.89-6.06,0.81-9.88-0.21
					c-3.18-0.85-5.61-2.63-7.03-5.65c-1.64-3.47-2.53-7.11-2.29-10.97c0.15-2.29,1.1-4.2,3.01-5.52c1.46-1.01,3.14-1.49,4.87-1.8
					c3.76-0.68,7.55-0.77,11.34-0.31c1.77,0.21,3.52,0.53,5.17,1.22C309.45,166.3,311.05,168.68,311.08,172.12L311.08,172.12z
					 M237.35,172.12L237.35,172.12c0.03-3.44,1.63-5.81,4.79-7.13c1.66-0.7,3.41-1.01,5.17-1.22c3.79-0.46,7.58-0.37,11.34,0.31
					c1.73,0.31,3.41,0.79,4.87,1.8c1.91,1.32,2.86,3.23,3.01,5.52c0.25,3.86-0.65,7.5-2.29,10.97c-1.42,3.02-3.85,4.79-7.04,5.65
					c-3.82,1.02-6.12,1.1-9.88,0.21c-4.57-1.08-8.21-5.76-9.23-10.18C237.64,176.09,237.34,174.13,237.35,172.12z"/>
			</g>
		</g>
	</g>
</g>
<g id="paper_2_">
	<path class="st1" d="M119.44,28.2l0.03,5.58l2.41-0.02c0.54-0.83,1.45-1.37,2.51-1.37c1.66-0.01,3.03,1.33,3.04,3
		c0.02,1.67-1.33,3.03-3.01,3.04c-1,0.01-1.89-0.49-2.45-1.24l-2.48,0.02l0.02,3.99l2.41-0.02c0.52-0.82,1.45-1.37,2.51-1.37
		c1.66-0.01,3.02,1.34,3.04,3c0,1.67-1.35,3.03-3.01,3.04c-1,0.01-1.89-0.49-2.45-1.24l-2.48,0.02l0.02,3.99l2.4-0.02
		c0.54-0.83,1.46-1.38,2.52-1.38c1.66-0.01,3.02,1.34,3.04,3.01c0,1.67-1.35,3.03-3.01,3.03c-1,0.01-1.89-0.49-2.46-1.24l-2.47,0.02
		l0.02,3.99l2.4-0.02c0.52-0.83,1.46-1.38,2.52-1.38c1.66,0,3.02,1.34,3.04,3.01c0,1.67-1.35,3.03-3.01,3.04
		c-1,0-1.91-0.49-2.47-1.25l-2.47,0.02l0.02,3.99l2.38-0.01c0.54-0.83,1.48-1.37,2.54-1.38c1.66-0.01,3.02,1.34,3.02,3.01
		c0,1.67-1.33,3.03-3,3.03c-1.02,0.01-1.91-0.49-2.46-1.24l-2.47,0.02l0,3.98l2.4-0.02c0.54-0.82,1.48-1.37,2.53-1.38
		c1.68-0.01,3.03,1.33,3.04,3c0,1.67-1.34,3.03-3.01,3.04c-1,0.01-1.9-0.49-2.45-1.24l-2.48,0.02l0.02,3.99l2.4-0.02
		c0.54-0.83,1.47-1.38,2.52-1.38c1.68-0.01,3.03,1.34,3.04,3.01c0,1.66-1.33,3.03-3.01,3.03c-1.02,0.01-1.91-0.48-2.45-1.24
		l-2.49,0.02l0.01,3.99l2.41-0.02c0.54-0.83,1.46-1.38,2.51-1.38c1.68,0,3.03,1.34,3.04,3.01c0.02,1.67-1.33,3.03-3,3.04
		c-1.02,0-1.91-0.49-2.45-1.24l-2.48,0.01l0.01,3.99l2.41-0.02c0.54-0.83,1.45-1.37,2.51-1.38c1.68,0,3.03,1.34,3.04,3.01
		c0.01,1.67-1.34,3.02-3.01,3.04c-1,0-1.89-0.49-2.43-1.24l-2.5,0.02l0.02,3.98l2.41-0.02c0.54-0.82,1.45-1.37,2.51-1.37
		c1.66-0.01,3.02,1.34,3.03,3c0.02,1.67-1.33,3.02-3.01,3.04c-1,0.01-1.89-0.49-2.45-1.24l-2.48,0.02l0.02,3.99l2.4-0.02
		c0.54-0.83,1.46-1.38,2.53-1.38c1.66-0.01,3.02,1.34,3.04,3c0,1.67-1.35,3.04-3.01,3.04c-1,0.01-1.89-0.49-2.45-1.24l-2.48,0.02
		l0.02,3.99l2.4-0.01c0.54-0.83,1.47-1.38,2.53-1.38c1.66,0,3.02,1.34,3.04,3.01c0,1.67-1.35,3.03-3.01,3.04
		c-1,0-1.91-0.49-2.46-1.25l-2.47,0.02l0.02,3.99l2.4-0.02c0.52-0.83,1.47-1.37,2.52-1.38c1.66-0.01,3.02,1.33,3.04,3
		c0,1.67-1.35,3.03-3.01,3.04c-1,0-1.91-0.49-2.46-1.24l-2.47,0.02l0.02,3.98l2.38-0.01c0.54-0.82,1.48-1.38,2.54-1.38
		c1.66-0.01,3.02,1.34,3.03,3c-0.01,1.67-1.35,3.03-3.01,3.04c-1.02,0-1.91-0.49-2.47-1.24l-2.47,0.02l0.01,3.99l2.4-0.02
		c0.54-0.83,1.48-1.38,2.52-1.38c1.68-0.01,3.03,1.34,3.03,3c0,1.67-1.33,3.02-3,3.03c-1.02,0.01-1.92-0.48-2.46-1.24l-2.48,0.02
		l0.02,3.99l2.4-0.02c0.54-0.83,1.46-1.38,2.53-1.38c1.67,0,3.03,1.34,3.04,3.01c0,1.67-1.34,3.02-3.01,3.04
		c-1.02,0-1.91-0.49-2.45-1.25l-2.48,0.02l0.01,3.99l2.41-0.02c0.54-0.83,1.46-1.38,2.51-1.38c1.68,0,3.03,1.34,3.04,3.01
		c0.02,1.67-1.32,3.02-3,3.04c-1.02,0-1.91-0.49-2.45-1.24l-2.48,0.01l0.01,3.99l2.41-0.02c0.54-0.82,1.45-1.37,2.51-1.37
		c1.68-0.01,3.03,1.33,3.04,3c0.02,1.67-1.33,3.02-3.01,3.03c-1,0-1.89-0.49-2.44-1.24l-2.5,0.02l0.02,3.99l2.41-0.01
		c0.54-0.84,1.45-1.37,2.51-1.38c1.66-0.01,3.03,1.33,3.03,3c0.02,1.68-1.33,3.04-3.01,3.04c-1,0.01-1.89-0.49-2.45-1.24l-2.48,0.01
		l0.02,4l2.41-0.02c0.52-0.82,1.45-1.38,2.51-1.39c1.66,0.01,3.02,1.35,3.04,3.01c0.02,1.67-1.35,3.04-3.01,3.04
		c-1,0-1.89-0.49-2.45-1.24l-2.48,0.03l0.02,3.98l2.4-0.02c0.54-0.84,1.46-1.37,2.52-1.38c1.66-0.02,3.02,1.33,3.04,3.01
		c0,1.66-1.35,3.02-3.01,3.04c-1,0-1.89-0.5-2.46-1.24l-2.47-0.01l0.03,6.05l106.34-0.17l0.22-162.94L119.44,28.2z"/>
	<path class="st2" d="M116.34,28.2l0.03,5.58l2.41-0.02c0.54-0.83,1.45-1.37,2.51-1.37c1.66-0.01,3.03,1.33,3.04,3
		c0.02,1.67-1.33,3.03-3.01,3.04c-1,0.01-1.89-0.49-2.45-1.24l-2.48,0.02l0.02,3.99l2.41-0.02c0.52-0.82,1.45-1.37,2.51-1.37
		c1.66-0.01,3.02,1.34,3.04,3c0,1.67-1.35,3.03-3.01,3.04c-1,0.01-1.89-0.49-2.45-1.24l-2.48,0.02l0.02,3.99l2.4-0.02
		c0.54-0.83,1.46-1.38,2.52-1.38c1.66-0.01,3.02,1.34,3.04,3.01c0,1.67-1.35,3.03-3.01,3.03c-1,0.01-1.89-0.49-2.46-1.24l-2.47,0.02
		l0.02,3.99l2.4-0.02c0.52-0.83,1.46-1.38,2.52-1.38c1.66,0,3.02,1.34,3.04,3.01c0,1.67-1.35,3.03-3.01,3.04
		c-1.01,0-1.91-0.49-2.47-1.25l-2.47,0.02l0.02,3.99l2.38-0.01c0.54-0.83,1.48-1.37,2.54-1.38c1.66-0.01,3.02,1.34,3.02,3.01
		c0,1.67-1.33,3.03-3,3.03c-1.02,0.01-1.91-0.49-2.46-1.24l-2.47,0.02l0.01,3.98l2.4-0.02c0.54-0.82,1.48-1.37,2.52-1.38
		c1.68-0.01,3.03,1.33,3.04,3c0,1.67-1.34,3.03-3.01,3.04c-1,0.01-1.9-0.49-2.45-1.24l-2.48,0.02l0.02,3.99l2.4-0.02
		c0.54-0.83,1.47-1.38,2.52-1.38c1.68-0.01,3.03,1.34,3.04,3.01c0,1.66-1.33,3.03-3.01,3.03c-1.02,0.01-1.91-0.48-2.45-1.24
		l-2.48,0.02l0.01,3.99l2.41-0.02c0.54-0.83,1.46-1.38,2.51-1.38c1.68,0,3.03,1.34,3.04,3.01c0.02,1.67-1.33,3.03-3,3.04
		c-1.02,0-1.9-0.49-2.45-1.24l-2.49,0.01l0.01,3.99l2.41-0.02c0.54-0.83,1.45-1.37,2.51-1.38c1.68,0,3.03,1.34,3.04,3.01
		c0.01,1.67-1.34,3.02-3.01,3.04c-1,0-1.89-0.49-2.43-1.24l-2.5,0.02l0.02,3.98l2.41-0.02c0.54-0.82,1.45-1.37,2.51-1.37
		c1.66-0.01,3.02,1.34,3.03,3c0.02,1.67-1.33,3.02-3.01,3.04c-1,0.01-1.89-0.49-2.45-1.24l-2.49,0.02l0.02,3.99l2.4-0.02
		c0.54-0.83,1.46-1.38,2.53-1.38c1.66-0.01,3.02,1.34,3.04,3c0,1.67-1.35,3.04-3.01,3.04c-1,0.01-1.89-0.49-2.45-1.24l-2.48,0.02
		l0.02,3.99l2.4-0.01c0.54-0.83,1.47-1.38,2.53-1.38c1.66,0,3.02,1.34,3.04,3.01c0,1.67-1.35,3.03-3.01,3.04
		c-1,0-1.91-0.49-2.46-1.25l-2.47,0.02l0.02,3.99l2.4-0.02c0.52-0.83,1.47-1.37,2.53-1.38c1.66-0.01,3.02,1.33,3.03,3
		c0,1.67-1.35,3.03-3.01,3.04c-1,0-1.91-0.49-2.46-1.24l-2.47,0.02l0.02,3.98l2.38-0.01c0.54-0.82,1.48-1.38,2.54-1.38
		c1.66-0.01,3.02,1.34,3.03,3c-0.01,1.67-1.35,3.03-3.01,3.04c-1.02,0-1.91-0.49-2.47-1.24l-2.47,0.02l0.01,3.99l2.4-0.02
		c0.54-0.83,1.48-1.38,2.52-1.38c1.68-0.01,3.03,1.34,3.04,3c0,1.67-1.33,3.02-3,3.03c-1.02,0.01-1.92-0.48-2.46-1.24l-2.48,0.02
		l0.02,3.99l2.4-0.02c0.54-0.83,1.46-1.38,2.53-1.38c1.67,0,3.03,1.34,3.04,3.01c0,1.67-1.33,3.02-3.01,3.04
		c-1.02,0-1.91-0.49-2.45-1.25l-2.48,0.02l0.01,3.99l2.41-0.02c0.54-0.83,1.46-1.38,2.51-1.38c1.68,0,3.03,1.34,3.04,3.01
		c0.02,1.67-1.32,3.02-3,3.04c-1.02,0-1.91-0.49-2.45-1.24l-2.48,0.01l0.01,3.99l2.41-0.02c0.54-0.82,1.45-1.37,2.51-1.37
		c1.68-0.01,3.03,1.33,3.03,3c0.02,1.67-1.33,3.02-3.01,3.03c-1,0-1.89-0.49-2.43-1.24l-2.5,0.02l0.02,3.99l2.41-0.01
		c0.54-0.84,1.45-1.37,2.51-1.38c1.66-0.01,3.03,1.33,3.03,3c0.02,1.68-1.33,3.04-3.01,3.04c-1,0.01-1.89-0.49-2.45-1.24l-2.48,0.01
		l0.02,4l2.41-0.02c0.52-0.82,1.45-1.38,2.51-1.39c1.66,0.01,3.02,1.35,3.04,3.01c0.02,1.67-1.35,3.04-3.01,3.04
		c-1,0-1.89-0.49-2.45-1.24l-2.48,0.03l0.02,3.98l2.4-0.02c0.54-0.84,1.46-1.37,2.52-1.38c1.66-0.02,3.02,1.33,3.04,3.01
		c0,1.66-1.35,3.02-3.01,3.04c-1,0-1.89-0.5-2.46-1.24l-2.47-0.01l0.03,6.05l106.35-0.17l0.22-162.94L116.34,28.2z"/>
</g>
<g id="pantone_2_">
	<polygon class="st1" points="293.22,125.53 314.32,125.46 322.34,125.43 322.26,100.87 288.92,100.98 262.03,100.98 262.03,101.06 
		262.03,101.06 262.03,101.06 236.28,101.15 236.35,125.71 262.1,125.63 262.1,125.63 272.62,125.59 293.07,125.53 293.07,125.53 
		293.11,125.53 293.11,125.63 	"/>
	<g>
		<g>
			
				<rect x="231.5" y="101.01" transform="matrix(1 -3.220090e-03 3.220090e-03 1 -0.3634 0.8845)" class="st2" width="85.99" height="24.57"/>
			
				<rect x="288.21" y="100.92" transform="matrix(1 -3.219959e-03 3.219959e-03 1 -0.3629 0.9722)" class="st3" width="27.05" height="24.56"/>
			
				<rect x="257.25" y="101.02" transform="matrix(1 -3.142552e-03 3.142552e-03 1 -0.3547 0.8515)" class="st5" width="27.05" height="24.56"/>
		</g>
		<g>
			<rect x="250.74" y="103.14" class="st8" width="1.97" height="10.79"/>
			<rect x="247.26" y="103.14" class="st8" width="1.28" height="20.45"/>
			<rect x="244.37" y="103.14" class="st8" width="1.28" height="20.45"/>
			<rect x="241.38" y="103.14" class="st8" width="1.28" height="10.79"/>
		</g>
		<polygon class="st9" points="257.29,125.63 284.26,100.98 257.21,100.98 		"/>
		<polygon class="st9" points="288.29,125.63 315.26,100.98 288.21,100.98 		"/>
	</g>
</g>
<g id="notebook_2_">
	<path class="st1" d="M112.87,80.12h-0.07l0.04-42.54c0.01-5.28-4.27-9.56-9.54-9.56l-1.62,0v-0.01l-2.92,0v-0.07l-4.89-0.01l0,0h0
		l-3.26,0v0.09l-66.91-0.07v0h-0.62l-9.63-0.01L13.4,80.02h-0.05l-0.05,55.96h0.05L13.3,191.6l9.3,0.01v0.12h1.09v-0.12l66.77,0.06
		v0.06l4.89,0l0,0h0.2l3.06,0v-0.05l4.54,0c5.27,0,9.56-4.27,9.56-9.55l0.04-46.07h0.07L112.87,80.12z"/>
	<g>
		<g>
			<path class="st5" d="M109.6,182.15c0,5.28-4.29,9.55-9.56,9.55l-89.85-0.09l0.15-163.67l89.84,0.09c5.28,0,9.55,4.29,9.54,9.56
				L109.6,182.15z"/>
			
				<rect x="32" y="58.29" transform="matrix(1.000808e-03 -1 1 1.000808e-03 -48.1309 167.9183)" class="st3" width="55.96" height="99.52"/>
			
				<rect x="14.9" y="108.1" transform="matrix(1.115081e-03 -1 1 1.115081e-03 -13.2104 206.4663)" class="st1" width="163.68" height="3.5"/>
			<g>
				<rect x="87.43" y="27.92" class="st8" width="8.15" height="163.82"/>
				<rect x="92.32" y="27.93" class="st10" width="1.63" height="163.82"/>
				
					<rect x="7.97" y="109.01" transform="matrix(1.224525e-03 -1 1 1.224525e-03 -20.0667 199.5679)" class="st10" width="163.82" height="1.63"/>
			</g>
		</g>
		<g>
			<rect x="19.49" y="27.94" class="st1" width="1.09" height="163.8"/>
		</g>
	</g>
</g>
<g id="scissor_2_">
	<path class="st1" d="M218.54,153.72l-41.95-24.06l-3.22-8.18c0,0-0.81-2.66,3.35-6.82c3.82-3.83,3.62-10.23-0.44-14.3
		c-4.07-4.07-10.46-4.26-14.29-0.44c-3.83,3.83-3.63,10.23,0.44,14.3c0.55,0.55,1.14,1.02,1.76,1.42c0.01,0.01,0.02,0.02,0.04,0.03
		c2.35,1.57,6.12,4.59,5.94,10.44c-0.03,1.09-0.21,2.27-0.42,3.39c-1.12,0.22-2.31,0.39-3.39,0.42c-5.85,0.19-8.86-3.58-10.43-5.94
		c-0.01-0.01-0.02-0.02-0.03-0.04c-0.41-0.62-0.88-1.21-1.42-1.75c-4.07-4.07-10.47-4.27-14.29-0.44
		c-3.83,3.83-3.63,10.23,0.44,14.3c4.07,4.07,10.47,4.27,14.3,0.44c4.16-4.16,6.81-3.35,6.81-3.35l8.19,3.22l24.05,41.95
		c0.51,0.62,1.79,0,1.79,0l-14.8-37.6l37.59,14.8C218.54,155.51,219.16,154.23,218.54,153.72z M152.94,134.52
		c-2.81,2.81-7.5,2.66-10.48-0.32c-2.98-2.98-3.13-7.68-0.32-10.48c2.8-2.81,7.5-2.66,10.48,0.32
		C155.6,127.02,155.74,131.71,152.94,134.52z M164.28,112.36c-2.98-2.98-3.13-7.68-0.32-10.48c2.81-2.81,7.5-2.66,10.48,0.32
		c2.98,2.99,3.13,7.68,0.32,10.49C171.95,115.49,167.26,115.35,164.28,112.36z"/>
	<g id="scissor_4_">
		<g>
			<path class="st8" d="M215.44,153.72l-44.27-25.4c0,0-4.48,1.48-7.93,1.59c-5.85,0.19-8.86-3.58-10.43-5.94
				c-0.01-0.01-0.02-0.02-0.03-0.04c-0.4-0.62-0.88-1.21-1.42-1.75c-4.07-4.07-10.47-4.27-14.29-0.44
				c-3.83,3.83-3.63,10.23,0.44,14.3c4.07,4.07,10.47,4.27,14.3,0.44c4.16-4.16,6.81-3.35,6.81-3.35l56.83,22.37
				C215.44,155.51,216.07,154.23,215.44,153.72z M149.51,124.03c2.98,2.99,3.13,7.68,0.32,10.48c-2.81,2.81-7.5,2.66-10.48-0.32
				c-2.98-2.98-3.13-7.68-0.32-10.48C141.83,120.9,146.53,121.05,149.51,124.03z"/>
			<path class="st10" d="M173.17,100.35c-4.07-4.07-10.46-4.26-14.29-0.44c-3.83,3.83-3.63,10.23,0.44,14.3
				c0.55,0.55,1.14,1.02,1.76,1.42c0.01,0.01,0.02,0.02,0.04,0.03c2.35,1.57,6.12,4.59,5.94,10.44c-0.11,3.44-1.59,7.93-1.59,7.93
				l25.39,44.28c0.51,0.62,1.79,0,1.79,0l-22.37-56.83c0,0-0.81-2.66,3.35-6.82C177.44,110.82,177.24,104.42,173.17,100.35z
				 M171.33,102.2c2.98,2.99,3.13,7.68,0.33,10.49c-2.8,2.81-7.49,2.67-10.48-0.32c-2.98-2.98-3.13-7.68-0.32-10.48
				C163.66,99.07,168.35,99.22,171.33,102.2z"/>
			
				<ellipse transform="matrix(0.707 -0.7072 0.7072 0.707 -44.7224 160.5347)" class="st3" cx="171.37" cy="134.24" rx="1.96" ry="1.84"/>
		</g>
	</g>
</g>
<g id="pencil_2_">
	<path class="st1" d="M64.81,55.65l0.06-9.17l-0.04-0.01h0l0.02-5.58c0-0.39-0.48-1.94-1.95-1.94l-2.57-0.03
		c-1.66,0-1.95,1.55-1.95,1.93l-0.01,3.27l-0.05-0.02l-0.07,11.52h-0.03l-0.51,102.79c0,0,0,0,0,0l2.28,9.54c0,0,0,0,0,0l0.98,4.09
		l1.01-4.1l2.37-9.5c0,0,0,0,0,0l0.51-102.79H64.81z"/>
	<g>
		<path class="st0" d="M55.9,40.85l-0.02,5.58l6.47,0.03l0.02-5.58c0-0.39-0.48-1.94-1.95-1.94l-2.57-0.03
			C56.19,38.92,55.9,40.47,55.9,40.85z"/>
	</g>
	<path class="st10" d="M60.85,55.65l-3.6-0.02l-1.52-0.01l-0.51,102.79c0.8-0.12,1.42-0.71,1.52-1.46c0.01,0,0.01,0.01,0.01,0.01
		l0-0.01c0.1,0.84,0.86,1.49,1.79,1.5c0.92,0,1.68-0.65,1.79-1.49c0,0,0.01,0.02,0.01,0.02v-0.02c0.1,0.75,0.72,1.35,1.51,1.48
		l0.51-102.8L60.85,55.65z"/>
	<g>
		<polygon class="st3" points="55.77,55.62 62.33,55.66 62.39,46.48 55.83,46.45 		"/>
	</g>
	<path class="st10" d="M59.49,167.94c-0.31-0.05-0.62-0.08-0.94-0.08c-0.36,0-0.71,0.03-1.05,0.09l0.98,4.09L59.49,167.94z"/>
	<path class="st2" d="M61.86,158.44c-0.79-0.12-1.41-0.72-1.51-1.47v0.02c0,0,0-0.01-0.01-0.02c-0.11,0.84-0.87,1.49-1.79,1.49
		c-0.93-0.01-1.69-0.66-1.79-1.5l0,0.01c0,0,0-0.01-0.01-0.01c-0.1,0.75-0.73,1.35-1.53,1.46l2.28,9.54
		c0.34-0.06,0.69-0.09,1.05-0.09c0.32,0,0.63,0.03,0.94,0.08L61.86,158.44z"/>
</g>
<g id="camera_2_">
	<g>
		<path class="st1" d="M288.46,31.01c-0.58-1.24-1.83-2.04-3.19-2.04h-11.64c-1.37,0-2.61,0.79-3.19,2.04l-3.89,6.44h25.81
			L288.46,31.01z"/>
		<path class="st1" d="M318.91,37.45h-5.02v-1.67c0-0.56-0.45-1.01-1.01-1.01h-7.85c-0.55,0-1.01,0.45-1.01,1.01v1.67h-49.49v-1.67
			c0-0.56-0.45-1.01-1.01-1.01h-7.85c-0.55,0-1.01,0.45-1.01,1.01v1.67h-5.94c-1.88,0-3.43,1.54-3.43,3.43V49v33.75v0.64
			c0,1.89,1.54,3.43,3.43,3.43h80.17c1.89,0,3.43-1.54,3.43-3.43v-0.64V49v-8.12C322.34,38.99,320.8,37.45,318.91,37.45z"/>
	</g>
	<g>
		<path id="XMLID_4_" class="st5" d="M287.82,37.45h-25.81l3.89-6.44c0.58-1.24,1.82-2.04,3.19-2.04h11.64
			c1.37,0,2.62,0.79,3.19,2.04L287.82,37.45z"/>
		<rect id="XMLID_3_" x="268.85" y="31.91" class="st2" width="12.13" height="2.96"/>
		<g>
			<path class="st2" d="M314.38,37.45h-80.17c-1.88,0-3.43,1.54-3.43,3.43v42.51c0,1.89,1.54,3.43,3.43,3.43h80.17
				c1.89,0,3.43-1.54,3.43-3.43V40.88C317.81,38.99,316.27,37.45,314.38,37.45z"/>
			<path class="st10" d="M250.02,37.45v-1.67c0-0.56-0.45-1.01-1.01-1.01h-7.85c-0.55,0-1.01,0.45-1.01,1.01v1.67H250.02z"/>
			<path class="st8" d="M309.37,37.45v-1.67c0-0.56-0.45-1.01-1.01-1.01h-7.85c-0.55,0-1.01,0.45-1.01,1.01v1.67H309.37z"/>
			<rect x="230.79" y="49" class="st10" width="87.02" height="33.75"/>
			<g>
				<circle class="st5" cx="274.3" cy="61.79" r="20.96"/>
			</g>
			<g>
				<path class="st10" d="M308.15,40.82h-7.85c-0.55,0-1.01,0.45-1.01,1.01v3.34c0,0.55,0.46,1.01,1.01,1.01h7.85
					c0.55,0,1.01-0.45,1.01-1.01v-3.34C309.15,41.28,308.7,40.82,308.15,40.82z"/>
				<path class="st11" d="M308.15,40.82h-7.85c-0.55,0-1.01,0.45-1.01,1.01v3.34c0,0.55,0.46,1.01,1.01,1.01h7.85
					c0.55,0,1.01-0.45,1.01-1.01v-3.34C309.15,41.28,308.7,40.82,308.15,40.82z"/>
			</g>
		</g>
	</g>
	<g>
		<circle class="st1" cx="274.26" cy="62.11" r="16.78"/>
		<circle class="st8" cx="274.26" cy="62.11" r="13.38"/>
		<g>
			<g>
				<g>
					
						<ellipse transform="matrix(0.707 -0.7072 0.7072 0.707 36.5508 212.0726)" class="st10" cx="274.23" cy="61.92" rx="5.14" ry="5.14"/>
				</g>
			</g>
			<g class="st12">
				<g>
					
						<ellipse transform="matrix(0.7071 -0.7071 0.7071 0.7071 38.8044 206.316)" class="st2" cx="268.45" cy="56.32" rx="2.92" ry="2.92"/>
				</g>
			</g>
			<g class="st12">
				<g>
					
						<ellipse transform="matrix(0.7073 -0.7069 0.7069 0.7073 36.9382 210.622)" class="st2" cx="272.83" cy="60.7" rx="1.06" ry="1.06"/>
				</g>
			</g>
		</g>
	</g>
</g>
<g id="text">
	<path class="st2" d="M10.2,204.67h0.49v3.62h1.84v0.4H10.2V204.67z"/>
	<path class="st2" d="M13.21,207.25v-0.04c0-0.88,0.61-1.5,1.45-1.5c0.83,0,1.45,0.61,1.45,1.5v0.04c0,0.89-0.61,1.5-1.45,1.5
		C13.81,208.74,13.21,208.11,13.21,207.25z M15.62,207.25v-0.04c0-0.68-0.38-1.12-0.96-1.12c-0.59,0-0.96,0.44-0.96,1.11v0.04
		c0,0.67,0.37,1.11,0.96,1.11C15.25,208.35,15.62,207.91,15.62,207.25z"/>
	<path class="st2" d="M17.13,205.75h0.47v0.53c0.19-0.33,0.44-0.56,0.97-0.58v0.44c-0.59,0.03-0.97,0.21-0.97,0.94v1.62h-0.47
		V205.75z"/>
	<path class="st2" d="M19.23,207.25v-0.04c0-0.89,0.57-1.51,1.38-1.51c0.68,0,1.32,0.41,1.32,1.46v0.15h-2.22
		c0.02,0.67,0.34,1.04,0.95,1.04c0.46,0,0.72-0.17,0.78-0.51h0.47c-0.1,0.59-0.59,0.9-1.25,0.9
		C19.83,208.74,19.23,208.16,19.23,207.25z M21.46,206.94c-0.05-0.61-0.36-0.85-0.84-0.85c-0.48,0-0.8,0.33-0.88,0.85H21.46z"/>
	<path class="st2" d="M22.96,205.75h0.47v0.45c0.14-0.28,0.46-0.5,0.88-0.5c0.38,0,0.71,0.16,0.86,0.55
		c0.2-0.38,0.64-0.55,1.01-0.55c0.53,0,0.99,0.31,0.99,1.17v1.82H26.7v-1.86c0-0.52-0.22-0.73-0.62-0.73
		c-0.38,0-0.78,0.26-0.78,0.79v1.8h-0.47v-1.86c0-0.52-0.22-0.73-0.62-0.73c-0.38,0-0.78,0.26-0.78,0.79v1.8h-0.47V205.75z"/>
	<path class="st2" d="M29.85,204.83c0-0.17,0.14-0.31,0.31-0.31c0.17,0,0.31,0.14,0.31,0.31c0,0.17-0.14,0.31-0.31,0.31
		C29.99,205.13,29.85,204.99,29.85,204.83z M29.93,205.75h0.47v2.94h-0.47V205.75z"/>
	<path class="st2" d="M31.61,205.75h0.47v0.49c0.17-0.29,0.57-0.54,1-0.54c0.77,0,1.34,0.56,1.34,1.48v0.04
		c0,0.9-0.53,1.52-1.34,1.52c-0.48,0-0.83-0.24-1-0.54v1.51h-0.47V205.75z M33.93,207.25v-0.04c0-0.74-0.41-1.11-0.91-1.11
		c-0.55,0-0.96,0.36-0.96,1.11v0.04c0,0.75,0.39,1.11,0.97,1.11C33.62,208.35,33.93,207.96,33.93,207.25z"/>
	<path class="st2" d="M35.21,207.79h0.46c0.03,0.35,0.22,0.57,0.69,0.57c0.44,0,0.64-0.15,0.64-0.47c0-0.31-0.23-0.41-0.69-0.5
		c-0.77-0.14-1.02-0.35-1.02-0.87c0-0.55,0.54-0.83,1-0.83c0.53,0,0.98,0.21,1.06,0.85H36.9c-0.07-0.32-0.25-0.46-0.62-0.46
		c-0.34,0-0.56,0.17-0.56,0.42c0,0.26,0.15,0.37,0.69,0.47c0.61,0.11,1.04,0.25,1.04,0.87c0,0.54-0.37,0.9-1.08,0.9
		C35.67,208.74,35.24,208.39,35.21,207.79z"/>
	<path class="st2" d="M38.42,207.61v-1.86h0.47v1.84c0,0.52,0.22,0.75,0.68,0.75c0.42,0,0.81-0.28,0.81-0.81v-1.78h0.47v2.94h-0.47
		v-0.47c-0.13,0.28-0.46,0.52-0.93,0.52C38.86,208.74,38.42,208.42,38.42,207.61z"/>
	<path class="st2" d="M42.06,205.75h0.47v0.45c0.14-0.28,0.46-0.5,0.88-0.5c0.38,0,0.71,0.16,0.86,0.55
		c0.2-0.38,0.64-0.55,1.01-0.55c0.53,0,0.99,0.31,0.99,1.17v1.82h-0.47v-1.86c0-0.52-0.22-0.73-0.62-0.73
		c-0.38,0-0.78,0.26-0.78,0.79v1.8h-0.47v-1.86c0-0.52-0.22-0.73-0.62-0.73c-0.38,0-0.78,0.26-0.78,0.79v1.8h-0.47V205.75z"/>
	<path class="st2" d="M48.8,207.28v-0.04c0-0.9,0.56-1.54,1.37-1.54c0.49,0,0.79,0.24,0.96,0.52v-1.88h0.47v4.35h-0.47v-0.51
		c-0.17,0.29-0.58,0.56-1.01,0.56C49.35,208.74,48.8,208.2,48.8,207.28z M51.15,207.24v-0.04c0-0.75-0.36-1.11-0.94-1.11
		c-0.58,0-0.93,0.41-0.93,1.13v0.04c0,0.74,0.4,1.1,0.9,1.1C50.72,208.35,51.15,207.99,51.15,207.24z"/>
	<path class="st2" d="M52.62,207.25v-0.04c0-0.88,0.61-1.5,1.45-1.5c0.83,0,1.45,0.61,1.45,1.5v0.04c0,0.89-0.61,1.5-1.45,1.5
		C53.22,208.74,52.62,208.11,52.62,207.25z M55.02,207.25v-0.04c0-0.68-0.38-1.12-0.96-1.12c-0.59,0-0.96,0.44-0.96,1.11v0.04
		c0,0.67,0.37,1.11,0.96,1.11C54.65,208.35,55.02,207.91,55.02,207.25z"/>
	<path class="st2" d="M56.54,204.34h0.47v4.35h-0.47V204.34z"/>
	<path class="st2" d="M58.04,207.25v-0.04c0-0.88,0.61-1.5,1.45-1.5c0.83,0,1.45,0.61,1.45,1.5v0.04c0,0.89-0.61,1.5-1.45,1.5
		C58.64,208.74,58.04,208.11,58.04,207.25z M60.45,207.25v-0.04c0-0.68-0.38-1.12-0.96-1.12c-0.59,0-0.96,0.44-0.96,1.11v0.04
		c0,0.67,0.37,1.11,0.96,1.11C60.07,208.35,60.45,207.91,60.45,207.25z"/>
	<path class="st2" d="M61.95,205.75h0.47v0.53c0.19-0.33,0.44-0.56,0.97-0.58v0.44c-0.59,0.03-0.97,0.21-0.97,0.94v1.62h-0.47
		V205.75z"/>
	<path class="st2" d="M65.66,207.79h0.46c0.03,0.35,0.22,0.57,0.69,0.57c0.44,0,0.64-0.15,0.64-0.47c0-0.31-0.23-0.41-0.69-0.5
		c-0.77-0.14-1.02-0.35-1.02-0.87c0-0.55,0.53-0.83,1-0.83c0.53,0,0.99,0.21,1.06,0.85h-0.45c-0.07-0.32-0.25-0.46-0.62-0.46
		c-0.34,0-0.56,0.17-0.56,0.42c0,0.26,0.15,0.37,0.69,0.47c0.61,0.11,1.04,0.25,1.04,0.87c0,0.54-0.37,0.9-1.08,0.9
		C66.11,208.74,65.69,208.39,65.66,207.79z"/>
	<path class="st2" d="M68.82,204.83c0-0.17,0.14-0.31,0.31-0.31c0.17,0,0.31,0.14,0.31,0.31c0,0.17-0.14,0.31-0.31,0.31
		C68.96,205.13,68.82,204.99,68.82,204.83z M68.91,205.75h0.47v2.94h-0.47V205.75z"/>
	<path class="st2" d="M70.69,207.96v-1.81h-0.42v-0.39h0.42v-0.67h0.47v0.67h0.69v0.39h-0.69v1.77c0,0.29,0.13,0.43,0.37,0.43
		c0.15,0,0.26-0.02,0.36-0.06v0.39c-0.1,0.03-0.21,0.06-0.4,0.06C70.95,208.73,70.69,208.42,70.69,207.96z"/>
	<path class="st2" d="M74.18,207.88c0-0.68,0.72-0.91,1.48-0.91h0.42v-0.21c0-0.47-0.18-0.66-0.63-0.66c-0.41,0-0.63,0.17-0.68,0.53
		h-0.47c0.06-0.67,0.6-0.92,1.17-0.92c0.56,0,1.07,0.23,1.07,1.05v1.94h-0.47v-0.37c-0.22,0.27-0.48,0.42-0.92,0.42
		C74.62,208.74,74.18,208.48,74.18,207.88z M76.08,207.66v-0.37h-0.41c-0.59,0-1.02,0.15-1.02,0.58c0,0.3,0.15,0.5,0.56,0.5
		C75.7,208.37,76.08,208.12,76.08,207.66z"/>
	<path class="st2" d="M77.73,205.75h0.47v0.45c0.13-0.28,0.46-0.5,0.88-0.5c0.38,0,0.71,0.16,0.86,0.55
		c0.2-0.38,0.64-0.55,1.01-0.55c0.53,0,0.99,0.31,0.99,1.17v1.82h-0.47v-1.86c0-0.52-0.22-0.73-0.62-0.73
		c-0.38,0-0.78,0.26-0.78,0.79v1.8H79.6v-1.86c0-0.52-0.22-0.73-0.62-0.73c-0.38,0-0.78,0.26-0.78,0.79v1.8h-0.47V205.75z"/>
	<path class="st2" d="M82.95,207.25v-0.04c0-0.89,0.57-1.51,1.38-1.51c0.68,0,1.32,0.41,1.32,1.46v0.15h-2.22
		c0.02,0.67,0.34,1.04,0.95,1.04c0.46,0,0.72-0.17,0.78-0.51h0.47c-0.1,0.59-0.59,0.9-1.26,0.9
		C83.54,208.74,82.95,208.16,82.95,207.25z M85.17,206.94c-0.05-0.61-0.36-0.85-0.84-0.85c-0.48,0-0.8,0.33-0.88,0.85H85.17z"/>
	<path class="st2" d="M86.73,207.96v-1.81h-0.42v-0.39h0.42v-0.67h0.47v0.67h0.69v0.39H87.2v1.77c0,0.29,0.13,0.43,0.37,0.43
		c0.15,0,0.26-0.02,0.36-0.06v0.39c-0.1,0.03-0.21,0.06-0.4,0.06C86.99,208.73,86.73,208.42,86.73,207.96z"/>
	<path class="st2" d="M88.65,209.23l0.54-1.23l0.46,0.21l-0.69,1.18L88.65,209.23z"/>
	<path class="st2" d="M92.1,207.79h0.46c0.03,0.35,0.22,0.57,0.69,0.57c0.44,0,0.64-0.15,0.64-0.47c0-0.31-0.23-0.41-0.69-0.5
		c-0.77-0.14-1.02-0.35-1.02-0.87c0-0.55,0.53-0.83,1-0.83c0.53,0,0.98,0.21,1.06,0.85h-0.45c-0.07-0.32-0.25-0.46-0.62-0.46
		c-0.34,0-0.56,0.17-0.56,0.42c0,0.26,0.15,0.37,0.69,0.47c0.61,0.11,1.04,0.25,1.04,0.87c0,0.54-0.37,0.9-1.08,0.9
		C92.55,208.74,92.13,208.39,92.1,207.79z"/>
	<path class="st2" d="M95.14,207.25v-0.04c0-0.9,0.64-1.51,1.43-1.51c0.61,0,1.19,0.28,1.28,1.03h-0.46
		c-0.07-0.47-0.41-0.64-0.82-0.64c-0.53,0-0.95,0.43-0.95,1.12v0.04c0,0.72,0.39,1.1,0.96,1.1c0.42,0,0.79-0.24,0.84-0.72h0.43
		c-0.06,0.64-0.57,1.11-1.28,1.11C95.76,208.74,95.14,208.16,95.14,207.25z"/>
	<path class="st2" d="M98.67,207.25v-0.04c0-0.89,0.57-1.51,1.38-1.51c0.68,0,1.32,0.41,1.32,1.46v0.15h-2.22
		c0.02,0.67,0.34,1.04,0.95,1.04c0.46,0,0.72-0.17,0.78-0.51h0.47c-0.1,0.59-0.59,0.9-1.26,0.9
		C99.26,208.74,98.67,208.16,98.67,207.25z M100.9,206.94c-0.05-0.61-0.36-0.85-0.84-0.85c-0.48,0-0.8,0.33-0.88,0.85H100.9z"/>
	<path class="st2" d="M102.41,204.34h0.47v4.35h-0.47V204.34z"/>
	<path class="st2" d="M103.91,207.25v-0.04c0-0.89,0.57-1.51,1.38-1.51c0.68,0,1.32,0.41,1.32,1.46v0.15h-2.22
		c0.02,0.67,0.34,1.04,0.95,1.04c0.46,0,0.72-0.17,0.78-0.51h0.47c-0.1,0.59-0.59,0.9-1.25,0.9
		C104.5,208.74,103.91,208.16,103.91,207.25z M106.13,206.94c-0.04-0.61-0.36-0.85-0.84-0.85c-0.48,0-0.8,0.33-0.88,0.85H106.13z"/>
	<path class="st2" d="M107.64,205.75h0.47v0.53c0.19-0.33,0.44-0.56,0.97-0.58v0.44c-0.59,0.03-0.97,0.21-0.97,0.94v1.62h-0.47
		V205.75z"/>
	<path class="st2" d="M109.92,204.83c0-0.17,0.14-0.31,0.31-0.31c0.17,0,0.31,0.14,0.31,0.31c0,0.17-0.14,0.31-0.31,0.31
		C110.06,205.13,109.92,204.99,109.92,204.83z M110,205.75h0.47v2.94H110V205.75z"/>
	<path class="st2" d="M111.47,207.79h0.46c0.03,0.35,0.22,0.57,0.69,0.57c0.44,0,0.64-0.15,0.64-0.47c0-0.31-0.23-0.41-0.69-0.5
		c-0.77-0.14-1.02-0.35-1.02-0.87c0-0.55,0.54-0.83,1-0.83c0.53,0,0.99,0.21,1.06,0.85h-0.45c-0.07-0.32-0.25-0.46-0.62-0.46
		c-0.34,0-0.56,0.17-0.56,0.42c0,0.26,0.15,0.37,0.69,0.47c0.61,0.11,1.04,0.25,1.04,0.87c0,0.54-0.37,0.9-1.08,0.9
		C111.92,208.74,111.5,208.39,111.47,207.79z"/>
	<path class="st2" d="M116.85,208.19c-0.17,0.29-0.58,0.56-1.01,0.56c-0.77,0-1.33-0.55-1.33-1.46v-0.04c0-0.9,0.56-1.54,1.37-1.54
		c0.49,0,0.79,0.24,0.96,0.52v-0.47h0.47v3.97h-0.47V208.19z M116.87,207.24v-0.04c0-0.75-0.36-1.11-0.93-1.11
		c-0.59,0-0.93,0.41-0.93,1.13v0.04c0,0.74,0.4,1.1,0.9,1.1C116.44,208.35,116.87,207.99,116.87,207.24z"/>
	<path class="st2" d="M118.51,207.61v-1.86h0.47v1.84c0,0.52,0.22,0.75,0.68,0.75c0.42,0,0.81-0.28,0.81-0.81v-1.78h0.47v2.94h-0.47
		v-0.47c-0.14,0.28-0.46,0.52-0.94,0.52C118.95,208.74,118.51,208.42,118.51,207.61z"/>
	<path class="st2" d="M121.96,207.25v-0.04c0-0.89,0.57-1.51,1.38-1.51c0.68,0,1.32,0.41,1.32,1.46v0.15h-2.22
		c0.02,0.67,0.34,1.04,0.95,1.04c0.46,0,0.72-0.17,0.78-0.51h0.47c-0.1,0.59-0.59,0.9-1.26,0.9
		C122.55,208.74,121.96,208.16,121.96,207.25z M124.18,206.94c-0.05-0.61-0.36-0.85-0.84-0.85c-0.48,0-0.8,0.33-0.88,0.85H124.18z"
		/>
	<path class="st2" d="M127.14,204.83c0-0.17,0.14-0.31,0.31-0.31c0.17,0,0.31,0.14,0.31,0.31c0,0.17-0.14,0.31-0.31,0.31
		C127.28,205.13,127.14,204.99,127.14,204.83z M127.22,205.75h0.47v2.94h-0.47V205.75z"/>
	<path class="st2" d="M128.9,205.75h0.47v0.49c0.17-0.29,0.57-0.54,1-0.54c0.77,0,1.34,0.56,1.34,1.48v0.04
		c0,0.9-0.53,1.52-1.34,1.52c-0.48,0-0.83-0.24-1-0.54v1.51h-0.47V205.75z M131.22,207.25v-0.04c0-0.74-0.41-1.11-0.91-1.11
		c-0.55,0-0.96,0.36-0.96,1.11v0.04c0,0.75,0.39,1.11,0.97,1.11C130.9,208.35,131.22,207.96,131.22,207.25z"/>
	<path class="st2" d="M132.5,207.79h0.46c0.03,0.35,0.22,0.57,0.69,0.57c0.44,0,0.64-0.15,0.64-0.47c0-0.31-0.23-0.41-0.69-0.5
		c-0.77-0.14-1.02-0.35-1.02-0.87c0-0.55,0.54-0.83,1-0.83c0.53,0,0.99,0.21,1.06,0.85h-0.45c-0.07-0.32-0.25-0.46-0.62-0.46
		c-0.34,0-0.56,0.17-0.56,0.42c0,0.26,0.15,0.37,0.69,0.47c0.61,0.11,1.04,0.25,1.04,0.87c0,0.54-0.37,0.9-1.08,0.9
		C132.95,208.74,132.53,208.39,132.5,207.79z"/>
	<path class="st2" d="M135.71,207.61v-1.86h0.47v1.84c0,0.52,0.22,0.75,0.68,0.75c0.42,0,0.81-0.28,0.81-0.81v-1.78h0.47v2.94h-0.47
		v-0.47c-0.13,0.28-0.46,0.52-0.93,0.52C136.15,208.74,135.71,208.42,135.71,207.61z"/>
	<path class="st2" d="M139.34,205.75h0.47v0.45c0.14-0.28,0.46-0.5,0.88-0.5c0.38,0,0.71,0.16,0.86,0.55
		c0.2-0.38,0.64-0.55,1.01-0.55c0.53,0,0.99,0.31,0.99,1.17v1.82h-0.47v-1.86c0-0.52-0.22-0.73-0.62-0.73
		c-0.38,0-0.78,0.26-0.78,0.79v1.8h-0.47v-1.86c0-0.52-0.22-0.73-0.62-0.73c-0.38,0-0.78,0.26-0.78,0.79v1.8h-0.47V205.75z"/>
	<path class="st2" d="M144.46,209.23l0.54-1.23l0.46,0.21l-0.69,1.18L144.46,209.23z"/>
	<path class="st2" d="M148.16,204.34h0.47v4.35h-0.47V204.34z"/>
	<path class="st2" d="M149.66,207.25v-0.04c0-0.89,0.57-1.51,1.38-1.51c0.68,0,1.32,0.41,1.32,1.46v0.15h-2.22
		c0.02,0.67,0.34,1.04,0.95,1.04c0.46,0,0.72-0.17,0.78-0.51h0.47c-0.1,0.59-0.59,0.9-1.26,0.9
		C150.25,208.74,149.66,208.16,149.66,207.25z M151.89,206.94c-0.04-0.61-0.36-0.85-0.84-0.85c-0.48,0-0.8,0.33-0.88,0.85H151.89z"
		/>
	<path class="st2" d="M153.19,207.25v-0.04c0-0.9,0.64-1.51,1.43-1.51c0.61,0,1.19,0.28,1.28,1.03h-0.46
		c-0.07-0.47-0.41-0.64-0.82-0.64c-0.53,0-0.95,0.43-0.95,1.12v0.04c0,0.72,0.39,1.1,0.96,1.1c0.42,0,0.79-0.24,0.84-0.72h0.43
		c-0.06,0.64-0.57,1.11-1.28,1.11C153.81,208.74,153.19,208.16,153.19,207.25z"/>
	<path class="st2" d="M157.02,207.96v-1.81h-0.42v-0.39h0.42v-0.67h0.47v0.67h0.69v0.39h-0.69v1.77c0,0.29,0.13,0.43,0.37,0.43
		c0.15,0,0.26-0.02,0.36-0.06v0.39c-0.1,0.03-0.21,0.06-0.4,0.06C157.28,208.73,157.02,208.42,157.02,207.96z"/>
	<path class="st2" d="M159.12,207.61v-1.86h0.47v1.84c0,0.52,0.22,0.75,0.68,0.75c0.42,0,0.81-0.28,0.81-0.81v-1.78h0.47v2.94h-0.47
		v-0.47c-0.13,0.28-0.46,0.52-0.93,0.52C159.56,208.74,159.12,208.42,159.12,207.61z"/>
	<path class="st2" d="M162.55,207.79H163c0.03,0.35,0.22,0.57,0.69,0.57c0.45,0,0.64-0.15,0.64-0.47c0-0.31-0.23-0.41-0.69-0.5
		c-0.77-0.14-1.02-0.35-1.02-0.87c0-0.55,0.54-0.83,1-0.83c0.53,0,0.99,0.21,1.06,0.85h-0.45c-0.07-0.32-0.25-0.46-0.62-0.46
		c-0.34,0-0.56,0.17-0.56,0.42c0,0.26,0.15,0.37,0.69,0.47c0.61,0.11,1.04,0.25,1.04,0.87c0,0.54-0.37,0.9-1.08,0.9
		C163,208.74,162.58,208.39,162.55,207.79z"/>
	<path class="st2" d="M167.09,207.79h0.46c0.03,0.35,0.22,0.57,0.69,0.57c0.44,0,0.64-0.15,0.64-0.47c0-0.31-0.23-0.41-0.69-0.5
		c-0.77-0.14-1.02-0.35-1.02-0.87c0-0.55,0.54-0.83,1-0.83c0.53,0,0.98,0.21,1.06,0.85h-0.45c-0.07-0.32-0.25-0.46-0.62-0.46
		c-0.34,0-0.56,0.17-0.56,0.42c0,0.26,0.15,0.37,0.69,0.47c0.61,0.11,1.04,0.25,1.04,0.87c0,0.54-0.37,0.9-1.08,0.9
		C167.54,208.74,167.11,208.39,167.09,207.79z"/>
	<path class="st2" d="M170.29,207.61v-1.86h0.47v1.84c0,0.52,0.22,0.75,0.68,0.75c0.42,0,0.81-0.28,0.81-0.81v-1.78h0.47v2.94h-0.47
		v-0.47c-0.13,0.28-0.46,0.52-0.93,0.52C170.73,208.74,170.29,208.42,170.29,207.61z"/>
	<path class="st2" d="M173.72,207.79h0.45c0.03,0.35,0.22,0.57,0.69,0.57c0.44,0,0.64-0.15,0.64-0.47c0-0.31-0.23-0.41-0.69-0.5
		c-0.76-0.14-1.02-0.35-1.02-0.87c0-0.55,0.54-0.83,1-0.83c0.53,0,0.99,0.21,1.06,0.85h-0.45c-0.07-0.32-0.25-0.46-0.62-0.46
		c-0.34,0-0.56,0.17-0.56,0.42c0,0.26,0.15,0.37,0.69,0.47c0.61,0.11,1.04,0.25,1.04,0.87c0,0.54-0.37,0.9-1.08,0.9
		C174.17,208.74,173.75,208.39,173.72,207.79z"/>
	<path class="st2" d="M176.76,207.25v-0.04c0-0.9,0.64-1.51,1.43-1.51c0.61,0,1.19,0.28,1.28,1.03h-0.46
		c-0.07-0.47-0.41-0.64-0.82-0.64c-0.54,0-0.95,0.43-0.95,1.12v0.04c0,0.72,0.39,1.1,0.96,1.1c0.42,0,0.79-0.24,0.84-0.72h0.44
		c-0.06,0.64-0.57,1.11-1.29,1.11C177.38,208.74,176.76,208.16,176.76,207.25z"/>
	<path class="st2" d="M180.4,204.83c0-0.17,0.14-0.31,0.31-0.31c0.17,0,0.31,0.14,0.31,0.31c0,0.17-0.14,0.31-0.31,0.31
		C180.54,205.13,180.4,204.99,180.4,204.83z M180.48,205.75h0.47v2.94h-0.47V205.75z"/>
	<path class="st2" d="M182.16,205.75h0.47v0.49c0.17-0.29,0.57-0.54,1-0.54c0.77,0,1.34,0.56,1.34,1.48v0.04
		c0,0.9-0.53,1.52-1.34,1.52c-0.48,0-0.83-0.24-1-0.54v1.51h-0.47V205.75z M184.48,207.25v-0.04c0-0.74-0.41-1.11-0.91-1.11
		c-0.54,0-0.96,0.36-0.96,1.11v0.04c0,0.75,0.39,1.11,0.97,1.11C184.17,208.35,184.48,207.96,184.48,207.25z"/>
	<path class="st2" d="M185.9,204.83c0-0.17,0.14-0.31,0.31-0.31c0.17,0,0.31,0.14,0.31,0.31c0,0.17-0.14,0.31-0.31,0.31
		C186.04,205.13,185.9,204.99,185.9,204.83z M185.99,205.75h0.47v2.94h-0.47V205.75z"/>
	<path class="st2" d="M187.77,207.96v-1.81h-0.42v-0.39h0.42v-0.67h0.47v0.67h0.69v0.39h-0.69v1.77c0,0.29,0.13,0.43,0.37,0.43
		c0.15,0,0.26-0.02,0.36-0.06v0.39c-0.1,0.03-0.21,0.06-0.4,0.06C188.03,208.73,187.77,208.42,187.77,207.96z"/>
	<path class="st2" d="M189.69,209.23l0.54-1.23l0.46,0.21l-0.69,1.18L189.69,209.23z"/>
	<path class="st2" d="M193.38,205.75h0.47v0.47c0.13-0.28,0.46-0.52,0.95-0.52c0.61,0,1.04,0.33,1.04,1.19v1.81h-0.47v-1.84
		c0-0.52-0.22-0.75-0.69-0.75c-0.43,0-0.82,0.28-0.82,0.8v1.78h-0.47V205.75z"/>
	<path class="st2" d="M196.81,207.88c0-0.68,0.72-0.91,1.47-0.91h0.42v-0.21c0-0.47-0.18-0.66-0.63-0.66
		c-0.41,0-0.63,0.17-0.68,0.53h-0.47c0.06-0.67,0.6-0.92,1.16-0.92c0.56,0,1.08,0.23,1.08,1.05v1.94h-0.47v-0.37
		c-0.22,0.27-0.48,0.42-0.92,0.42C197.24,208.74,196.81,208.48,196.81,207.88z M198.7,207.66v-0.37h-0.4
		c-0.59,0-1.02,0.15-1.02,0.58c0,0.3,0.14,0.5,0.56,0.5C198.33,208.37,198.7,208.12,198.7,207.66z"/>
	<path class="st2" d="M200.36,205.75h0.46v0.45c0.14-0.28,0.46-0.5,0.88-0.5c0.38,0,0.71,0.16,0.86,0.55
		c0.2-0.38,0.64-0.55,1.01-0.55c0.53,0,0.99,0.31,0.99,1.17v1.82h-0.47v-1.86c0-0.52-0.22-0.73-0.62-0.73
		c-0.38,0-0.78,0.26-0.78,0.79v1.8h-0.47v-1.86c0-0.52-0.22-0.73-0.62-0.73c-0.38,0-0.78,0.26-0.78,0.79v1.8h-0.46V205.75z"/>
	<path class="st2" d="M207.08,207.88c0-0.68,0.72-0.91,1.47-0.91h0.42v-0.21c0-0.47-0.18-0.66-0.63-0.66
		c-0.41,0-0.63,0.17-0.68,0.53h-0.47c0.06-0.67,0.6-0.92,1.17-0.92c0.56,0,1.08,0.23,1.08,1.05v1.94h-0.47v-0.37
		c-0.22,0.27-0.48,0.42-0.92,0.42C207.51,208.74,207.08,208.48,207.08,207.88z M208.97,207.66v-0.37h-0.4
		c-0.59,0-1.03,0.15-1.03,0.58c0,0.3,0.15,0.5,0.56,0.5C208.6,208.37,208.97,208.12,208.97,207.66z"/>
	<path class="st2" d="M210.63,205.75h0.47v0.47c0.13-0.28,0.46-0.52,0.95-0.52c0.61,0,1.04,0.33,1.04,1.19v1.81h-0.47v-1.84
		c0-0.52-0.22-0.75-0.69-0.75c-0.44,0-0.82,0.28-0.82,0.8v1.78h-0.47V205.75z"/>
	<path class="st2" d="M214.33,207.96v-1.81h-0.42v-0.39h0.42v-0.67h0.47v0.67h0.69v0.39h-0.69v1.77c0,0.29,0.13,0.43,0.37,0.43
		c0.15,0,0.26-0.02,0.36-0.06v0.39c-0.1,0.03-0.21,0.06-0.4,0.06C214.59,208.73,214.33,208.42,214.33,207.96z"/>
	<path class="st2" d="M216.22,207.25v-0.04c0-0.89,0.57-1.51,1.38-1.51c0.68,0,1.32,0.41,1.32,1.46v0.15h-2.22
		c0.02,0.67,0.34,1.04,0.95,1.04c0.46,0,0.72-0.17,0.78-0.51h0.47c-0.1,0.59-0.59,0.9-1.26,0.9
		C216.81,208.74,216.22,208.16,216.22,207.25z M218.44,206.94c-0.04-0.61-0.36-0.85-0.85-0.85c-0.48,0-0.8,0.33-0.88,0.85H218.44z"
		/>
	<path class="st2" d="M221.47,205.75h0.47v0.49c0.17-0.29,0.57-0.54,1-0.54c0.77,0,1.34,0.56,1.34,1.48v0.04
		c0,0.9-0.53,1.52-1.34,1.52c-0.48,0-0.83-0.24-1-0.54v1.51h-0.47V205.75z M223.79,207.25v-0.04c0-0.74-0.41-1.11-0.91-1.11
		c-0.55,0-0.96,0.36-0.96,1.11v0.04c0,0.75,0.39,1.11,0.97,1.11C223.47,208.35,223.79,207.96,223.79,207.25z"/>
	<path class="st2" d="M225.11,207.25v-0.04c0-0.89,0.57-1.51,1.38-1.51c0.68,0,1.32,0.41,1.32,1.46v0.15h-2.22
		c0.02,0.67,0.34,1.04,0.95,1.04c0.46,0,0.72-0.17,0.78-0.51h0.47c-0.1,0.59-0.59,0.9-1.26,0.9
		C225.7,208.74,225.11,208.16,225.11,207.25z M227.33,206.94c-0.04-0.61-0.36-0.85-0.85-0.85c-0.48,0-0.8,0.33-0.88,0.85H227.33z"/>
	<path class="st2" d="M228.85,204.34h0.47v4.35h-0.47V204.34z"/>
	<path class="st2" d="M230.54,204.34h0.47v4.35h-0.47V204.34z"/>
	<path class="st2" d="M232.04,207.25v-0.04c0-0.89,0.57-1.51,1.38-1.51c0.68,0,1.32,0.41,1.32,1.46v0.15h-2.22
		c0.02,0.67,0.34,1.04,0.95,1.04c0.46,0,0.72-0.17,0.78-0.51h0.47c-0.1,0.59-0.59,0.9-1.26,0.9
		C232.62,208.74,232.04,208.16,232.04,207.25z M234.26,206.94c-0.04-0.61-0.36-0.85-0.84-0.85c-0.48,0-0.8,0.33-0.88,0.85H234.26z"
		/>
	<path class="st2" d="M235.76,205.75h0.47v0.47c0.13-0.28,0.46-0.52,0.95-0.52c0.61,0,1.04,0.33,1.04,1.19v1.81h-0.47v-1.84
		c0-0.52-0.22-0.75-0.69-0.75c-0.43,0-0.82,0.28-0.82,0.8v1.78h-0.47V205.75z"/>
	<path class="st2" d="M239.46,207.96v-1.81h-0.42v-0.39h0.42v-0.67h0.47v0.67h0.69v0.39h-0.69v1.77c0,0.29,0.13,0.43,0.37,0.43
		c0.15,0,0.26-0.02,0.36-0.06v0.39c-0.1,0.03-0.21,0.06-0.4,0.06C239.72,208.73,239.46,208.42,239.46,207.96z"/>
	<path class="st2" d="M241.35,207.25v-0.04c0-0.89,0.57-1.51,1.38-1.51c0.68,0,1.32,0.41,1.32,1.46v0.15h-2.22
		c0.02,0.67,0.34,1.04,0.95,1.04c0.46,0,0.72-0.17,0.78-0.51h0.47c-0.1,0.59-0.59,0.9-1.26,0.9
		C241.94,208.74,241.35,208.16,241.35,207.25z M243.57,206.94c-0.04-0.61-0.36-0.85-0.84-0.85c-0.48,0-0.8,0.33-0.88,0.85H243.57z"
		/>
	<path class="st2" d="M244.86,207.79h0.46c0.03,0.35,0.22,0.57,0.69,0.57c0.45,0,0.64-0.15,0.64-0.47c0-0.31-0.23-0.41-0.69-0.5
		c-0.77-0.14-1.02-0.35-1.02-0.87c0-0.55,0.54-0.83,1-0.83c0.53,0,0.98,0.21,1.06,0.85h-0.45c-0.07-0.32-0.25-0.46-0.62-0.46
		c-0.34,0-0.56,0.17-0.56,0.42c0,0.26,0.15,0.37,0.69,0.47c0.61,0.11,1.04,0.25,1.04,0.87c0,0.54-0.37,0.9-1.08,0.9
		C245.31,208.74,244.88,208.39,244.86,207.79z"/>
	<path class="st2" d="M250.23,208.19c-0.17,0.29-0.58,0.56-1.01,0.56c-0.77,0-1.33-0.55-1.33-1.46v-0.04c0-0.9,0.56-1.54,1.37-1.54
		c0.49,0,0.79,0.24,0.96,0.52v-0.47h0.47v3.97h-0.47V208.19z M250.25,207.24v-0.04c0-0.75-0.36-1.11-0.94-1.11
		c-0.58,0-0.93,0.41-0.93,1.13v0.04c0,0.74,0.4,1.1,0.89,1.1C249.82,208.35,250.25,207.99,250.25,207.24z"/>
	<path class="st2" d="M251.89,207.61v-1.86h0.47v1.84c0,0.52,0.22,0.75,0.68,0.75c0.42,0,0.81-0.28,0.81-0.81v-1.78h0.47v2.94h-0.47
		v-0.47c-0.13,0.28-0.46,0.52-0.93,0.52C252.33,208.74,251.89,208.42,251.89,207.61z"/>
	<path class="st2" d="M255.34,207.25v-0.04c0-0.89,0.57-1.51,1.38-1.51c0.68,0,1.32,0.41,1.32,1.46v0.15h-2.22
		c0.02,0.67,0.34,1.04,0.95,1.04c0.46,0,0.72-0.17,0.78-0.51h0.47c-0.1,0.59-0.59,0.9-1.26,0.9
		C255.93,208.74,255.34,208.16,255.34,207.25z M257.56,206.94c-0.04-0.61-0.36-0.85-0.85-0.85c-0.48,0-0.8,0.33-0.88,0.85H257.56z"
		/>
	<path class="st2" d="M260.52,204.83c0-0.17,0.14-0.31,0.31-0.31c0.17,0,0.31,0.14,0.31,0.31c0,0.17-0.14,0.31-0.31,0.31
		C260.66,205.13,260.52,204.99,260.52,204.83z M260.6,205.75h0.47v2.94h-0.47V205.75z"/>
	<path class="st2" d="M262.28,205.75h0.47v0.47c0.13-0.28,0.46-0.52,0.95-0.52c0.61,0,1.04,0.33,1.04,1.19v1.81h-0.47v-1.84
		c0-0.52-0.22-0.75-0.69-0.75c-0.43,0-0.82,0.28-0.82,0.8v1.78h-0.47V205.75z"/>
	<path class="st2" d="M269.6,208.19c-0.17,0.29-0.58,0.56-1.01,0.56c-0.77,0-1.33-0.55-1.33-1.46v-0.04c0-0.9,0.56-1.54,1.38-1.54
		c0.49,0,0.79,0.24,0.96,0.52v-0.47h0.47v3.97h-0.47V208.19z M269.62,207.24v-0.04c0-0.75-0.36-1.11-0.93-1.11
		c-0.59,0-0.94,0.41-0.94,1.13v0.04c0,0.74,0.4,1.1,0.89,1.1C269.19,208.35,269.62,207.99,269.62,207.24z"/>
	<path class="st2" d="M271.25,207.61v-1.86h0.47v1.84c0,0.52,0.22,0.75,0.68,0.75c0.42,0,0.81-0.28,0.81-0.81v-1.78h0.47v2.94h-0.47
		v-0.47c-0.14,0.28-0.46,0.52-0.94,0.52C271.69,208.74,271.25,208.42,271.25,207.61z"/>
	<path class="st2" d="M274.81,204.83c0-0.17,0.14-0.31,0.31-0.31s0.31,0.14,0.31,0.31c0,0.17-0.14,0.31-0.31,0.31
		S274.81,204.99,274.81,204.83z M274.89,205.75h0.47v2.94h-0.47V205.75z"/>
	<path class="st2" d="M276.37,207.79h0.46c0.03,0.35,0.22,0.57,0.69,0.57c0.45,0,0.64-0.15,0.64-0.47c0-0.31-0.23-0.41-0.69-0.5
		c-0.77-0.14-1.03-0.35-1.03-0.87c0-0.55,0.54-0.83,1-0.83c0.53,0,0.98,0.21,1.06,0.85h-0.45c-0.07-0.32-0.25-0.46-0.62-0.46
		c-0.34,0-0.56,0.17-0.56,0.42c0,0.26,0.15,0.37,0.69,0.47c0.61,0.11,1.04,0.25,1.04,0.87c0,0.54-0.37,0.9-1.08,0.9
		C276.81,208.74,276.39,208.39,276.37,207.79z"/>
	<path class="st2" d="M281.14,205.75h0.47v0.49c0.17-0.29,0.57-0.54,1-0.54c0.77,0,1.34,0.56,1.34,1.48v0.04
		c0,0.9-0.53,1.52-1.34,1.52c-0.48,0-0.83-0.24-1-0.54v1.51h-0.47V205.75z M283.46,207.25v-0.04c0-0.74-0.41-1.11-0.9-1.11
		c-0.55,0-0.96,0.36-0.96,1.11v0.04c0,0.75,0.39,1.11,0.97,1.11C283.15,208.35,283.46,207.96,283.46,207.25z"/>
	<path class="st2" d="M284.78,207.25v-0.04c0-0.88,0.61-1.5,1.45-1.5c0.83,0,1.45,0.61,1.45,1.5v0.04c0,0.89-0.61,1.5-1.45,1.5
		C285.38,208.74,284.78,208.11,284.78,207.25z M287.19,207.25v-0.04c0-0.68-0.38-1.12-0.96-1.12c-0.59,0-0.96,0.44-0.96,1.11v0.04
		c0,0.67,0.37,1.11,0.96,1.11C286.82,208.35,287.19,207.91,287.19,207.25z"/>
	<path class="st2" d="M288.7,205.75h0.47v0.53c0.19-0.33,0.44-0.56,0.97-0.58v0.44c-0.59,0.03-0.97,0.21-0.97,0.94v1.62h-0.47
		V205.75z"/>
	<path class="st2" d="M291.3,207.96v-1.81h-0.42v-0.39h0.42v-0.67h0.47v0.67h0.69v0.39h-0.69v1.77c0,0.29,0.13,0.43,0.37,0.43
		c0.15,0,0.26-0.02,0.36-0.06v0.39c-0.09,0.03-0.21,0.06-0.4,0.06C291.56,208.73,291.3,208.42,291.3,207.96z"/>
	<path class="st2" d="M293.66,207.96v-1.81h-0.42v-0.39h0.42v-0.67h0.47v0.67h0.69v0.39h-0.69v1.77c0,0.29,0.13,0.43,0.37,0.43
		c0.15,0,0.26-0.02,0.36-0.06v0.39c-0.1,0.03-0.21,0.06-0.4,0.06C293.92,208.73,293.66,208.42,293.66,207.96z"/>
	<path class="st2" d="M295.71,204.83c0-0.17,0.14-0.31,0.31-0.31c0.17,0,0.31,0.14,0.31,0.31c0,0.17-0.14,0.31-0.31,0.31
		C295.86,205.13,295.71,204.99,295.71,204.83z M295.8,205.75h0.47v2.94h-0.47V205.75z"/>
	<path class="st2" d="M297.59,207.96v-1.81h-0.42v-0.39h0.42v-0.67h0.47v0.67h0.69v0.39h-0.69v1.77c0,0.29,0.13,0.43,0.37,0.43
		c0.15,0,0.26-0.02,0.36-0.06v0.39c-0.1,0.03-0.21,0.06-0.4,0.06C297.85,208.73,297.59,208.42,297.59,207.96z"/>
	<path class="st2" d="M299.46,207.25v-0.04c0-0.88,0.61-1.5,1.45-1.5c0.83,0,1.45,0.61,1.45,1.5v0.04c0,0.89-0.61,1.5-1.45,1.5
		C300.06,208.74,299.46,208.11,299.46,207.25z M301.87,207.25v-0.04c0-0.68-0.38-1.12-0.96-1.12c-0.59,0-0.96,0.44-0.96,1.11v0.04
		c0,0.67,0.36,1.11,0.96,1.11C301.5,208.35,301.87,207.91,301.87,207.25z"/>
	<path class="st2" d="M303.38,205.75h0.47v0.53c0.19-0.33,0.44-0.56,0.97-0.58v0.44c-0.59,0.03-0.97,0.21-0.97,0.94v1.62h-0.47
		V205.75z"/>
	<path class="st2" d="M305.41,208.36c0-0.2,0.16-0.36,0.36-0.36c0.2,0,0.36,0.16,0.36,0.36c0,0.2-0.16,0.36-0.36,0.36
		C305.57,208.72,305.41,208.56,305.41,208.36z"/>
	<path class="st2" d="M308.9,204.67h0.64l1.96,3.33v-3.33h0.47v4.02h-0.56l-2.03-3.45v3.45h-0.47V204.67z"/>
	<path class="st2" d="M313.07,207.25v-0.04c0-0.89,0.57-1.51,1.38-1.51c0.68,0,1.32,0.41,1.32,1.46v0.15h-2.22
		c0.02,0.67,0.34,1.04,0.95,1.04c0.46,0,0.72-0.17,0.78-0.51h0.47c-0.1,0.59-0.59,0.9-1.26,0.9
		C313.66,208.74,313.07,208.16,313.07,207.25z M315.29,206.94c-0.04-0.61-0.36-0.85-0.84-0.85c-0.48,0-0.8,0.33-0.88,0.85H315.29z"
		/>
	<path class="st2" d="M316.6,207.25v-0.04c0-0.9,0.64-1.51,1.43-1.51c0.61,0,1.19,0.28,1.28,1.03h-0.46
		c-0.07-0.47-0.41-0.64-0.81-0.64c-0.54,0-0.95,0.43-0.95,1.12v0.04c0,0.72,0.39,1.1,0.96,1.1c0.42,0,0.8-0.24,0.85-0.72h0.43
		c-0.06,0.64-0.58,1.11-1.29,1.11C317.22,208.74,316.6,208.16,316.6,207.25z"/>
	<path class="st2" d="M31.01,212.51h0.47v0.47c0.13-0.28,0.46-0.52,0.95-0.52c0.61,0,1.04,0.33,1.04,1.19v1.81h-0.47v-1.84
		c0-0.52-0.22-0.75-0.69-0.75c-0.43,0-0.82,0.28-0.82,0.81v1.78h-0.47V212.51z"/>
	<path class="st2" d="M34.44,214.64c0-0.68,0.72-0.91,1.48-0.91h0.42v-0.21c0-0.47-0.18-0.66-0.63-0.66c-0.41,0-0.63,0.17-0.68,0.53
		h-0.47c0.06-0.67,0.6-0.92,1.17-0.92c0.56,0,1.08,0.23,1.08,1.05v1.94h-0.47v-0.37c-0.22,0.28-0.48,0.42-0.92,0.42
		C34.87,215.51,34.44,215.24,34.44,214.64z M36.33,214.43v-0.37h-0.41c-0.59,0-1.02,0.15-1.02,0.58c0,0.3,0.15,0.5,0.56,0.5
		C35.96,215.13,36.33,214.88,36.33,214.43z"/>
	<path class="st2" d="M37.99,212.51h0.47v0.45c0.13-0.28,0.46-0.5,0.88-0.5c0.38,0,0.71,0.16,0.86,0.55
		c0.2-0.38,0.64-0.55,1.01-0.55c0.53,0,0.99,0.31,0.99,1.17v1.82h-0.47v-1.86c0-0.52-0.22-0.73-0.62-0.73
		c-0.38,0-0.78,0.26-0.78,0.79v1.8h-0.47v-1.86c0-0.52-0.22-0.73-0.62-0.73c-0.38,0-0.78,0.26-0.78,0.79v1.8h-0.47V212.51z"/>
	<path class="st2" d="M44.71,214.64c0-0.68,0.72-0.91,1.47-0.91h0.42v-0.21c0-0.47-0.18-0.66-0.63-0.66c-0.41,0-0.63,0.17-0.68,0.53
		h-0.47c0.06-0.67,0.6-0.92,1.17-0.92c0.56,0,1.07,0.23,1.07,1.05v1.94H46.6v-0.37c-0.22,0.28-0.48,0.42-0.92,0.42
		C45.14,215.51,44.71,215.24,44.71,214.64z M46.6,214.43v-0.37H46.2c-0.59,0-1.02,0.15-1.02,0.58c0,0.3,0.15,0.5,0.56,0.5
		C46.23,215.13,46.6,214.88,46.6,214.43z"/>
	<path class="st2" d="M48.23,214.38v-1.86h0.47v1.84c0,0.52,0.22,0.75,0.68,0.75c0.42,0,0.81-0.28,0.81-0.81v-1.78h0.47v2.94h-0.47
		v-0.47c-0.13,0.28-0.46,0.52-0.93,0.52C48.67,215.51,48.23,215.19,48.23,214.38z"/>
	<path class="st2" d="M51.68,214.01v-0.04c0-0.9,0.64-1.51,1.43-1.51c0.61,0,1.19,0.28,1.28,1.03h-0.46
		c-0.07-0.47-0.41-0.64-0.82-0.64c-0.54,0-0.95,0.43-0.95,1.12v0.04c0,0.72,0.39,1.1,0.96,1.1c0.42,0,0.79-0.24,0.84-0.72h0.43
		c-0.06,0.64-0.57,1.11-1.28,1.11C52.3,215.51,51.68,214.93,51.68,214.01z"/>
	<path class="st2" d="M55.5,214.72v-1.81h-0.42v-0.39h0.42v-0.67h0.47v0.67h0.69v0.39h-0.69v1.77c0,0.29,0.13,0.43,0.37,0.43
		c0.15,0,0.26-0.02,0.36-0.06v0.39c-0.1,0.03-0.21,0.06-0.4,0.06C55.76,215.5,55.5,215.18,55.5,214.72z"/>
	<path class="st2" d="M57.38,214.01v-0.04c0-0.88,0.61-1.5,1.45-1.5c0.83,0,1.45,0.61,1.45,1.5V214c0,0.89-0.61,1.5-1.45,1.5
		C57.98,215.51,57.38,214.87,57.38,214.01z M59.79,214.01v-0.04c0-0.68-0.38-1.12-0.96-1.12c-0.59,0-0.96,0.44-0.96,1.11v0.04
		c0,0.67,0.37,1.11,0.96,1.11C59.42,215.12,59.79,214.67,59.79,214.01z"/>
	<path class="st2" d="M61.3,212.51h0.47v0.53c0.19-0.33,0.44-0.56,0.97-0.58v0.44c-0.59,0.03-0.97,0.21-0.97,0.94v1.62H61.3V212.51z
		"/>
	<path class="st2" d="M65.25,212.51h0.47v0.45c0.13-0.28,0.46-0.5,0.88-0.5c0.38,0,0.71,0.16,0.86,0.55
		c0.2-0.38,0.64-0.55,1.01-0.55c0.53,0,0.99,0.31,0.99,1.17v1.82h-0.47v-1.86c0-0.52-0.22-0.73-0.63-0.73
		c-0.38,0-0.78,0.26-0.78,0.79v1.8h-0.47v-1.86c0-0.52-0.22-0.73-0.63-0.73c-0.38,0-0.78,0.26-0.78,0.79v1.8h-0.47V212.51z"/>
	<path class="st2" d="M70.44,214.64c0-0.68,0.72-0.91,1.48-0.91h0.42v-0.21c0-0.47-0.18-0.66-0.63-0.66c-0.41,0-0.63,0.17-0.68,0.53
		h-0.47c0.06-0.67,0.6-0.92,1.17-0.92c0.56,0,1.07,0.23,1.07,1.05v1.94h-0.47v-0.37c-0.22,0.28-0.48,0.42-0.92,0.42
		C70.87,215.51,70.44,215.24,70.44,214.64z M72.33,214.43v-0.37h-0.41c-0.59,0-1.02,0.15-1.02,0.58c0,0.3,0.15,0.5,0.56,0.5
		C71.96,215.13,72.33,214.88,72.33,214.43z"/>
	<path class="st2" d="M73.8,214.01v-0.04c0-0.89,0.57-1.51,1.38-1.51c0.68,0,1.32,0.41,1.32,1.46v0.15h-2.22
		c0.02,0.67,0.34,1.04,0.95,1.04c0.46,0,0.72-0.17,0.78-0.51h0.47c-0.1,0.59-0.59,0.9-1.26,0.9
		C74.39,215.51,73.8,214.92,73.8,214.01z M76.02,213.7c-0.04-0.61-0.36-0.85-0.84-0.85c-0.48,0-0.8,0.33-0.88,0.85H76.02z"/>
	<path class="st2" d="M77.33,214.01v-0.04c0-0.9,0.64-1.51,1.43-1.51c0.61,0,1.19,0.28,1.28,1.03h-0.46
		c-0.07-0.47-0.41-0.64-0.82-0.64c-0.54,0-0.95,0.43-0.95,1.12v0.04c0,0.72,0.39,1.1,0.96,1.1c0.42,0,0.79-0.24,0.84-0.72h0.43
		c-0.06,0.64-0.57,1.11-1.28,1.11C77.95,215.51,77.33,214.93,77.33,214.01z"/>
	<path class="st2" d="M80.86,214.01v-0.04c0-0.89,0.57-1.51,1.38-1.51c0.68,0,1.32,0.41,1.32,1.46v0.15h-2.22
		c0.02,0.67,0.34,1.04,0.95,1.04c0.46,0,0.72-0.17,0.78-0.51h0.47c-0.1,0.59-0.59,0.9-1.26,0.9
		C81.45,215.51,80.86,214.92,80.86,214.01z M83.09,213.7c-0.05-0.61-0.36-0.85-0.85-0.85c-0.48,0-0.8,0.33-0.88,0.85H83.09z"/>
	<path class="st2" d="M84.59,212.51h0.47v0.47c0.14-0.28,0.46-0.52,0.95-0.52c0.61,0,1.04,0.33,1.04,1.19v1.81h-0.47v-1.84
		c0-0.52-0.22-0.75-0.69-0.75c-0.43,0-0.82,0.28-0.82,0.81v1.78h-0.47V212.51z"/>
	<path class="st2" d="M88.02,214.64c0-0.68,0.72-0.91,1.48-0.91h0.42v-0.21c0-0.47-0.18-0.66-0.63-0.66c-0.4,0-0.63,0.17-0.68,0.53
		h-0.47c0.06-0.67,0.6-0.92,1.17-0.92c0.56,0,1.08,0.23,1.08,1.05v1.94h-0.47v-0.37c-0.22,0.28-0.48,0.42-0.92,0.42
		C88.45,215.51,88.02,215.24,88.02,214.64z M89.91,214.43v-0.37h-0.41c-0.59,0-1.02,0.15-1.02,0.58c0,0.3,0.15,0.5,0.56,0.5
		C89.54,215.13,89.91,214.88,89.91,214.43z"/>
	<path class="st2" d="M91.36,214.55h0.46c0.03,0.35,0.22,0.57,0.69,0.57c0.44,0,0.64-0.15,0.64-0.47c0-0.31-0.23-0.41-0.69-0.5
		c-0.77-0.14-1.02-0.36-1.02-0.87c0-0.55,0.53-0.83,1-0.83c0.53,0,0.99,0.21,1.06,0.85h-0.45c-0.07-0.32-0.25-0.46-0.62-0.46
		c-0.34,0-0.56,0.17-0.56,0.42c0,0.26,0.15,0.37,0.69,0.47c0.61,0.11,1.04,0.25,1.04,0.87c0,0.54-0.37,0.9-1.08,0.9
		C91.81,215.51,91.39,215.15,91.36,214.55z"/>
	<path class="st2" d="M95.89,214.64c0-0.68,0.72-0.91,1.48-0.91h0.42v-0.21c0-0.47-0.18-0.66-0.63-0.66c-0.41,0-0.63,0.17-0.68,0.53
		h-0.47c0.06-0.67,0.6-0.92,1.17-0.92c0.56,0,1.07,0.23,1.07,1.05v1.94h-0.47v-0.37c-0.22,0.28-0.48,0.42-0.92,0.42
		C96.33,215.51,95.89,215.24,95.89,214.64z M97.79,214.43v-0.37h-0.41c-0.59,0-1.02,0.15-1.02,0.58c0,0.3,0.15,0.5,0.56,0.5
		C97.41,215.13,97.79,214.88,97.79,214.43z"/>
	<path class="st2" d="M99.16,215.99l0.54-1.23l0.46,0.21l-0.69,1.18L99.16,215.99z"/>
	<path class="st2" d="M102.63,214.04V214c0-0.9,0.56-1.54,1.37-1.54c0.49,0,0.79,0.24,0.96,0.52v-1.88h0.47v4.35h-0.47v-0.51
		c-0.17,0.29-0.58,0.56-1.01,0.56C103.19,215.51,102.63,214.96,102.63,214.04z M104.98,214v-0.04c0-0.75-0.36-1.11-0.93-1.11
		c-0.59,0-0.93,0.41-0.93,1.13v0.04c0,0.74,0.4,1.1,0.9,1.1C104.56,215.12,104.98,214.76,104.98,214z"/>
	<path class="st2" d="M106.57,211.59c0-0.17,0.14-0.31,0.31-0.31c0.17,0,0.31,0.14,0.31,0.31c0,0.17-0.14,0.31-0.31,0.31
		C106.71,211.9,106.57,211.76,106.57,211.59z M106.65,212.51h0.47v2.94h-0.47V212.51z"/>
	<path class="st2" d="M108.12,214.55h0.46c0.03,0.35,0.22,0.57,0.69,0.57c0.44,0,0.64-0.15,0.64-0.47c0-0.31-0.23-0.41-0.69-0.5
		c-0.77-0.14-1.02-0.36-1.02-0.87c0-0.55,0.53-0.83,1-0.83c0.53,0,0.99,0.21,1.06,0.85h-0.45c-0.07-0.32-0.25-0.46-0.62-0.46
		c-0.34,0-0.56,0.17-0.56,0.42c0,0.26,0.15,0.37,0.69,0.47c0.61,0.11,1.04,0.25,1.04,0.87c0,0.54-0.37,0.9-1.08,0.9
		C108.57,215.51,108.15,215.15,108.12,214.55z"/>
	<path class="st2" d="M112.9,212.51h0.47v0.47c0.14-0.28,0.46-0.52,0.95-0.52c0.61,0,1.04,0.33,1.04,1.19v1.81h-0.47v-1.84
		c0-0.52-0.22-0.75-0.69-0.75c-0.43,0-0.82,0.28-0.82,0.81v1.78h-0.47V212.51z"/>
	<path class="st2" d="M116.35,214.01v-0.04c0-0.89,0.57-1.51,1.38-1.51c0.68,0,1.32,0.41,1.32,1.46v0.15h-2.22
		c0.02,0.67,0.34,1.04,0.95,1.04c0.46,0,0.72-0.17,0.78-0.51h0.47c-0.1,0.59-0.59,0.9-1.26,0.9
		C116.94,215.51,116.35,214.92,116.35,214.01z M118.57,213.7c-0.04-0.61-0.36-0.85-0.84-0.85c-0.48,0-0.8,0.33-0.88,0.85H118.57z"/>
	<path class="st2" d="M119.88,214.01v-0.04c0-0.9,0.64-1.51,1.43-1.51c0.61,0,1.19,0.28,1.28,1.03h-0.46
		c-0.07-0.47-0.41-0.64-0.82-0.64c-0.54,0-0.95,0.43-0.95,1.12v0.04c0,0.72,0.39,1.1,0.96,1.1c0.42,0,0.79-0.24,0.84-0.72h0.43
		c-0.06,0.64-0.57,1.11-1.28,1.11C120.5,215.51,119.88,214.93,119.88,214.01z"/>
	<path class="st2" d="M123.26,215.99l0.54-1.23l0.46,0.21l-0.69,1.18L123.26,215.99z"/>
	<path class="st2" d="M126.73,214.01v-0.04c0-0.89,0.57-1.51,1.38-1.51c0.68,0,1.32,0.41,1.32,1.46v0.15h-2.22
		c0.02,0.67,0.34,1.04,0.95,1.04c0.46,0,0.72-0.17,0.78-0.51h0.47c-0.1,0.59-0.59,0.9-1.25,0.9
		C127.32,215.51,126.73,214.92,126.73,214.01z M128.96,213.7c-0.04-0.61-0.36-0.85-0.84-0.85c-0.48,0-0.8,0.33-0.88,0.85H128.96z"/>
	<path class="st2" d="M130.52,214.72v-1.81h-0.42v-0.39h0.42v-0.67h0.47v0.67h0.69v0.39h-0.69v1.77c0,0.29,0.13,0.43,0.37,0.43
		c0.15,0,0.26-0.02,0.36-0.06v0.39c-0.1,0.03-0.21,0.06-0.4,0.06C130.78,215.5,130.52,215.18,130.52,214.72z"/>
	<path class="st2" d="M134.01,214.55h0.46c0.03,0.35,0.22,0.57,0.69,0.57c0.45,0,0.64-0.15,0.64-0.47c0-0.31-0.23-0.41-0.69-0.5
		c-0.77-0.14-1.02-0.36-1.02-0.87c0-0.55,0.54-0.83,1-0.83c0.53,0,0.99,0.21,1.06,0.85h-0.45c-0.07-0.32-0.25-0.46-0.62-0.46
		c-0.34,0-0.56,0.17-0.56,0.42c0,0.26,0.15,0.37,0.69,0.47c0.61,0.11,1.04,0.25,1.04,0.87c0,0.54-0.37,0.9-1.08,0.9
		C134.46,215.51,134.04,215.15,134.01,214.55z"/>
	<path class="st2" d="M137.22,214.38v-1.86h0.47v1.84c0,0.52,0.22,0.75,0.68,0.75c0.42,0,0.81-0.28,0.81-0.81v-1.78h0.47v2.94h-0.47
		v-0.47c-0.13,0.28-0.46,0.52-0.93,0.52C137.65,215.51,137.22,215.19,137.22,214.38z"/>
	<path class="st2" d="M140.64,214.55h0.46c0.03,0.35,0.22,0.57,0.69,0.57c0.44,0,0.64-0.15,0.64-0.47c0-0.31-0.23-0.41-0.69-0.5
		c-0.77-0.14-1.02-0.36-1.02-0.87c0-0.55,0.54-0.83,1-0.83c0.53,0,0.99,0.21,1.06,0.85h-0.45c-0.07-0.32-0.25-0.46-0.62-0.46
		c-0.34,0-0.56,0.17-0.56,0.42c0,0.26,0.15,0.37,0.69,0.47c0.61,0.11,1.04,0.25,1.04,0.87c0,0.54-0.37,0.9-1.08,0.9
		C141.09,215.51,140.67,215.15,140.64,214.55z"/>
	<path class="st2" d="M143.68,214.01v-0.04c0-0.9,0.64-1.51,1.43-1.51c0.61,0,1.19,0.28,1.28,1.03h-0.46
		c-0.07-0.47-0.41-0.64-0.82-0.64c-0.54,0-0.95,0.43-0.95,1.12v0.04c0,0.72,0.39,1.1,0.96,1.1c0.42,0,0.79-0.24,0.84-0.72h0.43
		c-0.06,0.64-0.57,1.11-1.28,1.11C144.3,215.51,143.68,214.93,143.68,214.01z"/>
	<path class="st2" d="M147.32,211.59c0-0.17,0.14-0.31,0.31-0.31c0.17,0,0.31,0.14,0.31,0.31c0,0.17-0.14,0.31-0.31,0.31
		C147.46,211.9,147.32,211.76,147.32,211.59z M147.41,212.51h0.47v2.94h-0.47V212.51z"/>
	<path class="st2" d="M149.08,212.51h0.47v0.5c0.17-0.29,0.57-0.54,1-0.54c0.77,0,1.34,0.56,1.34,1.48v0.05
		c0,0.9-0.53,1.52-1.34,1.52c-0.48,0-0.83-0.24-1-0.54v1.51h-0.47V212.51z M151.4,214.01v-0.04c0-0.74-0.41-1.11-0.91-1.11
		c-0.55,0-0.96,0.36-0.96,1.11v0.04c0,0.75,0.39,1.11,0.97,1.11C151.09,215.12,151.4,214.72,151.4,214.01z"/>
	<path class="st2" d="M152.83,211.59c0-0.17,0.14-0.31,0.31-0.31c0.17,0,0.31,0.14,0.31,0.31c0,0.17-0.14,0.31-0.31,0.31
		C152.97,211.9,152.83,211.76,152.83,211.59z M152.91,212.51h0.47v2.94h-0.47V212.51z"/>
	<path class="st2" d="M154.7,214.72v-1.81h-0.42v-0.39h0.42v-0.67h0.47v0.67h0.69v0.39h-0.69v1.77c0,0.29,0.13,0.43,0.37,0.43
		c0.15,0,0.26-0.02,0.36-0.06v0.39c-0.1,0.03-0.21,0.06-0.4,0.06C154.96,215.5,154.7,215.18,154.7,214.72z"/>
	<path class="st2" d="M158.21,214.01v-0.04c0-0.9,0.64-1.51,1.43-1.51c0.61,0,1.19,0.28,1.28,1.03h-0.46
		c-0.07-0.47-0.41-0.64-0.82-0.64c-0.54,0-0.95,0.43-0.95,1.12v0.04c0,0.72,0.39,1.1,0.96,1.1c0.42,0,0.79-0.24,0.84-0.72h0.43
		c-0.06,0.64-0.57,1.11-1.28,1.11C158.83,215.51,158.21,214.93,158.21,214.01z"/>
	<path class="st2" d="M161.74,214.01v-0.04c0-0.88,0.61-1.5,1.45-1.5c0.83,0,1.45,0.61,1.45,1.5V214c0,0.89-0.61,1.5-1.45,1.5
		C162.34,215.51,161.74,214.87,161.74,214.01z M164.15,214.01v-0.04c0-0.68-0.38-1.12-0.96-1.12c-0.59,0-0.96,0.44-0.96,1.11v0.04
		c0,0.67,0.37,1.11,0.96,1.11C163.78,215.12,164.15,214.67,164.15,214.01z"/>
	<path class="st2" d="M165.66,212.51h0.47v0.47c0.13-0.28,0.46-0.52,0.95-0.52c0.61,0,1.04,0.33,1.04,1.19v1.81h-0.47v-1.84
		c0-0.52-0.22-0.75-0.69-0.75c-0.43,0-0.82,0.28-0.82,0.81v1.78h-0.47V212.51z"/>
	<path class="st2" d="M168.87,212.51h0.51l0.87,2.47l0.86-2.47h0.49l-1.06,2.94h-0.6L168.87,212.51z"/>
	<path class="st2" d="M172.2,214.64c0-0.68,0.72-0.91,1.47-0.91h0.42v-0.21c0-0.47-0.18-0.66-0.63-0.66c-0.41,0-0.63,0.17-0.68,0.53
		h-0.47c0.06-0.67,0.6-0.92,1.17-0.92c0.56,0,1.08,0.23,1.08,1.05v1.94h-0.47v-0.37c-0.22,0.28-0.48,0.42-0.92,0.42
		C172.63,215.51,172.2,215.24,172.2,214.64z M174.09,214.43v-0.37h-0.4c-0.59,0-1.03,0.15-1.03,0.58c0,0.3,0.15,0.5,0.56,0.5
		C173.72,215.13,174.09,214.88,174.09,214.43z"/>
	<path class="st2" d="M175.76,211.1h0.47v4.35h-0.47V211.1z"/>
	<path class="st2" d="M177.44,211.1h0.47v4.35h-0.47V211.1z"/>
	<path class="st2" d="M179.05,211.59c0-0.17,0.14-0.31,0.31-0.31c0.17,0,0.31,0.14,0.31,0.31c0,0.17-0.14,0.31-0.31,0.31
		C179.19,211.9,179.05,211.76,179.05,211.59z M179.14,212.51h0.47v2.94h-0.47V212.51z"/>
	<path class="st2" d="M180.61,214.55h0.46c0.04,0.35,0.22,0.57,0.69,0.57c0.45,0,0.64-0.15,0.64-0.47c0-0.31-0.23-0.41-0.69-0.5
		c-0.77-0.14-1.03-0.36-1.03-0.87c0-0.55,0.54-0.83,1-0.83c0.53,0,0.98,0.21,1.06,0.85h-0.45c-0.07-0.32-0.25-0.46-0.62-0.46
		c-0.34,0-0.56,0.17-0.56,0.42c0,0.26,0.15,0.37,0.69,0.47c0.61,0.11,1.04,0.25,1.04,0.87c0,0.54-0.37,0.9-1.08,0.9
		C181.06,215.51,180.63,215.15,180.61,214.55z"/>
	<path class="st2" d="M185.16,214.01v-0.04c0-0.89,0.57-1.51,1.38-1.51c0.68,0,1.32,0.41,1.32,1.46v0.15h-2.22
		c0.02,0.67,0.34,1.04,0.95,1.04c0.46,0,0.72-0.17,0.78-0.51h0.47c-0.1,0.59-0.59,0.9-1.26,0.9
		C185.76,215.51,185.16,214.92,185.16,214.01z M187.39,213.7c-0.04-0.61-0.36-0.85-0.85-0.85c-0.48,0-0.8,0.33-0.88,0.85H187.39z"/>
	<path class="st2" d="M188.9,211.1h0.47v4.35h-0.47V211.1z"/>
	<path class="st2" d="M190.4,214.01v-0.04c0-0.89,0.57-1.51,1.38-1.51c0.68,0,1.32,0.41,1.32,1.46v0.15h-2.22
		c0.02,0.67,0.34,1.04,0.95,1.04c0.46,0,0.72-0.17,0.78-0.51h0.47c-0.1,0.59-0.59,0.9-1.26,0.9
		C190.99,215.51,190.4,214.92,190.4,214.01z M192.63,213.7c-0.04-0.61-0.36-0.85-0.85-0.85c-0.48,0-0.8,0.33-0.88,0.85H192.63z"/>
	<path class="st2" d="M194.04,211.59c0-0.17,0.14-0.31,0.31-0.31c0.17,0,0.31,0.14,0.31,0.31c0,0.17-0.14,0.31-0.31,0.31
		C194.19,211.9,194.04,211.76,194.04,211.59z M194.13,212.51h0.47v2.94h-0.47V212.51z"/>
	<path class="st2" d="M195.92,212.91h-0.42v-0.39h0.42v-0.48c0-0.6,0.29-0.95,0.88-0.95c0.15,0,0.23,0.02,0.35,0.06v0.39
		c-0.08-0.03-0.2-0.06-0.33-0.06c-0.3,0-0.43,0.21-0.43,0.51v0.53h0.72v0.39h-0.72v2.55h-0.47V212.91z"/>
	<path class="st2" d="M197.76,214.01v-0.04c0-0.89,0.57-1.51,1.38-1.51c0.68,0,1.32,0.41,1.32,1.46v0.15h-2.22
		c0.02,0.67,0.34,1.04,0.95,1.04c0.46,0,0.72-0.17,0.78-0.51h0.47c-0.1,0.59-0.59,0.9-1.26,0.9
		C198.36,215.51,197.76,214.92,197.76,214.01z M199.99,213.7c-0.04-0.61-0.36-0.85-0.84-0.85c-0.48,0-0.8,0.33-0.88,0.85H199.99z"/>
	<path class="st2" d="M201.49,212.51h0.47v0.47c0.13-0.28,0.46-0.52,0.95-0.52c0.61,0,1.04,0.33,1.04,1.19v1.81h-0.47v-1.84
		c0-0.52-0.22-0.75-0.69-0.75c-0.43,0-0.82,0.28-0.82,0.81v1.78h-0.47V212.51z"/>
	<path class="st2" d="M204.94,214.04V214c0-0.9,0.56-1.54,1.38-1.54c0.49,0,0.79,0.24,0.96,0.52v-1.88h0.47v4.35h-0.47v-0.51
		c-0.17,0.29-0.58,0.56-1.01,0.56C205.49,215.51,204.94,214.96,204.94,214.04z M207.29,214v-0.04c0-0.75-0.36-1.11-0.93-1.11
		c-0.59,0-0.94,0.41-0.94,1.13v0.04c0,0.74,0.4,1.1,0.89,1.1C206.86,215.12,207.29,214.76,207.29,214z"/>
	<path class="st2" d="M210.52,212.51h0.47v0.5c0.17-0.29,0.57-0.54,1-0.54c0.77,0,1.34,0.56,1.34,1.48v0.05
		c0,0.9-0.53,1.52-1.34,1.52c-0.48,0-0.83-0.24-1-0.54v1.51h-0.47V212.51z M212.84,214.01v-0.04c0-0.74-0.41-1.11-0.91-1.11
		c-0.54,0-0.96,0.36-0.96,1.11v0.04c0,0.75,0.39,1.11,0.97,1.11C212.53,215.12,212.84,214.72,212.84,214.01z"/>
	<path class="st2" d="M214.35,212.51h0.47v0.53c0.19-0.33,0.44-0.56,0.97-0.58v0.44c-0.59,0.03-0.97,0.21-0.97,0.94v1.62h-0.47
		V212.51z"/>
	<path class="st2" d="M216.45,214.01v-0.04c0-0.88,0.61-1.5,1.45-1.5c0.83,0,1.45,0.61,1.45,1.5V214c0,0.89-0.61,1.5-1.45,1.5
		C217.05,215.51,216.45,214.87,216.45,214.01z M218.86,214.01v-0.04c0-0.68-0.38-1.12-0.96-1.12c-0.59,0-0.96,0.44-0.96,1.11v0.04
		c0,0.67,0.37,1.11,0.96,1.11C218.49,215.12,218.86,214.67,218.86,214.01z"/>
	<path class="st2" d="M220.27,211.59c0-0.17,0.14-0.31,0.31-0.31c0.17,0,0.31,0.14,0.31,0.31c0,0.17-0.14,0.31-0.31,0.31
		C220.41,211.9,220.27,211.76,220.27,211.59z M220.36,212.51h0.47v2.94h-0.47V212.51z"/>
	<path class="st2" d="M221.84,214.04V214c0-0.9,0.56-1.54,1.38-1.54c0.49,0,0.79,0.24,0.96,0.52v-1.88h0.47v4.35h-0.47v-0.51
		c-0.17,0.29-0.58,0.56-1.01,0.56C222.4,215.51,221.84,214.96,221.84,214.04z M224.19,214v-0.04c0-0.75-0.36-1.11-0.93-1.11
		c-0.59,0-0.94,0.41-0.94,1.13v0.04c0,0.74,0.4,1.1,0.89,1.1C223.76,215.12,224.19,214.76,224.19,214z"/>
	<path class="st2" d="M225.66,214.01v-0.04c0-0.89,0.57-1.51,1.38-1.51c0.68,0,1.32,0.41,1.32,1.46v0.15h-2.22
		c0.02,0.67,0.34,1.04,0.95,1.04c0.46,0,0.72-0.17,0.78-0.51h0.47c-0.1,0.59-0.59,0.9-1.26,0.9
		C226.26,215.51,225.66,214.92,225.66,214.01z M227.89,213.7c-0.04-0.61-0.36-0.85-0.85-0.85c-0.48,0-0.8,0.33-0.88,0.85H227.89z"/>
	<path class="st2" d="M229.39,212.51h0.47v0.47c0.13-0.28,0.46-0.52,0.95-0.52c0.61,0,1.04,0.33,1.04,1.19v1.81h-0.47v-1.84
		c0-0.52-0.22-0.75-0.69-0.75c-0.43,0-0.82,0.28-0.82,0.81v1.78h-0.47V212.51z"/>
	<path class="st2" d="M233.1,214.72v-1.81h-0.42v-0.39h0.42v-0.67h0.47v0.67h0.69v0.39h-0.69v1.77c0,0.29,0.13,0.43,0.37,0.43
		c0.15,0,0.26-0.02,0.36-0.06v0.39c-0.1,0.03-0.21,0.06-0.4,0.06C233.36,215.5,233.1,215.18,233.1,214.72z"/>
	<path class="st2" d="M236.84,211.1h0.47v4.35h-0.47V211.1z"/>
	<path class="st2" d="M238.32,214.64c0-0.68,0.72-0.91,1.47-0.91h0.42v-0.21c0-0.47-0.18-0.66-0.63-0.66
		c-0.41,0-0.63,0.17-0.68,0.53h-0.47c0.06-0.67,0.6-0.92,1.17-0.92c0.56,0,1.07,0.23,1.07,1.05v1.94h-0.47v-0.37
		c-0.22,0.28-0.48,0.42-0.92,0.42C238.75,215.51,238.32,215.24,238.32,214.64z M240.21,214.43v-0.37h-0.41
		c-0.59,0-1.02,0.15-1.02,0.58c0,0.3,0.15,0.5,0.56,0.5C239.84,215.13,240.21,214.88,240.21,214.43z"/>
	<path class="st2" d="M241.67,214.01v-0.04c0-0.9,0.64-1.51,1.43-1.51c0.61,0,1.19,0.28,1.28,1.03h-0.46
		c-0.07-0.47-0.41-0.64-0.82-0.64c-0.54,0-0.95,0.43-0.95,1.12v0.04c0,0.72,0.4,1.1,0.96,1.1c0.42,0,0.79-0.24,0.84-0.72h0.43
		c-0.06,0.64-0.57,1.11-1.28,1.11C242.29,215.51,241.67,214.93,241.67,214.01z"/>
	<path class="st2" d="M245.36,214.38v-1.86h0.47v1.84c0,0.52,0.22,0.75,0.68,0.75c0.42,0,0.81-0.28,0.81-0.81v-1.78h0.47v2.94h-0.47
		v-0.47c-0.13,0.28-0.46,0.52-0.93,0.52C245.79,215.51,245.36,215.19,245.36,214.38z"/>
	<path class="st2" d="M248.78,214.55h0.46c0.04,0.35,0.22,0.57,0.69,0.57c0.44,0,0.64-0.15,0.64-0.47c0-0.31-0.23-0.41-0.69-0.5
		c-0.77-0.14-1.03-0.36-1.03-0.87c0-0.55,0.54-0.83,1-0.83c0.53,0,0.98,0.21,1.06,0.85h-0.45c-0.07-0.32-0.25-0.46-0.62-0.46
		c-0.34,0-0.56,0.17-0.56,0.42c0,0.26,0.15,0.37,0.69,0.47c0.61,0.11,1.04,0.25,1.04,0.87c0,0.54-0.37,0.9-1.08,0.9
		C249.23,215.51,248.81,215.15,248.78,214.55z"/>
	<path class="st2" d="M253.56,212.51h0.47v0.5c0.17-0.29,0.57-0.54,1-0.54c0.77,0,1.34,0.56,1.34,1.48v0.05
		c0,0.9-0.53,1.52-1.34,1.52c-0.48,0-0.83-0.24-1-0.54v1.51h-0.47V212.51z M255.88,214.01v-0.04c0-0.74-0.41-1.11-0.91-1.11
		c-0.54,0-0.96,0.36-0.96,1.11v0.04c0,0.75,0.39,1.11,0.97,1.11C255.57,215.12,255.88,214.72,255.88,214.01z"/>
	<path class="st2" d="M257.2,214.01v-0.04c0-0.88,0.61-1.5,1.45-1.5c0.83,0,1.45,0.61,1.45,1.5V214c0,0.89-0.61,1.5-1.45,1.5
		C257.8,215.51,257.2,214.87,257.2,214.01z M259.61,214.01v-0.04c0-0.68-0.38-1.12-0.96-1.12c-0.59,0-0.96,0.44-0.96,1.11v0.04
		c0,0.67,0.37,1.11,0.96,1.11C259.24,215.12,259.61,214.67,259.61,214.01z"/>
	<path class="st2" d="M261.12,212.51h0.46v0.53c0.19-0.33,0.44-0.56,0.97-0.58v0.44c-0.59,0.03-0.97,0.21-0.97,0.94v1.62h-0.46
		V212.51z"/>
	<path class="st2" d="M263.72,214.72v-1.81h-0.42v-0.39h0.42v-0.67h0.47v0.67h0.69v0.39h-0.69v1.77c0,0.29,0.13,0.43,0.36,0.43
		c0.15,0,0.26-0.02,0.36-0.06v0.39c-0.1,0.03-0.21,0.06-0.4,0.06C263.98,215.5,263.72,215.18,263.72,214.72z"/>
	<path class="st2" d="M265.7,214.64c0-0.68,0.72-0.91,1.47-0.91h0.42v-0.21c0-0.47-0.18-0.66-0.63-0.66c-0.41,0-0.63,0.17-0.68,0.53
		h-0.47c0.06-0.67,0.6-0.92,1.16-0.92c0.56,0,1.08,0.23,1.08,1.05v1.94h-0.47v-0.37c-0.22,0.28-0.48,0.42-0.92,0.42
		C266.13,215.51,265.7,215.24,265.7,214.64z M267.6,214.43v-0.37h-0.4c-0.59,0-1.02,0.15-1.02,0.58c0,0.3,0.14,0.5,0.56,0.5
		C267.22,215.13,267.6,214.88,267.6,214.43z"/>
	<path class="st2" d="M268.96,215.99l0.54-1.23l0.46,0.21l-0.69,1.18L268.96,215.99z"/>
	<path class="st2" d="M272.66,212.51h0.47v0.47c0.13-0.28,0.46-0.52,0.95-0.52c0.61,0,1.04,0.33,1.04,1.19v1.81h-0.47v-1.84
		c0-0.52-0.22-0.75-0.69-0.75c-0.43,0-0.82,0.28-0.82,0.81v1.78h-0.47V212.51z"/>
	<path class="st2" d="M276.11,214.01v-0.04c0-0.89,0.57-1.51,1.38-1.51c0.68,0,1.32,0.41,1.32,1.46v0.15h-2.22
		c0.02,0.67,0.34,1.04,0.95,1.04c0.46,0,0.72-0.17,0.78-0.51h0.47c-0.1,0.59-0.59,0.9-1.26,0.9
		C276.7,215.51,276.11,214.92,276.11,214.01z M278.33,213.7c-0.04-0.61-0.36-0.85-0.84-0.85c-0.48,0-0.8,0.33-0.88,0.85H278.33z"/>
	<path class="st2" d="M281.98,214.95c-0.17,0.29-0.58,0.56-1.01,0.56c-0.77,0-1.33-0.55-1.33-1.46V214c0-0.9,0.56-1.54,1.37-1.54
		c0.49,0,0.8,0.24,0.96,0.52v-0.47h0.47v3.97h-0.47V214.95z M282,214v-0.04c0-0.75-0.36-1.11-0.93-1.11c-0.58,0-0.93,0.41-0.93,1.13
		v0.04c0,0.74,0.4,1.1,0.89,1.1C281.57,215.12,282,214.76,282,214z"/>
	<path class="st2" d="M283.63,214.38v-1.86h0.47v1.84c0,0.52,0.22,0.75,0.68,0.75c0.42,0,0.81-0.28,0.81-0.81v-1.78h0.47v2.94h-0.47
		v-0.47c-0.13,0.28-0.46,0.52-0.94,0.52C284.07,215.51,283.63,215.19,283.63,214.38z"/>
	<path class="st2" d="M287.08,214.01v-0.04c0-0.89,0.57-1.51,1.38-1.51c0.68,0,1.32,0.41,1.32,1.46v0.15h-2.22
		c0.02,0.67,0.34,1.04,0.95,1.04c0.46,0,0.72-0.17,0.78-0.51h0.47c-0.1,0.59-0.59,0.9-1.26,0.9
		C287.68,215.51,287.08,214.92,287.08,214.01z M289.31,213.7c-0.04-0.61-0.36-0.85-0.84-0.85c-0.48,0-0.8,0.33-0.88,0.85H289.31z"/>
	<path class="st2" d="M292.12,214.01v-0.04c0-0.89,0.57-1.51,1.38-1.51c0.68,0,1.32,0.41,1.32,1.46v0.15h-2.22
		c0.02,0.67,0.34,1.04,0.95,1.04c0.46,0,0.72-0.17,0.78-0.51h0.47c-0.1,0.59-0.59,0.9-1.26,0.9
		C292.71,215.51,292.12,214.92,292.12,214.01z M294.34,213.7c-0.04-0.61-0.36-0.85-0.84-0.85c-0.48,0-0.8,0.33-0.88,0.85H294.34z"/>
	<path class="st2" d="M295.81,214.38v-1.86h0.47v1.84c0,0.52,0.22,0.75,0.68,0.75c0.42,0,0.81-0.28,0.81-0.81v-1.78h0.47v2.94h-0.47
		v-0.47c-0.13,0.28-0.46,0.52-0.93,0.52C296.25,215.51,295.81,215.19,295.81,214.38z"/>
</g>
</svg>
