<?xml version="1.0" encoding="utf-8"?>
<!-- Generator: Adobe Illustrator 19.2.0, SVG Export Plug-In . SVG Version: 6.00 Build 0)  -->
<svg version="1.1" id="Layer_1_" xmlns="http://www.w3.org/2000/svg" xmlns:xlink="http://www.w3.org/1999/xlink" x="0px" y="0px"
	 viewBox="0 0 336 235.2" style="enable-background:new 0 0 336 235.2;" xml:space="preserve">
<style type="text/css">
	.st0{fill:url(#SVGID_1_);}
	.st1{fill-rule:evenodd;clip-rule:evenodd;fill:#FFFFFF;}
	.st2{fill:none;}
	.st3{fill:#999999;}
	.st4{font-family:'OpenSans-Light';}
	.st5{font-size:3.3612px;}
	.st6{fill:#E9552A;}
	.st7{font-family:'Roboto-Regular';}
	.st8{font-size:3.9957px;}
	.st9{fill:#6DC9CA;}
	.st10{fill:#F4AF43;}
	.st11{font-family:'Roboto-Light';}
	.st12{font-size:5.2518px;}
	.st13{fill:#FFFFFF;}
	.st14{font-family:'OpenSans-BoldItalic';}
	.st15{font-size:11.0348px;}
	.st16{fill:#D5D6D5;}
	.st17{fill:#AAA9AA;}
	.st18{font-family:'NexaLight';}
	.st19{font-size:3.3845px;}
	.st20{fill:#C0BFBD;}
	.st21{font-family:'Roboto-Medium';}
	.st22{font-size:8.4029px;}
	.st23{fill:#295E5E;}
	.st24{fill:url(#SVGID_2_);}
	.st25{fill:url(#SVGID_3_);}
	.st26{fill:url(#SVGID_4_);}
	.st27{font-family:'Roboto-Bold';}
	.st28{font-size:12.8612px;}
	.st29{fill:url(#SVGID_5_);}
	.st30{fill:url(#SVGID_6_);}
	.st31{fill:url(#SVGID_7_);}
	.st32{fill:url(#SVGID_8_);}
	.st33{fill:#DDDDDD;}
	.st34{fill:#333333;}
	.st35{font-family:'OpenSans-Semibold';}
	.st36{font-size:3.1511px;}
</style>
<radialGradient id="SVGID_1_" cx="167.9931" cy="117.5943" r="145.001" gradientTransform="matrix(1 0 0 3 0 -235.1886)" gradientUnits="userSpaceOnUse">
	<stop  offset="0" style="stop-color:#F5F5F5"/>
	<stop  offset="0.5302" style="stop-color:#F2F2F2"/>
	<stop  offset="0.8218" style="stop-color:#EAEAEA"/>
	<stop  offset="1" style="stop-color:#E1E1E1"/>
</radialGradient>
<rect y="0" class="st0" width="336" height="235.2"/>
<rect x="7.8" y="127.8" class="st1" width="101.3" height="97.7"/>
<rect x="118.1" y="127.8" class="st1" width="101.3" height="97.7"/>
<rect x="228.4" y="127.8" class="st1" width="101.3" height="97.7"/>
<rect x="7.8" y="37.9" class="st1" width="321.1" height="83.8"/>
<rect x="11.5" y="134.1" class="st2" width="94.1" height="6.2"/>
<text transform="matrix(1 0 0 1 11.5264 136.6548)" class="st3 st4 st5">Sint soleat definitiones ei eam. At alia tota has, no per duis</text>
<circle class="st6" cx="124.1" cy="218.9" r="1.7"/>
<text transform="matrix(1 0 0 1 127.8525 220.3527)" class="st3 st7 st8">NUMBER 1</text>
<circle class="st9" cx="157.5" cy="218.9" r="1.7"/>
<text transform="matrix(1 0 0 1 161.3067 220.3527)" class="st3 st7 st8">NUMBER 1</text>
<circle class="st10" cx="191.9" cy="218.9" r="1.7"/>
<text transform="matrix(1 0 0 1 195.6553 220.3527)" class="st3 st7 st8">NUMBER 1</text>
<g>
	<path class="st9" d="M306.4,185.6h12.2c0.2,0,0.3,0.2,0.3,0.3v12.2c0,0.2-0.2,0.3-0.3,0.3h-12.2c-0.2,0-0.3-0.2-0.3-0.3V186
		C306.1,185.8,306.2,185.6,306.4,185.6z M318.3,186.3h-11.5v11.5h11.5V186.3z"/>
	<g>
		<path class="st9" d="M289.7,185.6h12.2c0.2,0,0.3,0.2,0.3,0.3v12.2c0,0.2-0.2,0.3-0.3,0.3h-12.2c-0.2,0-0.3-0.2-0.3-0.3V186
			C289.3,185.8,289.5,185.6,289.7,185.6z M301.5,186.3H290v11.5h11.5V186.3z"/>
	</g>
	<g>
		<path class="st9" d="M273,185.6h12.2c0.2,0,0.3,0.2,0.3,0.3v12.2c0,0.2-0.2,0.3-0.3,0.3H273c-0.2,0-0.3-0.2-0.3-0.3V186
			C272.6,185.8,272.8,185.6,273,185.6z M284.8,186.3h-11.5v11.5h11.5V186.3z"/>
	</g>
	<g>
		<path class="st9" d="M256.2,185.6h12.2c0.2,0,0.3,0.2,0.3,0.3v12.2c0,0.2-0.2,0.3-0.3,0.3h-12.2c-0.2,0-0.3-0.2-0.3-0.3V186
			C255.9,185.8,256,185.6,256.2,185.6z M268.1,186.3h-11.5v11.5h11.5V186.3z"/>
	</g>
	<path class="st9" d="M239.2,198.5h12.2c0.2,0,0.3-0.2,0.3-0.3V186c0-0.2-0.2-0.3-0.3-0.3h-12.2c-0.2,0-0.3,0.2-0.3,0.3v12.2
		C238.8,198.4,239,198.5,239.2,198.5z"/>
	<path class="st9" d="M306.1,181.9h12.2c0.2,0,0.3-0.2,0.3-0.3v-12.2c0-0.2-0.2-0.3-0.3-0.3h-12.2c-0.2,0-0.3,0.2-0.3,0.3v12.2
		C305.7,181.7,305.9,181.9,306.1,181.9z"/>
	<path class="st9" d="M289.3,181.9h12.2c0.2,0,0.3-0.2,0.3-0.3v-12.2c0-0.2-0.2-0.3-0.3-0.3h-12.2c-0.2,0-0.3,0.2-0.3,0.3v12.2
		C289,181.7,289.2,181.9,289.3,181.9z"/>
	<path class="st9" d="M272.6,181.9h12.2c0.2,0,0.3-0.2,0.3-0.3v-12.2c0-0.2-0.2-0.3-0.3-0.3h-12.2c-0.2,0-0.3,0.2-0.3,0.3v12.2
		C272.3,181.7,272.4,181.9,272.6,181.9z"/>
	<path class="st9" d="M255.9,181.9h12.2c0.2,0,0.3-0.2,0.3-0.3v-12.2c0-0.2-0.2-0.3-0.3-0.3h-12.2c-0.2,0-0.3,0.2-0.3,0.3v12.2
		C255.6,181.7,255.7,181.9,255.9,181.9z"/>
	<path class="st9" d="M239.2,181.9h12.2c0.2,0,0.3-0.2,0.3-0.3v-12.2c0-0.2-0.2-0.3-0.3-0.3h-12.2c-0.2,0-0.3,0.2-0.3,0.3v12.2
		C238.8,181.7,239,181.9,239.2,181.9z"/>
	<path class="st9" d="M306.1,165.3h12.2c0.2,0,0.3-0.2,0.3-0.3v-12.2c0-0.2-0.2-0.3-0.3-0.3h-12.2c-0.2,0-0.3,0.2-0.3,0.3v12.2
		C305.7,165.1,305.9,165.3,306.1,165.3z"/>
	<path class="st9" d="M289.3,165.3h12.2c0.2,0,0.3-0.2,0.3-0.3v-12.2c0-0.2-0.2-0.3-0.3-0.3h-12.2c-0.2,0-0.3,0.2-0.3,0.3v12.2
		C289,165.1,289.2,165.3,289.3,165.3z"/>
	<path class="st9" d="M272.6,165.3h12.2c0.2,0,0.3-0.2,0.3-0.3v-12.2c0-0.2-0.2-0.3-0.3-0.3h-12.2c-0.2,0-0.3,0.2-0.3,0.3v12.2
		C272.3,165.1,272.4,165.3,272.6,165.3z"/>
	<path class="st9" d="M255.9,165.3h12.2c0.2,0,0.3-0.2,0.3-0.3v-12.2c0-0.2-0.2-0.3-0.3-0.3h-12.2c-0.2,0-0.3,0.2-0.3,0.3v12.2
		C255.6,165.1,255.7,165.3,255.9,165.3z"/>
	<path class="st9" d="M239.2,165.3h12.2c0.2,0,0.3-0.2,0.3-0.3v-12.2c0-0.2-0.2-0.3-0.3-0.3h-12.2c-0.2,0-0.3,0.2-0.3,0.3v12.2
		C238.8,165.1,239,165.3,239.2,165.3z"/>
	<path class="st9" d="M306.1,148.6h12.2c0.2,0,0.3-0.2,0.3-0.3v-12.2c0-0.2-0.2-0.3-0.3-0.3h-12.2c-0.2,0-0.3,0.2-0.3,0.3v12.2
		C305.7,148.5,305.9,148.6,306.1,148.6z"/>
	<path class="st9" d="M289.3,148.6h12.2c0.2,0,0.3-0.2,0.3-0.3v-12.2c0-0.2-0.2-0.3-0.3-0.3h-12.2c-0.2,0-0.3,0.2-0.3,0.3v12.2
		C289,148.5,289.2,148.6,289.3,148.6z"/>
	<path class="st9" d="M272.6,148.6h12.2c0.2,0,0.3-0.2,0.3-0.3v-12.2c0-0.2-0.2-0.3-0.3-0.3h-12.2c-0.2,0-0.3,0.2-0.3,0.3v12.2
		C272.3,148.5,272.4,148.6,272.6,148.6z"/>
	<path class="st9" d="M255.9,148.6h12.2c0.2,0,0.3-0.2,0.3-0.3v-12.2c0-0.2-0.2-0.3-0.3-0.3h-12.2c-0.2,0-0.3,0.2-0.3,0.3v12.2
		C255.6,148.5,255.7,148.6,255.9,148.6z"/>
	<path class="st9" d="M239.2,148.6h12.2c0.2,0,0.3-0.2,0.3-0.3v-12.2c0-0.2-0.2-0.3-0.3-0.3h-12.2c-0.2,0-0.3,0.2-0.3,0.3v12.2
		C238.8,148.5,239,148.6,239.2,148.6z"/>
</g>
<rect x="238.3" y="202.3" class="st2" width="80.4" height="19.4"/>
<text transform="matrix(1 0 0 1 238.3692 206.2798)"><tspan x="0" y="0" class="st3 st11 st12">Curabitur dictum sagittis enim quis </tspan><tspan x="4.4" y="6.3" class="st3 st11 st12">celerisque.dignissim viverra elit </tspan><tspan x="18.8" y="12.6" class="st3 st11 st12">lectus eleifend dui. </tspan></text>
<polygon class="st9" points="336,0 0,0 0,7.6 0,23.5 0,29 3.5,32.4 9,26.9 9.1,26.9 14.5,32.4 20,26.9 20.1,26.9 25.6,32.4 
	31.1,26.9 31.2,26.9 36.6,32.3 41.9,26.9 42.1,26.9 47.6,32.4 53.1,26.9 53.2,26.9 58.6,32.4 64.1,26.9 64.2,26.9 69.7,32.4 
	75.2,26.9 75.3,26.9 80.5,32.2 85.8,26.9 85.9,26.9 91.4,32.4 96.9,26.9 97,26.9 102.5,32.4 107.9,26.9 108,26.9 113.5,32.4 
	119,26.9 119.1,26.9 124.5,32.3 129.9,26.9 130,26.9 135.5,32.4 141,26.9 141.1,26.9 146.6,32.4 152,26.9 152.1,26.9 157.6,32.4 
	163.1,26.9 163.3,26.9 168.5,32.1 173.7,26.9 173.8,26.9 179.3,32.4 184.9,26.9 185,26.9 190.4,32.4 195.8,26.9 196,26.9 
	201.5,32.4 207,26.9 207.1,26.9 212.5,32.3 217.8,26.9 217.9,26.9 223.5,32.4 229,26.9 229.1,26.9 234.5,32.4 240,26.9 240.1,26.9 
	245.6,32.4 251.1,26.9 251.2,26.9 256.4,32.2 261.7,26.9 261.8,26.9 267.3,32.4 272.8,26.9 272.9,26.9 278.4,32.4 283.8,26.9 
	283.9,26.9 289.4,32.4 294.9,26.9 295,26.9 300.4,32.3 305.8,26.9 305.9,26.9 311.4,32.4 316.9,26.9 317,26.9 322.5,32.4 
	327.9,26.9 328,26.9 333.5,32.4 335.2,30.7 335.2,23.5 336,23.5 "/>
<rect x="30" y="10.1" class="st2" width="275.9" height="12.4"/>
<text transform="matrix(1 0 0 1 79.0942 18.4768)" class="st13 st14 st15">Infographic Elements Inspiration</text>
<g>
	<g>
		<rect x="16.9" y="80" class="st16" width="24.4" height="1.1"/>
	</g>
	<g>
		<rect x="62" y="80" class="st16" width="18.3" height="1.1"/>
	</g>
	<g>
		<rect x="101" y="80" class="st16" width="17.1" height="1.1"/>
	</g>
	<g>
		<rect x="138.7" y="80" class="st16" width="18.3" height="1.1"/>
	</g>
	<g>
		<rect x="177.7" y="80" class="st16" width="24.4" height="1.1"/>
	</g>
	<g>
		<rect x="51.7" y="64.7" class="st16" width="1.1" height="7.3"/>
	</g>
	<g>
		<rect x="128.1" y="64.7" class="st16" width="1.1" height="7.3"/>
	</g>
	<g>
		<rect x="90.7" y="87.9" class="st16" width="1.1" height="7.3"/>
	</g>
	<g>
		<rect x="167.5" y="87.9" class="st16" width="1.1" height="7.3"/>
	</g>
	<circle class="st9" cx="20.4" cy="80.6" r="5.1"/>
	<g>
		<rect x="296.7" y="80.1" class="st16" width="24.4" height="1.1"/>
	</g>
	<circle class="st9" cx="316.7" cy="80.6" r="5.1"/>
	<g>
		<rect x="72.6" y="107" class="st2" width="35.8" height="4"/>
		<text transform="matrix(1 0 0 1 72.6231 109.4048)" class="st17 st18 st19">Lorem ipsum dolor sit</text>
	</g>
	<rect x="72.6" y="100" class="st2" width="39" height="6.1"/>
	<text transform="matrix(1 0 0 1 72.6231 103.96)" class="st20 st21 st12">LOREM IPSUM</text>
	<rect x="33.7" y="99.7" class="st2" width="39" height="7.1"/>
	<text transform="matrix(1 0 0 1 43.9219 106.0254)" class="st6 st21 st22">2010</text>
	<rect x="71.8" y="54.5" class="st2" width="39" height="7.1"/>
	<text transform="matrix(1 0 0 1 82.0337 60.7891)" class="st10 st21 st22">2011</text>
	<rect x="109.9" y="99.7" class="st2" width="39" height="7.1"/>
	<text transform="matrix(1 0 0 1 120.0737 106.0254)" class="st21 st22">2012</text>
	<rect x="148" y="54.5" class="st2" width="39" height="7.1"/>
	<text transform="matrix(1 0 0 1 158.1846 60.7891)" class="st9 st21 st22">2013</text>
	<rect x="191.3" y="99.7" class="st2" width="39" height="7.1"/>
	<text transform="matrix(1 0 0 1 201.4668 106.0254)" class="st6 st21 st22">2014</text>
	<rect x="268.2" y="99.7" class="st2" width="39" height="7.1"/>
	<text transform="matrix(1 0 0 1 278.4053 106.0254)" class="st23 st21 st22">2016</text>
	<rect x="229.4" y="54.5" class="st2" width="39" height="7.1"/>
	<text transform="matrix(1 0 0 1 239.5781 60.7891)" class="st10 st21 st22">2015</text>
	<g>
		<rect x="149.7" y="107" class="st2" width="35.8" height="4"/>
		<text transform="matrix(1 0 0 1 149.668 109.4048)" class="st17 st18 st19">Lorem ipsum dolor sit</text>
	</g>
	<rect x="149.7" y="100" class="st2" width="39" height="6.1"/>
	<text transform="matrix(1 0 0 1 149.668 103.96)" class="st20 st21 st12">LOREM IPSUM</text>
	<g>
		<rect x="35.9" y="58.2" class="st2" width="35.8" height="4"/>
		<text transform="matrix(1 0 0 1 35.8594 60.564)" class="st17 st18 st19">Lorem ipsum dolor sit</text>
	</g>
	<rect x="35.9" y="51.2" class="st2" width="39" height="6.1"/>
	<text transform="matrix(1 0 0 1 35.8594 55.1182)" class="st20 st21 st12">LOREM IPSUM</text>
	<g>
		<rect x="112" y="58.2" class="st2" width="35.8" height="4"/>
		<text transform="matrix(1 0 0 1 112.0117 60.564)" class="st17 st18 st19">Lorem ipsum dolor sit</text>
	</g>
	<rect x="112" y="51.2" class="st2" width="39" height="6.1"/>
	<text transform="matrix(1 0 0 1 112.0117 55.1182)" class="st20 st21 st12">LOREM IPSUM</text>
	<g>
		<rect x="220.9" y="80" class="st16" width="18.3" height="1.1"/>
	</g>
	<g>
		<rect x="259.9" y="80" class="st16" width="17.1" height="1.1"/>
	</g>
	<g>
		<rect x="210.6" y="64.7" class="st16" width="1.1" height="7.3"/>
	</g>
	<g>
		<rect x="287.1" y="64.7" class="st16" width="1.1" height="7.3"/>
	</g>
	<g>
		<rect x="249.6" y="87.9" class="st16" width="1.1" height="7.3"/>
	</g>
	<g>
		<rect x="231.6" y="107" class="st2" width="35.8" height="4"/>
		<text transform="matrix(1 0 0 1 231.582 109.4048)" class="st17 st18 st19">Lorem ipsum dolor sit</text>
	</g>
	<rect x="231.6" y="100" class="st2" width="39" height="6.1"/>
	<text transform="matrix(1 0 0 1 231.582 103.96)" class="st20 st21 st12">LOREM IPSUM</text>
	<g>
		<rect x="194.8" y="58.2" class="st2" width="35.8" height="4"/>
		<text transform="matrix(1 0 0 1 194.8183 60.564)" class="st17 st18 st19">Lorem ipsum dolor sit</text>
	</g>
	<rect x="194.8" y="51.2" class="st2" width="39" height="6.1"/>
	<text transform="matrix(1 0 0 1 194.8183 55.1182)" class="st20 st21 st12">LOREM IPSUM</text>
	<g>
		<rect x="271" y="58.2" class="st2" width="35.8" height="4"/>
		<text transform="matrix(1 0 0 1 270.9707 60.564)" class="st17 st18 st19">Lorem ipsum dolor sit</text>
	</g>
	<rect x="271" y="51.2" class="st2" width="39" height="6.1"/>
	<text transform="matrix(1 0 0 1 270.9707 55.1182)" class="st20 st21 st12">LOREM IPSUM</text>
	
		<linearGradient id="SVGID_2_" gradientUnits="userSpaceOnUse" x1="66.0451" y1="67.7151" x2="80.5158" y2="82.1858" gradientTransform="matrix(0.9844 1.560000e-02 1.560000e-02 0.9844 -13.1082 13.1087)">
		<stop  offset="0" style="stop-color:#C7C7C7"/>
		<stop  offset="0.1945" style="stop-color:#DADADA"/>
		<stop  offset="0.4657" style="stop-color:#EFEFEF"/>
		<stop  offset="0.7355" style="stop-color:#FBFBFB"/>
		<stop  offset="1" style="stop-color:#FFFFFF"/>
	</linearGradient>
	<polygon class="st24" points="59.6,103.1 45,88.7 60.8,73 75.4,87.3 	"/>
	<circle class="st13" cx="52.6" cy="80.6" r="11.1"/>
	
		<linearGradient id="SVGID_3_" gradientUnits="userSpaceOnUse" x1="183.2864" y1="65.8566" x2="197.7571" y2="80.3273" gradientTransform="matrix(0.9844 1.560000e-02 1.560000e-02 0.9844 -13.1082 13.1087)">
		<stop  offset="0" style="stop-color:#C7C7C7"/>
		<stop  offset="0.1945" style="stop-color:#DADADA"/>
		<stop  offset="0.4657" style="stop-color:#EFEFEF"/>
		<stop  offset="0.7355" style="stop-color:#FBFBFB"/>
		<stop  offset="1" style="stop-color:#FFFFFF"/>
	</linearGradient>
	<polygon class="st25" points="175,103.1 160.4,88.7 176.1,73 190.8,87.3 	"/>
	<circle class="st13" cx="168" cy="80.6" r="11.1"/>
	
		<linearGradient id="SVGID_4_" gradientUnits="userSpaceOnUse" x1="265.678" y1="64.551" x2="280.1497" y2="79.0227" gradientTransform="matrix(0.9844 1.560000e-02 1.560000e-02 0.9844 -13.1082 13.1087)">
		<stop  offset="0" style="stop-color:#C7C7C7"/>
		<stop  offset="0.1945" style="stop-color:#DADADA"/>
		<stop  offset="0.4657" style="stop-color:#EFEFEF"/>
		<stop  offset="0.7355" style="stop-color:#FBFBFB"/>
		<stop  offset="1" style="stop-color:#FFFFFF"/>
	</linearGradient>
	<polygon class="st26" points="256.1,103.1 241.5,88.7 257.2,73 271.8,87.3 	"/>
	<circle class="st13" cx="249.4" cy="80.6" r="11.1"/>
	<rect x="43.2" y="75" class="st2" width="19.5" height="12.2"/>
	<text transform="matrix(1 0 0 1 45.5283 84.6846)" class="st6 st27 st28">01</text>
	
		<linearGradient id="SVGID_5_" gradientUnits="userSpaceOnUse" x1="104.8231" y1="67.1007" x2="119.2936" y2="81.5711" gradientTransform="matrix(0.9844 1.560000e-02 1.560000e-02 0.9844 -13.1082 13.1087)">
		<stop  offset="0" style="stop-color:#C7C7C7"/>
		<stop  offset="0.1945" style="stop-color:#DADADA"/>
		<stop  offset="0.4657" style="stop-color:#EFEFEF"/>
		<stop  offset="0.7355" style="stop-color:#FBFBFB"/>
		<stop  offset="1" style="stop-color:#FFFFFF"/>
	</linearGradient>
	<polygon class="st29" points="97.8,103.1 83.2,88.7 98.9,73 113.5,87.3 	"/>
	<circle class="st13" cx="90.8" cy="80.6" r="11.1"/>
	<rect x="81" y="75.3" class="st2" width="19.5" height="12.2"/>
	<text transform="matrix(1 0 0 1 83.333 84.9834)" class="st10 st27 st28">02</text>
	
		<linearGradient id="SVGID_6_" gradientUnits="userSpaceOnUse" x1="143.6009" y1="66.4859" x2="158.0717" y2="80.9566" gradientTransform="matrix(0.9844 1.560000e-02 1.560000e-02 0.9844 -13.1082 13.1087)">
		<stop  offset="0" style="stop-color:#C7C7C7"/>
		<stop  offset="0.1945" style="stop-color:#DADADA"/>
		<stop  offset="0.4657" style="stop-color:#EFEFEF"/>
		<stop  offset="0.7355" style="stop-color:#FBFBFB"/>
		<stop  offset="1" style="stop-color:#FFFFFF"/>
	</linearGradient>
	<polygon class="st30" points="136,103.1 121.3,88.7 137.1,73 151.7,87.3 	"/>
	<circle class="st13" cx="128.9" cy="80.6" r="11.1"/>
	<rect x="118.7" y="75.3" class="st2" width="19.5" height="12.2"/>
	<text transform="matrix(1 0 0 1 121.1109 84.9834)" class="st23 st27 st28">03</text>
	<rect x="158" y="75.3" class="st2" width="19.5" height="12.2"/>
	<text transform="matrix(1 0 0 1 160.4058 84.9834)" class="st9 st27 st28">04</text>
	
		<linearGradient id="SVGID_7_" gradientUnits="userSpaceOnUse" x1="226.8997" y1="65.1652" x2="241.3714" y2="79.6369" gradientTransform="matrix(0.9844 1.560000e-02 1.560000e-02 0.9844 -13.1082 13.1087)">
		<stop  offset="0" style="stop-color:#C7C7C7"/>
		<stop  offset="0.1945" style="stop-color:#DADADA"/>
		<stop  offset="0.4657" style="stop-color:#EFEFEF"/>
		<stop  offset="0.7355" style="stop-color:#FBFBFB"/>
		<stop  offset="1" style="stop-color:#FFFFFF"/>
	</linearGradient>
	<polygon class="st31" points="217.9,103.1 203.3,88.7 219.1,73 233.7,87.3 	"/>
	<circle class="st13" cx="210.9" cy="80.6" r="11.1"/>
	<rect x="201.2" y="75" class="st2" width="19.5" height="12.2"/>
	<text transform="matrix(1 0 0 1 203.5947 84.6846)" class="st6 st27 st28">05</text>
	<rect x="240.2" y="75.3" class="st2" width="19.5" height="12.2"/>
	<text transform="matrix(1 0 0 1 242.5889 84.9834)" class="st10 st27 st28">06</text>
	
		<linearGradient id="SVGID_8_" gradientUnits="userSpaceOnUse" x1="304.4561" y1="63.9364" x2="318.928" y2="78.4084" gradientTransform="matrix(0.9844 1.560000e-02 1.560000e-02 0.9844 -13.1082 13.1087)">
		<stop  offset="0" style="stop-color:#C7C7C7"/>
		<stop  offset="0.1945" style="stop-color:#DADADA"/>
		<stop  offset="0.4657" style="stop-color:#EFEFEF"/>
		<stop  offset="0.7355" style="stop-color:#FBFBFB"/>
		<stop  offset="1" style="stop-color:#FFFFFF"/>
	</linearGradient>
	<polygon class="st32" points="294.3,103.1 279.7,88.7 295.4,73 310,87.3 	"/>
	<circle class="st13" cx="287.2" cy="80.6" r="11.1"/>
	<rect x="277.7" y="75.3" class="st2" width="19.5" height="12.2"/>
	<text transform="matrix(1 0 0 1 280.0693 84.9834)" class="st23 st27 st28">07</text>
</g>
<rect x="12" y="140.6" class="st3" width="92.7" height="0.1"/>
<g>
	<rect x="12.1" y="140.6" class="st33" width="7.8" height="71.2"/>
	<rect x="26.2" y="140.6" class="st33" width="7.8" height="71.2"/>
	<rect x="40.4" y="140.6" class="st33" width="7.8" height="71.2"/>
	<rect x="54.5" y="140.6" class="st33" width="7.9" height="71.2"/>
	<rect x="68.6" y="140.6" class="st33" width="7.9" height="71.2"/>
	<rect x="82.7" y="140.6" class="st33" width="7.8" height="71.2"/>
	<rect x="96.8" y="140.6" class="st33" width="7.9" height="71.2"/>
	<rect x="12" y="197.5" class="st3" width="92.7" height="0.1"/>
	<rect x="12" y="211.7" class="st3" width="92.7" height="0.1"/>
	<rect x="12" y="183.3" class="st3" width="92.7" height="0.1"/>
	<rect x="12" y="169" class="st3" width="92.7" height="0.1"/>
	<rect x="12" y="154.8" class="st3" width="92.7" height="0.1"/>
	<polygon class="st10" points="104.7,211.7 12.1,211.9 12.2,197.5 26.2,190.5 34.2,190.5 48.6,183.3 68.5,183.5 104.7,155 	"/>
	<circle class="st34" cx="12.2" cy="211.7" r="1.7"/>
	<circle class="st34" cx="19.3" cy="211.7" r="1.7"/>
	<circle class="st34" cx="26.4" cy="211.7" r="1.7"/>
	<circle class="st34" cx="33.5" cy="211.7" r="1.7"/>
	<circle class="st34" cx="40.6" cy="211.7" r="1.7"/>
	<circle class="st34" cx="47.7" cy="211.7" r="1.7"/>
	<circle class="st34" cx="54.8" cy="211.7" r="1.7"/>
	<circle class="st34" cx="61.9" cy="211.7" r="1.7"/>
	<circle class="st34" cx="69" cy="211.7" r="1.7"/>
	<circle class="st34" cx="76.1" cy="211.7" r="1.7"/>
	<circle class="st34" cx="83.2" cy="211.7" r="1.7"/>
	<circle class="st34" cx="90.3" cy="211.7" r="1.7"/>
	<circle class="st34" cx="97.4" cy="211.7" r="1.7"/>
	<circle class="st34" cx="104.5" cy="211.7" r="1.7"/>
	<rect x="9.9" y="215.2" class="st2" width="4.5" height="3.7"/>
	<text transform="matrix(1 0 0 1 11.2603 217.5894)" class="st3 st35 st36">0</text>
	<rect x="17" y="215.2" class="st2" width="4.5" height="3.7"/>
	<text transform="matrix(1 0 0 1 17.4502 217.5894)" class="st3 st35 st36">01</text>
	<rect x="24.1" y="215.2" class="st2" width="4.5" height="3.7"/>
	<text transform="matrix(1 0 0 1 24.5405 217.5894)" class="st3 st35 st36">02</text>
	<rect x="31.2" y="215.2" class="st2" width="4.5" height="3.7"/>
	<text transform="matrix(1 0 0 1 32.5298 217.5894)" class="st3 st35 st36">3</text>
	<rect x="38.3" y="215.2" class="st2" width="4.5" height="3.7"/>
	<text transform="matrix(1 0 0 1 38.7207 217.5894)" class="st3 st35 st36">04</text>
	<rect x="45.3" y="215.2" class="st2" width="4.5" height="3.7"/>
	<text transform="matrix(1 0 0 1 45.8101 217.5894)" class="st3 st35 st36">05</text>
	<rect x="52.4" y="215.2" class="st2" width="4.5" height="3.7"/>
	<text transform="matrix(1 0 0 1 52.8999 217.5894)" class="st3 st35 st36">06</text>
	<rect x="59.5" y="215.2" class="st2" width="4.5" height="3.7"/>
	<text transform="matrix(1 0 0 1 59.9902 217.5894)" class="st3 st35 st36">07</text>
	<rect x="66.6" y="215.2" class="st2" width="4.5" height="3.7"/>
	<text transform="matrix(1 0 0 1 67.0801 217.5894)" class="st3 st35 st36">08</text>
	<rect x="73.7" y="215.2" class="st2" width="4.5" height="3.7"/>
	<text transform="matrix(1 0 0 1 74.1704 217.5894)" class="st3 st35 st36">09</text>
	<rect x="80.8" y="215.2" class="st2" width="4.5" height="3.7"/>
	<text transform="matrix(1 0 0 1 81.2603 217.5894)" class="st3 st35 st36">10</text>
	<rect x="87.9" y="215.2" class="st2" width="4.5" height="3.7"/>
	<text transform="matrix(1 0 0 1 88.3501 217.5894)" class="st3 st35 st36">11</text>
	<rect x="95" y="215.2" class="st2" width="4.5" height="3.7"/>
	<text transform="matrix(1 0 0 1 95.4404 217.5894)" class="st3 st35 st36">12</text>
	<rect x="102.1" y="215.2" class="st2" width="4.5" height="3.7"/>
	<text transform="matrix(1 0 0 1 102.5303 217.5894)" class="st3 st35 st36">13</text>
</g>
<g>
	<g>
		<path class="st33" d="M161,134.9l1.2,6.2c1.4-0.3,2.9-0.5,4.5-0.6v-6.3C164.8,134.2,162.9,134.5,161,134.9z"/>
		<path class="st33" d="M151,145.8c1.2-0.8,2.5-1.6,3.8-2.2l-2.4-5.9c-1.7,0.8-3.3,1.7-4.9,2.8L151,145.8z"/>
		<path class="st33" d="M136.9,171.4c0-1.4,0.2-2.9,0.4-4.3l-6.2-1.2c-0.3,1.8-0.5,3.6-0.5,5.5H136.9z"/>
		<path class="st33" d="M146.3,149.7c1-1,2.1-2,3.3-2.9l-3.5-5.3c-1.5,1.1-2.9,2.3-4.3,3.7L146.3,149.7z"/>
		<path class="st33" d="M154,137.1l2.4,5.8c1.4-0.6,2.8-1,4.2-1.4l-1.2-6.2C157.5,135.7,155.7,136.3,154,137.1z"/>
		<path class="st33" d="M137.7,165.4c0.3-1.4,0.7-2.8,1.2-4.1l-5.8-2.4c-0.6,1.7-1.2,3.5-1.6,5.3L137.7,165.4z"/>
		<path class="st33" d="M139.5,159.7c0.6-1.3,1.2-2.6,2-3.8l-5.3-3.5c-1,1.6-1.8,3.2-2.5,4.9L139.5,159.7z"/>
		<path class="st33" d="M142.4,154.4c0.8-1.2,1.7-2.3,2.7-3.4l-4.5-4.5c-1.3,1.4-2.4,2.8-3.5,4.4L142.4,154.4z"/>
	</g>
	<g>
		<path class="st6" d="M145.1,193.6c-1-1.1-1.9-2.2-2.7-3.4l-5.3,3.5c1,1.5,2.2,3,3.5,4.4L145.1,193.6z"/>
		<path class="st6" d="M149.6,197.7c-1.2-0.9-2.3-1.8-3.3-2.9l-4.5,4.5c1.3,1.3,2.7,2.5,4.2,3.7L149.6,197.7z"/>
		<path class="st6" d="M138.8,183.2c-0.5-1.3-0.9-2.7-1.2-4.1l-6.2,1.2c0.4,1.8,0.9,3.6,1.6,5.3L138.8,183.2z"/>
		<path class="st6" d="M137.3,177.4c-0.2-1.4-0.4-2.8-0.4-4.3h-6.3c0,1.9,0.2,3.7,0.5,5.5L137.3,177.4z"/>
		<path class="st6" d="M166.7,204.1c-1.5-0.1-3-0.3-4.5-0.6l-1.2,6.2c1.9,0.4,3.8,0.6,5.7,0.7V204.1z"/>
		<path class="st6" d="M154.8,200.9c-1.3-0.7-2.6-1.4-3.8-2.2l-3.5,5.3c1.6,1,3.2,2,4.9,2.8L154.8,200.9z"/>
		<path class="st6" d="M160.6,203.1c-1.4-0.4-2.9-0.9-4.2-1.4l-2.4,5.8c1.7,0.7,3.5,1.3,5.4,1.8L160.6,203.1z"/>
		<path class="st6" d="M141.5,188.7c-0.7-1.2-1.4-2.5-2-3.8l-5.8,2.4c0.7,1.7,1.6,3.4,2.5,4.9L141.5,188.7z"/>
		<path class="st6" d="M200.7,173.2c0,1.6-0.2,3.2-0.5,4.7l6.2,1.2c0.4-1.9,0.6-3.9,0.6-6H200.7z"/>
		<path class="st6" d="M199.8,179.6c-0.4,1.6-0.8,3.1-1.4,4.5l5.8,2.4c0.7-1.8,1.3-3.7,1.8-5.7L199.8,179.6z"/>
		<path class="st6" d="M197.7,185.7c-0.7,1.4-1.4,2.8-2.3,4.1l5.3,3.5c1.1-1.7,2.1-3.4,2.9-5.2L197.7,185.7z"/>
		<path class="st6" d="M190.1,196c-1.2,1-2.4,2-3.7,2.9l3.5,5.3c1.6-1.1,3.2-2.3,4.7-3.6L190.1,196z"/>
		<path class="st6" d="M194.4,191.3c-0.9,1.3-2,2.4-3.1,3.6l4.5,4.5c1.4-1.4,2.7-2.9,3.9-4.5L194.4,191.3z"/>
		<path class="st6" d="M173,203.9c-1.4,0.2-2.8,0.3-4.2,0.3c-0.1,0-0.2,0-0.3,0v6.3c0.1,0,0.2,0,0.3,0c1.8,0,3.7-0.1,5.4-0.4
			L173,203.9z"/>
		<path class="st6" d="M168.5,140.4c0.1,0,0.2,0,0.3,0c1.4,0,2.8,0.1,4.2,0.3l1.2-6.2c-1.8-0.3-3.6-0.4-5.4-0.4c-0.1,0-0.2,0-0.3,0
			V140.4z"/>
		<path class="st6" d="M200.2,166.7c0.3,1.5,0.4,3.1,0.5,4.7h6.3c0-2-0.2-4-0.6-6L200.2,166.7z"/>
		<path class="st6" d="M186.4,145.7c1.3,0.9,2.5,1.8,3.7,2.9l4.5-4.5c-1.5-1.3-3-2.5-4.6-3.6L186.4,145.7z"/>
		<path class="st6" d="M191.4,149.8c1.1,1.1,2.1,2.3,3.1,3.6l5.3-3.5c-1.2-1.6-2.5-3.1-3.9-4.5L191.4,149.8z"/>
		<path class="st6" d="M195.4,154.8c0.9,1.3,1.6,2.7,2.3,4.1l5.8-2.4c-0.8-1.8-1.8-3.6-2.9-5.2L195.4,154.8z"/>
		<path class="st6" d="M204.3,158.1l-5.8,2.4c0.6,1.5,1.1,3,1.4,4.5l6.2-1.2C205.6,161.8,205,159.9,204.3,158.1z"/>
		<path class="st6" d="M180.8,142.7c1.4,0.6,2.8,1.3,4.1,2l3.5-5.3c-1.7-1-3.4-1.9-5.2-2.6L180.8,142.7z"/>
		<path class="st6" d="M181.6,208.3l-2.4-5.9c-1.4,0.5-2.9,0.9-4.4,1.2l1.2,6.2C177.9,209.5,179.8,209,181.6,208.3z"/>
		<path class="st6" d="M184.9,199.8c-1.3,0.8-2.7,1.5-4.1,2l2.4,5.8c1.8-0.7,3.6-1.6,5.2-2.6L184.9,199.8z"/>
		<path class="st6" d="M174.7,141c1.5,0.3,3,0.7,4.4,1.2l2.4-5.9c-1.8-0.6-3.7-1.2-5.6-1.5L174.7,141z"/>
	</g>
	<g>
		<path class="st33" d="M151.1,188.1c-0.7-0.8-1.4-1.7-2-2.5l-3.9,2.6c0.8,1.1,1.6,2.2,2.6,3.3L151.1,188.1z"/>
		<path class="st33" d="M163,144.4l0.9,4.6c1.1-0.2,2.2-0.4,3.3-0.4v-4.7C165.8,144,164.4,144.2,163,144.4z"/>
		<path class="st33" d="M154.5,191.2c-0.9-0.7-1.7-1.4-2.4-2.1l-3.3,3.3c1,1,2,1.9,3.2,2.7L154.5,191.2z"/>
		<path class="st33" d="M146.5,180.4c-0.4-1-0.7-2-0.9-3.1l-4.6,0.9c0.3,1.4,0.7,2.7,1.2,3.9L146.5,180.4z"/>
		<path class="st33" d="M145.4,176.1c-0.2-1-0.3-2.1-0.3-3.2h-4.7c0,1.4,0.2,2.8,0.4,4.1L145.4,176.1z"/>
		<path class="st33" d="M167.3,196c-1.1-0.1-2.2-0.2-3.3-0.4l-0.9,4.6c1.4,0.3,2.8,0.5,4.2,0.5V196z"/>
		<path class="st33" d="M158.4,193.6c-1-0.5-1.9-1-2.8-1.6l-2.6,3.9c1.2,0.8,2.4,1.5,3.6,2.1L158.4,193.6z"/>
		<path class="st33" d="M162.7,195.2c-1.1-0.3-2.1-0.6-3.1-1.1l-1.8,4.3c1.3,0.5,2.6,1,4,1.3L162.7,195.2z"/>
		<path class="st33" d="M148.4,184.5c-0.5-0.9-1-1.9-1.5-2.9l-4.3,1.8c0.5,1.3,1.2,2.5,1.9,3.7L148.4,184.5z"/>
		<path class="st33" d="M155.5,152.6c0.9-0.6,1.9-1.2,2.8-1.6l-1.8-4.4c-1.3,0.6-2.5,1.3-3.6,2.1L155.5,152.6z"/>
		<path class="st33" d="M145.1,171.6c0-1.1,0.1-2.1,0.3-3.2l-4.6-0.9c-0.2,1.3-0.4,2.7-0.4,4.1H145.1z"/>
		<path class="st33" d="M152,155.5c0.8-0.8,1.6-1.5,2.5-2.1l-2.6-3.9c-1.1,0.8-2.2,1.7-3.2,2.7L152,155.5z"/>
		<path class="st33" d="M157.8,146.1l1.8,4.3c1-0.4,2.1-0.8,3.1-1.1l-0.9-4.6C160.4,145.1,159,145.5,157.8,146.1z"/>
		<path class="st33" d="M145.6,167.2c0.2-1,0.5-2.1,0.9-3.1l-4.4-1.8c-0.5,1.3-0.9,2.6-1.2,4L145.6,167.2z"/>
		<path class="st33" d="M147,162.9c0.4-1,0.9-1.9,1.5-2.8l-3.9-2.6c-0.7,1.2-1.3,2.4-1.9,3.7L147,162.9z"/>
		<path class="st33" d="M149.1,159c0.6-0.9,1.3-1.7,2-2.5l-3.3-3.3c-0.9,1-1.8,2.1-2.6,3.3L149.1,159z"/>
		<path class="st33" d="M192.5,172.9c0,1.2-0.2,2.4-0.4,3.5l4.6,0.9c0.3-1.4,0.4-2.9,0.4-4.4H192.5z"/>
		<path class="st33" d="M191.9,177.7c-0.3,1.2-0.6,2.3-1.1,3.4l4.3,1.8c0.5-1.4,1-2.8,1.3-4.2L191.9,177.7z"/>
		<path class="st33" d="M190.3,182.3c-0.5,1.1-1.1,2.1-1.7,3.1l3.9,2.6c0.8-1.2,1.5-2.5,2.1-3.9L190.3,182.3z"/>
		<path class="st33" d="M184.6,190c-0.9,0.8-1.8,1.5-2.8,2.1l2.6,3.9c1.2-0.8,2.4-1.7,3.5-2.7L184.6,190z"/>
		<path class="st33" d="M187.9,186.4c-0.7,0.9-1.5,1.8-2.3,2.7l3.3,3.3c1-1,2-2.2,2.9-3.4L187.9,186.4z"/>
		<path class="st33" d="M171.9,195.8c-1,0.1-2.1,0.2-3.1,0.2c-0.1,0-0.2,0-0.2,0v4.7c0.1,0,0.2,0,0.2,0c1.4,0,2.7-0.1,4-0.3
			L171.9,195.8z"/>
		<path class="st33" d="M178.3,199.1l-1.8-4.4c-1.1,0.4-2.2,0.7-3.3,0.9l0.9,4.6C175.6,199.9,177,199.6,178.3,199.1z"/>
		<path class="st33" d="M180.8,192.8c-1,0.6-2,1.1-3.1,1.5l1.8,4.3c1.4-0.5,2.7-1.2,3.9-1.9L180.8,192.8z"/>
	</g>
	<g>
		<path class="st9" d="M168.6,148.6c0.1,0,0.2,0,0.2,0c1.1,0,2.1,0.1,3.1,0.2l0.9-4.6c-1.3-0.2-2.7-0.3-4.1-0.3c-0.1,0-0.2,0-0.2,0
			V148.6z"/>
		<path class="st9" d="M192.2,168.1c0.2,1.1,0.3,2.3,0.4,3.5h4.7c0-1.5-0.2-3-0.4-4.4L192.2,168.1z"/>
		<path class="st9" d="M181.9,152.5c1,0.6,1.9,1.4,2.7,2.1l3.3-3.3c-1.1-1-2.2-1.9-3.5-2.7L181.9,152.5z"/>
		<path class="st9" d="M185.6,155.5c0.8,0.8,1.6,1.7,2.3,2.6l3.9-2.6c-0.9-1.2-1.8-2.3-2.9-3.4L185.6,155.5z"/>
		<path class="st9" d="M188.6,159.2c0.6,1,1.2,2,1.7,3.1l4.3-1.8c-0.6-1.4-1.3-2.7-2.1-3.9L188.6,159.2z"/>
		<path class="st9" d="M195.2,161.7l-4.3,1.8c0.4,1.1,0.8,2.2,1.1,3.4l4.6-0.9C196.2,164.5,195.7,163.1,195.2,161.7z"/>
		<path class="st9" d="M177.7,150.3c1.1,0.4,2.1,0.9,3.1,1.5l2.6-3.9c-1.2-0.7-2.5-1.4-3.9-1.9L177.7,150.3z"/>
		<path class="st9" d="M173.2,149c1.1,0.2,2.2,0.5,3.3,0.9l1.8-4.4c-1.3-0.5-2.7-0.9-4.2-1.1L173.2,149z"/>
	</g>
	<g>
		<path class="st33" d="M156.1,183.7c-0.5-0.6-1-1.2-1.4-1.8l-2.8,1.9c0.6,0.8,1.2,1.6,1.9,2.3L156.1,183.7z"/>
		<path class="st33" d="M164.7,152.3l0.7,3.3c0.8-0.2,1.6-0.3,2.4-0.3v-3.4C166.7,151.9,165.6,152.1,164.7,152.3z"/>
		<path class="st33" d="M158.5,185.9c-0.6-0.5-1.2-1-1.8-1.5l-2.4,2.4c0.7,0.7,1.5,1.4,2.3,2L158.5,185.9z"/>
		<path class="st33" d="M152.8,178.2c-0.3-0.7-0.5-1.4-0.6-2.2l-3.3,0.7c0.2,1,0.5,1.9,0.8,2.8L152.8,178.2z"/>
		<path class="st33" d="M152,175c-0.1-0.7-0.2-1.5-0.2-2.3h-3.4c0,1,0.1,2,0.3,2.9L152,175z"/>
		<path class="st33" d="M167.7,189.3c-0.8-0.1-1.6-0.2-2.4-0.3l-0.7,3.3c1,0.2,2,0.3,3,0.4V189.3z"/>
		<path class="st33" d="M161.3,187.6c-0.7-0.3-1.4-0.7-2-1.2l-1.9,2.8c0.8,0.6,1.7,1.1,2.6,1.5L161.3,187.6z"/>
		<path class="st33" d="M164.4,188.8c-0.8-0.2-1.5-0.5-2.3-0.8l-1.3,3.1c0.9,0.4,1.9,0.7,2.9,1L164.4,188.8z"/>
		<path class="st33" d="M154.2,181.1c-0.4-0.7-0.7-1.3-1.1-2l-3.1,1.3c0.4,0.9,0.8,1.8,1.4,2.6L154.2,181.1z"/>
		<path class="st33" d="M159.3,158.1c0.7-0.4,1.3-0.8,2-1.2l-1.3-3.1c-0.9,0.4-1.8,0.9-2.6,1.5L159.3,158.1z"/>
		<path class="st33" d="M151.7,171.8c0-0.8,0.1-1.5,0.2-2.3l-3.3-0.7c-0.2,1-0.3,1.9-0.3,2.9H151.7z"/>
		<path class="st33" d="M156.7,160.2c0.6-0.6,1.1-1.1,1.8-1.5l-1.9-2.8c-0.8,0.6-1.6,1.3-2.3,2L156.7,160.2z"/>
		<path class="st33" d="M160.9,153.4l1.3,3.1c0.7-0.3,1.5-0.6,2.2-0.8l-0.7-3.3C162.7,152.7,161.8,153.1,160.9,153.4z"/>
		<path class="st33" d="M152.1,168.6c0.2-0.8,0.4-1.5,0.6-2.2l-3.1-1.3c-0.3,0.9-0.6,1.9-0.8,2.8L152.1,168.6z"/>
		<path class="st33" d="M153.1,165.5c0.3-0.7,0.7-1.4,1.1-2l-2.8-1.9c-0.5,0.8-1,1.7-1.4,2.6L153.1,165.5z"/>
		<path class="st33" d="M154.7,162.7c0.4-0.6,0.9-1.3,1.4-1.8l-2.4-2.4c-0.7,0.7-1.3,1.5-1.8,2.3L154.7,162.7z"/>
	</g>
	<g>
		<path class="st10" d="M185.9,172.8c0,0.9-0.1,1.7-0.3,2.5l3.3,0.7c0.2-1,0.3-2.1,0.3-3.2H185.9z"/>
		<path class="st10" d="M185.4,176.2c-0.2,0.8-0.4,1.6-0.8,2.4l3.1,1.3c0.4-1,0.7-2,1-3.1L185.4,176.2z"/>
		<path class="st10" d="M184.3,179.5c-0.4,0.8-0.8,1.5-1.2,2.2l2.8,1.9c0.6-0.9,1.1-1.8,1.5-2.8L184.3,179.5z"/>
		<path class="st10" d="M180.2,185c-0.6,0.6-1.3,1.1-2,1.5l1.9,2.8c0.9-0.6,1.7-1.2,2.5-1.9L180.2,185z"/>
		<path class="st10" d="M182.5,182.4c-0.5,0.7-1,1.3-1.6,1.9l2.4,2.4c0.8-0.8,1.4-1.6,2.1-2.4L182.5,182.4z"/>
		<path class="st10" d="M171,189.2c-0.7,0.1-1.5,0.2-2.2,0.2c-0.1,0-0.1,0-0.2,0v3.4c0.1,0,0.1,0,0.2,0c1,0,2-0.1,2.9-0.2L171,189.2
			z"/>
		<path class="st10" d="M168.6,155.2c0.1,0,0.1,0,0.2,0c0.8,0,1.5,0.1,2.2,0.2l0.7-3.3c-1-0.1-1.9-0.2-2.9-0.2c-0.1,0-0.1,0-0.2,0
			V155.2z"/>
		<path class="st10" d="M185.6,169.3c0.1,0.8,0.2,1.7,0.3,2.5h3.4c0-1.1-0.1-2.1-0.3-3.2L185.6,169.3z"/>
		<path class="st10" d="M178.2,158.1c0.7,0.5,1.4,1,2,1.5l2.4-2.4c-0.8-0.7-1.6-1.4-2.5-1.9L178.2,158.1z"/>
		<path class="st10" d="M180.9,160.2c0.6,0.6,1.1,1.2,1.6,1.9l2.8-1.9c-0.6-0.9-1.3-1.7-2.1-2.4L180.9,160.2z"/>
		<path class="st10" d="M183.1,162.9c0.5,0.7,0.9,1.4,1.2,2.2l3.1-1.3c-0.4-1-1-1.9-1.5-2.8L183.1,162.9z"/>
		<path class="st10" d="M187.8,164.7l-3.1,1.3c0.3,0.8,0.6,1.6,0.8,2.4l3.3-0.7C188.5,166.7,188.2,165.7,187.8,164.7z"/>
		<path class="st10" d="M175.2,156.5c0.8,0.3,1.5,0.7,2.2,1.1l1.9-2.8c-0.9-0.5-1.8-1-2.8-1.4L175.2,156.5z"/>
		<path class="st10" d="M175.6,191.6l-1.3-3.1c-0.8,0.3-1.6,0.5-2.4,0.6l0.7,3.3C173.7,192.2,174.7,191.9,175.6,191.6z"/>
		<path class="st10" d="M177.4,187c-0.7,0.4-1.4,0.8-2.2,1.1l1.3,3.1c1-0.4,1.9-0.9,2.8-1.4L177.4,187z"/>
		<path class="st10" d="M172,155.5c0.8,0.2,1.6,0.4,2.4,0.6l1.3-3.1c-1-0.3-2-0.6-3-0.8L172,155.5z"/>
	</g>
</g>
</svg>
