<?xml version="1.0" encoding="utf-8"?>
<!-- Generator: Adobe Illustrator 18.1.1, SVG Export Plug-In . SVG Version: 6.00 Build 0)  -->
<svg version="1.1" id="Capa_1" xmlns="http://www.w3.org/2000/svg" xmlns:xlink="http://www.w3.org/1999/xlink" x="0px" y="0px"
	 viewBox="0 0 1400 980" enable-background="new 0 0 1400 980" xml:space="preserve">
<rect x="704.4" y="625.8" fill="#FFFFFF" stroke="#211915" stroke-width="2" stroke-miterlimit="10" width="669.7" height="293.2"/>
<rect x="1173.9" y="442.7" fill="#FFFFFF" width="64.6" height="37.3"/>
<rect x="1040.7" y="482" fill="#FFFFFF" width="64.6" height="38.7"/>
<rect x="1107.3" y="402.7" fill="#FFFFFF" width="64.6" height="38"/>
<rect x="1107.3" y="482" fill="#FFFFFF" width="64.6" height="38.7"/>
<rect x="974.1" y="402.7" fill="#FFFFFF" width="64.6" height="38"/>
<rect x="1173.9" y="482" fill="#FFFFFF" width="64.6" height="38.7"/>
<rect x="1040.7" y="402.7" fill="#FFFFFF" width="64.6" height="38"/>
<rect x="774.3" y="522.7" fill="#FFFFFF" width="64.6" height="38"/>
<rect x="840.9" y="522.7" fill="#FFFFFF" width="64.6" height="38"/>
<rect x="907.5" y="402.7" fill="#FFFFFF" width="64.6" height="38"/>
<rect x="907.5" y="522.7" fill="#FFFFFF" width="64.6" height="38"/>
<rect x="774.3" y="402.7" fill="#FFFFFF" width="64.6" height="38"/>
<rect x="840.9" y="402.7" fill="#FFFFFF" width="64.6" height="38"/>
<rect x="774.3" y="482" fill="#FFFFFF" width="64.6" height="38.7"/>
<rect x="1107.3" y="442.7" fill="#FFFFFF" width="64.6" height="37.3"/>
<rect x="1040.7" y="442.7" fill="#FFFFFF" width="64.6" height="37.3"/>
<rect x="974.1" y="482" fill="#FFFFFF" width="64.6" height="38.7"/>
<rect x="974.1" y="442.7" fill="#FFFFFF" width="64.6" height="37.3"/>
<rect x="1173.9" y="402.7" fill="#FFFFFF" width="64.6" height="38"/>
<rect x="1307" y="357.5" fill="#FFFFFF" width="64.1" height="43.2"/>
<rect x="907.5" y="442.7" fill="#FFFFFF" width="64.6" height="37.3"/>
<rect x="840.9" y="482" fill="#FFFFFF" width="64.6" height="38.7"/>
<rect x="907.5" y="482" fill="#FFFFFF" width="64.6" height="38.7"/>
<rect x="774.3" y="442.7" fill="#FFFFFF" width="64.6" height="37.3"/>
<rect x="840.9" y="442.7" fill="#FFFFFF" width="64.6" height="37.3"/>
<rect x="974.1" y="522.7" fill="#FFFFFF" width="64.6" height="38"/>
<rect x="1240.4" y="402.7" fill="#FFFFFF" width="64.6" height="38"/>
<rect x="840.9" y="562.7" fill="#FFFFFF" width="64.6" height="43.2"/>
<rect x="907.5" y="562.7" fill="#FFFFFF" width="64.6" height="43.2"/>
<rect x="974.1" y="562.7" fill="#FFFFFF" width="64.6" height="43.2"/>
<rect x="1040.7" y="562.7" fill="#FFFFFF" width="64.6" height="43.2"/>
<rect x="774.3" y="357.5" fill="#FFFFFF" width="64.6" height="43.2"/>
<rect x="774.3" y="562.7" fill="#FFFFFF" width="64.6" height="43.2"/>
<rect x="1307" y="562.7" fill="#FFFFFF" width="64.1" height="43.2"/>
<rect x="840.9" y="357.5" fill="#FFFFFF" width="64.6" height="43.2"/>
<rect x="1307" y="522.7" fill="#FFFFFF" width="64.1" height="38"/>
<rect x="1307" y="482" fill="#FFFFFF" width="64.1" height="38.7"/>
<rect x="1173.9" y="562.7" fill="#FFFFFF" width="64.6" height="43.2"/>
<rect x="1240.4" y="562.7" fill="#FFFFFF" width="64.6" height="43.2"/>
<rect x="1107.3" y="562.7" fill="#FFFFFF" width="64.6" height="43.2"/>
<rect x="1307" y="402.7" fill="#FFFFFF" width="64.1" height="38"/>
<rect x="1240.4" y="522.7" fill="#FFFFFF" width="64.6" height="38"/>
<rect x="1240.4" y="482" fill="#FFFFFF" width="64.6" height="38.7"/>
<rect x="1240.4" y="442.7" fill="#FFFFFF" width="64.6" height="37.3"/>
<rect x="1107.3" y="522.7" fill="#FFFFFF" width="64.6" height="38"/>
<rect x="1307" y="442.7" fill="#FFFFFF" width="64.1" height="37.3"/>
<rect x="1173.9" y="522.7" fill="#FFFFFF" width="64.6" height="38"/>
<rect x="907.5" y="357.5" fill="#FFFFFF" width="64.6" height="43.2"/>
<rect x="1040.7" y="522.7" fill="#FFFFFF" width="64.6" height="38"/>
<rect x="974.1" y="357.5" fill="#FFFFFF" width="64.6" height="43.2"/>
<rect x="1107.3" y="357.5" fill="#FFFFFF" width="64.6" height="43.2"/>
<rect x="1040.7" y="357.5" fill="#FFFFFF" width="64.6" height="43.2"/>
<rect x="1240.4" y="357.5" fill="#FFFFFF" width="64.6" height="43.2"/>
<rect x="1173.9" y="357.5" fill="#FFFFFF" width="64.6" height="43.2"/>
<g>
	<g>
		<rect x="705.7" y="355.8" fill="#211915" width="2" height="250.4"/>
		<rect x="772.3" y="355.8" fill="#211915" width="2" height="250.4"/>
		<rect x="838.9" y="355.8" fill="#211915" width="2" height="250.4"/>
		<rect x="905.5" y="355.8" fill="#211915" width="2" height="250.4"/>
		<rect x="972.1" y="355.8" fill="#211915" width="2" height="250.4"/>
		<rect x="1038.7" y="355.8" fill="#211915" width="2" height="250.4"/>
		<rect x="1105.3" y="355.8" fill="#211915" width="2" height="250.4"/>
		<rect x="1171.9" y="355.8" fill="#211915" width="2" height="250.4"/>
		<rect x="1238.4" y="355.8" fill="#211915" width="2" height="250.4"/>
		<rect x="1305" y="355.8" fill="#211915" width="2" height="250.4"/>
		<rect x="1371.6" y="355.8" fill="#211915" width="2" height="250.4"/>
	</g>
	<rect x="773.3" y="400.7" fill="#211915" width="600.2" height="2"/>
	<rect x="773.3" y="440.7" fill="#211915" width="600.2" height="2"/>
	<rect x="773.3" y="480" fill="#211915" width="600.2" height="2"/>
	<rect x="773.3" y="520.7" fill="#211915" width="600.2" height="2"/>
	<rect x="771.5" y="560.7" fill="#211915" width="600.2" height="2"/>
</g>
<g>
	<rect x="28.3" y="31.3" fill="#FFFFFF" stroke="#211915" stroke-width="2" stroke-miterlimit="10" width="216.1" height="306.8"/>
	<rect x="28.3" y="31.3" fill="#FFFFFF" stroke="#211915" stroke-width="2" stroke-miterlimit="10" width="41.3" height="306.8"/>
</g>
<rect x="28.3" y="31.3" fill="#FFFFFF" stroke="#211915" stroke-width="2" stroke-miterlimit="10" width="216.1" height="306.8"/>
<rect x="28.3" y="31.3" fill="#EA7171" stroke="#211915" stroke-width="2" stroke-miterlimit="10" width="41.3" height="306.8"/>
<g>
	<rect x="254.2" y="31.3" fill="#FFFFFF" stroke="#211915" stroke-width="2" stroke-miterlimit="10" width="216.1" height="306.8"/>
	<rect x="254.2" y="31.3" fill="#FFFFFF" stroke="#211915" stroke-width="2" stroke-miterlimit="10" width="41.3" height="306.8"/>
</g>
<rect x="254.2" y="31.3" fill="#FFFFFF" stroke="#211915" stroke-width="2" stroke-miterlimit="10" width="216.1" height="306.8"/>
<rect x="254.2" y="31.3" fill="#BDA9D8" stroke="#211915" stroke-width="2" stroke-miterlimit="10" width="41.3" height="306.8"/>
<g>
	<rect x="480" y="31.3" fill="#FFFFFF" stroke="#211915" stroke-width="2" stroke-miterlimit="10" width="216.1" height="306.8"/>
	<rect x="480" y="31.3" fill="#FFFFFF" stroke="#211915" stroke-width="2" stroke-miterlimit="10" width="41.3" height="306.8"/>
</g>
<rect x="480" y="31.3" fill="#FFFFFF" stroke="#211915" stroke-width="2" stroke-miterlimit="10" width="216.1" height="306.8"/>
<rect x="480" y="31.3" fill="#3199AA" stroke="#211915" stroke-width="2" stroke-miterlimit="10" width="41.3" height="306.8"/>
<g>
	<rect x="705.8" y="31.3" fill="#FFFFFF" stroke="#211915" stroke-width="2" stroke-miterlimit="10" width="216.1" height="306.8"/>
	<rect x="705.8" y="31.3" fill="#FFFFFF" stroke="#211915" stroke-width="2" stroke-miterlimit="10" width="41.3" height="306.8"/>
</g>
<rect x="705.8" y="31.3" fill="#FFFFFF" stroke="#211915" stroke-width="2" stroke-miterlimit="10" width="216.1" height="306.8"/>
<rect x="705.8" y="31.3" fill="#F9B723" stroke="#211915" stroke-width="2" stroke-miterlimit="10" width="41.3" height="306.8"/>
<g>
	<rect x="931.6" y="31.3" fill="#FFFFFF" stroke="#211915" stroke-width="2" stroke-miterlimit="10" width="216.1" height="306.8"/>
	<rect x="931.6" y="31.3" fill="#FFFFFF" stroke="#211915" stroke-width="2" stroke-miterlimit="10" width="41.3" height="306.8"/>
</g>
<rect x="931.6" y="31.3" fill="#FFFFFF" stroke="#211915" stroke-width="2" stroke-miterlimit="10" width="216.1" height="306.8"/>
<rect x="931.6" y="31.3" fill="#FFA6A6" stroke="#211915" stroke-width="2" stroke-miterlimit="10" width="41.3" height="306.8"/>
<g>
	
		<rect x="1157.5" y="31.3" fill="#FFFFFF" stroke="#211915" stroke-width="2" stroke-miterlimit="10" width="216.1" height="306.8"/>
	<rect x="1157.5" y="31.3" fill="#FFFFFF" stroke="#211915" stroke-width="2" stroke-miterlimit="10" width="41.3" height="306.8"/>
</g>
<rect x="1157.5" y="31.3" fill="#FFFFFF" stroke="#211915" stroke-width="2" stroke-miterlimit="10" width="216.1" height="306.8"/>
<rect x="1157.5" y="31.3" fill="#3199AA" stroke="#211915" stroke-width="2" stroke-miterlimit="10" width="41.3" height="306.8"/>
<text transform="matrix(4.489659e-011 -1 1 4.489659e-011 55.5906 235.3675)" fill="#FFFFFF" font-family="'Lato-Bold'" font-size="22.6">MONDAY</text>
<text transform="matrix(4.489659e-011 -1 1 4.489659e-011 281.42 234.7633)" fill="#FFFFFF" font-family="'Lato-Bold'" font-size="22.6">TUESDAY</text>
<text transform="matrix(4.489659e-011 -1 1 4.489659e-011 507.2496 255.0977)" fill="#FFFFFF" font-family="'Lato-Bold'" font-size="22.6">WEDNESDAY</text>
<text transform="matrix(4.489659e-011 -1 1 4.489659e-011 733.0797 244.2381)" fill="#FFFFFF" font-family="'Lato-Bold'" font-size="22.6">THURSDAY</text>
<text transform="matrix(4.489659e-011 -1 1 4.489659e-011 958.9089 224.5762)" fill="#FFFFFF" font-family="'Lato-Bold'" font-size="22.6">FRIDAY</text>
<text transform="matrix(4.489659e-011 -1 1 4.489659e-011 1184.7385 291.4215)" fill="#FFFFFF" font-family="'Lato-Bold'" font-size="22.6">SATURDAY-SUNDAY</text>
<rect x="29.8" y="625.8" fill="#FFFFFF" stroke="#211915" stroke-width="2" stroke-miterlimit="10" width="665.8" height="293.2"/>
<rect x="29.8" y="625.8" fill="#F9B723" stroke="#211915" stroke-width="2" stroke-miterlimit="10" width="125.8" height="293.2"/>
<rect x="705" y="625.8" fill="#EA7171" stroke="#211915" stroke-width="2" stroke-miterlimit="10" width="125.8" height="293.2"/>
<rect x="29.7" y="561.7" fill="#EA7171" stroke="#211915" stroke-width="2" stroke-miterlimit="10" width="743.6" height="45.2"/>
<rect x="29.7" y="516.5" fill="#BDA9D8" stroke="#211915" stroke-width="2" stroke-miterlimit="10" width="743.6" height="45.2"/>
<rect x="29.7" y="476.5" fill="#3199AA" stroke="#211915" stroke-width="2" stroke-miterlimit="10" width="743.6" height="45.2"/>
<rect x="29.7" y="436.5" fill="#F9B723" stroke="#211915" stroke-width="2" stroke-miterlimit="10" width="743.6" height="45.2"/>
<rect x="29.7" y="396.5" fill="#FFA6A6" stroke="#211915" stroke-width="2" stroke-miterlimit="10" width="743.6" height="45.2"/>
<rect x="29.7" y="356.5" fill="#3199AA" stroke="#211915" stroke-width="2" stroke-miterlimit="10" width="743.6" height="45.2"/>
<path d="M881.7,380.9c-0.2-4.1-0.5-9.1-0.4-12.8h-0.1c-1,3.5-2.2,7.2-3.7,11.3l-5.2,14.4h-2.9l-4.8-14.2c-1.4-4.2-2.6-8-3.4-11.6
	h-0.1c-0.1,3.7-0.3,8.7-0.6,13.1l-0.8,12.7h-3.7l2.1-29.7h4.9l5.1,14.4c1.2,3.7,2.2,6.9,3,10h0.1c0.7-3,1.8-6.3,3.1-10l5.3-14.4h4.9
	l1.9,29.7h-3.7L881.7,380.9z"/>
<path d="M937.7,367.5h-9v-3.3h22v3.3h-9.1V394h-3.9V367.5z"/>
<path d="M994.8,394l-7.5-29.7h4.1l3.5,15c0.9,3.7,1.7,7.4,2.2,10.3h0.1c0.5-3,1.4-6.5,2.4-10.3l4-15h4l3.6,15.1
	c0.8,3.5,1.6,7.1,2.1,10.2h0.1c0.6-3.3,1.5-6.6,2.4-10.3l3.9-15h3.9l-8.4,29.7h-4l-3.7-15.5c-0.9-3.8-1.5-6.7-1.9-9.7h-0.1
	c-0.5,3-1.2,5.9-2.3,9.7l-4.2,15.5H994.8z"/>
<path d="M1069.7,367.5h-9v-3.3h22v3.3h-9.1V394h-3.9V367.5z"/>
<path d="M1131.7,364.3h16v3.2h-12.2v9.9h11.2v3.2h-11.2V394h-3.8V364.3z"/>
<path d="M1199.7,389.3c1.7,1.1,4.2,1.9,6.9,1.9c3.9,0,6.2-2.1,6.2-5.1c0-2.8-1.6-4.4-5.6-5.9c-4.9-1.7-7.8-4.2-7.8-8.4
	c0-4.6,3.8-8.1,9.6-8.1c3,0,5.2,0.7,6.6,1.5l-1.1,3.1c-1-0.5-3-1.4-5.6-1.4c-4.1,0-5.6,2.4-5.6,4.5c0,2.8,1.8,4.1,5.9,5.7
	c5,1.9,7.6,4.4,7.6,8.7c0,4.6-3.4,8.6-10.4,8.6c-2.9,0-6-0.8-7.6-1.9L1199.7,389.3z"/>
<path d="M1262.5,389.3c1.7,1.1,4.2,1.9,6.9,1.9c3.9,0,6.2-2.1,6.2-5.1c0-2.8-1.6-4.4-5.6-5.9c-4.9-1.7-7.8-4.2-7.8-8.4
	c0-4.6,3.8-8.1,9.6-8.1c3,0,5.2,0.7,6.6,1.5l-1.1,3.1c-1-0.5-3-1.4-5.6-1.4c-4.1,0-5.6,2.4-5.6,4.5c0,2.8,1.8,4.1,5.9,5.7
	c5,1.9,7.6,4.4,7.6,8.7c0,4.6-3.4,8.6-10.4,8.6c-2.9,0-6-0.8-7.6-1.9L1262.5,389.3z"/>
<line fill="none" stroke="#211915" stroke-miterlimit="10" x1="773.3" y1="606.9" x2="1373.6" y2="606.9"/>
<line fill="none" stroke="#211915" stroke-miterlimit="10" x1="772.9" y1="356.8" x2="1374.1" y2="356.8"/>
<text transform="matrix(1 0 0 1 69.5857 389.1232)" fill="#FFFFFF" font-family="'Lato-Bold'" font-size="27.4457">EXAMS/STUDY</text>
<text transform="matrix(1 0 0 1 69.5857 431.1232)" fill="#FFFFFF" font-family="'Lato-Bold'" font-size="27.4457">EXERCISE ROUTINE</text>
<text transform="matrix(1 0 0 1 69.5857 471.1232)" fill="#FFFFFF" font-family="'Lato-Bold'" font-size="27.4457">APPOINTMENTS</text>
<text transform="matrix(1 0 0 1 69.5857 511.1786)" fill="#FFFFFF" font-family="'Lato-Bold'" font-size="27.4457">NOTES/REMINDERS</text>
<text transform="matrix(1 0 0 1 69.5857 552.1786)" fill="#FFFFFF" font-family="'Lato-Bold'" font-size="27.4457">IMPORTANT STUFF</text>
<text transform="matrix(1 0 0 1 69.5857 593.3842)" fill="#FFFFFF" font-family="'Lato-Bold'" font-size="27.4457">REUNIONS/FRIENDS</text>
<text transform="matrix(4.489660e-011 -1 1 4.489660e-011 102.001 882.0229)" fill="#FFFFFF" font-family="'Lato-Bold'" font-size="31.5748">MEALS / FOOD</text>
<text transform="matrix(4.489660e-011 -1 1 4.489660e-011 777.1521 901.174)" fill="#FFFFFF" font-family="'Lato-Bold'" font-size="31.5748">MISCELLANEOUS</text>
<g>
	<g>
		<g>
			<path d="M715.3,939.7c0.4,0,0.8,0.3,0.8,0.3l-6.6,14.1c-0.7,0-2.5,0.1-2.9,0.1c-0.4,0-0.8-0.3-0.8-0.3l-2.3-14.1
				c1.4,0,3.1-0.1,3.6-0.1c0.4,0,0.8,0.3,0.8,0.3l0.7,6.9c0.1,0.6,0.1,1.4,0,2.3c0.2-0.9,0.5-1.8,0.7-2.5l2.7-7
				C713.3,939.8,714.8,939.7,715.3,939.7L715.3,939.7z"/>
		</g>
		<g>
			<path d="M722.1,946.6c0,1.5-0.9,2.5-3,3l-2.2,0.5c0.2,1,0.8,1.4,1.8,1.4c1.2,0,2.1-0.9,2.1-0.9s0.6,0.4,0.6,1.1
				c0,1.3-2,2.7-4.2,2.7c-2.3,0-3.8-1.5-3.8-3.9c0-2.9,2-6.7,5.6-6.7C720.8,943.6,722.1,944.8,722.1,946.6L722.1,946.6z
				 M718.3,948.1c0.5-0.2,0.6-0.5,0.6-1c0-0.4-0.1-1.1-0.6-1.1c-0.9,0-1.3,1.4-1.4,2.5L718.3,948.1z"/>
		</g>
		<g>
			<path d="M728.1,943.6c1.8,0,3.2,1,3.2,2.2c0,1.6-1.9,2.1-1.9,2.1s-0.6-1.7-1.8-1.7c-0.9,0-1.4,0.9-1.4,2.7c0,1.7,0.5,2.5,1.6,2.5
				c1.1,0,1.8-0.8,1.8-0.8s0.6,0.4,0.6,1.1c0,1.2-1.9,2.5-4.1,2.5c-2.3,0-3.8-1.5-3.8-3.9C722.4,947.5,724.5,943.6,728.1,943.6
				L728.1,943.6z"/>
		</g>
		<g>
			<path d="M736.8,941.4c0.4,0,0.7,0.3,0.7,0.3l-0.3,2.2h2.3l-0.5,1.6c-0.2,0.5-0.4,0.8-1,0.8h-1.2l-0.7,4.2c-0.1,0.7,0,1,0.5,1
				c0.4,0,0.8-0.3,0.8-0.3s0.6,0.4,0.6,1c0,1-1.5,2-3.3,2c-2,0-2.8-1.2-2.4-3.3l0.7-4.7h-1.2l0.5-1.7c0.1-0.4,0.5-0.7,0.9-0.7h0.6
				l0.7-2C735.6,941.7,736.4,941.4,736.8,941.4L736.8,941.4z"/>
		</g>
		<g>
			<path d="M747.9,946.6c0,1.5-0.9,2.5-3,3l-2.2,0.5c0.2,1,0.8,1.4,1.8,1.4c1.2,0,2.1-0.9,2.1-0.9s0.6,0.4,0.6,1.1
				c0,1.3-2,2.7-4.2,2.7c-2.3,0-3.8-1.5-3.8-3.9c0-2.9,2-6.7,5.6-6.7C746.7,943.6,747.9,944.8,747.9,946.6L747.9,946.6z
				 M744.1,948.1c0.5-0.2,0.6-0.5,0.6-1c0-0.4-0.1-1.1-0.6-1.1c-0.9,0-1.3,1.4-1.4,2.5L744.1,948.1z"/>
		</g>
		<g>
			<path d="M757,946.6c0,1.5-0.9,2.5-3,3l-2.2,0.5c0.2,1,0.8,1.4,1.8,1.4c1.2,0,2.1-0.9,2.1-0.9s0.6,0.4,0.6,1.1
				c0,1.3-2,2.7-4.2,2.7c-2.3,0-3.8-1.5-3.8-3.9c0-2.9,2-6.7,5.6-6.7C755.8,943.6,757,944.8,757,946.6L757,946.6z M753.2,948.1
				c0.5-0.2,0.6-0.5,0.6-1c0-0.4-0.1-1.1-0.6-1.1c-0.9,0-1.3,1.4-1.4,2.5L753.2,948.1z"/>
		</g>
		<g>
			<path d="M764.5,950.4c0,0,0.8,0.7,0.8,1.9c0,1.6-1.3,2-2.4,2c-1.5,0-2.5-0.7-3.6-1.1c-0.3,0.4-0.6,0.7-0.9,1.1c0,0-1.6,0-1.6-1.2
				c0-1.4,2.3-3.7,4.7-6.3c-0.3-0.1-0.6-0.1-0.8-0.1c-1.4,0-1.9,0.7-1.9,0.7s-0.7-0.8-0.7-1.9c0.1-1.5,1.5-1.9,2.6-1.9
				c1.2,0,2,0.5,2.9,0.8l0.7-0.8c0,0,1.7,0.1,1.7,1.2c0,1.3-2.2,3.6-4.6,6.2c0.5,0.1,1,0.3,1.4,0.3
				C763.9,951.2,764.5,950.4,764.5,950.4L764.5,950.4z"/>
		</g>
		<g>
			<path d="M775.1,953.4c-0.6,3.6-3,5.4-6.2,5.4c-2,0-3.5-1-3.5-2.3c0-0.8,0.7-1.2,0.7-1.2s0.7,0.6,2,0.6c1.2,0,2.9-0.5,3.2-2.4
				l0.2-1.5c-0.8,1.2-2,2.2-3.4,2.2c-1.6,0-2.3-1.3-1.9-3.9l0.4-2.8c0.3-1.7,0.4-3.2,0.4-3.2c1.1-0.2,2.6-0.7,3.1-0.7
				c0.4,0,0.8,0.3,0.8,0.3l-0.6,3.6l-0.5,3.3c0,0.3,0,0.5,0.3,0.5c1.3,0,2-3.8,2-3.8c0.3-1.7,0.4-3.2,0.4-3.2
				c1.1-0.2,2.6-0.7,3.1-0.7c0.4,0,0.8,0.3,0.8,0.3l-0.6,3.6L775.1,953.4z"/>
		</g>
	</g>
	<g>
		<path d="M623.4,944.2h3.5c0.8,0,1.4,0.1,1.8,0.2c0.6,0.2,1,0.5,1.4,0.9c0.4,0.4,0.7,0.9,0.9,1.5c0.2,0.6,0.3,1.4,0.3,2.3
			c0,0.8-0.1,1.5-0.3,2c-0.2,0.7-0.6,1.3-1,1.7c-0.3,0.3-0.8,0.6-1.4,0.8c-0.4,0.1-1,0.2-1.7,0.2h-3.6V944.2z M625.3,945.8v6.3h1.4
			c0.5,0,0.9,0,1.2-0.1c0.3-0.1,0.6-0.2,0.8-0.4c0.2-0.2,0.4-0.5,0.5-0.9c0.1-0.4,0.2-1,0.2-1.7c0-0.7-0.1-1.3-0.2-1.7
			c-0.1-0.4-0.3-0.7-0.5-0.9c-0.2-0.2-0.5-0.4-0.9-0.4c-0.3-0.1-0.8-0.1-1.6-0.1H625.3z"/>
		<path d="M636.7,951.6l1.8,0.3c-0.2,0.7-0.6,1.2-1.1,1.5c-0.5,0.3-1.1,0.5-1.9,0.5c-1.2,0-2.1-0.4-2.7-1.2
			c-0.5-0.6-0.7-1.4-0.7-2.4c0-1.1,0.3-2,0.9-2.7c0.6-0.6,1.4-1,2.3-1c1,0,1.8,0.3,2.4,1c0.6,0.7,0.9,1.7,0.9,3.1h-4.6
			c0,0.5,0.2,1,0.4,1.3c0.3,0.3,0.6,0.5,1.1,0.5c0.3,0,0.5-0.1,0.7-0.2C636.5,952.2,636.6,951.9,636.7,951.6z M636.9,949.7
			c0-0.5-0.1-0.9-0.4-1.2c-0.3-0.3-0.6-0.4-1-0.4c-0.4,0-0.7,0.1-1,0.4c-0.3,0.3-0.4,0.7-0.4,1.2H636.9z"/>
		<path d="M639.2,951.8l1.8-0.3c0.1,0.4,0.2,0.6,0.5,0.8c0.2,0.2,0.6,0.3,1,0.3c0.5,0,0.8-0.1,1.1-0.3c0.2-0.1,0.2-0.3,0.2-0.5
			c0-0.1,0-0.3-0.1-0.3c-0.1-0.1-0.3-0.2-0.6-0.2c-1.5-0.3-2.4-0.6-2.8-0.9c-0.5-0.4-0.8-0.9-0.8-1.6c0-0.6,0.2-1.1,0.7-1.5
			c0.5-0.4,1.2-0.6,2.2-0.6c0.9,0,1.7,0.2,2.1,0.5c0.5,0.3,0.8,0.8,1,1.4l-1.7,0.3c-0.1-0.3-0.2-0.5-0.4-0.6
			c-0.2-0.1-0.5-0.2-0.9-0.2c-0.5,0-0.8,0.1-1,0.2c-0.1,0.1-0.2,0.2-0.2,0.4c0,0.1,0.1,0.2,0.2,0.3c0.2,0.1,0.7,0.3,1.7,0.5
			c1,0.2,1.7,0.5,2,0.8c0.4,0.3,0.6,0.8,0.6,1.4c0,0.6-0.3,1.2-0.8,1.6c-0.5,0.5-1.3,0.7-2.4,0.7c-0.9,0-1.7-0.2-2.2-0.6
			C639.8,953,639.4,952.5,639.2,951.8z"/>
		<path d="M647,945.9v-1.7h1.8v1.7H647z M647,953.8v-6.9h1.8v6.9H647z"/>
		<path d="M650.3,954.2l2.1,0.3c0,0.2,0.1,0.4,0.2,0.5c0.2,0.1,0.4,0.2,0.8,0.2c0.5,0,0.8-0.1,1.1-0.2c0.2-0.1,0.3-0.2,0.4-0.5
			c0.1-0.2,0.1-0.4,0.1-0.8v-1c-0.5,0.7-1.2,1.1-2.1,1.1c-0.9,0-1.7-0.4-2.2-1.2c-0.4-0.6-0.6-1.4-0.6-2.3c0-1.2,0.3-2,0.8-2.7
			c0.6-0.6,1.3-0.9,2.1-0.9c0.9,0,1.6,0.4,2.1,1.1v-1h1.7v6.2c0,0.8-0.1,1.4-0.2,1.8c-0.1,0.4-0.3,0.7-0.6,1c-0.2,0.2-0.6,0.4-1,0.5
			c-0.4,0.1-0.9,0.2-1.5,0.2c-1.2,0-2-0.2-2.5-0.6c-0.5-0.4-0.7-0.9-0.7-1.5C650.3,954.4,650.3,954.3,650.3,954.2z M652,950.2
			c0,0.7,0.1,1.3,0.4,1.6c0.3,0.3,0.6,0.5,1.1,0.5c0.4,0,0.8-0.2,1.1-0.5c0.3-0.3,0.5-0.9,0.5-1.6c0-0.7-0.1-1.2-0.4-1.6
			c-0.3-0.3-0.7-0.5-1.1-0.5c-0.4,0-0.8,0.2-1.1,0.5C652.1,949,652,949.5,652,950.2z"/>
		<path d="M664.7,953.8h-1.8v-3.5c0-0.7,0-1.2-0.1-1.4c-0.1-0.2-0.2-0.4-0.4-0.5c-0.2-0.1-0.4-0.2-0.6-0.2c-0.3,0-0.6,0.1-0.9,0.3
			c-0.3,0.2-0.4,0.4-0.5,0.7c-0.1,0.3-0.1,0.8-0.1,1.6v3.1h-1.8v-6.9h1.7v1c0.6-0.8,1.4-1.2,2.3-1.2c0.4,0,0.8,0.1,1.1,0.2
			c0.3,0.1,0.6,0.3,0.8,0.6c0.2,0.2,0.3,0.5,0.4,0.8c0.1,0.3,0.1,0.7,0.1,1.2V953.8z"/>
		<path d="M670.3,951.6l1.8,0.3c-0.2,0.7-0.6,1.2-1.1,1.5c-0.5,0.3-1.1,0.5-1.9,0.5c-1.2,0-2.1-0.4-2.7-1.2
			c-0.5-0.6-0.7-1.4-0.7-2.4c0-1.1,0.3-2,0.9-2.7c0.6-0.6,1.4-1,2.3-1c1,0,1.8,0.3,2.4,1c0.6,0.7,0.9,1.7,0.9,3.1h-4.6
			c0,0.5,0.2,1,0.4,1.3c0.3,0.3,0.6,0.5,1.1,0.5c0.3,0,0.5-0.1,0.7-0.2C670,952.2,670.2,951.9,670.3,951.6z M670.4,949.7
			c0-0.5-0.1-0.9-0.4-1.2c-0.3-0.3-0.6-0.4-1-0.4c-0.4,0-0.7,0.1-1,0.4c-0.3,0.3-0.4,0.7-0.4,1.2H670.4z"/>
		<path d="M679.7,953.8H678v-1c-0.3,0.4-0.6,0.7-1,0.9c-0.4,0.2-0.8,0.3-1.2,0.3c-0.8,0-1.5-0.3-2-1c-0.6-0.6-0.9-1.5-0.9-2.7
			c0-1.2,0.3-2.1,0.8-2.7c0.6-0.6,1.2-0.9,2.1-0.9c0.8,0,1.4,0.3,2,1v-3.4h1.8V953.8z M674.9,950.2c0,0.7,0.1,1.3,0.3,1.6
			c0.3,0.5,0.7,0.7,1.2,0.7c0.4,0,0.8-0.2,1.1-0.5c0.3-0.4,0.4-0.9,0.4-1.6c0-0.8-0.1-1.4-0.4-1.7c-0.3-0.3-0.7-0.5-1.1-0.5
			c-0.4,0-0.8,0.2-1.1,0.5C675,949,674.9,949.5,674.9,950.2z"/>
		<path d="M684.6,953.8v-9.5h1.8v3.4c0.6-0.6,1.2-1,2-1c0.8,0,1.5,0.3,2.1,0.9c0.6,0.6,0.8,1.5,0.8,2.6c0,1.2-0.3,2.1-0.8,2.7
			c-0.6,0.6-1.2,1-2,1c-0.4,0-0.8-0.1-1.2-0.3c-0.4-0.2-0.7-0.5-1-0.9v1H684.6z M686.5,950.2c0,0.7,0.1,1.2,0.3,1.6
			c0.3,0.5,0.7,0.7,1.3,0.7c0.4,0,0.7-0.2,1-0.5c0.3-0.3,0.4-0.9,0.4-1.6c0-0.8-0.1-1.4-0.4-1.7c-0.3-0.3-0.7-0.5-1.1-0.5
			c-0.4,0-0.8,0.2-1.1,0.5C686.6,949,686.5,949.5,686.5,950.2z"/>
		<path d="M691.7,946.9h1.9l1.7,4.9l1.6-4.9h1.9l-2.4,6.7l-0.4,1.2c-0.2,0.4-0.3,0.7-0.5,0.9c-0.1,0.2-0.3,0.4-0.5,0.5
			c-0.2,0.1-0.4,0.2-0.7,0.3c-0.3,0.1-0.6,0.1-0.9,0.1c-0.4,0-0.7,0-1-0.1l-0.2-1.4c0.3,0.1,0.5,0.1,0.8,0.1c0.4,0,0.7-0.1,0.9-0.4
			c0.2-0.3,0.4-0.6,0.5-1L691.7,946.9z"/>
	</g>
</g>
</svg>
