<?xml version="1.0" encoding="utf-8"?>
<svg viewBox="-2177.858 370.547 380.749 308.939" xmlns="http://www.w3.org/2000/svg">
  <g transform="matrix(1, 0, 0, 1, -2190.774902, -293.286896)">
    <g>
      <path fill="#D78580" d="M27.3,759.7C27.4,759.7,27.4,759.7,27.3,759.7c4.4-5.7,9-11.3,13.6-16.8 C28.9,742.8,17.3,744.9,27.3,759.7z"/>
    </g>
    <g>
      <path fill="#F4C336" d="M367.2,745.9c1.2-4.7,0.8-8.1-0.7-10.6c-3.7,8.6-7.6,17-11.9,25.4C358.2,755.1,365.7,751.7,367.2,745.9z "/>
    </g>
    <g>
      <path fill="#F4C336" d="M383.6,822.9c15.3-3.6,10.6-16.6,2.7-27.1c-4.6,9-9.2,18-13.7,27C376.3,823.3,380,823.7,383.6,822.9z"/>
    </g>
    <g>
      <path fill="#F4C336" d="M69.7,689.5c-10.6,3.9-8.8,15.1-6.2,26.3c6.9-8.6,14-16.8,21.3-24.8C79.7,690.3,74.7,687.7,69.7,689.5z"/>
    </g>
    <g>
      <path fill="#F4C336" d="M262,956.6c-4.3-4.3-8.6-8.6-12.9-12.9c-0.2,1.7-0.4,3.4-0.5,5.1c-0.4,8.3,0.2,16.2,2.4,21.6 c1.1-0.6,2.3-1.3,3.5-2.2C259.5,964.6,261,960.8,262,956.6z"/>
    </g>
    <g>
      <path fill="#F7A33E" d="M79.1,955.4c13.1-1.9,19.7-12.2,27.2-21.5c4-5.2,7.8-10.5,11.5-15.8c-19.3-3.8-35.7-13.6-41.4-37.9 c-1.5-6.3-2.3-12.8-2.8-19.6c-6.9,12.9-12.9,26.3-17.8,40.6c-2.7,7-4.6,16.7-4.6,25.9c10.7,1.9,22,4.7,28.4,13.7 c-4.5,4.7-6.8,10.2-6.9,15.3C74.6,955.9,76.8,955.8,79.1,955.4z"/>
    </g>
    <g>
      <path fill="#F4C336" d="M74.8,799.5c0.1-2.4,0.1-4.7,0.1-7c0-7.2,0.3-14.6,1.1-21.9c-9.1-9.1-18.3-18.3-27.4-27.4 c-2.4-0.1-5-0.3-7.6-0.3c-4.6,5.5-9.2,11.1-13.6,16.8c6.2,9.1,38.4,36.5,12.8,41.4c-20.5,3.9-37.9,22.1-14.9,37.4 c3.6,2.4,9.3,6.2,14.6,10.6c3.4-5.3,6.3-9.9,8.3-12.7C57.4,824.3,66.1,812,74.8,799.5z"/>
    </g>
    <g>
      <path fill="#57BFB2" d="M55.7,901.1c4.9-14.2,10.9-27.7,17.8-40.6c-1.4-20,0.8-41.5,1.3-61c-8.7,12.4-17.5,24.8-26.6,36.9 c-2.1,2.8-4.9,7.4-8.3,12.7c11.8,9.8,21.5,22.4,1,29.3c-15.1,5-29.2,3.7-27.9,24.9c1,16.2,16.7,20,30,22.3 c2.6,0.5,5.3,0.9,8.1,1.4C51,917.7,53,908.1,55.7,901.1z"/>
    </g>
    <g>
      <path fill="#F7A33E" d="M57.8,743.4c-2.2,0.2-5.5,0-9.2-0.2c9.1,9.1,18.3,18.3,27.4,27.4c3.2-28.7,14.8-55.2,51.4-55.2 c2.9-0.2,5.9-0.3,8.8-0.4c1.9-2.3,3.8-4.6,5.7-6.9c11.3-14.2,22.8-28.9,35.2-42.5c-11.9-6.6-20.2,6.6-25.4,18.1 c-3.4,7.5-9.1,30.9-21.9,21.9c-6.9-4.9-1.3-46-21.4-31.1c-5.8,4.3-9.5,13.8-16.7,16c-2.3,0.9-4.6,0.9-6.9,0.5 c-7.3,8-14.3,16.2-21.3,24.8C66.7,729.2,71.1,742.4,57.8,743.4z"/>
    </g>
    <g>
      <path fill="#57BFB2" d="M136.2,715c15.9-0.5,32-0.1,47.9,0.2c4.1-4.9,8.2-9.8,12.3-14.7c-4-0.7-7.4-2.4-9.1-5.4 c-4.3-7.7,0.9-19.4-5.7-26c-1.6-1.5-3.1-2.6-4.6-3.4c-12.4,13.6-23.9,28.3-35.2,42.5C139.9,710.4,138,712.7,136.2,715z"/>
    </g>
    <g>
      <path fill="#57BFB2" d="M248.6,948.8c0.1-1.7,0.3-3.4,0.5-5.1c-7.7-7.7-15.5-15.5-23.2-23.2c-3.5,0-6.9,0-10.4,0 c-2.5,5.8-5.3,11.6-8.4,17.1c4.8,0.1,9.4,2.4,12.7,8.2c6.7,11.4,13.2,34.4,31.1,24.6C248.8,965,248.2,957.1,248.6,948.8z"/>
    </g>
    <g>
      <path fill="#F7A33E" d="M159.4,920.5c-2.7,9.7-3.5,19.2-1.7,28.3c2.3,9.5,7.2,14.8,13.1,16.5c6.5-2.7,11.2-9.5,16-16.1 c4.6-6.3,12.7-11.7,20.2-11.6c3.1-5.5,5.9-11.3,8.4-17.1C196.8,920.5,178.1,920.5,159.4,920.5z"/>
    </g>
    <g>
      <path fill="#F4C336" d="M157.8,948.8c-1.9-9.1-1-18.6,1.7-28.3c-2.3,0-4.7,0-7,0c-11.6,0-23.6-0.3-34.7-2.5 c-3.7,5.4-7.5,10.7-11.5,15.8c-7.5,9.4-14,19.7-27.2,21.5c-2.3,0.4-4.4,0.6-6.4,0.5c-0.2,8.8,6.1,16.4,18.3,16.6 c19.4,0.3,17.1-16.8,27.4-26.8c18.2-17.7,26.7,15.5,38.9,19.2c5.4,2.1,9.8,1.9,13.6,0.3C164.9,963.7,160,958.3,157.8,948.8z"/>
    </g>
    <g>
      <path fill="#F7A33E" d="M324,796.5c0,5.9,0,11.8,0,17.7c10.4-16.3,20.4-33.6,29.5-51.3c0.3-0.8,0.7-1.6,1.2-2.3 c4.2-8.4,8.2-16.9,11.9-25.4c-6.8-11.5-36.2-4.2-37.2-16.5c-4.3,7.9-8.6,15.8-13.1,23.7C323.4,758,324,778.2,324,796.5z"/>
    </g>
    <g>
      <path fill="#57BFB2" d="M303.9,944.9c5.8,4.2,11,9.1,17.1,10.7c0.3-24.3,27.5-81.3,30.6-88.3c2-4.6,4-9.1,6.1-13.6 c-0.7-0.4-1.3-0.9-2-1.4C342.4,883.4,326,918.4,303.9,944.9z"/>
    </g>
    <g>
      <path fill="#F4C336" d="M372.6,822.7c4.5-9,9.1-18,13.7-27c-2.2-2.9-4.6-5.6-6.9-7.9c-3.4,11.4-6.8,22.9-11.1,34.1 C369.7,822.3,371.1,822.5,372.6,822.7z"/>
    </g>
    <g>
      <path fill="#F7A33E" d="M201.7,715.4c15.1,0,30.8-0.9,46.4-1c2-2.4,4.1-4.8,6.2-7.2c4.2-4.6,8.2-9.4,12.2-14.4 c-12.8,1.6-7.5-25.6-26.7-24.3c-16.4,1.1-12.8,26.1-26.8,30.8c-4.1,1.4-10.8,2.2-16.5,1.1c-4.1,4.9-8.2,9.8-12.3,14.7 C190,715.3,195.8,715.4,201.7,715.4z"/>
    </g>
    <g>
      <path fill="#D78580" d="M324,868.1c0,41.3-35.8,52.1-69.2,52.4c-2.8,7.5-4.7,15.2-5.7,23.2c4.3,4.3,8.6,8.6,12.9,12.9 c0.8-3,1.4-6.2,3-9.6c4.9-9.9,21-11.1,30-7.3c3.1,1.3,6,3.2,8.8,5.3c22.1-26.5,38.5-61.5,51.7-92.5c-3.6-2.4-7.5-5.1-10.2-9.9 c-3.7-6.3,2.1-15.1,7.3-18.6c4.8-3.2,10.1-2.8,15.5-1.9c4.3-11.3,7.6-22.7,11.1-34.1c-2.5-2.4-4.8-4.4-6.7-5.5 c-5-3.2-19-7.3-19.8-14.5c-0.2-1.8,0.1-3.5,0.6-4.9c-9,17.8-19.1,35-29.5,51.3C324,832.2,324,850.1,324,868.1z"/>
    </g>
    <g>
      <path fill="#F4C336" d="M321,955.7c4.8,1.3,10.2,0.7,16.7-3.8c8.7-6,21-27.2,16.9-37.5c-3-7.5-10.5-16.8-6.3-25.2 c4.6-6.8,12-4.9,15.4-14.9c4.2-12.5-0.1-16.5-6-20.5c-2.1,4.5-4.1,9-6.1,13.6C348.5,874.4,321.4,931.4,321,955.7z"/>
    </g>
    <g>
      <path fill="#F7A33E" d="M253,920.5c-9,0-18.1,0-27.1,0c7.7,7.7,15.5,15.5,23.2,23.2c1-8,2.9-15.7,5.7-23.2 C254.2,920.5,253.6,920.5,253,920.5z"/>
    </g>
    <g>
      <path fill="#F4C336" d="M248,714.4c10-0.1,20,0.2,29.7,1.4c8,0.9,14.6,3,20.1,6.1c6.9-9.6,13.6-19.3,19.8-29.1 c-5.1,2.2-9.9,5.4-15.5,5.7c-9.7,0.5-8.4-10.1-13-15.5c-6.9-8.1-15.5,8.8-22.5,9.8c-0.1,0-0.2,0-0.3,0c-4,4.9-8,9.8-12.2,14.4 C252.1,709.6,250.1,712,248,714.4z"/>
    </g>
    <g>
      <path fill="#D78580" d="M316.3,742.4c4.4-7.9,8.8-15.8,13.1-23.7c-0.2-2.2,0.5-5,2.4-8.6c3.3-6.4,3.2-20-7.2-19.2 c-2.4,0.2-4.7,0.9-6.9,1.9c-6.3,9.8-13,19.5-19.8,29.1C306.5,726.7,312.4,733.9,316.3,742.4z"/>
    </g>
  </g>
</svg>