<?xml version="1.0" encoding="utf-8"?>
<svg viewBox="-1460.519 421.813 366.557 242.9" xmlns="http://www.w3.org/2000/svg">
  <g transform="matrix(1, 0, 0, 1, -2190.774902, -293.286896)">
    <path fill="#DCEED8" d="M889.9,928.8c-2.2-0.2-4.3-0.4-6.5-0.7l-3.2,27.9c3.3,0.3,6.5,0.6,9.8,0.9l2.3-27.9 C891.4,928.9,890.6,928.9,889.9,928.8z"/>
    <path fill="#647ABB" d="M899.7,929.5c-2.5-0.1-5-0.3-7.5-0.5l-2.3,27.9c3.3,0.2,6.5,0.7,9.8,0.7l1.3-28L899.7,929.5z"/>
    <path fill="#D78580" d="M903.7,929.7l-2.7-0.1l-1.3,28l4,0.1l0.9-28C904.3,929.7,904,929.7,903.7,929.7z"/>
    <path fill="#7FD2ED" d="M880.1,927.7c-3.2-0.4-6.4-0.9-9.6-1.4l-4.7,27.7l14.3,2l3.2-27.9C882.3,928,881.2,927.9,880.1,927.7z"/>
    <path fill="#DCEED8" d="M835.7,917.6c-2.6-0.9-5.2-1.8-7.8-2.9c-1.3-0.5-2.6-1-3.9-1.6L813.2,939c3.1,1.2,6.1,2.7,9.3,3.7 l5.5,1.9l8.9-26.6C836.5,917.9,836.1,917.8,835.7,917.6z"/>
    <path fill="#647ABB" d="M836.9,918l-8.9,26.6c2.6,0.8,5.2,1.8,7.8,2.5l8-26.9C841.5,919.5,839.2,918.8,836.9,918z"/>
    <path fill="#7FD2ED" d="M851.5,922.3c-2.6-0.6-5.1-1.4-7.7-2.1l-8,26.9c5.3,1.4,10.5,2.9,15.8,4.1l6.2-27.4 C855.7,923.4,853.6,922.8,851.5,922.3z"/>
    <path fill="#D78580" d="M865.7,925.5c-2.7-0.5-5.3-1-7.9-1.6l-6.2,27.4c4.7,0.9,9.5,2,14.2,2.8l4.7-27.7 C868.9,926,867.3,925.8,865.7,925.5z"/>
    <path fill="#DCEED8" d="M809.4,906.3c-1.4-0.7-2.7-1.5-4.1-2.3l-14,24.3c2.9,1.8,6,3.1,9,4.7l12.6-25L809.4,906.3z"/>
    <path fill="#647ABB" d="M813.2,908.3l-0.3-0.1l-12.6,25c3,1.5,6,3.2,9.1,4.3l11.3-25.7C818.2,910.7,815.7,909.5,813.2,908.3z"/>
    <path fill="#D78580" d="M822.4,912.5c-0.6-0.2-1.1-0.5-1.7-0.8l-11.3,25.7l3.8,1.6l10.8-25.8C823.5,913,822.9,912.8,822.4,912.5z "/>
    <path fill="#7FD2ED" d="M800.5,901.1c-1.9-1.2-3.8-2.5-5.7-3.8l-16.2,23c4.1,2.9,8.4,5.6,12.7,8.1l14-24.3 C803.7,903.1,802.1,902.1,800.5,901.1z"/>
    <path fill="#DCEED8" d="M769.3,871.7c-1.6-2.4-3-4.9-4.3-7.6l-25.3,12.5c1.7,3.3,3.4,6.6,5.4,9.6c1.2,1.8,2.3,3.6,3.6,5.3 l22.8-16.6C770.8,873.9,770,872.8,769.3,871.7z"/>
    <path fill="#647ABB" d="M771.5,874.9l-22.8,16.6c1.8,2.4,3.6,4.8,5.5,7l21.4-18.4C774.2,878.4,772.9,876.7,771.5,874.9z"/>
    <path fill="#7FD2ED" d="M779.8,884.7c-1.4-1.5-2.8-3-4.1-4.6l-21.4,18.4c3.8,4.5,8,8.6,12.3,12.4l18.6-21.2 C783.3,888.1,781.5,886.4,779.8,884.7z"/>
    <path fill="#D78580" d="M791.8,895.1c-2.3-1.7-4.5-3.5-6.6-5.4l-18.6,21.2c3.9,3.4,7.9,6.5,12,9.4l16.2-23 C793.8,896.6,792.8,895.9,791.8,895.1z"/>
    <path fill="#DCEED8" d="M760.9,853.9c-0.7-2.4-1.3-4.9-1.7-7.4l-27.8,4.6c0.7,3.7,1.4,7.4,2.5,10.9L760.9,853.9 C761,854,760.9,853.9,760.9,853.9z"/>
    <path fill="#647ABB" d="M761,854l-27,8c1,3.6,2.4,7.1,3.8,10.5l25.9-11.2C762.6,858.9,761.7,856.5,761,854z"/>
    <path fill="#D78580" d="M763.6,861.2l-25.9,11.2l1.9,4.2l25.3-12.5C764.5,863.2,764.1,862.2,763.6,861.2z"/>
    <path fill="#7FD2ED" d="M758.8,843.9c-0.4-2.4-0.4-4.9-0.5-7.4c0-0.5,0-0.9,0.1-1.4l-28.1-0.6c-0.2,5.5,0.3,11,1.1,16.5l27.8-4.6 C759.1,845.6,758.9,844.8,758.8,843.9z"/>
    <path fill="#DCEED8" d="M771.7,798c0.6-0.8,1.3-1.6,1.9-2.4L751.4,778c-2.2,2.9-4.4,5.7-6.3,8.9c-1.2,1.8-2.3,3.6-3.3,5.6 l24.7,13.6C768.1,803.2,769.8,800.5,771.7,798z"/>
    <path fill="#647ABB" d="M765.5,807.9c0.3-0.6,0.7-1.3,1-1.9l-24.7-13.6c-1.5,2.6-2.8,5.4-4,8.2l25.9,11.2 C764.2,810.5,764.8,809.2,765.5,807.9z"/>
    <path fill="#7FD2ED" d="M760.9,819.2c0.8-2.5,1.7-5,2.7-7.3l-25.9-11.2c-2.4,5.6-4.4,11.5-5.6,17.6l27.5,5.8 C760.1,822.3,760.4,820.7,760.9,819.2z"/>
    <path fill="#D78580" d="M759.7,824.1c0-0.1,0-0.1,0-0.2l-27.5-5.8c-1.2,5.4-1.8,10.9-1.9,16.4l28.1,0.6 C758.5,831.4,758.9,827.7,759.7,824.1z"/>
    <path fill="#DCEED8" d="M782.6,785.7c1.6-1.5,3.2-2.9,4.8-4.2l-18-21.6c-2.7,2.1-5.2,4.6-7.8,7l19.7,20.2 C781.7,786.6,782.1,786.1,782.6,785.7z"/>
    <path fill="#647ABB" d="M781.2,787l-19.7-20.2c-2.5,2.6-5,5-7.3,7.8l21.4,18.4C777.4,790.9,779.3,788.9,781.2,787z"/>
    <path fill="#D78580" d="M775.7,793l-21.4-18.4l-2.8,3.4l22.1,17.6C774.2,794.7,774.9,793.8,775.7,793z"/>
    <path fill="#7FD2ED" d="M794.8,775.8c0.8-0.6,1.6-1.1,2.5-1.7l-15.7-23.3c-4.2,2.8-8.3,5.8-12.2,9.1l18,21.6 C789.8,779.4,792.3,777.5,794.8,775.8z"/>
    <path fill="#DCEED8" d="M831.8,756.8l3.9-1.4c1.5-0.5,3.1-1,4.6-1.5l-8.4-26.8l-9.4,3.2c-1.9,0.6-3.7,1.3-5.5,2.1l10.3,26.1 C828.8,757.9,830.3,757.4,831.8,756.8z"/>
    <path fill="#647ABB" d="M822.4,760.5c1.6-0.7,3.2-1.4,4.9-2L817,732.4l-7.6,3.2l11.3,25.7C821.3,761,821.9,760.8,822.4,760.5z"/>
    <path fill="#7FD2ED" d="M809.4,766.8c2.5-1.4,5-2.6,7.5-3.8c1.2-0.6,2.5-1.2,3.7-1.7l-11.3-25.7c-5.1,2.1-10,4.9-14.9,7.3 l13.5,24.6C808.5,767.3,808.9,767,809.4,766.8z"/>
    <path fill="#D78580" d="M808,767.6l-13.5-24.6c-4.4,2.4-8.7,5-12.8,7.8l15.7,23.3C800.8,771.7,804.4,769.5,808,767.6z"/>
    <path fill="#DCEED8" d="M854.9,749.9c2-0.5,4-0.9,5.9-1.3l-5.8-27.4c-3.2,0.6-6.4,1.3-9.6,2.2l6.9,27.2 C853.1,750.4,854,750.1,854.9,749.9z"/>
    <path fill="#647ABB" d="M845.3,752.5c2.3-0.7,4.7-1.3,7-1.9l-6.9-27.2l-9.6,2.6l8,26.9C844.3,752.7,844.8,752.6,845.3,752.5z"/>
    <path fill="#D78580" d="M843.8,752.9l-8-26.9c-1.3,0.3-2.6,0.8-3.9,1.2l8.4,26.8C841.5,753.6,842.6,753.2,843.8,752.9z"/>
    <path fill="#7FD2ED" d="M869.2,747c1.5-0.3,2.9-0.5,4.4-0.7l-4.3-27.7c-4.8,0.6-9.5,1.7-14.2,2.6l5.8,27.4 C863.6,748,866.4,747.5,869.2,747z"/>
    <path fill="#DCEED8" d="M913.5,743.2c3,0.1,5.9,0,8.9,0.2l0.9-28l-9.8-0.3l-5.8,0.2l0.5,28L913.5,743.2z"/>
    <path fill="#647ABB" d="M907.7,743.3l0.6,0l-0.5-28l-8.1,0.2l1.3,28C903.3,743.4,905.5,743.3,907.7,743.3z"/>
    <path fill="#7FD2ED" d="M899.7,743.6c0.4,0,0.9,0,1.3-0.1l-1.3-28c-5.4,0.2-10.7,0.8-16.1,1.2l2.9,27.9 C890.9,744.2,895.3,743.8,899.7,743.6z"/>
    <path fill="#D78580" d="M883.5,744.9c1-0.1,2-0.2,2.9-0.3l-2.9-27.9c-4.8,0.4-9.5,1.3-14.3,1.9l4.3,27.7 C876.9,745.8,880.2,745.3,883.5,744.9z"/>
    <path fill="#DCEED8" d="M937.2,744.3c2.2,0.2,4.3,0.4,6.5,0.7l3.2-27.9c-3.2-0.3-6.5-0.6-9.8-0.9l-2.3,27.9 C935.6,744.1,936.4,744.2,937.2,744.3z"/>
    <path fill="#647ABB" d="M927.4,743.6c2.5,0.1,5,0.3,7.5,0.5l2.3-27.9c-3.3-0.2-6.5-0.7-9.8-0.7l-1.3,28L927.4,743.6z"/>
    <path fill="#D78580" d="M923.3,743.4l2.7,0.1l1.3-28l-4-0.1l-0.9,28C922.7,743.4,923,743.4,923.3,743.4z"/>
    <path fill="#7FD2ED" d="M947,745.3c3.2,0.4,6.4,0.9,9.6,1.4l4.7-27.7l-14.3-2l-3.2,27.9C944.8,745.1,945.9,745.2,947,745.3z"/>
    <path fill="#DCEED8" d="M991.3,755.4c2.6,0.9,5.2,1.8,7.8,2.9c1.3,0.5,2.6,1,3.9,1.6l10.8-25.8c-3.1-1.2-6.1-2.7-9.3-3.7 l-5.5-1.9l-8.9,26.6C990.5,755.2,990.9,755.3,991.3,755.4z"/>
    <path fill="#647ABB" d="M990.1,755l8.9-26.6c-2.6-0.8-5.2-1.8-7.8-2.5l-8,26.9C985.5,753.6,987.8,754.3,990.1,755z"/>
    <path fill="#7FD2ED" d="M975.5,750.8c2.6,0.6,5.1,1.4,7.7,2.1l8-26.9c-5.3-1.4-10.5-2.9-15.8-4.1l-6.2,27.4 C971.3,749.7,973.4,750.2,975.5,750.8z"/>
    <path fill="#D78580" d="M961.3,747.6c2.7,0.5,5.3,1,7.9,1.6l6.2-27.4c-4.7-0.9-9.5-2-14.2-2.8l-4.7,27.7 C958.1,747,959.7,747.3,961.3,747.6z"/>
    <path fill="#DCEED8" d="M1017.6,766.8c1.4,0.7,2.7,1.5,4.1,2.3l14-24.3c-2.9-1.8-6-3.2-9-4.7l-12.6,25L1017.6,766.8z"/>
    <path fill="#647ABB" d="M1013.8,764.8l0.3,0.1l12.6-25c-3-1.5-6-3.2-9.1-4.3l-11.3,25.7C1008.8,762.4,1011.3,763.6,1013.8,764.8z "/>
    <path fill="#D78580" d="M1004.6,760.5c0.6,0.2,1.1,0.5,1.7,0.8l11.3-25.7l-3.8-1.6l-10.8,25.8 C1003.5,760.1,1004.1,760.3,1004.6,760.5z"/>
    <path fill="#7FD2ED" d="M1026.5,772c1.9,1.2,3.8,2.5,5.7,3.8l16.2-23c-4.1-2.9-8.4-5.6-12.7-8.1l-14,24.3 C1023.3,770,1024.9,771,1026.5,772z"/>
    <path fill="#DCEED8" d="M1057.7,801.3c1.6,2.4,3,4.9,4.3,7.6l25.3-12.5c-1.7-3.3-3.4-6.6-5.4-9.6c-1.2-1.8-2.3-3.6-3.6-5.3 l-22.8,16.6C1056.2,799.2,1057,800.3,1057.7,801.3z"/>
    <path fill="#647ABB" d="M1055.5,798.2l22.8-16.6c-1.8-2.4-3.6-4.8-5.5-7l-21.4,18.4C1052.8,794.7,1054.2,796.4,1055.5,798.2z"/>
    <path fill="#7FD2ED" d="M1047.2,788.4c1.4,1.5,2.8,3,4.1,4.6l21.4-18.4c-3.8-4.5-8-8.6-12.3-12.4l-18.6,21.2 C1043.7,785,1045.5,786.7,1047.2,788.4z"/>
    <path fill="#D78580" d="M1035.2,777.9c2.3,1.7,4.5,3.5,6.6,5.4l18.6-21.2c-3.9-3.4-7.9-6.5-12-9.4l-16.2,23 C1033.2,776.5,1034.2,777.2,1035.2,777.9z"/>
    <path fill="#DCEED8" d="M1066.1,819.2c0.7,2.4,1.3,4.9,1.7,7.4l27.8-4.6c-0.7-3.7-1.4-7.4-2.5-10.9L1066.1,819.2 C1066.1,819.1,1066.1,819.1,1066.1,819.2z"/>
    <path fill="#647ABB" d="M1066.1,819.1l27-8c-1-3.6-2.4-7.1-3.8-10.5l-25.9,11.2C1064.4,814.2,1065.3,816.6,1066.1,819.1z"/>
    <path fill="#D78580" d="M1063.4,811.8l25.9-11.2l-1.9-4.2l-25.3,12.5C1062.5,809.9,1063,810.8,1063.4,811.8z"/>
    <path fill="#7FD2ED" d="M1095.6,822l-27.8,4.6c0.1,0.9,0.3,1.7,0.4,2.6c0.4,2.4,0.4,4.9,0.5,7.4c0,0.5,0,0.9,0,1.4l28.1,0.6 C1096.9,833,1096.4,827.5,1095.6,822z"/>
    <path fill="#DCEED8" d="M1055.4,875.1c-0.6,0.8-1.3,1.6-1.9,2.4l22.1,17.6c2.2-2.9,4.4-5.7,6.3-8.9c1.2-1.8,2.3-3.6,3.3-5.6 l-24.7-13.6C1059,869.9,1057.2,872.5,1055.4,875.1z"/>
    <path fill="#647ABB" d="M1061.5,865.1c-0.3,0.6-0.7,1.3-1,1.9l24.7,13.6c1.5-2.6,2.8-5.4,4-8.2l-25.9-11.2 C1062.8,862.6,1062.2,863.9,1061.5,865.1z"/>
    <path fill="#7FD2ED" d="M1066.1,853.9c-0.8,2.5-1.7,5-2.7,7.3l25.9,11.2c2.4-5.6,4.4-11.5,5.6-17.6l-27.5-5.8 C1066.9,850.7,1066.6,852.4,1066.1,853.9z"/>
    <path fill="#D78580" d="M1067.3,849c0,0.1,0,0.1,0,0.2l27.5,5.8c1.2-5.4,1.8-10.9,1.9-16.4l-28.1-0.6 C1068.5,841.6,1068.1,845.3,1067.3,849z"/>
    <path fill="#DCEED8" d="M1044.4,887.4c-1.6,1.5-3.2,2.9-4.8,4.2l18,21.6c2.7-2.1,5.2-4.6,7.8-7l-19.7-20.2 C1045.3,886.5,1044.9,886.9,1044.4,887.4z"/>
    <path fill="#647ABB" d="M1045.8,886l19.7,20.2c2.5-2.6,5-5,7.3-7.8l-21.4-18.4C1049.6,882.2,1047.7,884.2,1045.8,886z"/>
    <path fill="#D78580" d="M1051.4,880.1l21.4,18.4l2.8-3.4l-22.1-17.6C1052.8,878.4,1052.1,879.2,1051.4,880.1z"/>
    <path fill="#7FD2ED" d="M1032.2,897.3c-0.8,0.6-1.6,1.1-2.5,1.7l15.7,23.4c4.2-2.8,8.3-5.8,12.2-9.1l-18-21.6 C1037.2,893.6,1034.7,895.6,1032.2,897.3z"/>
    <path fill="#DCEED8" d="M995.2,916.3l-3.9,1.4c-1.5,0.5-3.1,1-4.6,1.5l8.4,26.8l9.4-3.2c1.9-0.6,3.7-1.3,5.5-2.1l-10.3-26.1 C998.2,915.1,996.7,915.7,995.2,916.3z"/>
    <path fill="#647ABB" d="M1004.6,912.5c-1.6,0.7-3.2,1.4-4.9,2l10.3,26.1l7.6-3.2l-11.3-25.7 C1005.7,912,1005.2,912.3,1004.6,912.5z"/>
    <path fill="#7FD2ED" d="M1017.6,906.3c-2.5,1.4-5,2.6-7.5,3.8c-1.2,0.6-2.5,1.2-3.7,1.7l11.3,25.7c5.1-2.1,10-4.9,14.9-7.3 l-13.5-24.6C1018.5,905.8,1018.1,906,1017.6,906.3z"/>
    <path fill="#D78580" d="M1019,905.5l13.5,24.6c4.4-2.4,8.7-5,12.8-7.8l-15.7-23.4C1026.2,901.4,1022.7,903.5,1019,905.5z"/>
    <path fill="#DCEED8" d="M972.1,923.2c-2,0.5-4,0.9-5.9,1.3l5.8,27.4c3.2-0.6,6.4-1.3,9.6-2.2l-6.9-27.2 C973.9,922.7,973,922.9,972.1,923.2z"/>
    <path fill="#647ABB" d="M981.8,920.6c-2.3,0.7-4.7,1.3-7,1.9l6.9,27.2l9.6-2.6l-8-26.9C982.7,920.3,982.2,920.5,981.8,920.6z"/>
    <path fill="#D78580" d="M983.2,920.2l8,26.9c1.3-0.3,2.6-0.8,3.9-1.2l-8.4-26.8C985.5,919.5,984.4,919.9,983.2,920.2z"/>
    <path fill="#7FD2ED" d="M957.9,926.1c-1.5,0.3-2.9,0.5-4.4,0.7l4.3,27.7c4.8-0.6,9.5-1.7,14.2-2.6l-5.8-27.4 C963.4,925.1,960.6,925.6,957.9,926.1z"/>
    <path fill="#DCEED8" d="M913.5,929.9c-3-0.1-5.9,0-8.9-0.2l-0.9,28l9.8,0.3l5.8-0.2l-0.5-28L913.5,929.9z"/>
    <path fill="#647ABB" d="M919.3,929.8l-0.6,0l0.5,28l8.1-0.2l-1.3-28C923.8,929.6,921.5,929.8,919.3,929.8z"/>
    <path fill="#7FD2ED" d="M927.4,929.5c-0.4,0-0.9,0-1.3,0.1l1.3,28c5.4-0.2,10.7-0.8,16.1-1.2l-2.9-27.9 C936.2,928.9,931.8,929.3,927.4,929.5z"/>
    <path fill="#D78580" d="M943.5,928.2c-1,0.1-2,0.2-2.9,0.3l2.9,27.9c4.8-0.4,9.5-1.3,14.3-1.9l-4.3-27.7 C950.1,927.3,946.8,927.8,943.5,928.2z"/>
    <path fill="#F6B6AD" d="M793.5,822.3c1-2,2.2-3.9,3.6-5.7L771.7,798c-1.8,2.5-3.6,5.2-5.1,8c-0.3,0.6-0.7,1.2-1,1.9L793.5,822.3z "/>
    <path fill="#F4C336" d="M791.1,828.2c0.6-2,1.3-3.9,2.4-5.9l-28-14.4c-0.7,1.3-1.3,2.6-1.9,3.9c-1,2.4-1.9,4.8-2.7,7.3 L791.1,828.2z"/>
    <path fill="#57BFB2" d="M790.5,830.6c0.2-0.8,0.3-1.6,0.6-2.4l-30.2-9c-0.5,1.5-0.8,3.2-1.2,4.8c0,0.1,0,0.1,0,0.2L790.5,830.6z"/>
    <path fill="#F7A33E" d="M797.1,816.6c2.1-2.7,4.4-5.5,7.1-8l-21.6-22.9c-0.5,0.4-0.9,0.9-1.3,1.3c-1.9,1.9-3.8,3.9-5.6,6 c-0.7,0.8-1.4,1.7-2.1,2.6c-0.6,0.8-1.3,1.6-1.9,2.4L797.1,816.6z"/>
    <path fill="#F6B6AD" d="M830.4,791.5c1.4-0.7,3-1.3,4.5-2c2.6-1.1,5.1-2.1,7.8-3.1l-10.8-29.6c-1.5,0.5-3,1.1-4.5,1.7 c-1.6,0.6-3.3,1.3-4.9,2c-0.6,0.3-1.1,0.5-1.7,0.8c-1.3,0.5-2.5,1.1-3.7,1.7L830.4,791.5z"/>
    <path fill="#F4C336" d="M824.3,794.5c2-1.1,4-2.1,6.1-3L817,763c-2.5,1.2-5.1,2.4-7.5,3.8L824.3,794.5z"/>
    <path fill="#F7A33E" d="M813,801.5c3.5-2.5,7.3-4.8,11.3-6.9l-14.9-27.8c-0.5,0.3-1,0.5-1.4,0.8c-3.6,2-7.2,4.1-10.7,6.5 c-0.8,0.6-1.6,1.1-2.5,1.7L813,801.5z"/>
    <path fill="#57BFB2" d="M804.2,808.6c2.7-2.5,5.6-5,8.8-7.2l-18.2-25.7c-2.5,1.8-5,3.7-7.4,5.7c-1.6,1.4-3.2,2.8-4.8,4.2 L804.2,808.6z"/>
    <path fill="#F6B6AD" d="M854,782.7c2.7-0.8,5.5-1.5,8.2-2.2l-7.3-30.6c-0.9,0.2-1.8,0.4-2.6,0.7c-2.3,0.6-4.7,1.2-7,1.9 L854,782.7z"/>
    <path fill="#F4C336" d="M845.9,785.2c2.7-0.9,5.4-1.8,8.1-2.5l-8.7-30.3c-0.5,0.1-1,0.3-1.5,0.4c-1.2,0.3-2.3,0.7-3.4,1 c-1.5,0.5-3.1,1-4.6,1.5L845.9,785.2z"/>
    <polygon fill="#57BFB2" points="842.6,786.4 845.9,785.2 835.7,755.4 831.8,756.8 &#9;&#9;&#9;"/>
    <path fill="#F7A33E" d="M862.2,780.5c4.1-1,8.2-1.8,12.3-2.5l-5.4-31c-2.8,0.5-5.6,1-8.3,1.6c-2,0.4-4,0.8-5.9,1.3L862.2,780.5z"/>
    <path fill="#F6B6AD" d="M908.4,774.8l5.1-0.1c2.9,0.1,5.8,0,8.7,0.2l1.1-31.5c-0.3,0-0.6,0-0.9,0c-3-0.1-5.9-0.1-8.9-0.2 l-5.2,0.1l-0.6,0L908.4,774.8z"/>
    <path fill="#F4C336" d="M901.3,775c2.4-0.1,4.7-0.3,7.1-0.3l-0.7-31.5c-2.2,0-4.5,0.1-6.7,0.2c-0.4,0-0.9,0-1.3,0.1L901.3,775z"/>
    <path fill="#F7A33E" d="M887.1,776.2c4.7-0.5,9.4-0.9,14.2-1.2l-1.6-31.4c-4.4,0.2-8.8,0.6-13.2,1c-1,0.1-2,0.2-2.9,0.3 L887.1,776.2z"/>
    <path fill="#57BFB2" d="M874.6,778c4.2-0.7,8.3-1.3,12.5-1.8l-3.6-31.3c-3.3,0.4-6.6,0.9-9.9,1.4c-1.5,0.2-3,0.4-4.4,0.7 L874.6,778z"/>
    <path fill="#F6B6AD" d="M934.4,775.6c2.9,0.3,5.7,0.5,8.6,0.9l4-31.2c-1.1-0.2-2.2-0.3-3.3-0.4c-2.2-0.2-4.3-0.5-6.5-0.7 L934.4,775.6z"/>
    <path fill="#F4C336" d="M925.7,775c2.9,0.2,5.8,0.4,8.6,0.6l2.8-31.4c-0.8-0.1-1.5-0.1-2.3-0.2c-2.5-0.2-5-0.4-7.5-0.5L925.7,775 z"/>
    <polygon fill="#57BFB2" points="922.2,774.9 925.7,775 927.4,743.6 926,743.5 923.3,743.4 &#9;&#9;&#9;"/>
    <path fill="#F7A33E" d="M942.9,776.6c4.2,0.5,8.4,1.2,12.5,2l5.8-30.9c-1.6-0.3-3.2-0.6-4.8-0.8c-3.2-0.5-6.4-1-9.6-1.4 L942.9,776.6z"/>
    <path fill="#F6B6AD" d="M987.6,787.6c1.5,0.6,3.1,1.2,4.6,1.9c2.6,1.1,5.1,2.3,7.5,3.5l14.1-28.1c-2.5-1.2-5-2.4-7.5-3.5 c-0.6-0.3-1.1-0.5-1.7-0.8c-0.5-0.2-1-0.4-1.6-0.7c-1.3-0.5-2.6-1.1-3.9-1.6L987.6,787.6z"/>
    <path fill="#F4C336" d="M981.1,785.2c2.2,0.8,4.4,1.5,6.5,2.4l11.4-29.3c-2.6-1.1-5.2-1.9-7.8-2.9L981.1,785.2z"/>
    <path fill="#F7A33E" d="M967.7,781.3c4.5,1.1,9,2.5,13.4,4l10.2-29.8c-0.4-0.1-0.8-0.3-1.2-0.4c-2.3-0.8-4.6-1.5-6.9-2.2 c-2.6-0.8-5.1-1.5-7.7-2.1L967.7,781.3z"/>
    <path fill="#57BFB2" d="M955.4,778.5c4.1,0.8,8.2,1.7,12.3,2.7l7.8-30.5c-2.1-0.5-4.2-1-6.3-1.5c-2.6-0.6-5.3-1.1-7.9-1.6 L955.4,778.5z"/>
    <path fill="#F6B6AD" d="M1009.7,798.6c2.3,1.4,4.4,2.9,6.5,4.5l19-25.1c-1-0.7-2-1.5-3-2.2c-1.9-1.3-3.7-2.6-5.7-3.8 L1009.7,798.6z"/>
    <path fill="#F4C336" d="M1002.7,794.5c2.4,1.3,4.7,2.6,7,4.1l16.8-26.6c-1.6-1-3.2-2-4.9-2.9c-1.4-0.8-2.7-1.5-4.1-2.3 L1002.7,794.5z"/>
    <polygon fill="#57BFB2" points="999.7,793 1002.7,794.5 1017.6,766.8 1014.1,765 1013.8,764.8 &#9;&#9;&#9;"/>
    <path fill="#F7A33E" d="M1016.3,803.1c3.1,2.3,5.9,4.8,8.5,7.4l22.5-22c-1.7-1.7-3.5-3.4-5.4-5c-2.2-1.9-4.4-3.7-6.6-5.4 L1016.3,803.1z"/>
    <path fill="#F6B6AD" d="M1036.9,833.1c0.2,1.2,0.1,2.3,0.3,3.5c-0.1,2-0.2,3.9-0.7,5.9l30.8,6.5c0.8-3.6,1.2-7.3,1.3-11.1 c0-0.5,0-0.9,0-1.4c-0.1-2.5-0.1-4.9-0.5-7.4L1036.9,833.1z"/>
    <path fill="#F4C336" d="M1035.9,828.2c0.5,1.6,0.8,3.2,1,4.9l31.2-3.9c-0.1-0.9-0.2-1.7-0.4-2.6c-0.4-2.5-1-5-1.7-7.4 L1035.9,828.2z"/>
    <path fill="#F7A33E" d="M1031.4,818.6c2.1,3.1,3.6,6.4,4.5,9.6l30.2-9c0,0,0,0,0-0.1c-0.8-2.5-1.7-4.9-2.7-7.3 c-0.4-1-0.9-2-1.4-2.9c-1.3-2.6-2.8-5.2-4.3-7.6L1031.4,818.6z"/>
    <path fill="#57BFB2" d="M1024.7,810.5c2.5,2.6,4.8,5.3,6.6,8.1l26.3-17.2c-0.7-1.1-1.5-2.1-2.2-3.2c-1.3-1.8-2.7-3.5-4.1-5.2 c-1.3-1.6-2.7-3.1-4.1-4.6L1024.7,810.5z"/>
    <path fill="#F6B6AD" d="M1033.5,850.7c-1,2-2.2,3.9-3.6,5.7l25.4,18.6c1.8-2.5,3.6-5.2,5.1-8c0.3-0.6,0.7-1.2,1-1.9L1033.5,850.7 z"/>
    <path fill="#F4C336" d="M1035.9,844.9c-0.6,2-1.3,3.9-2.4,5.9l28,14.4c0.7-1.3,1.3-2.6,1.9-3.9c1-2.4,1.9-4.8,2.7-7.3 L1035.9,844.9z"/>
    <path fill="#57BFB2" d="M1036.5,842.4c-0.2,0.8-0.3,1.6-0.6,2.4l30.2,9c0.5-1.5,0.8-3.2,1.2-4.8c0-0.1,0-0.1,0-0.2L1036.5,842.4z "/>
    <path fill="#F7A33E" d="M1030,856.5c-2.1,2.7-4.4,5.5-7.1,8l21.6,22.9c0.5-0.4,0.9-0.9,1.3-1.3c1.9-1.9,3.8-3.9,5.6-6 c0.7-0.8,1.4-1.7,2.1-2.6c0.6-0.8,1.3-1.6,1.9-2.4L1030,856.5z"/>
    <path fill="#F6B6AD" d="M996.7,881.6c-1.4,0.7-3,1.3-4.5,2c-2.6,1.1-5.2,2.1-7.8,3.1l10.8,29.6c1.5-0.5,3-1.1,4.5-1.7 c1.6-0.6,3.3-1.3,4.9-2c0.6-0.3,1.1-0.5,1.7-0.8c1.3-0.5,2.5-1.1,3.7-1.7L996.7,881.6z"/>
    <path fill="#F4C336" d="M1002.7,878.6c-2,1.1-4,2.1-6.1,3l13.4,28.5c2.5-1.2,5.1-2.4,7.5-3.8L1002.7,878.6z"/>
    <path fill="#F7A33E" d="M1014,871.6c-3.5,2.5-7.3,4.8-11.3,6.9l14.9,27.8c0.5-0.3,1-0.5,1.4-0.8c3.6-2,7.2-4.1,10.7-6.5 c0.8-0.6,1.6-1.1,2.5-1.7L1014,871.6z"/>
    <path fill="#57BFB2" d="M1022.8,864.5c-2.7,2.5-5.6,5-8.8,7.2l18.2,25.7c2.5-1.8,5-3.7,7.4-5.7c1.6-1.4,3.2-2.8,4.8-4.2 L1022.8,864.5z"/>
    <path fill="#F6B6AD" d="M973,890.4c-2.7,0.8-5.5,1.5-8.2,2.2l7.3,30.6c0.9-0.2,1.8-0.4,2.6-0.7c2.3-0.6,4.7-1.2,7-1.9L973,890.4z "/>
    <path fill="#F4C336" d="M981.1,887.8c-2.7,0.9-5.3,1.8-8.1,2.5l8.7,30.3c0.5-0.1,1-0.3,1.5-0.4c1.2-0.3,2.3-0.7,3.4-1 c1.5-0.5,3.1-1,4.6-1.5L981.1,887.8z"/>
    <polygon fill="#57BFB2" points="984.4,886.7 981.1,887.8 991.3,917.6 995.2,916.3 &#9;&#9;&#9;"/>
    <path fill="#F7A33E" d="M964.8,892.5c-4.1,1-8.2,1.8-12.3,2.5l5.4,31c2.8-0.5,5.6-1,8.3-1.6c2-0.4,4-0.8,5.9-1.3L964.8,892.5z"/>
    <path fill="#F6B6AD" d="M918.6,898.3l-5.1,0.1c-2.9-0.1-5.8,0-8.7-0.2l-1.1,31.5c0.3,0,0.6,0,1,0c3,0.1,5.9,0.1,8.9,0.2l5.2-0.1 l0.6,0L918.6,898.3z"/>
    <path fill="#F4C336" d="M925.7,898.1c-2.4,0.1-4.7,0.3-7.1,0.3l0.7,31.5c2.2,0,4.5-0.1,6.7-0.2c0.4,0,0.9,0,1.3-0.1L925.7,898.1z "/>
    <path fill="#F7A33E" d="M939.9,896.9c-4.7,0.5-9.4,0.9-14.2,1.2l1.6,31.4c4.4-0.2,8.8-0.6,13.2-1c1-0.1,2-0.2,2.9-0.3 L939.9,896.9z"/>
    <path fill="#57BFB2" d="M952.5,895.1c-4.2,0.7-8.3,1.3-12.5,1.8l3.6,31.3c3.3-0.4,6.6-0.9,9.9-1.4c1.5-0.2,3-0.4,4.4-0.7 L952.5,895.1z"/>
    <path fill="#F6B6AD" d="M892.7,897.4c-2.9-0.3-5.7-0.5-8.6-0.9l-4,31.2c1.1,0.2,2.2,0.3,3.3,0.4c2.2,0.2,4.3,0.5,6.5,0.7 L892.7,897.4z"/>
    <path fill="#F4C336" d="M901.3,898.1c-2.9-0.1-5.8-0.4-8.6-0.6l-2.8,31.4c0.8,0.1,1.5,0.1,2.3,0.2c2.5,0.2,5,0.4,7.5,0.5 L901.3,898.1z"/>
    <polygon fill="#57BFB2" points="904.8,898.2 901.3,898.1 899.7,929.5 901,929.6 903.7,929.7 &#9;&#9;&#9;"/>
    <path fill="#F7A33E" d="M884.1,896.5c-4.2-0.5-8.4-1.2-12.5-2l-5.9,30.9c1.6,0.3,3.2,0.6,4.8,0.8c3.2,0.5,6.4,1,9.6,1.4 L884.1,896.5z"/>
    <path fill="#F6B6AD" d="M839.4,885.5c-1.5-0.6-3.1-1.2-4.6-1.9c-2.6-1.1-5.1-2.3-7.5-3.5l-14.1,28.1c2.5,1.2,5,2.4,7.5,3.5 c0.6,0.3,1.1,0.5,1.7,0.8c0.5,0.2,1,0.4,1.6,0.7c1.3,0.5,2.6,1.1,3.9,1.6L839.4,885.5z"/>
    <path fill="#F4C336" d="M845.9,887.8c-2.2-0.8-4.4-1.5-6.5-2.4l-11.4,29.3c2.6,1.1,5.2,1.9,7.8,2.9L845.9,887.8z"/>
    <path fill="#F7A33E" d="M859.3,891.8c-4.5-1.1-9-2.5-13.4-4l-10.2,29.8c0.4,0.1,0.8,0.3,1.2,0.4c2.3,0.8,4.6,1.5,6.9,2.2 c2.6,0.8,5.1,1.5,7.7,2.1L859.3,891.8z"/>
    <path fill="#57BFB2" d="M871.6,894.5c-4.1-0.8-8.2-1.7-12.3-2.7l-7.8,30.5c2.1,0.5,4.2,1,6.3,1.5c2.6,0.6,5.3,1.1,7.9,1.6 L871.6,894.5z"/>
    <path fill="#F6B6AD" d="M817.3,874.5c-2.3-1.4-4.4-2.9-6.5-4.5l-19,25.1c1,0.7,2,1.5,3,2.2c1.9,1.3,3.7,2.6,5.7,3.8L817.3,874.5z "/>
    <path fill="#F4C336" d="M824.3,878.6c-2.4-1.3-4.7-2.6-7-4.1l-16.8,26.6c1.6,1,3.2,2,4.9,2.9c1.3,0.8,2.7,1.5,4.1,2.3 L824.3,878.6z"/>
    <polygon fill="#57BFB2" points="827.3,880.1 824.3,878.6 809.4,906.3 812.9,908.1 813.2,908.3 &#9;&#9;&#9;"/>
    <path fill="#F7A33E" d="M810.8,870c-3.1-2.3-5.9-4.8-8.5-7.4l-22.5,22c1.7,1.7,3.5,3.4,5.4,5c2.2,1.9,4.4,3.7,6.6,5.4L810.8,870z "/>
    <path fill="#F6B6AD" d="M790.1,840c-0.2-1.2-0.1-2.3-0.3-3.5c0.1-2,0.2-3.9,0.7-5.9l-30.8-6.5c-0.8,3.6-1.2,7.3-1.3,11.1 c0,0.5,0,0.9-0.1,1.4c0.1,2.5,0.1,4.9,0.5,7.4L790.1,840z"/>
    <path fill="#F4C336" d="M791.1,844.9c-0.5-1.6-0.8-3.2-1-4.9l-31.2,3.9c0.1,0.9,0.2,1.7,0.4,2.6c0.4,2.5,1,5,1.7,7.4L791.1,844.9 z"/>
    <path fill="#F7A33E" d="M795.6,854.5c-2.1-3.1-3.6-6.4-4.5-9.6l-30.2,9c0,0,0,0,0,0.1c0.8,2.5,1.7,4.9,2.7,7.3 c0.4,1,0.9,2,1.4,2.9c1.3,2.6,2.8,5.2,4.3,7.6L795.6,854.5z"/>
    <path fill="#57BFB2" d="M802.3,862.6c-2.5-2.6-4.8-5.3-6.6-8.1l-26.3,17.3c0.7,1.1,1.5,2.1,2.2,3.2c1.3,1.8,2.7,3.5,4.1,5.2 c1.3,1.6,2.7,3.1,4.1,4.6L802.3,862.6z"/>
  </g>
</svg>