<?xml version="1.0" encoding="utf-8"?>
<svg viewBox="-2180.598 29.508 417.338 317.603" xmlns="http://www.w3.org/2000/svg">
  <g transform="matrix(1, 0, 0, 1, -2190.774902, -293.286896)">
    <path fill="#F6B6AD" d="M78.7,394.8l-33.6-9.9c-1.5,5.2-2.1,10-2.5,14.6l34.9,2.5C77.7,399.1,78.1,396.6,78.7,394.8z"/>
    <path fill="#F4C336" d="M77.5,401.8l-34.9-2.5c-0.3,4.6-0.3,8.7-0.2,12.7l35-1C77.3,407.8,77.3,404.6,77.5,401.8z"/>
    <path fill="#57BFB2" d="M77.4,411.1l-35,1c0,1.6,0.1,3.2,0.2,4.8l35-1.5C77.5,413.9,77.5,412.5,77.4,411.1z"/>
    <path fill="#F7A33E" d="M81.5,389.8l-22.2-27c-7.2,5.9-12,14.4-14.2,22l33.6,9.9C79.6,392,80.4,390.9,81.5,389.8z"/>
    <path fill="#F6B6AD" d="M104.1,401.4c3.6,2.6,8.1,5.2,13.4,7.4l12.4-32.7c-1.5-0.7-3.4-1.6-5.8-3.3c-1.4-1-2.9-2.1-4.5-3.4 l-21.4,27.7C100,398.4,102,399.9,104.1,401.4z"/>
    <path fill="#F4C336" d="M98.2,397.1l21.4-27.7c-2.3-1.8-4.7-3.7-7.7-5.9l-20.4,28.4C93.5,393.3,95.7,395.1,98.2,397.1z"/>
    <path fill="#F7A33E" d="M91.5,391.9l20.4-28.4c-5.7-3.9-13.8-9.7-26.1-10.2l-1.1,35C84.7,388,87.5,389,91.5,391.9z"/>
    <path fill="#57BFB2" d="M84.8,388.3l1.1-35c-11.1-0.2-19.4,4.1-26.5,9.5l22.2,27C83,388.8,85,388.1,84.8,388.3z"/>
    <path fill="#F6B6AD" d="M158.5,404.6L139.9,375c-1.6,0.9-2.8,1.3-4,1.6l6.3,34.4C148.2,409.9,153.8,407.6,158.5,404.6z"/>
    <path fill="#F4C336" d="M142.2,411.1l-6.3-34.4c-1.2,0.2-2.6,0.2-4.4-0.1l-6.8,34.3C130.1,411.9,136.1,412.2,142.2,411.1z"/>
    <path fill="#57BFB2" d="M124.7,410.8l6.8-34.3c-0.6-0.1-1-0.3-1.5-0.4l-12.4,32.7C119.8,409.6,122.4,410.4,124.7,410.8z"/>
    <path fill="#F7A33E" d="M174.4,390.3l-26.6-22.7c-2.8,3.3-5.6,6-7.9,7.4l18.6,29.7C165.4,400.3,170.3,395.2,174.4,390.3z"/>
    <path fill="#F6B6AD" d="M201.5,358.3c1-0.5,1.5-0.5,2.5-0.5l2-34.9c-6.3-0.5-13.4,0.8-18.9,3.5c-3.3,1.5-6.3,3.4-8.8,5.3l21,28 C200.2,359,200.9,358.6,201.5,358.3z"/>
    <path fill="#F4C336" d="M199.3,359.7l-21-28c-3.6,2.7-6.5,5.5-9.1,8.3l25.8,23.6C196.6,362,198,360.6,199.3,359.7z"/>
    <path fill="#F7A33E" d="M195,363.6L169.2,340c-5,5.6-8.8,10.9-12.4,15.8l28.4,20.5C188.7,371.5,191.9,367,195,363.6z"/>
    <path fill="#57BFB2" d="M185.1,376.4l-28.4-20.5c-3.2,4.4-6.1,8.4-9,11.8l26.6,22.7C178.6,385.5,182,380.7,185.1,376.4z"/>
    <path fill="#F6B6AD" d="M217.8,365.2l21.8-27.4c-3.4-2.6-7.1-5.3-11.3-7.7l-17.3,30.4C213.1,361.7,215.3,363.3,217.8,365.2z"/>
    <path fill="#F4C336" d="M210.9,360.4l17.3-30.4c-4.2-2.4-9-4.6-14.8-6l-8.1,34.1C206.8,358.4,208.8,359.2,210.9,360.4z"/>
    <path fill="#57BFB2" d="M205.4,358.1l8.1-34.1c-2.4-0.5-4.8-1-7.5-1.1l-2,34.9C204.3,357.8,204.9,358,205.4,358.1z"/>
    <path fill="#F7A33E" d="M230.5,375.5l21.5-27.6c-3.7-2.9-7.8-6.5-12.4-10.1l-21.8,27.4C221.7,368.2,225.6,371.7,230.5,375.5z"/>
    <path fill="#F6B6AD" d="M295.5,382c4.1-2,7.5-4.1,10.7-6l-17.9-30.1c-3.1,1.8-6,3.6-8.5,4.8c-1.5,0.8-2.9,1.3-4.2,1.9l12.3,32.8 C290.5,384.3,293.2,383.2,295.5,382z"/>
    <path fill="#F4C336" d="M287.9,385.3l-12.3-32.8c-1.8,0.7-3.5,1.1-5.1,1.4l5,34.7C279.9,387.9,284.1,386.8,287.9,385.3z"/>
    <path fill="#F7A33E" d="M275.5,388.6l-5-34.7c-4.1,0.5-7,0.4-9.6-0.6l-11.6,33C258.1,389.6,267.7,389.7,275.5,388.6z"/>
    <path fill="#57BFB2" d="M249.3,386.3l11.6-33c-2.4-0.7-5.3-2.6-9-5.4l-21.5,27.6C235.4,379.2,241.4,383.6,249.3,386.3z"/>
    <path fill="#F6B6AD" d="M322.9,368.7l-2.3-34.9c-5.8,0.3-11.2,1.9-16,3.7l12.9,32.5C319.6,369.2,321.3,368.6,322.9,368.7z"/>
    <path fill="#F4C336" d="M317.5,370l-12.9-32.5c-4.6,1.9-8.6,4-12.1,6l17.5,30.3C312.8,372.1,315.3,370.8,317.5,370z"/>
    <path fill="#57BFB2" d="M309.9,373.8l-17.5-30.3c-1.5,0.8-2.7,1.6-4.1,2.4l17.9,30.1C307.5,375.2,308.8,374.4,309.9,373.8z"/>
    <path fill="#F7A33E" d="M330.5,370.2l13.8-32.2c-6.9-2.9-15.3-4.9-23.8-4.3l2.3,34.9C325.1,368.5,327.5,368.9,330.5,370.2z"/>
    <path fill="#F6B6AD" d="M333.7,388.9c-1.3,3.7-2.8,7.7-3.9,12.5l34,8.2c0.5-2.3,1.6-5.3,2.7-8.5c0.7-1.9,1.5-4,2.3-6.3l-33-11.8 C335.2,384.8,334.5,386.7,333.7,388.9z"/>
    <path fill="#F4C336" d="M335.9,383l33,11.8c1.1-3.3,2.4-6.8,3.2-11.4l-34.4-6.4C337.5,378.3,336.7,380.6,335.9,383z"/>
    <path fill="#F7A33E" d="M337.9,375.2c0,0.1-0.1,0.6-0.2,1.8l34.4,6.4c2.5-8.5-0.4-24-8.3-31.7l-26.3,23.1 C337.7,375.3,337.8,375.3,337.9,375.2z"/>
    <path fill="#57BFB2" d="M337.5,374.8l26.3-23.1c-6.7-7.1-12.3-10.1-19.4-13.6l-13.8,32.2C333,371.4,337,373.9,337.5,374.8z"/>
    <path fill="#F6B6AD" d="M339.8,443.6c7.1-8.4,15.3-18.1,21.5-25.5l-32.7,5.8C329.5,430.3,333.7,438.8,339.8,443.6z"/>
    <path fill="#F4C336" d="M328.6,423.9l32.7-5.8c0.1-0.2,0.3-0.3,0.4-0.5c0.2-0.5,0.6-0.6,1.3-0.4c-0.1-1-0.1-2.7,0.3-5l-34.7-4.8 C327.9,412.1,327.7,417.6,328.6,423.9z"/>
    <path fill="#57BFB2" d="M328.6,407.5l34.7,4.8c0.3-1.4,0.1-1.7,0.5-2.8l-34-8.2C329.2,403.2,328.9,405.9,328.6,407.5z"/>
    <path fill="#F7A33E" d="M361.7,417.6c-0.1,0.2-0.3,0.3-0.4,0.5c-6.2,7.4-14.4,17.1-21.5,25.5c9,7.2,16,8,21.5,9.8l9.2-33.8 c-3.4-0.6-5.9-2-7.4-2.4C362.4,417,361.9,417.1,361.7,417.6z"/>
    <path fill="#F4C336" d="M392,466.8l25.3-24.2c-3.5-3.6-6.9-6.1-10.3-8.3l-18.9,29.5C389.8,464.9,391.4,466,392,466.8z"/>
    <path fill="#F7A33E" d="M388.2,463.8l18.9-29.5c-6.8-4.3-12.9-6.9-19.6-9.5l-12.3,32.8C379.8,459.3,384.8,461.6,388.2,463.8z"/>
    <path fill="#57BFB2" d="M375.2,457.6l12.3-32.8c-6.2-2.3-12.2-3.8-17.1-5.1l-9.2,33.8C366.8,454.9,371.3,456.1,375.2,457.6z"/>
    <path fill="#F6B6AD" d="M382.1,482.2l27.3,21.9c2.3-2.9,4.8-5.9,7.3-9.4l-28.4-20.4C386.6,476.7,384.4,479.3,382.1,482.2z"/>
    <path fill="#F4C336" d="M388.3,474.2l28.4,20.4c2.5-3.6,5.1-7.5,7.4-12.8L392,468C391.4,469.5,390.1,471.8,388.3,474.2z"/>
    <path fill="#F6B6AD" d="M424.2,452.3c-1.9-4-4.4-7.1-6.8-9.7L392,466.8c0.1,0.1,0.3,0.3,0.4,0.4c0-0.2,0.1-0.3,0.1-0.4l34.1,7.8 C428.3,468.1,427.7,459,424.2,452.3z"/>
    <path fill="#57BFB2" d="M392.5,466.8c0,0.1-0.1,0.2-0.1,0.4c-0.1,0.2-0.2,0.5-0.3,0.9l32.2,13.8c0.9-2.1,1.8-4.6,2.4-7.3 L392.5,466.8z"/>
    <path fill="#F7A33E" d="M371.4,496.6l29.4,19c2.2-3.4,5.3-7.3,8.7-11.5l-27.3-21.9C378.8,486.4,375.1,490.9,371.4,496.6z"/>
    <path fill="#F6B6AD" d="M364.7,555c0.1,3.3,0.1,6.6,0,9.7l35,1.7c0.2-4.3,0.2-8.3,0.1-12.3l-0.3-6.9l-35,1.9L364.7,555z"/>
    <path fill="#F4C336" d="M364.4,549l35-1.9c-0.2-3.2-0.4-6.3-0.6-9.5l-34.9,2.8L364.4,549z"/>
    <path fill="#F7A33E" d="M362.6,527.1l0.4,4.5l0.8,8.8l34.9-2.8l-0.8-9.2l-0.4-4.6c0-1.2-0.1-0.5,0-1.1l-34.8-3.7 C362.3,521.5,362.5,525.3,362.6,527.1z"/>
    <path fill="#57BFB2" d="M362.7,519.1l34.8,3.7c-0.1-0.8,1.1-3.8,3.3-7.2l-29.4-19C367.9,502.3,363.8,509.1,362.7,519.1z"/>
    <path fill="#F6B6AD" d="M362.8,576.3c2.1,0.2,0.9-0.2-0.3,0.9l23.4,26c6.1-5.6,8.8-11.9,10.5-17L363,575.5 C363,575.8,362.9,576.1,362.8,576.3z"/>
    <path fill="#F4C336" d="M363,575.5l33.3,10.7c1.7-5.3,2.4-10,2.8-14.4l-34.8-3.4C364.1,571.2,363.6,573.8,363,575.5z"/>
    <path fill="#57BFB2" d="M364.4,568.4l34.8,3.4c0.2-1.8,0.3-3.6,0.4-5.4l-35-1.7L364.4,568.4z"/>
    <path fill="#F7A33E" d="M362.8,576.3c-0.2,0-0.5-0.1-0.8-0.1l-6.1,34.5c7.3,1.6,20.5,1.3,30-7.5l-23.4-26 C363.7,576.1,364.8,576.6,362.8,576.3z"/>
    <path fill="#F6B6AD" d="M319.8,555.8c-4.6-1.6-9.6-2.8-15.2-3.2l-2.5,34.9c1.7,0.1,3.9,0.6,6.3,1.4c1.4,0.5,2.9,1.1,4.4,1.8 l14.7-31.8C324.9,557.8,322.4,556.7,319.8,555.8z"/>
    <path fill="#F4C336" d="M327.4,558.9l-14.7,31.8c2.1,1,4.3,2.1,6.5,3.5l17.7-30.2C333.9,562.1,330.7,560.4,327.4,558.9z"/>
    <path fill="#F7A33E" d="M336.9,563.9l-17.7,30.2c4,2.3,10.7,6.8,16.8,9.6l15.5-31.4C346.7,570,343.3,567.7,336.9,563.9z"/>
    <path fill="#57BFB2" d="M351.5,572.3L336,603.7c5.7,2.8,11.9,5.5,19.9,7l6.1-34.5C359.4,575.8,355.4,574.3,351.5,572.3z"/>
    <path fill="#F6B6AD" d="M267.9,565.2l22.2,27.1c2.1-1.7,4-3,5.6-3.7L280.7,557C275.7,559.3,271.5,562.3,267.9,565.2z"/>
    <path fill="#F4C336" d="M280.7,557l14.9,31.7c1.6-0.7,2.9-1.1,4.4-1.2l-2.5-34.9C291.7,552.9,285.8,554.6,280.7,557z"/>
    <path fill="#57BFB2" d="M297.5,552.5l2.5,34.9c0.6,0,1.3-0.1,2,0l2.5-34.9C302.3,552.3,299.9,552.4,297.5,552.5z"/>
    <path fill="#F7A33E" d="M254.6,578l25.5,24c3.5-3.7,6.9-7.2,10-9.7l-22.2-27.1C262.6,569.6,258.5,573.9,254.6,578z"/>
    <path fill="#F6B6AD" d="M224.5,605.1c-0.1,0-0.2,0.1-0.3,0.1c-0.7,0.2-0.3,0,0.1,0.2c0.1,0,0.1,0,0.2,0.1l0,0c0.1,0.1,0,0,0,0 l-0.4,0.6l-10.8,32.6c7.5,2.6,15.7,1.9,21.5,0c3.6-1.1,6.5-2.5,9.3-4L227.1,604C226.1,604.5,225.1,605,224.5,605.1z"/>
    <path fill="#F4C336" d="M227.1,604l16.9,30.7c3.7-2.1,6.9-4.4,9.9-6.7l-21.7-27.5C230.5,601.9,228.7,603.1,227.1,604z"/>
    <path fill="#F7A33E" d="M232.3,600.5l21.7,27.5c5.8-4.6,10.7-9.6,15-14.1l-25.3-24.2C239.6,593.9,235.9,597.6,232.3,600.5z"/>
    <path fill="#57BFB2" d="M243.6,589.7l25.3,24.2c3.9-4.1,7.6-8.2,11.2-11.9l-25.5-24C250.8,582.1,247.2,586,243.6,589.7z"/>
    <path fill="#F6B6AD" d="M218.3,595.4l-32.2,13.8c1.7,4,3.7,8.1,6.6,12.4l29.3-19.2C220.7,600.6,219.5,598.1,218.3,595.4z"/>
    <path fill="#F4C336" d="M224.3,605.4c-0.5-0.2-0.9,0-0.1-0.2c-0.5-0.4-1.4-1.4-2.2-2.8l-29.3,19.2c2.9,4.3,6.4,8.9,12.4,12.9 l19.1-28.5L224.3,605.4z"/>
    <path fill="#57BFB2" d="M205,634.6c2.4,1.6,5.2,3.1,8.3,4.1l10.8-32.6L205,634.6z"/>
    <path fill="#57BFB2" d="M224.5,605.5L224.5,605.5C224.6,605.5,224.6,605.5,224.5,605.5z"/>
    <path fill="#57BFB2" d="M224.5,605.5c0,0-0.1-0.1-0.2-0.1l-0.2,0.7L224.5,605.5z"/>
    <path fill="#F7A33E" d="M213.6,582.1l-33.6,10c1.7,5.6,3.6,11.3,6.1,17.2l32.2-13.8C216.6,591.4,215,586.8,213.6,582.1z"/>
    <path fill="#F6B6AD" d="M158.2,543.7c-5,0.5-9.6,1.8-14.2,3.2l11.1,33.2c2.5-0.7,5-1.5,7.3-1.7c1.4-0.3,2.6-0.2,3.9-0.2l1-35 C164.2,543.3,161.1,543.3,158.2,543.7z"/>
    <path fill="#F4C336" d="M167.2,543.2l-1,35c1.6,0.1,3.2,0.3,4.4,0.7l10.1-33.5C176.2,544,171.6,543.4,167.2,543.2z"/>
    <path fill="#F7A33E" d="M180.7,545.4l-10.1,33.5c2.5,0.8,4,1.8,5.6,3.9l28.1-20.9C198.7,554.2,189.8,548,180.7,545.4z"/>
    <path fill="#57BFB2" d="M204.4,561.9l-28.1,20.9c1.6,2.3,2.1,3.7,3.8,9.3l33.6-10C212.3,577.3,209.4,568.3,204.4,561.9z"/>
    <path fill="#F6B6AD" d="M117.8,559.4l15.8,31.2c3.5-1.7,6.8-3.5,10-5.2l-16.2-31C124,556.2,120.9,557.9,117.8,559.4z"/>
    <path fill="#F4C336" d="M127.3,554.4l16.2,31c3.3-1.8,6.1-3.1,8.5-4.2L138.6,549C134.3,550.8,130.5,552.7,127.3,554.4z"/>
    <polygon fill="#57BFB2" points="138.6,549 152,581.3 155.1,580.1 144,546.9 &#9;&#9;&#9;"/>
    <path fill="#F7A33E" d="M104.6,565.4l12.7,32.6c5.9-2.2,11.1-4.8,16.3-7.4l-15.8-31.2C113.3,561.7,108.8,563.8,104.6,565.4z"/>
    <path fill="#F6B6AD" d="M81,565.3c-0.4-0.8-0.3-0.5-0.3-1l-35-0.7c-0.3,6.9,2,14.5,5.5,19.9c2,3.3,4.2,5.9,6.8,8.4l24.4-25.1 C81.8,566.5,81.2,565.7,81,565.3z"/>
    <path fill="#F4C336" d="M82.4,566.8L58,591.9c3.4,3.5,8,6.5,12.7,8.6l13.9-32.1C83.8,568,83.1,567.7,82.4,566.8z"/>
    <path fill="#F7A33E" d="M84.6,568.4l-13.9,32.1c9.7,4.2,19.5,4.2,27.4,3l-5.3-34.6C88.8,569.5,86.1,569.1,84.6,568.4z"/>
    <path fill="#57BFB2" d="M92.8,568.9l5.3,34.6c7.3-1.1,13.4-3.2,19.3-5.4l-12.7-32.6C100.4,567,96.2,568.4,92.8,568.9z"/>
    <path fill="#F6B6AD" d="M88.3,549.7l-29.1-19.5c-2.1,3.1-4.4,6.6-6.6,10.6l30.6,16.9C84.5,555.4,86.3,552.7,88.3,549.7z"/>
    <path fill="#F4C336" d="M83.2,557.8l-30.6-16.9c-2.2,4.1-4.5,8.7-5.9,14.7l34.1,7.8C81.1,562.2,81.9,560.2,83.2,557.8z"/>
    <path fill="#57BFB2" d="M80.8,563.4l-34.1-7.8c-0.5,2.5-1,5.1-1,8l35,0.7C80.6,564.2,80.7,563.8,80.8,563.4z"/>
    <path fill="#F7A33E" d="M98,533.7l-31.6-15c-1.3,2.8-4.1,7-7.2,11.5l29.1,19.5C91.2,545.3,94.6,540.6,98,533.7z"/>
    <path fill="#F6B6AD" d="M54.8,480.2c-2.8-0.1-5.3-0.2-7.6-0.4c-0.7,1.6-1.4,3.5-1.7,4.7l-1.2-0.3l-3,30.2c4.6,0.4,8.5,0.5,12,0.7 c2.1,0.1,3.9,0.2,5.7,0.3l3.1-34.9C59.5,480.5,57,480.3,54.8,480.2z"/>
    <path fill="#F4C336" d="M62,480.7l-3.1,34.9c2.4,0.2,4.3,0.6,5.3,0.9L74.5,483C69.7,481.5,65.7,481,62,480.7z"/>
    <path fill="#F7A33E" d="M67.8,516.5c2,0.3,3.2,0.2,3.7,0.1c1-0.5,2.6-1.3,4-2l7.8-3.9l15.7-7.8c-3.1-6-7.4-10.2-11.1-12.9 c-2-1.6-3.7-2.5-5.6-3.7c-2.6-1.4-5.4-2.6-7.7-3.3l-10.3,33.5c0.6,0.2,0.5,0.2,0.6,0.2c0.6,0.4,1.5,0.9,1.9,1.3 C67.1,516.9,67,516.2,67.8,516.5z"/>
    <path fill="#57BFB2" d="M99,502.9l-15.7,7.8l-7.8,3.9c-1.5,0.7-3,1.5-4,2c-0.5,0.1-1.7,0.2-3.7-0.1c-0.8-0.2-0.7,0.5-1,1.4 c-0.1,0.3-0.2,0.5-0.4,0.8l31.6,15C101.2,527.7,105.1,514.7,99,502.9z"/>
    <path fill="#F6B6AD" d="M41.1,483.6l-29.7-7.1c-1.1,5.1-3.1,13.6,2.9,24L41,483.9L41.1,483.6z"/>
    <path fill="#F4C336" d="M14.4,500.5c6.8,10.2,15.8,12,20.8,13.2l5.9-29.8L14.4,500.5z"/>
    <path fill="#57BFB2" d="M41.1,483.6l-0.1,0.3l-5.9,29.8c2.2,0.4,4.3,0.7,6.2,0.9l3-30.2L41.1,483.6z"/>
    <path fill="#F7A33E" d="M44.3,484.4l1.2,0.3c0.3-1.3,1-3.1,1.7-4.7c0.7-1.5,1.4-2.8,1.8-3.2l-27.7-21.4 c-5.6,7.8-7.7,13.4-9.9,21.3l29.7,7.1L44.3,484.4z"/>
    <path fill="#F6B6AD" d="M78,427.2c0-4.4-0.2-8.2-0.4-11.8l-35,1.5c0.2,3.7,0.3,7.3,0.3,10.3c0,1.8-0.1,3.6-0.2,5.2l34.9,2.5 C77.9,432.2,78,429.7,78,427.2z"/>
    <path fill="#F4C336" d="M77.7,434.9l-34.9-2.5c-0.2,2.3-0.5,4.3-0.9,5.7l33.8,8.9C76.9,442.6,77.4,438.6,77.7,434.9z"/>
    <path fill="#F7A33E" d="M68.9,461.5c3.8-4.9,5.8-10.1,6.9-14.5l-33.8-8.9c-1.5,3.5,1.1,0.6-2.5,3l17.2,30.5 C59.9,469.9,65.1,466.5,68.9,461.5z"/>
    <path fill="#57BFB2" d="M56.6,471.6l-17.2-30.5c-3.3,1.7-12.8,6.7-18.1,14.1L49,476.6C50.2,475.2,50.5,474.9,56.6,471.6z"/>
  </g>
</svg>