<?xml version="1.0" encoding="utf-8"?>
<svg viewBox="-1783.941 267.537 319.325 320.051" xmlns="http://www.w3.org/2000/svg">
  <g transform="matrix(1, 0, 0, 1, -2190.774902, -293.286896)">
    <path fill="#57BFB2" d="M429.4,663.7c0.8,2.7,0.2,5.7-0.9,8.7c0.7-0.4,1.5-0.7,2.2-1c1.9-0.6,2.6,2.1,1.4,3.5 c-0.8,0.9-1.9,1.7-3.1,2.5c0.7,1.4,1.4,2.6,2,3.7l0.4,0.7c-1.4,0.1-2.7,0.3-4.1,0.4c0.5,1.1,0.7,2.3,0.4,3.5c-0.1,0.5-0.6,1-1,1 c-1.8,0.1-3.2-1.5-4.4-3.3c-0.9,1.3-1.9,2.4-2.8,3.4c2.2,1,4.4,1.3,6.7,1.3c-1.8,2.6-3.1,5.5-3.5,8.5c-0.2,1.8,1.6,2.7,2.6,1.3 c2.8-3.6,5.5-7.3,8.6-10.5l0.6-0.1c1.7,2.9,3.2,5.8,4.6,8.8c1.3,2.7,5.5,2.1,5.2-1.2c0-2.5-1.4-5.2-2.9-7.8 c1.8,0,3.5-0.1,5.2-0.3c-0.2-0.2-0.4-0.4-0.6-0.6c-0.9-1.1,0-2.9,1.4-2.4c1.2,0.4,2.4,0.9,3.5,1.4c0.5-0.9,0.1-2.1-0.7-2.7 c-2.2-1.7-5.3-2-8.4-1.9c2.1-1.6,4-3.3,5.5-5.3c1.6-2.1-0.6-5-2.9-3.9c-3,1.4-5.9,3.7-8.6,6.2c-1.2-2.3-2.4-4.6-3.5-7 c-1.1-2.4-2-5.6-3.5-7.7c-1-1.3-3-0.7-3.4,1.3c-0.2,1.1-0.2,2.2-0.1,3.4c0.6-1.4,1.2-2.8,2-4.1 C428.1,662.7,429.2,662.8,429.4,663.7z"/>
    <path fill="#57BFB2" d="M464.9,699c0.1-1.2-1.1-1.8-2.2-1.9c0.5,1.4,1.1,2.7,1.7,4C464.6,700.4,464.8,699.7,464.9,699z"/>
    <path fill="#57BFB2" d="M463.8,704.4c-0.4-0.2-0.7-0.5-1.1-0.8c0,0,0,0-0.1,0c0,0,0,0,0,0c-1.4-1.1-2.6-2.6-3.6-4.2 c-0.5,0.7-1,1.4-1.5,2l-2,2.2c-1.9-1.8-3.7-3.9-4.4-6.2c-0.4-1.4-2.4-1.1-2.7,0.2c-0.7,3,0.7,5.6,2.6,7.8 c-1.6,0.5-3.1,0.9-4.7,1.3c-0.7,0.2-1,1.2-0.2,1.5c1.6,0.6,3.2,0.6,4.8,0.4l-1.8,2.3c-0.4,0.6-0.8,1.2-1.2,1.8 c-0.2,0.2-0.3,0.5-0.3,0.8l0,0.2l0,0c-0.9,1,0.4,2.5,1.5,1.6c0.5-0.4,2.1-1.1,3-1.8c1.3-1,2.4-2.1,3.6-3.2l1.3,1.1 c1.4,1.2,2.8,2.8,4.8,2.9c1,0,2.3-0.7,2.2-1.7c-0.2-2-2.5-3.7-4.5-5.3c1.6-0.1,3.1-0.2,4.8,0c2,0.1,3-2.4,0.9-3c0,0,0,0,0,0 C465.1,704.6,464.3,704.8,463.8,704.4z"/>
    <path fill="#57BFB2" d="M413.3,702.8l-0.2,0.6c-0.3-1.9-0.8-3.6-1.9-5.1c-0.3-0.5-1.1-0.5-1.3,0.3c-0.7,2.5-0.6,4.9-0.1,7.2 c-0.4-0.1-0.9-0.3-1.1-0.6c-0.9-1.2-2.5,0.4-1.6,1.8c1.1,1.7,2.4,2.9,3.8,4l0.2,0.9c-0.6,2.1-1.3,3.9-2.2,5.9 c-0.6,1.2,0.5,2.8,1.5,2c0.9-0.8,1.7-1.7,2.4-2.8c0.4,0.9,0.8,1.8,1.4,2.6c0.7,1.1,2-0.1,1.8-1.3c-0.2-1.6-0.5-3.2-0.9-4.7 c1.3,0.6,2.5,0.9,3.7,0.7c1.3-0.3,1.6-2.2,0.9-3.3c-0.8-1.2-2.2-1.9-3.5-2.5c0.4-1.6,0.6-3.1,0.8-4.5c0-0.3,0-0.6,0-0.9 c0-0.1-0.1-0.3-0.1-0.4C416.1,701,414,700.8,413.3,702.8z"/>
    <path fill="#57BFB2" d="M452.2,626.5c-0.6-0.3-1.1-0.7-1.5-1.3c-0.4,0.1-0.7,0.2-1.1,0.3c-1.8,0.7-1.3,3,0,3.2 c4.8,0.9,10.1,0.9,15,1.3c-2,2.9-3.7,6.1-3.9,9.2c-0.1,1.2,1.1,2.1,2.2,1.3c3.2-2.5,5.5-6.3,8-9.6l1.8,0.3l3.3,5.1 c1.2,1.9,2.2,4,3.5,5.8c0.6-0.2,1.3-0.3,1.9-0.4c-1.4-0.8-2.6-1.8-3.6-3.3c-0.5-0.7,0.4-1.4,1-1.1c1.4,0.7,2.9,1.2,4.5,1.8 c0-0.6,0-1.3,0.1-1.9c-0.6-1.3-1.3-2.7-2.1-4l2.8,0.7c0.4-1,1-1.8,1.9-2.6c1-0.8,2.8,0.2,2.2,1.5c-0.3,0.6-0.4,1.3-0.5,2 c2.9,0.2,3.8-3.7,1-5.1c-1.6-0.8-3.4-1.4-5.1-2c-1.4,0.9-3.2,0.3-3.9-1.1c-1.1-0.3-2.2-0.5-3.4-0.8l-0.3-0.4 c1.4-1.3,2.8-2.7,4.1-4.1c0.4-2.2,0.7-4.3,1-6.5l-0.4-0.3c-0.1,0-0.2,0-0.3,0c-2.7,0.4-5.5,2.8-7.8,5.4c-0.7-1-1.3-2.1-2.1-3.2 c-1,0.3-2.1,0.6-3.1,0.9c-1.6,0.5-2.5-1.3-1.3-2.6c0.6-0.6,1.2-1.2,1.9-1.7c-2-2.4-4.2-4.4-6.8-5.4c-1.5-0.6-3.1,1-2.6,2.5 c1.6,5.2,5.9,9.7,9.3,14c-4-0.5-8.5-0.8-12.9-0.2c0,0,0,0.1,0,0.1C454.9,625.7,453.4,627.1,452.2,626.5z"/>
    <path fill="#57BFB2" d="M468.7,656.9l-2.9,0c-0.2,1-0.2,2.1-0.2,3.2c0,0-0.1-0.1-0.1-0.1c1.3,1.6,2.4,3.3,3.1,5 c0.7,1.8-1.6,3.5-3.3,2.5c-1.3-0.8-2.5-1.8-3.5-2.8c-1.5-0.2-3-0.3-4.5-0.6c-1.3-0.2-1.9,1.5-0.8,2.2c2.3,1.3,4.9,1.9,7.6,2.2 c-1.1,1.5-1.9,3.3-2,5.1c-0.1,1.1,1.3,2.3,2.3,1.4c0.9-0.8,1.8-1.7,2.6-2.6c0.7,2.8,1.8,5.4,3.7,7.4c0.7,0.7,2.1,0.4,1.9-0.5 c-0.5-2.5-1-5-1.3-7.6c2.6,2.2,5.7,4.1,8.5,4.3c1.1,0.1,2-1,1.4-2c-1-1.9-3-3.6-5.1-5.1c1.2-0.1,2.3-0.3,3.3-0.5 c1.9-0.5,1.5-2.9-0.6-3.4c-1.5-0.3-3.1-0.3-4.7-0.3c1.8-1.8,3.2-3.9,3.7-6c0.4-2-2.1-4.4-4-2.8c-1,0.8-1.8,1.8-2.6,2.8 c0-1.1-0.1-2.1-0.2-3C470.6,656.4,469.8,656.9,468.7,656.9z"/>
    <path fill="#57BFB2" d="M433.5,646.1c-1.6,1.5-3.1,3-4.6,4.5c-1.1,1.2-0.1,2.9,1.2,2.3c1.7-0.8,3.7-2.2,5.6-3.8 c0.6,1.9,1.5,3.7,3,4.2c0.5-0.1,1-0.3,1.5-0.4c0-0.1,0.1-0.1,0.1-0.2c1.1-2.2,0.3-4.6-0.5-6.8c-1.9-1.7-3.7-3.4-4.9-5.5 c-0.8-1.3,0.4-3.3,1.9-3.1c0.2,0,0.5,0.1,0.7,0.1c-0.5-2.3-0.9-4.7-1.3-7c-0.2-1.2-2-0.5-2.3,0.7c-0.6,3.9-0.5,7.3,0.1,10.8 c-2.5,0-4.9-0.4-7.1-1.5c-0.9-0.5-1.9,1-1.3,1.9C427.3,644.6,430.2,645.7,433.5,646.1z"/>
    <path fill="#57BFB2" d="M446.8,639.6c-0.8,0.1-1.6,0.2-2.4,0.4c1.8-2.7,3-5.4,3-8.2c0-0.9-1-1.2-1.7-0.6c-2.1,2-3.7,4.6-5.3,7 c2.6,1.1,5,2.9,7.3,4.8C448.8,641.9,448.6,639.4,446.8,639.6z"/>
    <path fill="#57BFB2" d="M495.5,596.5c4.6-0.1,9.1-0.2,13.5,0.2l0.4,0.4c-1.3,3-2.5,6.2-4,9.1c-1.4,2.7,1.7,5.6,4.2,3.4 c1.9-1.7,3.2-4.3,4.3-7.2c1.2,1.4,2.4,2.8,3.6,3.9c0-0.3,0.1-0.7,0.1-1c0.3-1.3,2.3-1.7,2.8-0.3c0.4,1.2,0.8,2.4,1.1,3.6 c0.9-0.2,1.6-1.3,1.6-2.2c0-2.8-1.7-5.4-3.8-7.7c2.5,0.5,5.1,1.1,7.6,1c2.6-0.1,3.5-3.5,1.2-4.7c-3-1.5-6.6-2.3-10.2-2.8 c1-2.4,2.2-4.7,3.3-7.1c1-2.1,2.7-4.5,3.6-6.7c-1.7,2.1-4.2,3.7-7.3,4.7c0.8,0.4,1.5,0.7,2.2,1.2c1.7,1.1,0,3.3-1.9,3.2 c-1.3-0.1-2.6-0.4-4-0.9c-0.6,1.4-1.2,2.8-1.6,3.9l-0.3,0.7c-0.9-0.9-1.9-1.9-2.8-2.8c-0.6,1-1.3,1.9-2.4,2.4 c-0.5,0.2-1.1,0.1-1.5-0.2c-1.2-1.3-0.9-3.4-0.1-5.5c-1.7,0.1-3.2,0-4.6-0.1c0.6,2.3,1.8,4.3,3.2,6.1c-3.1,0.3-6.2,1-8.8,2.6 C493.4,594.6,493.8,596.6,495.5,596.5z"/>
    <path fill="#57BFB2" d="M525.1,577.6C525.1,577.6,525.1,577.5,525.1,577.6c0.5-1.7-1.3-2.9-3.1-2c-1,0.5-1.9,1.3-2.7,2.1 c1.5-0.5,3.1-0.9,4.7-1C524.5,576.7,525,577.1,525.1,577.6z"/>
    <path fill="#57BFB2" d="M514.5,630.5c0-0.4-0.1-0.7-0.1-1.1c-0.1-0.1-0.1-0.2-0.2-0.3c0.1,0,0.1,0,0.2,0c0-1.9,0.4-3.7,1-5.4 c-0.9,0-1.8,0.1-2.7,0.1l-3-0.1c0.2-2.6,0.7-5.5,2.1-7.3c0.9-1.1-0.7-2.5-1.8-2c-2.8,1.3-3.9,4.1-4.5,6.9 c-1.3-0.9-2.7-1.8-3.9-2.8c-0.6-0.5-1.5,0-1.3,0.8c0.6,1.6,1.5,2.9,2.7,4.1c-1,0-2-0.1-3,0c-0.7,0-1.4,0.1-2.1,0.3 c-0.3,0-0.5,0.1-0.8,0.3l-0.1,0.1l0,0c-1.4-0.1-1.7,1.8-0.3,2.1c0.7,0.1,2.2,1,3.2,1.3c1.6,0.4,3.1,0.5,4.7,0.7l-0.1,1.6 c0,1.8-0.4,4,0.8,5.6c0.6,0.8,1.9,1.4,2.7,0.7c1.5-1.4,1.4-4.2,1.4-6.8c1.1,1.1,2.1,2.3,3,3.7c1.1,1.6,3.8,0.9,2.9-1.1 c0,0,0,0,0,0C515.1,631.6,514.6,631.1,514.5,630.5z"/>
    <path fill="#57BFB2" d="M519.3,628c0.9-0.7,0.8-1.9,0.1-2.8c-0.7,1.2-1.4,2.5-2,3.7C518.1,628.6,518.7,628.4,519.3,628z"/>
    <path fill="#57BFB2" d="M469,598.3c1.2,0.2,2.4,0.2,3.7,0.1c-0.5,0.9-0.9,1.8-1.1,2.7c-0.4,1.3,1.3,1.5,2.1,0.6 c1.1-1.2,2.1-2.4,3.2-3.7c0.3,1.3,0.9,2.5,1.8,3.3c1,0.9,2.8-0.1,3.1-1.3c0.4-1.4,0.1-2.9-0.3-4.4c1.4-0.7,2.8-1.4,4-2.2 c2.2-1.4,1-4.3-1.4-3.4l-0.6,0.2c1.2-1.5,2.3-3,2.8-4.7c0.2-0.6-0.3-1.2-1-0.9c-2.4,1-4.1,2.7-5.7,4.4c-0.2-0.4-0.3-0.9-0.2-1.2 c0.3-1.4-1.9-1.7-2.5-0.2c-0.6,2-0.8,3.7-0.7,5.5l-0.6,0.8c-2,0.8-4,1.3-6,1.9C468.4,596.2,467.8,598.1,469,598.3z"/>
    <path fill="#57BFB2" d="M568.2,572.9c-0.1-0.6-0.1-1.2,0-1.8c-0.4-0.3-0.7-0.5-1.1-0.7c-1.7-1.1-3.1,0.9-2.5,2 c2.3,4.3,5.6,8.5,8.3,12.5c-3.5,0.3-7.1,0.9-9.6,2.7c-1,0.7-0.9,2.2,0.4,2.5c3.9,1,8.3,0.4,12.5,0.3l0.8,1.6l-1.9,5.8 c-0.7,2.1-1.7,4.1-2.4,6.2l1.6,1.3c-0.2-1.6-0.2-3.2,0.3-4.9c0.3-0.8,1.3-0.6,1.5,0.1c0.4,1.5,0.9,3,1.4,4.6 c0.4-0.3,0.9-0.7,1.3-1c0.7-1.3,1.3-2.8,1.9-4.3c0.4,0.9,0.8,1.8,1.2,2.7c1-0.3,2.2-0.4,3.3-0.2c1.2,0.3,1.6,2.3,0.2,2.7 c-0.7,0.2-1.3,0.5-1.9,0.9c1.6,2.3,5.2,0.6,4.6-2.5c-0.4-1.8-1-3.5-1.6-5.3c-1.4-0.5-2-2.2-1.4-3.5c-0.5-1.1-1-2.2-1.6-3.3 l0.2-0.5c2,0.3,4,0.6,5.9,0.7c1.9-1.1,3.8-2.2,5.7-3.3l0-0.3c-0.1-0.1-0.2-0.3-0.3-0.4c-2-2-5.6-2.5-9.1-2.7 c0.4-1.2,0.8-2.4,1.2-3.7c-0.8-0.6-1.7-1.2-2.5-1.8c-1.4-1-0.5-2.8,1.3-2.6c0.8,0.1,1.5,0.2,2.3,0.4c0.6-3,0.8-6,0-8.7 c-0.5-1.5-2.7-1.8-3.6-0.5c-3.1,4.5-3.9,10.5-5.1,15.9c-2.1-3.4-4.7-7.1-7.8-10.1C570.5,574.4,568.5,574.1,568.2,572.9z"/>
    <path fill="#57BFB2" d="M554.7,604.7c-0.6-0.7-1.2-1.5-1.8-2.3c-0.9,0.5-1.8,1.1-2.6,1.8c-0.4,2-1.1,3.9-2,5.5c-1,1.8-3.7,1-4-1 c-0.2-1.4-0.2-2.8,0-4.3c-0.9-1.3-1.7-2.7-2.5-4.2c-0.7-1.2-2.4-0.5-2.2,0.8c0.4,2.7,1.6,5,3,7.2c-1.9,0.2-3.7,0.6-5.2,1.6 c-0.9,0.6-0.9,2.5,0.4,2.7c1.2,0.2,2.4,0.4,3.7,0.5c-1.7,2.2-3.1,4.7-3.4,7.5c-0.1,1,1,1.9,1.6,1.1c1.6-2,3.3-3.8,5.1-5.7 c-0.1,3.4,0.3,7,1.9,9.3c0.6,0.9,2,1,2.5,0c0.8-2,0.9-4.6,0.8-7.3c0.8,0.8,1.6,1.7,2.5,2.3c1.6,1.2,3.2-0.7,2.2-2.6 c-0.7-1.4-1.7-2.6-2.7-3.8c2.5,0.1,5,0.1,7-0.8c1.8-0.9,2.2-4.4-0.3-4.8c-1.2-0.2-2.5-0.3-3.8-0.3c0.8-0.6,1.6-1.3,2.2-2 C556.2,605.8,555.4,605.5,554.7,604.7z"/>
    <path fill="#57BFB2" d="M540.2,580c2.4-0.5,3.8-2.7,5-4.7c0,0,0.1,0.1,0.1,0.1c0.1-2.5,0.4-5,1.2-7.3c0.5-1.5,2.8-1.8,3.6-0.4 c0.1,0.2,0.2,0.4,0.3,0.6c1.5-1.8,3-3.5,4.5-5.3c0.8-0.9-0.9-1.9-2-1.3c-3.4,1.8-6,4.2-8.3,6.8c-1.6-2-2.7-4.1-3.2-6.5 c-0.2-1-2-0.8-2.3,0.2c-0.9,2.6,0.1,5.6,1.8,8.3c-2.1-0.2-4.2-0.6-6.4-0.8c-1.6-0.1-2.3,1.8-1.1,2.4c1.7,0.8,4,1.5,6.5,2.1 c-1.1,1.6-1.9,3.3-1.5,4.8C539.2,579.3,539.7,579.7,540.2,580C540.2,580,540.2,580,540.2,580z"/>
    <path fill="#57BFB2" d="M552.4,579.6c1.6,0.2,3.3-1.4,2.1-2.7c-0.6-0.6-1.2-1.1-1.8-1.7c3.2-0.2,6.1-1.1,8.3-2.8 c0.7-0.5,0.3-1.6-0.6-1.7c-2.8-0.5-5.8-0.1-8.7,0.2C552.4,573.5,552.5,576.5,552.4,579.6z"/>
    <path fill="#57BFB2" d="M620.3,585.8c-1.7-0.6-3,0.9-1.9,2.3c2.9,3.5,5.9,7,8.3,10.7l-0.1,0.6c-3.2,0.9-6.4,1.9-9.6,2.5 c-2.9,0.6-3.3,4.8,0,5.4c2.5,0.4,5.4-0.2,8.3-1.1c-0.4,1.8-0.7,3.6-0.8,5.4c0.3-0.2,0.7-0.4,1-0.6c1.2-0.6,2.8,0.7,2,2 c-0.6,1.1-1.4,2.1-2.2,3.1c0.8,0.5,1.9,0.3,2.6-0.2c2.2-1.8,3.2-4.7,3.7-7.8c1.2,2.3,2.3,4.7,4,6.5c1.7,2,4.9,0.5,4.5-2 c-0.7-3.3-2.3-6.5-4.1-9.8c2.5-0.7,5-1.2,7.6-1.8c2.4-0.5,5.3-0.7,7.6-1.4c-2.7,0.1-5.5-1.1-8.2-2.8c0.2,0.8,0.4,1.6,0.5,2.4 c0.2,2-2.6,2.1-3.7,0.5c-0.7-1.1-1.3-2.3-1.8-3.7c-1.6,0.4-3,0.8-4.2,1.2l-0.8,0.2c0.2-1.3,0.3-2.6,0.5-3.9 c-1.1,0.2-2.2,0.1-3.3-0.4c-0.5-0.2-0.8-0.8-0.7-1.3c0.3-1.7,2.1-2.8,4.2-3.5c-1.1-1.3-2.1-2.6-2.9-3.8c-1.5,1.9-2.3,4.1-2.8,6.4 C625.8,588.9,623.3,586.8,620.3,585.8z"/>
    <path fill="#57BFB2" d="M651.9,599.3c1.4-0.7,1.2-2.8-0.6-3.6c-1-0.4-2-0.7-3.1-0.8c1.3,0.9,2.6,1.8,3.6,3 C652.2,598.3,652.2,598.9,651.9,599.3z"/>
    <path fill="#57BFB2" d="M608.7,626.2c1.1,0.3,1.9-0.5,2.3-1.6c-1.4,0.2-2.7,0.5-4,0.7C607.5,625.8,608.1,626.1,608.7,626.2z"/>
    <path fill="#57BFB2" d="M603.9,624.1c0.2-0.2,0.3-0.3,0.5-0.5c0.1-0.2,0.2-0.4,0.2-0.6c0.1,0.1,0.1,0.2,0.2,0.2 c1.4-1.2,3.1-2,4.9-2.6c-0.6-0.7-1.2-1.4-1.8-2.1l-1.7-2.4c2.2-1.4,4.7-2.9,7-2.9c1.4,0,1.6-2.1,0.4-2.6 c-2.7-1.4-5.6-0.4-8.2,0.7c-0.1-1.6-0.2-3.2-0.2-4.8c0-0.7-1-1.2-1.4-0.5c-0.9,1.5-1.3,3-1.5,4.6l-1.8-2.3c-0.5-0.5-1-1-1.5-1.5 c-0.2-0.2-0.4-0.3-0.7-0.4l-0.2,0l0,0c-0.7-1.2-2.5-0.2-1.8,1.1c0.3,0.6,0.5,2.3,1,3.3c0.7,1.5,1.6,2.8,2.4,4.2l-1.3,1 c-1.4,1.1-3.4,2.2-3.9,4.1c-0.2,1,0.1,2.4,1.1,2.5c2,0.3,4.2-1.5,6.2-3.2c-0.2,1.5-0.5,3.1-1,4.7c-0.6,1.9,1.6,3.5,2.7,1.6 c0-0.1,0.1-0.1,0.1-0.2C603.4,625,603.5,624.5,603.9,624.1z"/>
    <path fill="#57BFB2" d="M600.9,574.2c1.6,0.1,3.2,0.1,4.8,0.2c-0.8,1.1-1.4,2.3-1.5,3.4c0,1.3,1.8,2.1,3,1.6 c1.4-0.5,2.4-1.7,3.3-2.9c1.4,0.7,2.9,1.4,4.2,1.8c2.5,0.8,4-1.9,1.8-3.2l-0.5-0.3c1.9,0.1,3.8-0.1,5.4-0.7 c0.5-0.2,0.8-0.9,0-1.3c-2.3-1.3-4.7-1.5-7-1.7c0.2-0.4,0.5-0.8,0.8-0.9c1.3-0.6,0.1-2.6-1.4-2c-1.9,0.7-3.4,1.7-4.8,2.9l-1,0 c-1.9-1-3.5-2.3-5.2-3.5c-1.1-0.8-2.9-0.1-2.3,1c0.5,1,1.3,2,2.3,2.9c-1,0.2-1.9,0.5-2.8,0.8 C598.8,572.7,599.7,574.1,600.9,574.2z"/>
    <path fill="#57BFB2" d="M682.5,630.2c0.3-0.4,0.8-0.8,1.3-1.1c0-0.5-0.1-0.9-0.1-1.4c-0.2-2-2.6-1.9-3.1-0.7 c-2,4.5-3,9.6-4.6,14.3c-2.3-2.7-5.2-4.9-8.1-5.9c-1.2-0.3-2.3,0.7-1.7,1.9c1.7,3.7,4.8,6.8,7.6,9.9l-0.7,1.7l-5.7,2.1 c-2,0.7-4.2,1.2-6.2,2l0.1,2.1c1.1-1.2,2.4-2.2,4-2.8c0.8-0.3,1.3,0.7,0.8,1.3c-1,1.2-1.9,2.6-2.8,4c0.5,0.1,1.1,0.2,1.6,0.4 c1.4-0.3,2.9-0.7,4.4-1.2c-0.4,0.9-0.9,1.7-1.3,2.6c0.9,0.6,1.7,1.5,2.3,2.6c0.6,1.1-0.8,2.7-1.9,1.8c-0.6-0.4-1.3-0.7-2.1-1 c-0.8,2.7,2.8,4.5,4.8,2.1c1.2-1.5,2.3-3.1,3.2-4.7c-0.4-1.3,0.4-2.6,1.7-3.1c0.6-1.1,1.1-2.2,1.6-3.4l0.5-0.2c1,1.7,2,3.4,3,4.9 c2.1,0.9,4.1,1.7,6.3,2.5c0.1-0.2,0.2-0.5,0.2-0.7c0.2-2.7-1.4-6-3.5-8.8c1.2-0.4,2.5-0.9,3.8-1.4c0-1-0.1-2-0.1-3 c0-1.7,1.9-2.2,2.8-0.7c0.4,0.6,0.8,1.3,1.1,2c2.7-1.4,5.1-3.1,6.7-5.4c0.9-1.3-0.3-3.3-1.9-3.1c-5.5,0.5-10.7,3.6-15.7,6 c1.4-3.8,2.7-8.1,3-12.5C682.6,632.7,681.7,631.1,682.5,630.2z"/>
    <path fill="#57BFB2" d="M649.2,639.4c0.2-0.9,0.4-1.9,0.6-2.8c-0.9-0.4-2-0.7-3.1-1c-1.8,0.9-3.7,1.6-5.4,1.9 c-1.9,0.3-3.1-2.2-1.7-3.7c0.9-1,2-1.8,3.1-2.6c0.5-1.5,1.1-3.1,1.7-4.6c0.5-1.3-1.1-2.2-2-1.2c-1.8,2-2.9,4.4-3.8,6.9 c-1.3-1.4-2.8-2.5-4.5-3.1c-1-0.3-2.5,0.8-1.9,2c0.6,1.1,1.2,2.2,1.9,3.1c-2.8,0-5.6,0.5-8,2c-0.9,0.5-0.9,1.9,0.2,1.9 c2.5,0.1,5.1,0.2,7.7,0.5c-2.7,2.1-5.3,4.6-6.1,7.3c-0.3,1.1,0.5,2.2,1.6,1.9c2.1-0.6,4.2-2.2,6.2-3.9c-0.2,1.2-0.3,2.3-0.2,3.3 c0.1,2,2.6,2.1,3.4,0.1c0.6-1.4,1-2.9,1.3-4.5c1.5,2,3,4,5,4.9c1.8,0.9,4.7-1,3.6-3.2c-0.6-1.1-1.4-2.1-2.2-3.1 c1.1,0.3,2.2,0.5,3.2,0.5C649.2,641.3,648.9,640.5,649.2,639.4z"/>
    <path fill="#57BFB2" d="M667.2,622c0.9,1.3,3.1,1.6,3.4-0.2c0.1-0.8,0.2-1.6,0.2-2.5c2.2,2.3,4.7,4.1,7.4,4.7 c0.9,0.2,1.4-0.7,0.9-1.6c-1.4-2.5-3.5-4.5-5.5-6.6C672,618.3,669.7,620.3,667.2,622z"/>
    <path fill="#57BFB2" d="M666,613.8c0,0.1,0,0.2,0,0.3c2.1-1.6,4.3-2.9,6.7-3.8c1.5-0.5,3.1,1.1,2.6,2.6c-0.1,0.2-0.2,0.4-0.2,0.6 c2.2,0.1,4.5,0.2,6.8,0.2c1.3,0,0.9-1.9-0.2-2.3c-3.5-1.5-7-2.1-10.5-2.3c0.5-2.4,1.5-4.7,3-6.6c0.7-0.8-0.6-2.1-1.5-1.7 c-2.6,1-4.3,3.6-5.4,6.6l-3.4-5.5c-0.9-1.3-2.9-0.7-2.5,0.6c0.5,1.8,1.3,4.1,2.4,6.4c-1.8,0.1-3.5,0.6-4.5,1.7 c0,0.7,0.1,1.5,0.1,2.2C661.3,614.2,663.8,614,666,613.8z"/>
    <path fill="#57BFB2" d="M715,711.1c-0.1,0.9-1.1,1.3-1.7,0.7c-1.8-2.1-2.6-5-3-8.2c-0.5,0.7-1,1.3-1.6,1.9 c-1.4,1.4-3.3-0.8-2.7-2.5c0.4-1.2,1-2.4,1.7-3.6c-1.3-1-2.6-1.9-3.7-2.6l-0.7-0.5c1.2-0.7,2.3-1.4,3.5-2.2 c-0.8-0.8-1.4-1.6-1.7-2.8c-0.1-0.5,0.1-1.1,0.5-1.4c1.6-0.8,3.5-0.1,5.4,1.1c0.3-1.6,0.7-3.2,1.1-4.5c0,0-0.1,0-0.1,0 c-2.4,0-4.7,0.7-6.8,1.7c0.5-3.1,0.4-6.3-0.6-9.2c-0.6-1.7-2.5-1.7-2.9-0.1c-0.9,4.5-1.8,8.9-3.2,13.1l-0.5,0.3 c-2.8-1.9-5.4-3.8-8-5.9c-2.4-1.9-5.8,0.4-4.2,3.3c1.1,2.3,3.6,4.1,6,5.8c-1.7,0.8-3.3,1.7-4.7,2.7c0.4,0.1,0.8,0.3,1.2,0.5 c1.3,0.6,1.2,2.6-0.2,2.8c-1.3,0.2-2.6,0.2-4,0.3c0.1,0.9,0.9,1.7,1.7,1.9c2.7,0.6,5.7-0.4,8.4-2c-1.2,2.4-2.1,4.7-2.7,7.2 c-0.5,2.6,2.7,4.2,4.3,2.2c2.1-2.6,3.7-5.9,5.1-9.3c2,1.5,4.2,3.1,6.2,4.8c2,1.7,4.2,4.2,6.5,5.4c1.5,0.8,3-0.7,2.5-2.7 c-0.2-0.9-0.6-1.7-1.1-2.6C715.2,708.2,715.2,709.6,715,711.1z"/>
    <path fill="#57BFB2" d="M665.8,695c0.5,1.1,1.7,1.2,2.7,0.8c-1-1-2.1-1.9-3.2-2.8C665.4,693.8,665.6,694.4,665.8,695z"/>
    <path fill="#57BFB2" d="M664.6,690c0.2,0,0.4,0.1,0.6,0.1c0.2-0.1,0.4-0.1,0.6-0.2c0,0.1,0,0.2-0.1,0.3c1.8,0.4,3.5,1.2,5.1,2.2 c0.2-0.9,0.3-1.8,0.5-2.6c0.2-1,0.5-1.9,0.9-2.9c2.4,0.8,5.1,1.9,6.6,3.7c0.9,1.1,2.6-0.1,2.3-1.3c-0.7-3-3.1-4.7-5.7-5.9 c1.2-1.1,2.4-2.2,3.7-3.2c0.6-0.5,0.3-1.5-0.5-1.4c-1.7,0.2-3.2,0.8-4.6,1.7l0.6-2.9c0.1-0.7,0.2-1.4,0.3-2.2 c0-0.3,0-0.5-0.1-0.8l-0.1-0.1l0,0c0.4-1.3-1.5-2-2-0.8c-0.3,0.6-1.4,1.9-1.9,2.9c-0.7,1.5-1.3,3-1.8,4.5l-1.6-0.4 c-1.8-0.4-3.8-1.3-5.6-0.5c-0.9,0.4-1.8,1.6-1.3,2.4c1.1,1.7,3.8,2.3,6.4,2.9c-1.3,0.8-2.7,1.5-4.3,2.1c-1.9,0.7-1.7,3.4,0.5,3.1 c0.1,0,0.2-0.1,0.4-0.1C663.7,690.2,664.1,689.9,664.6,690z"/>
    <path fill="#57BFB2" d="M701.6,656.5c0.9,1.4,1.9,2.6,2.9,3.9c-1.4,0-2.7,0.3-3.6,1c-1,0.8-0.5,2.7,0.6,3.4 c1.3,0.8,2.8,0.8,4.3,0.7c0.3,1.6,0.8,3,1.3,4.4c0.8,2.5,3.9,2,3.6-0.6l-0.1-0.6c1.1,1.6,2.3,2.9,4,3.8c0.5,0.3,1.2,0,1.1-0.8 c-0.5-2.6-1.6-4.6-3.1-6.6c0.5-0.1,0.9-0.1,1.3,0c1.4,0.6,2.1-1.5,0.7-2.3c-1.8-1-3.4-1.6-5.2-2l-0.6-0.8 c-0.4-2.1-0.5-4.1-0.5-6.3c0-1.3-1.7-2.3-2.2-1.1c-0.5,1.1-0.8,2.3-0.9,3.6c-0.8-0.7-1.5-1.2-2.4-1.7 C701.6,653.9,701,655.5,701.6,656.5z"/>
    <path fill="#57BFB2" d="M708.9,755.2c0.5,0,1,0.1,1.5,0.3c0.3-0.3,0.7-0.6,1-0.9c1.4-1.4-0.1-3.2-1.4-2.9 c-4.7,1.3-9.4,3.6-14.1,5.3c0.6-3.5,0.6-7.1-0.4-10c-0.5-1.1-1.9-1.4-2.5-0.2c-1.8,3.6-2.3,8-3,12.1l-1.8,0.5l-5.2-3.1 c-1.8-1.1-3.6-2.5-5.4-3.6L676,754c1.6,0.1,3.2,0.5,4.7,1.4c0.7,0.4,0.3,1.4-0.5,1.4c-1.6,0-3.2,0.2-4.8,0.3 c0.3,0.5,0.5,1.1,0.8,1.7c1.1,0.9,2.3,1.7,3.5,2.5c-0.9,0.2-1.8,0.4-2.7,0.5c0.1,1.1-0.1,2.3-0.6,3.4c-0.5,1.2-2.6,1-2.6-0.4 c-0.1-0.7-0.2-1.5-0.5-2.3c-2.7,1-2,5,1.3,5.1c2,0,3.9-0.2,5.9-0.4c0.8-1.1,2.3-1.3,3.4-0.6c1.2-0.2,2.3-0.5,3.5-0.8l0.5,0.3 c-0.7,1.7-1.4,3.5-1.9,5.2c0.6,2.2,1.3,4.5,2.1,6.7c0.2-0.1,0.4-0.2,0.5-0.3c2.3-1.5,3.8-4.9,4.7-8.3c1.1,0.7,2.3,1.4,3.5,2.1 c0.8-0.7,1.6-1.4,2.4-2c1.3-1.1,2.9,0.1,2.3,1.8c-0.2,0.8-0.5,1.5-0.9,2.2c2.7,1.2,5.5,2,8.3,1.8c1.6-0.1,2.4-2.3,1.3-3.4 c-3.8-4-9.5-6.2-14.5-8.6c3.9-1.3,8.1-3,11.8-5.5C707,756.8,707.7,755.2,708.9,755.2z"/>
    <path fill="#57BFB2" d="M680.9,734.9c0.8-0.4,1.6-0.8,2.4-1.2c-0.3-1.1-0.7-2.1-1.2-3.2c-1.8-0.8-3.4-1.8-4.6-3 c-1.4-1.3-0.2-3.8,1.8-3.7c1.3,0.1,2.6,0.4,3.9,0.9c1.5-0.5,3-1.1,4.5-1.5c1.3-0.4,1.1-2.2-0.2-2.3c-2.7-0.2-5.3,0.5-7.8,1.3 c0.3-1.9,0.3-3.8-0.4-5.4c-0.4-1-2.2-1.5-2.7-0.3c-0.5,1.1-0.9,2.3-1.2,3.5c-1.8-2.2-4-4.1-6.5-5c-0.9-0.3-2,0.5-1.4,1.3 c1.5,2,3.1,4.1,4.4,6.3c-3.3-0.8-6.9-1.3-9.5-0.2c-1,0.4-1.4,1.8-0.4,2.4c1.8,1.2,4.3,1.9,6.9,2.4c-1,0.6-1.9,1.2-2.7,1.9 c-1.4,1.3-0.1,3.3,2,2.7c1.5-0.4,3-1,4.3-1.8c-0.7,2.4-1.3,4.9-0.7,7c0.4,2,3.8,3.1,4.8,0.8c0.5-1.1,0.8-2.4,1.1-3.6 c0.5,1.1,1.1,2.1,1.8,2.9C679.4,736.2,679.9,735.4,680.9,734.9z"/>
    <path fill="#57BFB2" d="M705.6,738.2c-0.4,1.5,0.7,3.5,2.3,2.6c0.7-0.4,1.4-0.9,2-1.4c-0.4,3.2-0.4,6.2,0.9,8.7 c0.4,0.8,1.5,0.6,1.8-0.2c1.1-2.6,1.3-5.5,1.7-8.3C711.5,739.6,708.5,739,705.6,738.2z"/>
    <path fill="#57BFB2" d="M725.6,729.2c-2.3-1.4-5.5-1.2-8.6-0.1c0.8-2,1.4-4,2.1-6.1c0.5-1.5-1.2-2.7-2.1-1.6 c-1.2,1.5-2.4,3.6-3.4,5.9c-1.2-1.3-2.6-2.3-4-2.5c-0.6,0.5-1.2,1.1-1.8,1.5c0.1,2.3,1.7,4.1,3.4,5.7c-0.1,0.1-0.1,0.1-0.2,0.2 c2.6,0.7,5.1,1.5,7.3,2.9c1.4,0.9,1.1,3.1-0.4,3.6c-0.2,0.1-0.5,0.1-0.7,0.2c1.3,1.8,2.7,3.6,4,5.4c0.7,1,2-0.5,1.7-1.6 c-1.1-3.7-2.7-6.8-4.8-9.6c2.2-1.1,4.6-1.7,7-1.7C726.3,731.4,726.5,729.7,725.6,729.2z"/>
    <path fill="#57BFB2" d="M664.4,830.2c0.6-2.7,2.2-5.2,4.6-7.5c-0.8,0-1.7,0-2.5-0.1c-2-0.3-1.4-3,0.3-3.7 c1.1-0.5,2.4-0.8,3.7-0.9c-0.1-1.7-0.2-3.2-0.2-4.5l0-0.8c1.3,0.5,2.7,1,4,1.4c0.1-1.1,0.4-2.2,1.1-3.1c0.3-0.4,1-0.6,1.4-0.4 c1.6,0.7,2.2,2.7,2.5,4.9c1.5-0.7,2.8-1.4,4.1-1.9c0,0-0.1-0.1-0.1-0.1c-1.5-1.9-3.5-3.2-5.6-4.2c2.7-1.5,5.2-3.6,6.8-6.2 c1-1.5-0.2-3.1-1.8-2.3c-4.1,2.1-8.1,4.1-12.3,5.7l-0.6-0.2c-0.2-3.3-0.4-6.6-0.4-9.9c0-3.1-4-4.3-5.3-1.2c-1,2.3-1,5.3-0.8,8.3 c-1.6-0.7-3.2-1.4-4.8-1.9c0.1,0.4,0.3,0.8,0.4,1.2c0.4,1.4-1.3,2.5-2.4,1.5c-1-0.9-1.9-2-2.7-3c-0.7,0.6-0.9,1.8-0.5,2.6 c1.2,2.5,3.9,4.1,6.8,5.3c-2.6,0.6-5,1.3-7.2,2.4c-2.3,1.2-1.5,4.8,1,4.8c3.2,0,7-0.8,10.4-1.9c0.1,2.6,0.1,5.2,0.1,7.8 c0,2.6-0.6,6-0.2,8.5c0.3,1.6,2.5,2,3.7,0.3c0.5-0.7,0.9-1.5,1.2-2.3c-1,0.9-2,1.7-3.2,2.4C665.1,831.6,664.2,831,664.4,830.2z"/>
    <path fill="#57BFB2" d="M647.6,782.6c-0.6,1.1,0.2,2.2,1.3,2.7c0.1-1.5,0.2-3,0.2-4.4C648.5,781.4,648,782,647.6,782.6z"/>
    <path fill="#57BFB2" d="M651,778.5c0.1,0.2,0.2,0.4,0.3,0.6c0.1,0.1,0.2,0.2,0.3,0.2c-0.1,0-0.1,0.1-0.2,0.1 c0.8,1.6,1.3,3.4,1.5,5.3c0.7-0.4,1.5-0.8,2.2-1.2l2.8-1.1c0.9,2.4,1.6,5.2,1.2,7.5c-0.3,1.4,1.7,2,2.5,1 c1.9-2.4,1.8-5.3,1.1-8.2c1.6,0.3,3.2,0.5,4.8,0.9c0.7,0.2,1.4-0.7,0.8-1.3c-1.2-1.2-2.6-2-4.2-2.5l2.6-1.3 c0.6-0.3,1.2-0.7,1.8-1.1c0.2-0.1,0.4-0.3,0.6-0.6l0.1-0.1l0,0c1.3-0.5,0.7-2.4-0.6-2c-0.7,0.2-2.3,0-3.5,0.3 c-1.6,0.4-3.1,0.9-4.6,1.4l-0.7-1.5c-0.8-1.7-1.3-3.8-3.1-4.7c-0.9-0.5-2.4-0.4-2.7,0.5c-0.7,1.9,0.6,4.4,1.7,6.8 c-1.5-0.6-2.9-1.2-4.4-2.1c-1.7-1-3.7,0.8-2.1,2.3c0.1,0.1,0.2,0.2,0.4,0.3C650.2,777.9,650.7,778.1,651,778.5z"/>
    <path fill="#57BFB2" d="M695.7,801.7l0.4-0.4c-0.5,1.8-0.8,3.7-0.5,5.5c0.1,0.6,0.8,1,1.3,0.3c1.7-2,2.6-4.2,3.2-6.5 c0.3,0.3,0.7,0.7,0.8,1c0.4,1.5,2.5,0.7,2.2-0.9c-0.3-2-0.9-3.7-1.7-5.3l0.2-0.9c1.4-1.6,2.9-3,4.6-4.3c1-0.9,0.8-2.8-0.5-2.4 c-1.1,0.3-2.3,0.8-3.4,1.5c0-1,0-2-0.1-2.9c-0.2-1.3-1.8-0.8-2.2,0.4c-0.5,1.5-0.9,3.1-1.3,4.7c-0.9-1-1.9-1.9-3-2.2 c-1.2-0.3-2.4,1.3-2.2,2.6c0.2,1.4,1.1,2.7,2.1,3.8c-1,1.2-1.9,2.5-2.7,3.7c-0.1,0.1-0.1,0.2-0.2,0.3c0,0.5-0.1,1-0.2,1.4 C692.8,802.3,694.4,803,695.7,801.7z"/>
    <path fill="#57BFB2" d="M627.6,853.8c0.3,0.4,0.6,0.9,0.7,1.5c0.4,0.1,0.8,0.1,1.2,0.2c2,0.3,2.4-2.2,1.4-2.9 c-3.9-2.9-8.7-5.2-13-7.7c3.1-1.8,6-3.9,7.5-6.6c0.6-1.1-0.1-2.4-1.4-2.1c-3.9,0.8-7.7,3.3-11.4,5.2l-1.4-1.1l-0.8-6.1 c-0.2-2.1-0.2-4.4-0.6-6.5l-1.8-0.4c0.9,1.4,1.6,2.8,1.8,4.5c0.1,0.8-0.9,1.1-1.4,0.6c-1-1.2-2.1-2.3-3.2-3.6 c-0.3,0.6-0.6,1.3-1,1.9c0,1.3,0.1,2.7,0.2,4l-2-1.7c-0.8,0.7-1.8,1.3-3,1.6c-1.2,0.3-2.4-1.4-1.4-2.3c0.5-0.5,1-1,1.4-1.7 c-2.6-1.7-5.3,1.5-3.3,4.1c1.2,1.5,2.5,2.9,4,4.3c1.5-0.1,2.7,1.1,2.8,2.5c0.9,0.7,1.8,1.4,2.7,2.1l0.1,0.5 c-1.7,0.5-3.5,1.1-5.1,1.7c-1.4,1.9-2.7,3.9-4,5.8l0.1,0.1c0.1,0.1,0.2,0.1,0.4,0.2c2.6,0.9,6.1-0.1,9.4-1.4 c0.1,1.3,0.3,2.7,0.5,4c1.1,0.2,2.1,0.4,3.2,0.6c1.7,0.3,1.7,2.3,0,2.9c-0.8,0.3-1.6,0.5-2.4,0.7c0.7,2.9,1.8,5.6,3.7,7.6 c1.1,1.1,3.2,0.4,3.5-1.2c0.8-5.4-1.1-11.2-2.3-16.6c3.5,2.2,7.4,4.5,11.7,5.8C625.1,853.3,626.8,852.8,627.6,853.8z"/>
    <path fill="#57BFB2" d="M626,819.3l2.3,1.1c0.7-0.9,1.2-1.9,1.7-3c0.1,0.1,0.1,0.3,0.2,0.4c-0.5-2-0.7-4-0.6-5.8 c0.1-2,2.9-2.5,4-0.8c0.8,1.1,1.3,2.4,1.8,3.7c1.3,0.8,2.6,1.7,3.8,2.5c1.1,0.8,2.4-0.6,1.6-1.7c-1.5-2.2-3.6-3.8-5.9-5.2 c1.6-1,3.2-2.1,4-3.7c0.5-0.9-0.2-2.6-1.5-2.3c-1.2,0.4-2.3,0.8-3.5,1.2c0.6-2.7,0.7-5.6-0.2-8.2c-0.3-0.9-1.7-1.3-1.9-0.3 c-0.5,2.5-1.3,4.9-2.1,7.4c-1.4-3.1-3.3-6.2-5.8-7.6c-0.9-0.5-2.3,0-2.2,1.1c0.1,2.2,1.2,4.6,2.4,6.9c-1.1-0.4-2.2-0.7-3.2-0.9 c-2-0.4-2.6,2-0.9,3.3c1.2,0.9,2.6,1.6,4.1,2.2c-2.3,1-4.6,2.1-5.9,3.8c-1.2,1.6,0,4.9,2.4,4.2c1.2-0.4,2.4-0.8,3.6-1.4 c-0.6,1.1-1,2.2-1.2,3.3C623.9,818.9,624.9,818.7,626,819.3z"/>
    <path fill="#57BFB2" d="M638.1,844c0.8,0.3,1.6,0.5,2.4,0.7c-2.8,1.6-5.1,3.7-6.3,6.1c-0.4,0.8,0.4,1.5,1.3,1.3 c2.7-0.8,5.2-2.4,7.7-3.9c-1.8-2.1-3.2-4.8-4.4-7.6C637.3,841.2,636.4,843.3,638.1,844z"/>
    <path fill="#57BFB2" d="M647.1,841.4C647,841.4,647,841.4,647.1,841.4c1,2.4,1.9,4.9,2.1,7.4c0.2,1.6-1.7,2.8-3.1,2 c-0.3-0.2-0.5-0.3-0.7-0.5c-0.5,2.2-1.2,4.4-1.7,6.5c-0.3,1.2,1.6,1.3,2.3,0.3c2.3-3.1,3.6-6.5,4.5-9.7c2.3,1.1,4.2,2.5,5.7,4.4 c0.6,0.8,2.1-0.1,2-1.1c-0.4-2.7-2.5-5-5.3-6.7c2-0.7,4.1-1.3,6.1-2.1c1.5-0.6,1.3-2.6-0.1-2.6c-1.9,0-4.2,0.4-6.7,1 c0.3-1.8,0.2-3.5-0.6-4.6c-0.8-0.1-1.5-0.3-2.3-0.4C647.6,836.6,647.3,839.1,647.1,841.4z"/>
    <path fill="#57BFB2" d="M575.6,861.7c-4.2-1.9-8.3-3.7-12.1-6.1l-0.2-0.6c2.5-2.2,4.9-4.5,7.5-6.4c2.4-1.8,0.9-5.8-2.3-4.9 c-2.4,0.7-4.8,2.5-7,4.6c-0.4-1.7-0.9-3.3-1.4-4.8c-0.2,0.3-0.4,0.6-0.6,0.9c-0.8,1.1-2.8,0.5-2.7-0.9c0.1-1.3,0.4-2.7,0.7-4 c-0.9-0.3-2.1,0.4-2.5,1.3c-1.2,2.5-0.8,5.6,0.1,8.6c-2.1-1.6-4.1-3.2-6.4-4.2c-2.4-1-4.7,1.7-3.2,3.8c2,2.5,4.9,4.9,8,7 c-2,1.7-4,3.3-6.1,4.9c-2.1,1.7-5,3.3-6.7,5.2c-1.1,1.2,0,3.1,2.1,3.1c0.9,0,1.8-0.2,2.6-0.5c-1.3-0.2-2.6-0.5-3.9-1 c-0.9-0.3-1-1.4-0.3-1.8c2.4-1.2,5.5-1.5,8.7-1.1c-0.5-0.7-1-1.3-1.5-2c-1-1.7,1.5-3,3.1-2c1,0.6,2,1.3,3,2.2 c1.2-1.1,2.4-2.1,3.3-2.9l0.6-0.5c0.5,1.4,0.9,2.7,1.4,4.1c0.9-0.7,2-1.1,3.2-1.1c0.5,0,1.1,0.4,1.2,0.8c0.5,1.7-0.7,3.4-2.3,5 c1.4,0.7,2.8,1.3,3.9,2c0,0,0-0.1,0-0.1c0.5-2.4,0.3-4.7-0.2-7c2.9,1,6,1.8,9.1,1.5C576.6,864.3,577.1,862.4,575.6,861.7z"/>
    <path fill="#57BFB2" d="M567.8,823c-1.3,0.2-1.6,1.6-1.3,2.8c1.3-0.9,2.5-1.8,3.7-2.7C569.4,822.9,568.6,822.8,567.8,823z"/>
    <path fill="#57BFB2" d="M573.3,823.1c-0.1,0.3-0.2,0.6-0.4,0.9c0,0,0,0.1,0,0.1c0,0,0,0,0,0c-0.7,1.7-1.9,3.2-3.2,4.5 c0.7,0.3,1.5,0.6,2.2,1c0.9,0.4,1.7,0.9,2.6,1.4c-1.3,2.2-3,4.6-5.1,5.6c-1.3,0.7-0.5,2.5,0.8,2.6c3.1,0.1,5.3-2.1,7.1-4.2 c0.8,1.5,1.6,2.8,2.3,4.2c0.3,0.7,1.4,0.6,1.5-0.2c0.2-1.7-0.1-3.3-0.6-4.8l2.7,1.3c0.7,0.3,1.3,0.5,2,0.7 c0.3,0.1,0.5,0.1,0.8,0.1l0.2,0l0,0c1.2,0.7,2.3-0.9,1.2-1.8c-0.6-0.4-1.5-1.8-2.4-2.5c-1.3-1-2.6-1.8-3.9-2.7l0.8-1.4 c0.8-1.6,2.1-3.4,1.7-5.4c-0.2-1-1.1-2.1-2.1-1.8c-2,0.5-3.1,3.2-4.2,5.6c-0.5-1.5-0.8-3-1.1-4.7c-0.3-2-3-2.5-3.1-0.3 c0,0.1,0,0.2,0,0.4C573.2,821.9,573.4,822.5,573.3,823.1z"/>
    <path fill="#57BFB2" d="M582.9,872.5l0.6,0c-1.8,0.8-3.4,1.6-4.6,3c-0.4,0.4-0.3,1.2,0.5,1.2c2.6,0.2,4.9-0.6,7.1-1.5 c0,0.5-0.1,0.9-0.3,1.2c-0.9,1.2,1,2.4,2.1,1.2c1.4-1.4,2.3-2.9,3.1-4.6l0.9-0.4c2.1,0.1,4.2,0.6,6.2,0.9 c1.3,0.2,2.6-1.2,1.6-1.9c-0.9-0.7-2.1-1.2-3.3-1.6c0.8-0.6,1.6-1.3,2.2-2c0.9-1-0.5-1.9-1.7-1.5c-1.5,0.6-3,1.2-4.4,1.9 c0.3-1.3,0.3-2.7-0.2-3.7c-0.5-1.2-2.5-1.1-3.4-0.1c-1,1.1-1.4,2.6-1.7,4c-1.6,0-3.2,0-4.6,0.2c0,0,0,0,0,0 c-0.5,0.4-1.1,0.7-1.7,0.9C580.7,870.8,581.2,872.3,582.9,872.5z"/>
    <path fill="#57BFB2" d="M499.9,851.7c-0.1,0.6-0.4,1.1-0.8,1.6c0.2,0.3,0.3,0.6,0.5,0.9c1,1.7,3.2,0.6,3.1-0.7 c-0.2-4.9-1.4-10-2.1-14.9c3.3,1.3,6.8,2.3,9.9,1.8c1.2-0.2,1.8-1.6,0.7-2.4c-3.1-2.5-7.3-4-11.1-5.7l-0.1-1.8l4.2-4.4 c1.6-1.6,3.3-3,4.8-4.6l-0.8-1.6c-0.5,1.5-1.2,3-2.4,4.2c-0.6,0.6-1.5,0-1.3-0.7c0.3-1.5,0.6-3.2,0.8-4.8 c-0.7,0.2-1.5,0.3-2.2,0.4c-1,0.8-2,1.7-3,2.7l0.1-2.7c-1-0.2-2-0.6-3-1.3c-1-0.8-0.5-2.7,0.9-2.5c0.7,0.1,1.4,0.1,2.1,0 c-0.2-3.1-4.5-3.2-5.2,0c-0.4,1.8-0.7,3.7-0.8,5.7c1.2,1.1,1,3-0.2,4c0,1.1,0,2.2,0,3.3l-0.4,0.4c-1.4-1-2.9-2-4.4-2.8 c-2.3,0.1-4.7,0.3-7,0.5l-0.1,0.3c0,0.1,0,0.1,0,0.2c0.9,2.6,3.9,4.7,7,6.4c-0.9,0.9-1.8,1.8-2.7,2.8c0.5,1,1.1,2,1.6,3 c0.8,1.5-0.7,2.8-2.3,1.8c-0.7-0.5-1.4-1-2.1-1.6c-1.8,2.4-3.3,5-3.7,7.8c-0.2,1.6,1.7,2.8,3.1,2c4.7-2.8,8.1-7.8,11.5-12.1 c0.4,4.1,1.1,8.6,2.8,12.8C498.5,849.4,500.2,850.5,499.9,851.7z"/>
    <path fill="#57BFB2" d="M525.9,829l0.6,2.5c1.1-0.1,2.2-0.2,3.3-0.5c-0.2,0.4-0.4,0.7-0.6,1.1c1.4-1.9,3-3.6,4.7-4.8 c1.6-1.2,3.7,0.7,3.2,2.6c-0.4,1.4-1.1,2.7-1.9,4c0.2,1.4,0.3,2.9,0.4,4.4c0.1,1.3,1.9,1.5,2.3,0.2c0.8-2.6,0.7-5.2,0.4-7.8 c1.8,0.6,3.6,1.1,5.4,0.8c1.1-0.2,1.9-1.9,0.8-2.6c-1-0.7-2-1.4-3.1-2c2.5-1.2,4.8-2.9,6.3-5.3c0.5-0.8-0.1-2.1-1-1.7 c-2.3,1.2-4.6,2-7.1,3c1.5-3.1,2.8-6.5,2.3-9.2c-0.2-1.1-1.4-1.8-2.2-1c-1.6,1.5-2.8,3.8-3.9,6.2c-0.4-1.1-0.8-2.2-1.2-3.1 c-0.9-1.8-3.2-0.7-3.1,1.4c0.1,1.5,0.4,3.1,0.8,4.6c-2.2-1.2-4.5-2.3-6.6-2.3c-2.1,0-3.8,3-1.8,4.5c1,0.7,2.1,1.3,3.3,1.9 c-1.2,0.2-2.3,0.5-3.2,1C524.8,827,525.6,827.7,525.9,829z"/>
    <path fill="#57BFB2" d="M521.6,859.1c-1.2,2.3-2.6,4.5-4.4,6.3c-1.1,1.1-3.3,0.4-3.5-1.2c0-0.3,0-0.6-0.1-0.9 c-2.1,1-4.2,1.9-6.4,2.8c-1.1,0.5,0,2.1,1.2,2c3.8-0.1,7.3-1.2,10.5-2.5c0.6,2.5,0.7,4.9,0.1,7.2c-0.2,1,1.4,1.6,2.1,0.9 c1.9-2,2.4-5.1,2-8.3c1.8,1.1,3.6,2.4,5.4,3.5c1.4,0.8,2.9-0.6,2-1.7c-1.2-1.4-3-3-5-4.7c1.6-0.9,3-2.1,3.3-3.5 c-0.3-0.6-0.6-1.2-1-1.8C525.8,856.6,523.6,857.9,521.6,859.1z"/>
    <path fill="#57BFB2" d="M513.9,853.9c0.2,0.8,0.6,1.5,0.9,2.3c-3-1.2-6-1.7-8.7-1.1c-0.8,0.2-1,1.3-0.2,1.8 c2.4,1.7,5.2,2.6,8,3.6c0.5-2.7,1.7-5.5,3.2-8.1C515.7,851.4,513.3,852.1,513.9,853.9z"/>
    <path fill="#57BFB2" d="M436.6,791.6c2.6,1.1,4.5,3.4,6.3,6.1c0.2-0.8,0.4-1.6,0.6-2.4c0.7-1.8,3.3-0.7,3.6,1.1 c0.2,1.2,0.2,2.5,0.1,3.8c1.6,0.3,3,0.5,4.2,0.7l0.8,0.1c-0.8,1.2-1.5,2.4-2.3,3.6c1.1,0.3,2.2,0.9,3,1.8 c0.4,0.4,0.4,1.1,0.1,1.5c-1,1.4-3.1,1.6-5.3,1.3c0.4,1.5,0.7,2.9,0.9,4.3c2.1-1.1,3.8-2.7,5.3-4.5c0.9,3,2.4,5.8,4.5,8.1 c1.3,1.3,3.1,0.4,2.7-1.2c-1.1-4.5-2.2-8.8-2.8-13.2l0.3-0.5c3.3,0.5,6.5,1.1,9.7,1.8c2.9,0.7,5.1-3,2.3-4.8 c-2-1.5-4.9-2.2-7.9-2.6c1-1.4,2.1-2.7,2.9-4.1c-0.3,0-0.6,0.1-0.9,0.1c-1.4,0.1-2.2-1.8-1-2.6c1.1-0.7,2.3-1.4,3.5-1.9 c-0.4-0.9-1.6-1.5-2.6-1.2c-2.7,0.6-4.9,2.9-6.7,5.4c0.1-2.7-0.1-5.2-0.7-7.6c-0.6-2.5-4.3-2.6-4.9-0.1 c-0.8,3.2-0.8,6.9-0.5,10.6c-2.5-0.5-5.1-1-7.7-1.6c-2.5-0.6-5.6-2-8.2-2.1c-1.6-0.1-2.4,1.9-1.1,3.5c0.6,0.7,1.4,1.4,2.2,1.9 c-0.7-1.2-1.3-2.5-1.7-3.8C435.1,792.1,435.8,791.3,436.6,791.6z"/>
    <path fill="#57BFB2" d="M489.9,790.1c-2.1,0.7-4.4,0.8-6.7,0.6c0.2,0.8,0.4,1.5,0.6,2.3l0.5,2.9c-2.6,0.4-5.4,0.5-7.6-0.4 c-1.3-0.6-2.3,1.2-1.5,2.2c1.9,2.4,4.9,2.9,7.7,2.9c-0.6,1.5-1.2,3.1-1.9,4.5c-0.3,0.7,0.4,1.5,1.1,1c1.5-0.9,2.5-2.1,3.4-3.5 l0.6,2.9c0.2,0.7,0.4,1.4,0.7,2.1c0.1,0.3,0.2,0.5,0.4,0.7l0.1,0.1v0c0.2,1.4,2.2,1.2,2.1-0.2c0-0.7,0.5-2.3,0.5-3.4 c-0.1-1.6-0.1-3.2-0.3-4.8l1.6-0.3c1.8-0.3,4-0.4,5.3-2c0.7-0.8,0.9-2.2,0.1-2.8c-1.6-1.2-4.5-0.4-7,0.2c0.9-1.3,1.8-2.5,3-3.8 c1.3-1.5,0-3.9-1.8-2.6c-0.1,0-0.1,0.1-0.2,0.1C490.9,789.2,490.6,789.9,489.9,790.1z"/>
    <path fill="#57BFB2" d="M486.5,785.8c-1-0.9-2.2-0.3-3,0.7c1.4,0.5,2.9,0.9,4.4,1.2C487.5,786.9,487.1,786.3,486.5,785.8z"/>
    <path fill="#57BFB2" d="M457.2,828.5l0.3,0.5c-1.7-0.9-3.4-1.6-5.2-1.7c-0.6,0-1.1,0.5-0.6,1.2c1.5,2.1,3.5,3.5,5.6,4.6 c-0.4,0.3-0.8,0.5-1.2,0.5c-1.5,0-1.2,2.3,0.4,2.4c2,0.2,3.7,0,5.5-0.5l0.9,0.4c1.3,1.7,2.2,3.6,3.2,5.5c0.6,1.2,2.6,1.3,2.5,0 c0-1.2-0.3-2.4-0.8-3.6c0.9,0.3,1.9,0.4,2.9,0.5c1.3,0.1,1.2-1.6,0.1-2.2c-1.4-0.8-2.8-1.6-4.2-2.3c1.2-0.6,2.3-1.4,2.8-2.5 c0.6-1.2-0.7-2.6-2-2.7c-1.5-0.1-2.8,0.5-4.2,1.2c-1-1.3-2-2.4-3-3.4c-0.1-0.1-0.1-0.1-0.2-0.2c-0.5-0.2-0.9-0.4-1.4-0.6 C457.3,825.5,456.3,826.9,457.2,828.5z"/>
    <path fill="#57BFB2" d="M421.8,750.6c-0.6,0.3-1.2,0.4-1.9,0.4c-0.1,0.3-0.3,0.6-0.4,0.9c-0.6,1.9,1.5,2.9,2.5,2 c3.7-3.2,6.9-7.3,10.4-10.9c1,3.4,2.5,6.7,4.7,8.8c0.9,0.8,2.3,0.4,2.4-0.9c0.1-4-1.4-8.2-2.5-12.2l1.4-1.2l6,0.6 c2.2,0.3,4.5,0.8,6.7,0.9l0.7-1.6c-1.5,0.6-3.1,0.9-4.8,0.8c-0.8-0.1-0.9-1.2-0.2-1.5c1.4-0.7,2.8-1.5,4.2-2.4 c-0.6-0.4-1.1-0.9-1.7-1.4c-1.3-0.3-2.8-0.6-4.2-0.8c0.8-0.6,1.5-1.1,2.3-1.7c-0.5-0.9-0.8-1.9-0.8-3.1c0-1.3,1.8-2.1,2.5-0.8 c0.3,0.6,0.8,1.1,1.2,1.6c2-2.1-0.3-5.4-3.3-4c-1.7,0.8-3.3,1.7-4.9,2.8c0,1.7-1.7,2.7-3.3,2.4c-0.9,0.7-1.7,1.4-2.6,2.1l-0.5,0 c-0.2-1.8-0.3-3.7-0.6-5.4c-1.5-1.7-3-3.3-4.6-5l-0.5,0.2c0,0,0,0-0.1,0.1c-1.4,2.4-1.3,6-0.6,9.5c-1.2-0.1-2.5-0.3-3.8-0.4 c-0.5,1-0.9,2.1-1.4,3.1c-0.7,1.6-2.6,1.2-2.8-0.6c-0.1-0.9-0.1-1.8-0.1-2.7c-3.1,0-6,0.5-8.5,1.9c-1.4,0.8-1.2,3.1,0.3,3.6 c5.2,2,11.2,1.4,16.7,1.5c-3,2.9-6,6.2-8.3,10.1c0,0,0.1,0,0.1,0.1C422.8,748,423,750,421.8,750.6z"/>
    <path fill="#57BFB2" d="M455.9,756.7c-0.6,0.7-1.1,1.4-1.7,2.1c0.7,0.8,1.5,1.5,2.3,2.1c-0.4,0.1-0.8,0.1-1.2,0.2 c2.5-0.1,4.8,0,6.9,0.7c1.9,0.6,1.7,3.4-0.1,4.1c-1.4,0.6-2.9,0.8-4.5,1c-1,1-2,2-3.1,3c-1,0.9,0,2.5,1.2,2 c2.5-1,4.5-2.7,6.4-4.6c0.5,1.8,1.4,3.5,2.7,4.7c0.8,0.7,2.6,0.4,2.6-1c0-1.2-0.2-2.4-0.4-3.6c2.6,1.2,5.3,1.9,8.1,1.7 c1-0.1,1.6-1.4,0.7-1.8c-2.2-1.1-4.5-2.3-6.7-3.7c3.3-0.7,6.8-1.8,8.7-3.9c0.7-0.8,0.5-2.2-0.6-2.4c-2.1-0.3-4.7,0.1-7.2,0.8 c0.6-1,1.2-1.9,1.6-2.9c0.8-1.8-1.3-3-3-1.6c-1.2,1-2.2,2.2-3.1,3.5c-0.3-2.5-1-4.9-2.4-6.6c-1.3-1.6-4.7-1.1-4.6,1.4 c0,1.3,0.3,2.5,0.6,3.8c-0.9-0.7-1.8-1.3-2.6-1.8C456.6,754.8,456.6,755.7,455.9,756.7z"/>
    <path fill="#57BFB2" d="M428.7,762.9c-0.4,0.7-0.8,1.4-1.2,2.1c-1-3.1-2.4-5.8-4.6-7.5c-0.7-0.5-1.6,0-1.5,1 c0.2,2.9,1.3,5.8,2.2,8.6c2.4-1.3,5.4-2.1,8.3-2.6C431.8,762.8,429.8,761.3,428.7,762.9z"/>
    <path fill="#57BFB2" d="M434.4,777.8c0.2-0.5,0.5-1.1,0.7-1.6c0,0,0-0.1,0-0.1c-1-2.2-3.3-3.1-5.5-3.8c-2.6,0.5-5.1,0.8-7.6,0.5 c-1.5-0.2-2.3-2.3-1.2-3.5c0.2-0.2,0.4-0.4,0.6-0.6c-2.1-1.1-4.2-2.2-6.3-3.3c-1.1-0.6-1.6,1.3-0.8,2.2c2.6,2.9,5.4,5,8.5,6.6 c-1.5,2-3.4,3.6-5.6,4.6c-0.9,0.4-0.4,2.1,0.6,2.2c2.7,0.3,5.4-1.3,7.7-3.7c0.2,2.2,0.4,4.2,0.7,6.4c0.2,1.6,2.3,1.9,2.6,0.5 c0.4-1.9,0.6-4.2,0.5-6.8C431.2,778.2,433,778.6,434.4,777.8z"/>
    <path fill="#F6B6AD" d="M421.6,732.7c0.2,1.8,2.2,2.2,2.8,0.6c0.5-1,0.9-2.1,1.4-3.1c1.4-3.1,2.7-6.2,4.4-9.1l0.1,0l0.5-0.2 c1.6,1.7,3.1,3.3,4.6,5c0.7,0.8,1.4,1.6,2,2.4c0.5,0.6,1,0.9,1.6,1c1.6,0.4,3.3-0.6,3.3-2.4c0-0.3,0-0.7-0.2-1.1 c-0.7-2.4-2.6-4.7-4.7-6.9c3-0.8,6-1.8,8.2-3.4c1.3-1,0.5-2.8-0.7-3.4c-2.5-1.1-5.6-0.7-8.6,0.3c1.7-2.1,3-4.2,4-6.5 c1-2.4-1.8-4.6-3.8-3.1c-2.6,2.1-4.8,5-6.8,8.2c-1.7-1.9-3.4-3.9-5.1-6c-1.6-2-3.3-5-5.3-6.6c-1.3-1.1-3.1,0.1-3,2.1 c0,0.7,0.2,1.3,0.3,2c0,0.1,0.1,0.3,0.1,0.4c1.5,5,6.1,9.5,9,12.5l0.5,0.6c-3.5,1.3-7.1,2.6-10.5,4.2c-1.2,0.6-1.5,3.3,0.1,3.6 c2.4,0.4,4.7,0.2,7-0.4c-0.8,2.1-1.3,4.3-1.4,6.5C421.4,730.9,421.5,731.8,421.6,732.7z"/>
    <path fill="#F6B6AD" d="M446.8,727.3c0,1.1,0.3,2.2,0.8,3.1c0.5,0.9,1.2,1.7,1.9,2.5c0.5,0.5,1.1,1,1.7,1.4 c-1.4,0.8-2.8,1.7-4.2,2.4c-0.7,0.3-0.6,1.4,0.2,1.5c1.7,0.2,3.3-0.2,4.8-0.8l-0.7,1.6l-0.5,1.1c-0.3,0.7-0.5,1.4-0.7,2.1 c-0.1,0.3-0.1,0.5-0.1,0.8l0,0.2l0,0c-0.7,1.2,1,2.3,1.8,1.1c0.4-0.6,1.7-1.5,2.4-2.4c1-1.3,1.8-2.7,2.7-4l1.5,0.7 c1.6,0.8,3.4,2.1,5.4,1.6c1-0.2,2.1-1.2,1.8-2.1c-0.7-1.9-3.3-3-5.7-4.1c1.5-0.5,3-0.9,4.7-1.2c2-0.4,2.3-3,0.1-3.1 c-1,0-1.9,0-2.8,0.2c0.9-1.8,1.4-3.5,1-5.1c-0.3-1.9-3.3-1.6-4.3-0.3c-1,1.3-1.4,3-2.1,4.5l-1.4,2.7c-1.6-0.9-3.3-2-4.5-3.3 c-0.5-0.5-0.9-1-1.2-1.6C448.6,725.2,446.7,726,446.8,727.3z"/>
    <path fill="#F6B6AD" d="M415.1,758.1c0.7-1,1.2-2.1,1.6-3.3c0.6,0.8,1.3,1.5,2,2.2c1,0.9,1.9-0.6,1.4-1.7c-0.6-1.5-1.3-2.9-2-4.4 c0.6,0.1,1.2,0.2,1.8,0.1c0.7,0,1.3-0.1,1.9-0.4c1.2-0.6,1-2.5,0.1-3.4c0,0-0.1,0-0.1-0.1c-1.1-0.9-2.5-1.3-3.9-1.5 c0-1.6-0.2-3.1-0.4-4.6c-0.3-2.6-3.4-2.7-3.7-0.1l0,0.6c-0.8-1.7-1.7-3.3-3.1-4.5c-0.4-0.4-1.2-0.2-1.2,0.6c0,2.6,0.6,4.9,1.7,7 c-0.5,0-0.9-0.1-1.2-0.3c-1.2-0.9-2.3,1.1-1.1,2.2c1.5,1.4,3,2.2,4.7,2.9l0.4,0.9c0,2.1-0.3,4.1-0.7,6.2 C412.9,757.8,414.4,759.1,415.1,758.1z"/>
    <path fill="#F6B6AD" d="M435,640.4c1.3,2.1,3,3.9,4.9,5.5c2.4,2.1,5.1,3.9,7.5,5.7c-2.3,0.3-4.8,0.7-7.2,1.3 c-0.5,0.1-1,0.3-1.5,0.4c-3,0.9-6,2.1-8.7,3.8c-1.6,1.1-0.5,3.2,0.8,3.1c4.8-0.3,10-1.6,14.9-2.4c-1.3,3.3-2.1,6.8-1.5,9.9 c0.2,1.2,1.6,1.7,2.4,0.7c2.5-3.2,3.8-7.4,5.4-11.3l1.8-0.1l4.5,4.1c1.2,1.1,2.2,2.3,3.4,3.5c1.1,1.1,2.2,2.1,3.5,2.8 c1.7,1,4-0.7,3.3-2.5c-0.7-1.7-1.8-3.4-3.1-5c-0.9-1.1-1.8-2.1-2.8-3.1l3.2,0l2.9,0c1.1,0,1.9-0.5,2.3-1.1c0.9-1.4,0.3-3.6-2-4.1 c-4.1-0.8-8.6-1-12.9-0.7l-0.4-0.4c1.9-3.2,4.3-6.5,4.4-9.4c0.1-1.7-1.2-2.8-2.8-2.1c-2.6,1-4.7,4-6.2,7.2 c-1.1-1-2.2-2.1-3.4-3.2c-2.3-2-4.7-3.8-7.3-4.8c-0.9-0.4-1.7-0.6-2.6-0.8c-0.2,0-0.5-0.1-0.7-0.1 C435.4,637.1,434.2,639,435,640.4z"/>
    <path fill="#F6B6AD" d="M446.2,686.2c0.2,0.2,0.4,0.4,0.6,0.6c1.9,2,4.2,3.6,6.7,4.9c-2.1,0.4-4.3,0.6-6.5,0.8 c-1.3,0.1-1.5,2-0.2,2.3c2.6,0.7,5.3,0.6,7.9,0.3c-0.7,1.8-1,3.6-0.7,5.4c0.2,1.1,1.9,1.9,2.6,0.8c0.7-1,1.3-2.1,1.9-3.2 c0.2,0.4,0.5,0.8,0.7,1.2c1,1.6,2.2,3.1,3.6,4.2c0,0,0,0,0,0c0.3,0.3,0.7,0.5,1.1,0.8c0.6,0.4,1.3,0.2,1.6-0.3 c0.1-0.2,0.2-0.5,0-0.7c-0.4-0.8-0.8-1.5-1.1-2.3c-0.6-1.3-1.2-2.7-1.7-4c-0.1-0.2-0.2-0.4-0.3-0.7c3.1,1.5,6.5,2.6,9.3,2.1 c1.1-0.2,1.7-1.4,0.9-2.3c-1.5-1.6-3.8-2.7-6.2-3.7c1.1-0.4,2.1-0.8,3-1.3c1.7-0.9,0.7-3.2-1.4-3.1c-1.5,0.1-3.1,0.4-4.6,0.9 c1.3-2.2,2.1-4.5,2.1-6.7c-0.1-2-3.1-3.8-4.5-1.7c-0.7,1-1.3,2.2-1.8,3.3c-0.6-2.2-1.3-4.1-2.7-5.1c-0.7-0.5-1.5-0.3-2,0.3 c-1.4,1.6-1.2,4.7-0.4,7.5c-0.9-0.5-1.9-1-2.9-1.5c-1.2-0.5-2.3-1-3.5-1.4C446.2,683.4,445.3,685.2,446.2,686.2z"/>
    <path fill="#F6B6AD" d="M419.5,681c-1.2,1.8-2.2,3.6-3.3,5.5c-0.8,1.4,0.7,2.9,1.7,2c0.6-0.5,1.1-1,1.7-1.6 c0.9-1,1.9-2.2,2.8-3.4c1.1,1.9,2.6,3.4,4.4,3.3c0.5,0,0.9-0.5,1-1c0.3-1.2,0-2.4-0.4-3.5c-0.4-1.1-1.1-2.1-1.7-3 c1.2-0.5,2.3-1.1,3.4-1.8c1.2-0.8,2.2-1.6,3.1-2.5c1.2-1.4,0.5-4.1-1.4-3.5c-0.8,0.3-1.5,0.6-2.2,1c1.1-3.1,1.6-6,0.9-8.7 c-0.2-0.8-1.3-0.9-1.8-0.1c-0.8,1.3-1.5,2.7-2,4.1c-0.9,2.2-1.5,4.6-2.5,6.8l-0.1,0.2c-1.6-3.1-3.1-6.3-4.6-9.5 c-0.5-1.1-2.1,0-2,1.3c0.4,3.9,1.3,7.2,2.8,10.4c-2.4,0.6-4.8,0.8-7.2,0.3c-1-0.2-1.6,1.5-0.8,2.1 C413.1,681.1,416.2,681.4,419.5,681z"/>
    <path fill="#F6B6AD" d="M467.4,617.7c1-0.3,2.1-0.6,3.1-0.9c3.3-0.9,6.7-1.8,10-2.3l0.1,0l0.4,0.3c-0.3,2.1-0.6,4.3-1,6.5 c-0.2,1.1-0.4,2.2-0.6,3.3c-0.2,0.7-0.1,1.4,0.2,2c0.7,1.4,2.5,2.1,3.9,1.1c0.3-0.2,0.6-0.5,0.8-0.8c1.4-2.1,2-5,2.4-8 c2.5,1.8,5.1,3.5,7.7,4.3c1.6,0.5,2.5-1.4,2.2-2.7c-0.7-2.7-3-4.8-5.6-6.5c2.6-0.1,5.2-0.2,7.6-0.9c2.5-0.7,2.5-4.3,0-4.9 c-3.2-0.7-6.9-0.6-10.6-0.2c0.4-2.6,1-5.1,1.5-7.7c0.5-2.6,1.8-5.7,1.9-8.3c0-1.6-2-2.4-3.5-1c-4.3,4-5.1,12-5.8,16.7l-0.1,0.8 c-3.2-2-6.4-3.9-9.8-5.6c-1.2-0.6-3.6,0.8-2.8,2.2c1.1,2.1,2.8,3.8,4.7,5.3c-2.1,0.8-4.2,1.7-6,3.1c-0.7,0.5-1.3,1-1.9,1.7 C464.9,616.4,465.8,618.2,467.4,617.7z"/>
    <path fill="#F6B6AD" d="M486,631.5c-0.9,0.7-1.5,1.6-1.9,2.6c-0.4,1-0.6,2.2-0.7,3.3c0,0.6-0.1,1.3-0.1,1.9 c-1.5-0.6-3-1.1-4.5-1.8c-0.7-0.3-1.5,0.4-1,1.1c1,1.4,2.2,2.5,3.6,3.3c-0.6,0.1-1.2,0.3-1.9,0.4c-0.3,0.1-0.7,0.2-1,0.3 c-0.7,0.2-1.3,0.5-2,0.8c-0.3,0.1-0.5,0.2-0.7,0.5l-0.1,0.1h0c-1.4,0.2-1.2,2.2,0.2,2.1c0.7,0,2.3,0.5,3.5,0.4 c1.6,0,3.2-0.3,4.8-0.4l0.3,1.6c0.4,1.8,0.6,4,2.2,5.2c0.8,0.6,2.2,0.9,2.7,0c1.1-1.7,0.4-4.4-0.3-7c1.3,0.8,2.6,1.8,3.9,2.9 c1.5,1.3,3.9,0,2.6-1.8c-0.6-0.8-1.2-1.5-1.9-2.1c1.9-0.5,3.6-1.1,4.6-2.4c1.2-1.5-0.8-3.6-2.5-3.6c-1.6,0.1-3.3,0.7-4.9,1.1 l-2.9,0.6c-0.3-1.8-0.5-3.8-0.3-5.6c0.1-0.7,0.3-1.4,0.5-2C488.8,631.6,487,630.7,486,631.5z"/>
    <path fill="#F6B6AD" d="M442.2,625.9c1.2-0.1,2.4-0.4,3.6-0.8c-0.2,1-0.4,2-0.4,2.9c-0.1,1.3,1.6,1.1,2.2,0.1 c0.8-1.4,1.4-2.9,2.2-4.3c0.3,0.5,0.6,1,1,1.5c0.5,0.5,1,1,1.5,1.3c1.2,0.6,2.6-0.8,2.7-2.1c0,0,0-0.1,0-0.1c0-1.4-0.6-2.8-1.3-4 c1.2-1,2.4-2.1,3.4-3.1c1.8-1.9-0.1-4.4-2.2-2.9l-0.5,0.4c0.8-1.7,1.5-3.5,1.6-5.3c0-0.6-0.5-1.1-1.2-0.6 c-2.1,1.5-3.3,3.6-4.4,5.7c-0.3-0.4-0.5-0.8-0.5-1.1c0-1.5-2.3-1.2-2.4,0.4c-0.1,2,0.1,3.8,0.7,5.5l-0.4,0.9 c-1.7,1.3-3.5,2.3-5.4,3.3C441,624.1,440.9,626,442.2,625.9z"/>
    <path fill="#F6B6AD" d="M539.7,587.4c-3.3,1.2-6.6,2.6-8.7,5c-0.8,0.9-0.4,2.3,1,2.3c4,0,8.2-1.7,12.2-2.8l1.2,1.3l-0.4,6.1 c-0.1,1.7-0.5,3.4-0.6,5.1c-0.2,1.4-0.2,2.9,0,4.3c0.3,2,3,2.8,4,1c0.9-1.6,1.5-3.5,2-5.5c0.3-1.3,0.5-2.7,0.7-4.2 c0.6,0.8,1.3,1.6,1.9,2.4c0.6,0.8,1.2,1.5,1.8,2.3c0.7,0.8,1.5,1.2,2.2,1.1c1.7-0.1,3.1-2,2.1-4.2c-1.9-3.7-4.6-7.3-7.5-10.6 l0-0.5c3.7-0.4,7.7-0.8,10.1-2.4c1.4-1,1.4-2.7-0.1-3.5c-2.4-1.4-6.1-1.1-9.5-0.4c0.1-1.5,0.3-3,0.3-4.6c0.1-3,0-6-0.7-8.7 c-0.3-0.9-0.6-1.8-1.1-2.6c-0.1-0.2-0.2-0.4-0.3-0.6c-0.8-1.3-3.1-1-3.6,0.4c-0.8,2.3-1.2,4.8-1.2,7.3c-0.1,3.1,0.1,6.3,0.2,9.4 c-1.7-1.6-3.5-3.3-5.4-4.8c-0.5-0.4-1-0.7-1.5-1.1c-2.5-1.8-5.3-3.3-8.2-4.3c-1.9-0.6-2.8,1.6-1.9,2.6 C531.8,580.9,536,584.1,539.7,587.4z"/>
    <path fill="#F6B6AD" d="M517.8,605.4c-0.1,0.3-0.1,0.6-0.1,1c-0.3,2.7-0.1,5.5,0.3,8.2c-1.6-1.4-3.2-3-4.7-4.6 c-0.9-1-2.4,0.1-1.9,1.3c1.1,2.5,2.8,4.5,4.7,6.3c-1.8,0.7-3.5,1.5-4.7,2.8c-0.7,0.8-0.3,2.7,1,2.5c1.2-0.1,2.5-0.2,3.7-0.5 c-0.2,0.4-0.4,0.9-0.5,1.3c-0.7,1.8-1.1,3.6-1,5.4c0,0.1,0,0.2,0,0.3c0,0.4,0,0.7,0.1,1.1c0.1,0.6,0.6,1,1,1.1 c0.3,0,0.6-0.1,0.8-0.5c0.4-0.8,0.8-1.6,1.2-2.4c0.6-1.2,1.3-2.4,2-3.7c0.1-0.3,0.3-0.5,0.4-0.8c0.8,3.3,2,6.7,4.1,8.6 c0.8,0.7,2.2,0.5,2.4-0.6c0.3-2.2-0.3-4.7-1-7.3c1,0.6,2,1.2,2.9,1.6c1.8,0.8,2.9-1.5,1.5-3.1c-1-1.1-2.2-2.1-3.5-3 c2.4-0.5,4.9-1.1,6.6-2.5c1.6-1.4,1-4.8-1.5-4.6c-1.2,0.1-2.5,0.4-3.8,0.6c1.4-1.7,2.5-3.5,2.4-5.3c0-0.8-0.7-1.3-1.5-1.4 c-2.2-0.1-4.4,2-6.2,4.4c-0.2-1.1-0.4-2.1-0.6-3.2c-0.3-1.2-0.6-2.4-1.1-3.6C520,603.7,518,604.1,517.8,605.4z"/>
    <path fill="#F6B6AD" d="M505.2,585.1c-0.8,2.1-1.1,4.1,0.1,5.5c0.3,0.4,1,0.5,1.5,0.2c1.1-0.5,1.8-1.4,2.4-2.4 c0.6-1,1-2.2,1.3-3.3c1.1,0.6,2.3,1.1,3.4,1.5c1.4,0.5,2.7,0.8,4,0.9c1.9,0.2,3.5-2.1,1.9-3.2c-0.7-0.4-1.4-0.8-2.2-1.2 c3-1,5.6-2.6,7.3-4.7c0,0,0-0.1,0.1-0.1c0.2-0.2,0.2-0.4,0.2-0.6c-0.1-0.5-0.5-0.9-1.2-0.9c-1.6,0.1-3.2,0.5-4.7,1 c-2.2,0.7-4.4,1.6-6.6,2.2l-0.2,0.1c1.4-3.2,3-6.3,4.6-9.5c0.6-1.1-1.3-1.6-2.2-0.8c-2.9,2.5-4.8,5.6-6.4,8.6 c-2-1.5-3.6-3.3-4.7-5.5c-0.5-0.9-2.1-0.3-2.2,0.7c-0.2,2.7,1.4,5.4,3.8,7.6c-2.1,0.3-4.3,0.5-6.4,0.8c-1.6,0.3-1.8,2.4-0.5,2.6 c0.7,0.1,1.4,0.2,2.2,0.3C501.9,585.1,503.5,585.1,505.2,585.1z"/>
    <path fill="#F6B6AD" d="M584.5,579.3c0.8,0.6,1.7,1.2,2.5,1.8c2.9,2.1,5.6,4.2,8.2,6.5l0,0.3l0,0.3c-1.9,1.1-3.8,2.2-5.7,3.3 c-1,0.5-2,1.1-3,1.5c-0.7,0.4-1.2,0.9-1.5,1.6c-0.5,1.3,0,3,1.4,3.5c0.4,0.1,0.8,0.2,1.3,0.2c2.5-0.2,5.2-1.5,7.8-3.1 c0.1,3.1,0.4,6.1,1.4,8.7c0.6,1.5,2.6,1.1,3.5,0.1c1.7-2.3,1.9-5.3,1.7-8.4c1.7,2,3.4,4,5.4,5.4c2.1,1.5,4.9-0.7,3.8-3 c-1.4-3-3.9-5.8-6.4-8.5c2.3-1.3,4.6-2.4,6.9-3.6c2.4-1.2,5.6-2.1,7.6-3.7c1.3-1,0.6-3.1-1.4-3.4c-5.8-0.9-12.5,3.5-16.6,5.8 l-0.7,0.4c-0.5-3.8-1-7.4-1.8-11.2c-0.3-1.3-2.8-2.3-3.5-0.8c-1,2.2-1.2,4.6-1.2,6.9c-2-1.2-4.1-2.3-6.3-2.9 c-0.8-0.2-1.5-0.3-2.3-0.4C584,576.5,583.2,578.3,584.5,579.3z"/>
    <path fill="#F6B6AD" d="M585.4,602.4c-1.2-0.3-2.3-0.2-3.3,0.2c-1.1,0.3-2.1,0.9-3.1,1.6c-0.5,0.3-0.9,0.6-1.3,1 c-0.5-1.5-1-3.1-1.4-4.6c-0.2-0.7-1.3-0.9-1.5-0.1c-0.5,1.6-0.6,3.2-0.3,4.9l-1.6-1.3l-0.7-0.6c-0.6-0.4-1.2-0.7-1.9-1.1 c-0.2-0.2-0.5-0.2-0.8-0.2h-0.2l0,0c-1-0.9-2.4,0.4-1.5,1.5c0.5,0.5,1.1,2.1,1.8,3c1.1,1.2,2.2,2.3,3.3,3.5l-1,1.3 c-1.1,1.4-2.8,2.9-2.7,4.9c0,1,0.7,2.3,1.7,2.1c2-0.2,3.7-2.5,5.2-4.6c0.2,1.5,0.2,3.1,0.1,4.8c-0.1,2,2.4,3,3,0.9 c0.3-0.9,0.4-1.9,0.5-2.8c1.5,1.2,3.1,2.1,4.7,2.1c2,0,2.3-2.9,1.3-4.2c-1-1.2-2.6-2.1-3.9-3.1l-2.3-1.9c1.2-1.3,2.6-2.7,4.1-3.6 c0.6-0.4,1.3-0.7,1.9-0.9C587,604.6,586.6,602.6,585.4,602.4z"/>
    <path fill="#F6B6AD" d="M565.3,567c-0.9,0.4-1.8,0.9-2.6,1.5c-1.1,0.8,0.1,2,1.3,1.8c1.6-0.3,3.2-0.7,4.7-1 c-0.3,0.6-0.5,1.2-0.6,1.8c-0.1,0.6-0.1,1.3,0,1.8c0.3,1.3,2.2,1.6,3.3,0.8c0,0,0,0,0,0c1.2-0.9,1.9-2.2,2.4-3.6 c1.6,0.4,3.1,0.6,4.5,0.7c2.6,0.2,3.4-2.8,0.9-3.6l-0.6-0.2c1.9-0.4,3.6-1,5.1-2c0.5-0.3,0.5-1.1-0.3-1.3 c-2.5-0.7-4.9-0.4-7.3,0.1c0.1-0.4,0.3-0.9,0.6-1.1c1.1-1-0.5-2.5-1.8-1.6c-1.7,1.1-2.9,2.5-3.9,4l-0.9,0.2 c-2.1-0.5-4-1.4-5.9-2.1c-1.2-0.5-2.8,0.6-1.9,1.6C563.2,565.6,564.2,566.3,565.3,567z"/>
    <path fill="#F6B6AD" d="M642.8,615.4c2.5,3.1,6.4,5.4,9.8,7.8l-0.3,1.8l-5,3.4c-1.5,1-3.1,1.9-4.6,2.8c-1.1,0.7-2.2,1.6-3.1,2.6 c-1.4,1.5-0.2,4,1.7,3.7c1.8-0.3,3.6-0.9,5.4-1.9c1.3-0.6,2.5-1.4,3.8-2.2c-0.2,1-0.5,2.1-0.7,3.1c-0.2,0.9-0.4,1.9-0.6,2.8 c-0.2,1,0,1.9,0.6,2.4c1.1,1.2,3.5,1.1,4.5-1c1.8-3.9,2.8-8.1,3.6-12.5l0.4-0.3c2.6,2.6,5.4,5.6,8.2,6.4c1.6,0.5,3-0.6,2.7-2.3 c-0.4-2.7-2.9-5.5-5.6-7.7c1.2-0.8,2.5-1.6,3.7-2.5c2.4-1.8,4.8-3.7,6.4-6c0.6-0.8,1.1-1.7,1.5-2.6c0.1-0.2,0.2-0.4,0.2-0.6 c0.5-1.5-1.1-3.1-2.6-2.6c-2.4,0.8-4.6,2.2-6.7,3.8c-2.5,1.8-4.8,4-7,5.9c0.2-2.3,0.4-4.6,0.4-7.1c0-0.7,0-1.5-0.1-2.2 c-0.2-3-0.7-6-1.8-8.9c-0.7-1.8-3-1.2-3.2,0.1c-0.8,4.9-0.6,10-1,15c-2.9-2-6.2-3.5-9.3-3.7C642.8,613.1,642,614.3,642.8,615.4z"/>
    <path fill="#F6B6AD" d="M625.6,611c-0.3,0.2-0.7,0.4-1,0.6c-2.2,1.4-4.2,3.3-6,5.3c0.1-2.2,0.3-4.3,0.6-6.6 c0.2-1.3-1.6-1.9-2.2-0.7c-1.3,2.4-1.7,5-2,7.6c-1.6-1-3.3-1.8-5.1-1.9c-1.1-0.1-2.2,1.4-1.3,2.4c0.8,0.9,1.7,1.8,2.6,2.6 c-0.5,0.1-1,0.3-1.4,0.4c-1.8,0.6-3.4,1.4-4.9,2.6c-0.1,0.1-0.3,0.3-0.4,0.4c-0.2,0.2-0.3,0.3-0.5,0.5c-0.4,0.4-0.4,0.9-0.3,1.3 c0.1,0.4,0.4,0.6,0.9,0.5c0.8-0.2,1.6-0.4,2.5-0.5c1.3-0.3,2.7-0.5,4-0.7c0.4-0.1,0.7-0.1,1.1-0.2c-2.1,2.7-4,5.7-4.1,8.6 c-0.1,1.1,1,2,2,1.4c1.9-1.1,3.5-3.2,5-5.3c0.1,1.2,0.3,2.3,0.6,3.3c0.5,1.9,3,1.4,3.4-0.7c0.3-1.5,0.2-3.1,0.1-4.6 c1.9,1.6,3.9,3.2,6.1,3.5c2,0.4,4.3-2.1,2.7-4c-0.9-0.9-1.8-1.7-2.9-2.5c2.2,0,4.3-0.3,5.6-1.5c0.6-0.6,0.6-1.4,0.1-2 c-1.3-1.7-4.3-2.2-7.3-2.1c0.7-0.8,1.4-1.6,2-2.4c0.8-1,1.5-2,2.2-3.1C628.3,611.7,626.8,610.4,625.6,611z"/>
    <path fill="#F6B6AD" d="M629.4,592c-0.1,0.5,0.2,1,0.7,1.3c1.1,0.5,2.2,0.5,3.3,0.4c1.2-0.2,2.4-0.6,3.6-1c0.2,1.3,0.6,2.5,1,3.6 c0.5,1.4,1.1,2.6,1.8,3.7c1,1.5,3.9,1.4,3.7-0.5c-0.1-0.8-0.3-1.6-0.5-2.4c2.7,1.7,5.4,2.8,8.2,2.8c0,0,0.1,0,0.1,0 c0.3,0,0.5-0.1,0.7-0.3c0.3-0.4,0.3-1-0.1-1.4c-1.1-1.1-2.3-2.1-3.6-3c-2-1.3-4.1-2.5-5.9-3.9l-0.2-0.2c3.4-0.9,6.8-1.6,10.3-2.3 c1.2-0.3,0.4-2-0.8-2.2c-3.8-0.6-7.3-0.3-10.7,0.4c-0.1-2.5,0.3-4.9,1.3-7.1c0.4-1-1.1-1.9-1.9-1.3c-2.3,1.6-3.3,4.5-3.6,7.8 l-4.6-4.5c-1.2-1.1-3,0.1-2.3,1.3c0.3,0.6,0.7,1.2,1.1,1.8c0.8,1.2,1.7,2.5,2.9,3.8C631.5,589.2,629.7,590.2,629.4,592z"/>
    <path fill="#F6B6AD" d="M687.6,646.9c0,1,0.1,2,0.1,3c0.1,3.5,0.2,7.1,0,10.5l-0.4,0.4c0,0,0,0,0,0c-2.2-0.8-4.3-1.6-6.3-2.5 c-0.9-0.4-1.9-0.8-2.8-1.2c-0.8-0.4-1.6-0.3-2.3-0.1c-1.2,0.5-2,1.7-1.7,3.1c0.1,0.4,0.4,0.9,0.7,1.3c1.6,1.9,4.5,3.1,7.2,4.1 c-2.4,2-4.6,4.2-5.9,6.5c-0.7,1.4,0.8,2.8,2.1,2.7c2.8-0.1,5.4-1.8,7.6-4c-0.6,2.6-0.9,5.1-0.8,7.6c0.1,2.6,3.7,3.4,4.8,1.1 c1.4-3,2.2-6.6,2.6-10.3c2.4,1,4.8,2,7.2,3.2c2.4,1.1,5.1,3,7.7,3.7c1.6,0.4,2.8-1.4,1.7-3.2c-2.9-5.1-10.5-7.6-14.9-9.4 l-0.8-0.3c2.6-2.7,5.2-5.4,7.7-8.4c0.9-1.1,0-3.6-1.6-3.2c-2.3,0.6-4.3,1.9-6.2,3.4c-0.2-2.3-0.7-4.7-1.7-6.8 c-0.3-0.7-0.7-1.4-1.1-2C689.5,644.7,687.6,645.2,687.6,646.9z"/>
    <path fill="#F6B6AD" d="M670.1,662c-0.6-1.1-1.4-1.9-2.3-2.6c-0.9-0.6-2-1.1-3.1-1.4c-0.5-0.1-1.1-0.3-1.6-0.4 c0.9-1.4,1.8-2.7,2.8-4c0.5-0.6-0.1-1.6-0.8-1.3c-1.6,0.6-2.9,1.6-4,2.8l-0.1-2.1l0-0.9c0-0.7-0.2-1.4-0.3-2.1 c0-0.3-0.1-0.5-0.3-0.8l-0.1-0.1l0,0c0.1-1.4-1.9-1.6-2.1-0.2c-0.1,0.7-0.9,2.1-1.2,3.3c-0.3,1.6-0.5,3.2-0.6,4.8l-1.6,0 c-1.8,0-4-0.4-5.5,0.9c-0.8,0.7-1.3,2-0.7,2.7c1.4,1.4,4.3,1.3,6.9,1.2c-1.1,1.1-2.3,2.1-3.7,3.1c-1.6,1.2-0.8,3.7,1.2,2.9 c0.9-0.4,1.7-0.8,2.5-1.4c0,2,0.3,3.7,1.3,5c1.2,1.6,3.7,0,4-1.6c0.4-1.6,0-3.3,0-5c0-1,0.1-2,0.1-3c1.7,0.1,3.6,0.4,5.2,1 c0.8,0.3,1.5,0.6,2.1,1C669.3,664.6,670.7,663.1,670.1,662z"/>
    <path fill="#F6B6AD" d="M682.5,623.1c-1.3-0.4-1.4,1.3-0.6,2.2c1.2,1.1,2.4,2.1,3.7,3.1c-0.7,0.2-1.4,0.5-1.9,0.8 c-0.5,0.3-1,0.6-1.3,1.1c-0.8,1,0.1,2.5,1.3,3c0.1,0,0.1,0.1,0.2,0.1c1.4,0.4,2.9,0.1,4.3-0.3c0.7,1.4,1.5,2.7,2.3,4 c1.4,2.2,4.3,1,3.4-1.5l-0.2-0.6c1.5,1.2,3,2.3,4.8,2.7c0.6,0.1,1.2-0.3,0.8-1c-1.1-2.4-2.7-4.1-4.6-5.6c0.4-0.2,0.9-0.3,1.2-0.3 c1.5,0.3,1.7-2,0.1-2.4c-2-0.6-3.7-0.7-5.5-0.6l-0.8-0.6c-0.9-2-1.5-3.9-2.1-6c-0.4-1.3-2.2-1.8-2.4-0.6c-0.2,1.2-0.2,2.4,0,3.7 C684.4,623.7,683.5,623.3,682.5,623.1z"/>
    <path fill="#F6B6AD" d="M718.4,735.2c-2.2-1.4-4.7-2.3-7.3-2.9c-2.9-0.7-6-1.2-8.8-1.8c1.9-1.2,3.8-2.5,5.6-4 c0.6-0.5,1.2-1,1.8-1.5c2.2-2,4.3-4.3,5.8-7c1-1.7-0.9-3.1-2.1-2.5c-4.3,2.4-8.2,5.8-12.3,8.6c-0.2-3.5-1.1-7.1-2.9-9.6 c-0.7-1-2.2-0.9-2.5,0.5c-0.9,3.9-0.2,8.3,0,12.5l-1.6,0.9l-5.8-1.8c-1.7-0.5-3.4-1.3-5.1-1.8c-1.3-0.4-2.6-0.8-3.9-0.9 c-2-0.1-3.3,2.3-1.8,3.7c1.3,1.2,2.8,2.1,4.6,3c1.3,0.7,2.8,1.2,4.3,1.7c-1,0.5-2,1-3.1,1.5c-0.8,0.4-1.6,0.8-2.4,1.2 c-1,0.5-1.5,1.3-1.6,2.1c-0.1,1.6,1.4,3.2,3.6,2.7c4.2-1,8.1-2.8,12-4.9l0.5,0.1c-0.4,3.7-1,7.7,0.1,10.4c0.7,1.6,2.3,2,3.5,0.7 c1.8-2,2.5-5.6,2.5-9.2c1.3,0.4,2.7,0.9,4.1,1.3c2.9,0.8,5.9,1.4,8.7,1.3c1,0,2-0.2,3-0.4c0.2-0.1,0.5-0.1,0.7-0.2 C719.5,738.3,719.8,736.1,718.4,735.2z"/>
    <path fill="#F6B6AD" d="M688.1,701.5c1.4-0.2,1.5-2.2,0.2-2.8c-0.4-0.2-0.8-0.3-1.2-0.5c-2.4-0.9-5.1-1.2-7.7-1.4 c1.7-1.3,3.6-2.4,5.5-3.6c1.1-0.7,0.5-2.4-0.8-2.2c-2.7,0.5-5,1.7-7.2,3.2c-0.2-1.9-0.6-3.7-1.7-5.2c-0.6-0.9-2.5-0.9-2.7,0.4 c-0.2,1.2-0.3,2.4-0.3,3.7c-0.5-0.3-0.9-0.6-1.4-0.9c-1.6-1-3.3-1.8-5.1-2.2c-0.2,0-0.3-0.1-0.5-0.1c-0.2,0-0.4-0.1-0.6-0.1 c-0.5-0.1-1,0.2-1.2,0.6c-0.2,0.3-0.3,0.8,0.1,1.1c0.6,0.5,1.2,1,1.8,1.5c1.1,0.9,2.1,1.8,3.2,2.8c0.3,0.3,0.6,0.5,0.8,0.8 c-3.4,0-7,0.5-9.3,2.1c-0.9,0.6-0.9,2.1,0.2,2.5c2,0.8,4.6,0.8,7.2,0.6c-0.8,0.8-1.6,1.7-2.2,2.5c-1.1,1.6,0.7,3.2,2.7,2.2 c1.4-0.8,2.6-1.7,3.7-2.8c-0.1,2.5,0,5,1,7c0.9,1.8,4.4,2,4.8-0.4c0.2-1.2,0.2-2.5,0.2-3.8c1.4,1.7,3,3.2,4.6,3.5 c0.8,0.1,1.5-0.4,1.7-1.2c0.5-2.1-0.9-4.7-2.9-7c1,0,2,0.1,3,0.1C685.5,701.8,686.8,701.7,688.1,701.5z"/>
    <path fill="#F6B6AD" d="M715.3,685.4c0.1-1.6-1.8-2.3-2.4-1c-0.3,0.6-0.5,1.3-0.8,2c-0.4,1.4-0.8,2.9-1.1,4.5 c-1.9-1.2-3.8-1.9-5.4-1.1c-0.4,0.2-0.6,0.8-0.5,1.4c0.3,1.1,0.9,2,1.7,2.8c0.9,0.9,2,1.5,3.1,2.2c-0.8,1-1.6,2-2.2,3.1 c-0.7,1.2-1.3,2.4-1.7,3.6c-0.5,1.8,1.3,3.9,2.7,2.5c0.6-0.6,1.1-1.2,1.6-1.9c0.4,3.2,1.2,6.1,3,8.2c0.6,0.7,1.6,0.3,1.7-0.7 c0.2-1.4,0.2-2.9,0.1-4.3c-0.2-2.5-0.6-5-0.7-7.5l0-0.2c2.7,2.1,5.5,4.3,8.3,6.6c0.9,0.8,1.9-1,1.2-2c-2-3.4-4.3-5.9-7-8.1 c1.9-1.6,4-2.8,6.4-3.4c1-0.2,0.8-2-0.2-2.3c-2.6-0.8-5.6,0.2-8.3,2.1C715,689.7,715.2,687.6,715.3,685.4z"/>
    <path fill="#F6B6AD" d="M699,769.7c-0.8,0.7-1.6,1.4-2.4,2c-2.7,2.3-5.3,4.5-8.1,6.5l-0.6-0.1c0,0,0,0,0,0 c-0.8-2.2-1.4-4.5-2.1-6.7c-0.3-0.9-0.5-1.8-0.7-2.8c-0.2-0.9-0.8-1.5-1.4-1.9c-1.1-0.7-2.6-0.5-3.4,0.6 c-0.3,0.4-0.5,0.8-0.6,1.4c-0.4,2.5,0.4,5.4,1.3,8.2c-3.1-0.6-6.1-1-8.8-0.5c-1.6,0.3-1.7,2.3-0.9,3.3c1.8,2.1,4.8,3.1,7.9,3.5 c-2.3,1.2-4.6,2.5-6.4,4.1c-1.9,1.7-0.3,5,2.1,4.4c3.1-0.8,6.6-2.4,9.7-4.4c0.7,2.5,1.4,5,2,7.6c0.6,2.6,0.9,5.9,1.9,8.3 c0.7,1.5,2.9,1.3,3.6-0.6c0.2-0.5,0.4-1.1,0.5-1.7c0.1-0.5,0.2-0.9,0.2-1.4c0.5-5-1.6-10.7-2.7-14.4l-0.2-0.8 c3.7,0.4,7.5,0.7,11.3,0.8c1.4,0,2.8-2.3,1.5-3.2c-2-1.4-4.2-2.2-6.5-2.7c1.7-1.6,3.2-3.4,4.2-5.5c0.4-0.7,0.7-1.4,0.9-2.2 C701.9,769.8,700.3,768.5,699,769.7z"/>
    <path fill="#F6B6AD" d="M676.3,765.3c0.5-1.1,0.6-2.3,0.6-3.4c-0.1-1-0.3-2.1-0.7-3.1c-0.2-0.6-0.5-1.1-0.8-1.7 c1.6-0.1,3.3-0.3,4.8-0.3c0.8,0,1.2-1,0.5-1.4c-1.5-0.9-3-1.3-4.7-1.4l1.5-1.3l0.7-0.6c0.5-0.5,1-1,1.5-1.6 c0.2-0.2,0.3-0.4,0.4-0.7l0-0.2l0,0c1.2-0.8,0.1-2.5-1.1-1.8c-0.6,0.3-2.3,0.6-3.3,1.1c-1.5,0.8-2.8,1.6-4.1,2.5l-1-1.3 c-1.1-1.4-2.2-3.3-4.2-3.8c-1-0.2-2.4,0.2-2.5,1.2c-0.2,2,1.6,4.2,3.3,6.1c-1.5-0.2-3.1-0.5-4.7-0.9c-1.9-0.5-3.4,1.7-1.5,2.8 c0.8,0.5,1.7,0.8,2.6,1.1c-1.6,1.2-2.7,2.6-3.1,4.1c-0.5,1.9,2.3,2.9,3.8,2.2c1.5-0.7,2.6-2.1,3.9-3.1l2.4-1.8 c1,1.4,1.9,3.1,2.5,4.7c0.3,0.8,0.5,1.5,0.5,2.3C673.7,766.4,675.8,766.5,676.3,765.3z"/>
    <path fill="#F6B6AD" d="M718.2,751.4c-1,0.6-2,1.4-2.9,2.3c-0.2-1-0.5-1.9-0.8-2.8c-0.5-1.2-2-0.3-2,0.9 c-0.1,1.6-0.1,3.2-0.1,4.8c-0.6-0.4-1.3-0.8-1.9-1.1c-0.5-0.2-1-0.3-1.5-0.3c-1.2,0-1.9,1.6-1.6,2.8c0,0.1,0,0.2,0.1,0.3 c0.5,1.4,1.7,2.3,3,3.2c-0.7,1.5-1.2,2.9-1.7,4.3c-0.8,2.5,1.9,3.9,3.3,1.7l0.3-0.5c-0.1,1.9,0.1,3.7,0.9,5.4 c0.2,0.5,1,0.7,1.3,0c1.2-2.3,1.5-4.7,1.5-7.1c0.4,0.2,0.8,0.5,1,0.8c0.7,1.3,2.6,0.1,2-1.4c-0.8-1.9-1.7-3.3-3-4.7l0-1 c1-1.9,2.1-3.6,3.4-5.3C720.1,752.5,719.3,750.7,718.2,751.4z"/>
    <path fill="#F6B6AD" d="M661.6,832.6c-4.5-1.8-9.7-2.9-14.4-4.3c2.5-2.5,4.9-5.2,5.7-8.3c0.3-1.2-0.7-2.3-1.9-1.7 c-3.6,1.8-6.6,5-9.8,7.8l-1.7-0.7l-2.3-5.7c-0.6-1.6-1.1-3.4-1.7-5c-0.5-1.3-1-2.6-1.8-3.7c-1.1-1.6-3.9-1.2-4,0.8 c-0.1,1.8,0.1,3.8,0.6,5.8c0.3,1.3,0.7,2.7,1.2,4.1l-3.1-1.5l-2.3-1.1c-1.2-0.6-2.2-0.4-2.8,0.2c-1.2,1-1.4,3.1,0.3,4.4 c3.3,2.5,7.3,4.6,11.3,6.3l0.2,0.5c-3.2,1.9-6.6,4-8.1,6.5c-0.8,1.5-0.1,3,1.6,3.1c2.8,0.3,5.9-1.7,8.8-3.7c0.5,1.3,1,2.6,1.6,4 c1.2,2.8,2.5,5.5,4.4,7.6c0.6,0.8,1.4,1.4,2.1,2c0.2,0.2,0.5,0.4,0.7,0.5c1.3,0.8,3.2-0.4,3.1-2c-0.3-2.5-1.1-5-2.2-7.4 c-1.2-2.8-2.8-5.5-4.1-8.1c2,0.7,4.2,1.3,6.5,1.8c0.8,0.2,1.5,0.3,2.3,0.4c3,0.5,6.2,0.7,9.3,0.2 C662.9,835.6,662.8,833.1,661.6,832.6z"/>
    <path fill="#F6B6AD" d="M659,802.6c-0.1-0.4-0.2-0.8-0.4-1.2c-0.9-2.5-2.3-4.8-3.8-7c2.1,0.6,4.2,1.3,6.3,2.1 c1.2,0.5,2.2-1.2,1.2-2c-2-1.8-4.5-2.8-7-3.6c1.3-1.4,2.6-2.8,3-4.6c0.3-1-0.9-2.5-2-1.8c-1,0.6-2.1,1.3-3.1,2 c0-0.6-0.1-1.2-0.1-1.8c-0.2-1.8-0.7-3.7-1.5-5.3c-0.1-0.1-0.1-0.2-0.2-0.3c-0.1-0.2-0.2-0.4-0.3-0.6c-0.3-0.5-0.8-0.6-1.3-0.6 c-0.4,0.1-0.7,0.3-0.7,0.8c0,0.7,0,1.5,0,2.2c0,1.5-0.1,2.9-0.2,4.4c0,0.4,0,0.7-0.1,1.1c-2.2-2.7-4.7-5.2-7.4-5.9 c-1-0.3-2.2,0.5-1.8,1.6c0.7,2.1,2.3,4.1,4.1,6.1c-1.1-0.1-2.3-0.2-3.3-0.1c-2,0.1-2,2.6,0,3.4c1.4,0.6,2.9,0.9,4.5,1.2 c-2,1.5-3.9,3.1-4.8,5.1c-0.8,1.9,1.2,4.8,3.3,3.5c1.1-0.6,2.1-1.4,3.1-2.2c-0.5,2.1-0.7,4.2,0.2,5.8c0.4,0.7,1.2,0.9,1.9,0.6 c2-0.8,3.1-3.7,3.7-6.6c0.6,0.8,1.1,1.6,1.7,2.3c0.9,1.1,1.8,2.1,2.7,3C657.7,805.1,659.4,804,659,802.6z"/>
    <path fill="#F6B6AD" d="M680.8,818.9c1.8-1.2,3.7-2.3,5.4-3.5c1.3-0.9,0.6-2.9-0.7-2.5c-0.7,0.2-1.4,0.4-2.2,0.7 c-1.3,0.5-2.7,1.1-4.1,1.9c-0.2-2.2-0.8-4.2-2.5-4.9c-0.4-0.2-1.1,0-1.4,0.4c-0.7,0.9-1,2-1.1,3.1c-0.1,1.2,0.1,2.5,0.3,3.8 c-1.4-0.1-2.7,0-4,0.2c-1.3,0.2-2.6,0.5-3.7,0.9c-1.7,0.7-2.3,3.4-0.3,3.7c0.8,0.1,1.6,0.1,2.5,0.1c-2.4,2.2-4,4.8-4.6,7.5 c-0.2,0.8,0.8,1.4,1.6,0.9c1.1-0.7,2.2-1.5,3.2-2.4c1.9-1.7,3.7-3.7,5.6-5.4l0.2-0.2c0.2,3.5,0.1,7,0,10.5c0,1.2,1.9,0.8,2.3-0.3 c1.5-3.5,1.9-7.1,2-10.5c2.5,0.5,4.7,1.4,6.6,2.9c0.8,0.6,2-0.6,1.7-1.6C686.6,821.5,683.9,819.9,680.8,818.9z"/>
    <path fill="#F6B6AD" d="M610.2,855.1c-1.1-0.2-2.1-0.4-3.2-0.6c-3.4-0.6-6.8-1.3-10-2.3l-0.3-0.4l-0.1-0.1c1.3-1.9,2.6-3.9,4-5.8 c0.6-0.8,1.1-1.5,1.7-2.2c0.5-0.7,0.7-1.4,0.6-2.1c-0.1-1.4-1.3-2.6-2.8-2.5c-0.4,0-0.8,0.2-1.3,0.4c-2.2,1.3-4,3.6-5.6,6.2 c-1.5-2.7-3-5.3-5.1-7.2c-1.2-1.1-2.9,0.1-3.1,1.4c-0.5,2.8,0.6,5.6,2.2,8.3c-2.4-1-4.8-2.1-7.2-2.5c-2.6-0.4-4.1,2.8-2.1,4.4 c2.6,2,6,3.6,9.5,4.8c-1.5,2.2-3,4.2-4.7,6.3c-1.6,2.1-4.1,4.4-5.3,6.7c-0.7,1.5,0.8,3,2.8,2.5c0.4-0.1,0.9-0.3,1.3-0.5 c0.6-0.3,1.1-0.6,1.7-0.9c4.1-2.8,7.3-7.9,9.4-11.1l0.5-0.7c2,3.1,4.1,6.3,6.4,9.3c0.8,1.1,3.6,0.8,3.5-0.8 c-0.1-2.4-0.9-4.6-1.9-6.8c2.2,0.2,4.5,0.3,6.7-0.1c0.8-0.2,1.6-0.4,2.4-0.7C611.8,857.4,611.8,855.4,610.2,855.1z"/>
    <path fill="#F6B6AD" d="M598,832.3c-1.1,0.9,0.1,2.6,1.4,2.3c1.2-0.3,2.1-0.8,3-1.6c0.7-0.7,1.3-1.5,1.9-2.3 c0.4-0.6,0.7-1.2,1-1.9c1.1,1.2,2.3,2.3,3.2,3.6c0.5,0.6,1.5,0.3,1.4-0.6c-0.2-1.7-0.9-3.2-1.8-4.5l1.8,0.4l1.1,0.2 c0.7,0.2,1.4,0.2,2.1,0.2c0.3,0,0.5,0,0.8-0.1l0.1-0.1l0,0c1.3,0.4,2-1.5,0.7-2c-0.6-0.3-1.9-1.4-2.9-1.9c-1.5-0.6-3-1.1-4.5-1.7 l0.4-1.6c0.4-1.7,1.2-3.9,0.3-5.6c-0.5-0.9-1.6-1.7-2.5-1.2c-1.8,1-2.2,3.8-2.7,6.4c-0.8-1.3-1.6-2.7-2.2-4.3 c-0.8-1.8-3.5-1.7-3.1,0.5c0.2,0.9,0.4,1.9,0.8,2.7c-1.9-0.4-3.7-0.6-5.2,0.1c-1.8,0.8-0.8,3.6,0.7,4.3c1.5,0.7,3.3,0.8,4.9,1.1 c1,0.2,1.9,0.5,2.9,0.7c-0.5,1.7-1.2,3.5-2.1,5C599,831.3,598.6,831.9,598,832.3z"/>
    <path fill="#F6B6AD" d="M636.4,858.7c-1.1-0.4-2.3-0.7-3.6-0.8c0.6-0.8,1.2-1.6,1.7-2.5c0.6-1.2-1-1.7-2-1 c-1.3,1-2.6,1.9-3.8,2.9c0-0.7-0.1-1.4-0.3-2.1c-0.2-0.6-0.4-1.1-0.7-1.5c-0.8-1-2.5-0.5-3.2,0.5c0,0.1-0.1,0.1-0.1,0.2 c-0.7,1.3-0.7,2.8-0.6,4.3c-1.6,0.4-3.1,0.8-4.4,1.3c-2.4,0.9-1.9,4,0.7,3.6l0.6-0.1c-1.5,1.2-2.9,2.4-3.7,4 c-0.3,0.5,0,1.2,0.8,1.1c2.6-0.4,4.6-1.8,6.5-3.2c0.1,0.5,0.1,0.9,0,1.3c-0.6,1.3,1.5,2.1,2.4,0.7c1-1.7,1.5-3.4,1.8-5.3l0.7-0.6 c2.1-0.4,4.2-0.5,6.3-0.6C636.7,860.9,637.6,859.2,636.4,858.7z"/>
    <path fill="#F6B6AD" d="M531.9,851.1c3.5,0.4,7.1,0.6,10-0.7c1.1-0.5,1.3-2,0.1-2.5c-3.6-1.7-8.1-2.1-12.2-2.8l-0.5-1.7l3-5.3 c0.8-1.4,1.8-2.8,2.7-4.2c0.8-1.3,1.5-2.6,1.9-4c0.6-1.9-1.5-3.8-3.2-2.6c-1.7,1.2-3.3,2.9-4.7,4.8c-0.7,0.9-1.3,1.8-1.9,2.8 l-0.8-3.3l-0.6-2.5c-0.3-1.3-1.1-1.9-2-2.1c-1.5-0.3-3.2,0.9-3.2,3c0.1,4.2,0.9,8.5,2.1,12.8l-0.3,0.5c-3.5-1.3-7.3-2.7-10.1-2.3 c-1.7,0.3-2.4,1.8-1.4,3.2c1.5,2.3,5,3.6,8.4,4.5c-0.7,1.2-1.5,2.5-2.2,3.8c-1.4,2.6-2.7,5.4-3.2,8.1c-0.2,0.9-0.3,1.9-0.2,2.8 c0,0.3,0,0.6,0.1,0.9c0.2,1.6,2.3,2.3,3.5,1.2c1.8-1.8,3.2-4,4.4-6.3c1.4-2.7,2.6-5.6,3.8-8.3c0.7,2.1,1.6,4.2,2.6,6.3 c0.3,0.6,0.6,1.2,1,1.8c1.5,2.7,3.3,5.4,5.7,7.6c1.4,1.4,3.2-0.2,2.9-1.5C536.2,860.4,533.7,855.7,531.9,851.1z"/>
    <path fill="#F6B6AD" d="M559.4,844.4c0.2-0.3,0.4-0.6,0.6-0.9c1.4-2.3,2.4-4.9,3.2-7.5c0.8,2,1.6,4.1,2.3,6.2 c0.4,1.3,2.2,1,2.3-0.4c0.1-2.7-0.6-5.2-1.5-7.7c1.9,0.2,3.8,0.2,5.4-0.5c1-0.4,1.4-2.3,0.2-2.7c-1.1-0.4-2.3-0.8-3.5-1.2 c0.4-0.4,0.9-0.8,1.3-1.2c1.3-1.3,2.4-2.8,3.2-4.5c0,0,0,0,0-0.1c0.1-0.3,0.3-0.6,0.4-0.9c0.2-0.6-0.1-1.2-0.5-1.4 c-0.3-0.2-0.6-0.2-0.9,0.1c-0.6,0.5-1.1,0.9-1.7,1.4c-1.2,0.9-2.4,1.8-3.7,2.7c-0.2,0.2-0.5,0.3-0.7,0.5c0.7-3.4,1.1-6.9,0-9.5 c-0.4-1-1.8-1.4-2.4-0.5c-1.2,1.8-1.8,4.4-2.2,7c-0.6-1-1.3-1.9-2-2.7c-1.3-1.5-3.3,0.1-2.7,2.1c0.4,1.5,1.1,2.9,1.9,4.2 c-2.4-0.6-4.9-1.1-7-0.6c-2,0.6-3,3.9-0.7,4.8c1.2,0.4,2.4,0.8,3.7,1.1c-2,0.9-3.7,2.1-4.4,3.7c-0.3,0.8,0.1,1.5,0.7,1.9 c1.9,1.1,4.8,0.1,7.4-1.3c-0.3,0.9-0.5,1.9-0.7,2.8c-0.3,1.3-0.6,2.7-0.7,4C556.7,844.9,558.6,845.5,559.4,844.4z"/>
    <path fill="#F6B6AD" d="M564.3,863.2c-0.1-0.5-0.7-0.8-1.2-0.8c-1.2,0-2.3,0.5-3.2,1.1c-1,0.7-1.9,1.6-2.7,2.5 c-0.8-1.1-1.7-2.2-2.7-3.1c-1-0.9-2-1.7-3-2.2c-1.6-1-4.1,0.3-3.1,2c0.4,0.7,0.9,1.4,1.5,2c-3.2-0.4-6.3-0.1-8.7,1.1 c-0.8,0.4-0.6,1.5,0.3,1.8c1.2,0.5,2.5,0.8,3.9,1c2.6,0.4,5.2,0.6,7.8,1l0.2,0.1c-2.6,2.3-5.5,4.4-8.3,6.6c-1,0.8,0.5,2,1.7,1.7 c3.7-1,6.8-3,9.5-5c1.2,2.3,1.8,4.6,1.9,7c0,1,1.8,1.2,2.3,0.3c1.4-2.4,1-5.5-0.2-8.5c2,0.6,4.1,1.4,6.1,2 c1.5,0.4,2.6-1.3,1.5-2.1c-0.6-0.4-1.3-0.9-2-1.3c-1.2-0.7-2.5-1.4-3.9-2C563.6,866.6,564.8,864.9,564.3,863.2z"/>
    <path fill="#F6B6AD" d="M488,838.9c-0.5-1-1.1-2-1.6-3c-1.6-3-3.2-6-4.4-9.1l0.1-0.3l0.1-0.3c2.4-0.2,4.7-0.4,7-0.5 c1,0,1.9-0.1,2.9-0.1c0.8,0,1.4-0.3,1.9-0.7c1.2-1,1.5-2.9,0.2-4c-0.3-0.2-0.6-0.5-1-0.6c-2.4-0.9-5.3-0.9-8.3-0.6 c1.2-2.9,2.4-5.8,2.5-8.5c0.1-1.6-1.9-2.1-3.1-1.5c-2.5,1.3-4,4-5.2,6.9c-0.6-2.6-1.4-5-2.6-7.2c-1.2-2.3-4.8-1.5-4.8,1.1 c0,3.3,1,6.9,2.1,10.4c-2.6,0.1-5.2,0.2-7.8,0.3c-2.6,0-5.9-0.5-8.5,0c-1.6,0.3-1.9,2.5-0.2,3.6c0.4,0.3,0.8,0.5,1.3,0.7 c0.4,0.2,0.9,0.4,1.4,0.6c4.7,1.7,10.9,0.9,14.8,0.6l0.8-0.1c-1.2,3.6-2.4,7.2-3.3,10.9c-0.3,1.3,1.6,3.3,2.8,2.2 c1.8-1.6,3.1-3.6,4.1-5.7c1.1,1.9,2.6,3.7,4.2,5.1c0.7,0.6,1.4,1.1,2.1,1.6C487.2,841.7,488.8,840.4,488,838.9z"/>
    <path fill="#F6B6AD" d="M498.2,815.2c-1.4-0.2-1.9,1.7-0.9,2.5c0.9,0.7,1.9,1.1,3,1.3c1,0.2,2,0.2,3,0c0.7-0.1,1.5-0.2,2.2-0.4 c-0.2,1.6-0.5,3.3-0.8,4.8c-0.2,0.7,0.7,1.3,1.3,0.7c1.2-1.3,1.9-2.7,2.4-4.2l0.8,1.6l0.5,1.1c0.3,0.6,0.7,1.3,1.2,1.8 c0.1,0.2,0.3,0.4,0.6,0.5l0.1,0.1l0,0c0.5,1.3,2.4,0.6,2-0.7c-0.2-0.7-0.1-2.4-0.4-3.4c-0.4-1.5-0.9-3.1-1.5-4.6l1.5-0.7 c1.6-0.8,3.8-1.4,4.6-3.2c0.4-0.9,0.3-2.3-0.6-2.7c-1.9-0.7-4.4,0.7-6.7,1.9c0.5-1.5,1.1-2.9,2-4.4c0.9-1.8-0.9-3.7-2.4-2.1 c-0.6,0.7-1.2,1.5-1.6,2.3c-0.8-1.8-1.8-3.3-3.4-4c-1.7-0.9-3.3,1.6-2.9,3.2c0.4,1.6,1.5,3,2.2,4.5l1.2,2.7 c-1.7,0.7-3.6,1.3-5.3,1.5C499.5,815.3,498.8,815.3,498.2,815.2z"/>
    <path fill="#F6B6AD" d="M502.4,856c-1.6-0.4-3.1-0.9-4.7-1.2c0.5-0.5,1-0.9,1.3-1.4c0.4-0.5,0.7-1.1,0.8-1.6 c0.3-1.3-1.3-2.3-2.6-2.1c0,0,0,0,0,0c-1.4,0.2-2.6,1.2-3.7,2.2c-1.3-1-2.5-1.9-3.8-2.6c-2.2-1.3-4.2,1-2.4,2.8l0.5,0.4 c-1.9-0.5-3.7-0.8-5.5-0.4c-0.6,0.1-0.9,0.8-0.3,1.3c2,1.7,4.2,2.5,6.5,3.1c-0.3,0.3-0.7,0.7-1,0.8c-1.4,0.4-0.6,2.5,1,2.2 c2-0.3,3.6-0.9,5.2-1.8l1,0.2c1.6,1.4,3,2.9,4.4,4.5c0.9,1,2.8,0.6,2.4-0.6c-0.3-1.1-0.9-2.2-1.6-3.3c1,0,2-0.1,2.9-0.2 C504.2,857.9,503.6,856.3,502.4,856z"/>
    <path fill="#F6B6AD" d="M421.9,772.7c2.5,0.3,5.1,0,7.6-0.5c3-0.6,6.1-1.5,9-2.2c-1.2,1.9-2.4,4-3.4,6.2 c-0.2,0.5-0.5,1.1-0.7,1.6c-1.2,2.9-2.1,6-2.4,9.2c-0.1,2,2.2,2.4,2.9,1.3c2.8-4,4.9-8.8,7.4-13.1c1.8,3.1,4,5.9,6.8,7.4 c1.1,0.6,2.3-0.2,2.1-1.5c-0.9-3.9-3.4-7.6-5.4-11.3l1.1-1.5l6-0.9c1.6-0.2,3.2-0.3,4.8-0.5c1.6-0.2,3.1-0.4,4.5-1 c1.8-0.7,1.9-3.5,0.1-4.1c-2-0.6-4.4-0.8-6.9-0.7c-1.1,0-2.1,0.1-3.2,0.2c0.7-0.9,1.4-1.7,2.1-2.6c0.6-0.7,1.2-1.4,1.7-2.1 c0.7-1,0.8-1.9,0.4-2.7c-0.7-1.4-2.6-2.2-4.3-0.8c-3.3,2.7-6.1,6.1-8.7,9.6l-0.5,0.1c-1.2-3.5-2.4-7.4-4.6-9.3 c-1.3-1.1-2.9-0.8-3.4,0.9c-0.8,2.6,0.2,6.2,1.7,9.3c-1.5,0.2-3,0.4-4.5,0.7c-3,0.5-5.9,1.3-8.3,2.6c-0.8,0.4-1.6,0.9-2.3,1.5 c-0.2,0.2-0.4,0.4-0.6,0.6C419.6,770.4,420.3,772.5,421.9,772.7z"/>
    <path fill="#F6B6AD" d="M464.7,792.5c0.3,0,0.6,0,0.9-0.1c2.7-0.3,5.4-1.1,8-2.1c-1,1.9-2.2,3.7-3.4,5.6 c-0.7,1.1,0.6,2.4,1.7,1.6c2.2-1.6,3.7-3.7,5.1-6c1,1.6,2.2,3.1,3.8,3.9c0.9,0.5,2.6-0.3,2.2-1.6c-0.4-1.2-0.8-2.3-1.3-3.4 c0.5,0.1,1,0.2,1.6,0.2c2.3,0.3,4.5,0.2,6.7-0.6c0.6-0.2,1-0.9,0.8-1.4c-0.1-0.2-0.2-0.4-0.6-0.5c-0.8-0.2-1.5-0.3-2.3-0.5 c-1.5-0.4-2.9-0.7-4.4-1.2c-0.2-0.1-0.5-0.1-0.7-0.2c3.1-1.5,6.1-3.5,7.4-5.9c0.5-1-0.1-2.2-1.2-2.1c-2.1,0.2-4.5,1.3-6.8,2.6 c0.4-1.1,0.7-2.2,0.9-3.2c0.3-1.9-2-2.6-3.3-0.8c-0.9,1.3-1.6,2.7-2.2,4.1c-0.9-2.3-2.2-4.5-3.9-5.8c-1.6-1.2-4.9,0.1-4.1,2.5 c0.3,1.2,0.9,2.4,1.5,3.5c-2-0.9-4-1.6-5.7-1.1c-0.8,0.2-1.2,1-1,1.8c0.4,2.1,2.9,3.8,5.6,5c-0.9,0.4-1.9,0.8-2.8,1.3 c-1.2,0.6-2.4,1.2-3.5,1.9C462.5,790.7,463.4,792.6,464.7,792.5z"/>
    <path fill="#F6B6AD" d="M447.7,809.4c2.2,0.3,4.3,0.1,5.3-1.3c0.3-0.4,0.2-1-0.1-1.5c-0.8-1-1.8-1.5-3-1.8 c-1.1-0.3-2.3-0.4-3.5-0.5c0.3-1.3,0.6-2.7,0.7-4c0.1-1.3,0.1-2.6-0.1-3.8c-0.3-1.8-2.9-2.9-3.6-1.1c-0.3,0.8-0.5,1.6-0.6,2.4 c-1.8-2.7-3.7-5-6.3-6.1c-0.8-0.3-1.5,0.4-1.2,1.3c0.4,1.3,1.1,2.6,1.7,3.8c1.3,2.2,2.8,4.3,3.9,6.6l0.1,0.2 c-3.4-0.7-6.9-1.5-10.3-2.4c-1.2-0.3-1.3,1.7-0.3,2.4c3.3,2.2,6.5,3.5,9.9,4.3c-1,2.3-2.4,4.3-4.3,5.8c-0.8,0.7,0.1,2.2,1.2,2 c2.7-0.4,4.9-2.6,6.6-5.5c0.7,2,1.5,4,2.3,6c0.6,1.5,2.6,1.3,2.6-0.1c0-0.8-0.1-1.6-0.2-2.5C448.4,812.3,448.1,810.9,447.7,809.4 z"/>
  </g>
</svg>