<?xml version="1.0" encoding="utf-8"?>
<svg viewBox="229.035 -133.7 383.8 307.2" xmlns="http://www.w3.org/2000/svg">
  <path fill="#59C2AA" d="M892.4,261.7c0-0.1,0-0.2,0-0.3h0c-0.8-16.8-10-20.8-10-20.8c1.9-14.4-6.9-16.9-6.9-16.9 c0.6-10-5-11.9-5-11.9c-1.9-12.5-11.9-13.1-11.9-13.1C818,131.9,743,123.1,743,123.1c-8.8-13.8-28.8-9.4-28.8-9.4 c-2.5-5-13.7-5.6-13.7-5.6s-11.2,0.6-13.7,5.6c0,0-20-4.4-28.8,9.4c0,0-75,8.8-115.6,75.6c0,0-10,0.6-11.9,13.1c0,0-5.6,1.9-5,11.9 c0,0-8.8,2.5-6.9,16.9c0,0-9.1,4-10,20.8h0c0,0.1,0,0.2,0,0.3c0,0.1,0,0.2,0,0.3h0c0.8,16.8,10,20.8,10,20.8 c-1.9,14.4,6.9,16.9,6.9,16.9c-0.6,10,5,11.9,5,11.9c1.9,12.5,11.9,13.1,11.9,13.1C583,391.6,658,400.3,658,400.3 c8.8,13.8,28.8,9.4,28.8,9.4c2.5,5,13.7,5.6,13.7,5.6s11.2-0.6,13.7-5.6c0,0,20,4.4,28.8-9.4c0,0,75-8.8,115.6-75.6 c0,0,10-0.6,11.9-13.1c0,0,5.6-1.9,5-11.9c0,0,8.8-2.5,6.9-16.9c0,0,9.1-4,10-20.8h0C892.4,261.9,892.4,261.8,892.4,261.7z M700.5,120.2c5.3,0,9.6,4.3,9.6,9.6c0,5.3-4.3,9.6-9.6,9.6c-5.3,0-9.6-4.3-9.6-9.6C690.9,124.5,695.2,120.2,700.5,120.2z M526.9,271c-5.2,0-9.4-4.1-9.6-9.3c0.2-5.1,4.4-9.3,9.6-9.3c5.2,0,9.4,4.1,9.6,9.3C536.3,266.9,532.1,271,526.9,271z M700.5,403.2 c-5.3,0-9.6-4.3-9.6-9.6c0-5.3,4.3-9.6,9.6-9.6c5.3,0,9.6,4.3,9.6,9.6C710.1,399,705.8,403.2,700.5,403.2z M808.6,350.3 c-49.4,36.9-86.3,29.4-90,26.9c-3.8-2.5-11.7-4.7-18.1-4.7c-6.4,0-14.4,2.2-18.1,4.7c-3.8,2.5-40.6,10-90-26.9 c-46.2-34.5-47.5-82.2-47.5-88.3h0c0,0,0-0.1,0-0.3c0-0.2,0-0.3,0-0.3h0c0-6,1.3-53.8,47.5-88.3c49.4-36.9,86.3-29.4,90-26.9 s11.7,4.7,18.1,4.7c6.4,0,14.4-2.2,18.1-4.7s40.6-10,90,26.9c46.2,34.5,47.5,82.2,47.5,88.3h0c0,0,0,0.1,0,0.3c0,0.2,0,0.3,0,0.3h0 C856.1,268.1,854.8,315.8,808.6,350.3z M874,271c-5.2,0-9.4-4.1-9.6-9.3c0.2-5.1,4.4-9.3,9.6-9.3c5.2,0,9.4,4.1,9.6,9.3 C883.4,266.9,879.2,271,874,271z" transform="matrix(1, 0, 0, 1, -279.565216, -241.799988)"/>
</svg>