<?xml version="1.0" encoding="utf-8"?>
<svg viewBox="-1105.291 -35.269 315.433 312.464" xmlns="http://www.w3.org/2000/svg">
  <g transform="matrix(1, 0, 0, 1, -2190.774902, -293.286896)">
    <path fill="#F5B6AD" d="M1094.8,404.9c6.3-1.3,12.9-6.4,19.8-6.9l-0.5-0.5c-4.9-3.5-7.9-12.3-12.6-16.8 c-7.8-7.2-14.6,3.3-7.3,10.3c-5.1-0.8-9,1-8.7,7C1086,404.5,1089.1,405.7,1094.8,404.9z"/>
    <path fill="#57BFB2" d="M1111.5,414.3L1111.5,414.3c-1.1,2.4-0.4,5.1,3.2,5.2c3.3,0.3,6-3.6,8-5.2l0.6-0.4 c2.1-1.8,4.2-3.4,6.3-4.6l-0.5-0.4c-3.6-1-8.4-4.4-12-5.3c-6.1-1.2-12.3,5.2-3,7.9C1113,412.1,1112.1,413.2,1111.5,414.3z"/>
    <path fill="#D78580" d="M1112.1,352c7.7,1.9,18,3,25.6,2.2l-1.3-0.8c-5.6-5.1-5.2-17.1-10-23.4c-7.9-9.4-16.1-0.6-10.4,9.3 c-5-0.5-14.7-3.7-13.5,5.5C1102.7,350.1,1108.2,350.7,1112.1,352z"/>
    <path fill="#F7A33E" d="M1120.1,385c6.1-2,11.4-8.2,17.3-7.8l-1.9-0.7c-4.2-2.3-6.2-8.3-9.8-11.9c-6.8-7.5-17.9-1.6-8.3,7.7 C1104.1,369.6,1104,389.9,1120.1,385z"/>
    <path fill="#F5B6AD" d="M1128.6,319.4c5.9,2.6,14.2,2.4,20.1,6.1l0-0.7c-1.9-5.7,0.8-14.6-0.3-21c-2.1-10.5-13.8-5.9-11.9,4 c-3.6-3.6-7.9-4.5-11.1,0.5C1121.8,313.9,1123.5,316.7,1128.6,319.4z"/>
    <path fill="#57BFB2" d="M1154.3,343.4l-0.1-0.7c-2.4-2.9-4.2-8.6-6.6-11.3c-4.3-4.6-13-3-7.1,4.6c-1.4-0.1-2.7,0.2-3.7,0.8l0,0 c-2.3,1.3-3.4,3.8-0.5,6.1c2.5,2.1,7,0.7,9.6,0.5l0.7,0C1149.2,343.2,1151.9,343.1,1154.3,343.4z"/>
    <path fill="#D78580" d="M1193.2,303.6l-0.6-1.4c-1.5-7.4,5.9-16.9,5.7-24.8c-0.8-12.3-12.7-9.9-13.9,1.4 c-3.7-3.3-9.7-11.6-14.2-3.5c-2.9,4.4,1.2,8.1,3.6,11.5C1178.9,292.8,1186.5,299.7,1193.2,303.6z"/>
    <path fill="#F7A33E" d="M1160.8,318.2c6.1,2,14,0.1,18.6,3.8l-1.2-1.7c-2-4.3-0.2-10.4-0.9-15.4c-1.2-10.1-13.6-11.8-11.3,1.3 C1157,296.4,1145,312.7,1160.8,318.2z"/>
    <path fill="#57BFB2" d="M1206,299.6l-3.5-10.7c-2.6-0.3-5,1.1-4,4.6C1199.3,296.7,1203.8,298.2,1206,299.6z"/>
    <path fill="#F5B6AD" d="M1218.9,286.9l0.4-0.6c1.8-5.6,9.3-11.4,12.1-17.2c4.5-9.7-7.6-12.9-12-3.8c-0.8-5.1-3.7-8.3-9.3-6.1 c-6.1,2.4-6.3,5.7-3.9,10.9C1209.5,275.8,1216.3,280.4,1218.9,286.9z"/>
    <path fill="#57BFB2" d="M1212.9,304.6l0.3-0.6c-0.2-3.8,1.6-9.4,1.3-13.1c-0.8-6.2-8.7-10.1-8.4-0.4c-1.1-0.9-2.3-1.4-3.5-1.5 l3.5,10.7l0.6,0.4C1208.9,301.4,1211.2,303,1212.9,304.6z"/>
    <path fill="#D78580" d="M1267.8,295.3l0.3-1.5c3.1-6.8,14.7-10.2,19.2-16.8c6.5-10.4-4.5-15.5-12.1-7c-1-5-1.1-15-9.4-11.1 c-4.9,2-3.8,7.3-3.8,11.5C1262.6,278.2,1264.7,288.4,1267.8,295.3z"/>
    <path fill="#F7A33E" d="M1245.7,302.1l0-2.1c0.9-4.7,6-8.6,8.3-13c5-8.9-4-17.5-9.9-5.6c-1.5-13.2-20.8-7.2-11.3,6.6 C1236.7,293.4,1244.3,296.3,1245.7,302.1z"/>
    <path fill="#F5B6AD" d="M1298.5,296.9l0.7-0.3c4.8-3.5,14.1-3.7,19.9-6.8c9.3-5.1,1.4-15-7.6-10.1c2.4-4.5,1.9-9-3.9-10.4 c-6.3-1.7-8.5,1-9.6,6.6C1297.4,282.2,1300.1,290.3,1298.5,296.9z"/>
    <path fill="#57BFB2" d="M1285.9,292.3c-0.3-1.3-1.1-2.5-1.9-3.3l0,0c-1.9-1.9-4.7-1.9-5.9,1.4c-1.3,3.1,1.6,6.7,2.5,9.3l0.2,0.7 c1,2.5,2,5,2.4,7.4l0.6-0.3c2-3.1,6.9-6.7,8.7-9.8C1295.4,292.1,1291.3,284.3,1285.9,292.3z"/>
    <path fill="#D78580" d="M1359.5,329.1c11.4-4.6,5.5-15.2-5.7-12.7c2.1-4.7,8-12.8-1.1-14.5c-5.1-1.3-7.3,3.7-9.8,7 c-4.1,6.7-8.4,16.2-10,23.6l1.1-1C1340.6,327.7,1352,331.7,1359.5,329.1z"/>
    <path fill="#F7A33E" d="M1309.1,306.1c-0.1,6.6,4.3,13.3,2.1,18.9l1.2-1.6c3.4-3.2,9.9-3.4,14.3-5.6c9.3-4.3,7-16.5-4.7-10.4 C1328.6,295.8,1309.5,289.4,1309.1,306.1z"/>
    <path fill="#57BFB2" d="M1344.2,334.5c-2.8,1.7-2.7,6.4-3.4,9l9.1-6.6C1349.3,334.2,1347.1,332.6,1344.2,334.5z"/>
    <path fill="#F5B6AD" d="M1356.9,351.8l0.7,0.2c5.9,0,13.6,5.3,20.1,6.2c10.5,1.3,9.9-11.3-0.2-12.6c4.6-2.3,6.8-6.1,2.9-10.7 c-4.1-5.1-7.5-4.2-11.6-0.3C1364.6,339.3,1362.1,347.4,1356.9,351.8z"/>
    <path fill="#57BFB2" d="M1349.4,340.7c0.5-1.3,0.6-2.6,0.4-3.8l-9.1,6.6l-0.2,0.7c-0.7,2.7-1.3,5.2-2.4,7.4l0.7,0.1 c3.4-1.3,9.5-1.4,12.8-2.8C1357.3,346.2,1358.5,337.4,1349.4,340.7z"/>
    <path fill="#D78580" d="M1365.5,400.6c7.5,0.8,14.2,10.8,21.9,13.1c11.9,3,13.3-9,2.9-13.6c4.4-2.5,14-5.6,7.7-12.4 c-3.4-4.1-8.1-1.4-12.1-0.1c-7.3,3-16.3,8.1-22,13.2L1365.5,400.6z"/>
    <path fill="#F7A33E" d="M1360.1,365.5c-3.9,5.2-4.4,13.3-9.4,16.5l2-0.6c4.7-0.6,10,3,14.9,3.9c10,2,15.4-9.2,2.3-11.1 C1381.9,368.6,1370.2,352.2,1360.1,365.5z"/>
    <path fill="#F5B6AD" d="M1400.9,430.6c-0.5-6.5-3.5-7.8-9.3-7c-6.3,1.3-12.9,6.4-19.8,6.9l0.5,0.5c4.9,3.5,7.9,12.3,12.6,16.8 c7.8,7.2,14.6-3.3,7.3-10.3C1397.4,438.4,1401.2,436.6,1400.9,430.6z"/>
    <path fill="#57BFB2" d="M1372.4,417.1c1.2-0.7,2.1-1.8,2.6-2.9h0c1.1-2.4,0.4-5.1-3.2-5.2c-3.3-0.3-6,3.6-8,5.2l-0.6,0.4 c-2.1,1.8-4.2,3.4-6.3,4.6l0.5,0.4c3.6,1,8.4,4.4,12,5.3C1375.5,426.2,1381.7,419.8,1372.4,417.1z"/>
    <path fill="#D78580" d="M1374.4,476.6c-7.7-1.9-18-3-25.6-2.2l1.3,0.8c5.6,5.1,5.2,17.1,10,23.4c7.9,9.4,16.1,0.6,10.4-9.3 c5,0.5,14.7,3.7,13.5-5.5C1383.8,478.4,1378.3,477.9,1374.4,476.6z"/>
    <path fill="#F7A33E" d="M1366.4,443.5c-6.1,2-11.4,8.2-17.3,7.8l1.9,0.7c4.2,2.3,6.2,8.3,9.8,11.9c6.8,7.5,17.9,1.6,8.3-7.7 C1382.4,458.9,1382.5,438.7,1366.4,443.5z"/>
    <path fill="#F5B6AD" d="M1357.9,509.1c-5.9-2.6-14.2-2.4-20.1-6.1l0,0.7c1.9,5.7-0.8,14.6,0.3,21c2.1,10.5,13.8,5.9,11.9-4 c3.6,3.6,7.9,4.5,11.1-0.5C1364.7,514.6,1362.9,511.8,1357.9,509.1z"/>
    <path fill="#57BFB2" d="M1349.8,491.7L1349.8,491.7c2.3-1.3,3.4-3.8,0.5-6.1c-2.5-2.1-7-0.7-9.6-0.5l-0.7,0 c-2.7,0.2-5.4,0.3-7.8,0l0.1,0.7c2.4,2.9,4.2,8.6,6.6,11.3c4.3,4.6,13,3,7.1-4.6C1347.4,492.6,1348.7,492.3,1349.8,491.7z"/>
    <path fill="#D78580" d="M1293.3,524.9l0.6,1.4c1.5,7.4-5.9,16.9-5.7,24.8c0.8,12.3,12.7,9.9,13.9-1.4c3.7,3.3,9.7,11.6,14.2,3.5 c2.9-4.4-1.2-8.1-3.6-11.5C1307.5,535.7,1299.9,528.8,1293.3,524.9z"/>
    <path fill="#F7A33E" d="M1325.7,510.3c-6.1-2-14-0.1-18.6-3.8l1.2,1.7c2,4.3,0.2,10.4,0.9,15.4c1.2,10.1,13.6,11.8,11.3-1.3 C1329.5,532.1,1341.5,515.8,1325.7,510.3z"/>
    <path fill="#57BFB2" d="M1280.5,528.9l3.5,10.7c2.6,0.3,5-1.1,4-4.6C1287.2,531.8,1282.7,530.3,1280.5,528.9z"/>
    <path fill="#F5B6AD" d="M1267.6,541.6l-0.4,0.6c-1.8,5.6-9.3,11.4-12.1,17.2c-4.5,9.7,7.6,12.9,12,3.8c0.8,5.1,3.7,8.3,9.3,6.1 c6.1-2.4,6.3-5.7,3.9-10.9C1277,552.8,1270.2,548.1,1267.6,541.6z"/>
    <path fill="#57BFB2" d="M1273.6,523.9l-0.3,0.6c0.2,3.8-1.6,9.4-1.3,13.1c0.8,6.2,8.7,10.1,8.4,0.4c1.1,0.9,2.3,1.4,3.5,1.5 l-3.5-10.7l-0.6-0.4C1277.6,527.1,1275.3,525.5,1273.6,523.9z"/>
    <path fill="#D78580" d="M1218.7,533.2l-0.3,1.5c-3.1,6.8-14.7,10.2-19.2,16.8c-6.5,10.4,4.5,15.5,12.1,7c1,5,1.1,15,9.4,11.1 c5-2,3.8-7.3,3.8-11.5C1223.9,550.4,1221.8,540.1,1218.7,533.2z"/>
    <path fill="#F7A33E" d="M1253.5,540.4c-3.8-5.3-11.3-8.2-12.8-14l0,2.1c-0.9,4.7-6,8.6-8.3,13c-5,8.9,4,17.5,9.9,5.6 C1243.8,560.2,1263,554.3,1253.5,540.4z"/>
    <path fill="#F5B6AD" d="M1188,531.6l-0.7,0.3c-4.8,3.5-14.1,3.7-19.9,6.8c-9.3,5.1-1.4,15,7.6,10.1c-2.4,4.5-1.9,9,3.9,10.4 c6.3,1.7,8.5-1,9.6-6.6C1189.1,546.3,1186.4,538.3,1188,531.6z"/>
    <path fill="#57BFB2" d="M1200.6,536.2c0.3,1.3,1,2.5,1.9,3.3v0c1.9,1.9,4.7,1.9,5.9-1.4c1.3-3.1-1.6-6.7-2.5-9.3l-0.2-0.7 c-1-2.5-2-5-2.4-7.4l-0.6,0.3c-2,3.1-6.9,6.7-8.7,9.8C1191,536.4,1195.2,544.2,1200.6,536.2z"/>
    <path fill="#D78580" d="M1127,499.4c-11.4,4.6-5.5,15.2,5.7,12.7c-2.1,4.7-8,12.8,1.1,14.5c5.1,1.3,7.3-3.7,9.8-7 c4.1-6.7,8.4-16.2,10-23.6l-1.1,1C1145.8,500.8,1134.4,496.8,1127,499.4z"/>
    <path fill="#F7A33E" d="M1177.4,522.4c0.1-6.6-4.3-13.3-2.1-18.9l-1.2,1.6c-3.4,3.2-9.9,3.4-14.3,5.6c-9.3,4.3-7,16.5,4.7,10.4 C1157.9,532.7,1177,539.1,1177.4,522.4z"/>
    <path fill="#57BFB2" d="M1142.3,494c2.8-1.7,2.7-6.4,3.4-9l-9.1,6.6C1137.1,494.3,1139.4,496,1142.3,494z"/>
    <path fill="#F5B6AD" d="M1129.6,476.7l-0.7-0.2c-5.9,0-13.6-5.3-20.1-6.2c-10.5-1.3-9.9,11.3,0.2,12.6c-4.6,2.3-6.8,6.1-2.9,10.7 c4.1,5.1,7.5,4.2,11.6,0.3C1121.9,489.2,1124.4,481.1,1129.6,476.7z"/>
    <path fill="#57BFB2" d="M1148.3,476.9l-0.7-0.1c-3.4,1.3-9.5,1.4-12.8,2.8c-5.6,2.6-6.9,11.4,2.2,8.1c-0.5,1.3-0.6,2.6-0.4,3.8 l9.1-6.6l0.2-0.7C1146.6,481.7,1147.3,479.2,1148.3,476.9z"/>
    <path fill="#D78580" d="M1121,427.9c-7.5-0.8-14.2-10.8-21.9-13.1c-11.9-3-13.3,9-2.9,13.6c-4.4,2.5-14,5.6-7.7,12.4 c3.4,4.1,8.1,1.4,12.1,0.1c7.3-3,16.3-8.1,22-13.2L1121,427.9z"/>
    <path fill="#F7A33E" d="M1126.4,463c3.9-5.2,4.4-13.3,9.4-16.5l-2,0.6c-4.7,0.6-10-3-14.9-3.9c-10-2-15.4,9.2-2.3,11.1 C1104.5,459.9,1116.2,476.4,1126.4,463z"/>
  </g>
</svg>