<?xml version="1.0" encoding="utf-8"?>
<svg viewBox="0 0 500 500" xmlns="http://www.w3.org/2000/svg" xmlns:xlink="http://www.w3.org/1999/xlink">
  <path id="XMLID_47_" class="st3" d="M 176.638 435.025 C 176.638 432.591 174.681 430.633 172.247 430.633 L 172.247 439.364 C 174.681 439.417 176.638 437.459 176.638 435.025 Z" style="fill: none;" transform="matrix(0.999992, -0.003901, 0.003901, 0.999992, -1.695605, 0.68381)"/>
  <path id="XMLID_48_" class="st3" d="M 176.547 411.69 C 176.547 409.256 174.59 407.298 172.156 407.298 L 172.156 416.029 C 174.59 416.029 176.547 414.071 176.547 411.69 Z" style="fill: none;" transform="matrix(0.999992, -0.003901, 0.003901, 0.999992, -1.604573, 0.683278)"/>
  <path id="XMLID_120_" class="st3" d="M 176.687 447.406 C 176.687 444.972 174.729 443.015 172.295 443.015 L 172.295 451.798 C 174.729 451.798 176.687 449.84 176.687 447.406 Z" style="fill: none;" transform="matrix(0.999992, -0.003901, 0.003901, 0.999992, -1.744006, 0.684094)"/>
  <path id="XMLID_122_" class="st3" d="M 176.592 423.013 C 176.592 420.579 174.634 418.622 172.2 418.622 L 172.2 427.352 C 174.634 427.352 176.592 425.395 176.592 423.013 Z" style="fill: none;" transform="matrix(0.999992, -0.003901, 0.003901, 0.999992, -1.648746, 0.683538)"/>
  <path id="XMLID_123_" class="st3" d="M 168.043 483.246 C 168.043 485.68 170.001 487.637 172.435 487.637 L 172.435 478.907 C 170.001 478.907 168.043 480.865 168.043 483.246 Z" style="fill: none;" transform="matrix(0.999992, -0.003901, 0.003901, 0.999992, -1.88395, 0.66778)"/>
  <path id="XMLID_124_" class="st3" d="M 176.78 471.217 C 176.78 468.783 174.822 466.825 172.388 466.825 L 172.388 475.556 C 174.822 475.556 176.78 473.598 176.78 471.217 Z" style="fill: none;" transform="matrix(0.999992, -0.003901, 0.003901, 0.999992, -1.836787, 0.684638)"/>
  <path id="XMLID_125_" class="st3" d="M 176.734 459.471 C 176.734 457.037 174.776 455.079 172.342 455.079 L 172.342 463.81 C 174.776 463.862 176.734 461.905 176.734 459.471 Z" style="fill: none;" transform="matrix(0.999992, -0.003901, 0.003901, 0.999992, -1.790968, 0.684369)"/>
  <path id="XMLID_129_" class="st3" d="M 176.361 363.963 C 176.361 361.529 174.403 359.571 171.969 359.571 L 171.969 368.302 C 174.403 368.355 176.361 366.397 176.361 363.963 Z" style="fill: none;" transform="matrix(0.999992, -0.003901, 0.003901, 0.999992, -1.418394, 0.682187)"/>
  <path id="XMLID_130_" class="st3" d="M 176.315 351.952 C 176.315 349.517 174.357 347.56 171.923 347.56 L 171.923 356.29 C 174.357 356.29 176.315 354.333 176.315 351.952 Z" style="fill: none;" transform="matrix(0.999992, -0.003901, 0.003901, 0.999992, -1.371535, 0.681916)"/>
  <path id="XMLID_131_" class="st3" d="M 176.5 399.626 C 176.5 397.192 174.543 395.234 172.109 395.234 L 172.109 403.965 C 174.543 404.018 176.5 402.06 176.5 399.626 Z" style="fill: none;" transform="matrix(0.999992, -0.003901, 0.003901, 0.999992, -1.557514, 0.683003)"/>
  <path id="XMLID_132_" class="st3" d="M 176.223 328.564 C 176.223 326.13 174.265 324.172 171.831 324.172 L 171.831 332.903 C 174.265 332.956 176.223 330.998 176.223 328.564 Z" style="fill: none;" transform="matrix(0.999992, -0.003901, 0.003901, 0.999992, -1.280303, 0.681379)"/>
  <path id="XMLID_133_" class="st3" d="M 176.178 316.871 C 176.178 314.437 174.22 312.479 171.786 312.479 L 171.786 321.209 C 174.22 321.209 176.178 319.252 176.178 316.871 Z" style="fill: none;" transform="matrix(0.999992, -0.003901, 0.003901, 0.999992, -1.234685, 0.681115)"/>
  <path id="XMLID_134_" class="st3" d="M 176.27 340.628 C 176.27 338.194 174.312 336.236 171.878 336.236 L 171.878 344.967 C 174.312 344.967 176.27 343.009 176.27 340.628 Z" style="fill: none;" transform="matrix(0.999992, -0.003901, 0.003901, 0.999992, -1.327362, 0.681655)"/>
  <path id="XMLID_135_" class="st3" d="M 167.996 471.234 C 167.996 473.668 169.954 475.626 172.388 475.626 L 172.388 466.895 C 169.954 466.843 167.996 468.8 167.996 471.234 Z" style="fill: none;" transform="matrix(0.999992, -0.003901, 0.003901, 0.999992, -1.837091, 0.667505)"/>
  <path id="XMLID_136_" class="st3" d="M 176.455 387.932 C 176.455 385.498 174.497 383.541 172.063 383.541 L 172.063 392.271 C 174.497 392.271 176.455 390.314 176.455 387.932 Z" style="fill: none;" transform="matrix(0.999992, -0.003901, 0.003901, 0.999992, -1.511896, 0.682736)"/>
  <path id="XMLID_137_" class="st3" d="M 176.408 375.868 C 176.408 373.434 174.45 371.476 172.016 371.476 L 172.016 380.207 C 174.45 380.26 176.408 378.302 176.408 375.868 Z" style="fill: none;" transform="matrix(0.999992, -0.003901, 0.003901, 0.999992, -1.464835, 0.682461)"/>
  <path id="XMLID_139_" class="st3" d="M 176.827 483.228 C 176.827 480.794 174.869 478.836 172.435 478.836 L 172.435 487.567 C 174.869 487.62 176.827 485.662 176.827 483.228 Z" style="fill: none;" transform="matrix(0.999992, -0.003901, 0.003901, 0.999992, -1.883643, 0.684912)"/>
  <path id="XMLID_156_" class="st3" d="M 167.531 351.968 C 167.531 354.402 169.489 356.36 171.923 356.36 L 171.923 347.577 C 169.489 347.577 167.531 349.534 167.531 351.968 Z" style="fill: none;" transform="matrix(0.999992, -0.003901, 0.003901, 0.999992, -1.371738, 0.664783)"/>
  <path id="XMLID_157_" class="st3" d="M 167.951 459.488 C 167.951 461.922 169.908 463.879 172.342 463.879 L 172.342 455.149 C 169.908 455.096 167.951 457.054 167.951 459.488 Z" style="fill: none;" transform="matrix(0.999992, -0.003901, 0.003901, 0.999992, -1.791268, 0.667238)"/>
  <path id="XMLID_158_" class="st3" d="M 167.487 340.646 C 167.487 343.08 169.445 345.037 171.879 345.037 L 171.879 336.307 C 169.445 336.254 167.487 338.212 167.487 340.646 Z" style="fill: none;" transform="matrix(0.999992, -0.003901, 0.003901, 0.999992, -1.327669, 0.664526)"/>
  <path id="XMLID_159_" class="st3" d="M 167.624 375.885 C 167.624 378.319 169.582 380.277 172.016 380.277 L 172.016 371.546 C 169.582 371.493 167.624 373.451 167.624 375.885 Z" style="fill: none;" transform="matrix(0.999992, -0.003901, 0.003901, 0.999992, -1.465137, 0.665328)"/>
  <path id="XMLID_160_" class="st3" d="M 167.44 328.581 C 167.44 331.015 169.398 332.973 171.832 332.973 L 171.832 324.242 C 169.398 324.19 167.44 326.147 167.44 328.581 Z" style="fill: none;" transform="matrix(0.999992, -0.003901, 0.003901, 0.999992, -1.280606, 0.664251)"/>
  <path id="XMLID_161_" class="st3" d="M 167.394 316.888 C 167.394 319.322 169.352 321.279 171.786 321.279 L 171.786 312.549 C 169.352 312.496 167.394 314.453 167.394 316.888 Z" style="fill: none;" transform="matrix(0.999992, -0.003901, 0.003901, 0.999992, -1.23499, 0.663982)"/>
  <path id="XMLID_162_" class="st3" d="M 167.578 363.98 C 167.578 366.414 169.536 368.372 171.97 368.372 L 171.97 359.641 C 169.536 359.641 167.578 361.599 167.578 363.98 Z" style="fill: none;" transform="matrix(0.999992, -0.003901, 0.003901, 0.999992, -1.418698, 0.665058)"/>
  <path id="XMLID_163_" class="st3" d="M 167.808 423.03 C 167.808 425.464 169.766 427.422 172.2 427.422 L 172.2 418.691 C 169.766 418.639 167.808 420.596 167.808 423.03 Z" style="fill: none;" transform="matrix(0.999992, -0.003901, 0.003901, 0.999992, -1.649049, 0.666405)"/>
  <path id="XMLID_164_" class="st3" d="M 167.855 435.042 C 167.855 437.476 169.813 439.433 172.247 439.433 L 172.247 430.703 C 169.813 430.703 167.855 432.661 167.855 435.042 Z" style="fill: none;" transform="matrix(0.999992, -0.003901, 0.003901, 0.999992, -1.695907, 0.66668)"/>
  <path id="XMLID_165_" class="st3" d="M 167.671 387.949 C 167.671 390.383 169.629 392.341 172.063 392.341 L 172.063 383.558 C 169.629 383.558 167.671 385.515 167.671 387.949 Z" style="fill: none;" transform="matrix(0.999992, -0.003901, 0.003901, 0.999992, -1.512099, 0.665603)"/>
  <path id="XMLID_166_" class="st3" d="M 167.903 447.423 C 167.903 449.857 169.861 451.815 172.295 451.815 L 172.295 443.084 C 169.861 443.084 167.903 445.042 167.903 447.423 Z" style="fill: none;" transform="matrix(0.999992, -0.003901, 0.003901, 0.999992, -1.744207, 0.666961)"/>
  <path id="XMLID_167_" class="st3" d="M 167.764 411.707 C 167.764 414.141 169.722 416.099 172.156 416.099 L 172.156 407.369 C 169.722 407.316 167.764 409.273 167.764 411.707 Z" style="fill: none;" transform="matrix(0.999992, -0.003901, 0.003901, 0.999992, -1.60488, 0.666147)"/>
  <path id="XMLID_168_" class="st3" d="M 167.717 399.643 C 167.717 402.077 169.675 404.035 172.109 404.035 L 172.109 395.304 C 169.675 395.251 167.717 397.209 167.717 399.643 Z" style="fill: none;" transform="matrix(0.999992, -0.003901, 0.003901, 0.999992, -1.557816, 0.665872)"/>
  <path id="XMLID_169_" class="st1" d="M 167.714 483.446 C 167.714 481.012 169.672 479.054 172.106 479.054 L 172.106 475.773 C 169.672 475.773 167.714 473.815 167.714 471.381 C 167.714 468.947 169.672 466.99 172.106 466.99 L 172.106 464.026 C 169.672 464.026 167.714 462.069 167.714 459.635 C 167.714 457.201 169.672 455.243 172.106 455.243 L 172.106 452.015 C 169.672 452.015 167.714 450.057 167.714 447.623 C 167.714 445.189 169.672 443.232 172.106 443.232 L 172.106 439.581 C 169.672 439.581 167.714 437.623 167.714 435.189 C 167.714 432.755 169.672 430.797 172.106 430.797 L 172.106 427.516 C 169.672 427.516 167.714 425.559 167.714 423.125 C 167.714 420.691 169.672 418.733 172.106 418.733 L 172.106 416.14 C 169.672 416.14 167.714 414.182 167.714 411.748 C 167.714 409.314 169.672 407.356 172.106 407.356 L 172.106 404.076 C 169.672 404.076 167.714 402.118 167.714 399.684 C 167.714 397.25 169.672 395.292 172.106 395.292 L 172.106 392.329 C 169.672 392.329 167.714 390.371 167.714 387.937 C 167.714 385.503 169.672 383.545 172.106 383.545 L 172.106 380.265 C 169.672 380.265 167.714 378.307 167.714 375.873 C 167.714 373.439 169.672 371.481 172.106 371.481 L 172.106 368.359 C 169.672 368.359 167.714 366.402 167.714 363.968 C 167.714 361.534 169.672 359.576 172.106 359.576 L 172.106 356.295 C 169.672 356.295 167.714 354.337 167.714 351.903 C 167.714 349.469 169.672 347.512 172.106 347.512 L 172.106 344.919 C 169.672 344.919 167.714 342.961 167.714 340.527 C 167.714 338.093 169.672 336.135 172.106 336.135 L 172.106 332.855 C 169.672 332.855 167.714 330.897 167.714 328.463 C 167.714 326.029 169.672 324.071 172.106 324.071 L 172.106 321.108 C 169.672 321.108 167.714 319.15 167.714 316.716 C 167.714 314.282 169.672 312.324 172.106 312.324 L 172.106 309.044 C 169.672 309.044 167.714 307.086 167.714 304.652 C 167.714 304.652 167.714 304.652 167.714 304.652 L 69.825 304.652 C 69.825 304.652 69.825 304.705 69.825 304.705 C 69.825 307.139 67.867 309.097 65.433 309.097 L 65.433 312.377 C 67.867 312.377 69.825 314.335 69.825 316.769 C 69.825 319.203 67.867 321.161 65.433 321.161 L 65.433 324.124 C 67.867 324.124 69.825 326.082 69.825 328.516 C 69.825 330.95 67.867 332.907 65.433 332.907 L 65.433 336.188 C 67.867 336.188 69.825 338.146 69.825 340.58 C 69.825 343.014 67.867 344.972 65.433 344.972 L 65.433 347.564 C 67.867 347.564 69.825 349.522 69.825 351.956 C 69.825 354.39 67.867 356.348 65.433 356.348 L 65.433 359.629 C 67.867 359.629 69.825 361.586 69.825 364.02 C 69.825 366.454 67.867 368.412 65.433 368.412 L 65.433 372.01 C 65.909 372.01 66.332 371.957 66.809 371.957 C 81.73 371.957 93.794 384.022 93.794 398.943 C 93.794 413.865 81.73 425.929 66.809 425.929 C 66.332 425.929 65.909 425.929 65.433 425.876 L 65.433 429.686 C 67.867 429.686 69.825 431.644 69.825 434.078 C 69.825 436.512 67.867 438.469 65.433 438.469 L 65.433 441.75 C 67.867 441.75 69.825 443.708 69.825 446.142 C 69.825 448.576 67.867 450.534 65.433 450.534 L 65.433 453.497 C 67.867 453.497 69.825 455.455 69.825 457.889 C 69.825 460.323 67.867 462.28 65.433 462.28 L 65.433 465.561 C 67.867 465.561 69.825 467.519 69.825 469.953 C 69.825 472.387 67.867 474.345 65.433 474.345 L 65.433 476.937 C 67.867 476.937 69.825 478.895 69.825 481.329 C 69.825 483.763 67.867 485.721 65.433 485.721 L 65.433 489.001 C 67.814 489.001 69.719 490.906 69.825 493.235 L 167.979 493.235 C 168.614 491.541 170.201 490.377 172.106 490.377 L 172.106 487.784 C 169.672 487.837 167.714 485.88 167.714 483.446 Z" style="fill: rgb(255, 216, 57);" transform="matrix(0.999992, -0.003901, 0.003901, 0.999992, -1.555376, 0.466356)"/>
  <g id="XMLID_621_" transform="matrix(0.529128, -0.002064, 0.002064, 0.529128, -243.711761, 216.905869)" style="">
    <g id="XMLID_384_">
      <path id="XMLID_401_" class="st8" d="M733.2,413.3c0,3,0,5.8,0,8.8c-17.7,0-35.3,0-53.1,0c0-2.9,0-5.8,0-8.8 C697.8,413.3,715.4,413.3,733.2,413.3z" style="fill: rgb(255, 255, 255);"/>
      <path id="XMLID_400_" class="st8" d="M733.1,468.7c0,2.6,0,5,0,7.5c-17.7,0-35.3,0-53,0c0-2.5,0-4.9,0-7.5 C697.8,468.7,715.4,468.7,733.1,468.7z" style="fill: rgb(255, 255, 255);"/>
      <path id="XMLID_399_" class="st8" d="M680.1,494.2c0-1.7,0-3.3,0-4.9c17.7,0,35.3,0,53,0c0,1.6,0,3.3,0,4.9 C715.4,494.2,697.8,494.2,680.1,494.2z" style="fill: rgb(255, 255, 255);"/>
      <path id="XMLID_398_" class="st8" d="M733.2,478.8c0,0.9,0,1.6,0,2.4c-17.7,0-35.3,0-53.1,0c0-0.8,0-1.5,0-2.4 C697.8,478.8,715.4,478.8,733.2,478.8z" style="fill: rgb(255, 255, 255);"/>
      <path id="XMLID_397_" class="st8" d="M733.2,498c0,0.9,0,1.6,0,2.4c-17.7,0-35.3,0-53.1,0c0-0.8,0-1.5,0-2.4 C697.8,498,715.4,498,733.2,498z" style="fill: rgb(255, 255, 255);"/>
      <path id="XMLID_396_" class="st8" d="M680.1,463.3c0-0.8,0-1.6,0-2.4c17.7,0,35.3,0,53,0c0,0.8,0,1.5,0,2.4 C715.5,463.3,697.9,463.3,680.1,463.3z" style="fill: rgb(255, 255, 255);"/>
      <path id="XMLID_395_" class="st8" d="M680.1,455.9c0-0.8,0-1.6,0-2.4c17.7,0,35.3,0,53,0c0,0.8,0,1.6,0,2.4 C715.5,455.9,697.8,455.9,680.1,455.9z" style="fill: rgb(255, 255, 255);"/>
      <path id="XMLID_394_" class="st8" d="M733.1,449.1c0,0.8,0,1.5,0,2.4c-17.7,0-35.3,0-53.1,0c0-0.8,0-1.6,0-2.4 C697.7,449.1,715.3,449.1,733.1,449.1z" style="fill: rgb(255, 255, 255);"/>
      <path id="XMLID_393_" class="st8" d="M680.1,445.8c0-0.8,0-1.5,0-2.4c17.7,0,35.3,0,53.1,0c0,0.8,0,1.5,0,2.4 C715.5,445.8,697.8,445.8,680.1,445.8z" style="fill: rgb(255, 255, 255);"/>
      <path id="XMLID_392_" class="st8" d="M733.2,435c0,0.9,0,1.6,0,2.4c-17.7,0-35.4,0-53.1,0c0-0.8,0-1.5,0-2.4 C697.8,435,715.4,435,733.2,435z" style="fill: rgb(255, 255, 255);"/>
      <path id="XMLID_391_" class="st8" d="M733.2,424.8c0,0.8,0,1.5,0,2.4c-17.7,0-35.3,0-53.1,0c0-0.4-0.1-0.8-0.1-1.2 c0-0.4,0-0.7,0.1-1.2C697.8,424.8,715.4,424.8,733.2,424.8z" style="fill: rgb(255, 255, 255);"/>
      <path id="XMLID_390_" class="st8" d="M680.1,411.4c0-0.8,0-1.5,0-2.3c17.7,0,35.3,0,53,0c0,0.7,0,1.5,0,2.3 C715.5,411.4,697.9,411.4,680.1,411.4z" style="fill: rgb(255, 255, 255);"/>
      <path id="XMLID_389_" class="st8" d="M680.1,401.6c0-0.8,0-1.5,0-2.3c17.7,0,35.3,0,53.1,0c0,0.8,0,1.5,0,2.3 C715.4,401.6,697.8,401.6,680.1,401.6z" style="fill: rgb(255, 255, 255);"/>
      <path id="XMLID_388_" class="st8" d="M733.1,438.6c0,0.8,0,1.5,0,2.4c-17.7,0-35.3,0-53,0c0-0.8,0-1.5,0-2.4 C697.8,438.6,715.4,438.6,733.1,438.6z" style="fill: rgb(255, 255, 255);"/>
      <path id="XMLID_387_" class="st8" d="M733.1,483.5c0,0.6,0,1.1,0,1.7c-17.7,0-35.3,0-53,0c0-0.5,0-1.1,0-1.7 C697.7,483.5,715.3,483.5,733.1,483.5z" style="fill: rgb(255, 255, 255);"/>
      <path id="XMLID_386_" class="st8" d="M680.1,446.8c17.7,0,35.3,0,52.9,0c0.1,0.1,0.2,0.3,0.3,0.4c-0.3,0.3-0.6,0.6-0.9,0.7 c-0.2,0.1-0.6,0-0.8,0c-16.7,0-33.4,0-50.1,0C680.9,447.9,679.8,448.3,680.1,446.8z" style="fill: rgb(255, 255, 255);"/>
      <path id="XMLID_385_" class="st8" d="M733.1,429.5c-17.7,0-35.4,0-53,0c0-0.1,0-0.3,0-0.4c17.7,0,35.4,0,53,0 C733.1,429.2,733.1,429.3,733.1,429.5z" style="fill: rgb(255, 255, 255);"/>
    </g>
  </g>
  <g id="XMLID_128_" transform="matrix(0.529128, -0.002064, 0.002064, 0.529128, -243.711761, 216.905869)" style="">
    <defs>
      <path id="XMLID_140_" d="M1277,183.8v-6.2c-4.6,0-8.3-3.7-8.3-8.3c0,0,0-0.1,0-0.1h-476c0,0,0,0,0,0c0,4.6-3.7,8.3-8.3,8.3v6.2 c4.6,0,8.3,3.7,8.3,8.3c0,4.6-3.7,8.3-8.3,8.3v5.6c4.6,0,8.3,3.7,8.3,8.3s-3.7,8.3-8.3,8.3v6.2c4.6,0,8.3,3.7,8.3,8.3 s-3.7,8.3-8.3,8.3v4.9c4.6,0,8.3,3.7,8.3,8.3c0,4.6-3.7,8.3-8.3,8.3v6.2c4.6,0,8.3,3.7,8.3,8.3c0,4.6-3.7,8.3-8.3,8.3v5.9 c4.6,0,8.3,3.7,8.3,8.3c0,4.6-3.7,8.3-8.3,8.3v6.2c4.6,0,8.3,3.7,8.3,8.3c0,4.6-3.7,8.3-8.3,8.3v5.6c4.6,0,8.3,3.7,8.3,8.3 c0,4.6-3.7,8.3-8.3,8.3v6.2c4.6,0,8.3,3.7,8.3,8.3c0,4.6-3.7,8.3-8.3,8.3v4.9c4.6,0,8.3,3.7,8.3,8.3c0,4.6-3.7,8.3-8.3,8.3v6.2 c4.6,0,8.3,3.7,8.3,8.3c0,4.6-3.7,8.3-8.3,8.3v6.9c4.6,0,8.3,3.7,8.3,8.3c0,4.6-3.7,8.3-8.3,8.3v6.2c4.6,0,8.3,3.7,8.3,8.3 c0,4.6-3.7,8.3-8.3,8.3v5.6c4.6,0,8.3,3.7,8.3,8.3c0,4.6-3.7,8.3-8.3,8.3v6.2c4.6,0,8.3,3.7,8.3,8.3c0,4.6-3.7,8.3-8.3,8.3v4.9 c3.6,0,6.6,2.3,7.8,5.4h476.5c0.1-4.5,3.7-8.2,8.3-8.2v-6.2c-4.6,0-8.3-3.7-8.3-8.3c0-4.6,3.7-8.3,8.3-8.3v-4.9 c-4.6,0-8.3-3.7-8.3-8.3c0-4.6,3.7-8.3,8.3-8.3v-6.2c-4.6,0-8.3-3.7-8.3-8.3c0-4.6,3.7-8.3,8.3-8.3v-5.6c-4.6,0-8.3-3.7-8.3-8.3 c0-4.6,3.7-8.3,8.3-8.3v-6.2c-4.6,0-8.3-3.7-8.3-8.3c0-4.6,3.7-8.3,8.3-8.3v-6.9c-28.2,0-51-22.8-51-51s22.8-51,51-51v-6.7 c-4.6,0-8.3-3.7-8.3-8.3c0-4.6,3.7-8.3,8.3-8.3v-6.2c-4.6,0-8.3-3.7-8.3-8.3c0-4.6,3.7-8.3,8.3-8.3v-4.9c-4.6,0-8.3-3.7-8.3-8.3 c0-4.6,3.7-8.3,8.3-8.3v-6.2c-4.6,0-8.3-3.7-8.3-8.3c0-4.6,3.7-8.3,8.3-8.3v-5.6c-4.6,0-8.3-3.7-8.3-8.3 C1268.7,187.5,1272.4,183.8,1277,183.8z"/>
    </defs>
    <clipPath id="XMLID_154_">
      <path d="M1277,183.8v-6.2c-4.6,0-8.3-3.7-8.3-8.3c0,0,0-0.1,0-0.1h-476c0,0,0,0,0,0c0,4.6-3.7,8.3-8.3,8.3v6.2 c4.6,0,8.3,3.7,8.3,8.3c0,4.6-3.7,8.3-8.3,8.3v5.6c4.6,0,8.3,3.7,8.3,8.3s-3.7,8.3-8.3,8.3v6.2c4.6,0,8.3,3.7,8.3,8.3 s-3.7,8.3-8.3,8.3v4.9c4.6,0,8.3,3.7,8.3,8.3c0,4.6-3.7,8.3-8.3,8.3v6.2c4.6,0,8.3,3.7,8.3,8.3c0,4.6-3.7,8.3-8.3,8.3v5.9 c4.6,0,8.3,3.7,8.3,8.3c0,4.6-3.7,8.3-8.3,8.3v6.2c4.6,0,8.3,3.7,8.3,8.3c0,4.6-3.7,8.3-8.3,8.3v5.6c4.6,0,8.3,3.7,8.3,8.3 c0,4.6-3.7,8.3-8.3,8.3v6.2c4.6,0,8.3,3.7,8.3,8.3c0,4.6-3.7,8.3-8.3,8.3v4.9c4.6,0,8.3,3.7,8.3,8.3c0,4.6-3.7,8.3-8.3,8.3v6.2 c4.6,0,8.3,3.7,8.3,8.3c0,4.6-3.7,8.3-8.3,8.3v6.9c4.6,0,8.3,3.7,8.3,8.3c0,4.6-3.7,8.3-8.3,8.3v6.2c4.6,0,8.3,3.7,8.3,8.3 c0,4.6-3.7,8.3-8.3,8.3v5.6c4.6,0,8.3,3.7,8.3,8.3c0,4.6-3.7,8.3-8.3,8.3v6.2c4.6,0,8.3,3.7,8.3,8.3c0,4.6-3.7,8.3-8.3,8.3v4.9 c3.6,0,6.6,2.3,7.8,5.4h476.5c0.1-4.5,3.7-8.2,8.3-8.2v-6.2c-4.6,0-8.3-3.7-8.3-8.3c0-4.6,3.7-8.3,8.3-8.3v-4.9 c-4.6,0-8.3-3.7-8.3-8.3c0-4.6,3.7-8.3,8.3-8.3v-6.2c-4.6,0-8.3-3.7-8.3-8.3c0-4.6,3.7-8.3,8.3-8.3v-5.6c-4.6,0-8.3-3.7-8.3-8.3 c0-4.6,3.7-8.3,8.3-8.3v-6.2c-4.6,0-8.3-3.7-8.3-8.3c0-4.6,3.7-8.3,8.3-8.3v-6.9c-28.2,0-51-22.8-51-51s22.8-51,51-51v-6.7 c-4.6,0-8.3-3.7-8.3-8.3c0-4.6,3.7-8.3,8.3-8.3v-6.2c-4.6,0-8.3-3.7-8.3-8.3c0-4.6,3.7-8.3,8.3-8.3v-4.9c-4.6,0-8.3-3.7-8.3-8.3 c0-4.6,3.7-8.3,8.3-8.3v-6.2c-4.6,0-8.3-3.7-8.3-8.3c0-4.6,3.7-8.3,8.3-8.3v-5.6c-4.6,0-8.3-3.7-8.3-8.3 C1268.7,187.5,1272.4,183.8,1277,183.8z" transform="matrix(1, 0, 0, 1, 0, 0)" style="overflow: visible;"/>
    </clipPath>
    <path id="XMLID_170_" class="st20" d="M1277,183.8v-6.2c-4.6,0-8.3-3.7-8.3-8.3c0,0,0-0.1,0-0.1h-476c0,0,0,0,0,0 c0,4.6-3.7,8.3-8.3,8.3v6.2c4.6,0,8.3,3.7,8.3,8.3c0,4.6-3.7,8.3-8.3,8.3v5.6c4.6,0,8.3,3.7,8.3,8.3s-3.7,8.3-8.3,8.3v6.2 c4.6,0,8.3,3.7,8.3,8.3s-3.7,8.3-8.3,8.3v4.9c4.6,0,8.3,3.7,8.3,8.3c0,4.6-3.7,8.3-8.3,8.3v6.2c4.6,0,8.3,3.7,8.3,8.3 c0,4.6-3.7,8.3-8.3,8.3v5.9c4.6,0,8.3,3.7,8.3,8.3c0,4.6-3.7,8.3-8.3,8.3v6.2c4.6,0,8.3,3.7,8.3,8.3c0,4.6-3.7,8.3-8.3,8.3v5.6 c4.6,0,8.3,3.7,8.3,8.3c0,4.6-3.7,8.3-8.3,8.3v6.2c4.6,0,8.3,3.7,8.3,8.3c0,4.6-3.7,8.3-8.3,8.3v4.9c4.6,0,8.3,3.7,8.3,8.3 c0,4.6-3.7,8.3-8.3,8.3v6.2c4.6,0,8.3,3.7,8.3,8.3c0,4.6-3.7,8.3-8.3,8.3v6.9c4.6,0,8.3,3.7,8.3,8.3c0,4.6-3.7,8.3-8.3,8.3v6.2 c4.6,0,8.3,3.7,8.3,8.3c0,4.6-3.7,8.3-8.3,8.3v5.6c4.6,0,8.3,3.7,8.3,8.3c0,4.6-3.7,8.3-8.3,8.3v6.2c4.6,0,8.3,3.7,8.3,8.3 c0,4.6-3.7,8.3-8.3,8.3v4.9c3.6,0,6.6,2.3,7.8,5.4h476.5c0.1-4.5,3.7-8.2,8.3-8.2v-6.2c-4.6,0-8.3-3.7-8.3-8.3 c0-4.6,3.7-8.3,8.3-8.3v-4.9c-4.6,0-8.3-3.7-8.3-8.3c0-4.6,3.7-8.3,8.3-8.3v-6.2c-4.6,0-8.3-3.7-8.3-8.3c0-4.6,3.7-8.3,8.3-8.3 v-5.6c-4.6,0-8.3-3.7-8.3-8.3c0-4.6,3.7-8.3,8.3-8.3v-6.2c-4.6,0-8.3-3.7-8.3-8.3c0-4.6,3.7-8.3,8.3-8.3v-6.9 c-28.2,0-51-22.8-51-51s22.8-51,51-51v-6.7c-4.6,0-8.3-3.7-8.3-8.3c0-4.6,3.7-8.3,8.3-8.3v-6.2c-4.6,0-8.3-3.7-8.3-8.3 c0-4.6,3.7-8.3,8.3-8.3v-4.9c-4.6,0-8.3-3.7-8.3-8.3c0-4.6,3.7-8.3,8.3-8.3v-6.2c-4.6,0-8.3-3.7-8.3-8.3c0-4.6,3.7-8.3,8.3-8.3 v-5.6c-4.6,0-8.3-3.7-8.3-8.3C1268.7,187.5,1272.4,183.8,1277,183.8z" style="clip-path: url(#XMLID_154_); fill: rgb(43, 43, 123);"/>
    <g id="XMLID_126_" class="st21" style="clip-path: url(#XMLID_154_);">
      <path id="XMLID_x5F_172_x5F_" class="st3" d="M893.7,327c0,0,34.6-43.9,139.5-44.7c104.9-0.8,143.3,46.2,143.3,46.2" style="fill: none;"/>
      <text id="XMLID_816_" style="white-space: pre;">		<textPath startOffset="1.2207%" xlink:href="#XMLID_x5F_172_x5F_">
<tspan class="st1 st15" style="font-size: 75.2186px; fill: rgb(255, 216, 57); font-family: PaytoneOne-Regular;">CINEMA</tspan>		</textPath>
</text>
    </g>
    <rect id="XMLID_127_" x="820.1" y="203.6" class="st22" width="415.4" height="287" style="clip-path: url(#XMLID_154_); fill: none; stroke: rgb(255, 255, 255); stroke-miterlimit: 10; stroke-width: 3px;"/>
    <g id="XMLID_144_" class="st21" style="clip-path: url(#XMLID_154_);">
      <g id="XMLID_245_">
        <path id="XMLID_247_" class="st6" d="M1057.5,400.2c0.1,0.4,0.2,0.8,0.3,1.2c1.7,5,7.2,7.7,12.2,5.9c5-1.7,7.7-7.2,5.9-12.2 c-0.1-0.4-0.3-0.8-0.5-1.2c2.1-1.3,3.1-3.9,2.2-6.3c-1-2.8-4.1-4.3-6.9-3.3c-1.2,0.4-2.2,1.2-2.8,2.2c0.2,0.3,0.3,0.6,0.4,0.9 c1,2.9-0.5,6-3.4,7c-2.9,1-6-0.5-7-3.4c-0.1-0.3-0.2-0.7-0.2-1c-1.1-0.4-2.4-0.4-3.6,0c-2.8,1-4.3,4.1-3.3,6.9 C1051.9,399.4,1054.7,400.9,1057.5,400.2z" style="fill: rgb(255, 241, 198);"/>
        <path id="XMLID_246_" class="st7" d="M1065,394.3c2.9-1,4.4-4.1,3.4-7c-0.1-0.3-0.3-0.7-0.4-0.9c-0.4,0.7-0.7,1.4-0.8,2.2 c-1.1,0-2.3,0.1-3.5,0.5c-1.4,0.5-2.6,1.3-3.6,2.3c-0.6-0.7-1.4-1.2-2.3-1.5c0,0.3,0.1,0.7,0.2,1 C1059.1,393.7,1062.2,395.3,1065,394.3z" style="fill: rgb(182, 108, 41);"/>
      </g>
      <g id="XMLID_242_">
        <path id="XMLID_244_" class="st8" d="M1003.7,388.6c-0.4,0-0.8-0.1-1.2-0.1c-5.3,0.1-9.5,4.5-9.4,9.8c0.1,5.3,4.5,9.5,9.8,9.4 c0.5,0,0.9,0,1.3-0.1c0.6,2.4,2.8,4.1,5.3,4.1c3-0.1,5.4-2.5,5.3-5.5c0-1.3-0.5-2.4-1.2-3.3c-0.3,0.1-0.7,0.1-1,0.1 c-3,0.1-5.5-2.4-5.6-5.4c-0.1-3,2.4-5.5,5.4-5.6c0.4,0,0.7,0,1,0.1c0.7-0.9,1.1-2.1,1.1-3.4c-0.1-3-2.5-5.4-5.5-5.3 C1006.1,383.5,1003.8,385.7,1003.7,388.6z" style="fill: rgb(255, 255, 255);"/>
        <path id="XMLID_243_" class="st7" d="M1006.9,397.6c0.1,3,2.5,5.4,5.6,5.4c0.4,0,0.7,0,1-0.1c-0.5-0.6-1.1-1.1-1.9-1.5 c0.4-1.1,0.6-2.2,0.6-3.5c0-1.5-0.4-2.9-1-4.2c0.9-0.4,1.6-0.9,2.2-1.7c-0.3-0.1-0.7-0.1-1-0.1 C1009.3,392.1,1006.9,394.6,1006.9,397.6z" style="fill: rgb(182, 108, 41);"/>
      </g>
      <g id="XMLID_239_">
        <path id="XMLID_241_" class="st8" d="M1048.2,413.3c0.1-0.4,0.1-0.8,0.1-1.2c0.3-5.3-3.8-9.8-9.1-10.1s-9.8,3.8-10.1,9.1 c0,0.5,0,0.9,0,1.3c-2.4,0.4-4.3,2.5-4.5,5c-0.2,3,2.1,5.5,5.1,5.7c1.3,0.1,2.5-0.3,3.4-1c0-0.3-0.1-0.7,0-1 c0.2-3,2.7-5.3,5.8-5.2c3,0.2,5.3,2.7,5.2,5.8c0,0.4-0.1,0.7-0.2,1c0.9,0.8,2,1.3,3.3,1.4c3,0.2,5.5-2.1,5.7-5.1 C1053.2,416.1,1051,413.6,1048.2,413.3z" style="fill: rgb(255, 255, 255);"/>
        <path id="XMLID_240_" class="st7" d="M1039,415.9c-3-0.2-5.6,2.2-5.8,5.2c0,0.4,0,0.7,0,1c0.6-0.5,1.2-1.1,1.6-1.8 c1,0.5,2.2,0.8,3.4,0.8c1.5,0.1,2.9-0.2,4.2-0.7c0.3,0.9,0.8,1.7,1.5,2.3c0.1-0.3,0.1-0.7,0.2-1 C1044.3,418.6,1042,416.1,1039,415.9z" style="fill: rgb(182, 108, 41);"/>
      </g>
      <g id="XMLID_236_">
        <path id="XMLID_238_" class="st8" d="M1076.2,434.3c0.2,0.3,0.5,0.6,0.8,0.9c3.6,3.9,9.7,4.1,13.6,0.5c3.9-3.6,4.1-9.7,0.5-13.6 c-0.3-0.3-0.6-0.6-1-0.9c1.4-2,1.2-4.8-0.5-6.7c-2-2.2-5.5-2.3-7.6-0.3c-0.9,0.9-1.5,2-1.7,3.2c0.3,0.2,0.5,0.4,0.8,0.7 c2.1,2.2,1.9,5.7-0.3,7.7c-2.2,2.1-5.7,1.9-7.7-0.3c-0.2-0.3-0.5-0.5-0.6-0.8c-1.2,0.1-2.3,0.6-3.3,1.4c-2.2,2-2.3,5.5-0.3,7.6 C1070.8,435.9,1074,436.1,1076.2,434.3z" style="fill: rgb(255, 255, 255);"/>
        <path id="XMLID_237_" class="st7" d="M1080.8,425.9c2.2-2.1,2.3-5.5,0.3-7.7c-0.2-0.3-0.5-0.5-0.8-0.7c-0.1,0.8-0.1,1.6,0.2,2.4 c-1.1,0.4-2.1,1-3,1.9c-1.1,1-1.9,2.2-2.4,3.6c-0.8-0.4-1.8-0.6-2.7-0.5c0.2,0.3,0.4,0.6,0.6,0.8 C1075.1,427.8,1078.6,427.9,1080.8,425.9z" style="fill: rgb(182, 108, 41);"/>
      </g>
      <g id="XMLID_233_">
        <path id="XMLID_235_" class="st8" d="M1050.8,405.1c-0.3,0.3-0.6,0.5-0.9,0.9c-3.5,4-3.2,10,0.8,13.6c4,3.5,10,3.2,13.6-0.8 c0.3-0.3,0.6-0.7,0.8-1.1c2.2,1.2,4.9,0.8,6.6-1.1c2-2.2,1.8-5.6-0.4-7.6c-1-0.8-2.1-1.3-3.3-1.4c-0.2,0.3-0.4,0.6-0.6,0.8 c-2,2.3-5.5,2.5-7.7,0.4s-2.5-5.5-0.4-7.7c0.2-0.3,0.5-0.5,0.8-0.7c-0.2-1.2-0.8-2.3-1.7-3.1c-2.2-2-5.6-1.8-7.6,0.4 C1048.7,399.9,1048.8,403.1,1050.8,405.1z" style="fill: rgb(255, 255, 255);"/>
        <path id="XMLID_234_" class="st7" d="M1059.6,408.9c2.3,2,5.7,1.8,7.7-0.4c0.2-0.3,0.4-0.5,0.6-0.8c-0.8,0-1.6,0.1-2.3,0.4 c-0.5-1-1.2-2-2.1-2.8c-1.1-1-2.4-1.7-3.8-2.1c0.3-0.9,0.4-1.8,0.2-2.7c-0.3,0.2-0.5,0.4-0.8,0.7 C1057.2,403.4,1057.4,406.9,1059.6,408.9z" style="fill: rgb(182, 108, 41);"/>
      </g>
      <g id="XMLID_230_">
        <path id="XMLID_232_" class="st8" d="M1064.7,357.8c-0.3,0.3-0.6,0.5-0.9,0.9c-3.5,4-3.2,10,0.8,13.6c4,3.5,10,3.2,13.6-0.8 c0.3-0.3,0.6-0.7,0.8-1.1c2.2,1.2,4.9,0.8,6.6-1.1c2-2.2,1.8-5.6-0.4-7.6c-1-0.8-2.1-1.3-3.3-1.4c-0.2,0.3-0.4,0.6-0.6,0.8 c-2,2.3-5.5,2.5-7.7,0.4c-2.3-2-2.5-5.5-0.4-7.7c0.2-0.3,0.5-0.5,0.8-0.7c-0.2-1.2-0.8-2.3-1.7-3.1c-2.2-2-5.6-1.8-7.6,0.4 C1062.6,352.5,1062.7,355.7,1064.7,357.8z" style="fill: rgb(255, 255, 255);"/>
        <path id="XMLID_231_" class="st7" d="M1073.5,361.5c2.3,2,5.7,1.8,7.7-0.4c0.2-0.3,0.4-0.5,0.6-0.8c-0.8,0-1.6,0.1-2.3,0.4 c-0.5-1-1.2-2-2.1-2.8c-1.1-1-2.4-1.7-3.8-2.1c0.3-0.9,0.4-1.8,0.2-2.7c-0.3,0.2-0.5,0.4-0.8,0.7 C1071.1,356,1071.3,359.5,1073.5,361.5z" style="fill: rgb(182, 108, 41);"/>
      </g>
      <g id="XMLID_227_">
        <path id="XMLID_229_" class="st6" d="M987.3,412.4c0,0.4,0,0.8,0,1.2c0.2,5.3,4.6,9.4,10,9.2c5.3-0.2,9.4-4.6,9.2-10 c0-0.5-0.1-0.9-0.1-1.3c2.4-0.6,4.1-2.8,4-5.4c-0.1-3-2.6-5.3-5.6-5.2c-1.3,0-2.4,0.5-3.3,1.3c0.1,0.3,0.1,0.7,0.1,1 c0.1,3-2.2,5.6-5.3,5.7s-5.6-2.2-5.7-5.3c0-0.4,0-0.7,0.1-1c-0.9-0.7-2.1-1.1-3.4-1.1c-3,0.1-5.3,2.6-5.2,5.6 C982.2,410.1,984.5,412.3,987.3,412.4z" style="fill: rgb(255, 241, 198);"/>
        <path id="XMLID_228_" class="st7" d="M996.3,409c3-0.1,5.4-2.6,5.3-5.7c0-0.4-0.1-0.7-0.1-1c-0.6,0.5-1.1,1.2-1.4,1.9 c-1.1-0.4-2.3-0.6-3.5-0.5c-1.5,0.1-2.9,0.5-4.1,1.1c-0.4-0.8-1-1.6-1.7-2.1c-0.1,0.3-0.1,0.7-0.1,1 C990.7,406.7,993.3,409.1,996.3,409z" style="fill: rgb(182, 108, 41);"/>
      </g>
      <g id="XMLID_224_">
        <path id="XMLID_226_" class="st6" d="M1018.9,392.1c-0.4,0.2-0.7,0.3-1.1,0.5c-4.6,2.6-6.2,8.5-3.6,13.1 c2.6,4.6,8.5,6.2,13.1,3.6c0.4-0.2,0.8-0.5,1.1-0.7c1.7,1.8,4.4,2.3,6.6,1c2.6-1.5,3.5-4.8,2-7.4c-0.6-1.1-1.6-1.9-2.7-2.3 c-0.3,0.2-0.5,0.4-0.9,0.6c-2.6,1.5-6,0.6-7.5-2.1c-1.5-2.6-0.6-6,2.1-7.5c0.3-0.2,0.6-0.3,1-0.4c0.2-1.2,0-2.4-0.6-3.5 c-1.5-2.6-4.8-3.5-7.4-2C1018.6,386.5,1017.6,389.6,1018.9,392.1z" style="fill: rgb(255, 241, 198);"/>
        <path id="XMLID_225_" class="st7" d="M1026,398.5c1.5,2.6,4.8,3.5,7.5,2.1c0.3-0.2,0.6-0.4,0.9-0.6c-0.7-0.3-1.5-0.4-2.3-0.4 c-0.2-1.1-0.5-2.3-1.1-3.3c-0.7-1.3-1.7-2.4-2.9-3.2c0.6-0.7,0.9-1.6,1.1-2.5c-0.3,0.1-0.6,0.3-1,0.4 C1025.5,392.5,1024.6,395.9,1026,398.5z" style="fill: rgb(182, 108, 41);"/>
      </g>
      <g id="XMLID_221_">
        <path id="XMLID_223_" class="st8" d="M1019.3,421.3c-0.3,0.2-0.7,0.4-1,0.7c-4.2,3.2-5,9.3-1.8,13.5c3.2,4.2,9.3,5,13.5,1.8 c0.4-0.3,0.7-0.6,1-0.9c1.9,1.6,4.7,1.7,6.7,0.1c2.4-1.8,2.8-5.2,1-7.6c-0.8-1-1.8-1.7-3-1.9c-0.2,0.3-0.5,0.5-0.8,0.7 c-2.4,1.8-5.8,1.4-7.7-1c-1.8-2.4-1.4-5.8,1-7.7c0.3-0.2,0.6-0.4,0.9-0.6c0-1.2-0.3-2.4-1.1-3.4c-1.8-2.4-5.2-2.8-7.6-1 C1018.2,415.7,1017.7,418.9,1019.3,421.3z" style="fill: rgb(255, 255, 255);"/>
        <path id="XMLID_222_" class="st7" d="M1027.3,426.6c1.8,2.4,5.3,2.8,7.7,1c0.3-0.2,0.5-0.5,0.8-0.7c-0.8-0.2-1.6-0.2-2.4,0 c-0.3-1.1-0.9-2.2-1.6-3.1c-0.9-1.2-2.1-2.1-3.3-2.7c0.5-0.8,0.7-1.7,0.7-2.6c-0.3,0.2-0.6,0.3-0.9,0.6 C1025.9,420.8,1025.5,424.2,1027.3,426.6z" style="fill: rgb(182, 108, 41);"/>
      </g>
      <g id="XMLID_218_">
        <path id="XMLID_220_" class="st9" d="M1021,408c-0.3-0.3-0.5-0.6-0.8-0.9c-3.8-3.7-9.9-3.6-13.6,0.2c-3.7,3.8-3.6,9.9,0.2,13.6 c0.3,0.3,0.7,0.6,1,0.9c-1.3,2.1-1,4.9,0.9,6.7c2.1,2.1,5.6,2,7.6-0.1c0.9-0.9,1.4-2.1,1.5-3.2c-0.3-0.2-0.6-0.4-0.8-0.6 c-2.2-2.1-2.2-5.6-0.1-7.7c2.1-2.2,5.6-2.2,7.7-0.1c0.3,0.2,0.5,0.5,0.7,0.8c1.2-0.1,2.3-0.7,3.2-1.6c2.1-2.1,2-5.6-0.1-7.6 C1026.3,406.2,1023.1,406.1,1021,408z" style="fill: rgb(246, 221, 145);"/>
        <path id="XMLID_219_" class="st10" d="M1016.9,416.7c-2.1,2.2-2,5.6,0.1,7.7c0.3,0.2,0.5,0.5,0.8,0.6c0.1-0.8,0-1.6-0.3-2.4 c1-0.5,2-1.2,2.9-2c1-1.1,1.8-2.3,2.2-3.7c0.9,0.3,1.8,0.5,2.7,0.3c-0.2-0.3-0.4-0.6-0.7-0.8 C1022.5,414.5,1019,414.5,1016.9,416.7z" style="fill: rgb(159, 82, 36);"/>
      </g>
      <g id="XMLID_215_">
        <path id="XMLID_217_" class="st9" d="M1056.7,429.9c0,0.4,0,0.8,0,1.2c0.5,5.3,5.1,9.2,10.4,8.7s9.2-5.1,8.7-10.4 c0-0.5-0.1-0.9-0.2-1.3c2.3-0.8,3.9-3,3.7-5.6c-0.3-3-2.9-5.2-5.9-4.9c-1.3,0.1-2.4,0.7-3.3,1.5c0.1,0.3,0.2,0.7,0.2,1 c0.3,3-2,5.7-5,5.9c-3,0.3-5.7-2-5.9-5c0-0.4,0-0.7,0-1c-1-0.7-2.2-1-3.5-0.9c-3,0.3-5.2,2.9-4.9,5.9 C1051.5,427.8,1053.9,430,1056.7,429.9z" style="fill: rgb(246, 221, 145);"/>
        <path id="XMLID_216_" class="st10" d="M1065.5,426c3-0.3,5.2-2.9,5-5.9c0-0.4-0.1-0.7-0.2-1c-0.6,0.6-1,1.2-1.3,2 c-1.1-0.3-2.3-0.4-3.5-0.3c-1.5,0.1-2.9,0.6-4.1,1.3c-0.4-0.8-1.1-1.5-1.8-2c0,0.3,0,0.7,0,1 C1059.9,424.1,1062.5,426.3,1065.5,426z" style="fill: rgb(159, 82, 36);"/>
      </g>
      <g id="XMLID_212_">
        <path id="XMLID_214_" class="st9" d="M1044.5,390.2c-0.4-0.2-0.8-0.3-1.1-0.4c-5.1-1.5-10.4,1.4-11.9,6.5 c-1.5,5.1,1.4,10.4,6.5,11.9c0.4,0.1,0.9,0.2,1.3,0.3c-0.1,2.5,1.4,4.8,3.9,5.5c2.9,0.8,5.9-0.8,6.7-3.7c0.4-1.2,0.3-2.5-0.2-3.6 c-0.3,0-0.7-0.1-1-0.2c-2.9-0.8-4.6-3.9-3.7-6.8s3.9-4.6,6.8-3.7c0.3,0.1,0.7,0.2,1,0.4c1-0.7,1.7-1.7,2.1-2.9 c0.8-2.9-0.8-5.9-3.7-6.7C1048.4,386,1045.5,387.5,1044.5,390.2z" style="fill: rgb(246, 221, 145);"/>
        <path id="XMLID_213_" class="st10" d="M1045,399.8c-0.8,2.9,0.8,5.9,3.7,6.8c0.3,0.1,0.7,0.2,1,0.2c-0.3-0.7-0.8-1.4-1.4-1.9 c0.7-0.9,1.2-2,1.6-3.1c0.4-1.4,0.5-2.9,0.3-4.3c0.9-0.1,1.8-0.4,2.5-1c-0.3-0.2-0.6-0.3-1-0.4 C1048.9,395.2,1045.8,396.9,1045,399.8z" style="fill: rgb(159, 82, 36);"/>
      </g>
      <g id="XMLID_209_">
        <path id="XMLID_211_" class="st9" d="M999.8,342.6c-0.4-0.2-0.8-0.3-1.1-0.4c-5.1-1.5-10.4,1.4-11.9,6.5 c-1.5,5.1,1.4,10.4,6.5,11.9c0.4,0.1,0.9,0.2,1.3,0.3c-0.1,2.5,1.4,4.8,3.9,5.5c2.9,0.8,5.9-0.8,6.7-3.7c0.4-1.2,0.3-2.5-0.2-3.6 c-0.3,0-0.7-0.1-1-0.2c-2.9-0.8-4.6-3.9-3.7-6.8c0.8-2.9,3.9-4.6,6.8-3.7c0.3,0.1,0.7,0.2,1,0.4c1-0.7,1.7-1.7,2.1-2.9 c0.8-2.9-0.8-5.9-3.7-6.7C1003.6,338.5,1000.8,340,999.8,342.6z" style="fill: rgb(246, 221, 145);"/>
        <path id="XMLID_210_" class="st10" d="M1000.2,352.2c-0.8,2.9,0.8,5.9,3.7,6.8c0.3,0.1,0.7,0.2,1,0.2c-0.3-0.7-0.8-1.4-1.4-1.9 c0.7-0.9,1.2-2,1.6-3.1c0.4-1.4,0.5-2.9,0.3-4.3c0.9-0.1,1.8-0.4,2.5-1c-0.3-0.2-0.6-0.3-1-0.4 C1004.1,347.6,1001.1,349.3,1000.2,352.2z" style="fill: rgb(159, 82, 36);"/>
      </g>
      <g id="XMLID_206_">
        <path id="XMLID_208_" class="st6" d="M959.3,421.4c-0.4,0.1-0.7,0.3-1.1,0.5c-4.7,2.5-6.5,8.3-4,13c2.5,4.7,8.3,6.5,13,4 c0.4-0.2,0.8-0.5,1.1-0.7c1.6,1.9,4.3,2.4,6.6,1.3c2.6-1.4,3.7-4.7,2.3-7.3c-0.6-1.1-1.5-2-2.6-2.4c-0.3,0.2-0.6,0.4-0.9,0.6 c-2.7,1.4-6,0.4-7.4-2.3c-1.4-2.7-0.4-6,2.3-7.4c0.3-0.2,0.6-0.3,1-0.4c0.2-1.2,0.1-2.4-0.5-3.5c-1.4-2.6-4.7-3.7-7.3-2.3 C959.2,415.8,958.1,418.8,959.3,421.4z" style="fill: rgb(255, 241, 198);"/>
        <path id="XMLID_207_" class="st7" d="M966.3,428c1.4,2.7,4.7,3.7,7.4,2.3c0.3-0.2,0.6-0.4,0.9-0.6c-0.7-0.3-1.5-0.5-2.3-0.4 c-0.1-1.1-0.5-2.3-1-3.3c-0.7-1.3-1.7-2.4-2.8-3.3c0.6-0.7,1-1.6,1.2-2.5c-0.3,0.1-0.7,0.2-1,0.4 C965.9,422,964.9,425.3,966.3,428z" style="fill: rgb(182, 108, 41);"/>
      </g>
      <g id="XMLID_203_">
        <path id="XMLID_205_" class="st6" d="M1038.9,432.1c0.1,0.4,0.2,0.8,0.4,1.2c2.1,4.9,7.7,7.2,12.6,5.1s7.2-7.7,5.1-12.6 c-0.2-0.4-0.4-0.8-0.6-1.2c2-1.4,2.8-4.1,1.8-6.5c-1.2-2.7-4.3-4-7.1-2.9c-1.2,0.5-2.1,1.4-2.6,2.4c0.2,0.3,0.4,0.6,0.5,0.9 c1.2,2.8-0.1,6-2.9,7.2s-6-0.1-7.2-2.9c-0.1-0.3-0.2-0.7-0.3-1c-1.1-0.3-2.4-0.3-3.6,0.2c-2.7,1.2-4,4.3-2.9,7.1 C1033.2,431.8,1036.2,433,1038.9,432.1z" style="fill: rgb(255, 241, 198);"/>
        <path id="XMLID_204_" class="st7" d="M1046,425.7c2.8-1.2,4.1-4.4,2.9-7.2c-0.1-0.3-0.3-0.6-0.5-0.9c-0.4,0.7-0.6,1.5-0.6,2.3 c-1.1,0-2.3,0.3-3.4,0.8c-1.4,0.6-2.6,1.5-3.5,2.5c-0.7-0.7-1.5-1.1-2.4-1.4c0.1,0.3,0.2,0.7,0.3,1 C1040,425.6,1043.2,426.9,1046,425.7z" style="fill: rgb(182, 108, 41);"/>
      </g>
      <g id="XMLID_200_">
        <path id="XMLID_202_" class="st6" d="M1069.1,414.9c0.1,0.4,0.2,0.8,0.4,1.2c2.1,4.9,7.7,7.2,12.6,5.1c4.9-2.1,7.2-7.7,5.1-12.6 c-0.2-0.4-0.4-0.8-0.6-1.2c2-1.4,2.8-4.1,1.8-6.5c-1.2-2.7-4.3-4-7.1-2.9c-1.2,0.5-2.1,1.4-2.6,2.4c0.2,0.3,0.4,0.6,0.5,0.9 c1.2,2.8-0.1,6-2.9,7.2c-2.8,1.2-6-0.1-7.2-2.9c-0.1-0.3-0.2-0.7-0.3-1c-1.1-0.3-2.4-0.3-3.6,0.2c-2.7,1.2-4,4.3-2.9,7.1 C1063.5,414.6,1066.4,415.8,1069.1,414.9z" style="fill: rgb(255, 241, 198);"/>
        <path id="XMLID_201_" class="st7" d="M1076.3,408.5c2.8-1.2,4.1-4.4,2.9-7.2c-0.1-0.3-0.3-0.6-0.5-0.9c-0.4,0.7-0.6,1.5-0.6,2.3 c-1.1,0-2.3,0.3-3.4,0.8c-1.4,0.6-2.6,1.5-3.5,2.5c-0.7-0.7-1.5-1.1-2.4-1.4c0.1,0.3,0.2,0.7,0.3,1 C1070.3,408.4,1073.5,409.7,1076.3,408.5z" style="fill: rgb(182, 108, 41);"/>
      </g>
      <g id="XMLID_197_">
        <path id="XMLID_199_" class="st6" d="M1037.1,316.5c-0.4,0-0.8,0-1.2,0c-5.3,0.5-9.2,5.2-8.7,10.5c0.5,5.3,5.2,9.2,10.5,8.7 c0.5,0,0.9-0.1,1.3-0.2c0.8,2.3,3.1,3.9,5.6,3.7c3-0.3,5.2-2.9,4.9-5.9c-0.1-1.3-0.7-2.4-1.5-3.2c-0.3,0.1-0.7,0.2-1,0.2 c-3,0.3-5.7-1.9-6-4.9c-0.3-3,1.9-5.7,4.9-6c0.4,0,0.7,0,1,0c0.7-1,1-2.2,0.9-3.5c-0.3-3-2.9-5.2-5.9-4.9 C1039.1,311.3,1037,313.7,1037.1,316.5z" style="fill: rgb(255, 241, 198);"/>
        <path id="XMLID_198_" class="st7" d="M1041,325.3c0.3,3,2.9,5.2,6,4.9c0.4,0,0.7-0.1,1-0.2c-0.6-0.6-1.2-1-2-1.3 c0.3-1.1,0.4-2.3,0.3-3.5c-0.1-1.5-0.6-2.9-1.3-4.1c0.8-0.4,1.5-1.1,2-1.8c-0.3,0-0.7,0-1,0 C1042.9,319.6,1040.7,322.3,1041,325.3z" style="fill: rgb(182, 108, 41);"/>
      </g>
      <g id="XMLID_194_">
        <path id="XMLID_196_" class="st6" d="M1092.3,418.4c-0.3,0.2-0.7,0.5-1,0.7c-4,3.5-4.4,9.6-0.9,13.6c3.5,4,9.6,4.4,13.6,0.9 c0.3-0.3,0.7-0.6,0.9-1c2,1.4,4.8,1.4,6.7-0.3c2.2-2,2.5-5.4,0.5-7.6c-0.8-1-2-1.5-3.1-1.7c-0.2,0.3-0.4,0.5-0.7,0.8 c-2.3,2-5.7,1.8-7.7-0.5s-1.8-5.7,0.5-7.7c0.3-0.2,0.6-0.4,0.9-0.6c-0.1-1.2-0.5-2.4-1.3-3.3c-2-2.2-5.4-2.5-7.6-0.5 C1090.9,413,1090.6,416.2,1092.3,418.4z" style="fill: rgb(255, 241, 198);"/>
        <path id="XMLID_195_" class="st7" d="M1100.6,423.2c2,2.3,5.5,2.5,7.7,0.5c0.3-0.2,0.5-0.5,0.7-0.8c-0.8-0.1-1.6-0.1-2.4,0.1 c-0.4-1.1-1-2.1-1.8-3c-1-1.1-2.2-2-3.5-2.5c0.4-0.8,0.6-1.8,0.6-2.7c-0.3,0.2-0.6,0.4-0.9,0.6 C1098.9,417.5,1098.6,420.9,1100.6,423.2z" style="fill: rgb(182, 108, 41);"/>
      </g>
      <g id="XMLID_191_">
        <path id="XMLID_193_" class="st6" d="M997.1,425.9c-0.1,0.4-0.2,0.8-0.3,1.2c-1.1,5.2,2.3,10.3,7.5,11.4 c5.2,1.1,10.3-2.3,11.4-7.5c0.1-0.4,0.2-0.9,0.2-1.3c2.5-0.1,4.6-1.8,5.2-4.3c0.6-2.9-1.3-5.8-4.2-6.4c-1.2-0.3-2.5-0.1-3.5,0.5 c0,0.3,0,0.7-0.1,1c-0.6,3-3.5,4.9-6.5,4.2c-3-0.6-4.9-3.5-4.2-6.5c0.1-0.3,0.2-0.7,0.3-1c-0.8-0.9-1.8-1.6-3.1-1.8 c-2.9-0.6-5.8,1.3-6.4,4.2C992.7,422.4,994.4,425.1,997.1,425.9z" style="fill: rgb(255, 241, 198);"/>
        <path id="XMLID_192_" class="st7" d="M1006.6,424.7c3,0.6,5.9-1.3,6.5-4.2c0.1-0.3,0.1-0.7,0.1-1c-0.7,0.4-1.3,0.9-1.8,1.5 c-1-0.6-2.1-1.1-3.2-1.3c-1.5-0.3-2.9-0.3-4.3,0.1c-0.2-0.9-0.6-1.8-1.2-2.5c-0.1,0.3-0.2,0.7-0.3,1 C1001.8,421.2,1003.7,424.1,1006.6,424.7z" style="fill: rgb(182, 108, 41);"/>
      </g>
      <g id="XMLID_188_">
        <path id="XMLID_190_" class="st8" d="M979.1,424.3c0.4,0,0.8,0.1,1.2,0.1c5.3-0.1,9.6-4.4,9.5-9.7c-0.1-5.3-4.4-9.6-9.7-9.5 c-0.5,0-0.9,0-1.3,0.1c-0.6-2.4-2.7-4.2-5.3-4.1c-3,0-5.4,2.5-5.3,5.5c0,1.3,0.5,2.4,1.2,3.4c0.3-0.1,0.7-0.1,1-0.1 c3,0,5.5,2.4,5.5,5.4c0,3-2.4,5.5-5.4,5.5c-0.4,0-0.7,0-1-0.1c-0.7,0.9-1.2,2.1-1.1,3.4c0,3,2.5,5.4,5.5,5.3 C976.7,429.4,979,427.1,979.1,424.3z" style="fill: rgb(255, 255, 255);"/>
        <path id="XMLID_189_" class="st7" d="M975.9,415.2c0-3-2.5-5.4-5.5-5.4c-0.4,0-0.7,0-1,0.1c0.5,0.6,1.1,1.1,1.9,1.5 c-0.4,1.1-0.6,2.2-0.6,3.4c0,1.5,0.4,2.9,1,4.2c-0.9,0.4-1.6,0.9-2.2,1.7c0.3,0.1,0.7,0.1,1,0.1 C973.6,420.7,976,418.3,975.9,415.2z" style="fill: rgb(182, 108, 41);"/>
      </g>
      <g id="XMLID_185_">
        <path id="XMLID_187_" class="st9" d="M980.1,434.3c0.2,0.4,0.4,0.7,0.6,1.1c3,4.4,9,5.5,13.3,2.5c4.4-3,5.5-9,2.5-13.3 c-0.3-0.4-0.5-0.7-0.8-1.1c1.7-1.8,1.9-4.6,0.5-6.7c-1.7-2.5-5-3.1-7.5-1.4c-1.1,0.7-1.8,1.7-2.1,2.9c0.2,0.2,0.5,0.5,0.7,0.8 c1.7,2.5,1.1,5.9-1.4,7.6c-2.5,1.7-5.9,1.1-7.6-1.4c-0.2-0.3-0.4-0.6-0.5-0.9c-1.2-0.1-2.4,0.2-3.4,0.9c-2.5,1.7-3.1,5-1.4,7.5 C974.5,435,977.7,435.7,980.1,434.3z" style="fill: rgb(246, 221, 145);"/>
        <path id="XMLID_186_" class="st10" d="M985.9,426.6c2.5-1.7,3.1-5.1,1.4-7.6c-0.2-0.3-0.4-0.6-0.7-0.8c-0.2,0.8-0.3,1.6-0.2,2.4 c-1.1,0.3-2.2,0.7-3.2,1.4c-1.2,0.8-2.2,1.9-2.9,3.2c-0.8-0.5-1.7-0.8-2.6-0.9c0.1,0.3,0.3,0.6,0.5,0.9 C980,427.7,983.4,428.3,985.9,426.6z" style="fill: rgb(159, 82, 36);"/>
      </g>
      <path id="XMLID_184_" class="st11" d="M1115.2,446.3H951.7c-3.3,0-6-2.7-6-6v-1.4c0-3.3,2.7-6,6-6h163.5c3.3,0,6,2.7,6,6v1.4 C1121.2,443.6,1118.5,446.3,1115.2,446.3z" style="fill: rgb(236, 234, 230);"/>
      <polygon id="XMLID_183_" class="st12" points="1079.4,456.7 1064.3,595.2 1091.5,595.2 1109.7,456.7 &#9;&#9;" style="fill: rgb(227, 39, 38);"/>
      <polygon id="XMLID_182_" class="st13" points="1109.7,456.7 1111,446.3 1080.5,446.3 1079.4,456.7 &#9;&#9;" style="fill: rgb(208, 32, 38);"/>
      <polygon id="XMLID_181_" class="st8" points="983.2,456.7 998.3,595.2 1021.9,595.2 1012.6,456.7 &#9;&#9;" style="fill: rgb(255, 255, 255);"/>
      <polygon id="XMLID_180_" class="st14" points="1012.6,456.7 1011.9,446.3 982.1,446.3 983.2,456.7 &#9;&#9;" style="fill: rgb(241, 241, 241);"/>
      <polygon id="XMLID_179_" class="st12" points="957.3,456.7 975.4,595.2 998.3,595.2 983.2,456.7 &#9;&#9;" style="fill: rgb(227, 39, 38);"/>
      <polygon id="XMLID_178_" class="st13" points="982.1,446.3 955.9,446.3 957.3,456.7 983.2,456.7 &#9;&#9;" style="fill: rgb(208, 32, 38);"/>
      <polygon id="XMLID_177_" class="st8" points="1050.1,456.7 1043.1,595.2 1064.3,595.2 1079.4,456.7 &#9;&#9;" style="fill: rgb(255, 255, 255);"/>
      <polygon id="XMLID_175_" class="st14" points="1079.4,456.7 1080.5,446.3 1050.7,446.3 1050.1,456.7 &#9;&#9;" style="fill: rgb(241, 241, 241);"/>
      <polygon id="XMLID_174_" class="st13" points="1050.3,456.7 1051.1,446.2 1033.9,446.2 1012.4,446.2 1013.2,456.7 &#9;&#9;" style="fill: rgb(208, 32, 38);"/>
      <polygon id="XMLID_155_" class="st12" points="1012.7,456.7 1023.5,595.2 1033.5,595.2 1039.1,595.2 1049.8,456.7 &#9;&#9;" style="fill: rgb(227, 39, 38);"/>
      <polygon id="XMLID_153_" class="st12" points="1012.6,456.7 1021.9,595.2 1023.5,595.2 1012.7,456.7 &#9;&#9;" style="fill: rgb(227, 39, 38);"/>
      <polygon id="XMLID_152_" class="st12" points="1012.7,456.7 1011.9,446.3 1012.6,456.7 &#9;&#9;" style="fill: rgb(227, 39, 38);"/>
      <polygon id="XMLID_150_" class="st12" points="1049.8,456.7 1039.1,595.2 1043.1,595.2 1050.1,456.7 &#9;&#9;" style="fill: rgb(227, 39, 38);"/>
      <polygon id="XMLID_148_" class="st12" points="1050.1,456.7 1050.7,446.3 1049.8,456.7 &#9;&#9;" style="fill: rgb(227, 39, 38);"/>
    </g>
  </g>
  <text id="XMLID_251_" transform="matrix(-0.003901, -0.999992, 0.999992, -0.003901, 123.830292, 379.826965)" class="st8 st15 st16" style="white-space: pre; fill: rgb(255, 255, 255); font-family: PaytoneOne-Regular; font-size: 27.2px; line-height: 82.2338px; perspective-origin: 59.875px 0px;">FREE</text>
  <g id="XMLID_248_" transform="matrix(0.529128, -0.002064, 0.002064, 0.529128, -243.711761, 216.905869)" style="">
    <text id="XMLID_716_" transform="matrix(4.489659e-011 -1 1 4.489659e-011 733.3098 358.4385)" class="st2 st15 st17" style="white-space: pre; fill: rgb(43, 43, 123); font-family: PaytoneOne-Regular; font-size: 35.3962px; line-height: 56.6339px; perspective-origin: 80.6875px 0px;">POPCORN</text>
  </g>
  <g id="XMLID_503_" transform="matrix(0.529128, -0.002064, 0.002064, 0.529128, -243.711761, 216.905869)" style="">
    <path id="XMLID_x5F_261_x5F_" class="st3" d="M841.9,770.3c0,0,34.6-43.9,139.5-44.7c104.9-0.8,143.3,46.2,143.3,46.2" style="fill: none;"/>
    <text id="XMLID_821_" style="white-space: pre;">	<textPath startOffset="1.2207%" xlink:href="#XMLID_x5F_261_x5F_"><tspan x="0" dy="1em">​</tspan></textPath>
</text>
  </g>
  <g id="XMLID_683_" transform="matrix(1, 0, 0, 1, -1266.667236, -474.02356)">
    <defs>
      <path id="XMLID_686_" d="M1249.7,1057.7h-442c-15.1,0-27.3,12.2-27.3,27.3v166.7c0,15.1,12.2,27.3,27.3,27.3h442 c15.1,0,27.3-12.2,27.3-27.3V1085C1277,1069.9,1264.8,1057.7,1249.7,1057.7z"/>
    </defs>
    <clipPath id="XMLID_265_">
      <path d="M1249.7,1057.7h-442c-15.1,0-27.3,12.2-27.3,27.3v166.7c0,15.1,12.2,27.3,27.3,27.3h442 c15.1,0,27.3-12.2,27.3-27.3V1085C1277,1069.9,1264.8,1057.7,1249.7,1057.7z" transform="matrix(1, 0, 0, 1, 0, 0)" style="overflow: visible;"/>
    </clipPath>
    <path id="XMLID_556_" class="st31" d="M1249.7,1057.7h-442c-15.1,0-27.3,12.2-27.3,27.3v166.7c0,15.1,12.2,27.3,27.3,27.3h442 c15.1,0,27.3-12.2,27.3-27.3V1085C1277,1069.9,1264.8,1057.7,1249.7,1057.7z" style="clip-path: url(#XMLID_265_); fill: rgb(43, 43, 123);"/>
    <g id="XMLID_552_" class="st32" style="clip-path: url(#XMLID_265_);">
      <g id="XMLID_650_">
        <path id="XMLID_652_" class="st6" d="M1262,1200.8c0.1,0.4,0.2,0.8,0.3,1.2c1.7,5,7.2,7.7,12.2,5.9c5-1.7,7.7-7.2,5.9-12.2 c-0.1-0.4-0.3-0.8-0.5-1.2c2.1-1.3,3.1-3.9,2.2-6.3c-1-2.8-4.1-4.3-6.9-3.3c-1.2,0.4-2.2,1.2-2.8,2.2c0.2,0.3,0.3,0.6,0.4,0.9 c1,2.9-0.5,6-3.4,7c-2.9,1-6-0.5-7-3.4c-0.1-0.3-0.2-0.7-0.2-1c-1.1-0.4-2.4-0.4-3.6,0c-2.8,1-4.3,4.1-3.3,6.9 C1256.4,1200.1,1259.3,1201.6,1262,1200.8z" style="fill: rgb(255, 241, 198);"/>
        <path id="XMLID_651_" class="st7" d="M1269.6,1194.9c2.9-1,4.4-4.1,3.4-7c-0.1-0.3-0.3-0.7-0.4-0.9c-0.4,0.7-0.7,1.4-0.8,2.2 c-1.1,0-2.3,0.1-3.5,0.5c-1.4,0.5-2.6,1.3-3.6,2.3c-0.6-0.7-1.4-1.2-2.3-1.5c0,0.3,0.1,0.7,0.2,1 C1263.6,1194.4,1266.7,1195.9,1269.6,1194.9z" style="fill: rgb(182, 108, 41);"/>
      </g>
      <g id="XMLID_647_">
        <path id="XMLID_649_" class="st8" d="M1208.2,1189.2c-0.4,0-0.8-0.1-1.2-0.1c-5.3,0.1-9.5,4.5-9.4,9.8c0.1,5.3,4.5,9.5,9.8,9.4 c0.5,0,0.9,0,1.3-0.1c0.6,2.4,2.8,4.1,5.3,4.1c3-0.1,5.4-2.5,5.3-5.5c0-1.3-0.5-2.4-1.2-3.3c-0.3,0.1-0.7,0.1-1,0.1 c-3,0.1-5.5-2.4-5.6-5.4s2.4-5.5,5.4-5.6c0.4,0,0.7,0,1,0.1c0.7-0.9,1.1-2.1,1.1-3.4c-0.1-3-2.5-5.4-5.5-5.3 C1210.6,1184.1,1208.3,1186.4,1208.2,1189.2z" style="fill: rgb(255, 255, 255);"/>
        <path id="XMLID_648_" class="st7" d="M1211.5,1198.3c0.1,3,2.5,5.4,5.6,5.4c0.4,0,0.7,0,1-0.1c-0.5-0.6-1.1-1.1-1.9-1.5 c0.4-1.1,0.6-2.2,0.6-3.5c0-1.5-0.4-2.9-1-4.2c0.9-0.4,1.6-0.9,2.2-1.7c-0.3-0.1-0.7-0.1-1-0.1 C1213.8,1192.8,1211.4,1195.2,1211.5,1198.3z" style="fill: rgb(182, 108, 41);"/>
      </g>
      <g id="XMLID_644_">
        <path id="XMLID_646_" class="st8" d="M1252.8,1214c0.1-0.4,0.1-0.8,0.1-1.2c0.3-5.3-3.8-9.8-9.1-10.1c-5.3-0.3-9.8,3.8-10.1,9.1 c0,0.5,0,0.9,0,1.3c-2.4,0.4-4.3,2.5-4.5,5c-0.2,3,2.1,5.5,5.1,5.7c1.3,0.1,2.5-0.3,3.4-1c0-0.3-0.1-0.7,0-1 c0.2-3,2.7-5.3,5.8-5.2c3,0.2,5.3,2.7,5.2,5.8c0,0.4-0.1,0.7-0.2,1c0.9,0.8,2,1.3,3.3,1.4c3,0.2,5.5-2.1,5.7-5.1 C1257.7,1216.7,1255.6,1214.3,1252.8,1214z" style="fill: rgb(255, 255, 255);"/>
        <path id="XMLID_645_" class="st7" d="M1243.5,1216.6c-3-0.2-5.6,2.2-5.8,5.2c0,0.4,0,0.7,0,1c0.6-0.5,1.2-1.1,1.6-1.8 c1,0.5,2.2,0.8,3.4,0.8c1.5,0.1,2.9-0.2,4.2-0.7c0.3,0.9,0.8,1.7,1.5,2.3c0.1-0.3,0.1-0.7,0.2-1 C1248.9,1219.3,1246.5,1216.7,1243.5,1216.6z" style="fill: rgb(182, 108, 41);"/>
      </g>
      <g id="XMLID_641_">
        <path id="XMLID_643_" class="st8" d="M1280.8,1235c0.2,0.3,0.5,0.6,0.8,0.9c3.6,3.9,9.7,4.1,13.6,0.5c3.9-3.6,4.1-9.7,0.5-13.6 c-0.3-0.3-0.6-0.6-1-0.9c1.4-2,1.2-4.8-0.5-6.7c-2-2.2-5.5-2.3-7.6-0.3c-0.9,0.9-1.5,2-1.7,3.2c0.3,0.2,0.5,0.4,0.8,0.7 c2.1,2.2,1.9,5.7-0.3,7.7s-5.7,1.9-7.7-0.3c-0.2-0.3-0.5-0.5-0.6-0.8c-1.2,0.1-2.3,0.6-3.3,1.4c-2.2,2-2.3,5.5-0.3,7.6 C1275.3,1236.6,1278.6,1236.8,1280.8,1235z" style="fill: rgb(255, 255, 255);"/>
        <path id="XMLID_642_" class="st7" d="M1285.3,1226.6c2.2-2.1,2.3-5.5,0.3-7.7c-0.2-0.3-0.5-0.5-0.8-0.7c-0.1,0.8-0.1,1.6,0.2,2.4 c-1.1,0.4-2.1,1-3,1.9c-1.1,1-1.9,2.2-2.4,3.6c-0.8-0.4-1.8-0.6-2.7-0.5c0.2,0.3,0.4,0.6,0.6,0.8 C1279.6,1228.5,1283.1,1228.6,1285.3,1226.6z" style="fill: rgb(182, 108, 41);"/>
      </g>
      <g id="XMLID_638_">
        <path id="XMLID_640_" class="st8" d="M1255.3,1205.8c-0.3,0.3-0.6,0.5-0.9,0.9c-3.5,4-3.2,10,0.8,13.6c4,3.5,10,3.2,13.6-0.8 c0.3-0.3,0.6-0.7,0.8-1.1c2.2,1.2,4.9,0.8,6.6-1.1c2-2.2,1.8-5.6-0.4-7.6c-1-0.8-2.1-1.3-3.3-1.4c-0.2,0.3-0.4,0.6-0.6,0.8 c-2,2.3-5.5,2.5-7.7,0.4s-2.5-5.5-0.4-7.7c0.2-0.3,0.5-0.5,0.8-0.7c-0.2-1.2-0.8-2.3-1.7-3.1c-2.2-2-5.6-1.8-7.6,0.4 C1253.2,1200.6,1253.3,1203.8,1255.3,1205.8z" style="fill: rgb(255, 255, 255);"/>
        <path id="XMLID_639_" class="st7" d="M1264.2,1209.5c2.3,2,5.7,1.8,7.7-0.4c0.2-0.3,0.4-0.5,0.6-0.8c-0.8,0-1.6,0.1-2.3,0.4 c-0.5-1-1.2-2-2.1-2.8c-1.1-1-2.4-1.7-3.8-2.1c0.3-0.9,0.4-1.8,0.2-2.7c-0.3,0.2-0.5,0.4-0.8,0.7 C1261.7,1204.1,1261.9,1207.5,1264.2,1209.5z" style="fill: rgb(182, 108, 41);"/>
      </g>
      <g id="XMLID_635_">
        <path id="XMLID_637_" class="st8" d="M1269.2,1158.4c-0.3,0.3-0.6,0.5-0.9,0.9c-3.5,4-3.2,10,0.8,13.6c4,3.5,10,3.2,13.6-0.8 c0.3-0.3,0.6-0.7,0.8-1.1c2.2,1.2,4.9,0.8,6.6-1.1c2-2.2,1.8-5.6-0.4-7.6c-1-0.8-2.1-1.3-3.3-1.4c-0.2,0.3-0.4,0.6-0.6,0.8 c-2,2.3-5.5,2.5-7.7,0.4c-2.3-2-2.5-5.5-0.4-7.7c0.2-0.3,0.5-0.5,0.8-0.7c-0.2-1.2-0.8-2.3-1.7-3.1c-2.2-2-5.6-1.8-7.6,0.4 C1267.1,1153.2,1267.2,1156.4,1269.2,1158.4z" style="fill: rgb(255, 255, 255);"/>
        <path id="XMLID_636_" class="st7" d="M1278,1162.2c2.3,2,5.7,1.8,7.7-0.4c0.2-0.3,0.4-0.5,0.6-0.8c-0.8,0-1.6,0.1-2.3,0.4 c-0.5-1-1.2-2-2.1-2.8c-1.1-1-2.4-1.7-3.8-2.1c0.3-0.9,0.4-1.8,0.2-2.7c-0.3,0.2-0.5,0.4-0.8,0.7 C1275.6,1156.7,1275.8,1160.2,1278,1162.2z" style="fill: rgb(182, 108, 41);"/>
      </g>
      <g id="XMLID_632_">
        <path id="XMLID_634_" class="st6" d="M1191.8,1213.1c0,0.4-0.1,0.8,0,1.2c0.2,5.3,4.6,9.4,10,9.2c5.3-0.2,9.4-4.6,9.2-10 c0-0.5-0.1-0.9-0.1-1.3c2.4-0.6,4.1-2.8,4-5.4c-0.1-3-2.6-5.3-5.6-5.2c-1.3,0-2.4,0.5-3.3,1.3c0.1,0.3,0.1,0.7,0.1,1 c0.1,3-2.2,5.6-5.3,5.7c-3,0.1-5.6-2.2-5.7-5.3c0-0.4,0-0.7,0.1-1c-0.9-0.7-2.1-1.1-3.4-1.1c-3,0.1-5.3,2.6-5.2,5.6 C1186.7,1210.7,1189,1213,1191.8,1213.1z" style="fill: rgb(255, 241, 198);"/>
        <path id="XMLID_633_" class="st7" d="M1200.8,1209.6c3-0.1,5.4-2.6,5.3-5.7c0-0.4-0.1-0.7-0.1-1c-0.6,0.5-1.1,1.2-1.4,1.9 c-1.1-0.4-2.3-0.6-3.5-0.5c-1.5,0.1-2.9,0.5-4.1,1.1c-0.4-0.8-1-1.6-1.7-2.1c-0.1,0.3-0.1,0.7-0.1,1 C1195.2,1207.4,1197.8,1209.7,1200.8,1209.6z" style="fill: rgb(182, 108, 41);"/>
      </g>
      <g id="XMLID_629_">
        <path id="XMLID_631_" class="st6" d="M1223.4,1192.8c-0.4,0.2-0.7,0.3-1.1,0.5c-4.6,2.6-6.2,8.5-3.6,13.1 c2.6,4.6,8.5,6.2,13.1,3.6c0.4-0.2,0.8-0.5,1.1-0.7c1.7,1.8,4.4,2.3,6.6,1c2.6-1.5,3.5-4.8,2-7.4c-0.6-1.1-1.6-1.9-2.7-2.3 c-0.3,0.2-0.5,0.4-0.9,0.6c-2.6,1.5-6,0.6-7.5-2.1c-1.5-2.6-0.6-6,2.1-7.5c0.3-0.2,0.6-0.3,1-0.4c0.2-1.2,0-2.4-0.6-3.5 c-1.5-2.6-4.8-3.5-7.4-2C1223.1,1187.2,1222.2,1190.3,1223.4,1192.8z" style="fill: rgb(255, 241, 198);"/>
        <path id="XMLID_630_" class="st7" d="M1230.6,1199.2c1.5,2.6,4.8,3.5,7.5,2.1c0.3-0.2,0.6-0.4,0.9-0.6c-0.7-0.3-1.5-0.4-2.3-0.4 c-0.2-1.1-0.5-2.3-1.1-3.3c-0.7-1.3-1.7-2.4-2.9-3.2c0.6-0.7,0.9-1.6,1.1-2.5c-0.3,0.1-0.6,0.3-1,0.4 C1230,1193.2,1229.1,1196.6,1230.6,1199.2z" style="fill: rgb(182, 108, 41);"/>
      </g>
      <g id="XMLID_626_">
        <path id="XMLID_628_" class="st8" d="M1223.9,1221.9c-0.3,0.2-0.7,0.4-1,0.7c-4.2,3.2-5,9.3-1.8,13.5c3.2,4.2,9.3,5,13.5,1.8 c0.4-0.3,0.7-0.6,1-0.9c1.9,1.6,4.7,1.7,6.7,0.1c2.4-1.8,2.8-5.2,1-7.6c-0.8-1-1.8-1.7-3-1.9c-0.2,0.3-0.5,0.5-0.8,0.7 c-2.4,1.8-5.8,1.4-7.7-1c-1.8-2.4-1.4-5.8,1-7.7c0.3-0.2,0.6-0.4,0.9-0.6c0-1.2-0.3-2.4-1.1-3.4c-1.8-2.4-5.2-2.8-7.6-1 C1222.8,1216.4,1222.3,1219.6,1223.9,1221.9z" style="fill: rgb(255, 255, 255);"/>
        <path id="XMLID_627_" class="st7" d="M1231.8,1227.3c1.8,2.4,5.3,2.8,7.7,1c0.3-0.2,0.5-0.5,0.8-0.7c-0.8-0.2-1.6-0.2-2.4,0 c-0.3-1.1-0.9-2.2-1.6-3.1c-0.9-1.2-2.1-2.1-3.3-2.7c0.5-0.8,0.7-1.7,0.7-2.6c-0.3,0.2-0.6,0.3-0.9,0.6 C1230.4,1221.4,1230,1224.9,1231.8,1227.3z" style="fill: rgb(182, 108, 41);"/>
      </g>
      <g id="XMLID_623_">
        <path id="XMLID_625_" class="st9" d="M1225.5,1208.7c-0.3-0.3-0.5-0.6-0.8-0.9c-3.8-3.7-9.9-3.6-13.6,0.2 c-3.7,3.8-3.6,9.9,0.2,13.6c0.3,0.3,0.7,0.6,1,0.9c-1.3,2.1-1,4.9,0.9,6.7c2.1,2.1,5.6,2,7.6-0.1c0.9-0.9,1.4-2.1,1.5-3.2 c-0.3-0.2-0.6-0.4-0.8-0.6c-2.2-2.1-2.2-5.6-0.1-7.7s5.6-2.2,7.7-0.1c0.3,0.2,0.5,0.5,0.7,0.8c1.2-0.1,2.3-0.7,3.2-1.6 c2.1-2.1,2-5.6-0.1-7.6C1230.9,1206.8,1227.6,1206.8,1225.5,1208.7z" style="fill: rgb(246, 221, 145);"/>
        <path id="XMLID_624_" class="st10" d="M1221.4,1217.4c-2.1,2.2-2,5.6,0.1,7.7c0.3,0.2,0.5,0.5,0.8,0.6c0.1-0.8,0-1.6-0.3-2.4 c1-0.5,2-1.2,2.9-2c1-1.1,1.8-2.3,2.2-3.7c0.9,0.3,1.8,0.5,2.7,0.3c-0.2-0.3-0.4-0.6-0.7-0.8 C1227,1215.2,1223.6,1215.2,1221.4,1217.4z" style="fill: rgb(159, 82, 36);"/>
      </g>
      <g id="XMLID_619_">
        <path id="XMLID_622_" class="st9" d="M1261.3,1230.6c0,0.4,0,0.8,0,1.2c0.5,5.3,5.1,9.2,10.4,8.7c5.3-0.5,9.2-5.1,8.7-10.4 c0-0.5-0.1-0.9-0.2-1.3c2.3-0.8,3.9-3,3.7-5.6c-0.3-3-2.9-5.2-5.9-4.9c-1.3,0.1-2.4,0.7-3.3,1.5c0.1,0.3,0.2,0.7,0.2,1 c0.3,3-2,5.7-5,5.9c-3,0.3-5.7-2-5.9-5c0-0.4,0-0.7,0-1c-1-0.7-2.2-1-3.5-0.9c-3,0.3-5.2,2.9-4.9,5.9 C1256,1228.5,1258.4,1230.6,1261.3,1230.6z" style="fill: rgb(246, 221, 145);"/>
        <path id="XMLID_620_" class="st10" d="M1270.1,1226.7c3-0.3,5.2-2.9,5-5.9c0-0.4-0.1-0.7-0.2-1c-0.6,0.6-1,1.2-1.3,2 c-1.1-0.3-2.3-0.4-3.5-0.3c-1.5,0.1-2.9,0.6-4.1,1.3c-0.4-0.8-1.1-1.5-1.8-2c0,0.3,0,0.7,0,1 C1264.4,1224.7,1267,1227,1270.1,1226.7z" style="fill: rgb(159, 82, 36);"/>
      </g>
      <g id="XMLID_616_">
        <path id="XMLID_618_" class="st9" d="M1249.1,1190.8c-0.4-0.2-0.8-0.3-1.1-0.4c-5.1-1.5-10.4,1.4-11.9,6.5 c-1.5,5.1,1.4,10.4,6.5,11.9c0.4,0.1,0.9,0.2,1.3,0.3c-0.1,2.5,1.4,4.8,3.9,5.5c2.9,0.8,5.9-0.8,6.7-3.7c0.4-1.2,0.3-2.5-0.2-3.6 c-0.3,0-0.7-0.1-1-0.2c-2.9-0.8-4.6-3.9-3.7-6.8c0.8-2.9,3.9-4.6,6.8-3.7c0.3,0.1,0.7,0.2,1,0.4c1-0.7,1.7-1.7,2.1-2.9 c0.8-2.9-0.8-5.9-3.7-6.7C1252.9,1186.7,1250,1188.2,1249.1,1190.8z" style="fill: rgb(246, 221, 145);"/>
        <path id="XMLID_617_" class="st10" d="M1249.5,1200.4c-0.8,2.9,0.8,5.9,3.7,6.8c0.3,0.1,0.7,0.2,1,0.2c-0.3-0.7-0.8-1.4-1.4-1.9 c0.7-0.9,1.2-2,1.6-3.1c0.4-1.4,0.5-2.9,0.3-4.3c0.9-0.1,1.8-0.4,2.5-1c-0.3-0.2-0.6-0.3-1-0.4 C1253.4,1195.9,1250.3,1197.5,1249.5,1200.4z" style="fill: rgb(159, 82, 36);"/>
      </g>
      <g id="XMLID_613_">
        <path id="XMLID_615_" class="st9" d="M1204.3,1143.3c-0.4-0.2-0.8-0.3-1.1-0.4c-5.1-1.5-10.4,1.4-11.9,6.5 c-1.5,5.1,1.4,10.4,6.5,11.9c0.4,0.1,0.9,0.2,1.3,0.3c-0.1,2.5,1.4,4.8,3.9,5.5c2.9,0.8,5.9-0.8,6.7-3.7c0.4-1.2,0.3-2.5-0.2-3.6 c-0.3,0-0.7-0.1-1-0.2c-2.9-0.8-4.6-3.9-3.7-6.8c0.8-2.9,3.9-4.6,6.8-3.7c0.3,0.1,0.7,0.2,1,0.4c1-0.7,1.7-1.7,2.1-2.9 c0.8-2.9-0.8-5.9-3.7-6.7C1208.2,1139.1,1205.3,1140.6,1204.3,1143.3z" style="fill: rgb(246, 221, 145);"/>
        <path id="XMLID_614_" class="st10" d="M1204.7,1152.9c-0.8,2.9,0.8,5.9,3.7,6.8c0.3,0.1,0.7,0.2,1,0.2c-0.3-0.7-0.8-1.4-1.4-1.9 c0.7-0.9,1.2-2,1.6-3.1c0.4-1.4,0.5-2.9,0.3-4.3c0.9-0.1,1.8-0.4,2.5-1c-0.3-0.2-0.6-0.3-1-0.4 C1208.6,1148.3,1205.6,1150,1204.7,1152.9z" style="fill: rgb(159, 82, 36);"/>
      </g>
      <g id="XMLID_610_">
        <path id="XMLID_612_" class="st6" d="M1163.8,1222.1c-0.4,0.1-0.7,0.3-1.1,0.5c-4.7,2.5-6.5,8.3-4,13c2.5,4.7,8.3,6.5,13,4 c0.4-0.2,0.8-0.5,1.1-0.7c1.6,1.9,4.3,2.4,6.6,1.3c2.6-1.4,3.7-4.7,2.3-7.3c-0.6-1.1-1.5-2-2.6-2.4c-0.3,0.2-0.6,0.4-0.9,0.6 c-2.7,1.4-6,0.4-7.4-2.3c-1.4-2.7-0.4-6,2.3-7.4c0.3-0.2,0.6-0.3,1-0.4c0.2-1.2,0.1-2.4-0.5-3.5c-1.4-2.6-4.7-3.7-7.3-2.3 C1163.7,1216.4,1162.7,1219.5,1163.8,1222.1z" style="fill: rgb(255, 241, 198);"/>
        <path id="XMLID_611_" class="st7" d="M1170.8,1228.7c1.4,2.7,4.7,3.7,7.4,2.3c0.3-0.2,0.6-0.4,0.9-0.6c-0.7-0.3-1.5-0.5-2.3-0.4 c-0.1-1.1-0.5-2.3-1-3.3c-0.7-1.3-1.7-2.4-2.8-3.3c0.6-0.7,1-1.6,1.2-2.5c-0.3,0.1-0.7,0.2-1,0.4 C1170.4,1222.7,1169.4,1226,1170.8,1228.7z" style="fill: rgb(182, 108, 41);"/>
      </g>
      <g id="XMLID_607_">
        <path id="XMLID_609_" class="st6" d="M1243.4,1232.8c0.1,0.4,0.2,0.8,0.4,1.2c2.1,4.9,7.7,7.2,12.6,5.1s7.2-7.7,5.1-12.6 c-0.2-0.4-0.4-0.8-0.6-1.2c2-1.4,2.8-4.1,1.8-6.5c-1.2-2.7-4.3-4-7.1-2.9c-1.2,0.5-2.1,1.4-2.6,2.4c0.2,0.3,0.4,0.6,0.5,0.9 c1.2,2.8-0.1,6-2.9,7.2c-2.8,1.2-6-0.1-7.2-2.9c-0.1-0.3-0.2-0.7-0.3-1c-1.1-0.3-2.4-0.3-3.6,0.2c-2.7,1.2-4,4.3-2.9,7.1 C1237.8,1232.4,1240.7,1233.7,1243.4,1232.8z" style="fill: rgb(255, 241, 198);"/>
        <path id="XMLID_608_" class="st7" d="M1250.6,1226.4c2.8-1.2,4.1-4.4,2.9-7.2c-0.1-0.3-0.3-0.6-0.5-0.9c-0.4,0.7-0.6,1.5-0.6,2.3 c-1.1,0-2.3,0.3-3.4,0.8c-1.4,0.6-2.6,1.5-3.5,2.5c-0.7-0.7-1.5-1.1-2.4-1.4c0.1,0.3,0.2,0.7,0.3,1 C1244.6,1226.3,1247.8,1227.6,1250.6,1226.4z" style="fill: rgb(182, 108, 41);"/>
      </g>
      <g id="XMLID_604_">
        <path id="XMLID_606_" class="st6" d="M1273.6,1215.6c0.1,0.4,0.2,0.8,0.4,1.2c2.1,4.9,7.7,7.2,12.6,5.1s7.2-7.7,5.1-12.6 c-0.2-0.4-0.4-0.8-0.6-1.2c2-1.4,2.8-4.1,1.8-6.5c-1.2-2.7-4.3-4-7.1-2.9c-1.2,0.5-2.1,1.4-2.6,2.4c0.2,0.3,0.4,0.6,0.5,0.9 c1.2,2.8-0.1,6-2.9,7.2c-2.8,1.2-6-0.1-7.2-2.9c-0.1-0.3-0.2-0.7-0.3-1c-1.1-0.3-2.4-0.3-3.6,0.2c-2.7,1.2-4,4.3-2.9,7.1 C1268,1215.2,1271,1216.5,1273.6,1215.6z" style="fill: rgb(255, 241, 198);"/>
        <path id="XMLID_605_" class="st7" d="M1280.8,1209.2c2.8-1.2,4.1-4.4,2.9-7.2c-0.1-0.3-0.3-0.6-0.5-0.9c-0.4,0.7-0.6,1.5-0.6,2.3 c-1.1,0-2.3,0.3-3.4,0.8c-1.4,0.6-2.6,1.5-3.5,2.5c-0.7-0.7-1.5-1.1-2.4-1.4c0.1,0.3,0.2,0.7,0.3,1 C1274.8,1209.1,1278,1210.4,1280.8,1209.2z" style="fill: rgb(182, 108, 41);"/>
      </g>
      <g id="XMLID_601_">
        <path id="XMLID_603_" class="st6" d="M1241.6,1117.2c-0.4,0-0.8,0-1.2,0c-5.3,0.5-9.2,5.2-8.7,10.5c0.5,5.3,5.2,9.2,10.5,8.7 c0.5,0,0.9-0.1,1.3-0.2c0.8,2.3,3.1,3.9,5.6,3.7c3-0.3,5.2-2.9,4.9-5.9c-0.1-1.3-0.7-2.4-1.5-3.2c-0.3,0.1-0.7,0.2-1,0.2 c-3,0.3-5.7-1.9-6-4.9c-0.3-3,1.9-5.7,4.9-6c0.4,0,0.7,0,1,0c0.7-1,1-2.2,0.9-3.5c-0.3-3-2.9-5.2-5.9-4.9 C1243.6,1111.9,1241.5,1114.4,1241.6,1117.2z" style="fill: rgb(255, 241, 198);"/>
        <path id="XMLID_602_" class="st7" d="M1245.5,1126c0.3,3,2.9,5.2,6,4.9c0.4,0,0.7-0.1,1-0.2c-0.6-0.6-1.2-1-2-1.3 c0.3-1.1,0.4-2.3,0.3-3.5c-0.1-1.5-0.6-2.9-1.3-4.1c0.8-0.4,1.5-1.1,2-1.8c-0.3,0-0.7,0-1,0 C1247.5,1120.3,1245.2,1122.9,1245.5,1126z" style="fill: rgb(182, 108, 41);"/>
      </g>
      <g id="XMLID_598_">
        <path id="XMLID_600_" class="st6" d="M1296.9,1219.1c-0.3,0.2-0.7,0.5-1,0.7c-4,3.5-4.4,9.6-0.9,13.6c3.5,4,9.6,4.4,13.6,0.9 c0.3-0.3,0.7-0.6,0.9-1c2,1.4,4.8,1.4,6.7-0.3c2.2-2,2.5-5.4,0.5-7.6c-0.8-1-2-1.5-3.1-1.7c-0.2,0.3-0.4,0.5-0.7,0.8 c-2.3,2-5.7,1.8-7.7-0.5s-1.8-5.7,0.5-7.7c0.3-0.2,0.6-0.4,0.9-0.6c-0.1-1.2-0.5-2.4-1.3-3.3c-2-2.2-5.4-2.5-7.6-0.5 C1295.4,1213.6,1295.1,1216.9,1296.9,1219.1z" style="fill: rgb(255, 241, 198);"/>
        <path id="XMLID_599_" class="st7" d="M1305.2,1223.9c2,2.3,5.5,2.5,7.7,0.5c0.3-0.2,0.5-0.5,0.7-0.8c-0.8-0.1-1.6-0.1-2.4,0.1 c-0.4-1.1-1-2.1-1.8-3c-1-1.1-2.2-2-3.5-2.5c0.4-0.8,0.6-1.8,0.6-2.7c-0.3,0.2-0.6,0.4-0.9,0.6 C1303.4,1218.2,1303.2,1221.6,1305.2,1223.9z" style="fill: rgb(182, 108, 41);"/>
      </g>
      <g id="XMLID_595_">
        <path id="XMLID_597_" class="st6" d="M1201.7,1226.5c-0.1,0.4-0.2,0.8-0.3,1.2c-1.1,5.2,2.3,10.3,7.5,11.4s10.3-2.3,11.4-7.5 c0.1-0.4,0.2-0.9,0.2-1.3c2.5-0.1,4.6-1.8,5.2-4.3c0.6-2.9-1.3-5.8-4.2-6.4c-1.2-0.3-2.5-0.1-3.5,0.5c0,0.3,0,0.7-0.1,1 c-0.6,3-3.5,4.9-6.5,4.2c-3-0.6-4.9-3.5-4.2-6.5c0.1-0.3,0.2-0.7,0.3-1c-0.8-0.9-1.8-1.6-3.1-1.8c-2.9-0.6-5.8,1.3-6.4,4.2 C1197.2,1223,1198.9,1225.8,1201.7,1226.5z" style="fill: rgb(255, 241, 198);"/>
        <path id="XMLID_596_" class="st7" d="M1211.2,1225.4c3,0.6,5.9-1.3,6.5-4.2c0.1-0.3,0.1-0.7,0.1-1c-0.7,0.4-1.3,0.9-1.8,1.5 c-1-0.6-2.1-1.1-3.2-1.3c-1.5-0.3-2.9-0.3-4.3,0.1c-0.2-0.9-0.6-1.8-1.2-2.5c-0.1,0.3-0.2,0.7-0.3,1 C1206.3,1221.8,1208.2,1224.7,1211.2,1225.4z" style="fill: rgb(182, 108, 41);"/>
      </g>
      <g id="XMLID_592_">
        <path id="XMLID_594_" class="st8" d="M1183.7,1225c0.4,0,0.8,0.1,1.2,0.1c5.3-0.1,9.6-4.4,9.5-9.7c-0.1-5.3-4.4-9.6-9.7-9.5 c-0.5,0-0.9,0-1.3,0.1c-0.6-2.4-2.7-4.2-5.3-4.1c-3,0-5.4,2.5-5.3,5.5c0,1.3,0.5,2.4,1.2,3.4c0.3-0.1,0.7-0.1,1-0.1 c3,0,5.5,2.4,5.5,5.4c0,3-2.4,5.5-5.4,5.5c-0.4,0-0.7,0-1-0.1c-0.7,0.9-1.2,2.1-1.1,3.4c0,3,2.5,5.4,5.5,5.3 C1181.2,1230,1183.5,1227.8,1183.7,1225z" style="fill: rgb(255, 255, 255);"/>
        <path id="XMLID_593_" class="st7" d="M1180.5,1215.9c0-3-2.5-5.4-5.5-5.4c-0.4,0-0.7,0-1,0.1c0.5,0.6,1.1,1.1,1.9,1.5 c-0.4,1.1-0.6,2.2-0.6,3.4c0,1.5,0.4,2.9,1,4.2c-0.9,0.4-1.6,0.9-2.2,1.7c0.3,0.1,0.7,0.1,1,0.1 C1178.1,1221.4,1180.5,1218.9,1180.5,1215.9z" style="fill: rgb(182, 108, 41);"/>
      </g>
      <g id="XMLID_573_">
        <path id="XMLID_591_" class="st9" d="M1184.7,1234.9c0.2,0.4,0.4,0.7,0.6,1.1c3,4.4,9,5.5,13.3,2.5s5.5-9,2.5-13.3 c-0.3-0.4-0.5-0.7-0.8-1.1c1.7-1.8,1.9-4.6,0.5-6.7c-1.7-2.5-5-3.1-7.5-1.4c-1.1,0.7-1.8,1.7-2.1,2.9c0.2,0.2,0.5,0.5,0.7,0.8 c1.7,2.5,1.1,5.9-1.4,7.6c-2.5,1.7-5.9,1.1-7.6-1.4c-0.2-0.3-0.4-0.6-0.5-0.9c-1.2-0.1-2.4,0.2-3.4,0.9c-2.5,1.7-3.1,5-1.4,7.5 C1179.1,1235.7,1182.2,1236.4,1184.7,1234.9z" style="fill: rgb(246, 221, 145);"/>
        <path id="XMLID_590_" class="st10" d="M1190.4,1227.3c2.5-1.7,3.1-5.1,1.4-7.6c-0.2-0.3-0.4-0.6-0.7-0.8 c-0.2,0.8-0.3,1.6-0.2,2.4c-1.1,0.3-2.2,0.7-3.2,1.4c-1.2,0.8-2.2,1.9-2.9,3.2c-0.8-0.5-1.7-0.8-2.6-0.9c0.1,0.3,0.3,0.6,0.5,0.9 C1184.5,1228.3,1187.9,1229,1190.4,1227.3z" style="fill: rgb(159, 82, 36);"/>
      </g>
      <path id="XMLID_572_" class="st11" d="M1319.7,1246.9h-163.5c-3.3,0-6-2.7-6-6v-1.4c0-3.3,2.7-6,6-6h163.5c3.3,0,6,2.7,6,6v1.4 C1325.7,1244.2,1323,1246.9,1319.7,1246.9z" style="fill: rgb(236, 234, 230);"/>
      <polygon id="XMLID_571_" class="st12" points="1283.9,1257.4 1268.8,1395.8 1296.1,1395.8 1314.2,1257.4 &#9;&#9;" style="fill: rgb(227, 39, 38);"/>
      <polygon id="XMLID_570_" class="st13" points="1314.2,1257.4 1315.6,1246.9 1285.1,1246.9 1283.9,1257.4 &#9;&#9;" style="fill: rgb(208, 32, 38);"/>
      <polygon id="XMLID_569_" class="st8" points="1187.7,1257.4 1202.8,1395.8 1226.4,1395.8 1217.2,1257.4 &#9;&#9;" style="fill: rgb(255, 255, 255);"/>
      <polygon id="XMLID_568_" class="st14" points="1217.2,1257.4 1216.5,1246.9 1186.6,1246.9 1187.7,1257.4 &#9;&#9;" style="fill: rgb(241, 241, 241);"/>
      <polygon id="XMLID_567_" class="st12" points="1161.8,1257.4 1179.9,1395.8 1202.8,1395.8 1187.7,1257.4 &#9;&#9;" style="fill: rgb(227, 39, 38);"/>
      <polygon id="XMLID_566_" class="st13" points="1186.6,1246.9 1160.4,1246.9 1161.8,1257.4 1187.7,1257.4 &#9;&#9;" style="fill: rgb(208, 32, 38);"/>
      <polygon id="XMLID_564_" class="st8" points="1254.6,1257.4 1247.6,1395.8 1268.8,1395.8 1283.9,1257.4 &#9;&#9;" style="fill: rgb(255, 255, 255);"/>
      <polygon id="XMLID_562_" class="st14" points="1283.9,1257.4 1285.1,1246.9 1255.2,1246.9 1254.6,1257.4 &#9;&#9;" style="fill: rgb(241, 241, 241);"/>
      <polygon id="XMLID_561_" class="st13" points="1254.8,1257.4 1255.6,1246.9 1238.4,1246.9 1216.9,1246.9 1217.7,1257.4 &#9;&#9;" style="fill: rgb(208, 32, 38);"/>
      <polygon id="XMLID_560_" class="st12" points="1217.3,1257.4 1228,1395.8 1238,1395.8 1243.6,1395.8 1254.4,1257.4 &#9;&#9;" style="fill: rgb(227, 39, 38);"/>
      <polygon id="XMLID_559_" class="st12" points="1217.2,1257.4 1226.4,1395.8 1228,1395.8 1217.3,1257.4 &#9;&#9;" style="fill: rgb(227, 39, 38);"/>
      <polygon id="XMLID_558_" class="st12" points="1217.3,1257.4 1216.5,1246.9 1217.2,1257.4 &#9;&#9;" style="fill: rgb(227, 39, 38);"/>
      <polygon id="XMLID_557_" class="st12" points="1254.4,1257.4 1243.6,1395.8 1247.6,1395.8 1254.6,1257.4 &#9;&#9;" style="fill: rgb(227, 39, 38);"/>
      <polygon id="XMLID_554_" class="st12" points="1254.6,1257.4 1255.2,1246.9 1254.4,1257.4 &#9;&#9;" style="fill: rgb(227, 39, 38);"/>
    </g>
    <g id="XMLID_668_" class="st32" style="clip-path: url(#XMLID_265_);">
      <g id="XMLID_801_">
        <path id="XMLID_803_" class="st6" d="M777.9,1143.2c-0.1-0.4-0.2-0.8-0.3-1.2c-1.7-5-7.2-7.7-12.2-5.9c-5,1.7-7.7,7.2-5.9,12.2 c0.1,0.4,0.3,0.8,0.5,1.2c-2.1,1.3-3.1,3.9-2.2,6.3c1,2.8,4.1,4.3,6.9,3.3c1.2-0.4,2.2-1.2,2.8-2.2c-0.2-0.3-0.3-0.6-0.4-0.9 c-1-2.9,0.5-6,3.4-7c2.9-1,6,0.5,7,3.4c0.1,0.3,0.2,0.7,0.2,1c1.1,0.4,2.4,0.4,3.6,0c2.8-1,4.3-4.1,3.3-6.9 C783.5,1143.9,780.6,1142.4,777.9,1143.2z" style="fill: rgb(255, 241, 198);"/>
        <path id="XMLID_802_" class="st7" d="M770.3,1149.1c-2.9,1-4.4,4.1-3.4,7c0.1,0.3,0.3,0.7,0.4,0.9c0.4-0.7,0.7-1.4,0.8-2.2 c1.1,0,2.3-0.1,3.5-0.5c1.4-0.5,2.6-1.3,3.6-2.3c0.6,0.7,1.4,1.2,2.3,1.5c0-0.3-0.1-0.7-0.2-1 C776.3,1149.6,773.2,1148.1,770.3,1149.1z" style="fill: rgb(182, 108, 41);"/>
      </g>
      <g id="XMLID_798_">
        <path id="XMLID_800_" class="st8" d="M831.7,1154.8c0.4,0,0.8,0.1,1.2,0.1c5.3-0.1,9.5-4.5,9.4-9.8c-0.1-5.3-4.5-9.5-9.8-9.4 c-0.5,0-0.9,0-1.3,0.1c-0.6-2.4-2.8-4.1-5.3-4.1c-3,0.1-5.4,2.5-5.3,5.5c0,1.3,0.5,2.4,1.2,3.3c0.3-0.1,0.7-0.1,1-0.1 c3-0.1,5.5,2.4,5.6,5.4c0.1,3-2.4,5.5-5.4,5.6c-0.4,0-0.7,0-1-0.1c-0.7,0.9-1.1,2.1-1.1,3.4c0.1,3,2.5,5.4,5.5,5.3 C829.2,1159.9,831.5,1157.6,831.7,1154.8z" style="fill: rgb(255, 255, 255);"/>
        <path id="XMLID_799_" class="st7" d="M828.4,1145.7c-0.1-3-2.5-5.4-5.6-5.4c-0.4,0-0.7,0-1,0.1c0.5,0.6,1.1,1.1,1.9,1.5 c-0.4,1.1-0.6,2.2-0.6,3.5c0,1.5,0.4,2.9,1,4.2c-0.9,0.4-1.6,0.9-2.2,1.7c0.3,0.1,0.7,0.1,1,0.1 C826.1,1151.3,828.5,1148.8,828.4,1145.7z" style="fill: rgb(182, 108, 41);"/>
      </g>
      <g id="XMLID_795_">
        <path id="XMLID_797_" class="st8" d="M787.1,1130.1c-0.1,0.4-0.1,0.8-0.1,1.2c-0.3,5.3,3.8,9.8,9.1,10.1 c5.3,0.3,9.8-3.8,10.1-9.1c0-0.5,0-0.9,0-1.3c2.4-0.4,4.3-2.5,4.5-5c0.2-3-2.1-5.5-5.1-5.7c-1.3-0.1-2.5,0.3-3.4,1 c0,0.3,0.1,0.7,0,1c-0.2,3-2.7,5.3-5.8,5.2c-3-0.2-5.3-2.7-5.2-5.8c0-0.4,0.1-0.7,0.2-1c-0.9-0.8-2-1.3-3.3-1.4 c-3-0.2-5.5,2.1-5.7,5.1C782.2,1127.3,784.3,1129.7,787.1,1130.1z" style="fill: rgb(255, 255, 255);"/>
        <path id="XMLID_796_" class="st7" d="M796.3,1127.4c3,0.2,5.6-2.2,5.8-5.2c0-0.4,0-0.7,0-1c-0.6,0.5-1.2,1.1-1.6,1.8 c-1-0.5-2.2-0.8-3.4-0.8c-1.5-0.1-2.9,0.2-4.2,0.7c-0.3-0.9-0.8-1.7-1.5-2.3c-0.1,0.3-0.1,0.7-0.2,1 C791,1124.7,793.3,1127.3,796.3,1127.4z" style="fill: rgb(182, 108, 41);"/>
      </g>
      <g id="XMLID_792_">
        <path id="XMLID_794_" class="st8" d="M759.1,1109c-0.2-0.3-0.5-0.6-0.8-0.9c-3.6-3.9-9.7-4.1-13.6-0.5c-3.9,3.6-4.1,9.7-0.5,13.6 c0.3,0.3,0.6,0.6,1,0.9c-1.4,2-1.2,4.8,0.5,6.7c2,2.2,5.5,2.3,7.6,0.3c0.9-0.9,1.5-2,1.7-3.2c-0.3-0.2-0.5-0.4-0.8-0.7 c-2.1-2.2-1.9-5.7,0.3-7.7s5.7-1.9,7.7,0.3c0.2,0.3,0.5,0.5,0.6,0.8c1.2-0.1,2.3-0.6,3.3-1.4c2.2-2,2.3-5.5,0.3-7.6 C764.5,1107.4,761.3,1107.2,759.1,1109z" style="fill: rgb(255, 255, 255);"/>
        <path id="XMLID_793_" class="st7" d="M754.6,1117.5c-2.2,2.1-2.3,5.5-0.3,7.7c0.2,0.3,0.5,0.5,0.8,0.7c0.1-0.8,0.1-1.6-0.2-2.4 c1.1-0.4,2.1-1,3-1.9c1.1-1,1.9-2.2,2.4-3.6c0.8,0.4,1.8,0.6,2.7,0.5c-0.2-0.3-0.4-0.6-0.6-0.8 C760.2,1115.5,756.8,1115.4,754.6,1117.5z" style="fill: rgb(182, 108, 41);"/>
      </g>
      <g id="XMLID_789_">
        <path id="XMLID_791_" class="st8" d="M784.6,1138.2c0.3-0.3,0.6-0.5,0.9-0.9c3.5-4,3.2-10-0.8-13.6c-4-3.5-10-3.2-13.6,0.8 c-0.3,0.3-0.6,0.7-0.8,1.1c-2.2-1.2-4.9-0.8-6.6,1.1c-2,2.2-1.8,5.6,0.4,7.6c1,0.8,2.1,1.3,3.3,1.4c0.2-0.3,0.4-0.6,0.6-0.8 c2-2.3,5.5-2.5,7.7-0.4c2.3,2,2.5,5.5,0.4,7.7c-0.2,0.3-0.5,0.5-0.8,0.7c0.2,1.2,0.8,2.3,1.7,3.1c2.2,2,5.6,1.8,7.6-0.4 C786.7,1143.5,786.5,1140.2,784.6,1138.2z" style="fill: rgb(255, 255, 255);"/>
        <path id="XMLID_790_" class="st7" d="M775.7,1134.5c-2.3-2-5.7-1.8-7.7,0.4c-0.2,0.3-0.4,0.5-0.6,0.8c0.8,0,1.6-0.1,2.3-0.4 c0.5,1,1.2,2,2.1,2.8c1.1,1,2.4,1.7,3.8,2.1c-0.3,0.9-0.4,1.8-0.2,2.7c0.3-0.2,0.5-0.4,0.8-0.7 C778.2,1139.9,778,1136.5,775.7,1134.5z" style="fill: rgb(182, 108, 41);"/>
      </g>
      <g id="XMLID_786_">
        <path id="XMLID_788_" class="st8" d="M770.7,1185.6c0.3-0.3,0.6-0.5,0.9-0.9c3.5-4,3.2-10-0.8-13.6c-4-3.5-10-3.2-13.6,0.8 c-0.3,0.3-0.6,0.7-0.8,1.1c-2.2-1.2-4.9-0.8-6.6,1.1c-2,2.2-1.8,5.6,0.4,7.6c1,0.8,2.1,1.3,3.3,1.4c0.2-0.3,0.4-0.6,0.6-0.8 c2-2.3,5.5-2.5,7.7-0.4c2.3,2,2.5,5.5,0.4,7.7c-0.2,0.3-0.5,0.5-0.8,0.7c0.2,1.2,0.8,2.3,1.7,3.1c2.2,2,5.6,1.8,7.6-0.4 C772.8,1190.8,772.6,1187.6,770.7,1185.6z" style="fill: rgb(255, 255, 255);"/>
        <path id="XMLID_787_" class="st7" d="M761.8,1181.8c-2.3-2-5.7-1.8-7.7,0.4c-0.2,0.3-0.4,0.5-0.6,0.8c0.8,0,1.6-0.1,2.3-0.4 c0.5,1,1.2,2,2.1,2.8c1.1,1,2.4,1.7,3.8,2.1c-0.3,0.9-0.4,1.8-0.2,2.7c0.3-0.2,0.5-0.4,0.8-0.7 C764.3,1187.3,764.1,1183.9,761.8,1181.8z" style="fill: rgb(182, 108, 41);"/>
      </g>
      <g id="XMLID_783_">
        <path id="XMLID_785_" class="st6" d="M848,1131c0-0.4,0.1-0.8,0-1.2c-0.2-5.3-4.6-9.4-10-9.2c-5.3,0.2-9.4,4.6-9.2,10 c0,0.5,0.1,0.9,0.1,1.3c-2.4,0.6-4.1,2.8-4,5.4c0.1,3,2.6,5.3,5.6,5.2c1.3,0,2.4-0.5,3.3-1.3c-0.1-0.3-0.1-0.7-0.1-1 c-0.1-3,2.2-5.6,5.3-5.7c3-0.1,5.6,2.2,5.7,5.3c0,0.4,0,0.7-0.1,1c0.9,0.7,2.1,1.1,3.4,1.1c3-0.1,5.3-2.6,5.2-5.6 C853.2,1133.3,850.9,1131,848,1131z" style="fill: rgb(255, 241, 198);"/>
        <path id="XMLID_784_" class="st7" d="M839.1,1134.4c-3,0.1-5.4,2.6-5.3,5.7c0,0.4,0.1,0.7,0.1,1c0.6-0.5,1.1-1.2,1.4-1.9 c1.1,0.4,2.3,0.6,3.5,0.5c1.5-0.1,2.9-0.5,4.1-1.1c0.4,0.8,1,1.6,1.7,2.1c0.1-0.3,0.1-0.7,0.1-1 C844.6,1136.6,842.1,1134.3,839.1,1134.4z" style="fill: rgb(182, 108, 41);"/>
      </g>
      <g id="XMLID_780_">
        <path id="XMLID_782_" class="st6" d="M816.5,1151.2c0.4-0.2,0.7-0.3,1.1-0.5c4.6-2.6,6.2-8.5,3.6-13.1c-2.6-4.6-8.5-6.2-13.1-3.6 c-0.4,0.2-0.8,0.5-1.1,0.7c-1.7-1.8-4.4-2.3-6.6-1c-2.6,1.5-3.5,4.8-2,7.4c0.6,1.1,1.6,1.9,2.7,2.3c0.3-0.2,0.5-0.4,0.9-0.6 c2.6-1.5,6-0.6,7.5,2.1s0.6,6-2.1,7.5c-0.3,0.2-0.6,0.3-1,0.4c-0.2,1.2,0,2.4,0.6,3.5c1.5,2.6,4.8,3.5,7.4,2 C816.8,1156.8,817.7,1153.7,816.5,1151.2z" style="fill: rgb(255, 241, 198);"/>
        <path id="XMLID_781_" class="st7" d="M809.3,1144.8c-1.5-2.6-4.8-3.5-7.5-2.1c-0.3,0.2-0.6,0.4-0.9,0.6c0.7,0.3,1.5,0.4,2.3,0.4 c0.2,1.1,0.5,2.3,1.1,3.3c0.7,1.3,1.7,2.4,2.9,3.2c-0.6,0.7-0.9,1.6-1.1,2.5c0.3-0.1,0.6-0.3,1-0.4 C809.9,1150.8,810.8,1147.5,809.3,1144.8z" style="fill: rgb(182, 108, 41);"/>
      </g>
      <g id="XMLID_777_">
        <path id="XMLID_779_" class="st8" d="M816,1122.1c0.3-0.2,0.7-0.4,1-0.7c4.2-3.2,5-9.3,1.8-13.5c-3.2-4.2-9.3-5-13.5-1.8 c-0.4,0.3-0.7,0.6-1,0.9c-1.9-1.6-4.7-1.7-6.7-0.1c-2.4,1.8-2.8,5.2-1,7.6c0.8,1,1.8,1.7,3,1.9c0.2-0.3,0.5-0.5,0.8-0.7 c2.4-1.8,5.8-1.4,7.7,1c1.8,2.4,1.4,5.8-1,7.7c-0.3,0.2-0.6,0.4-0.9,0.6c0,1.2,0.3,2.4,1.1,3.4c1.8,2.4,5.2,2.8,7.6,1 C817.1,1127.6,817.6,1124.4,816,1122.1z" style="fill: rgb(255, 255, 255);"/>
        <path id="XMLID_778_" class="st7" d="M808,1116.8c-1.8-2.4-5.3-2.8-7.7-1c-0.3,0.2-0.5,0.5-0.8,0.7c0.8,0.2,1.6,0.2,2.4,0 c0.3,1.1,0.9,2.2,1.6,3.1c0.9,1.2,2.1,2.1,3.3,2.7c-0.5,0.8-0.7,1.7-0.7,2.6c0.3-0.2,0.6-0.3,0.9-0.6 C809.4,1122.6,809.9,1119.2,808,1116.8z" style="fill: rgb(182, 108, 41);"/>
      </g>
      <g id="XMLID_774_">
        <path id="XMLID_776_" class="st9" d="M814.3,1135.3c0.3,0.3,0.5,0.6,0.8,0.9c3.8,3.7,9.9,3.6,13.6-0.2c3.7-3.8,3.6-9.9-0.2-13.6 c-0.3-0.3-0.7-0.6-1-0.9c1.3-2.1,1-4.9-0.9-6.7c-2.1-2.1-5.6-2-7.6,0.1c-0.9,0.9-1.4,2.1-1.5,3.2c0.3,0.2,0.6,0.4,0.8,0.6 c2.2,2.1,2.2,5.6,0.1,7.7c-2.1,2.2-5.6,2.2-7.7,0.1c-0.3-0.2-0.5-0.5-0.7-0.8c-1.2,0.1-2.3,0.7-3.2,1.6c-2.1,2.1-2,5.6,0.1,7.6 C809,1137.2,812.2,1137.2,814.3,1135.3z" style="fill: rgb(246, 221, 145);"/>
        <path id="XMLID_775_" class="st10" d="M818.4,1126.6c2.1-2.2,2-5.6-0.1-7.7c-0.3-0.2-0.5-0.5-0.8-0.6c-0.1,0.8,0,1.6,0.3,2.4 c-1,0.5-2,1.2-2.9,2c-1,1.1-1.8,2.3-2.2,3.7c-0.9-0.3-1.8-0.5-2.7-0.3c0.2,0.3,0.4,0.6,0.7,0.8 C812.9,1128.9,816.3,1128.8,818.4,1126.6z" style="fill: rgb(159, 82, 36);"/>
      </g>
      <g id="XMLID_771_">
        <path id="XMLID_773_" class="st9" d="M778.6,1113.5c0-0.4,0-0.8,0-1.2c-0.5-5.3-5.1-9.2-10.4-8.7c-5.3,0.5-9.2,5.1-8.7,10.4 c0,0.5,0.1,0.9,0.2,1.3c-2.3,0.8-3.9,3-3.7,5.6c0.3,3,2.9,5.2,5.9,4.9c1.3-0.1,2.4-0.7,3.3-1.5c-0.1-0.3-0.2-0.7-0.2-1 c-0.3-3,2-5.7,5-5.9s5.7,2,5.9,5c0,0.4,0,0.7,0,1c1,0.7,2.2,1,3.5,0.9c3-0.3,5.2-2.9,4.9-5.9 C783.9,1115.5,781.4,1113.4,778.6,1113.5z" style="fill: rgb(246, 221, 145);"/>
        <path id="XMLID_772_" class="st10" d="M769.8,1117.3c-3,0.3-5.2,2.9-5,5.9c0,0.4,0.1,0.7,0.2,1c0.6-0.6,1-1.2,1.3-2 c1.1,0.3,2.3,0.4,3.5,0.3c1.5-0.1,2.9-0.6,4.1-1.3c0.4,0.8,1.1,1.5,1.8,2c0-0.3,0-0.7,0-1 C775.5,1119.3,772.8,1117.1,769.8,1117.3z" style="fill: rgb(159, 82, 36);"/>
      </g>
      <g id="XMLID_768_">
        <path id="XMLID_770_" class="st9" d="M790.8,1153.2c0.4,0.2,0.8,0.3,1.1,0.4c5.1,1.5,10.4-1.4,11.9-6.5 c1.5-5.1-1.4-10.4-6.5-11.9c-0.4-0.1-0.9-0.2-1.3-0.3c0.1-2.5-1.4-4.8-3.9-5.5c-2.9-0.8-5.9,0.8-6.7,3.7 c-0.4,1.2-0.3,2.5,0.2,3.6c0.3,0,0.7,0.1,1,0.2c2.9,0.8,4.6,3.9,3.7,6.8c-0.8,2.9-3.9,4.6-6.8,3.7c-0.3-0.1-0.7-0.2-1-0.4 c-1,0.7-1.7,1.7-2.1,2.9c-0.8,2.9,0.8,5.9,3.7,6.7C787,1157.3,789.8,1155.8,790.8,1153.2z" style="fill: rgb(246, 221, 145);"/>
        <path id="XMLID_769_" class="st10" d="M790.4,1143.6c0.8-2.9-0.8-5.9-3.7-6.8c-0.3-0.1-0.7-0.2-1-0.2c0.3,0.7,0.8,1.4,1.4,1.9 c-0.7,0.9-1.2,2-1.6,3.1c-0.4,1.4-0.5,2.9-0.3,4.3c-0.9,0.1-1.8,0.4-2.5,1c0.3,0.2,0.6,0.3,1,0.4 C786.5,1148.2,789.5,1146.5,790.4,1143.6z" style="fill: rgb(159, 82, 36);"/>
      </g>
      <g id="XMLID_765_">
        <path id="XMLID_767_" class="st9" d="M835.6,1200.7c0.4,0.2,0.8,0.3,1.1,0.4c5.1,1.5,10.4-1.4,11.9-6.5 c1.5-5.1-1.4-10.4-6.5-11.9c-0.4-0.1-0.9-0.2-1.3-0.3c0.1-2.5-1.4-4.8-3.9-5.5c-2.9-0.8-5.9,0.8-6.7,3.7 c-0.4,1.2-0.3,2.5,0.2,3.6c0.3,0,0.7,0.1,1,0.2c2.9,0.8,4.6,3.9,3.7,6.8c-0.8,2.9-3.9,4.6-6.8,3.7c-0.3-0.1-0.7-0.2-1-0.4 c-1,0.7-1.7,1.7-2.1,2.9c-0.8,2.9,0.8,5.9,3.7,6.7C831.7,1204.9,834.6,1203.4,835.6,1200.7z" style="fill: rgb(246, 221, 145);"/>
        <path id="XMLID_766_" class="st10" d="M835.1,1191.1c0.8-2.9-0.8-5.9-3.7-6.8c-0.3-0.1-0.7-0.2-1-0.2c0.3,0.7,0.8,1.4,1.4,1.9 c-0.7,0.9-1.2,2-1.6,3.1c-0.4,1.4-0.5,2.9-0.3,4.3c-0.9,0.1-1.8,0.4-2.5,1c0.3,0.2,0.6,0.3,1,0.4 C831.2,1195.7,834.3,1194,835.1,1191.1z" style="fill: rgb(159, 82, 36);"/>
      </g>
      <g id="XMLID_762_">
        <path id="XMLID_764_" class="st6" d="M876,1121.9c0.4-0.1,0.7-0.3,1.1-0.5c4.7-2.5,6.5-8.3,4-13c-2.5-4.7-8.3-6.5-13-4 c-0.4,0.2-0.8,0.5-1.1,0.7c-1.6-1.9-4.3-2.4-6.6-1.3c-2.6,1.4-3.7,4.7-2.3,7.3c0.6,1.1,1.5,2,2.6,2.4c0.3-0.2,0.6-0.4,0.9-0.6 c2.7-1.4,6-0.4,7.4,2.3c1.4,2.7,0.4,6-2.3,7.4c-0.3,0.2-0.6,0.3-1,0.4c-0.2,1.2-0.1,2.4,0.5,3.5c1.4,2.6,4.7,3.7,7.3,2.3 C876.2,1127.6,877.2,1124.5,876,1121.9z" style="fill: rgb(255, 241, 198);"/>
        <path id="XMLID_763_" class="st7" d="M869.1,1115.3c-1.4-2.7-4.7-3.7-7.4-2.3c-0.3,0.2-0.6,0.4-0.9,0.6c0.7,0.3,1.5,0.5,2.3,0.4 c0.1,1.1,0.5,2.3,1,3.3c0.7,1.3,1.7,2.4,2.8,3.3c-0.6,0.7-1,1.6-1.2,2.5c0.3-0.1,0.7-0.2,1-0.4 C869.5,1121.3,870.5,1118,869.1,1115.3z" style="fill: rgb(182, 108, 41);"/>
      </g>
      <g id="XMLID_759_">
        <path id="XMLID_761_" class="st6" d="M796.5,1111.2c-0.1-0.4-0.2-0.8-0.4-1.2c-2.1-4.9-7.7-7.2-12.6-5.1 c-4.9,2.1-7.2,7.7-5.1,12.6c0.2,0.4,0.4,0.8,0.6,1.2c-2,1.4-2.8,4.1-1.8,6.5c1.2,2.7,4.3,4,7.1,2.9c1.2-0.5,2.1-1.4,2.6-2.4 c-0.2-0.3-0.4-0.6-0.5-0.9c-1.2-2.8,0.1-6,2.9-7.2c2.8-1.2,6,0.1,7.2,2.9c0.1,0.3,0.2,0.7,0.3,1c1.1,0.3,2.4,0.3,3.6-0.2 c2.7-1.2,4-4.3,2.9-7.1C802.1,1111.6,799.1,1110.3,796.5,1111.2z" style="fill: rgb(255, 241, 198);"/>
        <path id="XMLID_760_" class="st7" d="M789.3,1117.6c-2.8,1.2-4.1,4.4-2.9,7.2c0.1,0.3,0.3,0.6,0.5,0.9c0.4-0.7,0.6-1.5,0.6-2.3 c1.1,0,2.3-0.3,3.4-0.8c1.4-0.6,2.6-1.5,3.5-2.5c0.7,0.7,1.5,1.1,2.4,1.4c-0.1-0.3-0.2-0.7-0.3-1 C795.3,1117.8,792.1,1116.5,789.3,1117.6z" style="fill: rgb(182, 108, 41);"/>
      </g>
      <g id="XMLID_756_">
        <path id="XMLID_758_" class="st6" d="M766.2,1128.4c-0.1-0.4-0.2-0.8-0.4-1.2c-2.1-4.9-7.7-7.2-12.6-5.1 c-4.9,2.1-7.2,7.7-5.1,12.6c0.2,0.4,0.4,0.8,0.6,1.2c-2,1.4-2.8,4.1-1.8,6.5c1.2,2.7,4.3,4,7.1,2.9c1.2-0.5,2.1-1.4,2.6-2.4 c-0.2-0.3-0.4-0.6-0.5-0.9c-1.2-2.8,0.1-6,2.9-7.2c2.8-1.2,6,0.1,7.2,2.9c0.1,0.3,0.2,0.7,0.3,1c1.1,0.3,2.4,0.3,3.6-0.2 c2.7-1.2,4-4.3,2.9-7.1C771.9,1128.8,768.9,1127.5,766.2,1128.4z" style="fill: rgb(255, 241, 198);"/>
        <path id="XMLID_757_" class="st7" d="M759.1,1134.8c-2.8,1.2-4.1,4.4-2.9,7.2c0.1,0.3,0.3,0.6,0.5,0.9c0.4-0.7,0.6-1.5,0.6-2.3 c1.1,0,2.3-0.3,3.4-0.8c1.4-0.6,2.6-1.5,3.5-2.5c0.7,0.7,1.5,1.1,2.4,1.4c-0.1-0.3-0.2-0.7-0.3-1 C765.1,1135,761.9,1133.7,759.1,1134.8z" style="fill: rgb(182, 108, 41);"/>
      </g>
      <g id="XMLID_753_">
        <path id="XMLID_755_" class="st6" d="M798.3,1226.8c0.4,0,0.8,0,1.2,0c5.3-0.5,9.2-5.2,8.7-10.5c-0.5-5.3-5.2-9.2-10.5-8.7 c-0.5,0-0.9,0.1-1.3,0.2c-0.8-2.3-3.1-3.9-5.6-3.7c-3,0.3-5.2,2.9-4.9,5.9c0.1,1.3,0.7,2.4,1.5,3.2c0.3-0.1,0.7-0.2,1-0.2 c3-0.3,5.7,1.9,6,4.9s-1.9,5.7-4.9,6c-0.4,0-0.7,0-1,0c-0.7,1-1,2.2-0.9,3.5c0.3,3,2.9,5.2,5.9,4.9 C796.2,1232.1,798.4,1229.6,798.3,1226.8z" style="fill: rgb(255, 241, 198);"/>
        <path id="XMLID_754_" class="st7" d="M794.4,1218.1c-0.3-3-2.9-5.2-6-4.9c-0.4,0-0.7,0.1-1,0.2c0.6,0.6,1.2,1,2,1.3 c-0.3,1.1-0.4,2.3-0.3,3.5c0.1,1.5,0.6,2.9,1.3,4.1c-0.8,0.4-1.5,1.1-2,1.8c0.3,0,0.7,0,1,0 C792.4,1223.7,794.6,1221.1,794.4,1218.1z" style="fill: rgb(182, 108, 41);"/>
      </g>
      <g id="XMLID_750_">
        <path id="XMLID_752_" class="st6" d="M743,1124.9c0.3-0.2,0.7-0.5,1-0.7c4-3.5,4.4-9.6,0.9-13.6c-3.5-4-9.6-4.4-13.6-0.9 c-0.3,0.3-0.7,0.6-0.9,1c-2-1.4-4.8-1.4-6.7,0.3c-2.2,2-2.5,5.4-0.5,7.6c0.8,1,2,1.5,3.1,1.7c0.2-0.3,0.4-0.5,0.7-0.8 c2.3-2,5.7-1.8,7.7,0.5c2,2.3,1.8,5.7-0.5,7.7c-0.3,0.2-0.6,0.4-0.9,0.6c0.1,1.2,0.5,2.4,1.3,3.3c2,2.2,5.4,2.5,7.6,0.5 C744.5,1130.4,744.8,1127.1,743,1124.9z" style="fill: rgb(255, 241, 198);"/>
        <path id="XMLID_751_" class="st7" d="M734.7,1120.1c-2-2.3-5.5-2.5-7.7-0.5c-0.3,0.2-0.5,0.5-0.7,0.8c0.8,0.1,1.6,0.1,2.4-0.1 c0.4,1.1,1,2.1,1.8,3c1,1.1,2.2,2,3.5,2.5c-0.4,0.8-0.6,1.8-0.6,2.7c0.3-0.2,0.6-0.4,0.9-0.6 C736.5,1125.9,736.7,1122.4,734.7,1120.1z" style="fill: rgb(182, 108, 41);"/>
      </g>
      <g id="XMLID_747_">
        <path id="XMLID_749_" class="st6" d="M838.2,1117.5c0.1-0.4,0.2-0.8,0.3-1.2c1.1-5.2-2.3-10.3-7.5-11.4 c-5.2-1.1-10.3,2.3-11.4,7.5c-0.1,0.4-0.2,0.9-0.2,1.3c-2.5,0.1-4.6,1.8-5.2,4.3c-0.6,2.9,1.3,5.8,4.2,6.4 c1.2,0.3,2.5,0.1,3.5-0.5c0-0.3,0-0.7,0.1-1c0.6-3,3.5-4.9,6.5-4.2s4.9,3.5,4.2,6.5c-0.1,0.3-0.2,0.7-0.3,1 c0.8,0.9,1.8,1.6,3.1,1.8c2.9,0.6,5.8-1.3,6.4-4.2C842.7,1121,840.9,1118.2,838.2,1117.5z" style="fill: rgb(255, 241, 198);"/>
        <path id="XMLID_748_" class="st7" d="M828.7,1118.7c-3-0.6-5.9,1.3-6.5,4.2c-0.1,0.3-0.1,0.7-0.1,1c0.7-0.4,1.3-0.9,1.8-1.5 c1,0.6,2.1,1.1,3.2,1.3c1.5,0.3,2.9,0.3,4.3-0.1c0.2,0.9,0.6,1.8,1.2,2.5c0.1-0.3,0.2-0.7,0.3-1 C833.6,1122.2,831.7,1119.3,828.7,1118.7z" style="fill: rgb(182, 108, 41);"/>
      </g>
      <g id="XMLID_744_">
        <path id="XMLID_746_" class="st8" d="M856.2,1119.1c-0.4,0-0.8-0.1-1.2-0.1c-5.3,0.1-9.6,4.4-9.5,9.7c0.1,5.3,4.4,9.6,9.7,9.5 c0.5,0,0.9,0,1.3-0.1c0.6,2.4,2.7,4.2,5.3,4.1c3,0,5.4-2.5,5.3-5.5c0-1.3-0.5-2.4-1.2-3.4c-0.3,0.1-0.7,0.1-1,0.1 c-3,0-5.5-2.4-5.5-5.4c0-3,2.4-5.5,5.4-5.5c0.4,0,0.7,0,1,0.1c0.7-0.9,1.2-2.1,1.1-3.4c0-3-2.5-5.4-5.5-5.3 C858.7,1114,856.4,1116.2,856.2,1119.1z" style="fill: rgb(255, 255, 255);"/>
        <path id="XMLID_745_" class="st7" d="M859.4,1128.1c0,3,2.5,5.4,5.5,5.4c0.4,0,0.7,0,1-0.1c-0.5-0.6-1.1-1.1-1.9-1.5 c0.4-1.1,0.6-2.2,0.6-3.4c0-1.5-0.4-2.9-1-4.2c0.9-0.4,1.6-0.9,2.2-1.7c-0.3-0.1-0.7-0.1-1-0.1 C861.8,1122.6,859.4,1125.1,859.4,1128.1z" style="fill: rgb(182, 108, 41);"/>
      </g>
      <g id="XMLID_724_">
        <path id="XMLID_743_" class="st9" d="M855.2,1109.1c-0.2-0.4-0.4-0.7-0.6-1.1c-3-4.4-9-5.5-13.3-2.5c-4.4,3-5.5,9-2.5,13.3 c0.3,0.4,0.5,0.7,0.8,1.1c-1.7,1.8-1.9,4.6-0.5,6.7c1.7,2.5,5,3.1,7.5,1.4c1.1-0.7,1.8-1.7,2.1-2.9c-0.2-0.2-0.5-0.5-0.7-0.8 c-1.7-2.5-1.1-5.9,1.4-7.6c2.5-1.7,5.9-1.1,7.6,1.4c0.2,0.3,0.4,0.6,0.5,0.9c1.2,0.1,2.4-0.2,3.4-0.9c2.5-1.7,3.1-5,1.4-7.5 C860.8,1108.3,857.6,1107.6,855.2,1109.1z" style="fill: rgb(246, 221, 145);"/>
        <path id="XMLID_742_" class="st10" d="M849.4,1116.8c-2.5,1.7-3.1,5.1-1.4,7.6c0.2,0.3,0.4,0.6,0.7,0.8c0.2-0.8,0.3-1.6,0.2-2.4 c1.1-0.3,2.2-0.7,3.2-1.4c1.2-0.8,2.2-1.9,2.9-3.2c0.8,0.5,1.7,0.8,2.6,0.9c-0.1-0.3-0.3-0.6-0.5-0.9 C855.3,1115.7,851.9,1115,849.4,1116.8z" style="fill: rgb(159, 82, 36);"/>
      </g>
      <path id="XMLID_723_" class="st11" d="M720.1,1097.1h163.5c3.3,0,6,2.7,6,6v1.4c0,3.3-2.7,6-6,6H720.1c-3.3,0-6-2.7-6-6v-1.4 C714.2,1099.8,716.8,1097.1,720.1,1097.1z" style="fill: rgb(236, 234, 230);"/>
      <polygon id="XMLID_722_" class="st12" points="756,1086.6 771.1,948.2 743.8,948.2 725.7,1086.6 &#9;&#9;" style="fill: rgb(227, 39, 38);"/>
      <polygon id="XMLID_721_" class="st13" points="725.7,1086.6 724.3,1097.1 754.8,1097.1 756,1086.6 &#9;&#9;" style="fill: rgb(208, 32, 38);"/>
      <polygon id="XMLID_720_" class="st8" points="852.1,1086.6 837,948.2 813.5,948.2 822.7,1086.6 &#9;&#9;" style="fill: rgb(255, 255, 255);"/>
      <polygon id="XMLID_718_" class="st14" points="822.7,1086.6 823.4,1097.1 853.3,1097.1 852.1,1086.6 &#9;&#9;" style="fill: rgb(241, 241, 241);"/>
      <polygon id="XMLID_717_" class="st12" points="878.1,1086.6 859.9,948.2 837,948.2 852.1,1086.6 &#9;&#9;" style="fill: rgb(227, 39, 38);"/>
      <polygon id="XMLID_714_" class="st13" points="853.3,1097.1 879.4,1097.1 878.1,1086.6 852.1,1086.6 &#9;&#9;" style="fill: rgb(208, 32, 38);"/>
      <polygon id="XMLID_712_" class="st8" points="785.2,1086.6 792.3,948.2 771.1,948.2 756,1086.6 &#9;&#9;" style="fill: rgb(255, 255, 255);"/>
      <polygon id="XMLID_711_" class="st14" points="756,1086.6 754.8,1097.1 784.7,1097.1 785.2,1086.6 &#9;&#9;" style="fill: rgb(241, 241, 241);"/>
      <polygon id="XMLID_710_" class="st13" points="785.1,1086.6 784.3,1097.1 801.4,1097.1 823,1097.1 822.2,1086.6 &#9;&#9;" style="fill: rgb(208, 32, 38);"/>
      <polygon id="XMLID_709_" class="st12" points="822.6,1086.6 811.9,948.2 801.9,948.2 796.2,948.2 785.5,1086.6 &#9;&#9;" style="fill: rgb(227, 39, 38);"/>
      <polygon id="XMLID_708_" class="st12" points="822.7,1086.6 813.5,948.2 811.9,948.2 822.6,1086.6 &#9;&#9;" style="fill: rgb(227, 39, 38);"/>
      <polygon id="XMLID_707_" class="st12" points="822.6,1086.6 823.4,1097.1 822.7,1086.6 &#9;&#9;" style="fill: rgb(227, 39, 38);"/>
      <polygon id="XMLID_706_" class="st12" points="785.5,1086.6 796.2,948.2 792.3,948.2 785.2,1086.6 &#9;&#9;" style="fill: rgb(227, 39, 38);"/>
      <polygon id="XMLID_705_" class="st12" points="785.2,1086.6 784.7,1097.1 785.5,1086.6 &#9;&#9;" style="fill: rgb(227, 39, 38);"/>
    </g>
    <g id="XMLID_653_" class="st32" style="clip-path: url(#XMLID_265_);">
      <text id="XMLID_814_" transform="matrix(1 0 0 1 913.3331 1161.2694)" class="st1 st15 st33" style="white-space: pre; fill: rgb(255, 216, 57); font-family: PaytoneOne-Regular; font-size: 64.015px; line-height: 102.424px; perspective-origin: 124.234px 0px;">CINEMA</text>
    </g>
    <circle id="XMLID_680_" class="st34" cx="987.3" cy="1202.4" r="9.9" style="clip-path: url(#XMLID_265_); fill: rgb(255, 216, 57);"/>
    <circle id="XMLID_677_" class="st34" cx="1038.2" cy="1202.4" r="9.9" style="clip-path: url(#XMLID_265_); fill: rgb(255, 216, 57);"/>
    <circle id="XMLID_655_" class="st34" cx="1083.5" cy="1202.4" r="9.9" style="clip-path: url(#XMLID_265_); fill: rgb(255, 216, 57);"/>
  </g>
</svg>