<?xml version="1.0" encoding="utf-8"?>
<svg viewBox="222.851 298.4 380.993 301.13" xmlns="http://www.w3.org/2000/svg">
  <g transform="matrix(1, 0, 0, 1, -279.565216, -241.799988)">
    <path fill="#F68E59" d="M556.6,597l-11.8-11.8c-7.5,91.1-1.7,185.1,0.3,212.5l11.7-11.3C555.4,768.3,549,681.4,556.6,597z"/>
    <path fill="#F68E59" d="M831,787.1l11.9,11.5c3.6-53.5,0.7-176.6-0.3-213.6L831,596.7C831.8,625,834.9,741.1,831,787.1z"/>
    <path fill="#F68E59" d="M701.2,587.9c67,0,118.4,2,128,2.4l13.3-13.3c0,0,0,0,0,0c-12.7-0.5-68.8-2.8-140.5-2.8 c-72.9,0-142.5,2.3-156.5,2.8c0,0.2,0,0.5-0.1,0.7l12.7,12.7C566.8,590.1,631.9,587.9,701.2,587.9z"/>
    <path fill="#F68E59" d="M561.3,790.2l-13.7,13.2c42.9,2.7,90,4,140.2,4c74.1,0,133.9-3,151.8-4L826,790.2 C800.7,791.5,680.5,797.2,561.3,790.2z"/>
    <path fill="#F68E59" d="M687.8,813.2c-52.1,0-100.9-1.5-145.2-4.3l-0.7,0l-8.3,8c47.1,2.9,98.7,4.3,153.6,4.3 c79,0,143.4-3.1,166.4-4.3l-8.3-8C841.9,809,774.7,813.2,687.8,813.2z"/>
    <path fill="#F68E59" d="M539.5,579.9l-11.6-11.6c-9.4,108.1-1.7,221.3,0.2,245.7l11.6-11.2C538.2,783.3,530.8,679.2,539.5,579.9z"/>
    <path fill="#F68E59" d="M848.4,803.8l11.9,11.4c4.7-59.9,0.8-213.7-0.1-247.6l-11.8,11.8C849.2,608.3,852.8,750,848.4,803.8z"/>
    <path fill="#F68E59" d="M540.2,571.4l2.5-0.1c0.8,0,77.9-2.9,159.3-2.9c81.3,0,142.8,2.9,143.4,2.9l2.6,0.1l8-8 c-19.2-0.8-78.6-3-153-3c-77.4,0-151.4,2.4-171.8,3.1l8.9,8.9L540.2,571.4z"/>
    <path fill="#F68E59" d="M687.3,826.9c-57.1,0-110.6-1.6-159.3-4.7l-14.6,14c162.3,10.4,325.9,2.1,360.5,0.1l-14.6-14 C842.9,823.2,773.7,826.9,687.3,826.9z"/>
    <path fill="#F68E59" d="M703.1,554.7c83.9,0,148.8,2.8,158.6,3.2l14.2-14.2c-17.8-0.8-85.2-3.5-171.7-3.5 c-90.2,0-175.2,2.9-192.6,3.6l14.2,14.2C529.2,557.8,613.9,554.7,703.1,554.7z"/>
    <path fill="#F68E59" d="M865.7,819.4l-0.1,0.9l15,14.4c5.9-68.8,0.8-260.6,0-287.6L865.8,562C866.2,578.3,871.3,758,865.7,819.4z"/>
    <path fill="#F68E59" d="M522.5,563l-14.7-14.7c-11.4,129.6-1.4,265,0.2,285.1l14.7-14.1C522.2,813.4,511.4,684.2,522.5,563z"/>
  </g>
</svg>