<?xml version="1.0" encoding="utf-8"?>
<svg viewBox="-196.054 -135.873 371.763 297.073" xmlns="http://www.w3.org/2000/svg">
  <g transform="matrix(1, 0, 0, 1, -279.565216, -241.799988)">
    <path fill="#F15D50" d="M405.9,133.1l-0.8-4.8h-267l-5.4,0.1l-0.4,5.4c-0.1,2-2.1,19.9-27.3,25.5l-4.5,1l0,186l4.9,0.8 c1,0.1,23.7,3.9,26.9,27.8l0.7,5l271,0l1-4.6c0.2-1,5.4-24.5,26.4-25.2l5.6-0.2v-190l-5.1-0.6 C431.5,159.1,409.9,156.4,405.9,133.1z M431.1,344.2c-26,1-31.8,29.9-31.8,29.9H138.1c-3.9-28.9-31.8-32.8-31.8-32.8V164.9 c30.8-6.7,31.8-30.8,31.8-30.8h262.2c4.8,28,30.8,30.8,30.8,30.8V344.2z"/>
    <path fill="#F15D50" d="M448.4,118.6c0,0-2.9-10.6-175.4-12.5c-172.5-1.9-182.2,12.5-182.2,12.5c-16.4,135.8,0,269.9,0,269.9 S157.3,403,273.1,403s175.4-12.5,175.4-12.5C463.8,244.9,448.4,118.6,448.4,118.6z M442.6,355.3l-11.1,0.4 c-16.5,0.6-20.7,19.8-20.9,20.7l-1.9,9.2l-9.4,0.1H127.9l-1.3-10c-2.6-19.6-21.2-22.7-22-22.9l-9.8-1.5l-0.1-9.9V155.6l9.1-2 c21.1-4.6,22.6-18.6,22.7-20.2l0.7-10.7l10.8-0.2H410l1.7,9.6c3.3,18.9,20,21.2,20.7,21.3l10.3,1.1V355.3z"/>
  </g>
</svg>