<?xml version="1.0" encoding="utf-8"?>
<svg viewBox="-1322.341 -279.654 301.267 298.403" xmlns="http://www.w3.org/2000/svg">
  <g transform="matrix(1, 0, 0, 1, -2190.774902, -293.286896)">
    <path fill="#F7A33E" d="M880.9,132c2.2,1,4.5,1.3,6.8,1.4c-1.8,2.4-3,5.1-3.3,8c-0.2,1.7,1.6,2.5,2.6,1.3 c2.8-3.4,5.4-6.8,8.4-9.7l0.6-0.1c1.7,2.8,3.2,5.4,4.6,8.2c1.3,2.6,5.4,2,5.1-1.1c-0.1-2.3-1.4-4.9-3-7.3c3.1,0,6.1-0.1,8.6-1 c1.5-0.5,1.1-2.4,0.1-3.2c-2.2-1.7-5.2-2-8.3-1.9c2.1-1.5,3.9-3.1,5.3-4.9c1.5-1.9-0.7-4.7-2.9-3.7c-2.9,1.2-5.7,3.4-8.3,5.7 c-1.2-2.2-2.4-4.4-3.5-6.7c-1.1-2.3-2-5.3-3.6-7.4c-1-1.3-3-0.7-3.3,1.2c-1,5.5,3.3,11.9,5.6,15.9l0.4,0.7 c-3.7,0.3-7.4,0.6-11,1.3C880.4,129,879.5,131.4,880.9,132z"/>
    <path fill="#F6B6AD" d="M925.5,151.5c2,0.1,2.9-2.2,0.9-2.8c-0.9-0.3-1.8-0.4-2.7-0.5c1.3-1.4,2.1-2.8,2.1-4.3 c0.1-1.8-2.8-2.2-4.1-1.3c-1.3,0.9-2,2.4-3.1,3.5l-1.9,2c-1.9-1.7-3.7-3.7-4.4-5.8c-0.4-1.3-2.4-1-2.6,0.1 c-0.6,2.8,0.8,5.2,2.6,7.3c-1.6,0.4-3.1,0.8-4.6,1.2c-0.7,0.1-0.9,1.1-0.2,1.4c1.6,0.5,3.2,0.6,4.8,0.4l-1.8,2.1 c-0.4,0.5-0.8,1.1-1.1,1.7c-0.2,0.2-0.2,0.5-0.3,0.7l0,0.1l0,0c-0.9,0.9,0.4,2.3,1.5,1.4c0.5-0.4,2-1,2.9-1.6c1.3-1,2.4-2,3.5-3 l1.2,1c1.4,1.1,2.8,2.6,4.8,2.7c1,0,2.3-0.6,2.2-1.5c-0.2-1.9-2.5-3.5-4.5-4.9C922.3,151.4,923.8,151.4,925.5,151.5z"/>
    <path fill="#D8847F" d="M875.8,162.8c0.7,1,1.9-0.1,1.8-1.2c-0.2-1.5-0.5-3-0.9-4.5c1.2,0.5,2.5,0.8,3.6,0.6 c1.3-0.2,1.5-2.1,0.9-3.1c-0.8-1.1-2.1-1.8-3.5-2.4c0.4-1.5,0.6-2.9,0.7-4.2c0.3-2.4-2.6-3.3-3.5-1l-0.2,0.5 c-0.3-1.8-0.8-3.4-1.9-4.8c-0.3-0.4-1.1-0.5-1.3,0.2c-0.6,2.4-0.6,4.6-0.1,6.8c-0.4-0.1-0.9-0.3-1.1-0.6 c-0.9-1.1-2.5,0.4-1.6,1.7c1.1,1.6,2.3,2.8,3.8,3.8l0.2,0.9c-0.5,1.9-1.3,3.7-2.2,5.5c-0.5,1.1,0.5,2.6,1.5,1.9 c0.9-0.7,1.7-1.6,2.4-2.7C874.9,161.2,875.3,162.1,875.8,162.8z"/>
    <path fill="#57BFB2" d="M909.4,77.6c4.6,1,9.7,1.1,14.5,1.6c-1.9,2.7-3.4,5.7-3.6,8.7c-0.1,1.2,1.1,2,2.2,1.2 c3-2.3,5.1-5.8,7.5-8.9l1.7,0.4l3.3,5c1.7,2.6,2.9,5.5,5.2,7.6c1.4,1.3,3.9,0.5,3.6-1.4c-0.5-2.9-2-6-3.9-9l5.6,1.6 c3.2,0.9,4.3-3.2,1.4-4.8c-3.7-1.9-7.8-3.2-11.9-4.1l-0.3-0.4c2.5-2.4,5.3-4.9,6.1-7.6c0.5-1.5-0.5-2.9-2.2-2.7 c-2.6,0.3-5.2,2.5-7.3,5c-3-4.6-6.5-10-11.3-11.9c-1.4-0.6-3,0.9-2.5,2.4c1.7,5,5.9,9.4,9.3,13.7c-5.5-0.9-11.8-1.3-17.5,0.6 C907.6,75.1,908.2,77.4,909.4,77.6z"/>
    <path fill="#F4C336" d="M941.2,121.2c-1.1-1.8-3-3.4-5.1-5c1.1-0.1,2.2-0.2,3.1-0.4c1.8-0.4,1.4-2.7-0.7-3.2 c-1.5-0.3-3-0.4-4.5-0.4c1.6-1.6,3-3.5,3.4-5.5c0.4-1.9-2.1-4.2-3.9-2.7c-0.9,0.7-1.7,1.6-2.4,2.6c-0.1-2.1-0.3-4.1-1.4-5.4 c-0.5-0.6-1.4-0.6-2-0.3c-1.7,1.1-2.1,4-2,6.7c-1.7-1.6-3.5-3.1-5.4-4.3c-1.2-0.8-2.5,0.6-1.9,1.8c1.4,2.6,3.5,4.8,5.7,6.9 c-2.1-0.2-4.2-0.5-6.4-0.9c-1.3-0.2-1.8,1.4-0.7,2c2.3,1.3,4.9,1.9,7.4,2.2c-1,1.4-1.8,3-1.8,4.7c0,1,1.4,2.1,2.3,1.4 c0.9-0.7,1.7-1.5,2.5-2.4c0.8,2.6,1.9,5,3.8,6.9c0.7,0.7,2,0.4,1.8-0.5c-0.6-2.3-1.1-4.7-1.4-7.1c2.6,2.1,5.6,4,8.4,4.3 C940.9,123.1,941.7,122.1,941.2,121.2z"/>
    <path fill="#D8847F" d="M894.1,93.8c-1.5,1.4-2.9,2.8-4.4,4.2c-1.1,1.1,0,2.8,1.2,2.2c1.7-0.8,3.5-2,5.4-3.5 c0.7,2,1.7,3.8,3.4,4.2c0.4,0.1,1-0.2,1.2-0.7c1-2.1,0.2-4.4-0.6-6.5c2.6-0.4,5.2-1.1,7.1-2.3c1.5-0.9,1.4-3.6-0.5-3.5 c-0.8,0-1.6,0.2-2.3,0.3c1.7-2.5,2.8-5.1,2.7-7.8c0-0.8-1-1.2-1.7-0.6c-2.7,2.5-4.4,6-6.7,8.9l-0.2,0.2c-0.8-3.2-1.6-6.6-2.2-9.9 c-0.2-1.2-2-0.5-2.2,0.6c-0.5,3.7-0.3,7,0.4,10.3c-2.4,0-4.8-0.5-6.9-1.6c-0.9-0.5-1.8,0.9-1.3,1.8 C888,92.2,890.9,93.4,894.1,93.8z"/>
    <path fill="#F7A33E" d="M952.6,47.6c4.3,0,8.6,0,12.8,0.5l0.4,0.4c-1.1,2.9-2.2,6-3.6,8.8c-1.2,2.6,1.8,5.5,4.1,3.4 c1.7-1.6,2.9-4.1,3.9-6.9c1.9,2.4,3.9,4.6,6.1,6c1.4,0.8,2.6-0.6,2.6-1.9c-0.1-2.8-1.7-5.3-3.7-7.6c2.4,0.6,4.8,1.2,7.1,1.1 c2.4-0.1,3.2-3.4,1.1-4.6c-2.8-1.5-6.2-2.3-9.7-3c0.9-2.3,2-4.6,3-6.9c1.1-2.4,2.9-4.9,3.5-7.4c0.4-1.5-1.3-2.8-3-1.9 c-4.9,2.7-7.3,10-8.9,14.3l-0.3,0.7c-2.5-2.7-5.1-5.3-7.9-7.8c-1-0.9-3.5-0.2-3.1,1.4c0.6,2.3,1.8,4.3,3.2,6.1 c-2.9,0.3-5.9,0.8-8.3,2.4C950.5,45.7,951,47.6,952.6,47.6z"/>
    <path fill="#F6B6AD" d="M975.8,78.7c1.4-1.1,0-3.6-1.5-4c-1.5-0.4-3.2-0.2-4.7-0.3l-2.8-0.2c0.2-2.5,0.5-5.3,1.8-7 c0.8-1.1-0.7-2.5-1.7-2c-2.6,1.2-3.5,3.9-4.1,6.5c-1.3-0.9-2.6-1.9-3.7-2.8c-0.6-0.5-1.5,0-1.2,0.8c0.6,1.6,1.5,2.9,2.6,4 c-0.9,0-1.9-0.1-2.8-0.1c-0.7,0-1.3,0.1-2,0.2c-0.3,0-0.5,0.1-0.7,0.2l-0.1,0.1l0,0c-1.3-0.2-1.6,1.7-0.2,2 c0.7,0.2,2.1,1,3.1,1.3c1.5,0.4,3,0.6,4.5,0.8v1.6c0,1.8-0.3,3.9,0.9,5.4c0.6,0.8,1.9,1.4,2.5,0.7c1.3-1.3,1.2-4,1.1-6.6 c1,1.1,2,2.3,3,3.7c1.1,1.6,3.6,1,2.7-1c-0.4-0.9-0.8-1.7-1.3-2.5C972.9,79.8,974.6,79.6,975.8,78.7z"/>
    <path fill="#D8847F" d="M927.4,48.7c1.1,0.2,2.3,0.3,3.5,0.1c-0.4,0.9-0.8,1.7-1,2.6c-0.3,1.2,1.3,1.5,2.1,0.6 c1-1.1,2-2.3,2.9-3.5c0.4,1.3,0.9,2.5,1.8,3.2c1,0.8,2.6-0.1,3-1.2c0.4-1.4,0.1-2.8-0.3-4.2c1.4-0.6,2.7-1.3,3.8-2 c2.1-1.3,0.9-4.1-1.4-3.3l-0.5,0.2c1.2-1.4,2.1-2.9,2.6-4.5c0.1-0.5-0.3-1.2-1-0.9c-2.3,0.9-3.9,2.5-5.4,4.2 c-0.2-0.4-0.3-0.9-0.2-1.2c0.3-1.4-1.9-1.7-2.3-0.2c-0.6,1.9-0.7,3.6-0.6,5.4l-0.6,0.7c-1.9,0.7-3.8,1.2-5.7,1.7 C926.7,46.7,926.2,48.4,927.4,48.7z"/>
    <path fill="#57BFB2" d="M1016.6,42.1c3.6,0.9,7.8,0.4,11.6,0.3l0.8,1.6l-1.8,5.7c-1,2.9-2.4,5.7-2.7,8.8c-0.2,2,2.1,3.4,3.4,1.9 c2-2.2,3.4-5.3,4.6-8.7c0.8,1.8,1.5,3.6,2.3,5.4c1.3,3.1,5.2,1.4,4.6-1.9c-0.9-4-2.4-8.1-4.2-11.9l0.1-0.5 c3.4,0.5,7.2,1.1,9.7,0.1c1.5-0.6,1.9-2.2,0.7-3.4c-1.8-1.9-5.2-2.4-8.5-2.6c1.8-5.3,3.8-11.3,2.3-16.2c-0.4-1.5-2.6-1.7-3.4-0.4 c-2.9,4.5-3.7,10.4-4.9,15.7c-2.8-4.8-6.4-10-11.4-13.3c-1.6-1.1-2.9,0.9-2.3,2c2.1,4.2,5.2,8.3,7.8,12.3c-3.3,0.3-6.6,0.9-9,2.7 C1015.3,40.3,1015.4,41.8,1016.6,42.1z"/>
    <path fill="#F4C336" d="M1012.1,64.6c1.7-0.9,2-4.3-0.3-4.7c-1.1-0.2-2.3-0.3-3.5-0.3c1.6-1.3,3-2.7,3.3-4.4 c0.1-0.8-0.3-1.5-1-1.7c-1.9-0.7-4.4,0.8-6.5,2.6c0.1-2.3,0.2-4.6-0.1-6.9c-0.2-1.4-2.1-1.6-2.6-0.4c-1.2,2.7-1.6,5.8-1.8,8.8 c-1.2-1.8-2.2-3.6-3.3-5.6c-0.6-1.2-2.2-0.5-2,0.8c0.4,2.6,1.6,5,2.9,7.2c-1.7,0.2-3.5,0.5-4.8,1.5c-0.8,0.6-0.8,2.4,0.4,2.7 c1.1,0.2,2.3,0.4,3.4,0.5c-1.6,2.1-2.8,4.6-3.1,7.3c-0.1,1,0.9,1.9,1.5,1.1c1.4-1.9,3-3.7,4.6-5.5c0,3.4,0.4,6.9,1.9,9.2 c0.6,0.9,1.9,1,2.2,0c0.7-2,0.8-4.6,0.7-7.2c0.8,0.8,1.5,1.6,2.3,2.3c1.5,1.2,2.9-0.7,2-2.6c-0.7-1.3-1.5-2.6-2.5-3.7 C1007.9,65.5,1010.3,65.6,1012.1,64.6z"/>
    <path fill="#D8847F" d="M988.2,24.2c1.6,0.8,3.8,1.5,6.2,2.1c-1.2,1.8-1.9,3.7-1.1,5.2c0.2,0.4,0.8,0.7,1.3,0.6 c2.2-0.5,3.5-2.6,4.7-4.6c2,1.9,4.1,3.4,6.2,4.1c1.6,0.6,3.7-1.1,2.4-2.6c-0.5-0.6-1.1-1.1-1.7-1.7c3-0.2,5.8-1.1,7.8-2.7 c0.6-0.5,0.3-1.5-0.6-1.7c-3.6-0.6-7.4,0.3-11.1,0.3l-0.2,0c2-2.8,4.2-5.3,6.4-7.9c0.8-0.9-0.9-1.8-1.9-1.3 c-3.2,1.7-5.7,4.1-7.8,6.7c-1.5-1.9-2.6-4.1-3.1-6.4c-0.2-1-1.9-0.8-2.2,0.1c-0.8,2.6,0.1,5.5,1.8,8.2c-2-0.2-4-0.6-6-0.8 C987.7,21.7,987.1,23.6,988.2,24.2z"/>
    <path fill="#F7A33E" d="M1067.9,39.6c2.7,3.4,5.4,6.7,7.6,10.3l-0.1,0.6c-3,0.9-6,2-9.1,2.7c-2.8,0.7-3.2,4.8-0.1,5.3 c2.4,0.3,5.1-0.3,7.8-1.2c-0.7,3-1.2,5.9-0.9,8.6c0.2,1.6,2.1,1.6,3.1,0.8c2.1-1.8,3.1-4.6,3.7-7.6c1.1,2.2,2.1,4.5,3.6,6.2 c1.5,1.9,4.7,0.4,4.3-2c-0.5-3.1-2.1-6.3-3.7-9.4c2.4-0.7,4.8-1.3,7.3-1.9c2.5-0.6,5.7-0.8,8-1.8c1.5-0.7,1.3-2.8-0.4-3.5 c-5.1-2.1-12.4,0.6-16.7,1.9l-0.7,0.2c0.5-3.7,1-7.3,1.2-11c0.1-1.3-2-2.8-3-1.5c-1.4,1.9-2.3,4.1-2.8,6.3c-2-2.1-4.3-4.1-7.1-5 C1068.1,36.8,1066.9,38.3,1067.9,39.6z"/>
    <path fill="#F6B6AD" d="M1044.9,71.3c-0.2,1,0.1,2.3,1,2.4c1.8,0.3,3.9-1.5,5.8-3.2c-0.2,1.5-0.6,3-1.1,4.6 c-0.6,1.9,1.4,3.4,2.5,1.5c0.5-0.8,0.8-1.7,1.1-2.6c1.1,1.4,2.2,2.7,3.7,3c1.7,0.4,2.8-2.3,2.2-3.7c-0.6-1.4-1.8-2.6-2.7-3.8 l-1.6-2.3c2-1.4,4.5-2.9,6.6-3c1.3-0.1,1.5-2.1,0.4-2.6c-2.5-1.3-5.3-0.3-7.7,0.9c-0.1-1.6-0.1-3.2-0.1-4.7 c0-0.7-0.9-1.1-1.3-0.5c-0.9,1.5-1.3,3-1.5,4.6l-1.7-2.3c-0.4-0.5-0.9-1-1.4-1.4c-0.2-0.2-0.4-0.3-0.6-0.4l-0.1,0v0 c-0.7-1.1-2.3-0.1-1.7,1.1c0.3,0.6,0.5,2.3,0.9,3.2c0.6,1.4,1.4,2.7,2.1,4l-1.2,1C1047.2,68.3,1045.4,69.4,1044.9,71.3z"/>
    <path fill="#D8847F" d="M1051.5,26.2c1.5,0.1,3,0.1,4.6,0.1c-0.8,1.1-1.4,2.2-1.4,3.4c-0.1,1.3,1.7,2,2.8,1.5 c1.3-0.5,2.3-1.7,3.1-2.9c1.3,0.7,2.7,1.3,4,1.7c2.3,0.8,3.8-1.9,1.7-3.2l-0.5-0.3c1.8,0,3.6-0.1,5.2-0.8 c0.5-0.2,0.7-0.9,0.1-1.3c-2.1-1.3-4.4-1.5-6.6-1.6c0.2-0.4,0.5-0.8,0.8-0.9c1.3-0.6,0.2-2.5-1.3-2c-1.8,0.7-3.2,1.7-4.6,2.9 l-0.9,0c-1.8-1-3.3-2.2-4.9-3.4c-1-0.8-2.7-0.1-2.2,1c0.5,1,1.2,2,2.1,2.8c-0.9,0.2-1.8,0.5-2.7,0.8 C1049.5,24.8,1050.3,26.2,1051.5,26.2z"/>
    <path fill="#57BFB2" d="M1104.8,106.4c2.9,0.2,6.3-0.6,9.7-1.8c-0.9,1.7-1.9,3.5-2.8,5.2c-1.5,2.9,2.2,4.9,4.4,2.4 c2.7-3.2,4.7-6.8,6.6-10.7l0.5-0.2c1.8,3,3.6,6.3,6,7.6c1.4,0.8,3,0.1,3.1-1.5c0.3-2.6-1.3-5.6-3.3-8.3 c5.2-1.9,11.1-4.1,14.1-8.3c0.9-1.3-0.2-3.1-1.8-3c-5.4,0.5-10.5,3.6-15.4,6c2.1-5.2,3.9-11.2,3.3-17.2c-0.2-1.9-2.5-1.8-3-0.6 c-2,4.4-3.2,9.2-4.8,13.8c-2.2-2.5-4.9-4.6-7.7-5.4c-1.1-0.3-2.2,0.7-1.7,1.8c1.5,3.4,4.5,6.3,7.1,9.3l-0.8,1.6l-5.6,2.1 c-2.9,1.1-6,1.7-8.6,3.4C1102.5,103.7,1103,106.2,1104.8,106.4z"/>
    <path fill="#F4C336" d="M1085.7,96.5c0.6-1.4,1-2.8,1.4-4.3c1.3,1.9,2.7,3.8,4.6,4.5c1.7,0.8,4.6-1.1,3.5-3.2c-0.6-1-1.3-2-2-2.9 c2,0.4,4,0.6,5.6-0.2c0.7-0.4,0.9-1.2,0.7-1.9c-0.7-1.9-3.4-3-6.1-3.5c1.9-1.3,3.8-2.7,5.3-4.3c1-1,0-2.6-1.3-2.3 c-2.8,0.7-5.5,2.3-8,4c0.7-2,1.4-4,2.3-6c0.5-1.2-1-2.1-1.8-1.1c-1.8,2-2.9,4.3-3.8,6.7c-1.2-1.3-2.6-2.4-4.2-2.8 c-1-0.3-2.4,0.9-1.8,1.9c0.5,1.1,1.1,2,1.7,3c-2.7,0.1-5.3,0.7-7.6,2.2c-0.8,0.5-0.9,1.9,0.1,1.8c2.3,0,4.8,0,7.2,0.2 c-2.6,2.1-5.1,4.6-6,7.2c-0.3,1,0.4,2.1,1.4,1.7c2-0.7,4-2.2,6-3.9c-0.2,1.1-0.3,2.2-0.3,3.2 C1082.4,98.4,1084.8,98.4,1085.7,96.5z"/>
    <path fill="#D8847F" d="M1112.6,63.6c-0.2,2.7,0,5.3,0.7,7.4c0.6,1.7,3.2,2.2,3.5,0.3c0.1-0.8,0.2-1.6,0.2-2.4 c2.1,2.2,4.4,3.9,7,4.4c0.8,0.2,1.4-0.7,0.9-1.5c-1.8-3.2-4.9-5.5-7.1-8.5l-0.1-0.2c3.3-0.1,6.7,0,10.2,0c1.2,0,0.9-1.8-0.2-2.2 c-3.4-1.4-6.7-1.9-10.1-1.9c0.6-2.4,1.6-4.5,3.1-6.4c0.7-0.8-0.5-2-1.4-1.6c-2.5,1-4.2,3.5-5.3,6.5l-3.1-5.2 c-0.8-1.3-2.7-0.6-2.4,0.7c0.4,1.7,1.1,3.9,2.2,6.1c-2.1,0.2-4.1,0.8-4.8,2.4c-0.2,0.4,0,1,0.4,1.3 C1107.9,64.1,1110.4,63.9,1112.6,63.6z"/>
    <path fill="#F7A33E" d="M1148,141.4l-0.6-0.4c3.2-1.9,6.3-3.8,9.4-5.9c1.1-0.8,0.9-3.3-0.7-3.3c-2.4,0.1-4.6,0.8-6.7,1.7 c0.5-2.9,0.5-5.9-0.4-8.7c-0.5-1.6-2.5-1.6-2.9,0c-1,4.2-1.9,8.4-3.3,12.4l-0.5,0.3c-2.7-1.7-5.2-3.5-7.8-5.4 c-2.3-1.7-5.7,0.5-4.2,3.2c1.1,2.1,3.5,3.8,5.8,5.3c-2.8,1.3-5.4,2.8-7.3,4.6c-1.1,1.1,0,2.7,1.3,2.9c2.7,0.6,5.6-0.5,8.3-1.9 c-1.2,2.2-2.1,4.4-2.7,6.7c-0.5,2.4,2.7,3.9,4.3,2.1c2.1-2.4,3.7-5.5,5-8.8c2,1.4,4.1,2.9,6.1,4.5c2,1.6,4.2,3.9,6.4,5.1 c1.4,0.7,3-0.7,2.4-2.5C1158.4,147.9,1151.8,143.9,1148,141.4z"/>
    <path fill="#F6B6AD" d="M1117.6,120.3c-0.3,0.6-1.4,1.8-1.9,2.7c-0.7,1.4-1.3,2.8-1.9,4.2l-1.5-0.3c-1.7-0.4-3.7-1.2-5.4-0.3 c-0.9,0.4-1.8,1.5-1.3,2.3c1,1.6,3.7,2,6.2,2.5c-1.3,0.8-2.7,1.4-4.3,2.1c-1.8,0.7-1.7,3.2,0.4,2.9c0.9-0.2,1.8-0.4,2.7-0.7 c-0.5,1.8-0.6,3.4-0.1,4.8c0.7,1.7,3.5,0.8,4.2-0.6c0.8-1.4,0.8-3,1.3-4.5c0.3-0.9,0.6-1.8,0.9-2.7c2.4,0.7,4.9,1.7,6.4,3.3 c0.9,1,2.6-0.1,2.3-1.3c-0.7-2.8-2.9-4.3-5.5-5.4c1.2-1.1,2.4-2.1,3.6-3c0.6-0.4,0.4-1.4-0.4-1.3c-1.7,0.2-3.1,0.8-4.5,1.7 l0.7-2.7c0.2-0.7,0.2-1.3,0.3-2c0-0.3,0-0.5-0.1-0.8l-0.1-0.1l0,0C1120,119.7,1118.2,119.1,1117.6,120.3z"/>
    <path fill="#D8847F" d="M1145.9,111.4c1.2,0.7,2.7,0.7,4.2,0.6c0.3,1.5,0.8,2.9,1.2,4.2c0.8,2.3,3.8,1.8,3.6-0.6l-0.1-0.6 c1.1,1.5,2.3,2.7,3.8,3.5c0.5,0.3,1.2,0,1.1-0.8c-0.4-2.4-1.5-4.4-2.9-6.2c0.5-0.1,0.9-0.1,1.2,0c1.3,0.6,2.1-1.4,0.7-2.2 c-1.7-1-3.3-1.5-5.1-1.8l-0.6-0.7c-0.3-2-0.4-3.9-0.4-6c0-1.3-1.6-2.2-2.1-1c-0.5,1-0.8,2.2-1,3.4c-0.7-0.6-1.5-1.2-2.3-1.6 c-1.1-0.6-1.7,0.9-1.1,1.9c0.8,1.3,1.8,2.5,2.7,3.6c-1.3,0.1-2.6,0.3-3.5,1C1144.4,109,1144.9,110.8,1145.9,111.4z"/>
    <path fill="#57BFB2" d="M1154,193.1c-4.6,1.1-9.2,3.3-13.8,4.9c0.6-3.3,0.5-6.7-0.5-9.4c-0.5-1.1-1.9-1.3-2.5-0.2 c-1.7,3.3-2.1,7.5-2.8,11.3l-1.7,0.4l-5.1-3c-2.6-1.6-5.1-3.7-8-4.6c-1.9-0.6-3.6,1.3-2.6,2.8c1.7,2.4,4.4,4.5,7.4,6.5 c-1.9,0.3-3.9,0.7-5.8,1c-3.2,0.6-2.5,4.8,0.9,4.9c4.2,0.1,8.3-0.5,12.5-1.5l0.5,0.3c-1.2,3.3-2.7,6.7-2.2,9.5 c0.3,1.6,1.8,2.4,3.2,1.5c2.2-1.4,3.6-4.5,4.4-7.7c4.7,2.9,10.1,6.2,15.3,5.8c1.6-0.1,2.3-2.1,1.2-3.2c-3.8-3.9-9.4-5.9-14.3-8.3 c5.4-1.6,11.2-4,15.5-8.2C1156.7,194.5,1155.2,192.7,1154,193.1z"/>
    <path fill="#F4C336" d="M1133.9,172c-2.4-1.7-5.2-2.8-8.1-3.7c2-0.7,4-1.4,6.1-2c1.3-0.4,1-2.1-0.2-2.1c-2.7-0.2-5.2,0.4-7.7,1.2 c0.3-1.7,0.3-3.5-0.4-5c-0.4-0.9-2.2-1.3-2.7-0.2c-0.5,1.1-0.9,2.1-1.2,3.2c-1.8-2-3.9-3.7-6.4-4.6c-0.9-0.3-2,0.5-1.4,1.2 c1.5,1.8,3,3.8,4.4,5.8c-3.3-0.8-6.8-1.2-9.4-0.2c-1,0.4-1.4,1.6-0.4,2.2c1.8,1.1,4.2,1.8,6.8,2.2c-1,0.5-1.9,1.1-2.7,1.7 c-1.4,1.2,0,3,2,2.5c1.5-0.4,2.9-0.9,4.2-1.6c-0.7,2.2-1.2,4.5-0.7,6.4c0.5,1.8,3.7,2.9,4.7,0.7c0.5-1.1,0.8-2.2,1-3.4 c0.9,1.9,2.1,3.5,3.6,4.2c0.8,0.3,1.5,0,1.9-0.6c1-1.7,0.2-4.5-1.2-7c2.2,0.6,4.5,1.2,6.7,1.5 C1134.4,174.6,1135,172.8,1133.9,172z"/>
    <path fill="#D8847F" d="M1169.2,171.9c-2.3-1.3-5.4-1.1-8.4-0.1c0.8-1.9,1.4-3.8,2.1-5.7c0.5-1.4-1.2-2.5-2-1.5 c-1.2,1.4-2.3,3.3-3.4,5.5c-1.5-1.5-3.2-2.7-4.9-2.3c-0.4,0.1-0.8,0.6-0.8,1.1c0,2.3,1.7,4,3.4,5.6c-2.2,1.5-4.2,3.3-5.4,5.2 c-0.9,1.5,0.4,3.9,2,2.9c0.7-0.4,1.3-0.8,2-1.3c-0.4,3-0.3,5.9,1,8.2c0.4,0.7,1.4,0.6,1.8-0.2c1.4-3.4,1.3-7.3,2.2-10.9l0.1-0.2 c2.1,2.5,4.2,5.2,6.3,7.9c0.7,1,2-0.4,1.6-1.5c-1.1-3.5-2.7-6.4-4.8-9.1c2.2-1,4.5-1.6,6.9-1.6 C1169.8,174.1,1170,172.4,1169.2,171.9z"/>
    <path fill="#F7A33E" d="M1128.1,238.9c-3.9,1.9-7.8,3.7-11.7,5.1l-0.6-0.2c-0.3-3.2-0.6-6.3-0.6-9.4c-0.1-2.9-4-4.2-5.1-1.3 c-0.9,2.2-0.8,5-0.5,7.9c-2.8-1.3-5.5-2.5-8.1-2.8c-1.6-0.2-2.1,1.7-1.5,2.8c1.2,2.4,3.8,4.1,6.6,5.3c-2.4,0.5-4.8,1.1-6.9,2.1 c-2.2,1.1-1.4,4.5,1.1,4.6c3.1,0.1,6.6-0.6,10-1.6c0.2,2.5,0.3,5,0.3,7.5c0,2.5-0.4,5.8,0,8.2c0.3,1.5,2.4,2,3.5,0.4 c3.2-4.6,2.2-12.2,1.8-16.7l-0.1-0.8c3.4,1.3,6.9,2.6,10.5,3.6c1.3,0.4,3.1-1.4,2.1-2.6c-1.5-1.8-3.5-3.1-5.5-4.2 c2.6-1.4,4.9-3.3,6.5-5.7C1130.8,239.7,1129.5,238.2,1128.1,238.9z"/>
    <path fill="#F6B6AD" d="M1099.7,209.8c-0.6,1.8,0.7,4.2,1.9,6.4c-1.4-0.6-2.8-1.2-4.3-2.1c-1.7-1-3.6,0.7-2,2.1 c0.7,0.6,1.5,1.2,2.2,1.7c-1.7,0.7-3,1.6-3.8,2.9c-0.9,1.6,1.6,3.2,3.1,2.9c1.5-0.3,2.9-1.2,4.3-1.8l2.7-1 c0.9,2.3,1.7,4.9,1.4,7.1c-0.3,1.3,1.7,1.9,2.4,1c1.7-2.3,1.6-5,0.8-7.7c1.6,0.3,3.1,0.6,4.6,1c0.7,0.2,1.3-0.6,0.8-1.2 c-1.2-1.2-2.6-1.9-4.1-2.5l2.5-1.1c0.6-0.3,1.2-0.7,1.8-1c0.2-0.1,0.4-0.3,0.5-0.5l0.1-0.1l0,0c1.3-0.4,0.6-2.2-0.7-1.9 c-0.6,0.2-2.3,0-3.4,0.2c-1.5,0.3-3,0.7-4.4,1.2l-0.7-1.4c-0.8-1.6-1.4-3.6-3.1-4.5C1101.4,209,1100,209,1099.7,209.8z"/>
    <path fill="#D8847F" d="M1150.3,227c-1.1,0.3-2.2,0.7-3.3,1.4c0-0.9,0-1.9-0.2-2.8c-0.2-1.3-1.8-0.8-2.1,0.3 c-0.5,1.4-0.8,2.9-1.1,4.4c-0.9-1-1.9-1.8-3-2.1c-1.2-0.3-2.3,1.2-2.1,2.4c0.2,1.4,1.1,2.6,2.1,3.7c-0.9,1.2-1.8,2.4-2.5,3.5 c-1.3,2.1,0.9,4.1,2.7,2.4l0.4-0.4c-0.5,1.7-0.7,3.5-0.4,5.2c0.1,0.5,0.8,0.9,1.3,0.4c1.6-1.8,2.4-3.9,3-6.1 c0.3,0.3,0.7,0.7,0.8,1c0.4,1.4,2.4,0.7,2.2-0.8c-0.3-1.9-0.9-3.5-1.8-5.1l0.2-0.9c1.4-1.5,2.8-2.8,4.4-4 C1151.8,228.5,1151.5,226.7,1150.3,227z"/>
    <path fill="#57BFB2" d="M1079.7,287.7c-3.8-2.9-8.3-5.2-12.4-7.7c2.8-1.7,5.6-3.7,7-6.3c0.6-1-0.2-2.3-1.4-2.1 c-3.7,0.7-7.2,3-10.6,4.8l-1.4-1.1l-0.9-5.9c-0.4-3-0.3-6.2-1.4-9.1c-0.7-1.8-3.3-2.1-3.8-0.3c-0.8,2.8-0.8,6.2-0.4,9.8l-4.4-3.9 c-2.5-2.3-5.3,1.1-3.3,3.7c2.5,3.2,5.6,6.2,8.9,8.9l0.1,0.5c-3.3,1-6.9,2.1-8.8,4.1c-1.1,1.2-0.8,2.8,0.8,3.4 c2.5,1,5.8-0.1,8.8-1.3c0.7,5.5,1.5,11.7,5,15.6c1,1.1,3.1,0.4,3.3-1.1c0.7-5.3-1.2-11-2.4-16.3c4.6,3.1,10.1,6.3,16.1,7 C1080.3,290.8,1080.7,288.5,1079.7,287.7z"/>
    <path fill="#F4C336" d="M1083.6,258.9c-0.1-2.9-1.1-5.9-2.2-8.7c1.8,1.1,3.6,2.3,5.4,3.6c1.1,0.8,2.2-0.5,1.5-1.6 c-1.5-2.2-3.6-3.8-5.7-5.2c1.5-0.9,3-1.9,3.7-3.4c0.5-0.9-0.3-2.5-1.5-2.2c-1.1,0.3-2.2,0.7-3.3,1.1c0.5-2.6,0.5-5.4-0.4-7.9 c-0.3-0.9-1.6-1.3-1.8-0.3c-0.4,2.4-1.1,4.6-1.8,7c-1.4-3-3.3-6.1-5.7-7.5c-0.9-0.5-2.1-0.1-2,1c0.2,2.1,1.3,4.4,2.5,6.7 c-1-0.4-2-0.8-3-1c-1.8-0.5-2.4,1.9-0.7,3.2c1.2,0.9,2.5,1.6,3.9,2.3c-2.1,0.9-4.2,1.9-5.4,3.5c-1.1,1.6,0.1,4.8,2.3,4.1 c1.1-0.3,2.2-0.7,3.3-1.2c-0.9,1.9-1.5,3.8-1,5.4c0.2,0.8,0.9,1.2,1.7,1.1c2-0.2,3.6-2.7,4.7-5.2c0.9,2.1,1.8,4.3,3,6.2 C1081.9,260.9,1083.7,260.3,1083.6,258.9z"/>
    <path fill="#D8847F" d="M1106.1,275.4c-1.8,0-4,0.3-6.4,0.8c0.3-2.1,0.1-4.1-1.3-5.2c-0.4-0.3-1-0.3-1.4,0 c-1.8,1.4-2.1,3.9-2.2,6.2c-2.6-0.8-5.2-1.3-7.4-1c-1.7,0.2-2.8,2.6-1.1,3.4c0.7,0.3,1.5,0.5,2.3,0.7c-2.7,1.5-4.7,3.5-5.8,5.8 c-0.3,0.8,0.4,1.5,1.3,1.3c3.5-1.1,6.5-3.4,9.8-5.1l0.2-0.1c-0.6,3.3-1.4,6.6-2.3,9.9c-0.3,1.2,1.6,1.3,2.2,0.3 c2.1-2.9,3.3-6.2,4.1-9.4c2.2,1.1,4.1,2.5,5.6,4.4c0.6,0.8,2-0.1,1.9-1.1c-0.4-2.7-2.5-4.9-5.2-6.6c1.9-0.6,3.9-1.2,5.8-1.9 C1107.7,277.4,1107.4,275.4,1106.1,275.4z"/>
    <path fill="#F7A33E" d="M1027.7,296.1c-3.9-1.9-7.8-3.7-11.3-6l-0.2-0.6c2.3-2.1,4.6-4.4,7-6.3c2.2-1.8,0.8-5.7-2.2-4.8 c-2.3,0.7-4.4,2.5-6.5,4.5c-0.7-3-1.5-5.8-2.9-8.1c-0.9-1.3-2.6-0.6-3.2,0.6c-1.1,2.5-0.8,5.5,0,8.5c-1.9-1.6-3.8-3.1-5.9-4.1 c-2.2-1-4.4,1.7-3,3.7c1.9,2.5,4.6,4.8,7.4,6.8c-1.8,1.7-3.7,3.3-5.7,4.9c-2,1.6-4.8,3.2-6.4,5.1c-1,1.2,0,3.1,1.9,3 c5.6-0.4,10.9-5.9,14.2-9l0.6-0.5c1.1,3.5,2.3,7,3.7,10.4c0.5,1.2,3,1.7,3.4,0.1c0.5-2.3,0.3-4.7-0.2-6.9c2.7,1,5.6,1.8,8.5,1.5 C1028.7,298.7,1029.1,296.8,1027.7,296.1z"/>
    <path fill="#F6B6AD" d="M1032.6,273.8c0.2-1.7-0.1-3.2-0.6-4.8l2.5,1.3c0.6,0.3,1.2,0.5,1.9,0.7c0.2,0.1,0.5,0.1,0.7,0.1l0.1,0 l0,0c1.1,0.7,2.1-0.9,1.1-1.7c-0.5-0.4-1.4-1.8-2.2-2.5c-1.2-1-2.4-1.8-3.7-2.7l0.7-1.4c0.8-1.5,1.9-3.4,1.5-5.3 c-0.2-1-1.1-2.1-1.9-1.8c-1.8,0.5-2.8,3.1-3.8,5.4c-0.4-1.4-0.8-3-1-4.6c-0.3-2-2.8-2.5-2.9-0.3c-0.1,0.9,0,1.9,0.1,2.8 c-1.6-0.8-3.2-1.5-4.7-1.1c-1.8,0.4-1.5,3.3-0.4,4.3c1.2,1,2.8,1.5,4.1,2.3c0.8,0.4,1.6,0.9,2.4,1.4c-1.2,2.2-2.8,4.5-4.7,5.5 c-1.2,0.6-0.5,2.5,0.7,2.5c2.8,0.1,4.9-2,6.5-4.1c0.8,1.4,1.5,2.8,2.1,4.2C1031.5,274.7,1032.5,274.6,1032.6,273.8z"/>
    <path fill="#D8847F" d="M1047.7,304.4c0.8-0.6,1.5-1.2,2.1-1.9c0.8-1-0.5-1.9-1.6-1.5c-1.4,0.6-2.8,1.2-4.2,1.8 c0.2-1.3,0.3-2.6-0.2-3.7c-0.5-1.2-2.4-1.1-3.2-0.2c-0.9,1.1-1.3,2.5-1.5,3.9c-1.5,0-3,0-4.3,0.2c-2.4,0.3-2.6,3.3-0.2,3.6l0.6,0 c-1.6,0.8-3.2,1.6-4.3,2.9c-0.4,0.4-0.3,1.2,0.5,1.2c2.5,0.2,4.6-0.6,6.7-1.5c0,0.5-0.1,0.9-0.3,1.2c-0.9,1.1,1,2.3,2,1.2 c1.3-1.4,2.2-2.9,2.9-4.6l0.8-0.4c2,0.1,3.9,0.6,5.9,1c1.2,0.3,2.5-1.1,1.5-1.9C1050,305.3,1048.9,304.8,1047.7,304.4z"/>
    <path fill="#57BFB2" d="M966.9,275.7c1.1-0.2,1.7-1.6,0.7-2.4c-2.9-2.4-6.8-3.7-10.4-5.3l0-1.7l4.1-4.4c2.1-2.2,4.7-4.1,6.3-6.7 c1-1.7-0.4-3.9-2.2-3.2c-2.7,1.1-5.4,3.3-7.9,5.8c0.1-2,0.2-3.9,0.3-5.8c0.2-3.4-4.1-3.4-5-0.2c-1,4-1.3,8.2-1.3,12.5l-0.4,0.4 c-2.9-2-6-4.1-8.7-4.3c-1.6-0.1-2.7,1.2-2.2,2.7c0.8,2.5,3.6,4.5,6.5,6.1c-3.9,3.9-8.3,8.5-9.1,13.6c-0.3,1.5,1.6,2.7,2.9,1.9 c4.6-2.8,7.9-7.8,11.3-12c0.4,5.5,1.4,11.8,4.5,16.9c0.9,1.6,3,0.5,3-0.8c-0.1-4.8-1.1-9.8-1.7-14.5 C960.7,275.3,964,276.2,966.9,275.7z"/>
    <path fill="#F4C336" d="M998,266.4c1-0.2,1.8-1.8,0.8-2.6c-0.9-0.7-1.9-1.3-2.9-1.9c2.3-1.2,4.5-2.9,5.9-5.3 c0.5-0.8,0-2.1-0.9-1.6c-2.1,1.2-4.3,2-6.6,3c1.5-3,2.7-6.4,2.3-9.1c-0.1-1-1.2-1.7-2-1c-1.5,1.5-2.7,3.8-3.7,6.2 c-0.3-1.1-0.7-2.1-1.1-3c-0.8-1.7-2.9-0.7-2.9,1.4c0,1.5,0.3,3,0.6,4.5c-2-1.1-4.1-2.1-6.1-2.1c-1.9,0.1-3.7,3.1-1.8,4.4 c0.9,0.7,2,1.3,3,1.8c-2,0.5-3.9,1.2-4.9,2.6c-0.5,0.7-0.3,1.5,0.2,2c1.4,1.4,4.3,1.2,7,0.5c-1.1,2-2.2,4.1-2.9,6.2 c-0.5,1.3,1.2,2.4,2.2,1.5c2.2-2,4-4.5,5.5-7.1c0.3,2.1,0.4,4.3,0.5,6.5c0.1,1.3,1.8,1.4,2.2,0.2c0.8-2.6,0.7-5.1,0.5-7.7 C994.6,266.3,996.3,266.7,998,266.4z"/>
    <path fill="#D8847F" d="M980.8,297.1c1.8-1.1,3.3-2.5,3.3-4.2c0-0.5-0.4-0.9-0.9-1.1c-2.2-0.6-4.3,0.8-6.2,2.1 c-1-2.6-2.3-4.8-3.8-6.4c-1.2-1.3-3.8-0.6-3.3,1.2c0.2,0.8,0.5,1.5,0.8,2.2c-2.8-1.1-5.7-1.5-8.2-0.9c-0.8,0.2-0.9,1.3-0.2,1.8 c3,2.1,6.8,3,10.1,4.5l0.2,0.1c-3,1.6-6.1,3-9.2,4.4c-1.1,0.5,0,2,1.1,2c3.6-0.2,6.9-1.3,9.9-2.6c0.5,2.4,0.6,4.8,0,7.1 c-0.2,1,1.3,1.6,2,0.8c1.8-2,2.3-5,1.9-8.2c1.7,1.1,3.3,2.3,5.1,3.3c1.3,0.8,2.7-0.7,1.9-1.7 C984.3,300.3,982.7,298.7,980.8,297.1z"/>
    <path fill="#F7A33E" d="M930,237c-1.9-1.4-4.7-1.9-7.6-2.3c1.9-2.4,3.7-4.9,4.5-7.4c0.5-1.5-1.2-2.4-2.5-2.1 c-2.6,0.7-4.8,2.8-6.6,5.3c0.1-2.5,0-4.9-0.5-7.2c-0.5-2.4-4.1-2.3-4.7,0c-0.9,3.1-0.9,6.6-0.7,10.1c-2.4-0.4-4.9-0.9-7.4-1.4 c-2.4-0.5-5.4-1.7-8-1.8c-1.6,0-2.4,1.9-1.1,3.3c3.7,4.1,11.4,4.9,15.9,5.5l0.8,0.1c-2,3.1-4.1,6.2-5.9,9.4 c-0.6,1.2,0.6,3.4,2.1,2.6c2.1-1.1,3.8-2.7,5.3-4.5c0.8,2.9,2.2,5.5,4.1,7.6c1.2,1.2,3,0.3,2.6-1.2c-0.9-4.3-2-8.4-2.4-12.6 l0.3-0.5c3.2,0.4,6.2,0.9,9.3,1.5C930.5,242.2,932.6,238.7,930,237z"/>
    <path fill="#F6B6AD" d="M941.8,237.9c-0.6,1.5-1.3,3-2,4.3c-0.3,0.6,0.3,1.4,1,1c1.4-0.9,2.5-2.1,3.3-3.5l0.5,2.7 c0.2,0.7,0.3,1.3,0.6,1.9c0.1,0.3,0.2,0.5,0.4,0.6l0.1,0.1v0c0.1,1.3,2,1.1,2-0.2c0-0.7,0.5-2.2,0.6-3.3c0-1.5,0-3.1-0.1-4.6 l1.5-0.4c1.7-0.4,3.8-0.5,5.1-2.1c0.6-0.8,0.9-2.1,0.2-2.6c-1.5-1.1-4.2-0.2-6.6,0.4c0.9-1.3,1.8-2.5,3-3.7 c1.3-1.5,0.2-3.7-1.6-2.4c-0.8,0.5-1.5,1.2-2.1,1.8c-0.3-1.8-0.8-3.4-2-4.4c-1.4-1.2-3.5,0.8-3.6,2.4c0,1.5,0.6,3.1,0.8,4.6 l0.4,2.8c-2.5,0.4-5.2,0.6-7.2-0.2c-1.2-0.5-2.3,1.2-1.5,2.1C936.2,237.7,939.1,238,941.8,237.9z"/>
    <path fill="#D8847F" d="M929.3,272.4c-1.3-0.8-2.6-1.5-4-2.1c1.2-0.6,2.2-1.4,2.7-2.4c0.6-1.1-0.7-2.5-1.9-2.6 c-1.4-0.1-2.7,0.5-4,1.2c-0.9-1.2-1.9-2.3-2.9-3.2c-1.7-1.7-4.2,0-2.9,2.1l0.3,0.5c-1.6-0.8-3.2-1.5-5-1.5 c-0.6,0-1.1,0.5-0.6,1.2c1.4,2,3.3,3.3,5.3,4.3c-0.4,0.3-0.8,0.5-1.1,0.5c-1.4,0-1.2,2.2,0.3,2.3c2,0.1,3.6-0.1,5.3-0.6l0.8,0.4 c1.2,1.6,2,3.4,2.9,5.2c0.6,1.1,2.4,1.2,2.4,0c0-1.1-0.3-2.3-0.6-3.5c0.9,0.2,1.9,0.4,2.8,0.4 C930.5,274.6,930.3,272.9,929.3,272.4z"/>
    <path fill="#57BFB2" d="M891.5,179.2c-4.1,3.8-8.4,8.4-10.5,14.1c-0.6,1.8,1.5,2.7,2.5,1.8c3.6-3,6.9-6.9,10.3-10.3 c0.9,3.2,2.4,6.2,4.6,8.2c0.9,0.8,2.3,0.4,2.3-0.9c0.1-3.7-1.3-7.7-2.3-11.4l1.4-1.1l5.9,0.5c3,0.3,6.2,1.1,9.2,0.7 c1.9-0.3,2.7-2.7,1.1-3.7c-2.5-1.4-6-2.2-9.5-2.6c1.6-1.2,3.2-2.3,4.8-3.4c2.6-1.9,0.2-5.4-2.9-4c-3.8,1.7-7.3,4.1-10.6,6.8 l-0.5,0c-0.3-3.5-0.5-7.2-2.1-9.5c-0.9-1.3-2.6-1.4-3.5,0c-1.4,2.2-1.3,5.6-0.6,8.9c-5.5-0.6-11.8-1.2-16.3,1.4 c-1.4,0.8-1.2,2.9,0.3,3.4C880.1,179.8,886.1,179.2,891.5,179.2z"/>
    <path fill="#F4C336" d="M935.8,206.8c-2.1-1-4.3-2.1-6.4-3.3c3.3-0.7,6.6-1.9,8.6-3.9c0.7-0.8,0.5-2-0.6-2.2 c-2.1-0.3-4.6,0.3-7.1,0.9c0.7-0.9,1.2-1.8,1.7-2.7c0.8-1.7-1.3-2.7-2.9-1.4c-1.2,0.9-2.2,2.1-3.1,3.3c-0.3-2.3-0.9-4.5-2.2-6.1 c-1.2-1.5-4.6-1-4.6,1.4c0,1.2,0.2,2.3,0.5,3.5c-1.7-1.3-3.4-2.3-5.1-2.2c-0.8,0-1.4,0.7-1.4,1.4c-0.2,2,1.8,4.1,4,5.8 c-2.3,0.4-4.6,0.8-6.7,1.6c-1.4,0.5-1.1,2.3,0.3,2.6c2.9,0.5,5.9,0.3,8.9-0.1c-1.5,1.5-3,3-4.7,4.4c-1,0.9,0,2.3,1.2,1.8 c2.5-1,4.5-2.6,6.4-4.4c0.5,1.7,1.3,3.3,2.5,4.4c0.8,0.7,2.5,0.3,2.5-1c0-1.2-0.1-2.3-0.3-3.4c2.5,1,5.1,1.7,7.8,1.3 C936,208.4,936.6,207.2,935.8,206.8z"/>
    <path fill="#D8847F" d="M895.9,215.8c-1-2.1-3.3-2.9-5.5-3.6c1.3-2.3,2.4-4.8,2.6-7c0.2-1.7-2-3.3-3.1-1.8 c-0.4,0.6-0.8,1.3-1.2,2c-1-2.9-2.2-5.4-4.4-7c-0.7-0.5-1.6,0.1-1.5,0.9c0.2,3.7,1.9,7.1,2.8,10.7l0,0.2c-3-1.4-6.1-2.9-9.2-4.4 c-1-0.6-1.6,1.3-0.8,2.1c2.5,2.7,5.2,4.6,8.3,6.1c-1.5,1.9-3.4,3.4-5.5,4.4c-0.9,0.4-0.4,2,0.6,2.1c2.7,0.2,5.3-1.3,7.6-3.6 c0.1,2,0.4,4,0.6,6.1c0.2,1.5,2.2,1.7,2.5,0.5c0.4-1.8,0.6-4,0.6-6.5c2,0.7,4,1,5.4-0.1C896,216.9,896.2,216.3,895.9,215.8z"/>
  </g>
</svg>