<?xml version="1.0" encoding="utf-8"?>
<svg viewBox="560.66 4.323 90.78 86.55" xmlns="http://www.w3.org/2000/svg">
  <g id="plant" transform="matrix(1, 0, 0, 1, 550.490234, -17.976908)">
    <path class="st1" d="M94.19,69.93c4.15-2.33,6.76-4.87,6.76-4.87s-2.75-2.41-7.03-4.53c-1.01-6.27-3.65-12.12-7.54-16.99 c1.49-4.91,1.54-8.92,1.54-8.92s-4.01,0.26-8.84,2c-4.15-2.97-8.99-5.11-14.33-6.13c-0.71-0.13-1.41-0.24-2.12-0.33 c-2.47-4.78-5.45-7.85-5.45-7.85s-2.78,3.17-4.99,8c-5.83,0.94-11.3,3.29-15.95,6.74c-5.17-1.66-9.5-1.72-9.5-1.72 s0.27,4.15,2.08,9.09c-3.25,4.31-5.58,9.41-6.66,15.06c-0.08,0.43-0.15,0.86-0.21,1.29c-4.6,2.48-7.53,5.33-7.53,5.33 s2.89,2.54,7.39,4.75c0.8,6.34,3.26,12.28,7,17.28c-1.31,4.7-1.36,8.41-1.36,8.41s3.5-0.22,7.94-1.65 c4.45,3.52,9.79,6.06,15.74,7.19c0.79,0.15,1.58,0.26,2.36,0.36c2.31,3.95,4.69,6.41,4.69,6.41s2.17-2.48,4.24-6.41 c6.8-0.85,13.16-3.61,18.38-7.83c4.41,1.15,7.82,1.2,7.82,1.2s-0.22-3.35-1.56-7.65c3.25-4.31,5.58-9.41,6.66-15.06 C93.94,72.03,94.09,70.98,94.19,69.93z" style="fill: rgb(221, 221, 221);"/>
    <g>
      <g>
        <ellipse transform="matrix(0.1868 -0.9824 0.9824 0.1868 -21.4397 106.6472)" class="st5" cx="53.7" cy="66.27" rx="33.27" ry="33.27" style="fill: rgb(246, 151, 119);"/>
        <path class="st8" d="M17.91,59.47c-3.75,19.73,9.25,38.84,28.98,42.59c19.74,3.75,38.84-9.25,42.6-28.98 c3.75-19.73-9.25-38.84-28.98-42.59C40.77,26.73,21.66,39.73,17.91,59.47z M24.11,60.65c3.1-16.31,18.9-27.06,35.21-23.96 c16.31,3.1,27.06,18.9,23.96,35.21c-3.1,16.31-18.9,27.06-35.21,23.96C31.76,92.76,21.01,76.96,24.11,60.65z" style="fill: rgb(88, 103, 115);"/>
      </g>
      <g>
        <path class="st9" d="M10.17,66.08c0,0,8.89-8.67,20.11-8.95c11.23-0.28,20.54,7.92,20.54,7.92S41.94,73.72,30.71,74 C19.48,74.29,10.17,66.08,10.17,66.08z" style="fill: rgb(69, 179, 135);"/>
        <path class="st9" d="M57.31,66.07c0,0,8.61-8.4,19.48-8.68c10.88-0.28,19.91,7.67,19.91,7.67s-8.61,8.4-19.49,8.67 C66.33,74.02,57.31,66.07,57.31,66.07z" style="fill: rgb(69, 179, 135);"/>
      </g>
      <g>
        <path class="st9" d="M23.21,96.52c0,0,0.15-12.41,7.89-20.55c7.74-8.14,20.13-8.93,20.13-8.93s-0.15,12.41-7.89,20.55 C35.6,95.74,23.21,96.52,23.21,96.52z" style="fill: rgb(69, 179, 135);"/>
        <path class="st9" d="M56.53,63.18c0,0,0.15-12.02,7.64-19.91c7.5-7.89,19.5-8.65,19.5-8.65s-0.15,12.02-7.65,19.91 C68.53,62.42,56.53,63.18,56.53,63.18z" style="fill: rgb(69, 179, 135);"/>
      </g>
      <g>
        <path class="st9" d="M53.95,108.83c0,0-8.67-8.88-8.96-20.11c-0.28-11.23,7.92-20.54,7.92-20.54s8.67,8.89,8.95,20.11 C62.16,99.51,53.95,108.83,53.95,108.83z" style="fill: rgb(69, 179, 135);"/>
        <path class="st9" d="M53.94,61.69c0,0-8.4-8.61-8.68-19.48c-0.28-10.88,7.67-19.91,7.67-19.91s8.4,8.61,8.67,19.49 C61.88,52.67,53.94,61.69,53.94,61.69z" style="fill: rgb(69, 179, 135);"/>
      </g>
      <g>
        <path class="st9" d="M84.39,95.79c0,0-12.41-0.15-20.55-7.89c-8.14-7.74-8.93-20.13-8.93-20.13s12.41,0.15,20.55,7.89 C83.61,83.4,84.39,95.79,84.39,95.79z" style="fill: rgb(69, 179, 135);"/>
        <path class="st9" d="M51.05,62.47c0,0-12.02-0.15-19.91-7.64c-7.89-7.5-8.65-19.5-8.65-19.5s12.02,0.15,19.91,7.65 C50.29,50.47,51.05,62.47,51.05,62.47z" style="fill: rgb(69, 179, 135);"/>
      </g>
      <g>
        <path class="st2" d="M42.59,66.23c-6.04,4.27-9.56,8.65-9.56,8.65s5.59,0.5,12.86-0.88c-1.25,7.29-0.64,12.87-0.64,12.87 s4.31-3.6,8.47-9.72c4.28,6.04,8.65,9.56,8.65,9.56s0.5-5.59-0.88-12.86c7.3,1.25,12.88,0.64,12.88,0.64s-3.6-4.31-9.72-8.47 c6.04-4.28,9.56-8.65,9.56-8.65s-5.59-0.5-12.86,0.88C62.6,50.96,62,45.38,62,45.38s-4.31,3.6-8.47,9.72 c-4.28-6.04-8.65-9.56-8.65-9.56s-0.5,5.59,0.88,12.86c-7.29-1.25-12.87-0.64-12.87-0.64S36.48,62.06,42.59,66.23z" style="fill: rgb(255, 255, 255);"/>
        <path class="st0" d="M49.58,68.22c-1.45,2.54-1.98,4.7-1.98,4.7s2.09-0.76,4.47-2.47c0.77,2.83,1.92,4.72,1.92,4.72 s0.94-2.01,1.42-4.9c2.54,1.45,4.71,1.99,4.71,1.99s-0.76-2.09-2.47-4.47c2.83-0.77,4.73-1.92,4.73-1.92s-2.01-0.94-4.91-1.41 c1.45-2.55,1.98-4.7,1.98-4.7s-2.09,0.76-4.47,2.47c-0.77-2.83-1.92-4.73-1.92-4.73s-0.94,2.01-1.41,4.91 c-2.54-1.45-4.7-1.98-4.7-1.98s0.75,2.09,2.47,4.47c-2.83,0.77-4.73,1.92-4.73,1.92S46.69,67.75,49.58,68.22z" style="fill: rgb(255, 213, 92);"/>
      </g>
    </g>
  </g>
</svg>