<?xml version="1.0" encoding="utf-8"?>
<svg viewBox="-3453 554.714 298.1 171.6" xmlns="http://www.w3.org/2000/svg">
  <g transform="matrix(1, 0, 0, 1, -4014.700439, 349.613495)">
    <rect x="563.2" y="223.5" fill-rule="evenodd" clip-rule="evenodd" fill="#D16023" width="293.8" height="150.8"/>
    <rect x="795.4" y="228.9" fill-rule="evenodd" clip-rule="evenodd" fill="#D16226" width="55.4" height="140.1"/>
    <path fill-rule="evenodd" clip-rule="evenodd" fill="#B85621" d="M850.9,330v-62.2c-15.7,3.1-27.4,15.9-27.4,31.1 C823.4,314.1,835.2,326.9,850.9,330L850.9,330z"/>
    <rect x="569.2" y="228.9" fill-rule="evenodd" clip-rule="evenodd" fill="#E67031" width="226.2" height="140.1"/>
    <rect x="683.6" y="233.7" fill-rule="evenodd" clip-rule="evenodd" fill="#E1DFBB" width="104.9" height="129.5"/>
    <rect x="576.1" y="233.7" fill-rule="evenodd" clip-rule="evenodd" fill="#FFF4DD" width="103.5" height="129.5"/>
    <polygon fill-rule="evenodd" clip-rule="evenodd" fill="#E1DFBB" points="580.7,223.5 679.5,233.7 679.5,363.2 597.6,354.7 &#10;&#9;&#9;597.6,282.1 580.7,269.4 &#9;"/>
    <polygon fill-rule="evenodd" clip-rule="evenodd" fill="#82FFF7" points="597.6,285.6 597.6,282.1 580.7,269.4 580.7,244.8 &#10;&#9;&#9;615.9,244.8 615.9,285.6 &#9;"/>
    <rect x="683.6" y="233.7" fill-rule="evenodd" clip-rule="evenodd" fill="#FFF4DD" width="98.8" height="129.5"/>
    <rect x="694.4" y="238.6" fill-rule="evenodd" clip-rule="evenodd" fill="#FFFCF5" width="80.1" height="23.1"/>
    <rect x="695.6" y="267.2" fill="#1A1A1A" width="77.7" height="0.7"/>
    <rect x="695.6" y="277.3" fill="#1A1A1A" width="77.7" height="0.7"/>
    <rect x="695.6" y="283.6" fill="#1A1A1A" width="77.7" height="0.7"/>
    <rect x="695.6" y="290" fill="#1A1A1A" width="77.7" height="0.7"/>
    <rect x="695.6" y="296.4" fill="#1A1A1A" width="77.7" height="0.7"/>
    <rect x="695.6" y="302.7" fill="#1A1A1A" width="77.7" height="0.7"/>
    <rect x="695.6" y="309.1" fill="#1A1A1A" width="77.7" height="0.7"/>
    <rect x="695.6" y="315.5" fill="#1A1A1A" width="77.7" height="0.7"/>
    <rect x="695.6" y="321.9" fill="#1A1A1A" width="77.7" height="0.7"/>
    <rect x="695.6" y="328.2" fill="#1A1A1A" width="77.7" height="0.7"/>
    <rect x="695.6" y="334.6" fill="#1A1A1A" width="77.7" height="0.7"/>
    <rect x="695.6" y="341" fill="#1A1A1A" width="77.7" height="0.7"/>
    <rect x="695.6" y="347.4" fill="#1A1A1A" width="77.7" height="0.7"/>
    <path fill-rule="evenodd" clip-rule="evenodd" fill="#CCCCFF" d="M771.6,351.9c2.5,0,4.5,1.9,4.5,4.3c0,2.4-2,4.3-4.5,4.3 c-2.5,0-4.5-1.9-4.5-4.3C767.1,353.8,769.1,351.9,771.6,351.9L771.6,351.9z"/>
    <path fill-rule="evenodd" clip-rule="evenodd" fill="#333333" d="M837.1,293.7c2.3,0,4.2,1.9,4.2,4.2c0,2.3-1.9,4.2-4.2,4.2 c-2.3,0-4.1-1.9-4.1-4.2C833,295.6,834.9,293.7,837.1,293.7L837.1,293.7z"/>
    <path fill-rule="evenodd" clip-rule="evenodd" fill="#666666" d="M810,352.3c0,0,0,0.6-0.2,1.3c-0.2,0.7-0.6,0.9-0.8-0.1 c-0.2-0.9-0.2-1.5-0.2-1.5L810,352.3z"/>
    <path fill-rule="evenodd" clip-rule="evenodd" fill="#E5E5E5" d="M812,341.5c0,0-0.3,3.3-1,6.9c-0.7,3.6-0.8,4.1-0.8,4.1h-1.6 c0,0-0.7-3.6-1-5.5c-0.3-1.9-0.6-4.4-0.6-5.1C807.1,341.1,812,341.5,812,341.5L812,341.5z"/>
    <path fill-rule="evenodd" clip-rule="evenodd" fill="#666666" d="M813.3,337.9v-14.6c0-0.6-0.5-1.1-1-1.1h-5.2 c-0.6,0-1.1,0.5-1.1,1.1v14.6c0,0.6,0.5,1,1.1,1h5.2C812.8,338.9,813.3,338.4,813.3,337.9L813.3,337.9z"/>
    <rect x="806.9" y="339.5" fill-rule="evenodd" clip-rule="evenodd" fill="#333333" width="5.1" height="2.1"/>
    <path fill-rule="evenodd" clip-rule="evenodd" fill="#333333" d="M812.6,339.4L812.6,339.4c0-0.2-0.2-0.4-0.4-0.4h-5.5 c-0.2,0-0.4,0.2-0.4,0.4l0,0c0,0.2,0.2,0.4,0.4,0.4h5.5C812.5,339.8,812.6,339.6,812.6,339.4L812.6,339.4z"/>
    <path fill-rule="evenodd" clip-rule="evenodd" fill="#B2B2B2" d="M812.6,341.5L812.6,341.5c0-0.2-0.2-0.4-0.4-0.4h-5.5 c-0.2,0-0.4,0.2-0.4,0.4l0,0c0,0.2,0.2,0.4,0.4,0.4h5.5C812.5,341.9,812.6,341.8,812.6,341.5L812.6,341.5z"/>
    <path fill-rule="evenodd" clip-rule="evenodd" fill="#1A1A1A" d="M811.7,253.1v-5.9c0-1.2-0.9-2.1-2.1-2.1l0,0 c-1.1,0-2.1,0.9-2.1,2.1v5.9c0,1.2,0.9,2.1,2.1,2.1l0,0C810.8,255.2,811.7,254.3,811.7,253.1L811.7,253.1z"/>
    <path fill-rule="evenodd" clip-rule="evenodd" fill="#CCCCCC" d="M812.1,256.9v-3.4c0-0.4-0.3-0.7-0.6-0.7h-3.8 c-0.4,0-0.6,0.3-0.6,0.7v3.4c0,0.4,0.3,0.7,0.6,0.7h3.8C811.8,257.5,812.1,257.2,812.1,256.9L812.1,256.9z"/>
    <path fill-rule="evenodd" clip-rule="evenodd" fill="#999999" d="M812.7,257.9v-0.5c0-0.3-0.2-0.6-0.6-0.6h-4.9 c-0.3,0-0.6,0.3-0.6,0.6v0.5c0,0.3,0.3,0.6,0.6,0.6h4.9C812.5,258.4,812.7,258.2,812.7,257.9L812.7,257.9z"/>
    <rect x="806.4" y="257.5" fill-rule="evenodd" clip-rule="evenodd" fill="#C2FF9C" width="6.4" height="64.9"/>
    <path fill-rule="evenodd" clip-rule="evenodd" fill="#5C5A5A" d="M810,352.3c0,0,0,0.6-0.2,1.3c-0.1,0.4-0.2,0.6-0.4,0.6 c0-0.2,0.1-0.4,0.1-0.6c0.1-0.9,0-1.2,0-1.2l0-0.2L810,352.3z"/>
    <path fill-rule="evenodd" clip-rule="evenodd" fill="#999999" d="M812,341.5c0,0-0.3,3.3-1,6.9c-0.7,3.6-0.8,4.1-0.8,4.1h-0.8 l1.1-10.5v-0.6C811.3,341.4,812,341.5,812,341.5L812,341.5z"/>
    <path fill-rule="evenodd" clip-rule="evenodd" fill="#333333" d="M813.3,337.9v-14.6c0-0.6-0.5-1.1-1-1.1h-1.5v0.2 c0,0,0.5,0.8,0.6,1.2c0,0.4,0.1,1.2,0.1,1.2s0.1,10.8,0,12.2c-0.1,1.4-1,1.9-1,1.9h1.9C812.8,338.9,813.3,338.4,813.3,337.9 L813.3,337.9z"/>
    <polygon fill-rule="evenodd" clip-rule="evenodd" fill="#191919" points="812,341.6 812,339.5 810.4,339.5 810.5,339.8 &#10;&#9;&#9;810.9,339.8 810.9,341.1 810.5,341.1 810.5,341.6 &#9;"/>
    <path fill-rule="evenodd" clip-rule="evenodd" fill="#191919" d="M812.2,339h-1.8l0.1,0.8h0.5h1.3C812.8,339.8,812.8,339,812.2,339 L812.2,339z"/>
    <path fill-rule="evenodd" clip-rule="evenodd" fill="#4C4C4C" d="M812.6,341.5L812.6,341.5c0-0.2-0.2-0.4-0.4-0.4h-1.3h-0.4v0.8 h1.7C812.5,341.9,812.6,341.8,812.6,341.5L812.6,341.5z"/>
    <path fill-rule="evenodd" clip-rule="evenodd" fill="#4C4C4C" d="M811.7,253.1v-5.9c0-1-0.7-1.8-1.6-2c0.2,0.2,0.5,0.7,0.6,1.2 c0.1,1.1,0.2,6.3,0.2,6.3v2C811.4,254.4,811.7,253.8,811.7,253.1L811.7,253.1z"/>
    <path fill-rule="evenodd" clip-rule="evenodd" fill="#E6E6E6" d="M812.1,256.9v-3.4c0-0.4-0.3-0.7-0.6-0.7h-0.6v4 c0,0,0.2,0,0.2,0.3c0,0.3-0.3,0.5-0.3,0.5h0.7C811.8,257.5,812.1,257.2,812.1,256.9L812.1,256.9z"/>
    <path fill-rule="evenodd" clip-rule="evenodd" fill="#828080" d="M812.7,257.9v-0.5c0-0.3-0.2-0.6-0.6-0.6h-1.3c0,0,0.2,0,0.2,0.3 c0,0.3-0.3,0.5-0.3,0.5v0.9h1.4C812.5,258.4,812.7,258.2,812.7,257.9L812.7,257.9z"/>
    <rect x="810.7" y="257.5" fill-rule="evenodd" clip-rule="evenodd" fill="#A7E87F" width="2.1" height="64.9"/>
    <path fill-rule="evenodd" clip-rule="evenodd" fill="#C2BA72" d="M816,285.6v-23.4c0,0,0.1-1.6-0.4-2.8c-0.5-1.2-2.1-1.4-2.1-1.4v3 c0,0,1,0.2,1.3,1c0.2,0.8,0,23.6,0,23.6L816,285.6z"/>
    <path fill-rule="evenodd" clip-rule="evenodd" fill="#333333" d="M816.6,285.5c0-0.7-0.5-1.2-1.2-1.2c-0.6,0-1.2,0.5-1.2,1.2 c0,0.6,0.5,1.2,1.2,1.2C816,286.6,816.6,286.1,816.6,285.5L816.6,285.5z"/>
    <polygon fill-rule="evenodd" clip-rule="evenodd" fill="#CCCCCC" points="814.1,261.5 814.1,257.9 812.8,257.6 812.8,261.5 &#9;"/>
    <rect x="805.1" y="266.1" fill-rule="evenodd" clip-rule="evenodd" fill="#E67031" width="8.5" height="15"/>
    <polygon fill-rule="evenodd" clip-rule="evenodd" fill="#3A7DA6" points="580.7,205.1 679.5,233.7 679.5,363.2 595.5,341.4 &#10;&#9;&#9;595.5,261.9 580.7,251.1 &#9;"/>
    <path fill-rule="evenodd" clip-rule="evenodd" fill="#286B94" d="M580.7,205.1l50.6,14.6V232l-0.1,0v0.2c0,0.2-0.1,0.4-0.1,0.6 c-0.1,0.1-0.2,0.2-0.5,0.3l-6.2,2.3l-2-2.5c-0.5-0.6-0.8-1.1-1-1.5c-0.2-0.5-0.3-0.9-0.3-1.5l-0.8-0.2v5.5l0.8,0.2V235 c0-0.4,0.1-0.6,0.1-0.8c0.1-0.1,0.3-0.2,0.5-0.1c0.1,0,0.2,0.1,0.3,0.1s0.2,0.2,0.4,0.4l4,4.7l-4.4-1.1c-0.3-0.1-0.6-0.2-0.7-0.3 c-0.1-0.1-0.2-0.4-0.2-0.7v-0.8l-0.8-0.2v6.2l0.8,0.2v-0.8c0-0.3,0.1-0.5,0.2-0.6c0.1-0.1,0.4-0.1,0.7,0l8.4,2 c0.3,0.1,0.6,0.2,0.7,0.4c0.1,0.1,0.2,0.3,0.2,0.7v0.8l0.1,0v3.6c-0.2-0.5-0.6-0.9-0.9-1.3c-0.6-0.7-1.2-1.3-1.9-1.7 c-0.7-0.4-1.5-0.8-2.4-1c-0.9-0.2-1.7-0.2-2.4-0.2c-0.7,0.1-1.4,0.3-2,0.8c-0.6,0.4-1.1,1-1.4,1.6c-0.3,0.7-0.5,1.5-0.5,2.5 c0,0.9,0.2,1.8,0.5,2.6c0.3,0.8,0.7,1.6,1.3,2.3c0.6,0.7,1.2,1.3,2,1.7c0.7,0.5,1.5,0.8,2.4,1c0.9,0.2,1.7,0.3,2.4,0.2 c0.7-0.1,1.3-0.4,1.9-0.8c0.4-0.2,0.6-0.5,0.9-0.8v6.6c-0.2-0.5-0.6-0.9-0.9-1.3c-0.6-0.7-1.2-1.3-1.9-1.7 c-0.7-0.4-1.5-0.7-2.4-0.9c-0.9-0.2-1.7-0.3-2.4-0.2c-0.7,0.1-1.4,0.3-2,0.7c-0.6,0.5-1.1,1-1.4,1.7c-0.3,0.7-0.5,1.5-0.5,2.4 c0,0.9,0.2,1.8,0.5,2.6c0.3,0.8,0.7,1.6,1.3,2.3c0.6,0.7,1.2,1.3,2,1.7c0.7,0.5,1.5,0.8,2.4,1c0.9,0.2,1.7,0.3,2.4,0.2 c0.7-0.1,1.3-0.3,1.9-0.8c0.4-0.2,0.6-0.5,0.9-0.8v5.4c0,0,0-0.1-0.1-0.1c-0.5-1-1.3-1.6-2.3-1.8c-0.9-0.2-1.6,0-2.1,0.5 c-0.6,0.6-0.9,1.4-0.9,2.6c-0.1-1.1-0.4-2-0.9-2.7c-0.5-0.7-1.1-1.1-1.9-1.3c-0.9-0.2-1.6,0-2.1,0.6c-0.5,0.6-0.7,1.6-0.7,2.9v7 l0.8,0.2v-0.9c0-0.3,0.1-0.5,0.2-0.6c0.1-0.1,0.4-0.1,0.7,0l8.4,2c0.3,0.1,0.6,0.2,0.7,0.3c0.1,0.1,0.2,0.4,0.2,0.7v0.9l0.1,0v6.1 l-3.7-1.1l-0.1,0.8c1.4,0.6,2.3,1.4,2.8,2.2c0.6,0.8,0.8,1.9,0.8,3.3c0,0.6-0.1,0.9-0.2,1c-0.1,0.1-0.4,0.1-0.7,0.1l-4-1V296 c0-0.7,0.2-1.2,0.5-1.5c0.3-0.3,0.9-0.4,1.7-0.3v-0.8l-5.4-1.3v0.8c0.8,0.4,1.4,0.7,1.8,1.2c0.3,0.4,0.5,1,0.5,1.7v0.2l-3.5-0.8 c-0.4-0.1-0.6-0.2-0.7-0.4c-0.1-0.1-0.1-0.5-0.1-1.1c0-1.3,0.2-2.1,0.8-2.7c0.5-0.5,1.4-0.8,2.6-0.7v-0.8l-4.2-0.9v10.6l0.8,0.2 v-0.8c0-0.3,0.1-0.5,0.2-0.6c0.1-0.1,0.4-0.1,0.7,0l8.4,2c0.3,0.1,0.6,0.2,0.7,0.4c0.1,0.1,0.2,0.3,0.2,0.7v0.8l0.1,0v3.1l-0.1,0 v0.8c0,0.3-0.1,0.5-0.2,0.6c-0.1,0.1-0.3,0.1-0.7,0l-8.5-2.1c-0.4-0.1-0.6-0.2-0.7-0.3c-0.1-0.1-0.2-0.3-0.2-0.6 c0-0.7,0.3-1.2,1-1.5c0.6-0.3,1.5-0.4,2.7-0.2v-0.8l-4.4-0.8v10.8l4.4,1.3v-0.8c-1.2-0.5-2.1-1-2.7-1.6c-0.7-0.6-1-1.3-1-1.9 c0-0.3,0-0.5,0.2-0.6c0.1-0.1,0.3-0.1,0.7,0l8.5,2c0.3,0.1,0.6,0.2,0.7,0.4c0.1,0.1,0.2,0.3,0.2,0.7v0.8l0.1,0v6.1 c-0.2-0.5-0.6-0.9-0.9-1.3c-0.6-0.7-1.2-1.3-1.9-1.7c-0.7-0.4-1.5-0.7-2.4-0.9c-0.9-0.2-1.7-0.3-2.4-0.2c-0.7,0.1-1.4,0.3-2,0.7 c-0.6,0.5-1.1,1-1.4,1.6c-0.3,0.7-0.5,1.5-0.5,2.5c0,0.9,0.2,1.8,0.5,2.6c0.3,0.8,0.7,1.6,1.3,2.3c0.6,0.7,1.2,1.3,2,1.7 c0.7,0.5,1.5,0.8,2.4,1c0.9,0.2,1.7,0.3,2.4,0.2c0.7-0.1,1.3-0.4,1.9-0.8c0.4-0.2,0.6-0.5,0.9-0.8v5.3l-8.1-2 c-0.8-0.2-1.4-0.5-1.6-0.8c-0.3-0.3-0.4-0.8-0.5-1.4l-0.8-0.2v4.8l0.8,0.2c0-0.7,0.1-1.2,0.4-1.4c0.3-0.2,0.8-0.2,1.7,0l4.4,1.1 l-7.4,4.4v4.1l0.8,0.2v-0.2c0-0.3,0-0.5,0.1-0.6c0.1-0.1,0.2-0.3,0.5-0.5l0.3-0.2l7.1,1.7c0.8,0.2,1.3,0.5,1.6,0.7 c0.3,0.3,0.5,0.8,0.5,1.5l0.1,0v9.6l-35.8-9.3v-79.5l-14.8-10.8V205.1z M631.3,238v0.9l-0.1,0v0.8c0,0.3-0.1,0.5-0.1,0.6 c-0.1,0.1-0.4,0.1-0.7,0l-2.4-0.6l-1.4-1.7l3.7-1.4l0,0c0.3-0.1,0.5-0.1,0.6-0.1c0.1,0,0.2,0.1,0.3,0.3c0.1,0.2,0.1,0.4,0.1,0.7 v0.5L631.3,238z M631.3,251.4v1.5c-0.2,0.6-0.6,0.9-1.2,1.1c-0.9,0.3-2.2,0.2-4-0.2c-1.7-0.4-3.1-1-4-1.7c-0.9-0.7-1.3-1.5-1.3-2.5 s0.4-1.6,1.3-1.9c0.8-0.2,2.2-0.2,4,0.3c1.8,0.4,3.1,1,4,1.7C630.8,250.2,631.2,250.8,631.3,251.4L631.3,251.4z M631.3,264.9v1.5 c-0.2,0.6-0.6,0.9-1.2,1.1c-0.9,0.3-2.2,0.2-4-0.2c-1.7-0.4-3.1-1-4-1.7s-1.3-1.5-1.3-2.5c0-1,0.4-1.6,1.3-1.9 c0.8-0.2,2.2-0.2,4,0.2c1.8,0.5,3.1,1,4,1.7C630.8,263.7,631.2,264.3,631.3,264.9L631.3,264.9z M631.3,320.1v1.5 c-0.2,0.6-0.6,1-1.2,1.2c-0.9,0.3-2.2,0.2-4-0.2c-1.7-0.5-3.1-1-4-1.7c-0.9-0.7-1.3-1.5-1.3-2.5c0-1,0.4-1.6,1.3-1.9 c0.8-0.3,2.2-0.2,4,0.2s3.1,1,4,1.7C630.8,318.9,631.2,319.4,631.3,320.1L631.3,320.1z M631.3,331.3v5l-0.1,0 c0,0.7-0.1,1.2-0.5,1.4c-0.3,0.2-0.8,0.2-1.6,0l-6-1.5L631.3,331.3z M630,280c0.5,0.1,0.8,0.1,1,0c0.1-0.1,0.2-0.5,0.2-1.1 c0-1-0.2-1.7-0.6-2.3c-0.3-0.5-1-0.9-1.9-1.1c-0.4-0.1-0.7-0.1-1.1-0.1c-0.3,0.1-0.6,0.2-0.7,0.4c-0.2,0.2-0.3,0.4-0.4,0.7 c-0.1,0.3-0.1,0.9-0.1,1.7v0.2c0,0.1,0,0.2,0,0.4c0,0.1,0,0.1,0,0.2L630,280z M622,278l3.5,0.8c0-0.1,0-0.2,0-0.2 c0-0.1,0-0.2,0-0.4c0-1.1-0.2-1.9-0.5-2.5c-0.3-0.5-0.9-0.9-1.7-1.1c-0.8-0.2-1.4-0.1-1.7,0.1c-0.3,0.3-0.5,0.9-0.5,1.8 c0,0.5,0.1,0.8,0.2,1C621.4,277.8,621.6,277.9,622,278L622,278z"/>
    <path fill-rule="evenodd" clip-rule="evenodd" fill="#C25419" d="M847.9,249.4c-10.6,0.1-17.4-6.5-16.4-17.1h16.4V249.4z"/>
    <path fill="#FFFFFF" d="M845.8,247v-0.7h-0.3v0.4c-0.1,0-0.3,0-0.4,0v0.3C845.4,247,845.6,247,845.8,247L845.8,247z M845.8,246 h-0.3v-0.6h0.3V246z M845.8,245.1h-0.3v-0.6h0.3V245.1z M845.8,244.2h-0.3v-0.6h0.3V244.2z M845.8,243.4h-0.3v-0.6h0.3V243.4z M845.8,242.5h-0.3v-0.6h0.3V242.5z M845.8,241.6h-0.3V241h0.3V241.6z M845.8,240.7h-0.3v-0.6h0.3V240.7z M845.8,239.8h-0.3v-0.6 h0.3V239.8z M845.8,238.9h-0.3v-0.6h0.3V238.9z M845.8,238.1h-0.3v-0.6h0.3V238.1z M845.8,237.2h-0.3v-0.6h0.3V237.2z M845.8,236.3 h-0.3v-0.6h0.3V236.3z M845.8,235.4h-0.3v-0.6h0.3V235.4z M845.6,234.5v0.3H845v-0.3H845.6z M844.7,234.5v0.3h-0.6v-0.3H844.7z M843.9,234.5v0.3h-0.6v-0.3H843.9z M843,234.5v0.3h-0.6v-0.3H843z M842.1,234.5v0.3h-0.6v-0.3H842.1z M841.2,234.5v0.3h-0.6v-0.3 H841.2z M840.3,234.5v0.3h-0.6v-0.3H840.3z M839.4,234.5v0.3h-0.6v-0.3H839.4z M838.6,234.5v0.3H838v-0.3H838.6z M837.7,234.5v0.3 h-0.6v-0.3H837.7z M836.8,234.5v0.3h-0.6v-0.3H836.8z M835.9,234.5v0.3h-0.6v-0.3H835.9z M835,234.5v0.3h-0.6v-0.3H835z M834.1,234.5h-0.3c0,0.1,0,0.3,0,0.6h0.3V234.5z M833.8,235.3c0,0.2,0,0.4,0,0.6h0.3c0-0.2,0-0.4,0-0.6H833.8z M833.9,236.2 c0,0.2,0,0.4,0.1,0.6l0.3,0c0-0.2,0-0.4-0.1-0.6L833.9,236.2z M834,237.1c0,0.2,0.1,0.4,0.1,0.6l0.3-0.1c0-0.2-0.1-0.4-0.1-0.6 L834,237.1z M834.2,238c0,0.1,0.1,0.5,0.2,0.6l0.3-0.1c0-0.1-0.1-0.4-0.2-0.6L834.2,238z M834.4,238.9c0.1,0.2,0.1,0.4,0.2,0.6 l0.3-0.1c-0.1-0.2-0.1-0.4-0.2-0.6L834.4,238.9z M834.7,239.7c0.1,0.2,0.1,0.3,0.2,0.5l0.2-0.1c-0.1-0.2-0.1-0.3-0.2-0.6 L834.7,239.7z M835.1,240.5c0.1,0.2,0.2,0.3,0.3,0.5l0.3-0.1c-0.1-0.2-0.2-0.4-0.3-0.5L835.1,240.5z M835.5,241.3 c0.1,0.2,0.2,0.4,0.3,0.5l0.2-0.2c-0.1-0.2-0.2-0.3-0.3-0.5L835.5,241.3z M836,242.1c0.1,0.1,0.2,0.3,0.4,0.5l0.2-0.2 c-0.1-0.1-0.2-0.3-0.3-0.5L836,242.1z M836.5,242.8c0.1,0.1,0.3,0.3,0.4,0.4l0.2-0.2c-0.1-0.1-0.3-0.3-0.4-0.5L836.5,242.8z M837.1,243.4c0.1,0.1,0.3,0.3,0.5,0.4l0.2-0.2c-0.1-0.1-0.3-0.2-0.4-0.4L837.1,243.4z M837.8,244c0.1,0.1,0.3,0.3,0.5,0.4l0.2-0.2 c-0.1-0.1-0.3-0.2-0.5-0.4L837.8,244z M838.5,244.6c0.1,0.1,0.3,0.2,0.5,0.4l0.2-0.2c-0.2-0.1-0.3-0.2-0.5-0.3L838.5,244.6z M839.2,245.1c0.2,0.1,0.3,0.2,0.5,0.3l0.1-0.2c-0.2-0.1-0.3-0.2-0.5-0.3L839.2,245.1z M840,245.6c0.2,0.1,0.4,0.2,0.6,0.3l0.1-0.3 c-0.2-0.1-0.3-0.2-0.5-0.2L840,245.6z M840.8,245.9c0.2,0.1,0.4,0.2,0.6,0.2l0.1-0.3c-0.2-0.1-0.3-0.1-0.5-0.2L840.8,245.9z M841.6,246.3c0.2,0.1,0.4,0.1,0.6,0.2l0.1-0.3c-0.2,0-0.3-0.1-0.5-0.2L841.6,246.3z M842.5,246.6c0.2,0,0.4,0.1,0.6,0.1l0-0.3 c-0.1,0-0.4-0.1-0.6-0.1L842.5,246.6z M843.3,246.7c0.2,0,0.4,0.1,0.6,0.1l0-0.3c-0.2,0-0.4-0.1-0.6-0.1L843.3,246.7z M844.2,246.9 c0.2,0,0.4,0,0.6,0.1l0-0.3c-0.2,0-0.4,0-0.6,0L844.2,246.9z"/>
    <path fill-rule="evenodd" clip-rule="evenodd" fill="#C25419" d="M847.9,349.1c-11.4-0.1-16.8,6.2-16.4,17.1h16.4V349.1z"/>
    <path fill-rule="evenodd" clip-rule="evenodd" fill="#F2C674" d="M561.7,221.4h5.6h5.7v5.5h-5.7v5.7h-5.6v-5.7V221.4z M859.8,221.4 h-5.6h-5.7v5.5h5.7v5.7h5.6v-5.7V221.4z"/>
    <path fill-rule="evenodd" clip-rule="evenodd" fill="#F2C674" d="M561.7,376.7h5.6h5.7v-5.6h-5.7v-5.7h-5.6v5.7V376.7z M859.8,376.7h-5.6h-5.7v-5.6h5.7v-5.7h5.6v5.7V376.7z"/>
    <path fill-rule="evenodd" clip-rule="evenodd" fill="#191919" d="M675.1,245.8c1.3,0,2.3,1.1,2.3,2.3c0,1.3-1,2.3-2.3,2.3 c-1.3,0-2.3-1-2.3-2.3C672.8,246.9,673.8,245.8,675.1,245.8L675.1,245.8z M688.7,245.8c1.3,0,2.3,1.1,2.3,2.3 c0,1.3-1.1,2.3-2.3,2.3c-1.3,0-2.3-1-2.3-2.3C686.4,246.9,687.5,245.8,688.7,245.8L688.7,245.8z"/>
    <path fill-rule="evenodd" clip-rule="evenodd" fill="#666666" d="M675.9,247.2h11.4c0.5,0,0.9,0.4,0.9,0.9l0,0 c0,0.5-0.4,0.9-0.9,0.9h-11.4c-0.5,0-0.9-0.4-0.9-0.9l0,0C674.9,247.6,675.4,247.2,675.9,247.2L675.9,247.2z"/>
    <path fill-rule="evenodd" clip-rule="evenodd" fill="#191919" d="M675.1,258.8c1.3,0,2.3,1,2.3,2.3c0,1.3-1,2.3-2.3,2.3 c-1.3,0-2.3-1-2.3-2.3C672.8,259.8,673.8,258.8,675.1,258.8L675.1,258.8z M688.7,258.8c1.3,0,2.3,1,2.3,2.3c0,1.3-1.1,2.3-2.3,2.3 c-1.3,0-2.3-1-2.3-2.3C686.4,259.8,687.5,258.8,688.7,258.8L688.7,258.8z"/>
    <path fill-rule="evenodd" clip-rule="evenodd" fill="#666666" d="M675.9,260.2h11.4c0.5,0,0.9,0.4,0.9,0.9l0,0 c0,0.5-0.4,0.9-0.9,0.9h-11.4c-0.5,0-0.9-0.4-0.9-0.9l0,0C674.9,260.6,675.4,260.2,675.9,260.2L675.9,260.2z"/>
    <path fill-rule="evenodd" clip-rule="evenodd" fill="#191919" d="M675.1,271.8c1.3,0,2.3,1,2.3,2.3c0,1.3-1,2.3-2.3,2.3 c-1.3,0-2.3-1-2.3-2.3C672.8,272.8,673.8,271.8,675.1,271.8L675.1,271.8z M688.7,271.8c1.3,0,2.3,1,2.3,2.3c0,1.3-1.1,2.3-2.3,2.3 c-1.3,0-2.3-1-2.3-2.3C686.4,272.8,687.5,271.8,688.7,271.8L688.7,271.8z"/>
    <path fill-rule="evenodd" clip-rule="evenodd" fill="#666666" d="M675.9,273.2h11.4c0.5,0,0.9,0.4,0.9,0.9l0,0 c0,0.5-0.4,0.9-0.9,0.9h-11.4c-0.5,0-0.9-0.4-0.9-0.9l0,0C674.9,273.6,675.4,273.2,675.9,273.2L675.9,273.2z"/>
    <path fill-rule="evenodd" clip-rule="evenodd" fill="#191919" d="M675.1,284.8c1.3,0,2.3,1,2.3,2.3c0,1.3-1,2.3-2.3,2.3 c-1.3,0-2.3-1-2.3-2.3C672.8,285.8,673.8,284.8,675.1,284.8L675.1,284.8z M688.7,284.8c1.3,0,2.3,1,2.3,2.3c0,1.3-1.1,2.3-2.3,2.3 c-1.3,0-2.3-1-2.3-2.3C686.4,285.8,687.5,284.8,688.7,284.8L688.7,284.8z"/>
    <path fill-rule="evenodd" clip-rule="evenodd" fill="#666666" d="M675.9,286.1h11.4c0.5,0,0.9,0.4,0.9,0.9l0,0 c0,0.5-0.4,0.9-0.9,0.9h-11.4c-0.5,0-0.9-0.4-0.9-0.9l0,0C674.9,286.5,675.4,286.1,675.9,286.1L675.9,286.1z"/>
    <path fill-rule="evenodd" clip-rule="evenodd" fill="#191919" d="M675.1,297.7c1.3,0,2.3,1,2.3,2.3c0,1.3-1,2.3-2.3,2.3 c-1.3,0-2.3-1-2.3-2.3C672.8,298.8,673.8,297.7,675.1,297.7L675.1,297.7z M688.7,297.7c1.3,0,2.3,1,2.3,2.3c0,1.3-1.1,2.3-2.3,2.3 c-1.3,0-2.3-1-2.3-2.3C686.4,298.8,687.5,297.7,688.7,297.7L688.7,297.7z"/>
    <path fill-rule="evenodd" clip-rule="evenodd" fill="#666666" d="M675.9,299.1h11.4c0.5,0,0.9,0.4,0.9,0.9l0,0 c0,0.5-0.4,0.9-0.9,0.9h-11.4c-0.5,0-0.9-0.4-0.9-0.9l0,0C674.9,299.5,675.4,299.1,675.9,299.1L675.9,299.1z"/>
    <path fill-rule="evenodd" clip-rule="evenodd" fill="#191919" d="M675.1,310.7c1.3,0,2.3,1.1,2.3,2.3c0,1.3-1,2.3-2.3,2.3 c-1.3,0-2.3-1-2.3-2.3C672.8,311.7,673.8,310.7,675.1,310.7L675.1,310.7z M688.7,310.7c1.3,0,2.3,1.1,2.3,2.3 c0,1.3-1.1,2.3-2.3,2.3c-1.3,0-2.3-1-2.3-2.3C686.4,311.7,687.5,310.7,688.7,310.7L688.7,310.7z"/>
    <path fill-rule="evenodd" clip-rule="evenodd" fill="#666666" d="M675.9,312.1h11.4c0.5,0,0.9,0.4,0.9,0.9l0,0 c0,0.5-0.4,0.9-0.9,0.9h-11.4c-0.5,0-0.9-0.4-0.9-0.9l0,0C674.9,312.5,675.4,312.1,675.9,312.1L675.9,312.1z"/>
    <path fill-rule="evenodd" clip-rule="evenodd" fill="#191919" d="M675.1,323.7c1.3,0,2.3,1,2.3,2.3c0,1.3-1,2.3-2.3,2.3 c-1.3,0-2.3-1-2.3-2.3C672.8,324.7,673.8,323.7,675.1,323.7L675.1,323.7z M688.7,323.7c1.3,0,2.3,1,2.3,2.3c0,1.3-1.1,2.3-2.3,2.3 c-1.3,0-2.3-1-2.3-2.3C686.4,324.7,687.5,323.7,688.7,323.7L688.7,323.7z"/>
    <path fill-rule="evenodd" clip-rule="evenodd" fill="#666666" d="M675.9,325h11.4c0.5,0,0.9,0.4,0.9,0.9l0,0c0,0.5-0.4,0.9-0.9,0.9 h-11.4c-0.5,0-0.9-0.4-0.9-0.9l0,0C674.9,325.5,675.4,325,675.9,325L675.9,325z"/>
    <path fill-rule="evenodd" clip-rule="evenodd" fill="#191919" d="M675.1,336.7c1.3,0,2.3,1,2.3,2.3c0,1.3-1,2.3-2.3,2.3 c-1.3,0-2.3-1-2.3-2.3C672.8,337.7,673.8,336.7,675.1,336.7L675.1,336.7z M688.7,336.7c1.3,0,2.3,1,2.3,2.3c0,1.3-1.1,2.3-2.3,2.3 c-1.3,0-2.3-1-2.3-2.3C686.4,337.7,687.5,336.7,688.7,336.7L688.7,336.7z"/>
    <path fill-rule="evenodd" clip-rule="evenodd" fill="#666666" d="M675.9,338h11.4c0.5,0,0.9,0.4,0.9,0.9l0,0c0,0.5-0.4,0.9-0.9,0.9 h-11.4c-0.5,0-0.9-0.5-0.9-0.9l0,0C674.9,338.4,675.4,338,675.9,338L675.9,338z"/>
    <path fill-rule="evenodd" clip-rule="evenodd" fill="#191919" d="M675.1,349.6c1.3,0,2.3,1.1,2.3,2.3c0,1.3-1,2.3-2.3,2.3 c-1.3,0-2.3-1-2.3-2.3C672.8,350.7,673.8,349.6,675.1,349.6L675.1,349.6z M688.7,349.6c1.3,0,2.3,1.1,2.3,2.3 c0,1.3-1.1,2.3-2.3,2.3c-1.3,0-2.3-1-2.3-2.3C686.4,350.7,687.5,349.6,688.7,349.6L688.7,349.6z"/>
    <path fill-rule="evenodd" clip-rule="evenodd" fill="#666666" d="M675.9,351h11.4c0.5,0,0.9,0.4,0.9,0.9l0,0c0,0.5-0.4,0.9-0.9,0.9 h-11.4c-0.5,0-0.9-0.4-0.9-0.9l0,0C674.9,351.4,675.4,351,675.9,351L675.9,351z"/>
    <path fill-rule="evenodd" clip-rule="evenodd" fill="#D16023" d="M682.2,365.3c5.6,0,10.5,2.8,12.5,6.9h-25 C671.8,368.1,676.6,365.3,682.2,365.3L682.2,365.3z"/>
    <path fill-rule="evenodd" clip-rule="evenodd" fill="#D16023" d="M682.2,232.3c5.6,0,10.5-2.8,12.5-6.9h-25 C671.8,229.5,676.6,232.3,682.2,232.3L682.2,232.3z"/>
    <path fill="#FFFFFF" d="M845.8,351.5v0.7h-0.3v-0.4c-0.1,0-0.3,0-0.4,0v-0.3C845.4,351.5,845.6,351.5,845.8,351.5L845.8,351.5z M845.8,352.4h-0.3v0.6h0.3V352.4z M845.8,353.4h-0.3v0.6h0.3V353.4z M845.8,354.2h-0.3v0.6h0.3V354.2z M845.8,355.1h-0.3v0.6h0.3 V355.1z M845.8,356h-0.3v0.6h0.3V356z M845.8,356.9h-0.3v0.6h0.3V356.9z M845.8,357.8h-0.3v0.6h0.3V357.8z M845.8,358.6h-0.3v0.6 h0.3V358.6z M845.8,359.5h-0.3v0.6h0.3V359.5z M845.8,360.4h-0.3v0.6h0.3V360.4z M845.8,361.3h-0.3v0.6h0.3V361.3z M845.8,362.1 h-0.3v0.6h0.3V362.1z M845.8,363.1h-0.3v0.6h0.3V363.1z M845.6,364v-0.3H845v0.3H845.6z M844.7,364v-0.3h-0.6v0.3H844.7z M843.9,364v-0.3h-0.6v0.3H843.9z M843,364v-0.3h-0.6v0.3H843z M842.1,364v-0.3h-0.6v0.3H842.1z M841.2,364v-0.3h-0.6v0.3H841.2z M840.3,364v-0.3h-0.6v0.3H840.3z M839.4,364v-0.3h-0.6v0.3H839.4z M838.6,364v-0.3H838v0.3H838.6z M837.7,364v-0.3h-0.6v0.3H837.7 z M836.8,364v-0.3h-0.6v0.3H836.8z M835.9,364v-0.3h-0.6v0.3H835.9z M835,364v-0.3h-0.6v0.3H835z M834.1,364h-0.3 c0-0.1,0-0.3,0-0.6h0.3V364z M833.8,363.1c0-0.2,0-0.4,0-0.6h0.3c0,0.2,0,0.4,0,0.6H833.8z M833.9,362.2c0-0.2,0-0.4,0.1-0.6l0.3,0 c0,0.2,0,0.4-0.1,0.6L833.9,362.2z M834,361.3c0-0.2,0.1-0.4,0.1-0.6l0.3,0.1c0,0.2-0.1,0.4-0.1,0.6L834,361.3z M834.2,360.5 c0-0.1,0.1-0.5,0.2-0.6l0.3,0.1c0,0.1-0.1,0.4-0.2,0.6L834.2,360.5z M834.4,359.6c0.1-0.2,0.1-0.4,0.2-0.6l0.3,0.1 c-0.1,0.2-0.1,0.4-0.2,0.6L834.4,359.6z M834.7,358.7c0.1-0.2,0.1-0.3,0.2-0.5l0.2,0.1c-0.1,0.2-0.1,0.3-0.2,0.6L834.7,358.7z M835.1,357.9c0.1-0.2,0.2-0.4,0.3-0.5l0.3,0.1c-0.1,0.2-0.2,0.3-0.3,0.5L835.1,357.9z M835.5,357.2c0.1-0.2,0.2-0.3,0.3-0.5 l0.2,0.2c-0.1,0.2-0.2,0.3-0.3,0.5L835.5,357.2z M836,356.4c0.1-0.1,0.2-0.3,0.4-0.5l0.2,0.2c-0.1,0.1-0.2,0.3-0.3,0.5L836,356.4z M836.5,355.7c0.1-0.1,0.3-0.3,0.4-0.5l0.2,0.2c-0.1,0.1-0.3,0.3-0.4,0.5L836.5,355.7z M837.1,355c0.1-0.1,0.3-0.3,0.5-0.4l0.2,0.2 c-0.1,0.1-0.3,0.2-0.4,0.4L837.1,355z M837.8,354.4c0.1-0.1,0.3-0.3,0.5-0.4l0.2,0.2c-0.1,0.1-0.3,0.2-0.5,0.4L837.8,354.4z M838.5,353.9c0.1-0.1,0.3-0.2,0.5-0.3l0.2,0.2c-0.2,0.1-0.3,0.2-0.5,0.3L838.5,353.9z M839.2,353.4c0.2-0.1,0.3-0.2,0.5-0.3 l0.1,0.2c-0.2,0.1-0.3,0.2-0.5,0.3L839.2,353.4z M840,352.9c0.2-0.1,0.4-0.2,0.6-0.3l0.1,0.3c-0.2,0.1-0.3,0.2-0.5,0.2L840,352.9z M840.8,352.5c0.2-0.1,0.4-0.2,0.6-0.2l0.1,0.3c-0.2,0.1-0.3,0.1-0.5,0.2L840.8,352.5z M841.6,352.2c0.2-0.1,0.4-0.1,0.6-0.2 l0.1,0.3c-0.2,0-0.3,0.1-0.5,0.2L841.6,352.2z M842.5,351.9c0.2,0,0.4-0.1,0.6-0.1l0,0.3c-0.1,0-0.4,0.1-0.6,0.1L842.5,351.9z M843.3,351.7c0.2,0,0.4-0.1,0.6-0.1l0,0.3c-0.2,0-0.4,0.1-0.6,0.1L843.3,351.7z M844.2,351.6c0.2,0,0.4,0,0.6-0.1l0,0.3 c-0.2,0-0.4,0-0.6,0L844.2,351.6z"/>
  </g>
</svg>