<?xml version="1.0" encoding="utf-8"?>
<svg viewBox="717.076 227.6 321.519 430.6" xmlns="http://www.w3.org/2000/svg">
  <g transform="matrix(1, 0, 0, 1, -279.565216, -241.799988)">
    <path fill="#CADE74" d="M1157.5,510c-72,0-130.6,77.1-130.6,172c0,0.9,0,1.8,0.1,2.7c0,0.9-0.1,1.8-0.1,2.7 c0,94.8,58.6,172,130.6,172c72,0,130.6-77.1,130.6-172c0-0.9,0-1.8-0.1-2.7c0-0.9,0.1-1.8,0.1-2.7 C1288.1,587.2,1229.5,510,1157.5,510z M1157.5,848.6c-66.5,0-120.5-73.4-120.5-163.9s53.9-163.9,120.5-163.9 S1278,594.2,1278,684.7S1224,848.6,1157.5,848.6z"/>
    <path fill="#CADE74" d="M1299.3,635c0,0,11.6-27.8-1.8-55.3c-13.4-27.5-36.9-32.9-36.9-32.9s5.4-25.3-17-43.7 c-22.4-18.4-48.1-5.4-48.1-5.4s-3.5-23.4-38.1-28.3c-34.6,4.9-38.1,28.3-38.1,28.3s-25.7-13-48.1,5.4c-22.4,18.4-17,43.7-17,43.7 s-23.5,5.4-36.9,32.9c-13.4,27.5-1.8,55.3-1.8,55.3c-24.2,17.7-18.2,49.7-18.2,49.7s-6,32,18.2,49.7c0,0-11.6,27.8,1.8,55.3 c13.4,27.5,36.9,32.9,36.9,32.9s-5.4,25.3,17,43.7c22.4,18.4,48.1,5.4,48.1,5.4s3.5,23.4,38.1,28.3c34.6-4.9,38.1-28.3,38.1-28.3 s25.7,13,48.1-5.4s17-43.7,17-43.7s23.5-5.4,36.9-32.9c13.4-27.5,1.8-55.3,1.8-55.3c24.2-17.7,18.2-49.7,18.2-49.7 S1323.5,652.7,1299.3,635z M1293.9,687.4c0,98-61.2,177.7-136.4,177.7s-136.4-79.7-136.4-177.7c0-0.9,0-1.8,0.1-2.7 c0-0.9-0.1-1.8-0.1-2.7c0-98,61.2-177.7,136.4-177.7S1293.9,584,1293.9,682c0,0.9,0,1.8-0.1,2.7 C1293.8,685.6,1293.9,686.5,1293.9,687.4z"/>
  </g>
</svg>