<?xml version="1.0" encoding="utf-8"?>
<svg viewBox="-3507.94 864.416 164.239 249.097" xmlns="http://www.w3.org/2000/svg">
  <g transform="matrix(1, 0, 0, 1, -4014.700439, 349.613495)">
    <path fill-rule="evenodd" clip-rule="evenodd" fill="#B5BABF" d="M643.9,719.3L520,688.5l-2.8-163.7l126.7,16.4 C643.8,554.4,643.8,719.4,643.9,719.3L643.9,719.3z"/>
    <polygon fill-rule="evenodd" clip-rule="evenodd" fill="#E5E5E5" points="517.1,524.8 614.9,553.2 614.9,740.4 520,691.3 &#9;"/>
    <polygon fill-rule="evenodd" clip-rule="evenodd" fill="#F2FFFE" points="650.3,710.8 650.1,710.8 647.8,716.1 643.9,719.3 &#10;&#9;&#9;643.8,541.3 650.3,541.6 &#9;"/>
    <polygon fill-rule="evenodd" clip-rule="evenodd" fill="#F2FFFE" points="659.3,538.3 658.4,704.2 662.7,703.3 662.7,533.6 &#9;"/>
    <polygon fill-rule="evenodd" clip-rule="evenodd" fill="#999FA6" points="650.3,541.8 653.6,537.2 659.3,538.3 658.4,704.2 &#10;&#9;&#9;655.3,710 650.1,710.8 &#9;"/>
    <polygon fill-rule="evenodd" clip-rule="evenodd" fill="#E4F5F4" points="520.1,523.9 528.5,522.7 662.7,533.6 659.3,538.3 &#10;&#9;&#9;653.6,537.2 &#9;"/>
    <polygon fill-rule="evenodd" clip-rule="evenodd" fill="#CDDBDE" points="650.4,541.6 653.6,537.2 521.4,524 517.1,524.8 &#10;&#9;&#9;643.8,541.3 &#9;"/>
    <path fill-rule="evenodd" clip-rule="evenodd" fill="#DE9B00" d="M662.7,703.3h8.1L671,529c0,0-141.9-8.4-144.5-8.4 s-8.1,0-11.9,1.7c-2,0.9-2.8,2.2-2.9,3.3c-0.1,0.8,0,1.4,0,1.4l5.4,2.1l-0.1-4.3l11.6-2.1l134,10.8V703.3z"/>
    <path fill-rule="evenodd" clip-rule="evenodd" fill="#FFBF00" d="M511.7,525.8c1.2,2,4,2.6,5.4,3.3l79.4,31.1v17.4v186.3 l-84.7-69.2L511.7,525.8z"/>
    <path fill-rule="evenodd" clip-rule="evenodd" fill="#103670" d="M600.2,583.2c2.9,0.3,5.2,1.6,5.2,2.9c0,1.3-2.3,2-5.2,1.7 c-2.9-0.3-5.2-1.6-5.2-2.9C595,583.6,597.3,582.9,600.2,583.2L600.2,583.2z"/>
    <path fill-rule="evenodd" clip-rule="evenodd" fill="#F0A800" d="M590.5,663.7v85.5l-31.7-25.8 C560.9,702.2,570.2,674.1,590.5,663.7L590.5,663.7z"/>
    <path fill-rule="evenodd" clip-rule="evenodd" fill="#E4F5F7" d="M517.1,524.1v-1.9c0,0-2.1-0.5-2.9-1.2c-0.8-0.7-1.1-4,0.9-5 c2-1,11.4-1.4,12.9-1.1c1.6,0.3,1.8,4,1.3,4.7c-0.5,0.7-1.1,0.8-1.1,0.8v1.8L517.1,524.1z"/>
    <polygon fill-rule="evenodd" clip-rule="evenodd" fill="#FF6600" points="614.9,613.2 631.1,617.9 631.1,645.4 614.9,640.7 &#9;"/>
    <polygon fill-rule="evenodd" clip-rule="evenodd" fill="#FBFF7A" points="614.9,589.6 631.1,594.4 631.1,621.9 614.9,617.2 &#9;"/>
    <polygon fill-rule="evenodd" clip-rule="evenodd" fill="#6699FF" points="614.9,566.2 631.1,570.9 631.1,598.4 614.9,593.7 &#9;"/>
    <path fill="#FFFFFF" d="M624.5,585.4l-3-0.9l-0.4,1.3l-2.7-0.8l3.2-7.5l2.9,0.9l3.2,9.5l-2.8-0.9L624.5,585.4z M623.9,583.4 L623,580l-0.9,2.8L623.9,583.4z"/>
    <path fill="#FFFFFF" d="M619.5,602.2l4.9,1.5c0.8,0.2,1.5,0.6,1.9,1.2c0.5,0.5,0.7,1.1,0.7,1.7c0,0.5-0.1,0.9-0.5,1.2 c-0.2,0.2-0.5,0.2-0.9,0.3c0.6,0.3,1.1,0.7,1.4,1.2c0.3,0.5,0.4,0.9,0.4,1.5c0,0.4-0.1,0.8-0.3,1.1c-0.2,0.3-0.5,0.5-0.8,0.6 c-0.2,0.1-0.6,0.1-1,0c-0.6-0.1-1-0.2-1.2-0.2l-4.5-1.4V602.2z M622.1,606.4l1.2,0.3c0.4,0.1,0.7,0.1,0.9,0 c0.1-0.1,0.2-0.2,0.2-0.5c0-0.2-0.1-0.5-0.2-0.7c-0.2-0.2-0.5-0.3-0.8-0.5l-1.2-0.4V606.4z M622.1,609.7l1.4,0.4 c0.5,0.1,0.8,0.2,0.9,0.1c0.2-0.1,0.3-0.3,0.3-0.6c0-0.2-0.1-0.5-0.3-0.7c-0.2-0.2-0.5-0.4-0.9-0.5l-1.4-0.4V609.7z"/>
    <path fill="#FFFFFF" d="M625.1,633.1l2.3,1.4c-0.2,0.6-0.4,1-0.7,1.4c-0.4,0.4-0.7,0.5-1.3,0.6c-0.5,0.1-1.1,0-1.9-0.2 c-0.9-0.3-1.7-0.7-2.3-1.1c-0.6-0.5-1.1-1.1-1.5-1.9c-0.4-0.8-0.6-1.8-0.6-2.8c0-1.4,0.4-2.4,1.1-2.9c0.8-0.5,1.8-0.6,3.2-0.1 c1.1,0.3,1.9,0.8,2.5,1.4c0.6,0.6,1.1,1.4,1.4,2.5l-2.3-0.2c-0.1-0.3-0.2-0.5-0.2-0.7c-0.1-0.2-0.4-0.5-0.6-0.6 c-0.2-0.2-0.5-0.3-0.7-0.4c-0.6-0.2-1.1-0.1-1.4,0.3c-0.2,0.3-0.4,0.8-0.4,1.6c0,0.9,0.1,1.6,0.4,2.1c0.3,0.5,0.7,0.8,1.2,0.9 c0.5,0.2,0.9,0.1,1.2-0.1C624.8,634,625,633.6,625.1,633.1L625.1,633.1z"/>
    <path fill-rule="evenodd" clip-rule="evenodd" fill="#F0A800" d="M549.2,562.6l38.3,17.1v14.1l-38.3-17.1V562.6z M554.4,576.1v-8.2 l0.2,0.1l5.5,8.7v-6.3l0.8,0.4v8.2l-0.2-0.1l-5.4-8.6v6.2L554.4,576.1z M566.7,573.2c1.3,0.5,2.3,1.4,3.1,2.6s1.3,2.4,1.3,3.6 s-0.4,2-1.3,2.5c-0.8,0.5-1.8,0.5-3-0.1c-1.2-0.5-2.2-1.4-3.1-2.6c-0.8-1.2-1.2-2.4-1.2-3.6c0-0.8,0.2-1.4,0.6-1.9 c0.4-0.5,0.9-0.8,1.5-0.9C565.3,572.7,566,572.9,566.7,573.2L566.7,573.2z M566.8,574c-0.6-0.3-1.2-0.4-1.8-0.3 c-0.5,0.1-0.9,0.3-1.3,0.7c-0.3,0.4-0.5,0.9-0.5,1.6c0,1,0.4,2,1,2.9c0.7,1,1.5,1.7,2.4,2.1c0.6,0.3,1.2,0.4,1.8,0.3 c0.5,0,0.9-0.3,1.3-0.7c0.3-0.4,0.5-0.9,0.5-1.6c0-0.6-0.1-1.3-0.5-2c-0.3-0.7-0.7-1.3-1.3-1.8C568,574.7,567.4,574.3,566.8,574 L566.8,574z M572,576.5v-0.8l4.5,2v0.8l-1.8-0.8v7.4l-0.8-0.4v-7.4L572,576.5z M577.6,578.3l4.7,2.1v0.8l-3.9-1.7v2.6l3.9,1.7v0.8 l-3.9-1.7v3.2l3.9,1.7v0.8l-4.7-2.1V578.3z"/>
    <path fill="#FFFFFF" d="M548.3,560.8v0.2l-0.2-0.1v0.1l-0.2-0.1v-0.2L548.3,560.8z M547.8,561l0.2,0.1v0.4l-0.2-0.1V561z M547.8,561.6l0.2,0.1v0.3l-0.2-0.1V561.6z M547.8,562.1l0.2,0.1v0.3l-0.2-0.1V562.1z M547.8,562.6l0.2,0.1v0.4l-0.2-0.1V562.6z M547.8,563.1l0.2,0.1v0.3l-0.2-0.1V563.1z M547.8,563.6l0.2,0.1v0.3l-0.2-0.1V563.6z M547.8,564.1l0.2,0.1v0.3l-0.2-0.1V564.1z M547.8,564.6l0.2,0.1v0.3l-0.2-0.1V564.6z M547.8,565.1l0.2,0.1v0.3l-0.2-0.1V565.1z M547.8,565.6l0.2,0.1v0.3l-0.2-0.1V565.6z M547.8,566.1l0.2,0.1v0.3l-0.2-0.1V566.1z M547.8,566.6l0.2,0.1v0.3l-0.2-0.1V566.6z M547.8,567.2l0.2,0.1v0.3l-0.2-0.1V567.2z M547.8,567.7l0.2,0.1v0.4l-0.2-0.1V567.7z M547.8,568.2l0.2,0.1v0.3l-0.2-0.1V568.2z M547.8,568.7l0.2,0.1v0.3l-0.2-0.1V568.7z M547.8,569.2l0.2,0.1v0.4l-0.2-0.1V569.2z M547.8,569.7l0.2,0.1v0.3l-0.2-0.1V569.7z M547.8,570.2l0.2,0.1v0.3l-0.2-0.1V570.2z M547.8,570.7l0.2,0.1v0.3l-0.2-0.1V570.7z M547.8,571.2l0.2,0.1v0.4l-0.2-0.1V571.2z M547.8,571.7l0.2,0.1v0.3l-0.2-0.1V571.7z M547.8,572.2l0.2,0.1v0.3l-0.2-0.1V572.2z M547.8,572.7l0.2,0.1v0.3l-0.2-0.1V572.7z M547.8,573.3l0.2,0.1v0.3l-0.2-0.1V573.3z M547.8,573.8l0.2,0.1v0.3l-0.2-0.1V573.8z M547.8,574.3l0.2,0.1v0.4l-0.2-0.1V574.3z M547.8,574.8l0.2,0.1v0.3l-0.2-0.1V574.8z M547.8,575.3l0.2,0.1v0.3l-0.2-0.1V575.3z M547.8,575.8l0.2,0.1v0.4l-0.2-0.1V575.8z M547.8,576.3l0.2,0.1v0.4l-0.2-0.1V576.3z M547.8,576.8l0.2,0.1v0.4l-0.2-0.1V576.8z M547.8,577.3l0.4,0.1v0.2l-0.4-0.2V577.3z M548.4,577.7v-0.2l0.4,0.2v0.2L548.4,577.7z M548.9,577.9v-0.2l0.3,0.1v0.2L548.9,577.9z M549.4,578.2V578l0.4,0.2v0.2L549.4,578.2z M549.9,578.4v-0.2l0.3,0.1v0.2 L549.9,578.4z M550.4,578.6v-0.2l0.4,0.2v0.2L550.4,578.6z M550.9,578.9v-0.2l0.4,0.1v0.2L550.9,578.9z M551.4,579.1v-0.2l0.3,0.2 v0.2L551.4,579.1z M551.9,579.3v-0.2l0.4,0.1v0.2L551.9,579.3z M552.4,579.5v-0.2l0.4,0.2v0.2L552.4,579.5z M553,579.8v-0.2 l0.4,0.1v0.2L553,579.8z M553.5,580v-0.2l0.3,0.2v0.2L553.5,580z M554,580.2V580l0.4,0.1v0.2L554,580.2z M554.5,580.4v-0.2l0.3,0.2 v0.2L554.5,580.4z M555,580.7v-0.2l0.3,0.1v0.2L555,580.7z M555.5,580.9v-0.2l0.3,0.2v0.2L555.5,580.9z M556,581.1V581l0.3,0.1v0.2 L556,581.1z M556.5,581.3v-0.2l0.3,0.2v0.2L556.5,581.3z M557,581.6v-0.2l0.4,0.1v0.2L557,581.6z M557.5,581.8v-0.2l0.3,0.2v0.2 L557.5,581.8z M558,582v-0.2l0.4,0.1v0.2L558,582z M558.6,582.2v-0.2l0.3,0.2v0.2L558.6,582.2z M559,582.5v-0.2l0.4,0.1v0.2 L559,582.5z M559.6,582.7v-0.2l0.4,0.2v0.2L559.6,582.7z M560.1,582.9v-0.2l0.3,0.1v0.2L560.1,582.9z M560.6,583.2V583l0.4,0.2v0.2 L560.6,583.2z M561.1,583.4v-0.2l0.3,0.1v0.2L561.1,583.4z M561.6,583.6v-0.2l0.4,0.2v0.2L561.6,583.6z M562.1,583.9v-0.2l0.3,0.1 v0.2L562.1,583.9z M562.6,584.1v-0.2l0.4,0.2v0.2L562.6,584.1z M563.1,584.3v-0.2l0.3,0.1v0.2L563.1,584.3z M563.6,584.5v-0.2 l0.4,0.2v0.2L563.6,584.5z M564.2,584.8v-0.2l0.3,0.1v0.2L564.2,584.8z M564.6,585v-0.2l0.3,0.2v0.2L564.6,585z M565.2,585.2V585 l0.3,0.1v0.2L565.2,585.2z M565.7,585.4v-0.2l0.3,0.2v0.2L565.7,585.4z M566.2,585.7v-0.2l0.4,0.1v0.2L566.2,585.7z M566.7,585.9 v-0.2l0.4,0.2v0.2L566.7,585.9z M567.2,586.1V586l0.3,0.1v0.2L567.2,586.1z M567.7,586.3v-0.2l0.4,0.2v0.2L567.7,586.3z M568.2,586.6v-0.2l0.4,0.1v0.2L568.2,586.6z M568.7,586.8v-0.2l0.3,0.2v0.2L568.7,586.8z M569.2,587v-0.2l0.4,0.1v0.2L569.2,587z M569.8,587.3v-0.2l0.3,0.2v0.2L569.8,587.3z M570.2,587.5v-0.2l0.4,0.1v0.2L570.2,587.5z M570.8,587.7v-0.2l0.3,0.2v0.2 L570.8,587.7z M571.3,588v-0.2l0.3,0.1v0.2L571.3,588z M571.8,588.2V588l0.3,0.2v0.2L571.8,588.2z M572.3,588.4v-0.2l0.3,0.1v0.2 L572.3,588.4z M572.8,588.6v-0.2l0.3,0.2v0.2L572.8,588.6z M573.3,588.9v-0.2l0.4,0.1v0.2L573.3,588.9z M573.8,589.1v-0.2l0.3,0.2 v0.2L573.8,589.1z M574.3,589.3v-0.2l0.3,0.1v0.2L574.3,589.3z M574.8,589.5v-0.2l0.3,0.2v0.1L574.8,589.5z M575.3,589.8v-0.2 l0.3,0.1v0.2L575.3,589.8z M575.8,590v-0.2l0.4,0.2v0.1L575.8,590z M576.4,590.2v-0.2l0.3,0.1v0.2L576.4,590.2z M576.9,590.4v-0.2 l0.3,0.2v0.1L576.9,590.4z M577.4,590.7v-0.2l0.3,0.1v0.2L577.4,590.7z M577.9,590.9v-0.2l0.4,0.2v0.1L577.9,590.9z M578.4,591.1 V591l0.3,0.1v0.2L578.4,591.1z M578.9,591.3v-0.2l0.3,0.2v0.1L578.9,591.3z M579.4,591.6v-0.2l0.3,0.1v0.2L579.4,591.6z M579.9,591.8v-0.2l0.4,0.2v0.1L579.9,591.8z M580.4,592v-0.2l0.3,0.1v0.2L580.4,592z M580.9,592.3v-0.2l0.3,0.2v0.1L580.9,592.3z M581.4,592.5v-0.2l0.4,0.1v0.2L581.4,592.5z M581.9,592.7v-0.2l0.4,0.2v0.1L581.9,592.7z M582.5,593v-0.2l0.4,0.1v0.2L582.5,593z M582.9,593.2V593l0.3,0.2v0.1L582.9,593.2z M583.5,593.4v-0.2l0.3,0.1v0.2L583.5,593.4z M584,593.6v-0.2l0.3,0.2v0.1L584,593.6z M584.5,593.9v-0.2l0.4,0.1v0.2L584.5,593.9z M585,594.1v-0.2l0.3,0.2v0.1L585,594.1z M585.5,594.3v-0.2l0.3,0.1v0.2L585.5,594.3z M586,594.5v-0.2l0.3,0.2v0.1L586,594.5z M586.5,594.8v-0.2l0.4,0.1v0.2L586.5,594.8z M587,595v-0.2l0.3,0.2v0.1L587,595z M587.5,595.2v-0.2l0.4,0.1v0.2L587.5,595.2z M588.1,595.4v-0.2l0.3,0.2v0.1L588.1,595.4z M588.5,595.7v-0.2c0.1,0,0.2,0.1,0.4,0.1 v0.2L588.5,595.7z M588.9,595.5l-0.2-0.1v-0.3l0.2,0.1V595.5z M588.9,595l-0.2-0.1v-0.3l0.2,0.1V595z M588.9,594.5l-0.2-0.1V594 l0.2,0.1V594.5z M588.9,594l-0.2-0.1v-0.3l0.2,0.1V594z M588.9,593.4l-0.2-0.1V593l0.2,0.1V593.4z M588.9,593l-0.2-0.1v-0.4 l0.2,0.1V593z M588.9,592.4l-0.2-0.1V592l0.2,0.1V592.4z M588.9,591.9l-0.2-0.1v-0.3l0.2,0.1V591.9z M588.9,591.4l-0.2-0.1V591 l0.2,0.1V591.4z M588.9,590.9l-0.2-0.1v-0.3l0.2,0.1V590.9z M588.9,590.4l-0.2-0.1V590l0.2,0.1V590.4z M588.9,589.9l-0.2-0.1v-0.3 l0.2,0.1V589.9z M588.9,589.4l-0.2-0.1V589l0.2,0.1V589.4z M588.9,588.9l-0.2-0.1v-0.3l0.2,0.1V588.9z M588.9,588.4l-0.2-0.1V588 l0.2,0.1V588.4z M588.9,587.8l-0.2-0.1v-0.3l0.2,0.1V587.8z M588.9,587.4l-0.2-0.1v-0.3l0.2,0.1V587.4z M588.9,586.8l-0.2-0.1v-0.3 l0.2,0.1V586.8z M588.9,586.3l-0.2-0.1v-0.4l0.2,0.1V586.3z M588.9,585.8l-0.2-0.1v-0.3l0.2,0.1V585.8z M588.9,585.3l-0.2-0.1v-0.4 l0.2,0.1V585.3z M588.9,584.8l-0.2-0.1v-0.3l0.2,0.1V584.8z M588.9,584.3l-0.2-0.1v-0.3l0.2,0.1V584.3z M588.9,583.8l-0.2-0.1v-0.3 l0.2,0.1V583.8z M588.9,583.3l-0.2-0.1v-0.3l0.2,0.1V583.3z M588.9,582.8l-0.2-0.1v-0.4l0.2,0.1V582.8z M588.9,582.3l-0.2-0.1v-0.3 l0.2,0.1V582.3z M588.9,581.8l-0.2-0.1v-0.3l0.2,0.1V581.8z M588.9,581.2l-0.2-0.1v-0.3l0.2,0.1V581.2z M588.9,580.7l-0.2-0.1v-0.3 l0.2,0.1V580.7z M588.9,580.2l-0.2-0.1v-0.3l0.2,0.1V580.2z M588.9,579.7l-0.2-0.1v-0.3l0.2,0.1V579.7z M588.9,579.2l-0.2-0.1v-0.1 l-0.1,0v-0.2l0.3,0.1V579.2z M588.4,578.8v0.2l-0.3-0.1v-0.2L588.4,578.8z M588,578.6v0.1l-0.4-0.1v-0.2L588,578.6z M587.4,578.3 v0.2l-0.4-0.1v-0.2L587.4,578.3z M586.9,578.1v0.1l-0.4-0.1v-0.2L586.9,578.1z M586.4,577.9v0.2l-0.3-0.1v-0.2L586.4,577.9z M585.9,577.7v0.1l-0.3-0.1v-0.2L585.9,577.7z M585.4,577.4v0.2l-0.4-0.1v-0.2L585.4,577.4z M584.9,577.2v0.1l-0.4-0.1V577 L584.9,577.2z M584.4,577v0.2L584,577v-0.2L584.4,577z M583.9,576.8v0.1l-0.3-0.1v-0.2L583.9,576.8z M583.4,576.5v0.2l-0.4-0.1 v-0.2L583.4,576.5z M582.8,576.3v0.1l-0.3-0.1v-0.2L582.8,576.3z M582.4,576.1v0.2l-0.4-0.1v-0.2L582.4,576.1z M581.8,575.8v0.1 l-0.3-0.1v-0.2L581.8,575.8z M581.3,575.6v0.2l-0.4-0.1v-0.2L581.3,575.6z M580.8,575.4v0.1l-0.3-0.1v-0.2L580.8,575.4z M580.3,575.1v0.2l-0.4-0.1V575L580.3,575.1z M579.8,574.9v0.1l-0.4-0.1v-0.2L579.8,574.9z M579.3,574.7v0.2l-0.3-0.1v-0.2 L579.3,574.7z M578.8,574.5v0.1l-0.4-0.1v-0.2L578.8,574.5z M578.3,574.2v0.2l-0.4-0.1v-0.2L578.3,574.2z M577.8,574v0.1l-0.3-0.1 v-0.2L577.8,574z M577.3,573.8v0.2l-0.4-0.1v-0.2L577.3,573.8z M576.8,573.6v0.1l-0.4-0.1v-0.2L576.8,573.6z M576.2,573.3v0.2 l-0.3-0.1v-0.2L576.2,573.3z M575.7,573.1v0.1l-0.4-0.1v-0.2L575.7,573.1z M575.2,572.9v0.2l-0.3-0.1v-0.2L575.2,572.9z M574.7,572.7v0.1l-0.3-0.1v-0.2L574.7,572.7z M574.2,572.4v0.2l-0.3-0.1v-0.2L574.2,572.4z M573.7,572.2v0.1l-0.4-0.1V572 L573.7,572.2z M573.2,572v0.2l-0.3-0.1v-0.2L573.2,572z M572.7,571.7v0.1l-0.4-0.1v-0.2L572.7,571.7z M572.2,571.5v0.2l-0.3-0.1 v-0.2L572.2,571.5z M571.7,571.3v0.1l-0.4-0.1v-0.2L571.7,571.3z M571.2,571v0.2l-0.3-0.1v-0.2L571.2,571z M570.7,570.8v0.1 l-0.3-0.1v-0.2L570.7,570.8z M570.1,570.6v0.2l-0.3-0.1v-0.2L570.1,570.6z M569.6,570.4v0.1l-0.4-0.1v-0.2L569.6,570.4z M569.1,570.1v0.2l-0.4-0.1V570L569.1,570.1z M568.6,569.9v0.1l-0.3-0.1v-0.2L568.6,569.9z M568.1,569.7v0.2l-0.4-0.1v-0.2 L568.1,569.7z M567.6,569.5v0.1l-0.3-0.1v-0.2L567.6,569.5z M567.1,569.2v0.2l-0.3-0.1v-0.2L567.1,569.2z M566.6,569v0.1l-0.3-0.1 v-0.2L566.6,569z M566.1,568.8v0.2l-0.3-0.1v-0.2L566.1,568.8z M565.6,568.6v0.1l-0.3-0.1v-0.2L565.6,568.6z M565.1,568.3v0.2 l-0.3-0.1v-0.2L565.1,568.3z M564.5,568.1v0.1l-0.4-0.1v-0.2L564.5,568.1z M564,567.9v0.2l-0.4-0.1v-0.2L564,567.9z M563.5,567.7 v0.1l-0.4-0.1v-0.2L563.5,567.7z M563,567.4v0.2l-0.4-0.1v-0.2L563,567.4z M562.5,567.2v0.1l-0.4-0.1V567L562.5,567.2z M562,567 v0.2l-0.4-0.1v-0.2L562,567z M561.5,566.7v0.1l-0.4-0.1v-0.2L561.5,566.7z M561,566.5v0.2l-0.3-0.1v-0.2L561,566.5z M560.5,566.3 v0.1l-0.4-0.1v-0.2L560.5,566.3z M560,566v0.2l-0.3-0.1v-0.2L560,566z M559.5,565.8v0.1l-0.3-0.1v-0.2L559.5,565.8z M558.9,565.6 v0.2l-0.3-0.1v-0.2L558.9,565.6z M558.4,565.4v0.1l-0.4-0.1v-0.2L558.4,565.4z M557.9,565.1v0.2l-0.3-0.1V565L557.9,565.1z M557.4,564.9v0.1l-0.4-0.1v-0.2L557.4,564.9z M556.9,564.7v0.2l-0.4-0.1v-0.2L556.9,564.7z M556.4,564.5v0.1l-0.4-0.1v-0.2 L556.4,564.5z M555.9,564.2v0.2l-0.3-0.1v-0.2L555.9,564.2z M555.4,564v0.1l-0.4-0.1v-0.2L555.4,564z M554.9,563.8v0.2l-0.4-0.1 v-0.2L554.9,563.8z M554.4,563.6v0.1l-0.3-0.1v-0.2L554.4,563.6z M553.9,563.3v0.2l-0.4-0.1v-0.2L553.9,563.3z M553.3,563.1v0.1 l-0.3-0.1v-0.2L553.3,563.1z M552.8,562.9v0.2l-0.4-0.1v-0.2L552.8,562.9z M552.3,562.6v0.1l-0.3-0.1v-0.2L552.3,562.6z M551.8,562.4v0.2l-0.3-0.1v-0.2L551.8,562.4z M551.3,562.2v0.2l-0.3-0.2V562L551.3,562.2z M550.8,561.9v0.2l-0.4-0.1v-0.2 L550.8,561.9z M550.3,561.7v0.2l-0.3-0.2v-0.2L550.3,561.7z M549.8,561.5v0.2l-0.4-0.1v-0.2L549.8,561.5z M549.3,561.3v0.2 l-0.3-0.2v-0.2L549.3,561.3z M548.8,561v0.2l-0.4-0.1v-0.2L548.8,561z"/>
    <path fill-rule="evenodd" clip-rule="evenodd" fill="#333333" d="M517.2,537.8c0.7,0,1.2,1.2,1.2,2.6c0,1.5-0.5,2.7-1.2,2.7 c-0.7,0-1.2-1.2-1.2-2.7C516,539,516.6,537.8,517.2,537.8L517.2,537.8z"/>
    <path fill="#1A1A1A" d="M516.9,541.5c-2.7,0.1-6.1-0.1-8.1-1.6c-0.9-0.7-1.5-1.4-1.8-2.2l0,0c-0.2-0.7-0.3-1.4-0.2-2 c0.1-0.6,0.4-1.2,0.8-1.8c0.8-1,2-1.9,3.4-2.4l0,0c0.2-0.1,0.5-0.2,0.8-0.2v2.5c-0.9,0.4-1.7,0.9-2.2,1.6c-0.2,0.2-0.4,0.5-0.4,0.8 c-0.1,0.2,0,0.5,0,0.7l0,0c0.1,0.4,0.5,0.8,1,1.2c1.4,1,4,1.3,6.2,1.2C518,539.1,518.3,541.3,516.9,541.5L516.9,541.5z"/>
    <path fill-rule="evenodd" clip-rule="evenodd" fill="#333333" d="M517.2,549.3c0.7,0,1.2,1.2,1.2,2.6c0,1.5-0.5,2.7-1.2,2.7 c-0.7,0-1.2-1.2-1.2-2.7C516,550.5,516.6,549.3,517.2,549.3L517.2,549.3z"/>
    <path fill="#1A1A1A" d="M516.9,553c-2.7,0.1-6.1-0.1-8.1-1.6c-0.9-0.7-1.5-1.4-1.8-2.2l0,0c-0.2-0.7-0.3-1.4-0.2-2 c0.1-0.6,0.4-1.2,0.8-1.8c0.8-1.1,2-1.9,3.4-2.5l0,0c0.2-0.1,0.5-0.2,0.8-0.2v2.5c-0.9,0.4-1.7,0.9-2.2,1.6 c-0.2,0.2-0.4,0.5-0.4,0.8c-0.1,0.2,0,0.5,0,0.7l0,0c0.1,0.4,0.5,0.8,1,1.2c1.4,1,4,1.3,6.2,1.2C518,550.6,518.3,552.7,516.9,553 L516.9,553z"/>
    <path fill-rule="evenodd" clip-rule="evenodd" fill="#333333" d="M517.2,560.7c0.7,0,1.2,1.2,1.2,2.6c0,1.5-0.5,2.7-1.2,2.7 c-0.7,0-1.2-1.2-1.2-2.7C516,561.9,516.6,560.7,517.2,560.7L517.2,560.7z"/>
    <path fill="#1A1A1A" d="M516.9,564.4c-2.7,0.1-6.1-0.1-8.1-1.6c-0.9-0.7-1.5-1.4-1.8-2.2l0,0c-0.2-0.7-0.3-1.4-0.2-2 c0.1-0.6,0.4-1.2,0.8-1.7c0.8-1.1,2-1.9,3.4-2.5l0,0c0.2-0.1,0.5-0.2,0.8-0.2v2.5c-0.9,0.4-1.7,0.9-2.2,1.6 c-0.2,0.2-0.4,0.5-0.4,0.8c-0.1,0.2,0,0.5,0,0.7l0,0c0.1,0.4,0.5,0.8,1,1.2c1.4,1,4,1.3,6.2,1.2C518,562,518.3,564.2,516.9,564.4 L516.9,564.4z"/>
    <path fill-rule="evenodd" clip-rule="evenodd" fill="#333333" d="M517.2,572.2c0.7,0,1.2,1.2,1.2,2.6c0,1.5-0.5,2.7-1.2,2.7 c-0.7,0-1.2-1.2-1.2-2.7C516,573.4,516.6,572.2,517.2,572.2L517.2,572.2z"/>
    <path fill="#1A1A1A" d="M516.9,575.9c-2.7,0.1-6.1-0.1-8.1-1.6c-0.9-0.7-1.5-1.4-1.8-2.2l0,0c-0.2-0.7-0.3-1.4-0.2-2 c0.1-0.6,0.4-1.2,0.8-1.7c0.8-1.1,2-1.9,3.4-2.5l0,0c0.2-0.1,0.5-0.2,0.8-0.2v2.5c-0.9,0.4-1.7,0.9-2.2,1.6 c-0.2,0.2-0.4,0.5-0.4,0.8c-0.1,0.2,0,0.5,0,0.7l0,0c0.1,0.4,0.5,0.8,1,1.2c1.4,1,4,1.3,6.2,1.2C518,573.5,518.3,575.6,516.9,575.9 L516.9,575.9z"/>
    <path fill-rule="evenodd" clip-rule="evenodd" fill="#333333" d="M517.2,583.6c0.7,0,1.2,1.2,1.2,2.6c0,1.5-0.5,2.7-1.2,2.7 c-0.7,0-1.2-1.2-1.2-2.7C516,584.8,516.6,583.6,517.2,583.6L517.2,583.6z"/>
    <path fill="#1A1A1A" d="M516.9,587.3c-2.7,0.1-6.1-0.1-8.1-1.6c-0.9-0.7-1.5-1.4-1.8-2.2l0,0c-0.2-0.7-0.3-1.4-0.2-2 c0.1-0.6,0.4-1.2,0.8-1.7c0.8-1.1,2-1.9,3.4-2.5l0,0c0.2-0.1,0.5-0.2,0.8-0.2v2.5c-0.9,0.4-1.7,0.9-2.2,1.6 c-0.2,0.2-0.4,0.5-0.4,0.8c-0.1,0.2,0,0.5,0,0.7l0,0c0.1,0.4,0.5,0.8,1,1.2c1.4,1,4,1.3,6.2,1.2C518,584.9,518.3,587.1,516.9,587.3 L516.9,587.3z"/>
    <path fill-rule="evenodd" clip-rule="evenodd" fill="#333333" d="M517.2,595.1c0.7,0,1.2,1.2,1.2,2.6c0,1.5-0.5,2.7-1.2,2.7 c-0.7,0-1.2-1.2-1.2-2.7C516,596.2,516.6,595.1,517.2,595.1L517.2,595.1z"/>
    <path fill="#1A1A1A" d="M516.9,598.8c-2.7,0.1-6.1-0.1-8.1-1.6c-0.9-0.7-1.5-1.4-1.8-2.2v0c-0.2-0.7-0.3-1.4-0.2-2 c0.1-0.6,0.4-1.2,0.8-1.8c0.8-1,2-1.9,3.4-2.5l0,0c0.2-0.1,0.5-0.2,0.8-0.2v2.5c-0.9,0.4-1.7,0.9-2.2,1.6c-0.2,0.2-0.4,0.5-0.4,0.8 c-0.1,0.2,0,0.5,0,0.7l0,0c0.1,0.4,0.5,0.8,1,1.2c1.4,1,4,1.3,6.2,1.2C518,596.4,518.3,598.5,516.9,598.8L516.9,598.8z"/>
    <path fill-rule="evenodd" clip-rule="evenodd" fill="#333333" d="M517.2,606.5c0.7,0,1.2,1.2,1.2,2.6c0,1.5-0.5,2.7-1.2,2.7 c-0.7,0-1.2-1.2-1.2-2.7C516,607.7,516.6,606.5,517.2,606.5L517.2,606.5z"/>
    <path fill="#1A1A1A" d="M516.9,610.2c-2.7,0.1-6.1-0.1-8.1-1.6c-0.9-0.7-1.5-1.4-1.8-2.2l0,0c-0.2-0.7-0.3-1.3-0.2-2 c0.1-0.6,0.4-1.2,0.8-1.8c0.8-1,2-1.9,3.4-2.5l0,0c0.2-0.1,0.5-0.2,0.8-0.2v2.5c-0.9,0.4-1.7,0.9-2.2,1.6c-0.2,0.2-0.4,0.5-0.4,0.8 c-0.1,0.2,0,0.5,0,0.7l0,0c0.1,0.3,0.5,0.8,1,1.2c1.4,1,4,1.3,6.2,1.2C518,607.8,518.3,610,516.9,610.2L516.9,610.2z"/>
    <path fill-rule="evenodd" clip-rule="evenodd" fill="#333333" d="M517.2,617.9c0.7,0,1.2,1.2,1.2,2.6c0,1.5-0.5,2.7-1.2,2.7 c-0.7,0-1.2-1.2-1.2-2.7C516,619.1,516.6,617.9,517.2,617.9L517.2,617.9z"/>
    <path fill="#1A1A1A" d="M516.9,621.7c-2.7,0.1-6.1-0.1-8.1-1.6c-0.9-0.7-1.5-1.4-1.8-2.2l0,0c-0.2-0.7-0.3-1.3-0.2-2 c0.1-0.6,0.4-1.2,0.8-1.8c0.8-1,2-1.9,3.4-2.5l0,0c0.2-0.1,0.5-0.2,0.8-0.2v2.5c-0.9,0.4-1.7,0.9-2.2,1.6c-0.2,0.3-0.4,0.6-0.4,0.8 c-0.1,0.2,0,0.5,0,0.7l0,0c0.1,0.3,0.5,0.8,1,1.2c1.4,1,4,1.3,6.2,1.2C518,619.2,518.3,621.4,516.9,621.7L516.9,621.7z"/>
    <path fill-rule="evenodd" clip-rule="evenodd" fill="#333333" d="M517.2,629.4c0.7,0,1.2,1.2,1.2,2.6c0,1.5-0.5,2.7-1.2,2.7 c-0.7,0-1.2-1.2-1.2-2.7C516,630.6,516.6,629.4,517.2,629.4L517.2,629.4z"/>
    <path fill="#1A1A1A" d="M516.9,633.1c-2.7,0.1-6.1-0.1-8.1-1.6c-0.9-0.7-1.5-1.4-1.8-2.2l0,0c-0.2-0.7-0.3-1.3-0.2-2 c0.1-0.6,0.4-1.2,0.8-1.8c0.8-1,2-1.9,3.4-2.4l0,0c0.2-0.1,0.5-0.2,0.8-0.2v2.5c-0.9,0.4-1.7,0.9-2.2,1.6c-0.2,0.3-0.4,0.6-0.4,0.8 c-0.1,0.2,0,0.5,0,0.7l0,0c0.1,0.3,0.5,0.8,1,1.2c1.4,1,4,1.3,6.2,1.2C518,630.7,518.3,632.9,516.9,633.1L516.9,633.1z"/>
    <path fill-rule="evenodd" clip-rule="evenodd" fill="#333333" d="M517.2,640.8c0.7,0,1.2,1.2,1.2,2.6s-0.5,2.7-1.2,2.7 c-0.7,0-1.2-1.2-1.2-2.7S516.6,640.8,517.2,640.8L517.2,640.8z"/>
    <path fill="#1A1A1A" d="M516.9,644.5c-2.7,0.1-6.1-0.1-8.1-1.6c-0.9-0.7-1.5-1.4-1.8-2.2l0,0c-0.2-0.7-0.3-1.4-0.2-2 c0.1-0.6,0.4-1.2,0.8-1.8c0.8-1,2-1.9,3.4-2.5l0,0c0.2-0.1,0.5-0.2,0.8-0.2v2.5c-0.9,0.4-1.7,0.9-2.2,1.6c-0.2,0.3-0.4,0.6-0.4,0.8 c-0.1,0.2,0,0.5,0,0.7l0,0c0.1,0.3,0.5,0.8,1,1.2c1.4,1.1,4,1.3,6.2,1.2C518,642.1,518.3,644.3,516.9,644.5L516.9,644.5z"/>
    <path fill-rule="evenodd" clip-rule="evenodd" fill="#333333" d="M517.2,652.3c0.7,0,1.2,1.2,1.2,2.6s-0.5,2.7-1.2,2.7 c-0.7,0-1.2-1.2-1.2-2.7S516.6,652.3,517.2,652.3L517.2,652.3z"/>
    <path fill="#1A1A1A" d="M516.9,656c-2.7,0.1-6.1-0.1-8.1-1.6c-0.9-0.7-1.5-1.4-1.8-2.2l0,0c-0.2-0.7-0.3-1.4-0.2-2 c0.1-0.6,0.4-1.2,0.8-1.8c0.8-1,2-1.9,3.4-2.5l0,0c0.2-0.1,0.5-0.2,0.8-0.2v2.5c-0.9,0.3-1.7,0.9-2.2,1.6c-0.2,0.3-0.4,0.6-0.4,0.8 c-0.1,0.2,0,0.5,0,0.7l0,0c0.1,0.4,0.5,0.7,1,1.2c1.4,1.1,4,1.3,6.2,1.2C518,653.5,518.3,655.7,516.9,656L516.9,656z"/>
    <path fill-rule="evenodd" clip-rule="evenodd" fill="#333333" d="M517.2,663.7c0.7,0,1.2,1.2,1.2,2.6s-0.5,2.6-1.2,2.6 c-0.7,0-1.2-1.2-1.2-2.6S516.6,663.7,517.2,663.7L517.2,663.7z"/>
    <path fill="#1A1A1A" d="M516.9,667.4c-2.7,0.1-6.1-0.1-8.1-1.6c-0.9-0.7-1.5-1.5-1.8-2.2l0,0c-0.2-0.7-0.3-1.4-0.2-2 c0.1-0.6,0.4-1.2,0.8-1.8c0.8-1.1,2-1.9,3.4-2.5l0,0c0.2-0.1,0.5-0.2,0.8-0.2v2.5c-0.9,0.3-1.7,0.9-2.2,1.6 c-0.2,0.3-0.4,0.6-0.4,0.8c-0.1,0.2,0,0.5,0,0.7l0,0c0.1,0.3,0.5,0.7,1,1.2c1.4,1.1,4,1.3,6.2,1.2C518,665,518.3,667.2,516.9,667.4 L516.9,667.4z"/>
    <path fill-rule="evenodd" clip-rule="evenodd" fill="#333333" d="M517.2,675.2c0.7,0,1.2,1.2,1.2,2.6c0,1.5-0.5,2.6-1.2,2.6 c-0.7,0-1.2-1.2-1.2-2.6C516,676.3,516.6,675.2,517.2,675.2L517.2,675.2z"/>
    <path fill="#1A1A1A" d="M516.9,678.9c-2.7,0.1-6.1-0.1-8.1-1.6c-0.9-0.7-1.5-1.5-1.8-2.2l0,0c-0.2-0.7-0.3-1.4-0.2-2 c0.1-0.6,0.4-1.2,0.8-1.8c0.8-1.1,2-1.9,3.4-2.5l0,0c0.2-0.1,0.5-0.2,0.8-0.2v2.5c-0.9,0.4-1.7,0.9-2.2,1.6 c-0.2,0.3-0.4,0.6-0.4,0.8c-0.1,0.2,0,0.5,0,0.7l0,0c0.1,0.3,0.5,0.7,1,1.2c1.4,1,4,1.3,6.2,1.2C518,676.4,518.3,678.6,516.9,678.9 L516.9,678.9z"/>
    <path fill-rule="evenodd" clip-rule="evenodd" fill="#333333" d="M517.2,686.6c0.7,0,1.2,1.2,1.2,2.6s-0.5,2.6-1.2,2.6 c-0.7,0-1.2-1.2-1.2-2.6S516.6,686.6,517.2,686.6L517.2,686.6z"/>
    <path fill="#1A1A1A" d="M516.9,690.3c-2.7,0.1-6.1-0.1-8.1-1.6c-0.9-0.7-1.5-1.5-1.8-2.2l0,0c-0.2-0.7-0.3-1.4-0.2-2 c0.1-0.6,0.4-1.2,0.8-1.8c0.8-1.1,2-1.9,3.4-2.5l0,0c0.2-0.1,0.5-0.2,0.8-0.2v2.5c-0.9,0.3-1.7,0.9-2.2,1.6 c-0.2,0.3-0.4,0.6-0.4,0.8c-0.1,0.2,0,0.5,0,0.7l0,0c0.1,0.4,0.5,0.7,1,1.2c1.4,1,4,1.3,6.2,1.2C518,687.9,518.3,690.1,516.9,690.3 L516.9,690.3z"/>
    <path fill-rule="evenodd" clip-rule="evenodd" fill="#295699" d="M595,585c0.9,2.4,8.6,4.1,10.4,1.2v33.4c0,1.3-2.3,2-5.2,1.7 c-2.9-0.3-5.2-1.6-5.2-2.9V585z"/>
  </g>
</svg>