<?xml version="1.0" encoding="utf-8"?>
<svg viewBox="-3849.9 548.513 333.9 177.9" xmlns="http://www.w3.org/2000/svg">
  <g transform="matrix(1, 0, 0, 1, -4014.700439, 349.613495)">
    <path fill-rule="evenodd" clip-rule="evenodd" fill="#336699" d="M498.7,364.9V210.7c0-6.5-5-11.8-11.1-11.8H175.9 c-6.1,0-11.1,5.3-11.1,11.8v154.3c0,6.5,5,11.8,11.1,11.8h311.7C493.7,376.7,498.7,371.4,498.7,364.9L498.7,364.9z"/>
    <path fill-rule="evenodd" clip-rule="evenodd" fill="#FFFCF5" d="M332.5,356.8V218.9c0-5.6,4.5-10.2,10.2-10.2h135.1 c5.6,0,10.1,4.6,10.1,10.2v137.9c0,5.6-4.6,10.2-10.1,10.2H342.7C337.1,366.9,332.5,362.4,332.5,356.8L332.5,356.8z"/>
    <path fill-rule="evenodd" clip-rule="evenodd" fill="#E2DCCD" d="M476,208.7l11.8,22.7l-12.7-2.2c-1.6-0.3-2.6-1.8-2.3-3.4 L476,208.7z"/>
    <path fill-rule="evenodd" clip-rule="evenodd" fill="#FFFCF5" d="M331,356.8V218.9c0-5.6-4.6-10.2-10.2-10.2h-135 c-5.6,0-10.2,4.6-10.2,10.2v137.9c0,5.6,4.6,10.2,10.2,10.2h135C326.4,366.9,331,362.4,331,356.8L331,356.8z"/>
    <rect x="373.6" y="219" fill="#1A1A1A" width="0.9" height="135.9"/>
    <rect x="393.7" y="224.1" fill="#1A1A1A" width="0.2" height="118.8"/>
    <rect x="406.5" y="224.1" fill="#1A1A1A" width="0.2" height="118.8"/>
    <rect x="419.3" y="224.1" fill="#1A1A1A" width="0.2" height="118.8"/>
    <rect x="432.1" y="224.1" fill="#1A1A1A" width="0.2" height="118.8"/>
    <rect x="444.9" y="224.1" fill="#1A1A1A" width="0.2" height="118.8"/>
    <rect x="457.7" y="224.1" fill="#1A1A1A" width="0.2" height="118.8"/>
    <rect x="470.5" y="224.1" fill="#1A1A1A" width="0.2" height="118.8"/>
    <path fill="#1A1A1A" d="M369,354.1h-8.2v-2.8c0-0.6,0-1.1,0.1-1.4c0.1-0.5,0.3-0.9,0.6-1.2c0.4-0.4,0.8-0.8,1.4-1 c0.6-0.2,1.2-0.3,1.9-0.3c0.6,0,1.2,0.1,1.6,0.2c0.5,0.2,0.9,0.3,1.2,0.6c0.3,0.2,0.6,0.5,0.7,0.7c0.2,0.3,0.3,0.6,0.4,1 c0.1,0.4,0.1,0.8,0.1,1.3V354.1z M368.1,353v-1.8c0-0.5,0-0.9-0.1-1.3c-0.1-0.3-0.2-0.6-0.4-0.7c-0.2-0.2-0.6-0.5-1-0.6 c-0.5-0.1-1-0.2-1.6-0.2c-0.9,0-1.5,0.1-2,0.4c-0.5,0.3-0.8,0.6-0.9,1c-0.1,0.3-0.1,0.8-0.1,1.4v1.7H368.1z M369,346.7l-8.2-3.1 v-1.2l8.2-3.3v1.2l-2.5,0.9v3.4l2.5,0.9V346.7z M365.7,344.4v-2.8l-2.2,0.9c-0.7,0.2-1.3,0.5-1.7,0.6c0.5,0.1,1,0.2,1.5,0.5 L365.7,344.4z M369,337h-7.2v2.7h-1v-6.5h1v2.7h7.2V337z M369,332.1h-8.2v-5.9h1v4.8h2.5v-4.5h0.9v4.5h2.8v-5h1V332.1z"/>
    <path fill-rule="evenodd" clip-rule="evenodd" fill="#7F7F7F" d="M340.8,340.4c0-2.3,1.9-4.1,4.1-4.1s4.1,1.9,4.1,4.1 c0,2.3-1.9,4.1-4.1,4.1S340.8,342.7,340.8,340.4L340.8,340.4z"/>
    <path fill-rule="evenodd" clip-rule="evenodd" fill="#7F7F7F" d="M340.8,325.1c0-2.3,1.9-4.1,4.1-4.1s4.1,1.9,4.1,4.1 c0,2.3-1.9,4.1-4.1,4.1S340.8,327.4,340.8,325.1L340.8,325.1z"/>
    <path fill-rule="evenodd" clip-rule="evenodd" fill="#7F7F7F" d="M340.8,309.9c0-2.3,1.9-4.1,4.1-4.1s4.1,1.9,4.1,4.1 c0,2.2-1.9,4.1-4.1,4.1S340.8,312.1,340.8,309.9L340.8,309.9z"/>
    <path fill-rule="evenodd" clip-rule="evenodd" fill="#7F7F7F" d="M340.8,294.6c0-2.2,1.9-4.1,4.1-4.1s4.1,1.9,4.1,4.1 c0,2.3-1.9,4.1-4.1,4.1S340.8,296.9,340.8,294.6L340.8,294.6z"/>
    <path fill-rule="evenodd" clip-rule="evenodd" fill="#7F7F7F" d="M340.8,279.3c0-2.2,1.9-4.1,4.1-4.1s4.1,1.9,4.1,4.1 c0,2.3-1.9,4.1-4.1,4.1S340.8,281.6,340.8,279.3L340.8,279.3z"/>
    <path fill-rule="evenodd" clip-rule="evenodd" fill="#7F7F7F" d="M340.8,264.1c0-2.3,1.9-4.1,4.1-4.1s4.1,1.8,4.1,4.1 s-1.9,4.1-4.1,4.1S340.8,266.3,340.8,264.1L340.8,264.1z"/>
    <path fill-rule="evenodd" clip-rule="evenodd" fill="#7F7F7F" d="M340.8,248.8c0-2.3,1.9-4.1,4.1-4.1s4.1,1.8,4.1,4.1 c0,2.3-1.9,4.1-4.1,4.1S340.8,251.1,340.8,248.8L340.8,248.8z"/>
    <path fill-rule="evenodd" clip-rule="evenodd" fill="#7F7F7F" d="M340.8,233.6c0-2.3,1.9-4.1,4.1-4.1s4.1,1.8,4.1,4.1 c0,2.3-1.9,4.1-4.1,4.1S340.8,235.8,340.8,233.6L340.8,233.6z"/>
    <path fill-rule="evenodd" clip-rule="evenodd" fill="#7F7F7F" d="M314,340.4c0-2.3,1.9-4.1,4.1-4.1c2.3,0,4.1,1.9,4.1,4.1 c0,2.3-1.9,4.1-4.1,4.1C315.9,344.5,314,342.7,314,340.4L314,340.4z"/>
    <path fill-rule="evenodd" clip-rule="evenodd" fill="#7F7F7F" d="M314,325.1c0-2.3,1.9-4.1,4.1-4.1c2.3,0,4.1,1.9,4.1,4.1 c0,2.3-1.9,4.1-4.1,4.1C315.9,329.2,314,327.4,314,325.1L314,325.1z"/>
    <path fill-rule="evenodd" clip-rule="evenodd" fill="#7F7F7F" d="M314,309.9c0-2.3,1.9-4.1,4.1-4.1c2.3,0,4.1,1.9,4.1,4.1 c0,2.2-1.9,4.1-4.1,4.1C315.9,314,314,312.1,314,309.9L314,309.9z"/>
    <path fill-rule="evenodd" clip-rule="evenodd" fill="#7F7F7F" d="M314,294.6c0-2.2,1.9-4.1,4.1-4.1c2.3,0,4.1,1.9,4.1,4.1 c0,2.3-1.9,4.1-4.1,4.1C315.9,298.7,314,296.9,314,294.6L314,294.6z"/>
    <path fill-rule="evenodd" clip-rule="evenodd" fill="#7F7F7F" d="M314,279.3c0-2.2,1.9-4.1,4.1-4.1c2.3,0,4.1,1.9,4.1,4.1 c0,2.3-1.9,4.1-4.1,4.1C315.9,283.5,314,281.6,314,279.3L314,279.3z"/>
    <path fill-rule="evenodd" clip-rule="evenodd" fill="#7F7F7F" d="M314,264.1c0-2.3,1.9-4.1,4.1-4.1c2.3,0,4.1,1.8,4.1,4.1 s-1.9,4.1-4.1,4.1C315.9,268.2,314,266.3,314,264.1L314,264.1z"/>
    <path fill-rule="evenodd" clip-rule="evenodd" fill="#7F7F7F" d="M314,248.8c0-2.3,1.9-4.1,4.1-4.1c2.3,0,4.1,1.8,4.1,4.1 c0,2.3-1.9,4.1-4.1,4.1C315.9,252.9,314,251.1,314,248.8L314,248.8z"/>
    <path fill-rule="evenodd" clip-rule="evenodd" fill="#7F7F7F" d="M314,233.6c0-2.3,1.9-4.1,4.1-4.1c2.3,0,4.1,1.8,4.1,4.1 c0,2.3-1.9,4.1-4.1,4.1C315.9,237.7,314,235.8,314,233.6L314,233.6z"/>
    <path fill-rule="evenodd" clip-rule="evenodd" fill="#191919" d="M318.3,340.4L318.3,340.4c0-1,0.8-1.8,1.8-1.8h23.3 c1,0,1.8,0.8,1.8,1.8l0,0c0,0.9-0.8,1.8-1.8,1.8H320C319.1,342.2,318.3,341.4,318.3,340.4L318.3,340.4z"/>
    <path fill-rule="evenodd" clip-rule="evenodd" fill="#191919" d="M318.3,325.1L318.3,325.1c0-1,0.8-1.8,1.8-1.8h23.3 c1,0,1.8,0.8,1.8,1.8l0,0c0,0.9-0.8,1.8-1.8,1.8H320C319.1,326.9,318.3,326.1,318.3,325.1L318.3,325.1z"/>
    <path fill-rule="evenodd" clip-rule="evenodd" fill="#191919" d="M318.3,309.9L318.3,309.9c0-1,0.8-1.8,1.8-1.8h23.3 c1,0,1.8,0.8,1.8,1.8l0,0c0,0.9-0.8,1.7-1.8,1.7H320C319.1,311.6,318.3,310.8,318.3,309.9L318.3,309.9z"/>
    <path fill-rule="evenodd" clip-rule="evenodd" fill="#191919" d="M318.3,294.6L318.3,294.6c0-0.9,0.8-1.7,1.8-1.7h23.3 c1,0,1.8,0.8,1.8,1.7l0,0c0,1-0.8,1.8-1.8,1.8H320C319.1,296.4,318.3,295.6,318.3,294.6L318.3,294.6z"/>
    <path fill-rule="evenodd" clip-rule="evenodd" fill="#191919" d="M318.3,279.3L318.3,279.3c0-0.9,0.8-1.7,1.8-1.7h23.3 c1,0,1.8,0.8,1.8,1.7l0,0c0,1-0.8,1.8-1.8,1.8H320C319.1,281.1,318.3,280.3,318.3,279.3L318.3,279.3z"/>
    <path fill-rule="evenodd" clip-rule="evenodd" fill="#191919" d="M318.3,264.1L318.3,264.1c0-0.9,0.8-1.8,1.8-1.8h23.3 c1,0,1.8,0.8,1.8,1.8l0,0c0,1-0.8,1.8-1.8,1.8H320C319.1,265.9,318.3,265.1,318.3,264.1L318.3,264.1z"/>
    <path fill-rule="evenodd" clip-rule="evenodd" fill="#191919" d="M318.3,248.8L318.3,248.8c0-0.9,0.8-1.8,1.8-1.8h23.3 c1,0,1.8,0.8,1.8,1.8l0,0c0,1-0.8,1.8-1.8,1.8H320C319.1,250.6,318.3,249.8,318.3,248.8L318.3,248.8z"/>
    <path fill-rule="evenodd" clip-rule="evenodd" fill="#191919" d="M318.3,233.6L318.3,233.6c0-0.9,0.8-1.8,1.8-1.8h23.3 c1,0,1.8,0.8,1.8,1.8l0,0c0,1-0.8,1.8-1.8,1.8H320C319.1,235.3,318.3,234.5,318.3,233.6L318.3,233.6z"/>
    <polygon fill-rule="evenodd" clip-rule="evenodd" fill="#191919" points="390.2,347.1 381.2,323.6 433.3,303.6 442.3,327 &#9;"/>
    <polygon fill-rule="evenodd" clip-rule="evenodd" fill="#CCCCCC" points="404.4,342.5 394.8,317.4 434.6,302.1 444.2,327.3 &#9;"/>
    <polygon fill-rule="evenodd" clip-rule="evenodd" fill="#003399" points="404.4,342.5 394.8,317.4 411.5,310.9 421.2,336.1 &#9;"/>
    <polygon fill-rule="evenodd" clip-rule="evenodd" fill="#B2B2B2" points="404.4,342.5 400.2,331.5 417,325 418.4,328.7 &#10;&#9;&#9;441.4,319.9 441.4,319.9 444.2,327.3 &#9;"/>
    <path fill-rule="evenodd" clip-rule="evenodd" fill="#042C7D" d="M404.4,342.5l-4.2-11.1L417,325c1.4,3.7,2.8,7.4,4.3,11.1 L404.4,342.5z"/>
    <path fill-rule="evenodd" clip-rule="evenodd" fill="#D76F6E" d="M359.3,216.8l6.1,5l-7.4,8.9c-2-1.7-4.1-3.3-6.1-5 c-2.8-2.3-3.5-6.1-1.6-8.4l0.5-0.6C352.6,214.4,356.5,214.4,359.3,216.8L359.3,216.8z"/>
    <polygon fill-rule="evenodd" clip-rule="evenodd" fill="#FFD268" points="360.8,233 368.1,224.1 470.2,308.6 472.5,310.5 &#10;&#9;&#9;467.8,311.8 468.8,315 465.5,314.6 465.1,319.4 &#9;"/>
    <polygon fill-rule="evenodd" clip-rule="evenodd" fill="#FFC334" points="363.3,230 368.1,224.1 470.2,308.6 472.5,310.5 &#10;&#9;&#9;467.8,311.8 468.8,315 465.5,314.6 &#9;"/>
    <polygon fill-rule="evenodd" clip-rule="evenodd" fill="#E2AF38" points="365.6,227.2 368.1,224.1 472.5,310.5 467.8,311.8 &#9;"/>
    <polygon fill-rule="evenodd" clip-rule="evenodd" fill="#B2B2B2" points="357,229.9 364.4,221 371.9,227.3 364.6,236.1 &#9;"/>
    <polygon fill-rule="evenodd" clip-rule="evenodd" fill="#E7A980" points="465.1,319.4 481.8,325.6 472.5,310.5 467.8,311.8 &#10;&#9;&#9;468.8,315 465.5,314.6 &#9;"/>
    <polygon fill-rule="evenodd" clip-rule="evenodd" fill="#E29663" points="465.5,314.6 481.8,325.6 472.5,310.5 467.8,311.8 &#10;&#9;&#9;467.9,314.2 &#9;"/>
    <polygon fill-rule="evenodd" clip-rule="evenodd" fill="#CF804B" points="467.8,311.8 481.8,325.6 472.5,310.5 &#9;"/>
    <polygon fill-rule="evenodd" clip-rule="evenodd" points="475.3,323.2 475.5,321.4 476.4,320.4 478.1,319.5 481.8,325.6 &#9;"/>
    <path fill="#FFFFFF" d="M409.9,336.1l-0.9-2.4l1.3,0l0.4,0.9l1.2,0l-0.3-0.9l1.2,0l0.3,0.9l1.4,0l-0.4-1.1l1.3,0l0.9,2.5 L409.9,336.1z M408.7,333.2l-0.4-1c-0.3-0.7-0.4-1.2-0.5-1.4c0-0.2,0-0.5,0.2-0.6c0.2-0.2,0.5-0.2,1.1-0.3c0.5,0,0.8,0,1,0.1 c0.2,0.1,0.4,0.3,0.6,0.6c0-0.3,0-0.5,0.1-0.6c0.1-0.1,0.2-0.1,0.3-0.2c0.1,0,0.4-0.1,0.9-0.1l1.7,0l0.5,1.3l-2.1,0.1 c-0.3,0-0.5,0-0.6,0.1c-0.1,0.1-0.1,0.2,0,0.4l2.9-0.1l0.6,1.4L408.7,333.2z M409.3,331.7l1.4,0c-0.1-0.2-0.1-0.3-0.2-0.3 c-0.1-0.1-0.2-0.1-0.5-0.1h-0.4c-0.2,0-0.3,0-0.3,0.1C409.2,331.4,409.2,331.5,409.3,331.7L409.3,331.7z M406.3,326.9l6-1l0.6,1.5 l-1.1,0.1l0.2,0.5l1.2,0l0.6,1.5l-6.6-0.6L406.3,326.9z M410.7,327.5c-0.7,0.1-1.6,0.2-2.6,0.3c1.3,0.1,2.2,0.2,2.8,0.2 L410.7,327.5z M406.6,322.7l0.5,1.3l-0.5,0c-0.2,0-0.4,0-0.4,0c0,0,0,0.1,0,0.2c0,0.1,0.1,0.2,0.2,0.2c0.1,0,0.2,0.1,0.4,0.1 c0.2,0,0.4,0,0.5-0.1c0.1,0,0.2-0.2,0.2-0.4c0.2-0.7,0.4-1.1,0.6-1.2c0.2-0.2,0.6-0.3,1.3-0.3c0.5,0,0.8,0,1,0.1 c0.2,0.1,0.5,0.2,0.7,0.5c0.2,0.2,0.5,0.6,0.6,0.9c0.1,0.4,0.2,0.7,0.1,1c0,0.3-0.2,0.5-0.4,0.6c-0.2,0.1-0.6,0.1-1.1,0.1H410 l-0.5-1.3l0.8,0c0.2,0,0.4,0,0.5-0.1c0,0,0.1-0.1,0-0.2c0-0.1-0.1-0.1-0.2-0.2c-0.1,0-0.2-0.1-0.4,0c-0.4,0-0.6,0-0.7,0.1 c-0.1,0.1-0.2,0.3-0.3,0.7c-0.1,0.3-0.2,0.6-0.3,0.7c-0.1,0.1-0.2,0.2-0.4,0.3c-0.2,0.1-0.5,0.1-0.8,0.1c-0.5,0-0.8,0-1.1-0.1 c-0.2-0.1-0.5-0.3-0.7-0.5c-0.2-0.2-0.4-0.5-0.5-0.9c-0.1-0.3-0.2-0.7-0.1-0.9c0-0.3,0.1-0.5,0.3-0.6c0.2-0.1,0.5-0.1,1-0.1H406.6z M404.5,322.1l-0.9-2.5l1.3,0l0.4,1l1.2,0l-0.3-0.9h1.2l0.4,0.9l1.4,0l-0.4-1.1l1.3,0l0.9,2.5L404.5,322.1z M403.4,319.2l-0.4-1 c-0.2-0.7-0.4-1.1-0.4-1.4c0-0.2,0-0.5,0.2-0.6c0.2-0.1,0.6-0.2,1.1-0.2c0.5,0,0.8,0,1.1,0.1c0.2,0.1,0.4,0.3,0.6,0.6 c0-0.3,0-0.5,0.1-0.6c0.1-0.1,0.2-0.2,0.3-0.2c0.1,0,0.4-0.1,0.9-0.1l1.6,0l0.5,1.3l-2.1,0.1c-0.4,0-0.6,0-0.6,0.1 c-0.1,0.1-0.1,0.2,0,0.4l2.9-0.1l0.6,1.4L403.4,319.2z M403.9,317.7l1.4,0c-0.1-0.1-0.1-0.2-0.2-0.3s-0.2-0.1-0.5-0.1l-0.3,0 c-0.2,0-0.3,0-0.4,0.1C403.8,317.4,403.8,317.6,403.9,317.7L403.9,317.7z"/>
  </g>
</svg>