<?xml version="1.0" encoding="utf-8"?>
<svg viewBox="-1068.775 323.913 277.3 361.7" xmlns="http://www.w3.org/2000/svg">
  <g transform="matrix(1, 0, 0, 1, -2190.774902, -293.286896)">
    <path fill="none" d="M1179.2,705v186.2c0,8.6,3.4,16.1,9,21.7c5.6,5.6,13.1,9,21.7,9h101.6c8.6,0,16.1-3.4,21.7-9 c2.8-2.8,5-6.1,6.6-9.7c1.6-3.7,2.4-7.7,2.4-12V705c0-8.6-3.4-16.1-9-21.7c-5.6-5.6-13.1-9-21.7-9h-101.6c-5,0-9.7,1.2-13.8,3.3 c-2.9,1.5-5.6,3.4-7.9,5.7C1182.6,688.9,1179.2,696.4,1179.2,705z"/>
    <path fill="#D78580" d="M1373.5,642.9c-15.8-15.8-37.9-25.7-62.1-25.7h-101.6c-15.6,0-30.3,4.1-43,11.3 c4.9,8.7,10,17.2,14.9,25.8c1-2.1,4.7-0.5,5.7,2.5c0.7,2.4,0.5,6.4,1.2,8.8l-0.1,0.4c2.5,4.2,4.9,8,7.5,11.6 c4.1-2.1,8.8-3.3,13.8-3.3h101.6c8.6,0,16.1,3.4,21.7,9c5.6,5.6,9,13.1,9,21.7v186.2c0,4.3-0.9,8.3-2.4,12c2.8,2.1,5.7,4.4,8.8,7 c1.2,1,2.3,2.1,3.4,3.1c2.9-0.5,5.9-2.4,9.1-2.9c11.5-1.9,9.1,12.4,0.5,8.9c2.6,3.9,1.7,6.4-0.3,7.1c4.6,8.6,7.7,18,12.7,26.5 c15.7-15.8,25.4-37.8,25.4-61.8V705C1399.3,680.8,1389.4,658.7,1373.5,642.9z M1190,653l-0.2,0.4c-2.5-4.1-7.9-6.2-11-9.4 c-2.5-3.1-2.8-5.3,1.3-8.1c3.9-2.3,6.4-0.5,7.5,2.8c2.3-6.9,11.6-5.8,9,1.2C1195.1,644.3,1190.5,648.9,1190,653z M1213.7,651.1 c-1.5,3.1-5.3,6-5.4,9.3l0.1,1.4c-1.1-4-6.1-5.5-9-8.9c-7.8-8.4,5.5-14.4,7.2-5.1C1210.1,639.3,1216.5,644.8,1213.7,651.1z M1224.8,655.3c-3.5-4.2-5.9-10.9-7-16.2c-0.3-2.8-1.4-6.3,1.4-8.1c4.5-3.5,5.6,3.2,7,6.3c3.5-6.7,10.5-5.6,8.7,2.5 c-1.4,5.3-8.7,9.5-10.1,14.5V655.3z M1243.3,651.8c-0.3,2.5-2.8,6-3.5,8.5l-0.3,0.4c-1-1.4-2.4-2.8-3.8-4.2l-0.3-0.4 c-1.3-1.4-4.1-3.3-3.8-5.6c0.2-2.4,2.1-2.8,3.8-2.1v0c0.8,0.3,1.5,1,2.1,1.7C1239.1,643.7,1243.7,647.5,1243.3,651.8z M1247.5,649.3l-0.3,0.4c-1-4.6-4.9-8.8-5.9-13c-0.7-3.9,0-6,3.8-6.7c3.5-0.7,4.9,1.8,4.9,5.3c3.5-5.6,10.5-2.8,7.3,3.5 C1255.2,642.6,1249.6,645.8,1247.5,649.3z M1272.9,651.1c-1.4,3.2-5.2,6-5.9,9.2v1.4c-1.4-3.9-7.3-6-9.8-9.9 c-5.6-9.9,7.3-13.1,8.4-4.2C1269.4,639.4,1275.7,644.7,1272.9,651.1z M1284.1,655.3c-3.5-4.2-5.9-10.9-7-16.2 c-0.3-2.8-1.4-6.3,1.4-8.1c4.5-3.5,5.6,3.2,7,6.3c3.5-6.7,10.5-5.6,8.7,2.5c-1.4,5.3-8.7,9.5-10.1,14.5V655.3z M1302.5,651.8 c-0.3,2.5-2.8,6-3.5,8.5l-0.3,0.4c-1-1.4-2.4-2.8-3.8-4.2l-0.3-0.4c-1.3-1.4-4.2-3.3-3.8-5.6c0.2-2.4,2.1-2.8,3.8-2.1v0 c0.8,0.3,1.5,1,2.1,1.7C1298.4,643.7,1302.9,647.5,1302.5,651.8z M1306.7,649.3l-0.3,0.4c-1-4.6-4.9-8.8-5.9-13 c-0.7-3.9,0-6,3.8-6.7c3.5-0.7,4.9,1.8,4.9,5.3c3.3-5.7,12.5-2.3,7.9,3.8C1314.3,642.7,1308.8,645.7,1306.7,649.3z M1329.9,654.4 c-2.3,2.4-6.2,4.3-7.4,7.3l-0.3,1.4c0.1-4.1-4.3-7-6.2-11c-5.1-10.4,9.3-12.3,8.4-3C1330.1,641.9,1334.9,649.5,1329.9,654.4z M1384.8,695.6c4.2,5.4-2.7,7.2-5.7,8.7c6.8,3.6,5.7,10.5-2.4,8.8c-5.3-1.3-9.4-9-14.6-9.8l-1.1,0c4.2-3,10.5-6.3,15.5-8.2 C1379.3,694.3,1382.5,692.4,1384.8,695.6z M1376.6,772.4c-5.3-1.4-9.5-8.7-14.5-10.1h-1.1c4.2-3.5,10.9-5.9,16.2-7 c2.8-0.3,6.3-1.4,8.1,1.4c3.5,4.5-3.2,5.6-6.3,7C1385.8,767.1,1384.7,774.1,1376.6,772.4z M1376.6,831.6 c-5.3-1.4-9.5-8.7-14.5-10.1h-1.1c4.2-3.5,10.9-5.9,16.2-7c2.8-0.3,6.3-1.4,8.1,1.4c3.5,4.5-3.2,5.6-6.3,7 C1385.8,826.4,1384.7,833.3,1376.6,831.6z M1364.6,840c-2.5-0.3-6-2.8-8.5-3.5l-0.4-0.3c1.4-1,2.8-2.4,4.2-3.8l0.4-0.3 c1.4-1.3,3.3-4.1,5.6-3.8c2.4,0.2,2.8,2.1,2.1,3.8l0,0c-0.4,0.8-1,1.5-1.7,2.1C1372.8,835.8,1368.9,840.3,1364.6,840z M1365.3,810.3c-3.2-1.4-6-5.2-9.2-5.9h-1.4c3.9-1.4,6-7.3,9.9-9.8c9.9-5.6,13,7.3,4.2,8.4C1377,806.9,1371.7,813.1,1365.3,810.3 z M1364.6,780.7c-2.5-0.3-6-2.8-8.5-3.5l-0.4-0.3c1.4-1,2.8-2.4,4.2-3.8l0.4-0.3c1.4-1.3,3.3-4.1,5.6-3.8 c2.4,0.2,2.8,2.1,2.1,3.8l0,0c-0.4,0.8-1,1.5-1.7,2.1C1372.8,776.5,1368.9,781.1,1364.6,780.7z M1365.3,751.1 c-3.2-1.4-6-5.2-9.2-5.9h-1.4c3.9-1.4,6-7.3,9.9-9.8c9.9-5.6,13,7.3,4.2,8.4C1377,747.6,1371.7,753.9,1365.3,751.1z M1364.6,721.5c-2.5-0.3-6-2.8-8.5-3.5l-0.4-0.3c1.4-1,2.8-2.4,4.2-3.8l0.4-0.3c1.4-1.3,3.3-4.1,5.6-3.8c2.4,0.2,2.8,2.1,2.1,3.8 l0,0c-0.4,0.8-1,1.5-1.7,2.1C1372.8,717.3,1368.9,721.8,1364.6,721.5z M1369.3,657.1c3.3,3.1,2.3,6-0.6,8c7.2,0.2,8.8,9.5,1.4,9 c-4.5-0.3-10.3-3.5-14.3-2.7l-0.5,0c3.2-3.6,3.7-9.3,5.9-13.2C1363.4,654.8,1365.5,653.9,1369.3,657.1z M1337.4,661.5l-0.5,0.9 c-0.2-5.2,0.3-12.1,1.5-17.5c0.8-2.7,1-6.6,4.9-6.7c6.8-0.7,4.6,6.2,4.2,9.6c7.2-3.6,13.5,3.1,6.4,7.8 C1349.2,658.3,1340.9,657.6,1337.4,661.5z M1351.4,669.9c-2.1,1.4-6.1,2.3-8.1,3.6l-0.4,0.1c0.4-1.5,0.6-3.3,0.7-5.1l0.1-0.5 c0.2-1.8-0.7-4.8,0.9-6.4c1.6-1.8,3.4-1.1,4.1,0.6v0c0.3,0.8,0.5,1.7,0.3,2.6C1354.6,661.2,1354.9,667.5,1351.4,669.9z M1352.5,691.3c3.4-2.2,3.6-7.4,6-11.2c6-9.9,15.3,1.2,7,5.4c9.1,1.1,5.4,9.1-1.4,7.6c-3.5-0.6-6.8-2.9-10.1-2.3L1352.5,691.3z M1364.6,853.9c9.9-5.6,13,7.3,4.2,8.4c8.1,3.8,2.8,10.1-3.5,7.3c-3.2-1.4-6-5.2-9.2-5.9h-1.4 C1358.6,862.3,1360.8,856.3,1364.6,853.9z M1364.1,898.4c-2.4-0.7-5.6-3.1-8.1-3.7l-0.3-0.3c1.4-0.7,2.9-1.7,4.4-2.9l0.4-0.3 c1.4-1.3,3.3-4.1,5.6-3.8c2.4,0.2,2.8,2.1,2.1,3.8l0,0c-0.4,0.8-1,1.5-1.8,1.9C1372.7,895.1,1368.3,899.4,1364.1,898.4z M1379,908.2c4.7,5.7-1.4,12.9-5.9,6.9c-2.6-3.6-4.2-10-7.2-12.6l-0.3-0.4c4.6,0,9.4-3.3,13.8-4.2c3.9-0.4,6.1,0.5,6,5.5 C1385.5,908,1382.4,909.1,1379,908.2z M1379.1,882.1c6.7,3.5,5.6,10.5-2.5,8.7c-5.3-1.4-9.5-8.7-14.5-10.1h-1.1 c4.2-3.5,10.9-5.9,16.2-7c2.8-0.3,6.3-1.4,8.1,1.4C1389,879.7,1382.3,880.7,1379.1,882.1z M1381.2,846.6 c5.6,3.5,2.8,10.5-3.5,7.3c-3.9-2.1-7.1-7.7-10.6-9.8l-0.4-0.3c4.6-1,8.8-4.9,13.1-5.9c3.9-0.7,6,0,6.7,3.8 C1387.2,845.2,1384.7,846.6,1381.2,846.6z M1381.2,787.3c5.6,3.5,2.8,10.5-3.5,7.3c-3.9-2.1-7.1-7.7-10.6-9.8l-0.4-0.3 c4.6-1,8.8-4.9,13.1-5.9c3.9-0.7,6,0,6.7,3.8C1387.2,786,1384.7,787.3,1381.2,787.3z M1381.2,728.1c5.6,3.5,2.8,10.5-3.5,7.3 c-3.9-2.1-7.1-7.7-10.6-9.8l-0.4-0.3c4.6-1,8.8-4.9,13.1-5.9c3.9-0.7,6,0,6.7,3.8C1387.2,726.7,1384.7,728.1,1381.2,728.1z"/>
    <path fill="#F5B6AD" d="M1354.8,923.1c-1.7-2.9-2.4-7.1-4.9-9.2l-1.2-0.7c1.1,0.3,2.1,0.3,3.2,0.1c-1.1-1.1-2.2-2.1-3.4-3.1 c-3-2.6-6-4.9-8.8-7c-1.5,3.6-3.8,6.9-6.6,9.7c-5.6,5.6-13.1,9-21.7,9h-101.6c-8.6,0-16.1-3.4-21.7-9c-5.6-5.6-9-13.1-9-21.7V705 c0-8.6,3.4-16.1,9-21.7c2.3-2.3,5-4.2,7.9-5.7c-2.6-3.5-5-7.4-7.5-11.6l0,0c-1.3-0.8-3-1.5-4.7-2.1l-0.5-0.2 c-1.7-0.7-4.8-0.7-5.9-2.7c-1.2-2-0.1-3.6,1.8-3.8c0.8-0.1,1.8,0,2.6,0.4c-0.5-1.7-0.4-2.8-0.1-3.5c-4.9-8.7-10.1-17.1-14.9-25.8 c-7,4-13.5,8.8-19.1,14.5c-15.8,15.8-25.7,37.9-25.7,62.1v186.2c0,24.2,9.9,46.3,25.7,62.1c15.8,15.8,37.9,25.7,62.1,25.7h101.6 c0,0,0,0,0.1,0c24.1,0,46.3-9.9,62-25.7c0.1-0.1,0.2-0.2,0.3-0.3c-4.9-8.5-8.1-17.9-12.7-26.5 C1359.3,927.1,1356.4,926.2,1354.8,923.1z M1178.1,922.6l0.4-0.1c-0.4,1.5-0.6,3.3-0.7,5.1l-0.1,0.5c-0.2,1.8,0.7,4.8-0.9,6.4 c-1.6,1.8-3.4,1.1-4.1-0.6l0,0c-0.3-0.8-0.5-1.7-0.3-2.6c-5.7,3.6-6-2.7-2.5-5.1C1172.1,924.9,1176,924,1178.1,922.6z M1157.3,903c3.5,0.6,6.8,2.9,10.1,2.3l1.3-0.4c-3.4,2.2-3.6,7.4-6,11.2c-6,9.9-15.3-1.2-7-5.4 C1146.7,909.5,1150.5,901.4,1157.3,903z M1156.7,874.7c2.5,0.3,6,2.8,8.5,3.5l0.4,0.3c-1.4,1-2.8,2.4-4.2,3.8l-0.4,0.3 c-1.4,1.3-3.3,4.1-5.6,3.8c-2.4-0.2-2.8-2.1-2.1-3.8l0,0c0.4-0.8,1-1.5,1.7-2.1C1148.6,878.8,1152.4,874.3,1156.7,874.7z M1144.7,823.8c5.3,1.4,9.5,8.7,14.5,10.1h1.1c-4.2,3.5-10.9,5.9-16.2,7c-2.8,0.3-6.3,1.4-8.1-1.4c-3.5-4.5,3.2-5.6,6.3-7 C1135.5,829,1136.6,822,1144.7,823.8z M1144.7,764.6c5.3,1.4,9.5,8.7,14.5,10.1h1.1c-4.2,3.5-10.9,5.9-16.2,7 c-2.8,0.3-6.3,1.4-8.1-1.4c-3.5-4.5,3.2-5.6,6.3-7C1135.5,769.8,1136.6,762.8,1144.7,764.6z M1156,726.6c3.2,1.4,6,5.2,9.2,5.9 h1.4c-3.9,1.4-6,7.3-9.9,9.8c-9.9,5.6-13-7.3-4.2-8.4C1144.3,730.1,1149.6,723.8,1156,726.6z M1157.2,697.8 c2.4,0.7,5.6,3.1,8.1,3.7l0.3,0.3c-1.4,0.7-2.9,1.7-4.4,2.9l-0.4,0.3c-1.4,1.3-3.3,4.2-5.6,3.8c-2.4-0.2-2.8-2.1-2.1-3.8l0,0 c0.4-0.8,1-1.5,1.8-1.9C1148.7,701.1,1153,696.7,1157.2,697.8z M1156.7,756.2c2.5,0.3,6,2.8,8.5,3.5l0.4,0.3 c-1.4,1-2.8,2.4-4.2,3.8l-0.4,0.3c-1.4,1.3-3.3,4.1-5.6,3.8c-2.4-0.2-2.8-2.1-2.1-3.8l0,0c0.4-0.8,1-1.5,1.7-2.1 C1148.6,760.4,1152.4,755.8,1156.7,756.2z M1156,785.8c3.2,1.4,6,5.2,9.2,5.9h1.4c-3.9,1.4-6,7.3-9.9,9.8 c-9.9,5.6-13-7.3-4.2-8.4C1144.3,789.3,1149.6,783,1156,785.8z M1156.7,815.4c2.5,0.3,6,2.8,8.5,3.5l0.4,0.3 c-1.4,1-2.8,2.4-4.2,3.8l-0.4,0.3c-1.4,1.3-3.3,4.1-5.6,3.8c-2.4-0.2-2.8-2.1-2.1-3.8l0,0c0.4-0.8,1-1.5,1.7-2.1 C1148.6,819.6,1152.4,815.1,1156.7,815.4z M1156,845c3.2,1.4,6,5.2,9.2,5.9h1.4c-3.9,1.4-6,7.3-9.9,9.8c-9.9,5.6-13-7.3-4.2-8.4 C1144.3,848.5,1149.6,842.3,1156,845z M1154.7,655.7c1.3-6.7,7.2-2.7,10.4-1.4c-1.5-7.9,6.7-12.1,9.2-4c1.4,5.3-1.6,13,1.1,17.5 l0.7,0.8c-5.1-1.3-11.5-3.7-16.4-6.3C1157.4,660.7,1153.7,659.4,1154.7,655.7z M1159.8,676.9c-5.1-7.6,3.4-10,6.7-3.8 c1.7,2.9,2.4,7.1,4.9,9.2l1.2,0.7c-3.9-1.2-8,2.1-12.3,2.8C1148.8,687.7,1151.2,673.4,1159.8,676.9z M1142.3,687.9 c-4.7-5.7,1.5-12.9,5.9-6.9c2.6,3.6,4.2,10,7.2,12.6l0.3,0.4c-4.6,0-9.4,3.3-13.8,4.2c-3.9,0.4-6.1-0.5-6-5.5 C1135.8,688.1,1139,687,1142.3,687.9z M1142.2,714c-6.7-3.5-5.6-10.5,2.5-8.7c5.3,1.4,9.5,8.7,14.5,10.1h1.1 c-4.2,3.5-10.9,5.9-16.2,7c-2.8,0.3-6.3,1.4-8.1-1.4C1132.3,716.5,1139,715.4,1142.2,714z M1140.1,749.6 c-5.6-3.5-2.8-10.5,3.5-7.3c3.9,2.1,7.1,7.7,10.6,9.8l0.4,0.3c-4.6,1-8.8,4.9-13.1,5.9c-3.9,0.7-6,0-6.7-3.8 C1134.1,751,1136.6,749.6,1140.1,749.6z M1140.1,808.8c-5.6-3.5-2.8-10.5,3.5-7.3c3.9,2.1,7.1,7.7,10.6,9.8l0.4,0.3 c-4.6,1-8.8,4.9-13.1,5.9c-3.9,0.7-6,0-6.7-3.8C1134.1,810.2,1136.6,808.8,1140.1,808.8z M1140.1,868c-5.6-3.5-2.8-10.5,3.5-7.3 c3.9,2.1,7.1,7.7,10.6,9.8l0.4,0.3c-4.6,1-8.8,4.9-13.1,5.9c-3.9,0.7-6,0-6.7-3.8C1134.1,869.4,1136.6,868,1140.1,868z M1136.5,900.5c-4.2-5.4,2.7-7.2,5.7-8.7c-6.8-3.6-5.7-10.5,2.4-8.8c5.3,1.3,9.4,9,14.6,9.8l1.1,0c-4.2,3-10.5,6.3-15.5,8.2 C1142.1,901.8,1138.8,903.7,1136.5,900.5z M1152.1,939.1c-3.3-3.1-2.3-6,0.6-8c-7.2-0.2-8.8-9.5-1.4-9c4.5,0.3,10.3,3.5,14.3,2.7 l0.5,0c-3.2,3.6-3.7,9.3-5.9,13.2C1157.9,941.3,1155.9,942.2,1152.1,939.1z M1183,951.3c-0.8,2.7-1,6.6-4.9,6.7 c-6.8,0.7-4.6-6.2-4.2-9.6c-7.2,3.6-13.5-3.1-6.4-7.8c4.7-2.8,13-2.1,16.4-5.9l0.5-0.9C1184.7,939,1184.1,945.9,1183,951.3z M1197,947.1c-5.8,7.1-10.6-0.4-5.6-5.3c2.3-2.4,6.1-4.3,7.4-7.3l0.3-1.4c-0.1,4.1,4.3,7,6.2,11 C1210.5,954.5,1196.1,956.4,1197,947.1z M1217,966.3c-3.5,0.7-4.9-1.8-4.9-5.3c-3.3,5.7-12.5,2.3-7.9-3.8 c2.8-3.7,8.3-6.7,10.3-10.3l0.3-0.4c1,4.6,4.9,8.8,5.9,13.1C1221.6,963.4,1220.9,965.5,1217,966.3z M1224.7,946.1 c-1.7,6.3-6.3,2.5-5.9-1.8c0.3-2.5,2.8-6,3.5-8.5l0.3-0.4c1,1.4,2.4,2.8,3.8,4.2l0.3,0.4c1.3,1.4,4.1,3.3,3.8,5.6 c-0.2,2.4-2.1,2.8-3.8,2.1l0,0C1226,947.5,1225.2,946.9,1224.7,946.1z M1242.8,965.2c-4.5,3.5-5.6-3.2-7-6.3 c-3.5,6.7-10.5,5.6-8.7-2.5c1.4-5.3,8.7-9.5,10.1-14.5v-1.1c3.5,4.2,5.9,10.9,7,16.2C1244.6,959.9,1245.6,963.4,1242.8,965.2z M1255.7,948.6c-3.8,8.1-10.1,2.8-7.3-3.5c1.4-3.2,5.2-6,5.9-9.2v-1.4c1.4,3.9,7.3,6,9.8,9.9 C1269.6,954.3,1256.8,957.4,1255.7,948.6z M1276.3,966.3c-3.5,0.7-4.9-1.8-4.9-5.3c-3.5,5.6-10.5,2.8-7.3-3.5 c2.1-3.9,7.7-7.1,9.8-10.6l0.3-0.4c1,4.6,4.9,8.8,5.9,13.1C1280.8,963.4,1280.1,965.5,1276.3,966.3z M1283.9,946.1 c-1.7,6.3-6.3,2.5-5.9-1.8c0.3-2.5,2.8-6,3.5-8.5l0.3-0.4c1,1.4,2.4,2.8,3.8,4.2l0.3,0.4c1.3,1.4,4.2,3.3,3.8,5.6 c-0.2,2.4-2.1,2.8-3.8,2.1l0,0C1285.2,947.5,1284.5,946.9,1283.9,946.1z M1302,965.2c-4.5,3.5-5.6-3.2-7-6.3 c-3.5,6.7-10.5,5.6-8.7-2.5c1.4-5.3,8.7-9.5,10.1-14.5v-1.1c3.5,4.2,5.9,10.9,7,16.2C1303.8,959.9,1304.8,963.4,1302,965.2z M1314.8,948.4c-3.6,8.4-10.1,2.9-7.2-3.4c1.5-3.1,5.3-6,5.4-9.3l-0.1-1.4c1.1,4,6.1,5.5,9,8.9 C1329.8,951.8,1316.6,957.7,1314.8,948.4z M1341.1,960.1c-3.9,2.3-6.4,0.5-7.5-2.8c-2.3,6.9-11.6,5.8-9-1.2 c1.6-4.3,6.2-8.9,6.7-13l0.2-0.4c2.5,4.1,7.9,6.2,11,9.4C1344.9,955.2,1345.2,957.4,1341.1,960.1z M1342,938.9 c-0.8,0.1-1.8,0-2.6-0.4c1.8,6.5-4.3,5-5.6,1c-0.7-2.4-0.5-6.4-1.2-8.8l0.1-0.4c1.3,0.8,3,1.5,4.7,2.1l0.5,0.2 c1.7,0.7,4.8,0.7,5.9,2.7C1345.1,937.1,1343.9,938.7,1342,938.9z M1366.6,940.5c-1.3,6.7-7.2,2.7-10.4,1.4 c1.5,7.9-6.7,12.1-9.2,4c-1.4-5.3,1.6-13-1.1-17.4l-0.7-0.8c5.1,1.3,11.5,3.7,16.4,6.3C1363.9,935.5,1367.6,936.7,1366.6,940.5z"/>
    <path fill="#FFFFFF" d="M1379.5,898c-4.4,0.9-9.2,4.2-13.8,4.2l0.3,0.4c3.1,2.6,4.6,9,7.2,12.6c4.4,6,10.6-1.3,5.9-6.9 c3.3,0.9,6.5-0.2,6.4-4.8C1385.5,898.5,1383.4,897.6,1379.5,898z"/>
    <path fill="#57BFB2" d="M1366.3,893.1c0.8-0.5,1.4-1.2,1.8-1.9l0,0c0.8-1.7,0.3-3.6-2.1-3.8c-2.2-0.3-4.2,2.5-5.6,3.8l-0.4,0.3 c-1.5,1.1-2.9,2.2-4.4,2.9l0.3,0.3c2.5,0.7,5.7,3.1,8.1,3.7C1368.3,899.4,1372.7,895.1,1366.3,893.1z"/>
    <path fill="#F4C336" d="M1345.2,927.6l0.7,0.8c2.7,4.4-0.3,12.2,1.1,17.4c2.5,8.1,10.7,3.9,9.2-4c3.2,1.3,9.1,5.4,10.4-1.4 c1-3.7-2.6-5-5-6.6C1356.7,931.3,1350.2,928.8,1345.2,927.6z"/>
    <path fill="#F7A33E" d="M1348.7,913.2l1.2,0.7c2.5,2,3.2,6.3,4.9,9.2c1.6,3,4.5,4,6.4,3.3c2-0.7,2.9-3.3,0.3-7.1 c8.6,3.5,11-10.8-0.5-8.9c-3.2,0.5-6.2,2.4-9.1,2.9C1350.8,913.6,1349.7,913.6,1348.7,913.2z"/>
    <path fill="#57BFB2" d="M1337.9,932.4l-0.5-0.2c-1.7-0.6-3.4-1.3-4.7-2.1l-0.1,0.4c0.7,2.4,0.5,6.4,1.2,8.8c1.3,4,7.4,5.5,5.6-1 c0.8,0.4,1.8,0.5,2.6,0.4c1.9-0.1,3-1.7,1.8-3.8C1342.7,933.1,1339.6,933.1,1337.9,932.4z"/>
    <path fill="#FFFFFF" d="M1331.5,942.7l-0.2,0.4c-0.5,4.1-5.1,8.7-6.7,13c-2.6,7,6.7,8,9,1.2c1.1,3.3,3.6,5.1,7.5,2.8 c4.1-2.7,3.8-5,1.3-8.1C1339.4,948.9,1334,946.8,1331.5,942.7z"/>
    <path fill="#F4C336" d="M1296.5,940.9v1.1c-1.4,4.9-8.7,9.2-10.1,14.5c-1.7,8.1,5.2,9.2,8.7,2.5c1.4,3.2,2.4,9.9,7,6.3 c2.8-1.8,1.7-5.3,1.4-8.1C1302.4,951.8,1300,945.1,1296.5,940.9z"/>
    <path fill="#F7A33E" d="M1322,943.3c-3-3.4-7.9-4.9-9-8.9l0.1,1.4c-0.2,3.3-4,6.1-5.4,9.3c-2.8,6.3,3.6,11.8,7.2,3.4 C1316.6,957.7,1329.8,951.8,1322,943.3z"/>
    <path fill="#57BFB2" d="M1289.9,945.8c0.3-2.2-2.5-4.2-3.8-5.6l-0.3-0.4c-1.4-1.4-2.8-2.8-3.8-4.2l-0.3,0.4 c-0.7,2.5-3.1,6-3.5,8.5c-0.3,4.2,4.2,8.1,5.9,1.8c0.5,0.8,1.3,1.4,2.1,1.7l0,0C1287.7,948.6,1289.6,948.2,1289.9,945.8z"/>
    <path fill="#FFFFFF" d="M1274.2,946.5l-0.3,0.4c-2.1,3.5-7.7,6.7-9.8,10.6c-3.1,6.3,3.8,9.2,7.3,3.5c0,3.5,1.4,6,4.9,5.3 c3.8-0.7,4.5-2.8,3.8-6.7C1279.1,955.3,1275.2,951.1,1274.2,946.5z"/>
    <path fill="#F4C336" d="M1237.2,940.9v1.1c-1.4,4.9-8.7,9.2-10.1,14.5c-1.7,8.1,5.2,9.2,8.7,2.5c1.4,3.2,2.4,9.9,7,6.3 c2.8-1.8,1.7-5.3,1.4-8.1C1243.2,951.8,1240.7,945.1,1237.2,940.9z"/>
    <path fill="#F7A33E" d="M1264.1,944.4c-2.4-3.9-8.4-6-9.8-9.9v1.4c-0.7,3.2-4.5,6-5.9,9.2c-2.8,6.3,3.5,11.6,7.3,3.5 C1256.8,957.4,1269.6,954.3,1264.1,944.4z"/>
    <path fill="#57BFB2" d="M1230.6,945.8c0.3-2.2-2.5-4.2-3.8-5.6l-0.3-0.4c-1.4-1.4-2.8-2.8-3.8-4.2l-0.3,0.4 c-0.7,2.5-3.1,6-3.5,8.5c-0.3,4.2,4.2,8.1,5.9,1.8c0.5,0.8,1.3,1.4,2.1,1.7l0,0C1228.5,948.6,1230.4,948.2,1230.6,945.8z"/>
    <path fill="#FFFFFF" d="M1214.9,946.5l-0.3,0.4c-2.1,3.6-7.5,6.6-10.3,10.3c-4.6,6.1,4.6,9.5,7.9,3.8c0,3.5,1.4,6,4.9,5.3 c3.8-0.7,4.5-2.8,3.8-6.7C1219.8,955.3,1216,951.1,1214.9,946.5z"/>
    <path fill="#F4C336" d="M1183.9,934.7c-3.5,3.9-11.8,3.2-16.4,5.9c-7.1,4.7-0.8,11.4,6.4,7.8c-0.4,3.4-2.6,10.3,4.2,9.6 c3.9-0.1,4-3.9,4.9-6.7c1.1-5.4,1.7-12.3,1.5-17.5L1183.9,934.7z"/>
    <path fill="#F7A33E" d="M1205.3,944.2c-1.9-4-6.2-6.9-6.2-11l-0.3,1.4c-1.3,3-5.1,4.9-7.4,7.3c-5,4.9-0.2,12.4,5.6,5.3 C1196.1,956.4,1210.5,954.5,1205.3,944.2z"/>
    <path fill="#FFFFFF" d="M1165.6,924.9c-4.1,0.7-9.8-2.4-14.3-2.7c-7.4-0.5-5.8,8.7,1.4,9c-2.9,2-3.9,4.9-0.6,8 c3.8,3.2,5.9,2.3,8.1-1c2.2-3.8,2.7-9.6,5.9-13.2L1165.6,924.9z"/>
    <path fill="#57BFB2" d="M1172.5,931.4c-0.2,0.9,0,1.8,0.3,2.6l0,0c0.7,1.8,2.5,2.4,4.1,0.6c1.6-1.7,0.7-4.6,0.9-6.4l0.1-0.5 c0.1-1.8,0.2-3.6,0.7-5.1l-0.4,0.1c-2.1,1.4-6,2.3-8.1,3.6C1166.5,928.7,1166.8,935,1172.5,931.4z"/>
    <path fill="#F4C336" d="M1159.2,892.9c-5.1-0.8-9.2-8.6-14.6-9.8c-8.1-1.7-9.2,5.2-2.4,8.8c-3,1.5-9.9,3.3-5.7,8.7 c2.3,3.2,5.5,1.3,8.3,0.5c5-2,11.3-5.2,15.5-8.2L1159.2,892.9z"/>
    <path fill="#F7A33E" d="M1162.8,916c2.3-3.8,2.5-9,6-11.2l-1.3,0.4c-3.3,0.6-6.7-1.7-10.1-2.3c-6.8-1.6-10.6,6.5-1.4,7.6 C1147.5,914.8,1156.8,925.9,1162.8,916z"/>
    <path fill="#FFFFFF" d="M1141.5,876.8c4.2-1,8.5-4.9,13.1-5.9l-0.4-0.3c-3.5-2.1-6.7-7.7-10.6-9.8c-6.3-3.1-9.2,3.8-3.5,7.3 c-3.5,0-6,1.4-5.3,4.9C1135.5,876.8,1137.6,877.5,1141.5,876.8z"/>
    <path fill="#57BFB2" d="M1153.2,882.7L1153.2,882.7c-0.8,1.7-0.3,3.6,2.1,3.8c2.2,0.3,4.2-2.5,5.6-3.8l0.4-0.3 c1.4-1.4,2.8-2.8,4.2-3.8l-0.4-0.3c-2.5-0.7-6-3.1-8.5-3.5c-4.2-0.3-8.1,4.2-1.8,5.9C1154.1,881.1,1153.5,881.9,1153.2,882.7z"/>
    <path fill="#F4C336" d="M1135.9,839.5c1.8,2.8,5.3,1.7,8.1,1.4c5.3-1,12-3.5,16.2-7h-1.1c-4.9-1.4-9.2-8.7-14.5-10.1 c-8.1-1.7-9.2,5.2-2.5,8.7C1139,833.9,1132.3,834.9,1135.9,839.5z"/>
    <path fill="#F7A33E" d="M1156.7,860.7c3.9-2.4,6-8.4,9.9-9.8h-1.4c-3.2-0.7-6-4.5-9.2-5.9c-6.3-2.8-11.6,3.5-3.5,7.3 C1143.6,853.4,1146.8,866.3,1156.7,860.7z"/>
    <path fill="#FFFFFF" d="M1141.5,817.5c4.2-1,8.5-4.9,13.1-5.9l-0.4-0.3c-3.5-2.1-6.7-7.7-10.6-9.8c-6.3-3.1-9.2,3.8-3.5,7.3 c-3.5,0-6,1.4-5.3,4.9C1135.5,817.5,1137.6,818.2,1141.5,817.5z"/>
    <path fill="#57BFB2" d="M1154.9,821.3c-0.8,0.5-1.4,1.3-1.7,2.1l0,0c-0.8,1.7-0.3,3.6,2.1,3.8c2.2,0.3,4.2-2.5,5.6-3.8l0.4-0.3 c1.4-1.4,2.8-2.8,4.2-3.8l-0.4-0.3c-2.5-0.7-6-3.1-8.5-3.5C1152.4,815.1,1148.6,819.6,1154.9,821.3z"/>
    <path fill="#F4C336" d="M1135.9,780.2c1.8,2.8,5.3,1.7,8.1,1.4c5.3-1,12-3.5,16.2-7h-1.1c-4.9-1.4-9.2-8.7-14.5-10.1 c-8.1-1.7-9.2,5.2-2.5,8.7C1139,774.7,1132.3,775.7,1135.9,780.2z"/>
    <path fill="#F7A33E" d="M1156.7,801.5c3.9-2.4,6-8.4,9.9-9.8h-1.4c-3.2-0.7-6-4.5-9.2-5.9c-6.3-2.8-11.6,3.5-3.5,7.3 C1143.6,794.2,1146.8,807.1,1156.7,801.5z"/>
    <path fill="#FFFFFF" d="M1141.5,758.3c4.2-1,8.5-4.9,13.1-5.9l-0.4-0.3c-3.5-2.1-6.7-7.7-10.6-9.8c-6.3-3.1-9.2,3.8-3.5,7.3 c-3.5,0-6,1.4-5.3,4.9C1135.5,758.3,1137.6,759,1141.5,758.3z"/>
    <path fill="#57BFB2" d="M1154.9,762.1c-0.8,0.5-1.4,1.3-1.7,2.1l0,0c-0.8,1.7-0.3,3.6,2.1,3.8c2.2,0.3,4.2-2.5,5.6-3.8l0.4-0.3 c1.4-1.4,2.8-2.8,4.2-3.8l-0.4-0.3c-2.5-0.7-6-3.1-8.5-3.5C1152.4,755.8,1148.6,760.4,1154.9,762.1z"/>
    <path fill="#F4C336" d="M1144,722.4c5.3-1,12-3.5,16.2-7h-1.1c-4.9-1.4-9.2-8.7-14.5-10.1c-8.1-1.7-9.2,5.2-2.5,8.7 c-3.2,1.4-9.9,2.4-6.3,7C1137.6,723.8,1141.2,722.7,1144,722.4z"/>
    <path fill="#F7A33E" d="M1156.7,742.3c3.9-2.4,6-8.4,9.9-9.8h-1.4c-3.2-0.7-6-4.5-9.2-5.9c-6.3-2.8-11.6,3.5-3.5,7.3 C1143.6,734.9,1146.8,747.8,1156.7,742.3z"/>
    <path fill="#FFFFFF" d="M1141.9,698.2c4.4-0.9,9.2-4.2,13.8-4.2l-0.3-0.4c-3.1-2.6-4.6-9-7.2-12.6c-4.4-6-10.6,1.3-5.9,6.9 c-3.3-0.9-6.5,0.2-6.4,4.8C1135.8,697.6,1137.9,698.6,1141.9,698.2z"/>
    <path fill="#57BFB2" d="M1153.2,705L1153.2,705c-0.8,1.7-0.3,3.6,2.1,3.8c2.2,0.3,4.2-2.5,5.6-3.8l0.4-0.3 c1.5-1.1,2.9-2.2,4.4-2.9l-0.3-0.3c-2.5-0.7-5.7-3.1-8.1-3.7c-4.2-1.1-8.6,3.3-2.2,5.2C1154.2,703.5,1153.6,704.2,1153.2,705z"/>
    <path fill="#F4C336" d="M1159.8,662.2c4.9,2.6,11.3,5.1,16.4,6.3l-0.7-0.8c-2.7-4.4,0.3-12.2-1.1-17.5c-2.5-8.1-10.7-3.9-9.2,4 c-3.2-1.3-9.1-5.4-10.4,1.4C1153.7,659.4,1157.4,660.7,1159.8,662.2z"/>
    <path fill="#F7A33E" d="M1160.3,685.7c4.3-0.7,8.4-4,12.3-2.8l-1.2-0.7c-2.5-2-3.2-6.3-4.9-9.2c-3.3-6.2-11.8-3.7-6.7,3.8 C1151.2,673.4,1148.8,687.7,1160.3,685.7z"/>
    <path fill="#FFFFFF" d="M1187.7,638.8c-1.1-3.3-3.6-5.1-7.5-2.8c-4.1,2.7-3.8,5-1.3,8.1c3.1,3.2,8.4,5.3,11,9.4l0.2-0.4 c0.5-4.1,5.1-8.7,6.7-13C1199.3,633.1,1190,632,1187.7,638.8z"/>
    <path fill="#57BFB2" d="M1181.9,657.7c-0.8-0.4-1.8-0.5-2.6-0.4c-1.9,0.1-3,1.7-1.8,3.8c1.2,2,4.2,2,5.9,2.7l0.5,0.2 c1.7,0.6,3.4,1.3,4.7,2.1l0,0l0.1-0.4c-0.7-2.4-0.5-6.4-1.2-8.8c-1-3-4.6-4.6-5.7-2.5C1181.4,655,1181.4,656.1,1181.9,657.7z"/>
    <path fill="#F4C336" d="M1226.2,637.3c-1.4-3.2-2.4-9.9-7-6.3c-2.8,1.8-1.7,5.3-1.4,8.1c1,5.3,3.5,12,7,16.2v-1.1 c1.4-4.9,8.7-9.2,10.1-14.5C1236.7,631.7,1229.7,630.6,1226.2,637.3z"/>
    <path fill="#F7A33E" d="M1206.5,647.7c-1.7-9.3-15-3.3-7.2,5.1c3,3.4,7.9,4.9,9,8.9l-0.1-1.4c0.2-3.3,4-6.1,5.4-9.3 C1216.5,644.8,1210.1,639.3,1206.5,647.7z"/>
    <path fill="#FFFFFF" d="M1249.9,635.2c0-3.5-1.4-6-4.9-5.3c-3.8,0.7-4.5,2.8-3.8,6.7c1,4.2,4.9,8.5,5.9,13l0.3-0.4 c2.1-3.5,7.7-6.7,9.8-10.6C1260.4,632.4,1253.4,629.5,1249.9,635.2z"/>
    <path fill="#57BFB2" d="M1237.4,650c-0.5-0.8-1.3-1.4-2.1-1.7v0c-1.7-0.8-3.6-0.3-3.8,2.1c-0.3,2.2,2.5,4.2,3.8,5.6l0.3,0.4 c1.4,1.4,2.8,2.8,3.8,4.2l0.3-0.4c0.7-2.5,3.1-6,3.5-8.5C1243.7,647.5,1239.1,643.7,1237.4,650z"/>
    <path fill="#F4C336" d="M1285.5,637.3c-1.4-3.2-2.4-9.9-7-6.3c-2.8,1.8-1.7,5.3-1.4,8.1c1,5.3,3.5,12,7,16.2v-1.1 c1.4-4.9,8.7-9.2,10.1-14.5C1295.9,631.7,1289,630.6,1285.5,637.3z"/>
    <path fill="#F7A33E" d="M1265.6,647.5c-1-8.8-13.9-5.6-8.4,4.2c2.4,3.9,8.4,6,9.8,9.9v-1.4c0.7-3.2,4.5-6,5.9-9.2 C1275.7,644.7,1269.4,639.4,1265.6,647.5z"/>
    <path fill="#FFFFFF" d="M1317.1,639c4.6-6.1-4.6-9.5-7.9-3.8c0-3.5-1.4-6-4.9-5.3c-3.8,0.7-4.5,2.8-3.8,6.7c1,4.2,4.9,8.5,5.9,13 l0.3-0.4C1308.8,645.7,1314.3,642.7,1317.1,639z"/>
    <path fill="#57BFB2" d="M1296.6,650c-0.5-0.8-1.3-1.4-2.1-1.7v0c-1.7-0.8-3.6-0.3-3.8,2.1c-0.3,2.2,2.5,4.2,3.8,5.6l0.3,0.4 c1.4,1.4,2.8,2.8,3.8,4.2l0.3-0.4c0.7-2.5,3.1-6,3.5-8.5C1302.9,647.5,1298.4,643.7,1296.6,650z"/>
    <path fill="#F4C336" d="M1347.4,647.7c0.4-3.4,2.6-10.3-4.2-9.6c-3.9,0.1-4,3.9-4.9,6.7c-1.1,5.4-1.7,12.3-1.5,17.5l0.5-0.9 c3.5-3.9,11.8-3.2,16.4-5.9C1360.9,650.8,1354.6,644.1,1347.4,647.7z"/>
    <path fill="#F7A33E" d="M1324.3,649c0.9-9.3-13.5-7.4-8.4,3c1.9,4,6.2,6.9,6.2,11l0.3-1.4c1.3-3,5.1-4.9,7.4-7.3 C1334.9,649.5,1330.1,641.9,1324.3,649z"/>
    <path fill="#FFFFFF" d="M1355.7,671.3c4.1-0.7,9.8,2.4,14.3,2.7c7.4,0.5,5.8-8.7-1.4-9c2.9-2,3.9-4.9,0.6-8 c-3.8-3.2-5.9-2.3-8.1,1c-2.2,3.8-2.7,9.6-5.9,13.2L1355.7,671.3z"/>
    <path fill="#57BFB2" d="M1348.9,664.8c0.2-0.9,0-1.8-0.3-2.6v0c-0.7-1.8-2.5-2.4-4.1-0.6c-1.6,1.7-0.7,4.6-0.9,6.4l-0.1,0.5 c-0.1,1.8-0.2,3.6-0.7,5.1l0.4-0.1c2.1-1.4,6-2.3,8.1-3.6C1354.9,667.5,1354.6,661.2,1348.9,664.8z"/>
    <path fill="#F4C336" d="M1362.1,703.3c5.1,0.8,9.2,8.6,14.6,9.8c8.1,1.7,9.2-5.2,2.4-8.8c3-1.5,9.9-3.3,5.7-8.7 c-2.3-3.2-5.5-1.3-8.3-0.5c-5,2-11.3,5.2-15.5,8.2L1362.1,703.3z"/>
    <path fill="#F7A33E" d="M1364,693.2c6.8,1.6,10.6-6.5,1.4-7.6c8.3-4.2-1-15.4-7-5.4c-2.3,3.8-2.5,9-6,11.2l1.3-0.4 C1357.2,690.3,1360.5,692.6,1364,693.2z"/>
    <path fill="#FFFFFF" d="M1379.8,719.4c-4.2,1-8.5,4.9-13.1,5.9l0.4,0.3c3.5,2.1,6.7,7.7,10.6,9.8c6.3,3.1,9.2-3.8,3.5-7.3 c3.5,0,6-1.4,5.3-4.9C1385.8,719.4,1383.7,718.7,1379.8,719.4z"/>
    <path fill="#57BFB2" d="M1366.4,715.6c0.8-0.5,1.4-1.3,1.7-2.1l0,0c0.8-1.7,0.3-3.6-2.1-3.8c-2.2-0.3-4.2,2.5-5.6,3.8l-0.4,0.3 c-1.4,1.4-2.8,2.8-4.2,3.8l0.4,0.3c2.5,0.7,6,3.1,8.5,3.5C1368.9,721.8,1372.8,717.3,1366.4,715.6z"/>
    <path fill="#F4C336" d="M1385.5,756.7c-1.8-2.8-5.3-1.7-8.1-1.4c-5.3,1-12,3.5-16.2,7h1.1c4.9,1.4,9.2,8.7,14.5,10.1 c8.1,1.7,9.2-5.2,2.5-8.7C1382.3,762.3,1389,761.2,1385.5,756.7z"/>
    <path fill="#F7A33E" d="M1364.6,735.4c-3.9,2.4-6,8.4-9.9,9.8h1.4c3.2,0.7,6,4.5,9.2,5.9c6.3,2.8,11.6-3.5,3.5-7.3 C1377.7,742.7,1374.5,729.9,1364.6,735.4z"/>
    <path fill="#FFFFFF" d="M1379.8,778.6c-4.2,1-8.5,4.9-13.1,5.9l0.4,0.3c3.5,2.1,6.7,7.7,10.6,9.8c6.3,3.1,9.2-3.8,3.5-7.3 c3.5,0,6-1.4,5.3-4.9C1385.8,778.6,1383.7,777.9,1379.8,778.6z"/>
    <path fill="#57BFB2" d="M1366.4,774.8c0.8-0.5,1.4-1.3,1.7-2.1l0,0c0.8-1.7,0.3-3.6-2.1-3.8c-2.2-0.3-4.2,2.5-5.6,3.8l-0.4,0.3 c-1.4,1.4-2.8,2.8-4.2,3.8l0.4,0.3c2.5,0.7,6,3.1,8.5,3.5C1368.9,781.1,1372.8,776.5,1366.4,774.8z"/>
    <path fill="#F4C336" d="M1385.5,815.9c-1.8-2.8-5.3-1.7-8.1-1.4c-5.3,1-12,3.5-16.2,7h1.1c4.9,1.4,9.2,8.7,14.5,10.1 c8.1,1.7,9.2-5.2,2.5-8.7C1382.3,821.5,1389,820.5,1385.5,815.9z"/>
    <path fill="#F7A33E" d="M1364.6,794.7c-3.9,2.4-6,8.4-9.9,9.8h1.4c3.2,0.7,6,4.5,9.2,5.9c6.3,2.8,11.6-3.5,3.5-7.3 C1377.7,802,1374.5,789.1,1364.6,794.7z"/>
    <path fill="#FFFFFF" d="M1379.8,837.9c-4.2,1-8.5,4.9-13.1,5.9l0.4,0.3c3.5,2.1,6.7,7.7,10.6,9.8c6.3,3.1,9.2-3.8,3.5-7.3 c3.5,0,6-1.4,5.3-4.9C1385.8,837.9,1383.7,837.2,1379.8,837.9z"/>
    <path fill="#57BFB2" d="M1368.1,832L1368.1,832c0.8-1.7,0.3-3.6-2.1-3.8c-2.2-0.3-4.2,2.5-5.6,3.8l-0.4,0.3 c-1.4,1.4-2.8,2.8-4.2,3.8l0.4,0.3c2.5,0.7,6,3.1,8.5,3.5c4.2,0.3,8.1-4.2,1.8-5.9C1367.2,833.5,1367.8,832.7,1368.1,832z"/>
    <path fill="#F4C336" d="M1377.3,873.8c-5.3,1-12,3.5-16.2,7h1.1c4.9,1.4,9.2,8.7,14.5,10.1c8.1,1.7,9.2-5.2,2.5-8.7 c3.2-1.4,9.9-2.4,6.3-7C1383.7,872.4,1380.2,873.4,1377.3,873.8z"/>
    <path fill="#F7A33E" d="M1365.3,869.6c6.3,2.8,11.6-3.5,3.5-7.3c8.8-1,5.6-13.9-4.2-8.4c-3.9,2.4-6,8.4-9.9,9.8h1.4 C1359.4,864.4,1362.2,868.2,1365.3,869.6z"/>
  </g>
</svg>