<?xml version="1.0" encoding="utf-8"?>
<svg viewBox="-187.565 237.3 333 411.7" xmlns="http://www.w3.org/2000/svg">
  <g transform="matrix(1, 0, 0, 1, -279.565216, -241.799988)">
    <path fill="#BB85BB" d="M261.7,507.1c-1.3,0-2.7,0.1-4,0.2l-0.2,0l-0.2,0c-1.3-0.1-2.6-0.2-4-0.2c-22.1,0-50,14.9-72.7,38.8 c-20.6,21.7-54.7,69.7-50.6,146.8c13.3,166.8,122.8,168.8,127.5,168.8h0.1c4.7,0,114.2-1.9,127.5-168.8c4-77-30-125-50.7-146.7 C311.7,522,283.9,507.1,261.7,507.1z M376.1,692.1c-12.5,157.2-118.5,156.1-118.5,156.1s-106,1.1-118.5-156.1 c-5.8-111.2,75.2-175.4,118.5-171.6C301,516.7,381.9,580.9,376.1,692.1z"/>
    <path fill="#BB85BB" d="M408.3,647.8c0,0,0.7-9.4-6.1-19.2c-3.7-5.3-8.9-6.6-12.8-6.6c-12.8-49-40.7-85.4-69.9-107 c-2.1-19.5-25.6-19.6-25.6-19.6s-2.5-16.3-36.3-16.3c-33.7,0-38.2,16.6-38.2,16.6s-9.4-0.7-19.2,6.1c-6.2,4.4-6.9,10.6-6.5,14.6 c-28.4,21.7-55.3,57.5-67.8,105.2c-3.3,0.3-7.6,1.8-11.1,6.8c-6.9,9.8-6.1,19.2-6.1,19.2S92,652.3,92,686 c0,33.7,16.3,36.3,16.3,36.3s0.1,23.1,19.1,25.5c14,56.7,40.7,88.3,66.3,106c-0.3,4,0.5,10,6.5,14.3c9.8,6.9,19.2,6.1,19.2,6.1 s4.5,16.6,38.2,16.6c33.7,0,36.3-16.3,36.3-16.3s23.4-0.1,25.6-19.4c26.2-17.4,53.9-49.1,68.3-107.2c20.8-1.2,20.9-25.7,20.9-25.7 s16.3-2.5,16.3-36.3C424.9,652.3,408.3,647.8,408.3,647.8z M257.6,865.8C257.6,865.8,257.6,865.8,257.6,865.8L257.6,865.8 c-4.9,0-118.3-2-131.9-172.8c-4.1-78.8,30.7-127.8,51.8-150.1c23.5-24.8,52.6-40.2,75.9-40.2c1.4,0,2.8,0.1,4.1,0.2 c1.4-0.1,2.7-0.2,4.1-0.2c23.3,0,52.4,15.4,75.9,40.2c21.1,22.2,55.9,71.3,51.8,150C375.8,863.9,262.5,865.8,257.6,865.8z"/>
  </g>
</svg>