<?xml version="1.0" encoding="utf-8"?>
<svg viewBox="-3098.403 891.613 330.703 194.7" xmlns="http://www.w3.org/2000/svg">
  <g transform="matrix(1, 0, 0, 1, -4014.700439, 349.613495)">
    <path fill-rule="evenodd" clip-rule="evenodd" fill="#8BBD02" d="M971.9,611.5l123.2-8.9l92.9-25.6l59,136.8l-117.5,13.5l-0.6,1.8 c0,0-3.3,1.4-6,0.4c-2.7-1-3.3-3.8-3.3-3.8l-124.3,10.9L971.9,611.5z"/>
    <path fill-rule="evenodd" clip-rule="evenodd" fill="#5A8A00" d="M1126.1,721.2l-4.8,0.5l1.5,3.6l0.8,0c0.5,2.2,3.8,2.2,3.8,2.2 l1.1-1.9L1126.1,721.2z"/>
    <polygon fill-rule="evenodd" clip-rule="evenodd" fill="#EBDD96" points="1003.5,725.1 1004.1,721.8 1008.3,717.9 1008.3,714.8 &#10;&#9;&#9;1012.2,708.9 985.1,588 983.4,590.6 983.2,593.9 981.1,595.7 978.7,600.3 &#9;"/>
    <path fill-rule="evenodd" clip-rule="evenodd" fill="#FFF2B0" d="M1122.1,723.9l2-0.2c0,0-11.9-14.5-44.5-18.2 c-32.7-3.7-62.9-5-62.9-5l-4.4,8.4l-3.9,5.8l-0.1,3.1l-4.2,3.9l-0.6,3.3c0,0,14.5-1.3,43.8-3.8 C1076.6,718.8,1113.1,719.5,1122.1,723.9L1122.1,723.9z"/>
    <path fill-rule="evenodd" clip-rule="evenodd" fill="#FFFCED" d="M985.1,588l27.2,121c0,0,3.8-0.2,9.9-0.4 c12.5-0.4,29.3,1.4,48.3,1.6c16.6,0.2,39.3,5.7,45.8,8.9c4.8,2.3,8,4.5,8,4.5l-37.1-120.4c0,0-18-10.7-53.8-13.7 C997.5,586.6,985.1,588,985.1,588L985.1,588z"/>
    <path fill-rule="evenodd" clip-rule="evenodd" fill="#FFF7D1" d="M1021.9,692.8c0,0,24.5,1.6,50.2,6.8c25.7,5.3,33.4,9.1,40.9,14.2 s11.3,9.7,11.3,9.7l-37.1-120.4c0,0-5.7-12.8-41.8-24.9c-36.1-12-50.6-11.8-50.6-11.8L1021.9,692.8z"/>
    <path fill-rule="evenodd" clip-rule="evenodd" fill="#A3E000" d="M1076.5,592.9c-6.3-4.3-16.1-9.5-31.2-14.5 c-17.1-5.7-29.3-8.6-37.5-10.1l7.8,35.1l9,8.3l-1.5-7l2.7,0.4l2.8,12.9c1.4,0.2,2.9,0.4,4.5,0.6c-1.7-0.8-3.1-2.5-3.5-4.4 c-0.5-2.5,0.7-4.1,3.3-3.8c2.5,0.3,4.7,2.5,5.2,4.9c0.3,1.4,0.1,2.9-1.4,3.6c1.4,0.1,2.9,0.1,4.4,0.1c0,0,0,0-0.1-0.1 c-0.2-0.4-0.5-1.1-0.7-2l-0.7-3.2l-1.1-0.1l-0.5-2.1l1.1,0.1l-0.5-2.3l2.7,0l0.6,2.8l1.8,0.2l0.5,2.1l-1.8-0.2l0.7,3.4 c0.1,0.7,0.3,1.2,0.6,1.5c0.9-0.1,1.8-0.1,2.7-0.2c-0.5-0.7-0.8-1.4-1-2.2c-0.5-2.4,0.9-4.3,3.5-3.9c2.3,0.3,4.4,2.3,4.5,4.7 l-0.1,0.3C1065.6,614.2,1073.8,605.1,1076.5,592.9L1076.5,592.9z M1020.6,616.1c1.7,0.5,4.3,1.1,7.5,1.6l-8.8-8L1020.6,616.1z M1049.1,618.3c1.4-0.2,2.8-0.5,4.2-0.8l-5.1-0.5C1048.3,617.4,1048.6,617.9,1049.1,618.3L1049.1,618.3z M1032.6,614.3 c0.2,1,0.9,2.3,2,2.5c1.2,0.1,1.2-1.3,1-2.1c-0.2-1-0.9-2.3-2-2.5C1032.4,612.1,1032.4,613.5,1032.6,614.3L1032.6,614.3z M1048,615.7l3.3,0.3c-0.2-0.9-0.9-1.6-1.8-1.7C1048.5,614.2,1047.9,614.7,1048,615.7L1048,615.7z"/>
    <path fill-rule="evenodd" clip-rule="evenodd" fill="#FEFEFE" d="M1124.6,724.7c-0.6-1-0.5-1-0.5-1l52.4-23l63.1-1.3l3.4,7.7 l2.2,5.3c0,0-116.5,13.6-117.8,13.6C1126.7,726.1,1125.3,725.6,1124.6,724.7L1124.6,724.7z"/>
    <path fill-rule="evenodd" clip-rule="evenodd" fill="#FFF7D1" d="M1244.1,709.8l-4.2-0.8l-1.9-1.6c-14.3,0.7-55.8,2.8-73.9,5.8 c-22,3.7-39.9,10.4-39.9,10.4l-37.1-120.4c0,0,35.6-15.2,62.5-20.7c26.8-5.5,36.9-5.5,36.9-5.5L1244.1,709.8z"/>
    <polygon fill-rule="evenodd" clip-rule="evenodd" fill="#FFFCED" points="1087.1,603.2 1184.7,542 1227.5,661.6 1124.3,723.6 &#9;"/>
    <g>
      <defs>
        <polygon id="SVGID_1_" points="1087.1,603.2 1184.7,542 1227.5,661.6 1124.3,723.6 &#9;&#9;&#9;"/>
      </defs>
      <clipPath id="SVGID_2_">
        <polygon points="1087.1,603.2 1184.7,542 1227.5,661.6 1124.3,723.6 &#9;&#9;&#9;" transform="matrix(1, 0, 0, 1, 0, 0)" overflow="visible"/>
      </clipPath>
      <rect x="927.3" y="599.3" clip-path="url(#SVGID_2_)" fill="none" stroke="#221F20" stroke-width="0.5102" stroke-miterlimit="10" width="109.1" height="98.5"/>
    </g>
    <polygon fill-rule="evenodd" clip-rule="evenodd" fill="#A3E000" points="925.5,585.3 971.9,611.5 995.3,736.7 945.3,721.9 &#9;"/>
    <polygon fill="#FFF7D1" points="1102.7,593.4 1184.7,542 1171.9,568.8 1108.4,609.2 &#9;"/>
    <polygon fill="#CCCCCC" points="1109.8,613 1173.3,572.6 1173.6,573 1110.1,613.4 &#9;"/>
    <polygon fill="#CCCCCC" points="1114.8,627.9 1178.3,587.6 1178.6,588 1115.1,628.3 &#9;"/>
    <polygon fill="#CCCCCC" points="1116,631.3 1179.4,590.9 1179.8,591.3 1116.3,631.7 &#9;"/>
    <polygon fill="#CCCCCC" points="1117.1,634.6 1180.6,594.3 1180.9,594.7 1117.5,635 &#9;"/>
    <polygon fill="#CCCCCC" points="1118.3,638 1181.8,597.6 1182.1,598 1118.6,638.4 &#9;"/>
    <polygon fill="#CCCCCC" points="1119.5,641.3 1183,601 1183.3,601.4 1119.8,641.7 &#9;"/>
    <polygon fill="#CCCCCC" points="1120.6,644.7 1184.1,604.3 1184.4,604.7 1121,645.1 &#9;"/>
    <polygon fill="#CCCCCC" points="1121.8,648 1185.3,607.7 1185.6,608.1 1122.1,648.4 &#9;"/>
    <polygon fill="#CCCCCC" points="1123,651.4 1186.5,611 1186.8,611.4 1123.3,651.8 &#9;"/>
    <polygon fill="#CCCCCC" points="1124.1,654.7 1187.6,614.4 1187.9,614.8 1124.5,655.1 &#9;"/>
    <polygon fill="#CCCCCC" points="1125.3,658.1 1188.8,617.7 1189.1,618.1 1125.6,658.5 &#9;"/>
    <polygon fill="#CCCCCC" points="1126.5,661.5 1190,621.1 1190.3,621.5 1126.8,661.8 &#9;"/>
    <polygon fill="#CCCCCC" points="1127.6,664.8 1191.1,624.4 1191.5,624.8 1128,665.2 &#9;"/>
    <polygon fill="#CCCCCC" points="1128.8,668.1 1192.3,627.8 1192.6,628.2 1129.1,668.5 &#9;"/>
    <polygon fill="#CCCCCC" points="1130,671.5 1193.5,631.1 1193.8,631.5 1130.3,671.9 &#9;"/>
    <polygon fill="#CCCCCC" points="1131.1,674.9 1194.6,634.5 1195,634.9 1131.5,675.2 &#9;"/>
    <polygon fill="#CCCCCC" points="1132.3,678.2 1195.8,637.8 1196.1,638.2 1132.6,678.6 &#9;"/>
    <polygon fill="#CCCCCC" points="1133.5,681.5 1197,641.2 1197.3,641.6 1133.8,681.9 &#9;"/>
    <polygon fill="#CCCCCC" points="1134.6,684.9 1198.2,644.5 1198.5,644.9 1135,685.3 &#9;"/>
    <polygon fill="#CCCCCC" points="1135.8,688.3 1199.3,647.9 1199.6,648.3 1136.1,688.6 &#9;"/>
    <polygon fill="#CCCCCC" points="1137,691.6 1200.5,651.2 1200.8,651.6 1137.3,692 &#9;"/>
    <polygon fill="#CCCCCC" points="1138.1,694.9 1201.7,654.6 1202,655 1138.5,695.3 &#9;"/>
    <polygon fill="#FFF2B0" points="1139.3,698.3 1202.8,658 1208.3,673.1 1143.8,711.8 &#9;"/>
    <path fill="#FFFFFF" d="M1112.5,604.6l-0.1-0.4c-0.1,0.5-0.4,0.8-0.8,1.1c-0.3,0.1-0.6,0.2-0.9,0.2c-0.3,0-0.5-0.1-0.8-0.2 c-0.2-0.2-0.4-0.4-0.5-0.7c-0.1-0.3-0.2-0.6-0.1-0.9c0-0.4,0.1-0.6,0.3-0.9c0.2-0.3,0.4-0.5,0.7-0.7c0.2-0.1,0.4-0.2,0.6-0.2 c0.2,0,0.4,0,0.5,0l-0.6-1.5l0.6-0.3l1.6,4.3L1112.5,604.6z M1109.9,604.2c0.1,0.4,0.4,0.7,0.6,0.7c0.3,0.1,0.6,0.1,0.8-0.1 c0.3-0.1,0.5-0.4,0.6-0.7c0.1-0.3,0.1-0.6,0-1c-0.2-0.5-0.4-0.7-0.7-0.8c-0.2-0.1-0.5,0-0.8,0.1c-0.3,0.1-0.5,0.4-0.6,0.7 C1109.8,603.5,1109.8,603.8,1109.9,604.2L1109.9,604.2z M1116.2,601.9c-0.2,0.3-0.3,0.6-0.5,0.7c-0.2,0.2-0.4,0.4-0.6,0.5 c-0.4,0.2-0.7,0.3-1,0.3c-0.3,0-0.5-0.2-0.6-0.5c-0.1-0.1-0.1-0.3,0-0.5c0-0.2,0.1-0.3,0.2-0.5c0.1-0.2,0.2-0.3,0.4-0.5 c0.1-0.1,0.3-0.2,0.5-0.4c0.5-0.4,0.8-0.6,1-0.8c0-0.1-0.1-0.1-0.1-0.1c-0.1-0.2-0.2-0.3-0.3-0.3c-0.2,0-0.5,0-0.8,0.2 c-0.3,0.2-0.5,0.3-0.6,0.5c-0.1,0.2-0.2,0.4-0.1,0.7l-0.6,0.3c0-0.3,0-0.5,0.1-0.7c0.1-0.2,0.2-0.4,0.4-0.7 c0.2-0.2,0.5-0.4,0.8-0.6c0.3-0.2,0.6-0.3,0.8-0.4c0.2,0,0.4,0,0.5,0c0.1,0,0.2,0.1,0.3,0.2c0,0.1,0.1,0.2,0.2,0.5l0.3,0.7 c0.2,0.5,0.3,0.8,0.4,0.9c0.1,0.1,0.2,0.2,0.3,0.3l-0.6,0.4C1116.4,602.2,1116.3,602.1,1116.2,601.9L1116.2,601.9z M1115.7,600.8 c-0.2,0.2-0.5,0.5-0.9,0.8c-0.2,0.2-0.4,0.3-0.5,0.4c-0.1,0.1-0.1,0.2-0.2,0.3c0,0.1,0,0.2,0,0.3c0.1,0.1,0.2,0.2,0.3,0.2 c0.1,0,0.4-0.1,0.6-0.2c0.2-0.1,0.4-0.3,0.6-0.5c0.1-0.2,0.2-0.4,0.2-0.6c0-0.1,0-0.3-0.1-0.6L1115.7,600.8z M1119,600.2l0.3,0.4 c-0.2,0.1-0.3,0.2-0.5,0.3c-0.2,0.1-0.4,0.2-0.6,0.2c-0.1,0-0.2,0-0.3-0.1c-0.1-0.1-0.2-0.3-0.3-0.6l-0.7-1.8l-0.4,0.3l-0.2-0.4 l0.5-0.3l-0.3-0.8l0.5-0.7l0.4,1.1l0.6-0.3l0.1,0.4l-0.6,0.4l0.7,1.9c0.1,0.1,0.1,0.2,0.1,0.2c0,0,0.1,0.1,0.1,0.1 c0.1,0,0.1,0,0.2-0.1C1118.8,600.3,1118.9,600.2,1119,600.2L1119,600.2z M1121.9,597.8l0.6-0.3c0,0.4,0,0.8-0.2,1.1 c-0.2,0.3-0.5,0.6-0.9,0.9c-0.5,0.3-1,0.4-1.4,0.3c-0.4-0.1-0.7-0.4-0.9-0.9c-0.2-0.6-0.2-1,0-1.5c0.2-0.5,0.6-0.8,1-1.2 c0.5-0.3,0.9-0.4,1.4-0.3c0.4,0.1,0.7,0.4,0.9,0.9c0,0,0,0.1,0.1,0.1l-2.7,1.6c0.1,0.3,0.3,0.5,0.6,0.6c0.3,0.1,0.6,0,0.9-0.2 c0.2-0.1,0.4-0.3,0.5-0.5C1121.8,598.3,1121.9,598.1,1121.9,597.8L1121.9,597.8z M1119.5,598.1l2-1.2c-0.1-0.3-0.3-0.4-0.5-0.5 c-0.3-0.1-0.6,0-0.9,0.2c-0.3,0.1-0.5,0.4-0.6,0.7C1119.5,597.6,1119.5,597.9,1119.5,598.1L1119.5,598.1z"/>
    <path fill="#FFF2B0" d="M1009.1,633.2c13.1-1.1,38.1,1,52.1,7.9l15.2,59.1c-13.9-3-36.4-6-54.5-7.4L1009.1,633.2z"/>
    <path fill-rule="evenodd" clip-rule="evenodd" fill="#FFF200" d="M1196.7,576.2l12.4-7.8c4-2.5,8.4-0.9,9.9,3.4l10.8,30.8 c1.5,4.4-0.5,9.9-4.4,12.5l-11.7,7.9c-0.5-1.3-0.6-1.5-0.8-2.1L1196.7,576.2z"/>
    <path fill-rule="evenodd" clip-rule="evenodd" fill="#26B596" d="M1188.7,553.3l12.4-7.8c4-2.5,8.4-0.9,9.9,3.4l10.8,30.8 c1.5,4.3-0.5,9.9-4.4,12.5L1205,600c-0.2-0.5-0.5-1.3-0.7-1.9L1188.7,553.3z"/>
    <path fill-rule="evenodd" clip-rule="evenodd" fill="#FFFFCC" d="M996.3,652.7l-13.9-1.2c-4.7-0.4-7.6,3-6.6,7.6l7.4,32.4 c1,4.6,5.7,8.6,10.4,9.1l13.6,1.5L996.3,652.7z"/>
    <path fill-rule="evenodd" clip-rule="evenodd" fill="#FF2962" d="M991.1,628.7l-14.1-1.2c-4.7-0.4-7.6,3-6.6,7.6l7.3,32.4 c1,4.6,5.7,8.6,10.4,9.1l13.8,1.2L991.1,628.7z"/>
    <path fill-rule="evenodd" clip-rule="evenodd" fill="#999966" d="M1098.6,610.9c1.1-0.7,2.4-0.3,2.9,0.7c0.5,1.1,0,2.4-1,3.1 c-1.1,0.7-2.4,0.3-2.9-0.7C1097.1,612.9,1097.5,611.6,1098.6,610.9L1098.6,610.9z"/>
    <path fill-rule="evenodd" clip-rule="evenodd" fill="#999966" d="M1082.9,609.3c1.1,0.3,2,1.5,2,2.7s-0.9,1.9-2,1.5 c-1.1-0.3-2-1.5-2-2.7S1081.8,609,1082.9,609.3L1082.9,609.3z"/>
    <path fill="#333300" d="M1082.6,610.6c1-2.2,2.3-3.5,4.5-4.6c1.5-0.7,2.9-1,4.3-1.1c1.8-0.1,3.5,0.3,4.9,1.1c1.4,0.8,2.6,2,3.3,3.5 c0.4,0.9,0.7,2,0.7,3.2c0.1,1-1.7,1.2-1.7,0.1c0-0.9-0.2-1.8-0.6-2.6c-0.6-1.2-1.4-2.1-2.6-2.8c-1.2-0.6-2.5-1-4-0.9 c-1.2,0.1-2.4,0.3-3.7,0.9c-1.8,0.8-2.9,1.9-3.7,3.7C1083.5,612.4,1082.1,611.6,1082.6,610.6L1082.6,610.6z"/>
    <path fill-rule="evenodd" clip-rule="evenodd" fill="#999966" d="M1101.9,621.5c1.1-0.7,2.4-0.3,2.9,0.7c0.5,1.1,0.1,2.4-1.1,3.1 c-1.1,0.7-2.4,0.4-2.9-0.7C1100.4,623.6,1100.8,622.2,1101.9,621.5L1101.9,621.5z"/>
    <path fill-rule="evenodd" clip-rule="evenodd" fill="#999966" d="M1086.2,619.9c1.1,0.3,2.1,1.5,2.1,2.7c0,1.2-0.9,1.8-2.1,1.5 c-1.1-0.3-2-1.5-2-2.7S1085.1,619.6,1086.2,619.9L1086.2,619.9z"/>
    <path fill="#333300" d="M1085.9,621.2c1-2.2,2.3-3.5,4.5-4.6c1.5-0.7,2.9-1,4.3-1.1c1.8-0.1,3.5,0.3,4.9,1.1c1.4,0.8,2.6,2,3.3,3.5 c0.4,0.9,0.7,2,0.7,3.2c0.1,1.1-1.7,1.2-1.7,0.1c0-0.9-0.2-1.8-0.6-2.6c-0.6-1.2-1.4-2.1-2.6-2.8c-1.2-0.6-2.5-1-4-0.9 c-1.2,0-2.4,0.3-3.7,0.9c-1.8,0.8-2.9,1.9-3.7,3.7C1086.8,623,1085.4,622.3,1085.9,621.2L1085.9,621.2z"/>
    <path fill-rule="evenodd" clip-rule="evenodd" fill="#999966" d="M1105.7,633c1.1-0.6,2.4-0.3,2.9,0.7c0.5,1,0.1,2.4-1,3.1 c-1.1,0.6-2.4,0.3-2.9-0.7C1104.1,635.1,1104.6,633.7,1105.7,633L1105.7,633z"/>
    <path fill-rule="evenodd" clip-rule="evenodd" fill="#999966" d="M1090,631.4c1.1,0.3,2,1.5,2,2.7s-0.9,1.8-2,1.5 c-1.2-0.3-2.1-1.5-2.1-2.7S1088.8,631.1,1090,631.4L1090,631.4z"/>
    <path fill="#333300" d="M1089.7,632.7c0.9-2.2,2.2-3.5,4.5-4.6c1.5-0.7,2.9-1,4.3-1.1c1.8-0.1,3.5,0.3,4.9,1.2 c1.4,0.8,2.6,2,3.3,3.5c0.5,0.9,0.7,2,0.8,3.2c0.1,1-1.8,1.2-1.7,0.1c0-0.9-0.2-1.8-0.6-2.5c-0.5-1.2-1.4-2.1-2.6-2.8 c-1.1-0.7-2.5-1-4-0.9c-1.2,0.1-2.4,0.4-3.7,0.9c-1.9,0.9-2.9,1.9-3.7,3.7C1090.6,634.5,1089.1,633.8,1089.7,632.7L1089.7,632.7z"/>
    <path fill-rule="evenodd" clip-rule="evenodd" fill="#999966" d="M1109.2,644.3c1.1-0.7,2.4-0.3,2.9,0.7c0.5,1,0.1,2.4-1,3.1 c-1.1,0.7-2.4,0.4-2.9-0.7C1107.6,646.3,1108.1,644.9,1109.2,644.3L1109.2,644.3z"/>
    <path fill-rule="evenodd" clip-rule="evenodd" fill="#999966" d="M1093.4,642.7c1.1,0.3,2,1.5,2,2.7c0,1.2-0.9,1.8-2,1.5 c-1.2-0.3-2.1-1.5-2.1-2.7C1091.4,643,1092.3,642.3,1093.4,642.7L1093.4,642.7z"/>
    <path fill="#333300" d="M1093.1,644c1-2.2,2.2-3.5,4.5-4.6c1.5-0.7,2.9-1.1,4.3-1.1c1.8-0.1,3.5,0.3,4.9,1.1c1.4,0.8,2.6,2,3.3,3.5 c0.5,0.9,0.7,2,0.8,3.1c0.1,1-1.7,1.2-1.7,0.1c0-0.9-0.2-1.8-0.6-2.6c-0.5-1.2-1.4-2.1-2.6-2.8c-1.1-0.6-2.5-1-4-0.9 c-1.2,0-2.4,0.3-3.7,0.9c-1.9,0.8-2.9,1.9-3.7,3.7C1094,645.8,1092.6,645,1093.1,644L1093.1,644z"/>
    <path fill-rule="evenodd" clip-rule="evenodd" fill="#999966" d="M1112.6,655.5c1.1-0.6,2.4-0.3,2.9,0.7c0.5,1,0.1,2.4-1,3.1 c-1.1,0.6-2.4,0.3-2.9-0.7C1111.1,657.6,1111.5,656.2,1112.6,655.5L1112.6,655.5z"/>
    <path fill-rule="evenodd" clip-rule="evenodd" fill="#999966" d="M1096.9,653.9c1.1,0.3,2,1.5,2,2.7s-0.9,1.8-2,1.5 c-1.2-0.3-2.1-1.5-2.1-2.7C1094.8,654.3,1095.8,653.6,1096.9,653.9L1096.9,653.9z"/>
    <path fill="#333300" d="M1096.6,655.2c1-2.2,2.3-3.5,4.5-4.6c1.5-0.7,2.9-1,4.3-1.1c1.8-0.1,3.5,0.3,4.9,1.2c1.4,0.8,2.6,2,3.3,3.5 c0.5,0.9,0.7,2,0.8,3.2c0.1,1-1.7,1.2-1.7,0.1c-0.1-0.9-0.3-1.8-0.6-2.5c-0.5-1.2-1.4-2.1-2.6-2.8c-1.1-0.7-2.5-1-4-0.9 c-1.2,0-2.4,0.3-3.7,0.9c-1.9,0.9-2.9,1.9-3.7,3.7C1097.5,657,1096.1,656.3,1096.6,655.2L1096.6,655.2z"/>
    <path fill-rule="evenodd" clip-rule="evenodd" fill="#999966" d="M1116.1,666.8c1.1-0.7,2.4-0.3,2.9,0.7c0.5,1,0.1,2.4-1,3.1 c-1.1,0.7-2.4,0.3-2.9-0.7C1114.6,668.8,1115,667.5,1116.1,666.8L1116.1,666.8z"/>
    <path fill-rule="evenodd" clip-rule="evenodd" fill="#999966" d="M1100.4,665.2c1.1,0.3,2,1.5,2,2.7s-0.9,1.9-2,1.5 c-1.1-0.3-2.1-1.5-2.1-2.7C1098.3,665.5,1099.3,664.8,1100.4,665.2L1100.4,665.2z"/>
    <path fill="#333300" d="M1100.1,666.5c1-2.2,2.3-3.5,4.5-4.6c1.5-0.7,2.9-1,4.3-1.1c1.8-0.1,3.5,0.3,4.9,1.1c1.4,0.8,2.5,2,3.2,3.5 c0.5,0.9,0.7,2,0.8,3.2c0.1,1-1.7,1.2-1.7,0.1c-0.1-0.9-0.3-1.8-0.6-2.6c-0.5-1.2-1.4-2.1-2.6-2.8c-1.1-0.6-2.5-1-4-0.9 c-1.2,0.1-2.5,0.4-3.7,0.9c-1.9,0.8-2.9,1.9-3.7,3.7C1101,668.3,1099.5,667.5,1100.1,666.5L1100.1,666.5z"/>
    <path fill-rule="evenodd" clip-rule="evenodd" fill="#999966" d="M1119.6,678c1.1-0.6,2.4-0.3,2.9,0.7c0.5,1,0,2.4-1.1,3.1 c-1.1,0.6-2.4,0.3-2.9-0.7C1118,680.1,1118.5,678.7,1119.6,678L1119.6,678z"/>
    <path fill-rule="evenodd" clip-rule="evenodd" fill="#999966" d="M1103.8,676.4c1.1,0.3,2,1.5,2,2.7c0,1.2-0.9,1.8-2,1.5 c-1.1-0.3-2.1-1.5-2.1-2.7C1101.8,676.8,1102.7,676.1,1103.8,676.4L1103.8,676.4z"/>
    <path fill="#333300" d="M1103.5,677.7c1-2.2,2.3-3.5,4.5-4.5c1.5-0.7,2.9-1.1,4.3-1.1c1.8-0.1,3.5,0.3,4.9,1.2 c1.4,0.8,2.5,2,3.2,3.5c0.5,1,0.7,2,0.8,3.2c0.1,1-1.7,1.2-1.7,0.1c0-0.9-0.2-1.8-0.6-2.5c-0.6-1.2-1.4-2.1-2.6-2.8 c-1.2-0.7-2.5-1-4-0.9c-1.2,0-2.5,0.4-3.7,0.9c-1.9,0.9-2.9,1.9-3.7,3.7C1104.5,679.5,1103,678.8,1103.5,677.7L1103.5,677.7z"/>
    <path fill-rule="evenodd" clip-rule="evenodd" fill="#999966" d="M1123,689.3c1.1-0.7,2.4-0.3,2.9,0.7c0.5,1,0,2.5-1.1,3.1 c-1.1,0.7-2.4,0.3-2.9-0.7C1121.5,691.3,1121.9,690,1123,689.3L1123,689.3z"/>
    <path fill-rule="evenodd" clip-rule="evenodd" fill="#999966" d="M1107.3,687.7c1.1,0.3,2,1.5,2,2.7s-0.9,1.9-2,1.5 c-1.1-0.3-2-1.5-2-2.7S1106.2,687.4,1107.3,687.7L1107.3,687.7z"/>
    <path fill="#333300" d="M1107,689c1-2.2,2.3-3.5,4.5-4.6c1.5-0.7,2.9-1,4.3-1.1c1.8-0.1,3.5,0.3,4.9,1.1s2.6,2,3.3,3.5 c0.4,0.9,0.7,2,0.7,3.2c0.1,1-1.7,1.2-1.7,0.1c0-0.9-0.2-1.8-0.6-2.6c-0.6-1.2-1.4-2.1-2.6-2.8c-1.2-0.6-2.5-1-4-0.9 c-1.2,0.1-2.4,0.3-3.7,0.9c-1.8,0.8-2.9,1.9-3.7,3.7C1107.9,690.8,1106.5,690,1107,689L1107,689z"/>
    <path fill-rule="evenodd" clip-rule="evenodd" fill="#999966" d="M1126.5,700.5c1.1-0.6,2.4-0.3,2.9,0.7c0.5,1.1,0,2.4-1,3.1 c-1.1,0.6-2.4,0.3-2.9-0.7C1124.9,702.6,1125.4,701.2,1126.5,700.5L1126.5,700.5z"/>
    <path fill-rule="evenodd" clip-rule="evenodd" fill="#999966" d="M1110.8,698.9c1.1,0.3,2.1,1.5,2.1,2.7s-0.9,1.8-2.1,1.5 c-1.1-0.3-2-1.5-2-2.7S1109.7,698.6,1110.8,698.9L1110.8,698.9z"/>
    <path fill="#333300" d="M1110.5,700.2c1-2.2,2.3-3.5,4.5-4.6c1.5-0.7,2.9-1,4.3-1.1c1.8-0.1,3.5,0.4,4.9,1.2c1.4,0.8,2.6,2,3.3,3.5 c0.4,1,0.7,2,0.7,3.2c0.1,1.1-1.7,1.2-1.7,0.1c0-0.9-0.2-1.8-0.6-2.5c-0.6-1.2-1.4-2.1-2.6-2.8c-1.2-0.7-2.5-1-4-0.9 c-1.2,0-2.4,0.3-3.7,0.9c-1.8,0.8-2.9,1.9-3.7,3.7C1111.4,702,1109.9,701.3,1110.5,700.2L1110.5,700.2z"/>
    <path fill-rule="evenodd" clip-rule="evenodd" fill="#DE9B00" d="M925.9,625.2c-3.1-1-5.8-2.7-5.9-3.6c-0.1-1,2.3-0.9,5.4,0.1 c3.1,1,5.8,2.7,5.9,3.6C931.5,626.3,929.1,626.2,925.9,625.2L925.9,625.2z"/>
    <path fill-rule="evenodd" clip-rule="evenodd" fill="#FFCD03" d="M931.3,625.2c-1.2-2.1-9.7-5.5-11.3-3.7l-3.7-25.8 c-0.1-1,2.3-0.9,5.4,0.1c3.1,1,5.8,2.7,5.9,3.6L931.3,625.2z"/>
  </g>
</svg>