<?xml version="1.0" encoding="utf-8"?>
<svg viewBox="-3869.5 888.814 306 200.3" xmlns="http://www.w3.org/2000/svg">
  <g transform="matrix(1, 0, 0, 1, -4014.700439, 349.613495)">
    <polygon fill-rule="evenodd" clip-rule="evenodd" fill="#660066" points="407.4,551.2 248.1,551.2 214.8,539.2 214.8,720.7 &#10;&#9;&#9;248,729.4 407.4,729.4 &#9;"/>
    <rect x="248" y="551.2" fill-rule="evenodd" clip-rule="evenodd" fill="#CC6699" width="34.6" height="178.2"/>
    <rect x="271.8" y="555" fill-rule="evenodd" clip-rule="evenodd" fill="#EEE5CE" width="124.4" height="170.6"/>
    <polygon fill-rule="evenodd" clip-rule="evenodd" fill="#F8F1DF" points="384.1,555 396.2,562.4 386.4,562.8 &#9;"/>
    <path fill-rule="evenodd" clip-rule="evenodd" fill="#FF99FF" d="M407.4,551.2h12.9h1v0c16.6,1.5,29.9,40.8,29.9,89.1 s-13.3,87.5-29.9,89.1v0h-1h-12.9V551.2z"/>
    <path fill-rule="evenodd" clip-rule="evenodd" fill="#660066" d="M419.6,551.2h1.7c16.6,1.5,29.9,40.9,29.9,89.1 s-13.3,87.6-29.9,89.1h-1.7V551.2z"/>
    <path fill-rule="evenodd" clip-rule="evenodd" d="M429.6,580.7v-7.6c0-1.4,1.2-2.6,2.7-2.6l0,0c1.4,0,2.6,1.2,2.6,2.6v7.6 c0,1.4-1.2,2.6-2.6,2.6l0,0C430.8,583.4,429.6,582.2,429.6,580.7L429.6,580.7z"/>
    <path fill-rule="evenodd" clip-rule="evenodd" fill="#4C4C4C" d="M429.6,580.7v-7.6c0-1.3,0.9-2.3,2.1-2.6 c-0.3,0.3-0.6,0.8-0.7,1.6c-0.1,1.4-0.3,8.1-0.3,8.1v2.6C430,582.4,429.6,581.6,429.6,580.7L429.6,580.7z"/>
    <path fill-rule="evenodd" clip-rule="evenodd" fill="#666666" d="M431.7,707.6c0,0,0.1,0.8,0.3,1.8c0.2,0.9,0.8,1.1,1-0.1 c0.2-1.2,0.2-1.9,0.2-1.9L431.7,707.6z"/>
    <path fill-rule="evenodd" clip-rule="evenodd" fill="#999966" d="M429.1,693.8c0,0,0.5,4.2,1.3,8.8c0.9,4.7,1,5.2,1,5.2h2.1 c0,0,0.9-4.5,1.3-7s0.7-5.7,0.7-6.5C435.5,693.3,429.1,693.8,429.1,693.8L429.1,693.8z"/>
    <path fill-rule="evenodd" clip-rule="evenodd" fill="#99CCCC" d="M427.5,689.1v-18.7c0-0.7,0.6-1.3,1.4-1.3h6.6 c0.7,0,1.3,0.6,1.3,1.3v18.7c0,0.7-0.6,1.4-1.3,1.4h-6.6C428.2,690.5,427.5,689.9,427.5,689.1L427.5,689.1z"/>
    <rect x="429.1" y="691.2" fill-rule="evenodd" clip-rule="evenodd" fill="#669999" width="6.6" height="2.7"/>
    <path fill-rule="evenodd" clip-rule="evenodd" fill="#99CCCC" d="M428.4,691.1L428.4,691.1c0-0.3,0.2-0.5,0.5-0.5h7 c0.3,0,0.5,0.2,0.5,0.5l0,0c0,0.3-0.2,0.5-0.5,0.5h-7C428.6,691.6,428.4,691.4,428.4,691.1L428.4,691.1z"/>
    <path fill-rule="evenodd" clip-rule="evenodd" fill="#99CCCC" d="M428.4,693.9L428.4,693.9c0-0.3,0.2-0.5,0.5-0.5h7 c0.3,0,0.5,0.2,0.5,0.5l0,0c0,0.3-0.2,0.5-0.5,0.5h-7C428.6,694.4,428.4,694.1,428.4,693.9L428.4,693.9z"/>
    <path fill-rule="evenodd" clip-rule="evenodd" fill="#CCCCCC" d="M429.1,585.5v-4.4c0-0.5,0.4-0.8,0.8-0.8h4.8 c0.5,0,0.8,0.4,0.8,0.8v4.4c0,0.5-0.4,0.8-0.8,0.8H430C429.5,586.4,429.1,586,429.1,585.5L429.1,585.5z"/>
    <path fill-rule="evenodd" clip-rule="evenodd" fill="#999999" d="M428.3,586.8v-0.7c0-0.4,0.4-0.7,0.7-0.7h6.3 c0.4,0,0.7,0.3,0.7,0.7v0.7c0,0.4-0.3,0.7-0.7,0.7H429C428.7,587.5,428.3,587.2,428.3,586.8L428.3,586.8z"/>
    <rect x="428.1" y="586.4" fill-rule="evenodd" clip-rule="evenodd" fill="#00DECB" width="8.2" height="83"/>
    <path fill-rule="evenodd" clip-rule="evenodd" fill="#5C5A5A" d="M431.7,707.6c0,0,0.1,0.8,0.3,1.8c0.1,0.5,0.3,0.7,0.5,0.7 c0-0.3-0.1-0.6-0.1-0.7c-0.1-1.2,0-1.6,0-1.6l0-0.3L431.7,707.6z"/>
    <path fill-rule="evenodd" clip-rule="evenodd" fill="#808051" d="M429.1,693.8c0,0,0.5,4.2,1.3,8.8c0.9,4.7,1,5.2,1,5.2h1 l-1.3-13.4v-0.7C430.1,693.7,429.1,693.8,429.1,693.8L429.1,693.8z"/>
    <path fill-rule="evenodd" clip-rule="evenodd" fill="#B8E0E0" d="M427.5,689.1v-18.7c0-0.7,0.6-1.3,1.4-1.3h1.9v0.2 c0,0-0.7,1.1-0.7,1.5c0,0.5-0.1,1.5-0.1,1.5s-0.1,13.8,0,15.6c0.1,1.8,1.2,2.5,1.2,2.5h-2.3C428.2,690.5,427.5,689.9,427.5,689.1 L427.5,689.1z"/>
    <polygon fill-rule="evenodd" clip-rule="evenodd" fill="#9FE0E0" points="429.1,694 429.1,691.2 431.2,691.2 431.2,691.6 &#10;&#9;&#9;430.6,691.6 430.6,693.3 431.1,693.3 431.1,694 &#9;"/>
    <path fill-rule="evenodd" clip-rule="evenodd" fill="#71ABAB" d="M428.4,691.1L428.4,691.1c0-0.3,0.2-0.5,0.5-0.5h2.3l-0.1,1h-0.6 h-1.6C428.6,691.6,428.4,691.4,428.4,691.1L428.4,691.1z"/>
    <path fill-rule="evenodd" clip-rule="evenodd" fill="#71ABAB" d="M428.4,693.9L428.4,693.9c0-0.3,0.2-0.5,0.5-0.5h1.6h0.6v1h-2.2 C428.6,694.4,428.4,694.1,428.4,693.9L428.4,693.9z"/>
    <path fill-rule="evenodd" clip-rule="evenodd" fill="#E6E6E6" d="M429.1,585.5v-4.4c0-0.5,0.4-0.8,0.8-0.8h0.7v5.1 c0,0-0.2,0-0.2,0.3s0.4,0.6,0.4,0.6H430C429.5,586.4,429.1,586,429.1,585.5L429.1,585.5z"/>
    <path fill-rule="evenodd" clip-rule="evenodd" fill="#828080" d="M428.3,586.8v-0.7c0-0.4,0.4-0.7,0.7-0.7h1.6c0,0-0.2,0-0.2,0.3 c0,0.3,0.4,0.6,0.4,0.6v1.2H429C428.7,587.5,428.3,587.2,428.3,586.8L428.3,586.8z"/>
    <rect x="428.1" y="586.4" fill-rule="evenodd" clip-rule="evenodd" fill="#0ABDAE" width="2.7" height="83"/>
    <path fill-rule="evenodd" clip-rule="evenodd" fill="#828080" d="M424.1,622.3v-29.9c0,0-0.1-2,0.5-3.6c0.6-1.5,2.7-1.9,2.7-1.9 v3.9c0,0-1.3,0.3-1.6,1.3c-0.3,1,0,30.1,0,30.1L424.1,622.3z"/>
    <path fill-rule="evenodd" clip-rule="evenodd" fill="#333333" d="M423.4,622.1c0-0.8,0.7-1.5,1.5-1.5c0.8,0,1.5,0.7,1.5,1.5 c0,0.8-0.7,1.5-1.5,1.5C424.1,623.6,423.4,622.9,423.4,622.1L423.4,622.1z"/>
    <polygon fill-rule="evenodd" clip-rule="evenodd" fill="#CCCCCC" points="426.5,591.5 426.5,586.9 428.1,586.4 428.1,591.5 &#9;"/>
    <rect x="426.9" y="596.8" fill-rule="evenodd" clip-rule="evenodd" fill="#540254" width="11.4" height="18"/>
    <path fill="#FFFFFF" d="M428.3,599.1v0.3h-0.6v-0.3H428.3z M437.2,599.1v0.3h-0.6v-0.3H437.2z M436.3,599.1v0.3h-0.6v-0.3H436.3z M435.4,599.1v0.3h-0.6v-0.3H435.4z M434.5,599.1v0.3h-0.6v-0.3H434.5z M433.6,599.1v0.3H433v-0.3H433.6z M432.7,599.1v0.3h-0.6 v-0.3H432.7z M431.8,599.1v0.3h-0.6v-0.3H431.8z M431,599.1v0.3h-0.6v-0.3H431z M430.1,599.1v0.3h-0.6v-0.3H430.1z M429.2,599.1 v0.3h-0.6v-0.3H429.2z"/>
    <path fill="#FFFFFF" d="M428.3,612v0.3h-0.6V612H428.3z M437.2,612v0.3h-0.6V612H437.2z M436.3,612v0.3h-0.6V612H436.3z M435.4,612 v0.3h-0.6V612H435.4z M434.5,612v0.3h-0.6V612H434.5z M433.6,612v0.3H433V612H433.6z M432.7,612v0.3h-0.6V612H432.7z M431.8,612 v0.3h-0.6V612H431.8z M431,612v0.3h-0.6V612H431z M430.1,612v0.3h-0.6V612H430.1z M429.2,612v0.3h-0.6V612H429.2z"/>
    <path fill-rule="evenodd" clip-rule="evenodd" d="M275.7,558.3c1,0,1.9,0.8,1.9,1.9c0,1-0.8,1.9-1.9,1.9c-1,0-1.9-0.9-1.9-1.9 C273.9,559.1,274.7,558.3,275.7,558.3L275.7,558.3z"/>
    <path fill-rule="evenodd" clip-rule="evenodd" fill="#333333" d="M256,559.2h19.3c0.1,0,0.2,0.1,0.2,0.3l0,0c0,0.1-0.1,0.3-0.2,0.3 H256c-0.1,0-0.2-0.1-0.2-0.3l0,0C255.8,559.4,255.9,559.2,256,559.2L256,559.2z"/>
    <path fill-rule="evenodd" clip-rule="evenodd" fill="#333333" d="M256,560.5h19.3c0.1,0,0.2,0.1,0.2,0.3l0,0c0,0.1-0.1,0.3-0.2,0.3 H256c-0.1,0-0.2-0.1-0.2-0.3l0,0C255.8,560.6,255.9,560.5,256,560.5L256,560.5z"/>
    <path fill-rule="evenodd" clip-rule="evenodd" d="M275.7,564.7c1,0,1.9,0.8,1.9,1.9c0,1.1-0.8,1.9-1.9,1.9c-1,0-1.9-0.8-1.9-1.9 C273.9,565.5,274.7,564.7,275.7,564.7L275.7,564.7z"/>
    <path fill-rule="evenodd" clip-rule="evenodd" fill="#333333" d="M256,565.6h19.3c0.1,0,0.2,0.1,0.2,0.3l0,0c0,0.1-0.1,0.3-0.2,0.3 H256c-0.1,0-0.2-0.1-0.2-0.3l0,0C255.8,565.7,255.9,565.6,256,565.6L256,565.6z"/>
    <path fill-rule="evenodd" clip-rule="evenodd" fill="#333333" d="M256,566.8h19.3c0.1,0,0.2,0.1,0.2,0.3l0,0c0,0.2-0.1,0.3-0.2,0.3 H256c-0.1,0-0.2-0.1-0.2-0.3l0,0C255.8,567,255.9,566.8,256,566.8L256,566.8z"/>
    <path fill-rule="evenodd" clip-rule="evenodd" d="M275.7,571c1,0,1.9,0.9,1.9,1.9c0,1.1-0.8,1.9-1.9,1.9c-1,0-1.9-0.9-1.9-1.9 C273.9,571.9,274.7,571,275.7,571L275.7,571z"/>
    <path fill-rule="evenodd" clip-rule="evenodd" fill="#333333" d="M256,572h19.3c0.1,0,0.2,0.1,0.2,0.3l0,0c0,0.1-0.1,0.2-0.2,0.2 H256c-0.1,0-0.2-0.1-0.2-0.2l0,0C255.8,572.1,255.9,572,256,572L256,572z"/>
    <path fill-rule="evenodd" clip-rule="evenodd" fill="#333333" d="M256,573.3h19.3c0.1,0,0.2,0.1,0.2,0.3l0,0c0,0.1-0.1,0.3-0.2,0.3 H256c-0.1,0-0.2-0.1-0.2-0.3l0,0C255.8,573.4,255.9,573.3,256,573.3L256,573.3z"/>
    <path fill-rule="evenodd" clip-rule="evenodd" d="M275.7,577.5c1,0,1.9,0.9,1.9,1.9c0,1.1-0.8,1.9-1.9,1.9c-1,0-1.9-0.9-1.9-1.9 C273.9,578.3,274.7,577.5,275.7,577.5L275.7,577.5z"/>
    <path fill-rule="evenodd" clip-rule="evenodd" fill="#333333" d="M256,578.4h19.3c0.1,0,0.2,0.1,0.2,0.3l0,0c0,0.2-0.1,0.3-0.2,0.3 H256c-0.1,0-0.2-0.1-0.2-0.3l0,0C255.8,578.5,255.9,578.4,256,578.4L256,578.4z"/>
    <path fill-rule="evenodd" clip-rule="evenodd" fill="#333333" d="M256,579.7h19.3c0.1,0,0.2,0.1,0.2,0.3l0,0c0,0.1-0.1,0.3-0.2,0.3 H256c-0.1,0-0.2-0.1-0.2-0.3l0,0C255.8,579.8,255.9,579.7,256,579.7L256,579.7z"/>
    <path fill-rule="evenodd" clip-rule="evenodd" d="M275.7,583.9c1,0,1.9,0.8,1.9,1.9c0,1-0.8,1.9-1.9,1.9c-1,0-1.9-0.9-1.9-1.9 C273.9,584.7,274.7,583.9,275.7,583.9L275.7,583.9z"/>
    <path fill-rule="evenodd" clip-rule="evenodd" fill="#333333" d="M256,584.8h19.3c0.1,0,0.2,0.1,0.2,0.3l0,0c0,0.1-0.1,0.3-0.2,0.3 H256c-0.1,0-0.2-0.1-0.2-0.3l0,0C255.8,584.9,255.9,584.8,256,584.8L256,584.8z"/>
    <path fill-rule="evenodd" clip-rule="evenodd" fill="#333333" d="M256,586.1h19.3c0.1,0,0.2,0.1,0.2,0.3l0,0c0,0.1-0.1,0.2-0.2,0.2 H256c-0.1,0-0.2-0.1-0.2-0.2l0,0C255.8,586.2,255.9,586.1,256,586.1L256,586.1z"/>
    <path fill-rule="evenodd" clip-rule="evenodd" d="M275.7,590.2c1,0,1.9,0.9,1.9,1.9c0,1.1-0.8,1.9-1.9,1.9c-1,0-1.9-0.8-1.9-1.9 C273.9,591.1,274.7,590.2,275.7,590.2L275.7,590.2z"/>
    <path fill-rule="evenodd" clip-rule="evenodd" fill="#333333" d="M256,591.2h19.3c0.1,0,0.2,0.1,0.2,0.3l0,0c0,0.1-0.1,0.3-0.2,0.3 H256c-0.1,0-0.2-0.1-0.2-0.3l0,0C255.8,591.3,255.9,591.2,256,591.2L256,591.2z"/>
    <path fill-rule="evenodd" clip-rule="evenodd" fill="#333333" d="M256,592.4h19.3c0.1,0,0.2,0.1,0.2,0.3l0,0c0,0.2-0.1,0.3-0.2,0.3 H256c-0.1,0-0.2-0.1-0.2-0.3l0,0C255.8,592.6,255.9,592.4,256,592.4L256,592.4z"/>
    <path fill-rule="evenodd" clip-rule="evenodd" d="M275.7,596.6c1,0,1.9,0.9,1.9,1.9c0,1-0.8,1.9-1.9,1.9c-1,0-1.9-0.9-1.9-1.9 C273.9,597.5,274.7,596.6,275.7,596.6L275.7,596.6z"/>
    <path fill-rule="evenodd" clip-rule="evenodd" fill="#333333" d="M256,597.6h19.3c0.1,0,0.2,0.1,0.2,0.2l0,0c0,0.2-0.1,0.3-0.2,0.3 H256c-0.1,0-0.2-0.1-0.2-0.3l0,0C255.8,597.7,255.9,597.6,256,597.6L256,597.6z"/>
    <path fill-rule="evenodd" clip-rule="evenodd" fill="#333333" d="M256,598.8h19.3c0.1,0,0.2,0.1,0.2,0.3l0,0c0,0.1-0.1,0.3-0.2,0.3 H256c-0.1,0-0.2-0.1-0.2-0.3l0,0C255.8,599,255.9,598.8,256,598.8L256,598.8z"/>
    <path fill-rule="evenodd" clip-rule="evenodd" d="M275.7,603c1,0,1.9,0.9,1.9,1.9c0,1-0.8,1.9-1.9,1.9c-1,0-1.9-0.9-1.9-1.9 C273.9,603.9,274.7,603,275.7,603L275.7,603z"/>
    <path fill-rule="evenodd" clip-rule="evenodd" fill="#333333" d="M256,604h19.3c0.1,0,0.2,0.1,0.2,0.3l0,0c0,0.2-0.1,0.3-0.2,0.3 H256c-0.1,0-0.2-0.1-0.2-0.3l0,0C255.8,604.1,255.9,604,256,604L256,604z"/>
    <path fill-rule="evenodd" clip-rule="evenodd" fill="#333333" d="M256,605.2h19.3c0.1,0,0.2,0.1,0.2,0.3l0,0c0,0.1-0.1,0.3-0.2,0.3 H256c-0.1,0-0.2-0.1-0.2-0.3l0,0C255.8,605.3,255.9,605.2,256,605.2L256,605.2z"/>
    <path fill-rule="evenodd" clip-rule="evenodd" d="M275.7,609.4c1,0,1.9,0.8,1.9,1.9c0,1-0.8,1.9-1.9,1.9c-1,0-1.9-0.8-1.9-1.9 C273.9,610.3,274.7,609.4,275.7,609.4L275.7,609.4z"/>
    <path fill-rule="evenodd" clip-rule="evenodd" fill="#333333" d="M256,610.4h19.3c0.1,0,0.2,0.1,0.2,0.3l0,0c0,0.1-0.1,0.3-0.2,0.3 H256c-0.1,0-0.2-0.1-0.2-0.3l0,0C255.8,610.5,255.9,610.4,256,610.4L256,610.4z"/>
    <path fill-rule="evenodd" clip-rule="evenodd" fill="#333333" d="M256,611.6h19.3c0.1,0,0.2,0.1,0.2,0.3l0,0c0,0.1-0.1,0.2-0.2,0.2 H256c-0.1,0-0.2-0.1-0.2-0.2l0,0C255.8,611.8,255.9,611.6,256,611.6L256,611.6z"/>
    <path fill-rule="evenodd" clip-rule="evenodd" d="M275.7,615.8c1,0,1.9,0.9,1.9,1.9c0,1.1-0.8,1.9-1.9,1.9c-1,0-1.9-0.8-1.9-1.9 C273.9,616.7,274.7,615.8,275.7,615.8L275.7,615.8z"/>
    <path fill-rule="evenodd" clip-rule="evenodd" fill="#333333" d="M256,616.8h19.3c0.1,0,0.2,0.1,0.2,0.3l0,0c0,0.1-0.1,0.3-0.2,0.3 H256c-0.1,0-0.2-0.1-0.2-0.3l0,0C255.8,616.9,255.9,616.8,256,616.8L256,616.8z"/>
    <path fill-rule="evenodd" clip-rule="evenodd" fill="#333333" d="M256,618h19.3c0.1,0,0.2,0.1,0.2,0.3l0,0c0,0.2-0.1,0.3-0.2,0.3 H256c-0.1,0-0.2-0.1-0.2-0.3l0,0C255.8,618.2,255.9,618,256,618L256,618z"/>
    <path fill-rule="evenodd" clip-rule="evenodd" d="M275.7,622.2c1,0,1.9,0.9,1.9,1.9c0,1-0.8,1.9-1.9,1.9c-1,0-1.9-0.9-1.9-1.9 C273.9,623.1,274.7,622.2,275.7,622.2L275.7,622.2z"/>
    <path fill-rule="evenodd" clip-rule="evenodd" fill="#333333" d="M256,623.2h19.3c0.1,0,0.2,0.1,0.2,0.3l0,0c0,0.2-0.1,0.3-0.2,0.3 H256c-0.1,0-0.2-0.1-0.2-0.3l0,0C255.8,623.3,255.9,623.2,256,623.2L256,623.2z"/>
    <path fill-rule="evenodd" clip-rule="evenodd" fill="#333333" d="M256,624.4h19.3c0.1,0,0.2,0.1,0.2,0.3l0,0c0,0.1-0.1,0.3-0.2,0.3 H256c-0.1,0-0.2-0.1-0.2-0.3l0,0C255.8,624.6,255.9,624.4,256,624.4L256,624.4z"/>
    <path fill-rule="evenodd" clip-rule="evenodd" d="M275.7,628.6c1,0,1.9,0.8,1.9,1.9c0,1-0.8,1.9-1.9,1.9c-1,0-1.9-0.9-1.9-1.9 C273.9,629.5,274.7,628.6,275.7,628.6L275.7,628.6z"/>
    <path fill-rule="evenodd" clip-rule="evenodd" fill="#333333" d="M256,629.6h19.3c0.1,0,0.2,0.1,0.2,0.3l0,0c0,0.2-0.1,0.3-0.2,0.3 H256c-0.1,0-0.2-0.1-0.2-0.3l0,0C255.8,629.7,255.9,629.6,256,629.6L256,629.6z"/>
    <path fill-rule="evenodd" clip-rule="evenodd" fill="#333333" d="M256,630.8h19.3c0.1,0,0.2,0.1,0.2,0.3l0,0c0,0.1-0.1,0.3-0.2,0.3 H256c-0.1,0-0.2-0.1-0.2-0.3l0,0C255.8,630.9,255.9,630.8,256,630.8L256,630.8z"/>
    <path fill-rule="evenodd" clip-rule="evenodd" d="M275.7,635c1,0,1.9,0.8,1.9,1.9c0,1-0.8,1.9-1.9,1.9c-1,0-1.9-0.8-1.9-1.9 C273.9,635.9,274.7,635,275.7,635L275.7,635z"/>
    <path fill-rule="evenodd" clip-rule="evenodd" fill="#333333" d="M256,636h19.3c0.1,0,0.2,0.1,0.2,0.3l0,0c0,0.1-0.1,0.3-0.2,0.3 H256c-0.1,0-0.2-0.1-0.2-0.3l0,0C255.8,636.1,255.9,636,256,636L256,636z"/>
    <path fill-rule="evenodd" clip-rule="evenodd" fill="#333333" d="M256,637.2h19.3c0.1,0,0.2,0.1,0.2,0.2l0,0c0,0.2-0.1,0.3-0.2,0.3 H256c-0.1,0-0.2-0.1-0.2-0.3l0,0C255.8,637.3,255.9,637.2,256,637.2L256,637.2z"/>
    <path fill-rule="evenodd" clip-rule="evenodd" d="M275.7,641.4c1,0,1.9,0.9,1.9,1.9c0,1.1-0.8,1.9-1.9,1.9c-1,0-1.9-0.8-1.9-1.9 C273.9,642.3,274.7,641.4,275.7,641.4L275.7,641.4z"/>
    <path fill-rule="evenodd" clip-rule="evenodd" fill="#333333" d="M256,642.4h19.3c0.1,0,0.2,0.1,0.2,0.3l0,0c0,0.1-0.1,0.3-0.2,0.3 H256c-0.1,0-0.2-0.1-0.2-0.3l0,0C255.8,642.5,255.9,642.4,256,642.4L256,642.4z"/>
    <path fill-rule="evenodd" clip-rule="evenodd" fill="#333333" d="M256,643.6h19.3c0.1,0,0.2,0.1,0.2,0.3l0,0c0,0.2-0.1,0.3-0.2,0.3 H256c-0.1,0-0.2-0.1-0.2-0.3l0,0C255.8,643.7,255.9,643.6,256,643.6L256,643.6z"/>
    <path fill-rule="evenodd" clip-rule="evenodd" d="M275.7,647.8c1,0,1.9,0.9,1.9,1.9c0,1-0.8,1.9-1.9,1.9c-1,0-1.9-0.9-1.9-1.9 C273.9,648.7,274.7,647.8,275.7,647.8L275.7,647.8z"/>
    <path fill-rule="evenodd" clip-rule="evenodd" fill="#333333" d="M256,648.7h19.3c0.1,0,0.2,0.1,0.2,0.3l0,0c0,0.2-0.1,0.3-0.2,0.3 H256c-0.1,0-0.2-0.1-0.2-0.3l0,0C255.8,648.9,255.9,648.7,256,648.7L256,648.7z"/>
    <path fill-rule="evenodd" clip-rule="evenodd" fill="#333333" d="M256,650h19.3c0.1,0,0.2,0.1,0.2,0.3l0,0c0,0.1-0.1,0.3-0.2,0.3 H256c-0.1,0-0.2-0.1-0.2-0.3l0,0C255.8,650.1,255.9,650,256,650L256,650z"/>
    <path fill-rule="evenodd" clip-rule="evenodd" d="M275.7,654.2c1,0,1.9,0.8,1.9,1.9c0,1-0.8,1.9-1.9,1.9c-1,0-1.9-0.9-1.9-1.9 C273.9,655,274.7,654.2,275.7,654.2L275.7,654.2z"/>
    <path fill-rule="evenodd" clip-rule="evenodd" fill="#333333" d="M256,655.2h19.3c0.1,0,0.2,0.1,0.2,0.3l0,0c0,0.1-0.1,0.3-0.2,0.3 H256c-0.1,0-0.2-0.1-0.2-0.3l0,0C255.8,655.3,255.9,655.2,256,655.2L256,655.2z"/>
    <path fill-rule="evenodd" clip-rule="evenodd" fill="#333333" d="M256,656.4h19.3c0.1,0,0.2,0.1,0.2,0.3l0,0c0,0.1-0.1,0.3-0.2,0.3 H256c-0.1,0-0.2-0.1-0.2-0.3l0,0C255.8,656.5,255.9,656.4,256,656.4L256,656.4z"/>
    <path fill-rule="evenodd" clip-rule="evenodd" d="M275.7,660.6c1,0,1.9,0.8,1.9,1.9c0,1.1-0.8,1.9-1.9,1.9c-1,0-1.9-0.8-1.9-1.9 C273.9,661.5,274.7,660.6,275.7,660.6L275.7,660.6z"/>
    <path fill-rule="evenodd" clip-rule="evenodd" fill="#333333" d="M256,661.6h19.3c0.1,0,0.2,0.1,0.2,0.3l0,0c0,0.1-0.1,0.3-0.2,0.3 H256c-0.1,0-0.2-0.1-0.2-0.3l0,0C255.8,661.7,255.9,661.6,256,661.6L256,661.6z"/>
    <path fill-rule="evenodd" clip-rule="evenodd" fill="#333333" d="M256,662.8h19.3c0.1,0,0.2,0.1,0.2,0.3l0,0c0,0.2-0.1,0.3-0.2,0.3 H256c-0.1,0-0.2-0.1-0.2-0.3l0,0C255.8,662.9,255.9,662.8,256,662.8L256,662.8z"/>
    <path fill-rule="evenodd" clip-rule="evenodd" d="M275.7,667c1,0,1.9,0.9,1.9,1.9c0,1.1-0.8,1.9-1.9,1.9c-1,0-1.9-0.8-1.9-1.9 C273.9,667.9,274.7,667,275.7,667L275.7,667z"/>
    <path fill-rule="evenodd" clip-rule="evenodd" fill="#333333" d="M256,668h19.3c0.1,0,0.2,0.1,0.2,0.3l0,0c0,0.1-0.1,0.3-0.2,0.3 H256c-0.1,0-0.2-0.1-0.2-0.3l0,0C255.8,668.1,255.9,668,256,668L256,668z"/>
    <path fill-rule="evenodd" clip-rule="evenodd" fill="#333333" d="M256,669.2h19.3c0.1,0,0.2,0.1,0.2,0.3l0,0c0,0.1-0.1,0.3-0.2,0.3 H256c-0.1,0-0.2-0.1-0.2-0.3l0,0C255.8,669.3,255.9,669.2,256,669.2L256,669.2z"/>
    <path fill-rule="evenodd" clip-rule="evenodd" d="M275.7,673.4c1,0,1.9,0.9,1.9,1.9c0,1-0.8,1.9-1.9,1.9c-1,0-1.9-0.9-1.9-1.9 C273.9,674.3,274.7,673.4,275.7,673.4L275.7,673.4z"/>
    <path fill-rule="evenodd" clip-rule="evenodd" fill="#333333" d="M256,674.3h19.3c0.1,0,0.2,0.1,0.2,0.3l0,0c0,0.2-0.1,0.3-0.2,0.3 H256c-0.1,0-0.2-0.1-0.2-0.3l0,0C255.8,674.5,255.9,674.3,256,674.3L256,674.3z"/>
    <path fill-rule="evenodd" clip-rule="evenodd" fill="#333333" d="M256,675.6h19.3c0.1,0,0.2,0.1,0.2,0.3l0,0c0,0.1-0.1,0.3-0.2,0.3 H256c-0.1,0-0.2-0.1-0.2-0.3l0,0C255.8,675.7,255.9,675.6,256,675.6L256,675.6z"/>
    <path fill-rule="evenodd" clip-rule="evenodd" d="M275.7,679.8c1,0,1.9,0.8,1.9,1.9c0,1-0.8,1.9-1.9,1.9c-1,0-1.9-0.9-1.9-1.9 C273.9,680.6,274.7,679.8,275.7,679.8L275.7,679.8z"/>
    <path fill-rule="evenodd" clip-rule="evenodd" fill="#333333" d="M256,680.7h19.3c0.1,0,0.2,0.1,0.2,0.3l0,0c0,0.1-0.1,0.3-0.2,0.3 H256c-0.1,0-0.2-0.1-0.2-0.3l0,0C255.8,680.9,255.9,680.7,256,680.7L256,680.7z"/>
    <path fill-rule="evenodd" clip-rule="evenodd" fill="#333333" d="M256,682h19.3c0.1,0,0.2,0.1,0.2,0.3l0,0c0,0.1-0.1,0.3-0.2,0.3 H256c-0.1,0-0.2-0.1-0.2-0.3l0,0C255.8,682.1,255.9,682,256,682L256,682z"/>
    <path fill-rule="evenodd" clip-rule="evenodd" d="M275.7,686.2c1,0,1.9,0.8,1.9,1.9c0,1.1-0.8,1.9-1.9,1.9c-1,0-1.9-0.8-1.9-1.9 C273.9,687,274.7,686.2,275.7,686.2L275.7,686.2z"/>
    <path fill-rule="evenodd" clip-rule="evenodd" fill="#333333" d="M256,687.1h19.3c0.1,0,0.2,0.1,0.2,0.3l0,0c0,0.1-0.1,0.3-0.2,0.3 H256c-0.1,0-0.2-0.1-0.2-0.3l0,0C255.8,687.2,255.9,687.1,256,687.1L256,687.1z"/>
    <path fill-rule="evenodd" clip-rule="evenodd" fill="#333333" d="M256,688.4h19.3c0.1,0,0.2,0.1,0.2,0.3l0,0c0,0.2-0.1,0.3-0.2,0.3 H256c-0.1,0-0.2-0.1-0.2-0.3l0,0C255.8,688.5,255.9,688.4,256,688.4L256,688.4z"/>
    <path fill-rule="evenodd" clip-rule="evenodd" d="M275.7,692.6c1,0,1.9,0.9,1.9,1.9c0,1-0.8,1.9-1.9,1.9c-1,0-1.9-0.9-1.9-1.9 C273.9,693.4,274.7,692.6,275.7,692.6L275.7,692.6z"/>
    <path fill-rule="evenodd" clip-rule="evenodd" fill="#333333" d="M256,693.5h19.3c0.1,0,0.2,0.1,0.2,0.3l0,0c0,0.1-0.1,0.2-0.2,0.2 H256c-0.1,0-0.2-0.1-0.2-0.2l0,0C255.8,693.7,255.9,693.5,256,693.5L256,693.5z"/>
    <path fill-rule="evenodd" clip-rule="evenodd" fill="#333333" d="M256,694.8h19.3c0.1,0,0.2,0.1,0.2,0.3l0,0c0,0.1-0.1,0.3-0.2,0.3 H256c-0.1,0-0.2-0.1-0.2-0.3l0,0C255.8,694.9,255.9,694.8,256,694.8L256,694.8z"/>
    <path fill-rule="evenodd" clip-rule="evenodd" d="M275.7,699c1,0,1.9,0.9,1.9,1.9c0,1.1-0.8,1.9-1.9,1.9c-1,0-1.9-0.9-1.9-1.9 C273.9,699.8,274.7,699,275.7,699L275.7,699z"/>
    <path fill-rule="evenodd" clip-rule="evenodd" fill="#333333" d="M256,699.9h19.3c0.1,0,0.2,0.1,0.2,0.3l0,0c0,0.2-0.1,0.3-0.2,0.3 H256c-0.1,0-0.2-0.1-0.2-0.3l0,0C255.8,700.1,255.9,699.9,256,699.9L256,699.9z"/>
    <path fill-rule="evenodd" clip-rule="evenodd" fill="#333333" d="M256,701.2h19.3c0.1,0,0.2,0.1,0.2,0.3l0,0c0,0.1-0.1,0.3-0.2,0.3 H256c-0.1,0-0.2-0.1-0.2-0.3l0,0C255.8,701.3,255.9,701.2,256,701.2L256,701.2z"/>
    <path fill-rule="evenodd" clip-rule="evenodd" d="M275.7,705.4c1,0,1.9,0.8,1.9,1.9c0,1.1-0.8,1.9-1.9,1.9c-1,0-1.9-0.9-1.9-1.9 C273.9,706.2,274.7,705.4,275.7,705.4L275.7,705.4z"/>
    <path fill-rule="evenodd" clip-rule="evenodd" fill="#333333" d="M256,706.3h19.3c0.1,0,0.2,0.1,0.2,0.3l0,0c0,0.1-0.1,0.3-0.2,0.3 H256c-0.1,0-0.2-0.1-0.2-0.3l0,0C255.8,706.5,255.9,706.3,256,706.3L256,706.3z"/>
    <path fill-rule="evenodd" clip-rule="evenodd" fill="#333333" d="M256,707.6h19.3c0.1,0,0.2,0.1,0.2,0.3l0,0c0,0.1-0.1,0.2-0.2,0.2 H256c-0.1,0-0.2-0.1-0.2-0.2l0,0C255.8,707.7,255.9,707.6,256,707.6L256,707.6z"/>
    <path fill-rule="evenodd" clip-rule="evenodd" d="M275.7,711.7c1,0,1.9,0.9,1.9,1.9c0,1.1-0.8,1.9-1.9,1.9c-1,0-1.9-0.8-1.9-1.9 C273.9,712.6,274.7,711.7,275.7,711.7L275.7,711.7z"/>
    <path fill-rule="evenodd" clip-rule="evenodd" fill="#333333" d="M256,712.7h19.3c0.1,0,0.2,0.1,0.2,0.3l0,0c0,0.1-0.1,0.3-0.2,0.3 H256c-0.1,0-0.2-0.1-0.2-0.3l0,0C255.8,712.8,255.9,712.7,256,712.7L256,712.7z"/>
    <path fill-rule="evenodd" clip-rule="evenodd" fill="#333333" d="M256,714h19.3c0.1,0,0.2,0.1,0.2,0.3l0,0c0,0.2-0.1,0.3-0.2,0.3 H256c-0.1,0-0.2-0.1-0.2-0.3l0,0C255.8,714.1,255.9,714,256,714L256,714z"/>
    <path fill-rule="evenodd" clip-rule="evenodd" d="M275.7,718.1c1,0,1.9,0.9,1.9,1.9c0,1.1-0.8,1.9-1.9,1.9c-1,0-1.9-0.9-1.9-1.9 C273.9,719,274.7,718.1,275.7,718.1L275.7,718.1z"/>
    <path fill-rule="evenodd" clip-rule="evenodd" fill="#333333" d="M256,719.1h19.3c0.1,0,0.2,0.1,0.2,0.2l0,0c0,0.2-0.1,0.3-0.2,0.3 H256c-0.1,0-0.2-0.1-0.2-0.3l0,0C255.8,719.2,255.9,719.1,256,719.1L256,719.1z"/>
    <path fill-rule="evenodd" clip-rule="evenodd" fill="#333333" d="M256,720.4h19.3c0.1,0,0.2,0.1,0.2,0.3l0,0c0,0.1-0.1,0.3-0.2,0.3 H256c-0.1,0-0.2-0.1-0.2-0.3l0,0C255.8,720.5,255.9,720.4,256,720.4L256,720.4z"/>
    <path fill-rule="evenodd" clip-rule="evenodd" d="M256.3,558.3c-1.1,0-1.9,0.8-1.9,1.9c0,1,0.8,1.9,1.9,1.9c1,0,1.9-0.9,1.9-1.9 C258.2,559.1,257.3,558.3,256.3,558.3L256.3,558.3z"/>
    <path fill-rule="evenodd" clip-rule="evenodd" fill="#333333" d="M276,559.2h-19.3c-0.1,0-0.2,0.1-0.2,0.3l0,0 c0,0.1,0.1,0.3,0.2,0.3H276c0.1,0,0.2-0.1,0.2-0.3l0,0C276.3,559.4,276.2,559.2,276,559.2L276,559.2z"/>
    <path fill-rule="evenodd" clip-rule="evenodd" fill="#333333" d="M276,560.5h-19.3c-0.1,0-0.2,0.1-0.2,0.3l0,0 c0,0.1,0.1,0.3,0.2,0.3H276c0.1,0,0.2-0.1,0.2-0.3l0,0C276.3,560.6,276.2,560.5,276,560.5L276,560.5z"/>
    <path fill-rule="evenodd" clip-rule="evenodd" d="M256.3,564.7c-1.1,0-1.9,0.8-1.9,1.9c0,1.1,0.8,1.9,1.9,1.9c1,0,1.9-0.8,1.9-1.9 C258.2,565.5,257.3,564.7,256.3,564.7L256.3,564.7z"/>
    <path fill-rule="evenodd" clip-rule="evenodd" fill="#333333" d="M276,565.6h-19.3c-0.1,0-0.2,0.1-0.2,0.3l0,0 c0,0.1,0.1,0.3,0.2,0.3H276c0.1,0,0.2-0.1,0.2-0.3l0,0C276.3,565.7,276.2,565.6,276,565.6L276,565.6z"/>
    <path fill-rule="evenodd" clip-rule="evenodd" fill="#333333" d="M276,566.8h-19.3c-0.1,0-0.2,0.1-0.2,0.3l0,0 c0,0.2,0.1,0.3,0.2,0.3H276c0.1,0,0.2-0.1,0.2-0.3l0,0C276.3,567,276.2,566.8,276,566.8L276,566.8z"/>
    <path fill-rule="evenodd" clip-rule="evenodd" d="M256.3,571c-1.1,0-1.9,0.9-1.9,1.9c0,1.1,0.8,1.9,1.9,1.9c1,0,1.9-0.9,1.9-1.9 C258.2,571.9,257.3,571,256.3,571L256.3,571z"/>
    <path fill-rule="evenodd" clip-rule="evenodd" fill="#333333" d="M276,572h-19.3c-0.1,0-0.2,0.1-0.2,0.3l0,0c0,0.1,0.1,0.2,0.2,0.2 H276c0.1,0,0.2-0.1,0.2-0.2l0,0C276.3,572.1,276.2,572,276,572L276,572z"/>
    <path fill-rule="evenodd" clip-rule="evenodd" fill="#333333" d="M276,573.3h-19.3c-0.1,0-0.2,0.1-0.2,0.3l0,0 c0,0.1,0.1,0.3,0.2,0.3H276c0.1,0,0.2-0.1,0.2-0.3l0,0C276.3,573.4,276.2,573.3,276,573.3L276,573.3z"/>
    <path fill-rule="evenodd" clip-rule="evenodd" d="M256.3,577.5c-1.1,0-1.9,0.9-1.9,1.9c0,1.1,0.8,1.9,1.9,1.9c1,0,1.9-0.9,1.9-1.9 C258.2,578.3,257.3,577.5,256.3,577.5L256.3,577.5z"/>
    <path fill-rule="evenodd" clip-rule="evenodd" fill="#333333" d="M276,578.4h-19.3c-0.1,0-0.2,0.1-0.2,0.3l0,0 c0,0.2,0.1,0.3,0.2,0.3H276c0.1,0,0.2-0.1,0.2-0.3l0,0C276.3,578.5,276.2,578.4,276,578.4L276,578.4z"/>
    <path fill-rule="evenodd" clip-rule="evenodd" fill="#333333" d="M276,579.7h-19.3c-0.1,0-0.2,0.1-0.2,0.3l0,0 c0,0.1,0.1,0.3,0.2,0.3H276c0.1,0,0.2-0.1,0.2-0.3l0,0C276.3,579.8,276.2,579.7,276,579.7L276,579.7z"/>
    <path fill-rule="evenodd" clip-rule="evenodd" d="M256.3,583.9c-1.1,0-1.9,0.8-1.9,1.9c0,1,0.8,1.9,1.9,1.9c1,0,1.9-0.9,1.9-1.9 C258.2,584.7,257.3,583.9,256.3,583.9L256.3,583.9z"/>
    <path fill-rule="evenodd" clip-rule="evenodd" fill="#333333" d="M276,584.8h-19.3c-0.1,0-0.2,0.1-0.2,0.3l0,0 c0,0.1,0.1,0.3,0.2,0.3H276c0.1,0,0.2-0.1,0.2-0.3l0,0C276.3,584.9,276.2,584.8,276,584.8L276,584.8z"/>
    <path fill-rule="evenodd" clip-rule="evenodd" fill="#333333" d="M276,586.1h-19.3c-0.1,0-0.2,0.1-0.2,0.3l0,0 c0,0.1,0.1,0.2,0.2,0.2H276c0.1,0,0.2-0.1,0.2-0.2l0,0C276.3,586.2,276.2,586.1,276,586.1L276,586.1z"/>
    <path fill-rule="evenodd" clip-rule="evenodd" d="M256.3,590.2c-1.1,0-1.9,0.9-1.9,1.9c0,1.1,0.8,1.9,1.9,1.9c1,0,1.9-0.8,1.9-1.9 C258.2,591.1,257.3,590.2,256.3,590.2L256.3,590.2z"/>
    <path fill-rule="evenodd" clip-rule="evenodd" fill="#333333" d="M276,591.2h-19.3c-0.1,0-0.2,0.1-0.2,0.3l0,0 c0,0.1,0.1,0.3,0.2,0.3H276c0.1,0,0.2-0.1,0.2-0.3l0,0C276.3,591.3,276.2,591.2,276,591.2L276,591.2z"/>
    <path fill-rule="evenodd" clip-rule="evenodd" fill="#333333" d="M276,592.4h-19.3c-0.1,0-0.2,0.1-0.2,0.3l0,0 c0,0.2,0.1,0.3,0.2,0.3H276c0.1,0,0.2-0.1,0.2-0.3l0,0C276.3,592.6,276.2,592.4,276,592.4L276,592.4z"/>
    <path fill-rule="evenodd" clip-rule="evenodd" d="M256.3,596.6c-1.1,0-1.9,0.9-1.9,1.9c0,1,0.8,1.9,1.9,1.9c1,0,1.9-0.9,1.9-1.9 C258.2,597.5,257.3,596.6,256.3,596.6L256.3,596.6z"/>
    <path fill-rule="evenodd" clip-rule="evenodd" fill="#333333" d="M276,597.6h-19.3c-0.1,0-0.2,0.1-0.2,0.2l0,0 c0,0.2,0.1,0.3,0.2,0.3H276c0.1,0,0.2-0.1,0.2-0.3l0,0C276.3,597.7,276.2,597.6,276,597.6L276,597.6z"/>
    <path fill-rule="evenodd" clip-rule="evenodd" fill="#333333" d="M276,598.8h-19.3c-0.1,0-0.2,0.1-0.2,0.3l0,0 c0,0.1,0.1,0.3,0.2,0.3H276c0.1,0,0.2-0.1,0.2-0.3l0,0C276.3,599,276.2,598.8,276,598.8L276,598.8z"/>
    <path fill-rule="evenodd" clip-rule="evenodd" d="M256.3,603c-1.1,0-1.9,0.9-1.9,1.9c0,1,0.8,1.9,1.9,1.9c1,0,1.9-0.9,1.9-1.9 C258.2,603.9,257.3,603,256.3,603L256.3,603z"/>
    <path fill-rule="evenodd" clip-rule="evenodd" fill="#333333" d="M276,604h-19.3c-0.1,0-0.2,0.1-0.2,0.3l0,0c0,0.2,0.1,0.3,0.2,0.3 H276c0.1,0,0.2-0.1,0.2-0.3l0,0C276.3,604.1,276.2,604,276,604L276,604z"/>
    <path fill-rule="evenodd" clip-rule="evenodd" fill="#333333" d="M276,605.2h-19.3c-0.1,0-0.2,0.1-0.2,0.3l0,0 c0,0.1,0.1,0.3,0.2,0.3H276c0.1,0,0.2-0.1,0.2-0.3l0,0C276.3,605.3,276.2,605.2,276,605.2L276,605.2z"/>
    <path fill-rule="evenodd" clip-rule="evenodd" d="M256.3,609.4c-1.1,0-1.9,0.8-1.9,1.9c0,1,0.8,1.9,1.9,1.9c1,0,1.9-0.8,1.9-1.9 C258.2,610.3,257.3,609.4,256.3,609.4L256.3,609.4z"/>
    <path fill-rule="evenodd" clip-rule="evenodd" fill="#333333" d="M276,610.4h-19.3c-0.1,0-0.2,0.1-0.2,0.3l0,0 c0,0.1,0.1,0.3,0.2,0.3H276c0.1,0,0.2-0.1,0.2-0.3l0,0C276.3,610.5,276.2,610.4,276,610.4L276,610.4z"/>
    <path fill-rule="evenodd" clip-rule="evenodd" fill="#333333" d="M276,611.6h-19.3c-0.1,0-0.2,0.1-0.2,0.3l0,0 c0,0.1,0.1,0.2,0.2,0.2H276c0.1,0,0.2-0.1,0.2-0.2l0,0C276.3,611.8,276.2,611.6,276,611.6L276,611.6z"/>
    <path fill-rule="evenodd" clip-rule="evenodd" d="M256.3,615.8c-1.1,0-1.9,0.9-1.9,1.9c0,1.1,0.8,1.9,1.9,1.9c1,0,1.9-0.8,1.9-1.9 C258.2,616.7,257.3,615.8,256.3,615.8L256.3,615.8z"/>
    <path fill-rule="evenodd" clip-rule="evenodd" fill="#333333" d="M276,616.8h-19.3c-0.1,0-0.2,0.1-0.2,0.3l0,0 c0,0.1,0.1,0.3,0.2,0.3H276c0.1,0,0.2-0.1,0.2-0.3l0,0C276.3,616.9,276.2,616.8,276,616.8L276,616.8z"/>
    <path fill-rule="evenodd" clip-rule="evenodd" fill="#333333" d="M276,618h-19.3c-0.1,0-0.2,0.1-0.2,0.3l0,0c0,0.2,0.1,0.3,0.2,0.3 H276c0.1,0,0.2-0.1,0.2-0.3l0,0C276.3,618.2,276.2,618,276,618L276,618z"/>
    <path fill-rule="evenodd" clip-rule="evenodd" d="M256.3,622.2c-1.1,0-1.9,0.9-1.9,1.9c0,1,0.8,1.9,1.9,1.9c1,0,1.9-0.9,1.9-1.9 C258.2,623.1,257.3,622.2,256.3,622.2L256.3,622.2z"/>
    <path fill-rule="evenodd" clip-rule="evenodd" fill="#333333" d="M276,623.2h-19.3c-0.1,0-0.2,0.1-0.2,0.3l0,0 c0,0.2,0.1,0.3,0.2,0.3H276c0.1,0,0.2-0.1,0.2-0.3l0,0C276.3,623.3,276.2,623.2,276,623.2L276,623.2z"/>
    <path fill-rule="evenodd" clip-rule="evenodd" fill="#333333" d="M276,624.4h-19.3c-0.1,0-0.2,0.1-0.2,0.3l0,0 c0,0.1,0.1,0.3,0.2,0.3H276c0.1,0,0.2-0.1,0.2-0.3l0,0C276.3,624.6,276.2,624.4,276,624.4L276,624.4z"/>
    <path fill-rule="evenodd" clip-rule="evenodd" d="M256.3,628.6c-1.1,0-1.9,0.8-1.9,1.9c0,1,0.8,1.9,1.9,1.9c1,0,1.9-0.9,1.9-1.9 C258.2,629.5,257.3,628.6,256.3,628.6L256.3,628.6z"/>
    <path fill-rule="evenodd" clip-rule="evenodd" fill="#333333" d="M276,629.6h-19.3c-0.1,0-0.2,0.1-0.2,0.3l0,0 c0,0.2,0.1,0.3,0.2,0.3H276c0.1,0,0.2-0.1,0.2-0.3l0,0C276.3,629.7,276.2,629.6,276,629.6L276,629.6z"/>
    <path fill-rule="evenodd" clip-rule="evenodd" fill="#333333" d="M276,630.8h-19.3c-0.1,0-0.2,0.1-0.2,0.3l0,0 c0,0.1,0.1,0.3,0.2,0.3H276c0.1,0,0.2-0.1,0.2-0.3l0,0C276.3,630.9,276.2,630.8,276,630.8L276,630.8z"/>
    <path fill-rule="evenodd" clip-rule="evenodd" d="M256.3,635c-1.1,0-1.9,0.8-1.9,1.9c0,1,0.8,1.9,1.9,1.9c1,0,1.9-0.8,1.9-1.9 C258.2,635.9,257.3,635,256.3,635L256.3,635z"/>
    <path fill-rule="evenodd" clip-rule="evenodd" fill="#333333" d="M276,636h-19.3c-0.1,0-0.2,0.1-0.2,0.3l0,0c0,0.1,0.1,0.3,0.2,0.3 H276c0.1,0,0.2-0.1,0.2-0.3l0,0C276.3,636.1,276.2,636,276,636L276,636z"/>
    <path fill-rule="evenodd" clip-rule="evenodd" fill="#333333" d="M276,637.2h-19.3c-0.1,0-0.2,0.1-0.2,0.2l0,0 c0,0.2,0.1,0.3,0.2,0.3H276c0.1,0,0.2-0.1,0.2-0.3l0,0C276.3,637.3,276.2,637.2,276,637.2L276,637.2z"/>
    <path fill-rule="evenodd" clip-rule="evenodd" d="M256.3,641.4c-1.1,0-1.9,0.9-1.9,1.9c0,1.1,0.8,1.9,1.9,1.9c1,0,1.9-0.8,1.9-1.9 C258.2,642.3,257.3,641.4,256.3,641.4L256.3,641.4z"/>
    <path fill-rule="evenodd" clip-rule="evenodd" fill="#333333" d="M276,642.4h-19.3c-0.1,0-0.2,0.1-0.2,0.3l0,0 c0,0.1,0.1,0.3,0.2,0.3H276c0.1,0,0.2-0.1,0.2-0.3l0,0C276.3,642.5,276.2,642.4,276,642.4L276,642.4z"/>
    <path fill-rule="evenodd" clip-rule="evenodd" fill="#333333" d="M276,643.6h-19.3c-0.1,0-0.2,0.1-0.2,0.3l0,0 c0,0.2,0.1,0.3,0.2,0.3H276c0.1,0,0.2-0.1,0.2-0.3l0,0C276.3,643.7,276.2,643.6,276,643.6L276,643.6z"/>
    <path fill-rule="evenodd" clip-rule="evenodd" d="M256.3,647.8c-1.1,0-1.9,0.9-1.9,1.9c0,1,0.8,1.9,1.9,1.9c1,0,1.9-0.9,1.9-1.9 C258.2,648.7,257.3,647.8,256.3,647.8L256.3,647.8z"/>
    <path fill-rule="evenodd" clip-rule="evenodd" fill="#333333" d="M276,648.7h-19.3c-0.1,0-0.2,0.1-0.2,0.3l0,0 c0,0.2,0.1,0.3,0.2,0.3H276c0.1,0,0.2-0.1,0.2-0.3l0,0C276.3,648.9,276.2,648.7,276,648.7L276,648.7z"/>
    <path fill-rule="evenodd" clip-rule="evenodd" fill="#333333" d="M276,650h-19.3c-0.1,0-0.2,0.1-0.2,0.3l0,0c0,0.1,0.1,0.3,0.2,0.3 H276c0.1,0,0.2-0.1,0.2-0.3l0,0C276.3,650.1,276.2,650,276,650L276,650z"/>
    <path fill-rule="evenodd" clip-rule="evenodd" d="M256.3,654.2c-1.1,0-1.9,0.8-1.9,1.9c0,1,0.8,1.9,1.9,1.9c1,0,1.9-0.9,1.9-1.9 C258.2,655,257.3,654.2,256.3,654.2L256.3,654.2z"/>
    <path fill-rule="evenodd" clip-rule="evenodd" fill="#333333" d="M276,655.2h-19.3c-0.1,0-0.2,0.1-0.2,0.3l0,0 c0,0.1,0.1,0.3,0.2,0.3H276c0.1,0,0.2-0.1,0.2-0.3l0,0C276.3,655.3,276.2,655.2,276,655.2L276,655.2z"/>
    <path fill-rule="evenodd" clip-rule="evenodd" fill="#333333" d="M276,656.4h-19.3c-0.1,0-0.2,0.1-0.2,0.3l0,0 c0,0.1,0.1,0.3,0.2,0.3H276c0.1,0,0.2-0.1,0.2-0.3l0,0C276.3,656.5,276.2,656.4,276,656.4L276,656.4z"/>
    <path fill-rule="evenodd" clip-rule="evenodd" d="M256.3,660.6c-1.1,0-1.9,0.8-1.9,1.9c0,1.1,0.8,1.9,1.9,1.9c1,0,1.9-0.8,1.9-1.9 C258.2,661.5,257.3,660.6,256.3,660.6L256.3,660.6z"/>
    <path fill-rule="evenodd" clip-rule="evenodd" fill="#333333" d="M276,661.6h-19.3c-0.1,0-0.2,0.1-0.2,0.3l0,0 c0,0.1,0.1,0.3,0.2,0.3H276c0.1,0,0.2-0.1,0.2-0.3l0,0C276.3,661.7,276.2,661.6,276,661.6L276,661.6z"/>
    <path fill-rule="evenodd" clip-rule="evenodd" fill="#333333" d="M276,662.8h-19.3c-0.1,0-0.2,0.1-0.2,0.3l0,0 c0,0.2,0.1,0.3,0.2,0.3H276c0.1,0,0.2-0.1,0.2-0.3l0,0C276.3,662.9,276.2,662.8,276,662.8L276,662.8z"/>
    <path fill-rule="evenodd" clip-rule="evenodd" d="M256.3,667c-1.1,0-1.9,0.9-1.9,1.9c0,1.1,0.8,1.9,1.9,1.9c1,0,1.9-0.8,1.9-1.9 C258.2,667.9,257.3,667,256.3,667L256.3,667z"/>
    <path fill-rule="evenodd" clip-rule="evenodd" fill="#333333" d="M276,668h-19.3c-0.1,0-0.2,0.1-0.2,0.3l0,0c0,0.1,0.1,0.3,0.2,0.3 H276c0.1,0,0.2-0.1,0.2-0.3l0,0C276.3,668.1,276.2,668,276,668L276,668z"/>
    <path fill-rule="evenodd" clip-rule="evenodd" fill="#333333" d="M276,669.2h-19.3c-0.1,0-0.2,0.1-0.2,0.3l0,0 c0,0.1,0.1,0.3,0.2,0.3H276c0.1,0,0.2-0.1,0.2-0.3l0,0C276.3,669.3,276.2,669.2,276,669.2L276,669.2z"/>
    <path fill-rule="evenodd" clip-rule="evenodd" d="M256.3,673.4c-1.1,0-1.9,0.9-1.9,1.9c0,1,0.8,1.9,1.9,1.9c1,0,1.9-0.9,1.9-1.9 C258.2,674.3,257.3,673.4,256.3,673.4L256.3,673.4z"/>
    <path fill-rule="evenodd" clip-rule="evenodd" fill="#333333" d="M276,674.3h-19.3c-0.1,0-0.2,0.1-0.2,0.3l0,0 c0,0.2,0.1,0.3,0.2,0.3H276c0.1,0,0.2-0.1,0.2-0.3l0,0C276.3,674.5,276.2,674.3,276,674.3L276,674.3z"/>
    <path fill-rule="evenodd" clip-rule="evenodd" fill="#333333" d="M276,675.6h-19.3c-0.1,0-0.2,0.1-0.2,0.3l0,0 c0,0.1,0.1,0.3,0.2,0.3H276c0.1,0,0.2-0.1,0.2-0.3l0,0C276.3,675.7,276.2,675.6,276,675.6L276,675.6z"/>
    <path fill-rule="evenodd" clip-rule="evenodd" d="M256.3,679.8c-1.1,0-1.9,0.8-1.9,1.9c0,1,0.8,1.9,1.9,1.9c1,0,1.9-0.9,1.9-1.9 C258.2,680.6,257.3,679.8,256.3,679.8L256.3,679.8z"/>
    <path fill-rule="evenodd" clip-rule="evenodd" fill="#333333" d="M276,680.7h-19.3c-0.1,0-0.2,0.1-0.2,0.3l0,0 c0,0.1,0.1,0.3,0.2,0.3H276c0.1,0,0.2-0.1,0.2-0.3l0,0C276.3,680.9,276.2,680.7,276,680.7L276,680.7z"/>
    <path fill-rule="evenodd" clip-rule="evenodd" fill="#333333" d="M276,682h-19.3c-0.1,0-0.2,0.1-0.2,0.3l0,0c0,0.1,0.1,0.3,0.2,0.3 H276c0.1,0,0.2-0.1,0.2-0.3l0,0C276.3,682.1,276.2,682,276,682L276,682z"/>
    <path fill-rule="evenodd" clip-rule="evenodd" d="M256.3,686.2c-1.1,0-1.9,0.8-1.9,1.9c0,1.1,0.8,1.9,1.9,1.9c1,0,1.9-0.8,1.9-1.9 C258.2,687,257.3,686.2,256.3,686.2L256.3,686.2z"/>
    <path fill-rule="evenodd" clip-rule="evenodd" fill="#333333" d="M276,687.1h-19.3c-0.1,0-0.2,0.1-0.2,0.3l0,0 c0,0.1,0.1,0.3,0.2,0.3H276c0.1,0,0.2-0.1,0.2-0.3l0,0C276.3,687.2,276.2,687.1,276,687.1L276,687.1z"/>
    <path fill-rule="evenodd" clip-rule="evenodd" fill="#333333" d="M276,688.4h-19.3c-0.1,0-0.2,0.1-0.2,0.3l0,0 c0,0.2,0.1,0.3,0.2,0.3H276c0.1,0,0.2-0.1,0.2-0.3l0,0C276.3,688.5,276.2,688.4,276,688.4L276,688.4z"/>
    <path fill-rule="evenodd" clip-rule="evenodd" d="M256.3,692.6c-1.1,0-1.9,0.9-1.9,1.9c0,1,0.8,1.9,1.9,1.9c1,0,1.9-0.9,1.9-1.9 C258.2,693.4,257.3,692.6,256.3,692.6L256.3,692.6z"/>
    <path fill-rule="evenodd" clip-rule="evenodd" fill="#333333" d="M276,693.5h-19.3c-0.1,0-0.2,0.1-0.2,0.3l0,0 c0,0.1,0.1,0.2,0.2,0.2H276c0.1,0,0.2-0.1,0.2-0.2l0,0C276.3,693.7,276.2,693.5,276,693.5L276,693.5z"/>
    <path fill-rule="evenodd" clip-rule="evenodd" fill="#333333" d="M276,694.8h-19.3c-0.1,0-0.2,0.1-0.2,0.3l0,0 c0,0.1,0.1,0.3,0.2,0.3H276c0.1,0,0.2-0.1,0.2-0.3l0,0C276.3,694.9,276.2,694.8,276,694.8L276,694.8z"/>
    <path fill-rule="evenodd" clip-rule="evenodd" d="M256.3,699c-1.1,0-1.9,0.9-1.9,1.9c0,1.1,0.8,1.9,1.9,1.9c1,0,1.9-0.9,1.9-1.9 C258.2,699.8,257.3,699,256.3,699L256.3,699z"/>
    <path fill-rule="evenodd" clip-rule="evenodd" fill="#333333" d="M276,699.9h-19.3c-0.1,0-0.2,0.1-0.2,0.3l0,0 c0,0.2,0.1,0.3,0.2,0.3H276c0.1,0,0.2-0.1,0.2-0.3l0,0C276.3,700.1,276.2,699.9,276,699.9L276,699.9z"/>
    <path fill-rule="evenodd" clip-rule="evenodd" fill="#333333" d="M276,701.2h-19.3c-0.1,0-0.2,0.1-0.2,0.3l0,0 c0,0.1,0.1,0.3,0.2,0.3H276c0.1,0,0.2-0.1,0.2-0.3l0,0C276.3,701.3,276.2,701.2,276,701.2L276,701.2z"/>
    <path fill-rule="evenodd" clip-rule="evenodd" d="M256.3,705.4c-1.1,0-1.9,0.8-1.9,1.9c0,1.1,0.8,1.9,1.9,1.9c1,0,1.9-0.9,1.9-1.9 C258.2,706.2,257.3,705.4,256.3,705.4L256.3,705.4z"/>
    <path fill-rule="evenodd" clip-rule="evenodd" fill="#333333" d="M276,706.3h-19.3c-0.1,0-0.2,0.1-0.2,0.3l0,0 c0,0.1,0.1,0.3,0.2,0.3H276c0.1,0,0.2-0.1,0.2-0.3l0,0C276.3,706.5,276.2,706.3,276,706.3L276,706.3z"/>
    <path fill-rule="evenodd" clip-rule="evenodd" fill="#333333" d="M276,707.6h-19.3c-0.1,0-0.2,0.1-0.2,0.3l0,0 c0,0.1,0.1,0.2,0.2,0.2H276c0.1,0,0.2-0.1,0.2-0.2l0,0C276.3,707.7,276.2,707.6,276,707.6L276,707.6z"/>
    <path fill-rule="evenodd" clip-rule="evenodd" d="M256.3,711.7c-1.1,0-1.9,0.9-1.9,1.9c0,1.1,0.8,1.9,1.9,1.9c1,0,1.9-0.8,1.9-1.9 C258.2,712.6,257.3,711.7,256.3,711.7L256.3,711.7z"/>
    <path fill-rule="evenodd" clip-rule="evenodd" fill="#333333" d="M276,712.7h-19.3c-0.1,0-0.2,0.1-0.2,0.3l0,0 c0,0.1,0.1,0.3,0.2,0.3H276c0.1,0,0.2-0.1,0.2-0.3l0,0C276.3,712.8,276.2,712.7,276,712.7L276,712.7z"/>
    <path fill-rule="evenodd" clip-rule="evenodd" fill="#333333" d="M276,714h-19.3c-0.1,0-0.2,0.1-0.2,0.3l0,0c0,0.2,0.1,0.3,0.2,0.3 H276c0.1,0,0.2-0.1,0.2-0.3l0,0C276.3,714.1,276.2,714,276,714L276,714z"/>
    <path fill-rule="evenodd" clip-rule="evenodd" d="M256.3,718.1c-1.1,0-1.9,0.9-1.9,1.9c0,1.1,0.8,1.9,1.9,1.9c1,0,1.9-0.9,1.9-1.9 C258.2,719,257.3,718.1,256.3,718.1L256.3,718.1z"/>
    <path fill-rule="evenodd" clip-rule="evenodd" fill="#333333" d="M276,719.1h-19.3c-0.1,0-0.2,0.1-0.2,0.2l0,0 c0,0.2,0.1,0.3,0.2,0.3H276c0.1,0,0.2-0.1,0.2-0.3l0,0C276.3,719.2,276.2,719.1,276,719.1L276,719.1z"/>
    <path fill-rule="evenodd" clip-rule="evenodd" fill="#333333" d="M276,720.4h-19.3c-0.1,0-0.2,0.1-0.2,0.3l0,0 c0,0.1,0.1,0.3,0.2,0.3H276c0.1,0,0.2-0.1,0.2-0.3l0,0C276.3,720.5,276.2,720.4,276,720.4L276,720.4z"/>
    <rect x="396.2" y="571.2" fill-rule="evenodd" clip-rule="evenodd" fill="#FFF5B0" width="15" height="22.1"/>
    <rect x="396.2" y="596.4" fill-rule="evenodd" clip-rule="evenodd" fill="#9CD5C3" width="15" height="22.1"/>
    <rect x="396.2" y="621.6" fill-rule="evenodd" clip-rule="evenodd" fill="#99BCE3" width="15" height="22.1"/>
    <rect x="396.2" y="646.8" fill-rule="evenodd" clip-rule="evenodd" fill="#FF0066" width="15" height="22.1"/>
    <polygon fill-rule="evenodd" clip-rule="evenodd" fill="#FF9999" points="288,686.9 288,732.9 317.5,732.9 317.5,686.9 303,704 &#10;&#9;&#9;288,686.9 &#9;"/>
    <polygon fill-rule="evenodd" clip-rule="evenodd" fill="#FF0066" points="324.6,725.6 317.5,732.9 317.5,725.6 &#9;"/>
    <rect x="145.2" y="539.2" fill-rule="evenodd" clip-rule="evenodd" fill="#540254" width="69.6" height="181.4"/>
    <polygon fill-rule="evenodd" clip-rule="evenodd" fill="#CC99CC" points="200.9,716.3 150.5,716.3 150.5,666.8 &#9;"/>
    <path fill="#FFFFFF" d="M194.1,712v0.2h0.4V712H194.1z M153.6,670.9v0.3h-0.2v-0.3H153.6z M153.6,671.8h-0.2v0.4h0.2V671.8z M153.6,672.8h-0.2v0.4h0.2V672.8z M153.6,673.8h-0.2v0.4h0.2V673.8z M153.6,674.8h-0.2v0.4h0.2V674.8z M153.6,675.8h-0.2v0.4h0.2 V675.8z M153.6,676.8h-0.2v0.4h0.2V676.8z M153.6,677.8h-0.2v0.4h0.2V677.8z M153.6,678.8h-0.2v0.4h0.2V678.8z M153.6,679.8h-0.2 v0.4h0.2V679.8z M153.6,680.8h-0.2v0.4h0.2V680.8z M153.6,681.8h-0.2v0.4h0.2V681.8z M153.6,682.8h-0.2v0.4h0.2V682.8z M153.6,683.8h-0.2v0.4h0.2V683.8z M153.6,684.8h-0.2v0.4h0.2V684.8z M153.6,685.8h-0.2v0.4h0.2V685.8z M153.6,686.8h-0.2v0.4h0.2 V686.8z M153.6,687.8h-0.2v0.4h0.2V687.8z M153.6,688.8h-0.2v0.4h0.2V688.8z M153.6,689.8h-0.2v0.4h0.2V689.8z M153.6,690.8h-0.2 v0.4h0.2V690.8z M153.6,691.8h-0.2v0.4h0.2V691.8z M153.6,692.8h-0.2v0.4h0.2V692.8z M153.6,693.8h-0.2v0.4h0.2V693.8z M153.6,694.8h-0.2v0.4h0.2V694.8z M153.6,695.8h-0.2v0.4h0.2V695.8z M153.6,696.8h-0.2v0.4h0.2V696.8z M153.6,697.8h-0.2v0.4h0.2 V697.8z M153.6,698.8h-0.2v0.4h0.2V698.8z M153.6,699.8h-0.2v0.4h0.2V699.8z M153.6,700.8h-0.2v0.4h0.2V700.8z M153.6,701.8h-0.2 v0.4h0.2V701.8z M153.6,702.8h-0.2v0.4h0.2V702.8z M153.6,703.8h-0.2v0.4h0.2V703.8z M153.6,704.7h-0.2v0.4h0.2V704.7z M153.6,705.8h-0.2v0.4h0.2V705.8z M153.6,706.8h-0.2v0.4h0.2V706.8z M153.6,707.8h-0.2v0.4h0.2V707.8z M153.6,708.8h-0.2v0.4h0.2 V708.8z M153.6,709.8h-0.2v0.4h0.2V709.8z M153.6,710.8h-0.2v0.4h0.2V710.8z M153.6,711.7h-0.2v0.5h0.2V711.7z M154.2,712v0.2h0.4 V712H154.2z M155.2,712v0.2h0.4V712H155.2z M156.1,712v0.2h0.4V712H156.1z M157.2,712v0.2h0.4V712H157.2z M158.2,712v0.2h0.4V712 H158.2z M159.2,712v0.2h0.4V712H159.2z M160.2,712v0.2h0.4V712H160.2z M161.2,712v0.2h0.4V712H161.2z M162.2,712v0.2h0.4V712H162.2 z M163.1,712v0.2h0.4V712H163.1z M164.2,712v0.2h0.4V712H164.2z M165.1,712v0.2h0.4V712H165.1z M166.2,712v0.2h0.4V712H166.2z M167.2,712v0.2h0.4V712H167.2z M168.2,712v0.2h0.4V712H168.2z M169.2,712v0.2h0.4V712H169.2z M170.1,712v0.2h0.4V712H170.1z M171.2,712v0.2h0.4V712H171.2z M172.1,712v0.2h0.4V712H172.1z M173.2,712v0.2h0.4V712H173.2z M174.1,712v0.2h0.4V712H174.1z M175.2,712v0.2h0.4V712H175.2z M176.2,712v0.2h0.4V712H176.2z M177.1,712v0.2h0.4V712H177.1z M178.2,712v0.2h0.4V712H178.2z M179.1,712v0.2h0.4V712H179.1z M180.2,712v0.2h0.4V712H180.2z M181.1,712v0.2h0.4V712H181.1z M182.2,712v0.2h0.4V712H182.2z M183.1,712v0.2h0.4V712H183.1z M184.1,712v0.2h0.4V712H184.1z M185.1,712v0.2h0.4V712H185.1z M186.1,712v0.2h0.4V712H186.1z M187.2,712v0.2h0.4V712H187.2z M188.1,712v0.2h0.4V712H188.1z M189.2,712v0.2h0.4V712H189.2z M190.1,712v0.2h0.4V712H190.1z M191.1,712v0.2h0.4V712H191.1z M192.1,712v0.2h0.4V712H192.1z M193.1,712v0.2h0.4V712H193.1z"/>
    <polygon fill-rule="evenodd" clip-rule="evenodd" fill="#660066" points="160.6,558.1 145.2,539.2 145.2,720.6 160.6,739.5 &#10;&#9;&#9;160.6,622.8 171.9,622.8 171.9,576.6 160.6,576.6 &#9;"/>
  </g>
</svg>