<?xml version="1.0" encoding="utf-8"?>
<svg viewBox="-3090.4 555.521 287.6 170.793" xmlns="http://www.w3.org/2000/svg">
  <g transform="matrix(1, 0, 0, 1, -4014.700439, 349.613495)">
    <polygon fill-rule="evenodd" clip-rule="evenodd" fill="#FF6161" points="924.3,228.9 924.3,376.7 1042.8,376.7 1052.2,368.5 &#10;&#9;&#9;1054.3,368.5 1054.7,368.5 1056.7,368.5 1066.1,376.7 1184.6,376.7 1184.6,228.9 1054.7,228.9 1054.3,228.9 &#9;"/>
    <polygon fill-rule="evenodd" clip-rule="evenodd" fill="#DE3E3E" points="1184.6,228.9 1211.9,217.4 1211.9,365.2 1184.6,376.7 &#9;&#10;&#9;&#9;"/>
    <rect x="932" y="231.6" fill-rule="evenodd" clip-rule="evenodd" fill="#FFFBE5" width="117.5" height="135.2"/>
    <rect x="1058.3" y="231.6" fill-rule="evenodd" clip-rule="evenodd" fill="#FFF7E5" width="119.8" height="135.2"/>
    <rect x="934.5" y="231.6" fill-rule="evenodd" clip-rule="evenodd" fill="#FAF1C0" width="115.1" height="135.2"/>
    <rect x="1058.9" y="231.6" fill-rule="evenodd" clip-rule="evenodd" fill="#FFFBE5" width="117.5" height="135.2"/>
    <path fill-rule="evenodd" clip-rule="evenodd" fill="#E1DFBB" d="M937.8,228.2c33.4-8.9,74.7-9.2,111.6,3.3v135.4 c-34.9-9-84.8-10.2-111.9-3.6l0-13.5L937.8,228.2z"/>
    <path fill-rule="evenodd" clip-rule="evenodd" fill="#FFF4DD" d="M1049.5,366.9V231.3c-26.5-18.1-57.9-29-100.1-24.3V343 C984.9,339.8,1027.3,353.4,1049.5,366.9L1049.5,366.9z"/>
    <path fill-rule="evenodd" clip-rule="evenodd" fill="#FCF7ED" d="M1049.5,366.9V231.3c-15.3-10.5-32.2-18.5-51.9-22.5V347 C1018,351.6,1037,359.3,1049.5,366.9L1049.5,366.9z"/>
    <path fill-rule="evenodd" clip-rule="evenodd" fill="#E5E5E5" d="M1170.4,228.2c-33.4-8.9-74.7-9.2-111.6,3.3v135.4 c34.9-9,84.8-10.2,112-3.6l0-13.5L1170.4,228.2z"/>
    <path fill-rule="evenodd" clip-rule="evenodd" fill="#26B596" d="M1058.6,367.1V231.5c26.5-18.1,57.9-29,100.1-24.3v39.6 c-4.4,0.7-10.7,1.8-12.8,2.4c-3.5,1-7.6,2.9-7.6,2.9V343C1108.2,345,1076.7,356.1,1058.6,367.1L1058.6,367.1z"/>
    <path fill-rule="evenodd" clip-rule="evenodd" fill="#14997C" d="M1058.3,367.2V231.6c11-7.6,22.9-13.9,36.1-18.3v31.2l3.7-0.8v4.3 c0,1.1,0.4,1.6,1.1,1.5c0.5-0.1,0.7-0.3,0.9-0.6c0.2-0.3,0.3-0.8,0.3-1.5v-3.7l5-1v4.3c0,0.6,0.1,1,0.3,1.2s0.5,0.3,0.9,0.2 c0.5-0.1,0.8-0.3,0.9-0.6c0.1-0.3,0.2-0.8,0.2-1.6v-4.5l6.4-1.4v5.3c0,2.4-0.6,4.5-1.8,6c-1.2,1.5-2.9,2.6-5.1,3l-8.8,1.8 c-1.6,0.3-3,0.3-4.1-0.2v3.1l3.7-0.8v5.1l16-3.4v6.7l-16,3.4v5.1l-3.7,0.8v4.8c0.1-0.1,0.1-0.2,0.2-0.3c2.3-2.7,5.1-4.5,8.3-5.1 c3.3-0.7,6.1-0.1,8.4,1.7c2.3,1.8,3.4,4.4,3.4,7.6c0,3.3-1.2,6.3-3.4,9.1c-2.3,2.8-5.1,4.5-8.4,5.2c-3.3,0.7-6.1,0.1-8.3-1.7 l-0.2-0.1v7.6c1.4-1.1,3.2-1.9,5.4-2.4l14.3-3v6.6l-14.3,3c-1.4,0.3-2.1,0.9-2.1,1.9c0,0.9,0.7,1.3,2.1,1l14.3-3v6.6l-14.6,3 c-2.1,0.5-3.8,0.3-5.2-0.4v33.1C1080.2,356,1067.5,361.6,1058.3,367.2L1058.3,367.2z M1097.8,288.5c0,1.4,0.5,2.4,1.5,3.2 c1,0.7,2.2,1,3.6,0.7c1.4-0.3,2.7-1.1,3.7-2.2c1-1.2,1.5-2.4,1.5-3.8c0-1.4-0.5-2.4-1.5-3.2c-1-0.8-2.2-1-3.7-0.7 c-1.4,0.3-2.6,1-3.6,2.2C1098.3,285.8,1097.8,287.1,1097.8,288.5L1097.8,288.5z"/>
    <path fill-rule="evenodd" clip-rule="evenodd" fill="#8FFFF0" d="M939.9,234.2h9.5v28.3h-9.5c-3.4,0-6.2-2.8-6.2-6.2v-15.9 C933.7,237,936.5,234.2,939.9,234.2L939.9,234.2z"/>
    <path fill-rule="evenodd" clip-rule="evenodd" fill="#C2FC3C" d="M939.9,251.4h9.5v28.3h-9.5c-3.4,0-6.2-2.8-6.2-6.2v-15.9 C933.7,254.2,936.5,251.4,939.9,251.4L939.9,251.4z"/>
    <path fill-rule="evenodd" clip-rule="evenodd" fill="#FFA13D" d="M939.9,267.5h9.5v28.3h-9.5c-3.4,0-6.2-2.8-6.2-6.2v-16 C933.7,270.3,936.5,267.5,939.9,267.5L939.9,267.5z"/>
    <path fill-rule="evenodd" clip-rule="evenodd" fill="#E591FA" d="M1180,288h-9.5v28.3h9.5c3.4,0,6.2-2.8,6.2-6.2v-16 C1186.2,290.8,1183.4,288,1180,288L1180,288z"/>
    <path fill-rule="evenodd" clip-rule="evenodd" fill="#9080A8" d="M1180,304.2h-9.5v28.3h9.5c3.4,0,6.2-2.8,6.2-6.2v-16 C1186.2,306.9,1183.4,304.2,1180,304.2L1180,304.2z"/>
    <path fill="#FFFFFF" d="M963.4,231c0.1,0,14.5-0.9,36.2,4.2c21.7,5.1,35.8,13.4,35.8,13.4l-0.3,0.6c0,0-14-8.3-35.6-13.4 c-21.6-5.1-36-4.2-36-4.2L963.4,231z M963.4,323.7c0.1,0,14.5-0.9,36.2,4.2c21.7,5.1,35.8,13.4,35.8,13.4l-0.3,0.6 c0,0-14-8.3-35.6-13.4c-21.6-5.1-36-4.1-36-4.1L963.4,323.7z M963.4,316.7c0.1,0,14.5-0.9,36.2,4.2c21.7,5.1,35.8,13.4,35.8,13.4 l-0.3,0.6c0,0-14-8.3-35.6-13.4c-21.6-5.1-36-4.2-36-4.2L963.4,316.7z M963.4,309.8c0.1,0,14.5-0.9,36.2,4.2 c21.7,5.1,35.8,13.4,35.8,13.4l-0.3,0.6c0,0-14-8.3-35.6-13.4c-21.6-5.1-36-4.2-36-4.1L963.4,309.8z M963.4,302.8 c0.1,0,14.5-0.9,36.2,4.2c21.7,5.1,35.8,13.4,35.8,13.4l-0.3,0.6c0,0-14-8.3-35.6-13.4c-21.6-5.1-36-4.2-36-4.2L963.4,302.8z M963.4,295.8c0.1,0,14.5-0.9,36.2,4.2c21.7,5.1,35.8,13.4,35.8,13.4l-0.3,0.6c0,0-14-8.3-35.6-13.4c-21.6-5.1-36-4.2-36-4.2 L963.4,295.8z M963.4,288.8c0.1,0,14.5-0.9,36.2,4.2c21.7,5.1,35.8,13.4,35.8,13.4l-0.3,0.6c0,0-14-8.3-35.6-13.4 c-21.6-5.1-36-4.2-36-4.2L963.4,288.8z M963.4,281.8c0.1,0,14.5-0.9,36.2,4.2c21.7,5.1,35.8,13.4,35.8,13.4l-0.3,0.6 c0,0-14-8.3-35.6-13.4c-21.6-5.1-36-4.2-36-4.2L963.4,281.8z M963.4,274.9c0.1,0,14.5-0.9,36.2,4.2c21.7,5.1,35.8,13.4,35.8,13.4 l-0.3,0.6c0,0-14-8.3-35.6-13.4c-21.6-5.1-36-4.1-36-4.1L963.4,274.9z M963.4,267.9c0.1,0,14.5-0.9,36.2,4.2 c21.7,5.1,35.8,13.4,35.8,13.5l-0.3,0.6c0,0-14-8.3-35.6-13.4c-21.6-5.1-36-4.2-36-4.2L963.4,267.9z M963.4,260.9 c0.1,0,14.5-0.9,36.2,4.2c21.7,5.1,35.8,13.4,35.8,13.4l-0.3,0.6c0,0-14-8.3-35.6-13.4c-21.6-5.1-36-4.1-36-4.1L963.4,260.9z M963.4,253.9c0.1,0,14.5-0.9,36.2,4.2c21.7,5.1,35.8,13.4,35.8,13.5l-0.3,0.6c0,0-14-8.3-35.6-13.4c-21.6-5.1-36-4.2-36-4.2 L963.4,253.9z M963.4,246.9c0.1,0,14.5-0.9,36.2,4.2c21.7,5.1,35.8,13.4,35.8,13.4l-0.3,0.6c0,0-14-8.3-35.6-13.4 c-21.6-5.1-36-4.1-36-4.1L963.4,246.9z"/>
    <path fill-rule="evenodd" clip-rule="evenodd" fill="#FFDB0D" d="M1198.9,230.6c-1,0.2-3.6,1.2-4,6.1c-0.5,6.1-1.5,77.2,0.1,95.7 c1.7,18.5,3.2,21.2,3.2,21.2h0.3h0.6h0.3c0,0,1.5-2.7,3.3-21.2c1.8-18.5,1.1-89.6,0.7-95.7c-0.3-5-3-6-4-6.1 C1199.2,230.5,1199.1,230.5,1198.9,230.6L1198.9,230.6z"/>
    <path fill-rule="evenodd" clip-rule="evenodd" fill="#FAE64B" d="M1198.9,230.6c-1,0.2-3.6,1.2-4,6.1c-0.5,6.1-1.5,77.2,0.1,95.7 c1.7,18.5,3.2,21.2,3.2,21.2h0.3h0.6c-0.2-6.5-0.5-15.9-0.8-28.4c-0.7-22.3,0.8-73.6,1.5-94.5c-0.2-0.1-0.3-0.1-0.4-0.1 C1199.2,230.5,1199.1,230.5,1198.9,230.6L1198.9,230.6z"/>
    <path fill-rule="evenodd" clip-rule="evenodd" fill="#F2D600" d="M1194.2,284.3l9.6,0c0,1,0,2,0,2.9l-9.6,0 C1194.2,286.2,1194.2,285.2,1194.2,284.3L1194.2,284.3z"/>
    <polygon fill-rule="evenodd" clip-rule="evenodd" fill="#F2D600" points="1194.2,283.5 1203.7,283.5 1203.7,284 1194.2,284 &#9;"/>
    <polygon fill-rule="evenodd" clip-rule="evenodd" fill="#F2D600" points="1194.2,287.5 1203.7,287.5 1203.7,288 1194.2,288 &#9;"/>
    <path fill-rule="evenodd" clip-rule="evenodd" fill="#F2CE00" d="M1194.2,284.3h2.1c0.2,0.5,0.3,1,0.3,1.5c0,0.5-0.1,1-0.3,1.4 h-2.1C1194.2,286.2,1194.2,285.2,1194.2,284.3L1194.2,284.3z"/>
    <path fill-rule="evenodd" clip-rule="evenodd" fill="#F2CE00" d="M1194.2,283.5h1.6c0.1,0.1,0.2,0.3,0.3,0.5h-1.9V283.5z"/>
    <path fill-rule="evenodd" clip-rule="evenodd" fill="#F2CE00" d="M1194.2,287.5h1.9c-0.1,0.2-0.2,0.4-0.4,0.5h-1.6V287.5z"/>
    <path fill-rule="evenodd" clip-rule="evenodd" fill="#F2CE00" d="M1195,331l7.8,0c0,0.4-0.1,0.8-0.1,1.2l-7.6,0 C1195,331.8,1195,331.4,1195,331L1195,331z"/>
    <path fill-rule="evenodd" clip-rule="evenodd" fill="#E3C207" d="M1195,331l3.6,0c0,0.4,0,0.8-0.1,1.2h-3.5 C1195,331.8,1195,331.4,1195,331L1195,331z"/>
    <path fill-rule="evenodd" clip-rule="evenodd" fill="#F2CE00" d="M1195.1,332.8h7.5c-1.8,18.2-3.2,20.8-3.2,20.8h-0.3h-0.6h-0.3 C1198.2,353.6,1196.7,350.9,1195.1,332.8L1195.1,332.8z"/>
    <path fill-rule="evenodd" clip-rule="evenodd" fill="#E3C207" d="M1195.1,332.8h2.7c-0.1,1.3-0.1,4.5,0.2,10.3 c0.2,4.5,0.6,8.2,0.8,10.5h-0.3h-0.3C1198.2,353.6,1196.7,350.9,1195.1,332.8L1195.1,332.8z"/>
    <path fill-rule="evenodd" clip-rule="evenodd" fill="#E5E5E5" d="M1190.8,237.8c0,0-3,11.1-3.2,25c-0.3,13.9,1,19,1,19 s1.5-1.6,2.3-2.9c0.7-1.3,0.7-2.1,0.7-2.1l-2.1-0.6c0,0-0.6-7.5,0.1-16.2c0.7-8.7,3-17.3,3-17.3l2,0.5l0.2-6.1L1190.8,237.8z"/>
    <path fill-rule="evenodd" clip-rule="evenodd" fill="#B2B2B2" d="M1190.8,237.8c0,0-3,11.1-3.2,25c-0.3,13.9,1,19,1,19 s1.5-1.6,2.3-2.9c0.1-0.1,0.2-0.3,0.2-0.5l-1.7-0.6c0,0-0.7-2.6-0.8-12.2c-0.1-9.7,3.3-25.1,3.3-25.1l2.9,0.5l0.1-3.9L1190.8,237.8 z"/>
    <path fill-rule="evenodd" clip-rule="evenodd" fill="#EB4C4C" d="M1206.1,258.5c0,0-3.2-2.6-7.7-2.7c-4.5-0.1-6.1,3-6.1,3v14.1 c0,0,1.3-2.6,5.2-2.7c4.2-0.1,8.4,2.5,8.4,2.5l0-2.1L1206.1,258.5z"/>
    <polygon fill-rule="evenodd" clip-rule="evenodd" fill="#DE3E3E" points="926.9,367.5 933.6,374.3 926.9,374.3 &#9;"/>
    <polygon fill-rule="evenodd" clip-rule="evenodd" fill="#DE3E3E" points="1182.3,367.5 1175.5,374.3 1182.3,374.3 &#9;"/>
    <path fill-rule="evenodd" clip-rule="evenodd" fill="#333333" d="M1063,237.6c1.4-0.5,2.8-0.2,3.1,0.7c0.3,0.8-0.6,1.9-2,2.4 c-1.4,0.5-2.8,0.2-3.1-0.7C1060.7,239.2,1061.6,238.1,1063,237.6L1063,237.6z"/>
    <path fill-rule="evenodd" clip-rule="evenodd" fill="#333333" d="M1046,237.6c-1.4-0.5-2.8-0.2-3.1,0.7c-0.3,0.8,0.6,1.9,2,2.4 c1.4,0.5,2.8,0.2,3.1-0.7C1048.3,239.2,1047.4,238.1,1046,237.6L1046,237.6z"/>
    <path fill="#1A1A1A" d="M1044.5,238.9c0.6-2.8,2.7-4.8,5.3-5.9c1.2-0.5,2.4-0.8,3.7-0.9l0,0c1.3-0.1,2.6,0,3.8,0.3 c3.1,0.7,6,2.6,7.3,5.9c0.6,1.2-1.6,2.1-2.6,1.1c-0.9-2.3-3-3.7-5.3-4.2c-1-0.2-2-0.3-3-0.2l0,0c-1,0.1-2,0.3-2.8,0.7 c-1.8,0.7-3.2,2.1-3.6,3.9C1046.3,240.3,1044.1,240,1044.5,238.9L1044.5,238.9z"/>
    <path fill-rule="evenodd" clip-rule="evenodd" fill="#333333" d="M1063,249.1c1.4-0.5,2.8-0.2,3.1,0.7c0.3,0.9-0.6,2-2,2.4 c-1.4,0.5-2.8,0.2-3.1-0.7C1060.7,250.7,1061.6,249.6,1063,249.1L1063,249.1z"/>
    <path fill-rule="evenodd" clip-rule="evenodd" fill="#333333" d="M1046,249.1c-1.4-0.5-2.8-0.2-3.1,0.7c-0.3,0.9,0.6,2,2,2.4 c1.4,0.5,2.8,0.2,3.1-0.7C1048.3,250.7,1047.4,249.6,1046,249.1L1046,249.1z"/>
    <path fill="#1A1A1A" d="M1044.5,250.4c0.6-2.8,2.7-4.8,5.3-5.9c1.2-0.5,2.4-0.7,3.7-0.8l0,0c1.3-0.1,2.6,0,3.8,0.2 c3.1,0.7,6,2.7,7.3,5.9c0.6,1.2-1.6,2.1-2.6,1c-0.9-2.3-3-3.7-5.3-4.2c-1-0.2-2-0.3-3-0.2l0,0c-1,0.1-2,0.3-2.8,0.6 c-1.8,0.7-3.2,2.1-3.6,3.9C1046.3,251.8,1044.1,251.4,1044.5,250.4L1044.5,250.4z"/>
    <path fill-rule="evenodd" clip-rule="evenodd" fill="#333333" d="M1063,260.5c1.4-0.5,2.8-0.2,3.1,0.7c0.3,0.8-0.6,1.9-2,2.4 c-1.4,0.5-2.8,0.2-3.1-0.7C1060.7,262.1,1061.6,261,1063,260.5L1063,260.5z"/>
    <path fill-rule="evenodd" clip-rule="evenodd" fill="#333333" d="M1046,260.5c-1.4-0.5-2.8-0.2-3.1,0.7c-0.3,0.8,0.6,1.9,2,2.4 c1.4,0.5,2.8,0.2,3.1-0.7C1048.3,262.1,1047.4,261,1046,260.5L1046,260.5z"/>
    <path fill="#1A1A1A" d="M1044.5,261.8c0.6-2.8,2.7-4.8,5.3-5.9c1.2-0.5,2.4-0.8,3.7-0.9l0,0c1.3-0.1,2.6,0,3.8,0.3 c3.1,0.7,6,2.6,7.3,5.9c0.6,1.2-1.6,2.1-2.6,1.1c-0.9-2.3-3-3.7-5.3-4.2c-1-0.2-2-0.3-3-0.2l0,0c-1,0.1-2,0.3-2.8,0.7 c-1.8,0.7-3.2,2.1-3.6,3.9C1046.3,263.2,1044.1,262.8,1044.5,261.8L1044.5,261.8z"/>
    <path fill-rule="evenodd" clip-rule="evenodd" fill="#333333" d="M1063,271.9c1.4-0.5,2.8-0.2,3.1,0.7c0.3,0.9-0.6,2-2,2.5 c-1.4,0.5-2.8,0.2-3.1-0.7C1060.7,273.5,1061.6,272.4,1063,271.9L1063,271.9z"/>
    <path fill-rule="evenodd" clip-rule="evenodd" fill="#333333" d="M1046,271.9c-1.4-0.5-2.8-0.2-3.1,0.7c-0.3,0.9,0.6,2,2,2.5 c1.4,0.5,2.8,0.2,3.1-0.7C1048.3,273.5,1047.4,272.4,1046,271.9L1046,271.9z"/>
    <path fill="#1A1A1A" d="M1044.5,273.2c0.6-2.8,2.7-4.8,5.3-5.9c1.2-0.5,2.4-0.7,3.7-0.8l0,0c1.3-0.1,2.6,0,3.8,0.3 c3.1,0.7,6,2.6,7.3,5.9c0.6,1.2-1.6,2.1-2.6,1.1c-0.9-2.3-3-3.7-5.3-4.2c-1-0.2-2-0.3-3-0.2l0,0c-1,0.1-2,0.3-2.8,0.6 c-1.8,0.7-3.2,2.1-3.6,3.9C1046.3,274.6,1044.1,274.3,1044.5,273.2L1044.5,273.2z"/>
    <path fill-rule="evenodd" clip-rule="evenodd" fill="#333333" d="M1063,283.4c1.4-0.5,2.8-0.2,3.1,0.7c0.3,0.8-0.6,1.9-2,2.4 c-1.4,0.5-2.8,0.2-3.1-0.7C1060.7,284.9,1061.6,283.8,1063,283.4L1063,283.4z"/>
    <path fill-rule="evenodd" clip-rule="evenodd" fill="#333333" d="M1046,283.4c-1.4-0.5-2.8-0.2-3.1,0.7c-0.3,0.8,0.6,1.9,2,2.4 c1.4,0.5,2.8,0.2,3.1-0.7C1048.3,284.9,1047.4,283.8,1046,283.4L1046,283.4z"/>
    <path fill="#1A1A1A" d="M1044.5,284.7c0.6-2.8,2.7-4.8,5.3-5.9c1.2-0.5,2.4-0.8,3.7-0.9l0,0c1.3-0.1,2.6,0,3.8,0.3 c3.1,0.7,6,2.6,7.3,5.9c0.6,1.2-1.6,2.1-2.6,1.1c-0.9-2.3-3-3.7-5.3-4.2c-1-0.2-2-0.3-3-0.2l0,0c-1,0.1-2,0.3-2.8,0.7 c-1.8,0.7-3.2,2.1-3.6,3.9C1046.3,286.1,1044.1,285.7,1044.5,284.7L1044.5,284.7z"/>
    <path fill-rule="evenodd" clip-rule="evenodd" fill="#333333" d="M1063,294.8c1.4-0.5,2.8-0.2,3.1,0.7c0.3,0.9-0.6,2-2,2.4 c-1.4,0.5-2.8,0.2-3.1-0.7C1060.7,296.4,1061.6,295.3,1063,294.8L1063,294.8z"/>
    <path fill-rule="evenodd" clip-rule="evenodd" fill="#333333" d="M1046,294.8c-1.4-0.5-2.8-0.2-3.1,0.7c-0.3,0.9,0.6,2,2,2.4 c1.4,0.5,2.8,0.2,3.1-0.7C1048.3,296.4,1047.4,295.3,1046,294.8L1046,294.8z"/>
    <path fill="#1A1A1A" d="M1044.5,296.1c0.6-2.8,2.7-4.8,5.3-5.9c1.2-0.5,2.4-0.7,3.7-0.8l0,0c1.3-0.1,2.6,0,3.8,0.3 c3.1,0.7,6,2.6,7.3,5.9c0.6,1.2-1.6,2.1-2.6,1.1c-0.9-2.3-3-3.7-5.3-4.2c-1-0.2-2-0.3-3-0.2l0,0c-1,0.1-2,0.3-2.8,0.6 c-1.8,0.7-3.2,2.1-3.6,4C1046.3,297.5,1044.1,297.1,1044.5,296.1L1044.5,296.1z"/>
    <path fill-rule="evenodd" clip-rule="evenodd" fill="#333333" d="M1063,306.2c1.4-0.5,2.8-0.2,3.1,0.7c0.3,0.8-0.6,1.9-2,2.4 c-1.4,0.5-2.8,0.2-3.1-0.7C1060.7,307.8,1061.6,306.7,1063,306.2L1063,306.2z"/>
    <path fill-rule="evenodd" clip-rule="evenodd" fill="#333333" d="M1046,306.2c-1.4-0.5-2.8-0.2-3.1,0.7c-0.3,0.8,0.6,1.9,2,2.4 c1.4,0.5,2.8,0.2,3.1-0.7C1048.3,307.8,1047.4,306.7,1046,306.2L1046,306.2z"/>
    <path fill="#1A1A1A" d="M1044.5,307.5c0.6-2.8,2.7-4.8,5.3-5.9c1.2-0.5,2.4-0.8,3.7-0.9l0,0c1.3-0.1,2.6,0,3.8,0.3 c3.1,0.7,6,2.6,7.3,5.9c0.6,1.1-1.6,2.1-2.6,1.1c-0.9-2.3-3-3.7-5.3-4.2c-1-0.2-2-0.3-3-0.2l0,0c-1,0.1-2,0.3-2.8,0.7 c-1.8,0.7-3.2,2.1-3.6,3.9C1046.3,308.9,1044.1,308.6,1044.5,307.5L1044.5,307.5z"/>
    <path fill-rule="evenodd" clip-rule="evenodd" fill="#333333" d="M1063,317.7c1.4-0.5,2.8-0.2,3.1,0.7c0.3,0.8-0.6,1.9-2,2.4 c-1.4,0.5-2.8,0.2-3.1-0.7C1060.7,319.2,1061.6,318.1,1063,317.7L1063,317.7z"/>
    <path fill-rule="evenodd" clip-rule="evenodd" fill="#333333" d="M1046,317.7c-1.4-0.5-2.8-0.2-3.1,0.7c-0.3,0.8,0.6,1.9,2,2.4 c1.4,0.5,2.8,0.2,3.1-0.7C1048.3,319.2,1047.4,318.1,1046,317.7L1046,317.7z"/>
    <path fill="#1A1A1A" d="M1044.5,319c0.6-2.8,2.7-4.8,5.3-5.9c1.2-0.5,2.4-0.8,3.7-0.9l0,0c1.3-0.1,2.6,0,3.8,0.3 c3.1,0.7,6,2.6,7.3,5.9c0.6,1.2-1.6,2.1-2.6,1.1c-0.9-2.3-3-3.7-5.3-4.2c-1-0.2-2-0.3-3-0.2l0,0c-1,0.1-2,0.3-2.8,0.6 c-1.8,0.8-3.2,2.1-3.6,4C1046.3,320.3,1044.1,320,1044.5,319L1044.5,319z"/>
    <path fill-rule="evenodd" clip-rule="evenodd" fill="#333333" d="M1063,329.1c1.4-0.5,2.8-0.2,3.1,0.7c0.3,0.9-0.6,2-2,2.4 c-1.4,0.5-2.8,0.2-3.1-0.7C1060.7,330.6,1061.6,329.6,1063,329.1L1063,329.1z"/>
    <path fill-rule="evenodd" clip-rule="evenodd" fill="#333333" d="M1046,329.1c-1.4-0.5-2.8-0.2-3.1,0.7c-0.3,0.9,0.6,2,2,2.4 c1.4,0.5,2.8,0.2,3.1-0.7C1048.3,330.6,1047.4,329.6,1046,329.1L1046,329.1z"/>
    <path fill="#1A1A1A" d="M1044.5,330.4c0.6-2.8,2.7-4.8,5.3-5.9c1.2-0.5,2.4-0.8,3.7-0.9l0,0c1.3-0.1,2.6,0,3.8,0.3 c3.1,0.7,6,2.6,7.3,5.9c0.6,1.1-1.6,2.1-2.6,1.1c-0.9-2.3-3-3.7-5.3-4.2c-1-0.2-2-0.3-3-0.2l0,0c-1,0.1-2,0.3-2.8,0.7 c-1.8,0.7-3.2,2.1-3.6,3.9C1046.3,331.8,1044.1,331.4,1044.5,330.4L1044.5,330.4z"/>
    <path fill-rule="evenodd" clip-rule="evenodd" fill="#333333" d="M1063,340.5c1.4-0.5,2.8-0.2,3.1,0.7c0.3,0.8-0.6,1.9-2,2.4 c-1.4,0.5-2.8,0.2-3.1-0.7C1060.7,342.1,1061.6,341,1063,340.5L1063,340.5z"/>
    <path fill-rule="evenodd" clip-rule="evenodd" fill="#333333" d="M1046,340.5c-1.4-0.5-2.8-0.2-3.1,0.7c-0.3,0.8,0.6,1.9,2,2.4 c1.4,0.5,2.8,0.2,3.1-0.7C1048.3,342.1,1047.4,341,1046,340.5L1046,340.5z"/>
    <path fill="#1A1A1A" d="M1044.5,341.8c0.6-2.8,2.7-4.8,5.3-5.9c1.2-0.5,2.4-0.8,3.7-0.9l0,0c1.3-0.1,2.6,0,3.8,0.3 c3.1,0.7,6,2.6,7.3,5.9c0.6,1.2-1.6,2.1-2.6,1.1c-0.9-2.3-3-3.7-5.3-4.2c-1-0.2-2-0.3-3-0.2l0,0c-1,0.1-2,0.3-2.8,0.6 c-1.8,0.8-3.2,2.1-3.6,4C1046.3,343.2,1044.1,342.8,1044.5,341.8L1044.5,341.8z"/>
    <path fill-rule="evenodd" clip-rule="evenodd" fill="#333333" d="M1063,352c1.4-0.5,2.8-0.2,3.1,0.7c0.3,0.9-0.6,2-2,2.4 c-1.4,0.5-2.8,0.2-3.1-0.7C1060.7,353.5,1061.6,352.4,1063,352L1063,352z"/>
    <path fill-rule="evenodd" clip-rule="evenodd" fill="#333333" d="M1046,352c-1.4-0.5-2.8-0.2-3.1,0.7c-0.3,0.9,0.6,2,2,2.4 c1.4,0.5,2.8,0.2,3.1-0.7C1048.3,353.5,1047.4,352.4,1046,352L1046,352z"/>
    <path fill="#1A1A1A" d="M1044.5,353.3c0.6-2.8,2.7-4.8,5.3-5.9c1.2-0.5,2.4-0.8,3.7-0.8l0,0c1.3-0.1,2.6,0,3.8,0.2 c3.1,0.7,6,2.6,7.3,5.9c0.6,1.1-1.6,2.1-2.6,1c-0.9-2.3-3-3.7-5.3-4.2c-1-0.2-2-0.3-3-0.2l0,0c-1,0.1-2,0.3-2.8,0.7 c-1.8,0.7-3.2,2.1-3.6,3.9C1046.3,354.6,1044.1,354.3,1044.5,353.3L1044.5,353.3z"/>
    <path fill-rule="evenodd" clip-rule="evenodd" fill="#DBD2D2" d="M1155.3,360.7c0,0-3.9-3.8-4.3-10.1c-0.4-6.3,0.4-10.6,0.4-10.6 l19.3,4.9L1155.3,360.7z"/>
  </g>
</svg>