<?xml version="1.0" encoding="utf-8"?>
<svg viewBox="659.035 -139.6 390.4 301.2" xmlns="http://www.w3.org/2000/svg">
  <g transform="matrix(1, 0, 0, 1, -279.565216, -241.799988)">
    <path fill="#FFD73A" d="M1133.9,138c-6.2,0-12.5-0.1-18.8-0.1c-65.2,0-134.1,2.4-146,2.9c-9.7,68.4-1,207.8,0.1,225.9 c37.4,1.4,85.8,2.1,143.8,2.1c87.4,0,169.8-1.7,183.3-1.9c1-9.8,5.2-56.2,5.2-109c0-53.3-5-106.7-6-117.2 C1266.8,139.3,1214.2,138.7,1133.9,138z M1286.4,360.8c0,0-191.9,4.3-307.2-0.2c0,0-10.1-145.7,0-213.6c0,0,83.1-3.2,154.7-2.7 s124.3,1.2,151.8,2.7c0,0,5.8,55,5.8,110.7S1286.4,360.8,1286.4,360.8z"/>
    <path fill="#FFD73A" d="M1324.7,249.7c0.7-65.1,0.7-147.5,0.7-147.5s-68.7,8.9-195.2,8.9s-191.6-8.9-191.6-8.9s4.3,76.6,3.6,150.6 c-0.7,73.9-3.6,150.6-3.6,150.6s114.9-6.6,195.2-6.6s195.2,6.6,195.2,6.6S1324,314.8,1324.7,249.7z M1318.4,391.1 c-1.1-0.1-112.9-6-184.5-6c-71.7,0-179.9,1.4-181,1.4l-2.2,0l0-2.2c0-0.7-0.6-70,0-136.1c0.6-66,0-135.4,0-136.1l0-2.7l2.6,0.5 c0.6,0.1,64.5,12.5,177.3,12.5c112.9,0,183.7-7.9,184.4-8l2.4-0.3v2.4c0,0.7,0,75.2-0.7,133.3c-0.6,58.1,3.9,137.9,3.9,138.7 l0.1,2.4L1318.4,391.1z"/>
    <path fill="#FFD73A" d="M1312.4,250c0.6-52.2,0.6-117.6,0.7-130.9c-13.3,1.4-80.9,7.8-182.5,7.8c-100.5,0-162.4-9.8-175.5-12.1 c0.1,13.3,0.6,74.7,0,133.5c-0.6,59.5-0.1,121.6,0,133.9c15.7-0.2,112.8-1.4,178.8-1.4c65.9,0,165.6,5,182.3,5.8 C1315.5,372.8,1311.8,302.5,1312.4,250z M1300.4,369.3l-0.2,1.9l-1.9,0c-0.9,0-90.1,2-185.3,2c-59.1,0-108.2-0.7-145.9-2.2 l-1.9-0.1l-0.1-1.9c-0.1-1.6-10.8-158,0-230.6l0.3-1.8l1.8-0.1c0.8,0,90.5-3.5,166.8-2.9c82.1,0.7,135.2,1.3,163.7,2.9l1.8,0.1 l0.2,1.8c0.1,0.6,6.2,60.1,6.2,119.5S1300.5,368.8,1300.4,369.3z"/>
  </g>
</svg>