<?xml version="1.0" encoding="utf-8"?>
<!-- Generator: Adobe Illustrator 19.0.0, SVG Export Plug-In . SVG Version: 6.00 Build 0)  -->
<svg version="1.1" id="Layer_1" xmlns="http://www.w3.org/2000/svg" xmlns:xlink="http://www.w3.org/1999/xlink" x="0px" y="0px"
	 viewBox="0 0 1400 980" style="enable-background:new 0 0 1400 980;" xml:space="preserve">
<style type="text/css">
	.st0{fill:#9B6AC6;}
	.st1{opacity:0.1;}
	.st2{fill:#BCBEC0;}
	.st3{fill:#84A7B2;}
	.st4{fill:#FC7C7C;}
	.st5{fill:#FCDDB4;}
	.st6{fill:#231F20;}
	.st7{fill:#FBB040;}
	.st8{fill:#FFCA85;}
	.st9{fill:#BBFFDA;}
	.st10{fill:#74CE9A;}
	.st11{fill:#6D6E71;}
	.st12{fill:#FF717C;}
	.st13{fill:#FFF8A4;}
	.st14{fill:#EF4136;}
	.st15{fill:#808285;}
	.st16{fill:#9B8579;}
	.st17{fill:#A7A9AC;}
	.st18{fill:#58595B;}
	.st19{fill:#27AAE1;}
	.st20{fill:#662D91;}
	.st21{fill:#F993C1;}
	.st22{fill:#00A651;}
	.st23{fill:#FFFFFF;}
	.st24{fill:#2B3990;}
	.st25{fill:#1C75BC;}
	.st26{fill:#FF858E;}
	.st27{fill:#FCEE70;}
</style>
<g>
	<circle class="st0" cx="324.1" cy="323.3" r="128.9"/>
	<g class="st1">
		<path d="M335,312.3l-51-51l-8.2,8.2l1.3,115.8l65.6,65.6c57.6-8.3,102.8-54.6,109.5-112.7l-76.9-76.9L335,312.3z"/>
	</g>
	<g>
		<g>
			<rect x="272.9" y="272.7" class="st2" width="8.4" height="12.3"/>
			<rect x="272.9" y="273.7" class="st3" width="8.4" height="1.6"/>
			<rect x="272.9" y="276.1" class="st3" width="8.4" height="1.6"/>
			<rect x="272.9" y="279.8" class="st3" width="8.4" height="1.6"/>
			<rect x="272.9" y="282.1" class="st3" width="8.4" height="1.6"/>
			<g>
				<path class="st4" d="M281.3,268.7c0-1.4-1.1-2.5-2.5-2.5h-3.4c-1.4,0-2.5,1.1-2.5,2.5v4h8.4V268.7z"/>
			</g>
			<g>
				<polygon class="st5" points="281.3,373.6 272.9,373.6 276,382.1 278.3,382.1 				"/>
				<polygon class="st6" points="278.3,382.1 276,382.1 277.1,385.3 				"/>
			</g>
			<g>
				<polygon class="st7" points="275.7,285.1 275.7,373.6 277.1,375.9 278.5,373.6 278.5,285.1 				"/>
				<polygon class="st8" points="272.9,285.1 272.9,373.6 274.3,375.9 275.7,373.6 275.7,285.1 				"/>
				<polygon class="st8" points="278.5,285.1 278.5,373.6 279.9,375.9 281.3,373.6 281.3,285.1 				"/>
			</g>
		</g>
		<g>
			<polygon class="st9" points="375.3,261.3 284,261.3 284,385.3 357.4,385.3 375.3,367.3 			"/>
			<polygon class="st10" points="357.4,385.3 375.3,367.3 357.4,367.3 			"/>
		</g>
		<rect x="284" y="261.3" class="st6" width="91.3" height="14.6"/>
		<g>
			<rect x="296.3" y="283.9" class="st11" width="67.3" height="1.3"/>
		</g>
		<g>
			<rect x="296.3" y="291.4" class="st11" width="67.3" height="1.3"/>
		</g>
		<g>
			<rect x="296.3" y="298.9" class="st11" width="67.3" height="1.3"/>
		</g>
		<g>
			<rect x="296.3" y="306.4" class="st11" width="67.3" height="1.3"/>
		</g>
		<g>
			<rect x="296.3" y="313.8" class="st11" width="67.3" height="1.3"/>
		</g>
		<g>
			<rect x="296.3" y="321.3" class="st11" width="67.3" height="1.3"/>
		</g>
		<g>
			<rect x="296.3" y="328.8" class="st11" width="67.3" height="1.3"/>
		</g>
		<g>
			<rect x="296.3" y="336.3" class="st11" width="67.3" height="1.3"/>
		</g>
		<g>
			<rect x="296.3" y="343.8" class="st11" width="67.3" height="1.3"/>
		</g>
		<g>
			<rect x="296.3" y="351.2" class="st11" width="67.3" height="1.3"/>
		</g>
	</g>
</g>
<g>
	<circle class="st0" cx="700.1" cy="323.3" r="128.9"/>
	<g class="st1">
		<path d="M620.3,363.5l88.4,88.4c60.1-4,109-49.2,118.5-107.7l-61.3-61.3L620.3,363.5z"/>
	</g>
	<g>
		<g>
			<path class="st12" d="M763.8,282.1h-2.5h-17.8h-50.3v82.4h50.3h17.8h2.5c1.8,0,3.2-1.4,3.2-3.2l2.1-38l-2.1-38
				C767,283.5,765.6,282.1,763.8,282.1z"/>
			<path class="st12" d="M622.7,282.1h2.5H643h50.3v82.4H643h-17.8h-2.5c-1.8,0-3.2-1.4-3.2-3.2l-2.1-38l2.1-38
				C619.5,283.5,620.9,282.1,622.7,282.1z"/>
			<rect x="694.4" y="283.5" class="st13" width="65.8" height="79.6"/>
			<rect x="626.3" y="283.5" class="st13" width="65.8" height="79.6"/>
			<g>
				<path class="st14" d="M781.4,317.7h-12.6l0.3,5.6l-0.3,5.6h12.6c0.8,0,1.4-0.6,1.4-1.4v-8.3
					C782.8,318.4,782.2,317.7,781.4,317.7z"/>
			</g>
			<circle class="st15" cx="777.5" cy="323.3" r="3"/>
			<rect x="683.8" y="293.2" class="st16" width="4.7" height="4.7"/>
			<rect x="683.8" y="320.9" class="st16" width="4.7" height="4.7"/>
			<rect x="683.8" y="348.7" class="st16" width="4.7" height="4.7"/>
			<rect x="697.8" y="293.2" class="st16" width="4.7" height="4.7"/>
			<rect x="697.8" y="320.9" class="st16" width="4.7" height="4.7"/>
			<rect x="697.8" y="348.7" class="st16" width="4.7" height="4.7"/>
			<path class="st15" d="M700.1,295.5c0,0.5-0.4,0.9-0.9,0.9h-12.2c-0.5,0-0.9-0.4-0.9-0.9l0,0c0-0.5,0.4-0.9,0.9-0.9h12.2
				C699.8,294.7,700.1,295.1,700.1,295.5L700.1,295.5z"/>
			<path class="st17" d="M700.1,323.3c0,0.5-0.4,0.9-0.9,0.9h-12.2c-0.5,0-0.9-0.4-0.9-0.9l0,0c0-0.5,0.4-0.9,0.9-0.9h12.2
				C699.8,322.4,700.1,322.8,700.1,323.3L700.1,323.3z"/>
			<path class="st15" d="M700.1,351c0,0.5-0.4,0.9-0.9,0.9h-12.2c-0.5,0-0.9-0.4-0.9-0.9l0,0c0-0.5,0.4-0.9,0.9-0.9h12.2
				C699.8,350.2,700.1,350.6,700.1,351L700.1,351z"/>
			<g>
				<rect x="637.6" y="291.8" class="st11" width="43.2" height="1.3"/>
			</g>
			<g>
				<rect x="637.6" y="298.6" class="st11" width="43.2" height="1.3"/>
			</g>
			<g>
				<rect x="637.6" y="305.4" class="st11" width="43.2" height="1.3"/>
			</g>
			<g>
				<rect x="637.6" y="312.2" class="st11" width="43.2" height="1.3"/>
			</g>
			<g>
				<rect x="637.6" y="319" class="st11" width="43.2" height="1.3"/>
			</g>
			<g>
				<rect x="637.6" y="325.8" class="st11" width="43.2" height="1.3"/>
			</g>
			<g>
				<rect x="637.6" y="332.6" class="st11" width="43.2" height="1.3"/>
			</g>
			<g>
				<rect x="637.6" y="339.4" class="st11" width="43.2" height="1.3"/>
			</g>
			<g>
				<rect x="637.6" y="346.2" class="st11" width="43.2" height="1.3"/>
			</g>
			<g>
				<rect x="637.6" y="353" class="st11" width="43.2" height="1.3"/>
			</g>
			<g>
				<rect x="705.7" y="291.8" class="st11" width="43.2" height="1.3"/>
			</g>
			<g>
				<rect x="705.7" y="298.6" class="st11" width="43.2" height="1.3"/>
			</g>
			<g>
				<rect x="705.7" y="305.4" class="st11" width="43.2" height="1.3"/>
			</g>
			<g>
				<rect x="705.7" y="312.2" class="st11" width="43.2" height="1.3"/>
			</g>
			<g>
				<rect x="705.7" y="319" class="st11" width="43.2" height="1.3"/>
			</g>
			<g>
				<rect x="705.7" y="325.8" class="st11" width="43.2" height="1.3"/>
			</g>
			<g>
				<rect x="705.7" y="332.6" class="st11" width="43.2" height="1.3"/>
			</g>
			<g>
				<rect x="705.7" y="339.4" class="st11" width="43.2" height="1.3"/>
			</g>
			<g>
				<rect x="705.7" y="346.2" class="st11" width="43.2" height="1.3"/>
			</g>
			<g>
				<rect x="705.7" y="353" class="st11" width="43.2" height="1.3"/>
			</g>
		</g>
		<g>
			<g>
				<rect x="620.5" y="288.1" class="st18" width="5.8" height="14.9"/>
				<rect x="621.4" y="303" class="st6" width="4.1" height="35.7"/>
				<polygon class="st18" points="625.4,338.7 623.4,338.7 621.4,338.7 620.8,339.4 620.8,355.8 623.4,355.8 626,355.8 626,339.4 
									"/>
				<g>
					<polygon class="st6" points="626,355.8 620.8,355.8 622.5,360.6 624.4,360.6 					"/>
					<polygon class="st18" points="624.1,360.6 622.7,360.6 623.4,362.6 					"/>
				</g>
			</g>
			<g>
				<path class="st6" d="M625.4,286c0-1.1-0.9-2-2-2c-1.1,0-2,0.9-2,2v2.1h4.1V286z"/>
			</g>
		</g>
	</g>
</g>
<g>
	<circle class="st0" cx="1076" cy="323.3" r="128.9"/>
	<g class="st1">
		<path d="M1037.2,274.8l-11-11l-5.7,5.7l5.4,5.4l-1.6,0l-1.5,107.6l68.7,68.7c57.8-6.9,103.8-52.1,112.1-109.5l-67.8-67.8
			L1037.2,274.8z"/>
	</g>
	<g>
		<g>
			<rect x="1018.9" y="266.4" class="st7" width="8.6" height="28"/>
			<g>
				<path class="st19" d="M1025.2,378.1h-3.9c0.3,0.7,0.5,1.3,0.8,1.8h2.2C1024.6,379.4,1024.9,378.8,1025.2,378.1z"/>
				<path class="st7" d="M1026.8,370.9c0-5.4-1.6-9.8-3.6-9.8s-3.6,4.4-3.6,9.8c0,0.7,0.6,4.5,1.6,7.2h3.9
					C1026.1,375.4,1026.8,371.7,1026.8,370.9z"/>
			</g>
			<rect x="1019.6" y="294.4" class="st19" width="7.2" height="77.7"/>
			<rect x="1019.6" y="367.3" class="st7" width="7.2" height="2.8"/>
			<g>
				<path class="st6" d="M1022.7,379.9v2.4c0,0.3,0.2,0.5,0.5,0.5c0.3,0,0.5-0.2,0.5-0.5v-2.4H1022.7z"/>
			</g>
			<polygon class="st19" points="1020.2,263.8 1020.2,264.5 1017.6,264.5 1017.6,264.5 1016.3,264.5 1016.3,296.7 1017.6,295.4 
				1017.6,265.8 1020.2,265.8 1020.2,266.4 1026.2,266.4 1026.2,265.8 1026.2,264.5 1026.2,263.8 			"/>
		</g>
		<g>
			<rect x="1041.6" y="274" class="st9" width="94.2" height="94.2"/>
			<path class="st6" d="M1050.9,274c2.2,0,3.9,1.8,3.9,3.9v86.3c0,2.2-1.8,3.9-3.9,3.9h-18.6c-2.2,0-3.9-1.8-3.9-3.9v-86.3
				c0-2.2,1.8-3.9,3.9-3.9H1050.9z"/>
			<circle class="st20" cx="1037.5" cy="284.9" r="4.2"/>
			<circle class="st20" cx="1037.5" cy="321.1" r="4.2"/>
			<circle class="st20" cx="1037.5" cy="357.3" r="4.2"/>
			<path class="st15" d="M1039.4,284.9c0,1.2-1,2.2-2.2,2.2h-17.5c-1.2,0-2.2-1-2.2-2.2l0,0c0-1.2,1-2.2,2.2-2.2h17.5
				C1038.4,282.6,1039.4,283.6,1039.4,284.9L1039.4,284.9z"/>
			<path class="st17" d="M1039.4,321.1c0,1.2-1,2.2-2.2,2.2h-17.5c-1.2,0-2.2-1-2.2-2.2l0,0c0-1.2,1-2.2,2.2-2.2h17.5
				C1038.4,318.8,1039.4,319.8,1039.4,321.1L1039.4,321.1z"/>
			<path class="st15" d="M1039.4,357.3c0,1.2-1,2.2-2.2,2.2h-17.5c-1.2,0-2.2-1-2.2-2.2l0,0c0-1.2,1-2.2,2.2-2.2h17.5
				C1038.4,355,1039.4,356,1039.4,357.3L1039.4,357.3z"/>
			<g>
				<rect x="1060.3" y="284.2" class="st11" width="66.8" height="1.3"/>
			</g>
			<g>
				<rect x="1060.3" y="295" class="st11" width="66.8" height="1.3"/>
			</g>
			<g>
				<rect x="1060.3" y="305.8" class="st11" width="66.8" height="1.3"/>
			</g>
			<g>
				<rect x="1060.3" y="316.6" class="st11" width="66.8" height="1.3"/>
			</g>
			<g>
				<rect x="1060.3" y="327.4" class="st11" width="66.8" height="1.3"/>
			</g>
			<g>
				<rect x="1060.3" y="338.2" class="st11" width="66.8" height="1.3"/>
			</g>
			<g>
				<rect x="1060.3" y="349" class="st11" width="66.8" height="1.3"/>
			</g>
		</g>
	</g>
</g>
<g>
	<circle class="st21" cx="1076" cy="674.6" r="128.9"/>
	<g class="st1">
		<path d="M1034.7,733.1l-0.4-0.4l-2.7,2.7l0.7,0.7l-0.1,0.2l65.4,65.4c56.5-9.5,100.5-55.7,106.6-113.3l-75.5-75.5L1034.7,733.1z"
			/>
	</g>
	<g>
		<g>
			<rect x="1032.2" y="612.9" class="st8" width="96.5" height="123.4"/>
			<rect x="1032.2" y="612.9" class="st22" width="11.7" height="123.4"/>
			<rect x="1053.3" y="621.5" class="st23" width="65.5" height="11.1"/>
		</g>
		<g>
			<rect x="1027.5" y="613.5" class="st24" width="9.7" height="3.6"/>
			<rect x="1026.7" y="653" class="st25" width="11.3" height="67.8"/>
			<polygon class="st24" points="1032.4,720.8 1026.7,720.8 1030.7,732.5 1032.4,732.5 1034,732.5 1038,720.8 			"/>
			<g>
				<path class="st6" d="M1031.2,732.5v2.1c0,0.6,0.5,1.1,1.1,1.1s1.1-0.5,1.1-1.1v-2.1H1031.2z"/>
			</g>
			<rect x="1026.7" y="717.1" class="st24" width="11.3" height="2.1"/>
			<g>
				<rect x="1026.7" y="617.2" class="st25" width="11.3" height="35.2"/>
				<path class="st15" d="M1025.1,645v-28.5h12.2v-1.7h-13.8v1.7l0,0v34.7h1.7v-1.9c0.6,0,1-0.9,1-2.1
					C1026.1,645.9,1025.6,645,1025.1,645z"/>
			</g>
			<rect x="1026.7" y="651.8" class="st24" width="11.3" height="1.2"/>
		</g>
	</g>
</g>
<g>
	<circle class="st21" cx="700.1" cy="676.1" r="128.9"/>
	<g class="st1">
		<path d="M829,676.1c0-5.4-0.3-10.8-1-16.1l-35.9-35.9l-11.2,7l-12.8-12.8l-4.2,4.2l11.9,11.9l-28.2,17.6l-33.6-33.6l-4.2,4.2
			l32.7,32.7l-28.2,17.6l-54.4-54.4l-4.3,4.3l53.4,53.4l-16.4,10.2l-62.1-62.1l-0.6,0.6l-2.9-2.9l-8.8,8.8l-8.8-8.8l9,109l1,1
			l-3.4,2.1l70.3,70.3c4.6,0.5,9.2,0.7,13.9,0.7C771.3,805,829,747.3,829,676.1z"/>
	</g>
	<g>
		<g>
			<g>
				<polygon class="st6" points="620.2,731.5 615.9,734 615.9,725.5 620.2,725.5 				"/>
				<rect x="608.1" y="624" class="st26" width="19.9" height="27.7"/>
				<rect x="609.3" y="621.9" class="st27" width="17.6" height="2.1"/>
				<rect x="609.3" y="651.7" class="st27" width="17.6" height="1.8"/>
				<g>
					<path class="st26" d="M628,714.1c0-8.3-4.5-15.1-10-15.1c-5.5,0-10,6.8-10,15.1c0,0,2.3,7.9,5.7,12.3h8.5
						C625.7,722,628,714.1,628,714.1z"/>
					<path class="st27" d="M622.3,726.4h-8.5c0.6,0.8,1.3,1.5,2,2h4.4C621,727.9,621.7,727.2,622.3,726.4z"/>
				</g>
				<rect x="608.1" y="653.5" class="st26" width="19.9" height="59"/>
				<rect x="608.1" y="712.5" class="st27" width="19.9" height="1.6"/>
				<polygon class="st27" points="612.8,627.7 612.8,642.8 618.1,648 623.3,642.8 623.3,627.7 				"/>
			</g>
			<g>
				<rect x="630.4" y="632.8" class="st13" width="161.7" height="90.3"/>
				<rect x="630.4" y="624.1" class="st6" width="161.7" height="17.3"/>
				<g>
					<rect x="639.6" y="651" class="st11" width="143.3" height="1.3"/>
				</g>
				<g>
					<rect x="639.6" y="659.2" class="st11" width="143.3" height="1.3"/>
				</g>
				<g>
					<rect x="639.6" y="667.3" class="st11" width="143.3" height="1.3"/>
				</g>
				<g>
					<rect x="639.6" y="675.5" class="st11" width="143.3" height="1.3"/>
				</g>
				<g>
					<rect x="639.6" y="683.6" class="st11" width="143.3" height="1.3"/>
				</g>
				<g>
					<rect x="639.6" y="691.7" class="st11" width="143.3" height="1.3"/>
				</g>
				<g>
					<rect x="639.6" y="699.9" class="st11" width="143.3" height="1.3"/>
				</g>
				<g>
					<rect x="639.6" y="708" class="st11" width="143.3" height="1.3"/>
				</g>
			</g>
		</g>
		<rect x="704.5" y="626.5" class="st21" width="13.6" height="6.3"/>
		<rect x="758.6" y="626.5" class="st21" width="13.6" height="6.3"/>
		<rect x="650.3" y="626.5" class="st21" width="13.6" height="6.3"/>
		<rect x="654.5" y="618.3" class="st15" width="5.2" height="11.4"/>
		<rect x="708.7" y="618.3" class="st17" width="5.2" height="11.4"/>
		<rect x="762.8" y="618.3" class="st15" width="5.2" height="11.4"/>
	</g>
</g>
<g>
	<circle class="st21" cx="324.1" cy="677" r="128.9"/>
	<path class="st1" d="M369.1,619.8l-2.5-2.5l-2.5,2.5l-75.6,0.6l-6.2,29.6l-17.6-17.6l1.5-1.5l-3-3l-1.5,1.5l-3.1-3.1v11.1
		l21.7,21.7l-5.9,28.1l-10.7-10.7l1.1-1.1l-2.3-2.3l-1.1,1.1l-2.8-2.8v11.1l13.9,13.9l-5.9,28.1l-2.5-2.5l1.5-1.5l-3.1-3.1l-1.5,1.5
		l-2.4-2.4v11.1l6.1,6.1l-0.9,4.2l67.7,67.7c62.3-3.5,112.9-51.3,120.6-112.4l-73.6-73.6L369.1,619.8z"/>
	<g>
		<g>
			<path class="st25" d="M367.7,734.1c0,2.2-1.8,3.9-3.9,3.9h-89.4c-2.2,0-3.9-1.8-3.9-3.9V620c0-2.2,1.8-3.9,3.9-3.9h89.4
				c2.2,0,3.9,1.8,3.9,3.9V734.1z"/>
			<rect x="263.7" y="616.1" class="st6" width="13.4" height="122"/>
			<rect x="266.2" y="624.8" class="st21" width="3.7" height="14.2"/>
			<rect x="266.2" y="669.9" class="st21" width="3.7" height="14.2"/>
			<rect x="266.2" y="715.1" class="st21" width="3.7" height="14.2"/>
			<g>
				<path class="st6" d="M384.3,668.3h-16.6v17.5h16.6c3,0,5.5-2.4,5.5-5.5v-6.6C389.7,670.7,387.3,668.3,384.3,668.3z"/>
			</g>
			<rect x="258.5" y="626.3" class="st15" width="9.4" height="4"/>
			<rect x="258.5" y="633.5" class="st17" width="9.4" height="4"/>
			<rect x="258.5" y="671.5" class="st15" width="9.4" height="4"/>
			<rect x="258.5" y="678.6" class="st17" width="9.4" height="4"/>
			<rect x="258.5" y="716.6" class="st15" width="9.4" height="4"/>
			<rect x="258.5" y="723.8" class="st17" width="9.4" height="4"/>
		</g>
		<g>
			<rect x="372" y="619.7" class="st6" width="6.4" height="1.6"/>
			<rect x="371.7" y="621.3" class="st18" width="7" height="35.1"/>
			<rect x="372.2" y="656.4" class="st6" width="6" height="2.4"/>
			<g>
				<path class="st6" d="M373.6,730.2c0.3,0.7,0.5,1.2,0.8,1.6h1.7c0.3-0.4,0.6-1,0.8-1.6H373.6z"/>
				<path class="st18" d="M378.7,721.8c0-5.9-1.6-10.6-3.5-10.6s-3.5,4.7-3.5,10.6c0,0.6,0.8,5.5,1.9,8.4h3.3
					C377.9,727.3,378.7,722.4,378.7,721.8z"/>
			</g>
			<rect x="371.7" y="658.8" class="st18" width="7" height="62.2"/>
			<rect x="371.7" y="721" class="st6" width="7" height="1.6"/>
			<g>
				<path class="st6" d="M374.7,731.9v2c0,0.3,0.2,0.5,0.5,0.5s0.5-0.2,0.5-0.5v-2H374.7z"/>
			</g>
		</g>
	</g>
</g>
</svg>
