<svg height="512" viewBox="0 0 512 512" width="512" xmlns="http://www.w3.org/2000/svg"><g id="flat"><path d="m288 304-112 176-32-88-88 8 96-152z" fill="#961b20"/><path d="m93.11 396.63 50.89-4.63 18.87 51.9 93.13-147.9-80-32z" fill="#0276b4"/><path d="m224 304 112 176 32-88 88 8-96-152z" fill="#e82f3e"/><path d="m418.89 396.63-50.89-4.63-18.87 51.9-93.13-147.9 80-32z" fill="#0292c9"/><circle cx="256" cy="176" fill="#d18d28" r="136"/><circle cx="256" cy="176" fill="#fbb540" r="104"/><path d="m234.145 148.079-47.936 7.069 34.769 33.748-8.09 47.775 42.841-22.639 42.937 22.457-8.292-47.74 34.626-33.895-47.966-6.866-21.536-43.406z" fill="#d18d28"/></g></svg>