<svg height="512" viewBox="0 0 512 512" width="512" xmlns="http://www.w3.org/2000/svg"><g id="flat"><path d="m256 224a24 24 0 1 1 24-24 24.027 24.027 0 0 1 -24 24zm0-32a8 8 0 1 0 8 8 8.009 8.009 0 0 0 -8-8z" fill="#ea9d2d"/><circle cx="256" cy="352" fill="#fbb540" r="136"/><circle cx="256" cy="352" fill="#d18d28" r="104"/><path d="m231.44 364a7.954 7.954 0 0 1 -3.628-.875l-27.287-13.919a29.811 29.811 0 0 1 -16.525-26.806v-18.4a8 8 0 0 1 8-8h24a8 8 0 0 1 0 16h-16v10.4a13.924 13.924 0 0 0 7.739 12.522l27.344 13.949a8 8 0 0 1 -3.643 15.129z" fill="#ea9d2d"/><path d="m279.585 364a8 8 0 0 1 -3.541-15.179l28.256-13.921a13.907 13.907 0 0 0 7.7-12.5v-10.4h-16a8 8 0 0 1 0-16h24a8 8 0 0 1 8 8v18.4a29.835 29.835 0 0 1 -16.583 26.833l-28.3 13.941a7.994 7.994 0 0 1 -3.532.826z" fill="#ea9d2d"/><path d="m296 288v30.059a81.941 81.941 0 0 1 -24 57.941v7.65a54.007 54.007 0 0 0 9.069 29.954l6.931 10.396h-64l6.931-10.4a54.007 54.007 0 0 0 9.069-29.95v-7.65a81.941 81.941 0 0 1 -24-57.941v-30.059z" fill="#fbb540"/><path d="m216 152h80l-64-128h-80z" fill="#961b20"/><path d="m296 152h-80l64-128h80z" fill="#e82f3e"/><path d="m256 152 64-128h40l-64 128z" fill="#0296e5"/><rect fill="#ea9d2d" height="32" rx="16" width="128" x="192" y="152"/><path d="m311.05 24h17.95l-64.05 128h-17.95z" fill="#eaeae8"/></g></svg>