<svg height="512" viewBox="0 0 512 512" width="512" xmlns="http://www.w3.org/2000/svg"><g id="flat"><path d="m368 424-112 64-112-64v-312h224z" fill="#e82f3e"/><path d="m107.413 128.15a8 8 0 0 1 -4.353-14.717l148.594-96.15a8 8 0 0 1 8.692 0l145.6 94.211a8 8 0 0 1 -8.691 13.434l-141.255-91.4-144.249 93.338a7.964 7.964 0 0 1 -4.338 1.284z" fill="#cbcbcb"/><path d="m176 440v-328h-32v312z" fill="#961b20"/><path d="m336 112v328l32-16v-312z" fill="#961b20"/><path d="m259.8 203.21 10.677 32.859h34.55a4 4 0 0 1 2.351 7.236l-27.948 20.308 10.677 32.859a4 4 0 0 1 -6.156 4.472l-27.951-20.308-27.951 20.308a4 4 0 0 1 -6.156-4.472l10.677-32.859-27.952-20.308a4 4 0 0 1 2.351-7.236h34.55l10.681-32.859a4 4 0 0 1 7.6 0z" fill="#fbb540"/><circle cx="256" cy="40" fill="#fbb540" r="16"/><g fill="#533222"><path d="m368 112h48v32h-48z"/><path d="m96 112h48v32h-48z"/></g></g></svg>