<svg height="512" viewBox="0 0 512 512" width="512" xmlns="http://www.w3.org/2000/svg"><g id="flat"><path d="m374.57 163.37a16.246 16.246 0 0 1 .54 4.15 15.971 15.971 0 0 1 -20.11 15.43l-18.5 18.49a105.736 105.736 0 0 0 -28.9 54.01l-4.42 22.09a105.631 105.631 0 0 1 -28.91 54.01l-79.191 79.2-37.256 24.97-19.31 31.6-11.313 11.31a32.019 32.019 0 0 1 -45.26 0l-56.57-56.57a32.019 32.019 0 0 1 0-45.26l11.313-11.313 34.874-18.871 21.7-37.695 79.2-79.191a105.715 105.715 0 0 1 42.74-26 102.915 102.915 0 0 1 11.27-2.91l22.09-4.42a105.736 105.736 0 0 0 54.01-28.9l18.483-18.5a16.112 16.112 0 0 1 -.54-4.14 15.967 15.967 0 0 1 20.02-15.45.355.355 0 0 1 .1.02l24.15-24.15 33.94 33.94-23.97 23.97z" fill="#029532"/><path d="m304.07 273.07-.89 4.47a105.6 105.6 0 0 1 -10.45 29.14c-.32.59-.64 1.18-.97 1.77l-53.43-4.85 2 27.95h-33.94l-2.83-31.11-31.11-2.83v-33.94l27.95 2-4.85-53.42a105.651 105.651 0 0 1 19.64-8.52 102.915 102.915 0 0 1 11.27-2.91l4.47-.89 4.88 68.26z" fill="#029532"/><path d="m375.11 167.52a15.971 15.971 0 0 1 -20.11 15.43l-18.5 18.49a105.736 105.736 0 0 0 -28.9 54.01l-4.42 22.09a105.773 105.773 0 0 1 -4 14.53l-81.47-5.78-2.52-82.56a102.915 102.915 0 0 1 11.27-2.91l22.09-4.42a105.736 105.736 0 0 0 54.01-28.9l18.49-18.5a16.112 16.112 0 0 1 -.54-4.14 15.967 15.967 0 0 1 20.02-15.45l34.22 33.78-.18.18a16.246 16.246 0 0 1 .54 4.15z" fill="#fbb540"/><path d="m240.33 331.55h-33.94l-2.83-31.11-3.16-34.77-4.85-53.42a105.651 105.651 0 0 1 19.64-8.52 102.915 102.915 0 0 1 11.27-2.91l4.47-.89 4.88 68.26 2.52 35.41z" fill="#d18d28"/><path d="m304.07 273.07-.89 4.47a105.6 105.6 0 0 1 -10.45 29.14c-.32.59-.64 1.18-.97 1.77l-53.43-4.85-34.77-3.16-31.11-2.83v-33.94l27.95 2 35.41 2.52z" fill="#ea9d2d"/><circle cx="285.588" cy="218.412" fill="#961b20" r="24"/><circle cx="285.588" cy="218.412" fill="#e82f3e" r="16.971"/><path d="m43.882 348.118h144v80h-144z" fill="#eaeae8" transform="matrix(.707 .707 -.707 .707 308.382 31.736)"/><path d="m172.451 407.432a8 8 0 0 1 -5.657-13.658l28.284-28.284a8 8 0 0 1 11.315 11.315l-28.285 28.284a7.979 7.979 0 0 1 -5.657 2.343z" fill="#02a437"/><path d="m144.167 435.716a8 8 0 0 1 -5.657-13.656l5.656-5.658a8 8 0 1 1 11.314 11.313l-5.656 5.657a7.969 7.969 0 0 1 -5.657 2.344z" fill="#02a437"/><path d="m446.544 29.456h32v40h-32z" fill="#683b0d" transform="matrix(.707 .707 -.707 .707 170.447 -312.583)"/><path d="m436.201 54.426h32v10.745h-32z" fill="#533222" transform="matrix(.707 .707 -.707 .707 174.731 -302.24)"/><path d="m389.873 96a8 8 0 0 1 -5.911-13.389l7.291-8a7.9 7.9 0 0 1 .619-.609 24 24 0 1 0 -39.872-18.002 8 8 0 0 1 -16 0 40 40 0 1 1 66.8 29.692l-7.014 7.7a7.98 7.98 0 0 1 -5.913 2.608z" fill="#f7ba61"/><path d="m448.31 176a8 8 0 0 1 -.053-16 24 24 0 0 0 -.159-48h-.167a24.022 24.022 0 0 0 -17.947 8.249 7.735 7.735 0 0 1 -.6.623l-7.95 7.346a8 8 0 0 1 -10.858-11.752l7.649-7.068a40.028 40.028 0 0 1 29.6-13.4h.277a40 40 0 0 1 .265 80z" fill="#f7ba61"/><circle cx="256" cy="104" fill="#fbb540" r="8"/><circle cx="416" cy="216" fill="#fbb540" r="8"/><circle cx="464" cy="216" fill="#f7ba61" r="8"/><circle cx="432" cy="272" fill="#fbb540" r="10"/><circle cx="314" cy="90" fill="#fbb540" r="10"/><circle cx="288" cy="48" fill="#f7ba61" r="8"/><path d="m352.497 117.563 34.154 33.726-11.901 11.901-34.22-33.78z" fill="#027e2a"/></g></svg>