<svg height="512" viewBox="0 0 512 512" width="512" xmlns="http://www.w3.org/2000/svg"><g id="flat"><rect fill="#683b0d" height="464" rx="24" width="352" x="80" y="24"/><path d="m112 56h288v400h-288z" fill="#eaeae8"/><rect fill="#cbcbcb" height="48" rx="24" width="96" x="208" y="24"/><path d="m176 304h32v64h-32z" fill="#027226"/><path d="m240 264h32v104h-32z" fill="#029532"/><path d="m304 232h32v136h-32z" fill="#02a437"/><path d="m288 168h-24a8 8 0 0 0 0 16h4.088a244.8 244.8 0 0 1 -109.823 56.19 8 8 0 1 0 3.47 15.62 260.816 260.816 0 0 0 118.265-60.993v5.183a8 8 0 0 0 16 0v-24a8 8 0 0 0 -8-8z" fill="#e82f3e"/><path d="m368 376h-224a8 8 0 0 1 -8-8v-72a8 8 0 0 1 16 0v64h216a8 8 0 0 1 0 16z" fill="#cbcbcb"/><path d="m336.284 94.681 6.517 20.058h21.09a4.1 4.1 0 0 1 2.411 7.42l-17.063 12.4 6.518 20.058a4.1 4.1 0 0 1 -6.312 4.585l-17.062-12.4-17.062 12.4a4.1 4.1 0 0 1 -6.311-4.585l6.517-20.058-17.062-12.4a4.1 4.1 0 0 1 2.41-7.42h21.09l6.517-20.058a4.1 4.1 0 0 1 7.802 0z" fill="#fbb540"/><g fill="#cbcbcb"><circle cx="256" cy="414" r="10"/><circle cx="222" cy="414" r="10"/><circle cx="290" cy="414" r="10"/></g><path d="m112 456h288v12.079h-288z" fill="#533222"/></g></svg>