<svg height="512" viewBox="0 0 512 512" width="512" xmlns="http://www.w3.org/2000/svg"><g id="flat"><path d="m472 252.69a289.714 289.714 0 0 1 -208 0v-176a289.714 289.714 0 0 0 208 0z" fill="#a8a8a8"/><path d="m264 160v92.689a289.661 289.661 0 0 0 104 19.311v-92.689a289.661 289.661 0 0 1 -104-19.311z" fill="#0276b4"/><path d="m472 76.689a289.661 289.661 0 0 1 -104 19.311v83.311a289.661 289.661 0 0 0 104-19.311z" fill="#0276b4"/><path d="m112 56a16 16 0 0 1 16 16v416a0 0 0 0 1 0 0h-32a0 0 0 0 1 0 0v-416a16 16 0 0 1 16-16z" fill="#533222"/><path d="m128 72a289.714 289.714 0 0 1 208 0v88l-4.506 82.305a74.05 74.05 0 0 0 -22.133-10.132c-26.381-7.073-47.146-3.483-77.361-3.483a289.66 289.66 0 0 0 -104 19.31z" fill="#eaeae8"/><g fill="#0292c9"><path d="m232 140.689v-88a289.661 289.661 0 0 0 -104 19.311v88a289.661 289.661 0 0 1 104-19.311z"/><path d="m232 140.689v88a289.661 289.661 0 0 1 104 19.311v-88a289.661 289.661 0 0 0 -104-19.311z"/></g></g></svg>