<svg height="512" viewBox="0 0 512 512" width="512" xmlns="http://www.w3.org/2000/svg"><g id="flat"><path d="m346.4 280 5.6-8 56-76 48 72.8 32 51.2v168z" fill="#0276b4"/><path d="m456 268.8-32-12.8-16 24-16-24-40 16 56-80z" fill="#a8a8a8"/><path d="m161.16 273.657-57.16-65.657-48 60.8-32 51.2v168z" fill="#0276b4"/><path d="m24 488 151.047-239.591 80.953-118.409 80.953 118.409 151.047 239.591z" fill="#0296e5"/><path d="m168 440v48h-16v-48a8 8 0 0 1 16 0z" fill="#cbcbcb"/><path d="m264 440v48h-16v-48a8 8 0 0 1 16 0z" fill="#cbcbcb"/><path d="m360 440v48h-16v-48a8 8 0 0 1 16 0z" fill="#cbcbcb"/><path d="m278.888 409.646a41.882 41.882 0 0 0 1.112-9.646c0-17.673-10.745-32-24-32s-24 14.327-24 32a41.882 41.882 0 0 0 1.112 9.646 32 32 0 1 0 45.776 0z" fill="#026a23"/><path d="m264 440v48h-16v-48a8 8 0 0 1 16 0z" fill="#683b0d"/><path d="m182.888 409.646a41.882 41.882 0 0 0 1.112-9.646c0-17.673-10.745-32-24-32s-24 14.327-24 32a41.882 41.882 0 0 0 1.112 9.646 32 32 0 1 0 45.776 0z" fill="#027e2a"/><path d="m168 440v48h-16v-48a8 8 0 0 1 16 0z" fill="#683b0d"/><path d="m374.888 409.646a41.882 41.882 0 0 0 1.112-9.646c0-17.673-10.745-32-24-32s-24 14.327-24 32a41.882 41.882 0 0 0 1.112 9.646 32 32 0 1 0 45.776 0z" fill="#027e2a"/><path d="m360 440v48h-16v-48a8 8 0 0 1 16 0z" fill="#683b0d"/><path d="m352 72h-96v-48h96l-24 24z" fill="#e82f3e"/><path d="m256 145.767a8 8 0 0 1 -8-8v-113.767a8 8 0 0 1 16 0v113.767a8 8 0 0 1 -8 8z" fill="#683b0d"/><path d="m336.953 248.409-56.953-24.409-24 24-24-24-56.953 24.409 80.957-128.409z" fill="#eaeae8"/><path d="m160 272-40-16-16 24-16-24-32 12.8 48-76.8z" fill="#a8a8a8"/><g fill="#eaeae8"><path d="m160 272-40-16-16 24-16-24-32 12.8 48-76.8z"/><path d="m456 268.8-32-12.8-16 24-16-24-40 16 56-80z"/><path d="m188 88h-4a24 24 0 0 0 -48 0h-4a20 20 0 0 0 -20 20v4h96v-4a20 20 0 0 0 -20-20z"/><path d="m428 136h-4a24 24 0 0 0 -48 0h-4a20 20 0 0 0 -20 20v4h96v-4a20 20 0 0 0 -20-20z"/></g></g></svg>