<svg height="512" viewBox="0 0 512 512" width="512" xmlns="http://www.w3.org/2000/svg"><g id="flat"><path d="m424 488h-336v-384l80-80h256z" fill="#eaeae8"/><path d="m168 24v80h-80z" fill="#cbcbcb"/><path d="m144 320a8 8 0 0 1 -5.317-13.979l72-64a8 8 0 0 1 10.971.322l18.346 18.344 58.343-58.344a8 8 0 0 1 11.314 0l10.343 10.344 43.737-43.739a8 8 0 0 1 11.315 11.315l-49.4 49.394a8 8 0 0 1 -11.314 0l-10.338-10.344-58.343 58.344a8 8 0 0 1 -11.314 0l-18.666-18.667-66.363 58.989a7.963 7.963 0 0 1 -5.314 2.021z" fill="#02a437"/><circle cx="376" cy="168" fill="#ea9d2d" r="16"/><circle cx="136" cy="320" fill="#ea9d2d" r="16"/><path d="m136 368h48v48h-48z" fill="#fbb540"/><path d="m216 384h48v32h-48z" fill="#e82f3e"/><path d="m296 312h48v104h-48z" fill="#0296e5"/><path d="m392 424h-272a8 8 0 0 1 0-16h272a8 8 0 0 1 0 16z" fill="#cbcbcb"/></g></svg>