<svg height="512" viewBox="0 0 512 512" width="512" xmlns="http://www.w3.org/2000/svg"><g id="flat"><path d="m302.4 395.2h-92.8a175.433 175.433 0 0 0 -33.174-67l-7.922-9.908c-21.3-26.637-29.583-61.731-21.161-94.78q.393-1.543.832-3.08l1.36-4.762a110.726 110.726 0 0 1 106.465-80.31 110.726 110.726 0 0 1 106.465 80.306l1.36 4.762q.44 1.536.832 3.08c8.422 33.049.137 68.143-21.161 94.78l-7.922 9.908a175.433 175.433 0 0 0 -33.174 67z" fill="#fbb540"/><path d="m306.524 265.28q0-2.577-.254-5.087l13.205-14.893-14.436-25-19.514 3.994a50.439 50.439 0 0 0 -8.794-5.084l-6.3-18.888h-28.867l-6.295 18.888a50.439 50.439 0 0 0 -8.794 5.084l-19.514-3.994-14.436 25 13.2 14.891q-.251 2.51-.254 5.087t.254 5.087l-13.2 14.891 14.436 25 19.514-3.994a50.508 50.508 0 0 0 8.794 5.085l6.295 18.887h28.872l6.3-18.887a50.508 50.508 0 0 0 8.794-5.085l19.514 3.994 14.436-25-13.21-14.889q.251-2.509.254-5.087zm-50.524 18.56a18.56 18.56 0 1 1 18.56-18.56 18.561 18.561 0 0 1 -18.56 18.56z" fill="#c38325"/><path d="m209.6 395.2h92.8a0 0 0 0 1 0 0v46.4a46.4 46.4 0 0 1 -46.4 46.4 46.4 46.4 0 0 1 -46.4-46.4v-46.4a0 0 0 0 1 0 0z" fill="#eaeae8"/><path d="m246.72 431.04h-46.4a8 8 0 0 1 0-16h46.4a8 8 0 0 1 0 16z" fill="#cbcbcb"/><path d="m311.68 449.6h-27.84a8 8 0 0 1 0-16h27.84a8 8 0 0 1 0 16z" fill="#cbcbcb"/><path d="m256 468.16h-55.68a8 8 0 0 1 0-16h55.68a8 8 0 0 1 0 16z" fill="#cbcbcb"/><path d="m196.747 87.628a8 8 0 0 1 -7.62-5.569l-11.285-35.359a8 8 0 0 1 15.242-4.865l11.286 35.358a8.007 8.007 0 0 1 -7.623 10.435z" fill="#ea9d2d"/><path d="m98.934 157.91a7.958 7.958 0 0 1 -4.73-1.554l-29.916-21.974a8 8 0 1 1 9.471-12.9l29.917 21.975a8 8 0 0 1 -4.742 14.448z" fill="#ea9d2d"/><path d="m61.124 272.261h-.043l-37.12-.194a8 8 0 0 1 .041-16h.042l37.12.194a8 8 0 0 1 -.04 16z" fill="#ea9d2d"/><path d="m67.6 408.664a8 8 0 0 1 -4.675-14.5l30.145-21.661a8 8 0 0 1 9.337 12.994l-30.141 21.663a7.967 7.967 0 0 1 -4.666 1.504z" fill="#ea9d2d"/><path d="m442.97 410.627a7.962 7.962 0 0 1 -4.729-1.554l-29.917-21.973a8 8 0 0 1 9.472-12.9l29.916 21.976a8 8 0 0 1 -4.742 14.448z" fill="#ea9d2d"/><path d="m488 274.493h-.043l-37.12-.194a8 8 0 0 1 .041-16h.043l37.12.194a8 8 0 0 1 -.041 16z" fill="#ea9d2d"/><path d="m414.265 159.56a8 8 0 0 1 -4.676-14.5l30.145-21.66a8 8 0 0 1 9.337 13l-30.145 21.661a7.973 7.973 0 0 1 -4.661 1.499z" fill="#ea9d2d"/><path d="m317.191 88.258a8 8 0 0 1 -7.6-10.514l11.659-35.244a8 8 0 1 1 15.19 5.023l-11.655 35.245a8 8 0 0 1 -7.594 5.49z" fill="#ea9d2d"/><g fill="#fbb540"><path d="m256 87.68a8 8 0 0 1 -8-8v-55.68a8 8 0 0 1 16 0v55.68a8 8 0 0 1 -8 8z"/><path d="m146.914 123.127a7.991 7.991 0 0 1 -6.479-3.3l-32.728-45.045a8 8 0 0 1 12.944-9.4l32.728 45.046a8 8 0 0 1 -6.465 12.7z"/><path d="m79.485 215.929a7.985 7.985 0 0 1 -2.473-.394l-52.955-17.206a8 8 0 0 1 4.943-15.217l52.955 17.206a8 8 0 0 1 -2.471 15.611z"/><path d="m26.528 347.842a8 8 0 0 1 -2.471-15.611l52.955-17.206a8 8 0 0 1 4.944 15.217l-52.956 17.206a7.985 7.985 0 0 1 -2.472.394z"/><path d="m114.173 468.48a8 8 0 0 1 -6.466-12.7l32.728-45.046a8 8 0 0 1 12.944 9.405l-32.728 45.046a7.99 7.99 0 0 1 -6.478 3.295z"/><path d="m397.827 468.48a7.99 7.99 0 0 1 -6.478-3.3l-32.728-45.046a8 8 0 0 1 12.944-9.405l32.728 45.046a8 8 0 0 1 -6.466 12.7z"/><path d="m485.472 347.842a7.985 7.985 0 0 1 -2.473-.394l-52.955-17.206a8 8 0 0 1 4.944-15.217l52.955 17.206a8 8 0 0 1 -2.471 15.611z"/><path d="m432.515 215.929a8 8 0 0 1 -2.471-15.611l52.956-17.206a8 8 0 0 1 4.944 15.217l-52.955 17.206a7.99 7.99 0 0 1 -2.474.394z"/><path d="m365.086 123.127a8 8 0 0 1 -6.465-12.7l32.728-45.046a8 8 0 0 1 12.944 9.4l-32.728 45.046a7.991 7.991 0 0 1 -6.479 3.3z"/></g></g></svg>