<svg height="512" viewBox="0 0 512 512" width="512" xmlns="http://www.w3.org/2000/svg"><g id="flat"><path d="m256 248a56 56 0 1 1 56-56 56.063 56.063 0 0 1 -56 56zm0-96a40 40 0 1 0 40 40 40.045 40.045 0 0 0 -40-40z" fill="#ea9d2d"/><path d="m352 136-72 64h-48l-72-64v-112h192z" fill="#029532"/><path d="m304 24v154.67l-24 21.33h-48l-24-21.33v-154.67z" fill="#e82f3e"/><path d="m299.161 260.646 89.438-1.789-46.572 76.377 46.269 76.56-89.43-2.144-43.17 78.35-42.857-78.521-89.438 1.789 46.572-76.376-46.269-76.561 89.43 2.145 43.17-78.35z" fill="#fbb540"/><circle cx="256" cy="335.063" fill="#ea9d2d" r="79.063"/><circle cx="256" cy="335.063" fill="#fbb540" r="47.063"/><path d="m263.339 325.834 21.954.838-17.226 13.637 5.986 21.139-18.292-12.169-18.254 12.225 5.921-21.157-17.269-13.583 21.952-.907 7.582-20.62z" fill="#c38325"/></g></svg>