<svg height="512" viewBox="0 0 512 512" width="512" xmlns="http://www.w3.org/2000/svg"><g id="flat"><path d="m263.792 53.662 13.02 40.07h42.133a8.193 8.193 0 0 1 4.816 14.822l-34.086 24.765 13.025 40.071a8.194 8.194 0 0 1 -12.609 9.161l-34.091-24.765-34.086 24.765a8.194 8.194 0 0 1 -12.609-9.161l13.02-40.071-34.086-24.765a8.193 8.193 0 0 1 4.816-14.822h42.133l13.02-40.07a8.193 8.193 0 0 1 15.584 0z" fill="#fbb540"/><path d="m93.257 191.972 8.783 27.028h28.422a5.527 5.527 0 0 1 3.249 10l-22.994 16.706 8.783 27.034a5.527 5.527 0 0 1 -8.506 6.179l-22.994-16.706-22.994 16.706a5.527 5.527 0 0 1 -8.506-6.179l8.783-27.032-22.994-16.708a5.527 5.527 0 0 1 3.249-10h28.422l8.783-27.031a5.528 5.528 0 0 1 10.514.003z" fill="#fbb540"/><path d="m429.257 207.972 8.783 27.028h28.422a5.527 5.527 0 0 1 3.249 10l-22.994 16.706 8.783 27.034a5.527 5.527 0 0 1 -8.506 6.179l-22.994-16.706-22.994 16.706a5.527 5.527 0 0 1 -8.506-6.179l8.783-27.032-22.994-16.708a5.527 5.527 0 0 1 3.249-10h28.422l8.783-27.031a5.528 5.528 0 0 1 10.514.003z" fill="#fbb540"/><path d="m176 264h160v224h-160z" fill="#fbb540"/><path d="m24 360h152v128h-152z" fill="#ea9d2d"/><path d="m336 360h152v128h-152z" fill="#ea9d2d"/><path d="m24 328h152v32h-152z" fill="#d18d28"/><path d="m336 328h152v32h-152z" fill="#d18d28"/><path d="m176 232h160v32h-160z" fill="#d18d28"/><g fill="#c38325"><path d="m248 304h16v16h-16z"/><path d="m72 400h16v16h-16z"/><path d="m104 400h16v16h-16z"/><path d="m376 400h16v16h-16z"/><path d="m408 400h16v16h-16z"/><path d="m440 400h16v16h-16z"/></g></g></svg>