<svg height="512" viewBox="0 0 512 512" width="512" xmlns="http://www.w3.org/2000/svg"><g id="flat"><path d="m24 120h464v344h-464z" fill="#eaeae8"/><path d="m240 392h32v32h-32z" fill="#0276b4"/><path d="m236 424h40a4 4 0 0 1 4 4v36a0 0 0 0 1 0 0h-48a0 0 0 0 1 0 0v-36a4 4 0 0 1 4-4z" fill="#683b0d"/><circle cx="256" cy="272" fill="#eaeae8" r="120"/><path d="m256 400a128 128 0 1 1 128-128 128.146 128.146 0 0 1 -128 128zm0-240a112 112 0 1 0 112 112 112.127 112.127 0 0 0 -112-112z" fill="#0276b4"/><path d="m261.025 224.519 8.81 27.113h28.507a5.283 5.283 0 0 1 3.106 9.558l-23.063 16.757 8.809 27.112a5.284 5.284 0 0 1 -8.131 5.908l-23.063-16.757-23.063 16.757a5.284 5.284 0 0 1 -8.131-5.908l8.809-27.112-23.063-16.757a5.283 5.283 0 0 1 3.106-9.558h28.507l8.81-27.113a5.284 5.284 0 0 1 10.05 0z" fill="#fbb540"/><path d="m24 72h464v48h-464z" fill="#0296e5"/><path d="m256 368a96 96 0 0 1 0-192 8 8 0 0 1 0 16 80 80 0 0 0 0 160 8 8 0 0 1 0 16z" fill="#cbcbcb"/><g fill="#0276b4"><circle cx="58" cy="96" r="10"/><circle cx="90" cy="96" r="10"/><circle cx="122" cy="96" r="10"/></g></g></svg>