<svg height="512" viewBox="0 0 512 512" width="512" xmlns="http://www.w3.org/2000/svg"><g id="flat"><path d="m339.028 431.99a29.6 29.6 0 0 1 -15.373-4.3l-51.7-31.3a29.78 29.78 0 0 1 -10.051-40.9l1.148-1.9 7.119-11.545a8 8 0 1 1 13.619 8.4l-8.2 13.329a13.782 13.782 0 0 0 4.65 18.926l51.7 31.3a13.8 13.8 0 0 0 18.925-4.651l17.722-29.274 17.826-29.74a8 8 0 0 1 13.724 8.226l-17.844 29.771-17.741 29.3a29.8 29.8 0 0 1 -25.524 14.358z" fill="#0296e5"/><path d="m488 368.208-274.625-287.842-132.585 218.992 382.35 109.911z" fill="#fbb540"/><path d="m247.7 116.35-119.11 196.75-47.8-13.74 132.58-218.99z" fill="#fbb540"/><path d="m488 368.21-24.86 41.06-31.86-9.16 33.83-55.89z" fill="#fbb540"/><path d="m247.7 116.35-119.11 196.75-47.8-13.74 132.58-218.99z" fill="#ea9d2d"/><path d="m488 368.21-24.86 41.06-31.86-9.16 33.83-55.89z" fill="#ea9d2d"/><g fill="#f7ba61"><path d="m123.732 179.942a7.964 7.964 0 0 1 -4.135-1.157l-61.591-37.285a8 8 0 1 1 8.286-13.687l61.591 37.287a8 8 0 0 1 -4.151 14.844z"/><path d="m173.463 97.82a7.981 7.981 0 0 1 -6.1-2.818l-35.558-41.82a8 8 0 1 1 12.195-10.364l35.557 41.821a8 8 0 0 1 -6.091 13.181z"/><path d="m148.594 138.881a7.968 7.968 0 0 1 -4.88-1.665l-38.25-29.5a8 8 0 0 1 9.772-12.67l38.25 29.5a8 8 0 0 1 -4.892 14.335z"/><path d="m74.028 262.065a8.008 8.008 0 0 1 -1.774-.2l-50.021-11.324a8 8 0 1 1 3.534-15.6l50.021 11.325a8 8 0 0 1 -1.76 15.8z"/><path d="m98.876 221.005a7.962 7.962 0 0 1 -3.343-.736l-43.872-20.217a8 8 0 1 1 6.7-14.531l43.872 20.216a8 8 0 0 1 -3.353 15.268z"/></g><path d="m360 288a7.976 7.976 0 0 1 -5.657-2.343l-8-8a8 8 0 0 1 11.314-11.314l8 8a8 8 0 0 1 -5.657 13.657z" fill="#ea9d2d"/><path d="m328 256a7.976 7.976 0 0 1 -5.657-2.343l-24-24a8 8 0 0 1 11.314-11.314l24 24a8 8 0 0 1 -5.657 13.657z" fill="#ea9d2d"/></g></svg>