<svg height="512" viewBox="0 0 512 512" width="512" xmlns="http://www.w3.org/2000/svg"><g id="flat"><path d="m56 40h432v432h-432z" fill="#f7ba61"/><circle cx="272" cy="256" fill="#e82f3e" r="184"/><path d="m277.66 261.66-128 128c-.78.78-1.44 1.43-2 1.97q-5.88-5.385-11.27-11.27l129.95-130.02a8 8 0 1 1 11.32 11.32z" fill="#e82f3e"/><circle cx="272" cy="256" fill="#0292c9" r="136"/><circle cx="272" cy="256" fill="#e82f3e" r="88"/><circle cx="272" cy="256" fill="#0292c9" r="40"/><path d="m277.66 261.66-128 128c-.78.78-1.44 1.43-2 1.97q-5.88-5.385-11.27-11.27l129.95-130.02a8 8 0 1 1 11.32 11.32z" fill="#0276b4"/><g fill="#ea9d2d"><circle cx="90" cy="74" r="10"/><circle cx="454" cy="74" r="10"/><circle cx="90" cy="438" r="10"/><circle cx="454" cy="438" r="10"/></g><path d="m64 280h-32l16-24-16-24h32l16 24z" fill="#fbb540"/><path d="m272 264h-168a8 8 0 0 1 0-16h168a8 8 0 0 1 0 16z" fill="#533222"/><path d="m96 280h-32l16-24-16-24h32l16 24z" fill="#ea9d2d"/></g></svg>