<svg height="512" viewBox="0 0 512 512" width="512" xmlns="http://www.w3.org/2000/svg"><g id="flat"><path d="m248 105.689.006-.016c11.715-28.873 54.679-20.324 54.454 10.827v.017l.012-.012c21.871-22.189 58.3 2.148 46.164 30.846l-.007.016.016-.007c28.7-12.131 53.035 24.293 30.846 46.164l-.012.012h.017c31.155-.225 39.7 42.739 10.831 54.454l-.016.006.016.006c28.87 11.715 20.324 54.679-10.831 54.454h-.017l.012.012c22.189 21.871-2.148 58.3-30.846 46.164l-.016-.007.007.016c12.131 28.7-24.293 53.035-46.164 30.846l-.012-.012v.017c.225 31.155-42.739 39.7-54.454 10.831l-.006-.016-.006.016c-11.715 28.87-54.679 20.324-54.454-10.831v-.017l-.012.012c-21.871 22.189-58.295-2.148-46.164-30.846l.007-.016-.016.007c-28.7 12.131-53.035-24.293-30.846-46.164l.012-.012h-.021c-31.155.225-39.7-42.739-10.831-54.454l.016-.006-.016-.006c-28.869-11.711-20.32-54.675 10.831-54.45h.017l-.012-.012c-22.189-21.871 2.148-58.295 30.846-46.164l.016.007-.007-.016c-12.131-28.7 24.293-53.035 46.164-30.846l.012.012v-.021c-.225-31.155 42.739-39.7 54.454-10.831z" fill="#d18d28"/><path d="m376 360h80l-32 48 33.707 48h-81.707z" fill="#e82f3e"/><path d="m120 360h-80l32 48-32 48h80z" fill="#e82f3e"/><circle cx="248" cy="248" fill="#fbb540" r="112"/><path d="m120 344h256v96h-256z" fill="#e82f3e"/><path d="m264 280v-104h-32a228.486 228.486 0 0 1 -34.827 28.551l-5.173 3.449 16 24 24-16v64h-12a12 12 0 0 0 -12 12v20h80v-20a12 12 0 0 0 -12-12z" fill="#d18d28"/><g fill="#e82f3e"><path d="m421.359 48a8 8 0 0 1 -8-8v-16a8 8 0 0 1 16 0v16a8 8 0 0 1 -8 8z"/><path d="m400.567 60a7.957 7.957 0 0 1 -3.993-1.073l-13.856-8a8 8 0 1 1 8-13.856l13.856 8a8 8 0 0 1 -4.007 14.929z"/><path d="m386.725 92a8 8 0 0 1 -4.007-14.929l13.856-8a8 8 0 1 1 8 13.856l-13.856 8a7.967 7.967 0 0 1 -3.993 1.073z"/><path d="m421.359 112a8 8 0 0 1 -8-8v-16a8 8 0 0 1 16 0v16a8 8 0 0 1 -8 8z"/><path d="m455.993 92a7.957 7.957 0 0 1 -3.993-1.072l-13.856-8a8 8 0 1 1 8-13.856l13.856 8a8 8 0 0 1 -4.007 14.928z"/><path d="m442.151 60a8 8 0 0 1 -4.007-14.929l13.856-8a8 8 0 1 1 8 13.856l-13.856 8a7.97 7.97 0 0 1 -3.993 1.073z"/></g><path d="m51.713 132.8a8 8 0 0 1 -8-8v-12.8a8 8 0 0 1 16 0v12.8a8 8 0 0 1 -8 8z" fill="#6ee7f5"/><path d="m35.078 142.4a7.957 7.957 0 0 1 -3.993-1.073l-11.085-6.399a8 8 0 1 1 8-13.856l11.085 6.4a8 8 0 0 1 -4.007 14.928z" fill="#6ee7f5"/><path d="m24.007 168a8 8 0 0 1 -4.007-14.928l11.085-6.4a8 8 0 0 1 8 13.856l-11.085 6.4a7.967 7.967 0 0 1 -3.993 1.072z" fill="#6ee7f5"/><path d="m51.713 184a8 8 0 0 1 -8-8v-12.8a8 8 0 0 1 16 0v12.8a8 8 0 0 1 -8 8z" fill="#6ee7f5"/><path d="m79.418 168a7.956 7.956 0 0 1 -3.992-1.073l-11.086-6.4a8 8 0 1 1 8-13.856l11.086 6.4a8 8 0 0 1 -4.008 14.929z" fill="#6ee7f5"/><path d="m68.348 142.4a8 8 0 0 1 -4.008-14.929l11.086-6.4a8 8 0 1 1 8 13.856l-11.086 6.4a7.953 7.953 0 0 1 -3.992 1.073z" fill="#6ee7f5"/><path d="m460.287 276.8a8 8 0 0 1 -8-8v-12.8a8 8 0 0 1 16 0v12.8a8 8 0 0 1 -8 8z" fill="#fbb540"/><path d="m443.652 286.4a7.956 7.956 0 0 1 -3.992-1.073l-11.086-6.4a8 8 0 0 1 8-13.856l11.086 6.4a8 8 0 0 1 -4.008 14.929z" fill="#fbb540"/><path d="m432.582 312a8 8 0 0 1 -4.008-14.929l11.086-6.4a8 8 0 0 1 8 13.856l-11.086 6.4a7.956 7.956 0 0 1 -3.992 1.073z" fill="#fbb540"/><path d="m460.287 328a8 8 0 0 1 -8-8v-12.8a8 8 0 0 1 16 0v12.8a8 8 0 0 1 -8 8z" fill="#fbb540"/><path d="m487.993 312a7.957 7.957 0 0 1 -3.993-1.072l-11.085-6.4a8 8 0 0 1 8-13.856l11.085 6.4a8 8 0 0 1 -4.007 14.928z" fill="#fbb540"/><path d="m476.922 286.4a8 8 0 0 1 -4.007-14.929l11.085-6.4a8 8 0 0 1 8 13.856l-11.085 6.4a7.967 7.967 0 0 1 -3.993 1.073z" fill="#fbb540"/><path d="m280 384h-160a8 8 0 0 1 0-16h160a8 8 0 0 1 0 16z" fill="#ff6268"/><path d="m376 384h-64a8 8 0 0 1 0-16h64a8 8 0 0 1 0 16z" fill="#ff6268"/><path d="m104 360h16v96h-16z" fill="#961b20"/><path d="m376 360h16v96h-16z" fill="#961b20"/></g></svg>