<svg height="512" viewBox="0 0 512 512" width="512" xmlns="http://www.w3.org/2000/svg"><g id="flat"><g fill="#fbb540"><path d="m208.465 403.965 12.794-21.322a36.3 36.3 0 0 0 0-37.356l-12.794-21.322-12.793 21.322a36.3 36.3 0 0 0 0 37.356z"/><path d="m208.465 403.965-14.309 20.335a36.3 36.3 0 0 1 -34.151 15.137l-24.677-3.056 14.309-20.336a36.3 36.3 0 0 1 34.151-15.137z"/><path d="m136.523 342.09 18.877-16.19a36.3 36.3 0 0 0 11.8-35.442l-5.4-24.272-18.875 16.187a36.3 36.3 0 0 0 -11.8 35.442z"/><path d="m136.523 342.09-20 14.773a36.306 36.306 0 0 1 -37.185 3.571l-22.448-10.7 20-14.773a36.3 36.3 0 0 1 37.185-3.57z"/><path d="m102.012 259.82 23-9.448a36.3 36.3 0 0 0 22.327-29.948l2.488-24.741-23 9.447a36.306 36.306 0 0 0 -22.327 29.949z"/><path d="m102.012 259.82-23.627 7.751a36.3 36.3 0 0 1 -36.427-8.277l-17.958-17.194 23.627-7.751a36.3 36.3 0 0 1 36.427 8.276z"/><path d="m114.637 150.616 24.65 3.262a36.3 36.3 0 0 0 34.278-14.85l14.479-20.215-24.651-3.263a36.3 36.3 0 0 0 -34.277 14.85z"/><path d="m114.637 150.616-24.349-5.046a36.3 36.3 0 0 1 -27.466-25.319l-7.006-23.859 24.349 5.046a36.3 36.3 0 0 1 27.466 25.319z"/><path d="m303.535 403.965-12.794-21.322a36.3 36.3 0 0 1 0-37.356l12.794-21.322 12.793 21.322a36.3 36.3 0 0 1 0 37.356z"/><path d="m303.535 403.965 14.309 20.335a36.3 36.3 0 0 0 34.156 15.138l24.677-3.056-14.309-20.336a36.3 36.3 0 0 0 -34.151-15.137z"/><path d="m375.477 342.09-18.877-16.19a36.3 36.3 0 0 1 -11.8-35.442l5.4-24.272 18.875 16.187a36.3 36.3 0 0 1 11.8 35.442z"/><path d="m375.477 342.09 20 14.773a36.306 36.306 0 0 0 37.185 3.571l22.448-10.7-20-14.773a36.3 36.3 0 0 0 -37.185-3.57z"/><path d="m409.988 259.82-23-9.448a36.3 36.3 0 0 1 -22.327-29.948l-2.488-24.741 23 9.447a36.306 36.306 0 0 1 22.327 29.949z"/><path d="m409.988 259.82 23.627 7.751a36.3 36.3 0 0 0 36.427-8.277l17.958-17.194-23.627-7.751a36.3 36.3 0 0 0 -36.427 8.276z"/><path d="m397.363 150.616-24.65 3.262a36.3 36.3 0 0 1 -34.278-14.85l-14.479-20.215 24.651-3.263a36.3 36.3 0 0 1 34.277 14.85z"/><path d="m397.363 150.616 24.349-5.046a36.3 36.3 0 0 0 27.466-25.319l7.006-23.859-24.349 5.046a36.3 36.3 0 0 0 -27.466 25.319z"/></g><path d="m262.807 164.178 9.96 30.653h32.233a6.268 6.268 0 0 1 3.684 11.339l-26.075 18.944 9.96 30.653a6.268 6.268 0 0 1 -9.645 7.008l-26.078-18.945-26.075 18.945a6.268 6.268 0 0 1 -9.645-7.008l9.96-30.653-26.075-18.944a6.268 6.268 0 0 1 3.684-11.339h32.23l9.96-30.653a6.268 6.268 0 0 1 11.922 0z" fill="#ea9d2d"/><path d="m215.528 464a8 8 0 0 1 -4.064-14.9l100.464-59.1a188.521 188.521 0 0 0 61.272-267.055l-36.336-54.507a8 8 0 0 1 13.313-8.876l36.339 54.508a204.518 204.518 0 0 1 -66.476 289.73l-100.464 59.1a7.962 7.962 0 0 1 -4.048 1.1z" fill="#ea9d2d"/><path d="m258.59 439.95-10.77 6.34-15.64-9.38 10.78-6.34z" fill="#d18d28"/><path d="m296.472 464a7.962 7.962 0 0 1 -4.048-1.1l-100.464-59.1a204.521 204.521 0 0 1 -66.476-289.73l36.339-54.508a8 8 0 0 1 13.313 8.876l-36.336 54.507a188.519 188.519 0 0 0 61.275 267.063l100.464 59.1a8 8 0 0 1 -4.064 14.9z" fill="#ea9d2d"/></g></svg>