<?xml version="1.0" encoding="utf-8"?>
<!-- Generator: Adobe Illustrator 17.1.0, SVG Export Plug-In . SVG Version: 6.00 Build 0)  -->
<!DOCTYPE svg PUBLIC "-//W3C//DTD SVG 1.1//EN" "http://www.w3.org/Graphics/SVG/1.1/DTD/svg11.dtd">
<svg version="1.1" id="Layer_1" xmlns="http://www.w3.org/2000/svg" xmlns:xlink="http://www.w3.org/1999/xlink" x="0px" y="0px"
	 width="1400px" height="978px" viewBox="0 0 1400 978" enable-background="new 0 0 1400 978" xml:space="preserve">
<rect fill-rule="evenodd" clip-rule="evenodd" fill="#C49A6C" width="1400" height="978"/>
<g>
	<path fill-rule="evenodd" clip-rule="evenodd" fill="#C8C9C9" d="M216,67.3l7.2,0.1c1.2,0,2.1,0.9,2.1,1.9V205c0,0.5-0.5,1-1,1H215
		c-0.6,0-1.2-0.5-1.2-1l0.1-135.7C213.9,68.3,214.8,67.3,216,67.3L216,67.3z"/>
	<path fill-rule="evenodd" clip-rule="evenodd" fill="#2B9DD8" d="M216,67.3l7.2,0.1c1.2-0.1,2.1,1.2,2.1,2.7v20.7h-11.3V70.1
		C213.9,68.6,214.8,67.3,216,67.3L216,67.3z"/>
	<path fill-rule="evenodd" clip-rule="evenodd" fill="#888889" d="M215,206h9.3v4.2c0,2.1-1.3,3.7-2.8,3.7h-3.7
		c-1.5,0-2.7-1.7-2.7-3.7V206z"/>
	<path fill-rule="evenodd" clip-rule="evenodd" fill="#B4B5B5" d="M222.7,213.6v6.7c0,1.4-0.9,2.7-1.9,2.7h-2.3
		c-1.2,0-1.9-1.3-1.9-2.7v-6.7c0.4,0.3,0.8,0.4,1.2,0.4h3.7C221.9,214,222.3,213.9,222.7,213.6L222.7,213.6z"/>
	<path fill-rule="evenodd" clip-rule="evenodd" d="M221.4,222.8v4.6c0,1.3-0.8,2.4-1.8,2.4l0,0c-1,0-1.9-1.2-1.9-2.4v-4.6
		c0.3,0.1,0.5,0.3,0.8,0.3h2.3C221,223.1,221.3,222.9,221.4,222.8L221.4,222.8z"/>
	<path fill-rule="evenodd" clip-rule="evenodd" fill="#EEEEEE" d="M65,41.8h124.7c6.4,0,11.6,5.3,11.6,11.6V245
		c0,6.4-5.2,11.6-11.6,11.6H65c-6.3,0-11.6-5.2-11.6-11.6V53.4C53.4,47.1,58.7,41.8,65,41.8L65,41.8z"/>
	<path fill-rule="evenodd" clip-rule="evenodd" fill="#DCDCDD" d="M201.3,241.9v3.1c0,6.4-5.2,11.6-11.6,11.6H65
		c-6.3,0-11.6-5.2-11.6-11.6v-3.1H201.3z"/>
	<path fill-rule="evenodd" clip-rule="evenodd" fill="#E41E26" d="M65,41.8h124.7c6.4,0,11.6,5.3,11.6,11.6v26.9H53.4V53.4
		C53.4,47.1,58.7,41.8,65,41.8L65,41.8z"/>
	<rect x="78" y="57.5" fill-rule="evenodd" clip-rule="evenodd" fill="#B01F24" width="98.8" height="7.1"/>
	<path fill-rule="evenodd" clip-rule="evenodd" fill="#B01F24" d="M68.9,65.5c2.4,0,4.5-1.9,4.5-4.4c0-2.4-2.1-4.5-4.5-4.5
		c-2.4,0-4.5,2.1-4.5,4.5C64.4,63.6,66.4,65.5,68.9,65.5L68.9,65.5z"/>
	<path fill-rule="evenodd" clip-rule="evenodd" fill="#B01F24" d="M186.6,65.5c2.4,0,4.5-1.9,4.5-4.4c0-2.4-2.1-4.5-4.5-4.5
		c-2.4,0-4.5,2.1-4.5,4.5C182.1,63.6,184.2,65.5,186.6,65.5L186.6,65.5z"/>
	<rect x="68.1" y="95.1" fill-rule="evenodd" clip-rule="evenodd" fill="#C8C9C9" width="118.7" height="5.2"/>
	<rect x="68.1" y="114.2" fill-rule="evenodd" clip-rule="evenodd" fill="#C8C9C9" width="118.7" height="5.2"/>
	<rect x="68.1" y="133.3" fill-rule="evenodd" clip-rule="evenodd" fill="#C8C9C9" width="118.7" height="5.2"/>
	<rect x="68.1" y="152.3" fill-rule="evenodd" clip-rule="evenodd" fill="#C8C9C9" width="118.7" height="5.2"/>
	<rect x="68.1" y="171.5" fill-rule="evenodd" clip-rule="evenodd" fill="#C8C9C9" width="118.7" height="5"/>
	<rect x="68.1" y="190.6" fill-rule="evenodd" clip-rule="evenodd" fill="#C8C9C9" width="118.7" height="5.2"/>
	<rect x="68.1" y="209.7" fill-rule="evenodd" clip-rule="evenodd" fill="#C8C9C9" width="118.7" height="5.2"/>
	<rect x="68.1" y="228.7" fill-rule="evenodd" clip-rule="evenodd" fill="#C8C9C9" width="118.7" height="5.2"/>
	<rect x="463" y="66.4" fill-rule="evenodd" clip-rule="evenodd" fill="#EEEEEE" width="83.2" height="199.7"/>
	<rect x="463" y="66.4" fill-rule="evenodd" clip-rule="evenodd" fill="#008EC6" width="83.2" height="20.1"/>
	<polygon fill-rule="evenodd" clip-rule="evenodd" fill="#036D8C" points="463,46.3 546.2,32.3 546.2,66.4 463,66.4 	"/>
	<polygon fill-rule="evenodd" clip-rule="evenodd" fill="#2B9DD8" points="546.2,199.7 575.6,193.5 546.2,32.3 546.2,66.4 	"/>
	<rect x="469.5" y="99.4" fill-rule="evenodd" clip-rule="evenodd" fill="#C8C9C9" width="70.1" height="5.2"/>
	<rect x="469.5" y="111.9" fill-rule="evenodd" clip-rule="evenodd" fill="#C8C9C9" width="70.1" height="5"/>
	<rect x="469.5" y="124.2" fill-rule="evenodd" clip-rule="evenodd" fill="#C8C9C9" width="70.1" height="5.2"/>
	<rect x="469.5" y="136.7" fill-rule="evenodd" clip-rule="evenodd" fill="#C8C9C9" width="70.1" height="5"/>
	<rect x="469.5" y="149.1" fill-rule="evenodd" clip-rule="evenodd" fill="#C8C9C9" width="70.1" height="5.2"/>
	<rect x="469.5" y="161.6" fill-rule="evenodd" clip-rule="evenodd" fill="#C8C9C9" width="70.1" height="5.2"/>
	<rect x="469.5" y="174.1" fill-rule="evenodd" clip-rule="evenodd" fill="#C8C9C9" width="70.1" height="5"/>
	<rect x="469.5" y="186.5" fill-rule="evenodd" clip-rule="evenodd" fill="#C8C9C9" width="70.1" height="5.2"/>
	<rect x="469.5" y="199" fill-rule="evenodd" clip-rule="evenodd" fill="#C8C9C9" width="70.1" height="5"/>
	<rect x="469.5" y="211.3" fill-rule="evenodd" clip-rule="evenodd" fill="#C8C9C9" width="70.1" height="5.2"/>
	<rect x="469.5" y="223.8" fill-rule="evenodd" clip-rule="evenodd" fill="#C8C9C9" width="70.1" height="5"/>
	<rect x="469.5" y="236.2" fill-rule="evenodd" clip-rule="evenodd" fill="#C8C9C9" width="70.1" height="5.2"/>
	<rect x="469.5" y="248.7" fill-rule="evenodd" clip-rule="evenodd" fill="#C8C9C9" width="70.1" height="5.2"/>
	<path fill-rule="evenodd" clip-rule="evenodd" fill="#C8C9C9" d="M444.3,84.4h7.3c1,0,2.1,0.9,2.1,2.1L453.6,222c0,0.6-0.4,1-1,1
		h-9.3c-0.6,0-1-0.5-1-1V86.5C442.2,85.3,443.1,84.4,444.3,84.4L444.3,84.4z"/>
	<path fill-rule="evenodd" clip-rule="evenodd" fill="#2B9DD8" d="M444.3,84.4h7.3c1,0,2.1,1.3,2.1,2.8V108h-11.5V87.3
		C442.2,85.7,443.1,84.4,444.3,84.4L444.3,84.4z"/>
	<path fill-rule="evenodd" clip-rule="evenodd" fill="#888889" d="M443.3,223.1h9.3v4.3c0,2.1-1.3,3.9-2.7,3.9L446,231
		c-1.4,0-2.7-1.7-2.7-3.7V223.1z"/>
	<path fill-rule="evenodd" clip-rule="evenodd" fill="#B4B5B5" d="M451,230.7v6.7c0,1.5-0.9,2.7-1.9,2.7h-2.3c-1,0-1.9-1.3-1.9-2.7
		v-6.7c0.4,0.3,0.8,0.4,1.2,0.4l3.9,0.1C450.2,231,450.6,230.9,451,230.7L451,230.7z"/>
	<path fill-rule="evenodd" clip-rule="evenodd" d="M449.7,239.8v4.6c0,1.4-0.8,2.6-1.8,2.6l0,0c-1,0-1.8-1.2-1.8-2.6v-4.6
		c0.1,0.1,0.4,0.3,0.6,0.3h2.3C449.3,240.1,449.6,239.9,449.7,239.8L449.7,239.8z"/>
	<rect x="804.4" y="118.7" fill-rule="evenodd" clip-rule="evenodd" fill="#EEEEEE" width="199.8" height="83.2"/>
	<rect x="804.4" y="118.7" fill-rule="evenodd" clip-rule="evenodd" fill="#FCEE18" width="199.8" height="5.7"/>
	<path fill-rule="evenodd" clip-rule="evenodd" d="M794.2,136.6h20.5c1.8,0,3.3,1.5,3.3,3.5l0,0c0,1.8-1.5,3.4-3.3,3.4h-20.5
		c-1.9,0-3.5-1.5-3.5-3.4l0,0C790.7,138.2,792.3,136.6,794.2,136.6L794.2,136.6z"/>
	<path fill-rule="evenodd" clip-rule="evenodd" d="M794.2,157h20.5c1.8,0,3.3,1.5,3.3,3.4l0,0c0,1.9-1.5,3.5-3.3,3.5h-20.5
		c-1.9,0-3.5-1.5-3.5-3.5l0,0C790.7,158.5,792.3,157,794.2,157L794.2,157z"/>
	<path fill-rule="evenodd" clip-rule="evenodd" d="M794.2,177.2h20.5c1.8,0,3.3,1.5,3.3,3.3l0,0c0,1.9-1.5,3.5-3.3,3.5h-20.5
		c-1.9,0-3.5-1.5-3.5-3.5l0,0C790.7,178.7,792.3,177.2,794.2,177.2L794.2,177.2z"/>
	<rect x="827" y="137.4" fill-rule="evenodd" clip-rule="evenodd" fill="#C8C9C9" width="167.4" height="5.2"/>
	<rect x="827" y="154.1" fill-rule="evenodd" clip-rule="evenodd" fill="#C8C9C9" width="167.4" height="5.2"/>
	<rect x="827" y="170.9" fill-rule="evenodd" clip-rule="evenodd" fill="#C8C9C9" width="167.4" height="5"/>
	<rect x="827" y="187.5" fill-rule="evenodd" clip-rule="evenodd" fill="#C8C9C9" width="167.4" height="5.2"/>
	<path fill-rule="evenodd" clip-rule="evenodd" fill="#C8C9C9" d="M985.5,98.6v7.2c0,1.2-0.9,2.1-1.9,2.1H847.9c-0.5,0-1-0.5-1-1
		v-9.3c0-0.6,0.5-1.2,1-1.2l135.7,0.1C984.6,96.5,985.5,97.4,985.5,98.6L985.5,98.6z"/>
	<path fill-rule="evenodd" clip-rule="evenodd" fill="#2B9DD8" d="M985.5,98.6v7.2c0,1.2-1.2,2.1-2.7,2.1h-20.9l0.1-11.3h20.7
		C984.3,96.5,985.5,97.4,985.5,98.6L985.5,98.6z"/>
	<path fill-rule="evenodd" clip-rule="evenodd" fill="#888889" d="M846.9,97.6v9.3h-4.3c-2.1,0-3.7-1.3-3.7-2.8v-3.7
		c0-1.5,1.7-2.7,3.7-2.7H846.9z"/>
	<path fill-rule="evenodd" clip-rule="evenodd" fill="#B4B5B5" d="M839.3,105.3h-6.7c-1.4,0-2.7-0.9-2.7-1.9V101
		c0-1.2,1.3-1.9,2.7-1.9h6.7c-0.3,0.3-0.4,0.8-0.4,1.2v3.7C838.9,104.5,839,104.9,839.3,105.3L839.3,105.3z"/>
	<path fill-rule="evenodd" clip-rule="evenodd" d="M830.1,104h-4.6c-1.4,0-2.4-0.8-2.4-1.8l0,0c0-1,1-1.9,2.4-1.9h4.6
		c-0.1,0.3-0.3,0.5-0.3,0.8v2.3C829.9,103.6,830,103.8,830.1,104L830.1,104z"/>
	<path fill-rule="evenodd" clip-rule="evenodd" fill="#4FA9B4" d="M1223.3,66.4h102.9c5.3,0,9.5,4.2,9.5,9.5v146.6
		c0,5.2-4.3,9.5-9.5,9.5h-102.9c-5.3,0-9.5-4.4-9.5-9.5V75.9C1213.8,70.6,1218,66.4,1223.3,66.4L1223.3,66.4z"/>
	<path fill-rule="evenodd" clip-rule="evenodd" fill="#3A7B7F" d="M1223.3,66.4h8.2v165.7h-8.2c-5.3,0-9.5-4.4-9.5-9.5V75.9
		C1213.8,70.6,1218,66.4,1223.3,66.4L1223.3,66.4z"/>
	<path fill-rule="evenodd" clip-rule="evenodd" fill="#DCDCDD" d="M1260.3,197.2h45.7c2.7,0,4.9,2.2,4.9,5v12.5c0,2.8-2.2,5-4.9,5
		h-45.7c-2.7,0-4.9-2.2-4.9-5v-12.5C1255.4,199.3,1257.6,197.2,1260.3,197.2L1260.3,197.2z"/>
	<path fill-rule="evenodd" clip-rule="evenodd" fill="#316767" d="M1335.8,133.4h-30.3c-5.7,0-10.2,4.6-10.2,10.3l0,0
		c0,5.5,4.5,10.2,10.2,10.2h30.3V133.4z"/>
	<path fill-rule="evenodd" clip-rule="evenodd" fill="#FCEE18" d="M1306.4,147.7c2.2,0,4-1.8,4-4c0-2.2-1.8-4.1-4-4.1s-4,1.9-4,4.1
		C1302.4,145.9,1304.2,147.7,1306.4,147.7L1306.4,147.7z"/>
	<path fill-rule="evenodd" clip-rule="evenodd" fill="#C8C9C9" d="M1200.3,67.9h7.2c1.2,0,2.1,0.9,2.1,2.1v135.5c0,0.5-0.5,1-1,1
		h-9.3c-0.6,0-1.2-0.5-1.2-1l0.1-135.5C1198.2,68.8,1199.1,67.9,1200.3,67.9L1200.3,67.9z"/>
	<path fill-rule="evenodd" clip-rule="evenodd" fill="#2B9DD8" d="M1200.3,67.9h7.2c1.2,0,2.1,1.3,2.1,2.8v20.7h-11.3V70.8
		C1198.2,69.2,1199.1,67.9,1200.3,67.9L1200.3,67.9z"/>
	<path fill-rule="evenodd" clip-rule="evenodd" fill="#888889" d="M1199.2,206.6h9.3v4.3c0,2.1-1.3,3.7-2.8,3.7h-3.7
		c-1.5,0-2.7-1.7-2.7-3.7V206.6z"/>
	<path fill-rule="evenodd" clip-rule="evenodd" fill="#B4B5B5" d="M1207,214.2v6.7c0,1.4-0.9,2.7-1.9,2.7h-2.3
		c-1.2,0-1.9-1.3-1.9-2.7v-6.7c0.4,0.3,0.8,0.4,1.2,0.4h3.7C1206.2,214.5,1206.6,214.4,1207,214.2L1207,214.2z"/>
	<path fill-rule="evenodd" clip-rule="evenodd" d="M1205.7,223.3v4.6c0,1.4-0.8,2.6-1.8,2.6l0,0c-1,0-1.9-1.2-1.9-2.6v-4.6
		c0.3,0.1,0.5,0.3,0.8,0.3h2.3C1205.3,223.6,1205.5,223.4,1205.7,223.3L1205.7,223.3z"/>
	<path fill-rule="evenodd" clip-rule="evenodd" fill="#FCEE18" d="M1196.3,423.9h121.4c4.5,0,8.1,3.7,8.1,8.2v121.4
		c0,4.5-3.6,8.1-8.1,8.1h-121.4c-4.5,0-8.2-3.6-8.2-8.1V432.1C1188,427.6,1191.8,423.9,1196.3,423.9L1196.3,423.9z"/>
	<path fill-rule="evenodd" clip-rule="evenodd" fill="#BCAC31" d="M1196.3,423.9h13.3v137.7h-13.3c-4.5,0-8.2-3.6-8.2-8.1V432.1
		C1188,427.6,1191.8,423.9,1196.3,423.9L1196.3,423.9z"/>
	<path fill-rule="evenodd" clip-rule="evenodd" fill="#FDF8C4" d="M1265.2,518.8c14.3,0,26-11.7,26-26c0-14.4-11.7-26.2-26-26.2
		c-14.4,0-26.2,11.7-26.2,26.2C1239,507.1,1250.8,518.8,1265.2,518.8L1265.2,518.8z"/>
	<path fill-rule="evenodd" clip-rule="evenodd" fill="#A09133" d="M1325.7,483.8h-30.1c-4.9,0-9,4-9,9l0,0c0,4.9,4.1,9,9,9h30.1
		V483.8z"/>
	<path fill-rule="evenodd" clip-rule="evenodd" fill="#C8C9C9" d="M1336.4,411.5h7.3c1.2,0,2.1,0.9,2.1,2.1v135.5c0,0.5-0.5,1-1,1
		h-9.4c-0.5,0-1-0.5-1-1V413.6C1334.4,412.4,1335.4,411.5,1336.4,411.5L1336.4,411.5z"/>
	<path fill-rule="evenodd" clip-rule="evenodd" fill="#2B9DD8" d="M1336.4,411.5h7.3c1.2,0,2.1,1.3,2.1,2.8v20.7h-11.5v-20.7
		C1334.4,412.8,1335.4,411.5,1336.4,411.5L1336.4,411.5z"/>
	<path fill-rule="evenodd" clip-rule="evenodd" fill="#888889" d="M1335.4,550.2h9.4v4.3c0,2.1-1.3,3.7-2.8,3.7h-3.7
		c-1.5,0-2.8-1.7-2.8-3.7V550.2z"/>
	<path fill-rule="evenodd" clip-rule="evenodd" fill="#B4B5B5" d="M1343.3,557.8v6.7c0,1.4-0.9,2.7-1.9,2.7h-2.3
		c-1.2,0-2.1-1.3-2.1-2.7v-6.7c0.4,0.3,0.9,0.4,1.3,0.4h3.7C1342.5,558.1,1342.9,558,1343.3,557.8L1343.3,557.8z"/>
	<path fill-rule="evenodd" clip-rule="evenodd" d="M1342,566.9v4.6c0,1.4-0.9,2.6-1.8,2.6l0,0c-1,0-1.9-1.2-1.9-2.6v-4.6
		c0.3,0.1,0.5,0.3,0.8,0.3h2.3C1341.5,567.2,1341.7,567,1342,566.9L1342,566.9z"/>
	<rect x="832.3" y="409.6" fill-rule="evenodd" clip-rule="evenodd" fill="#F4B1B2" width="130.2" height="187.4"/>
	<rect x="832.3" y="587.8" fill-rule="evenodd" clip-rule="evenodd" fill="#E3097E" width="130.2" height="9.3"/>
	<rect x="832.3" y="409.6" fill-rule="evenodd" clip-rule="evenodd" fill="#E3097E" width="130.2" height="25.5"/>
	<rect x="838.3" y="441.2" fill-rule="evenodd" clip-rule="evenodd" fill="#F7C8C7" width="118.4" height="139.9"/>
	<rect x="845.7" y="454.8" fill-rule="evenodd" clip-rule="evenodd" fill="#9E9E9E" width="103.5" height="5.2"/>
	<rect x="845.7" y="470.5" fill-rule="evenodd" clip-rule="evenodd" fill="#9E9E9E" width="103.5" height="5.2"/>
	<rect x="845.7" y="486.3" fill-rule="evenodd" clip-rule="evenodd" fill="#9E9E9E" width="103.5" height="5"/>
	<rect x="845.7" y="501.8" fill-rule="evenodd" clip-rule="evenodd" fill="#9E9E9E" width="103.5" height="5.2"/>
	<rect x="845.7" y="517.6" fill-rule="evenodd" clip-rule="evenodd" fill="#9E9E9E" width="103.5" height="5.2"/>
	<rect x="845.7" y="533.3" fill-rule="evenodd" clip-rule="evenodd" fill="#9E9E9E" width="103.5" height="5"/>
	<rect x="845.7" y="548.9" fill-rule="evenodd" clip-rule="evenodd" fill="#9E9E9E" width="103.5" height="5.2"/>
	<rect x="845.7" y="564.6" fill-rule="evenodd" clip-rule="evenodd" fill="#9E9E9E" width="103.5" height="5.2"/>
	<path fill-rule="evenodd" clip-rule="evenodd" fill="#C8C9C9" d="M978.8,390.5v7.3c0,1.2-1,2.1-2.1,2.1H841.1c-0.5,0-1-0.5-1-1
		v-9.4c0-0.5,0.5-1,1-1l135.7,0.1C977.8,388.6,978.8,389.5,978.8,390.5L978.8,390.5z"/>
	<path fill-rule="evenodd" clip-rule="evenodd" fill="#2B9DD8" d="M978.8,390.5v7.3c0,1.2-1.3,2.1-2.8,2.1h-20.7v-11.3H976
		C977.5,388.6,978.8,389.5,978.8,390.5L978.8,390.5z"/>
	<path fill-rule="evenodd" clip-rule="evenodd" fill="#888889" d="M840.1,389.6v9.3h-4.3c-2.1,0-3.7-1.3-3.7-2.8v-3.7
		c0-1.5,1.7-2.8,3.7-2.8L840.1,389.6z"/>
	<path fill-rule="evenodd" clip-rule="evenodd" fill="#B4B5B5" d="M832.5,397.4h-6.7c-1.4,0-2.7-0.9-2.7-1.9l0.1-2.3
		c0-1.2,1.2-1.9,2.6-1.9h6.7c-0.3,0.3-0.4,0.8-0.4,1.2v3.7C832.1,396.6,832.2,397,832.5,397.4L832.5,397.4z"/>
	<path fill-rule="evenodd" clip-rule="evenodd" d="M823.3,396.1h-4.6c-1.3,0-2.5-0.8-2.5-1.8l0,0c0-1,1.2-1.9,2.5-1.9h4.6
		c-0.1,0.3-0.1,0.5-0.1,0.8l-0.1,2.3C823.2,395.7,823.2,395.8,823.3,396.1L823.3,396.1z"/>
	<polygon fill-rule="evenodd" clip-rule="evenodd" fill="#DCDCDD" points="442.7,389.2 575,389.2 575,569.9 461.9,569.9 
		452.3,560.3 442.7,550.7 	"/>
	<polygon fill-rule="evenodd" clip-rule="evenodd" fill="#9E9E9E" points="461.9,569.9 452.3,560.3 442.7,550.7 461.9,550.7 	"/>
	<rect x="442.7" y="389.2" fill-rule="evenodd" clip-rule="evenodd" fill="#9E9E9E" width="132.3" height="22"/>
	<rect x="457.2" y="427" fill-rule="evenodd" clip-rule="evenodd" fill="#9E9E9E" width="103.5" height="5.2"/>
	<rect x="457.2" y="442.7" fill-rule="evenodd" clip-rule="evenodd" fill="#9E9E9E" width="103.5" height="5"/>
	<rect x="457.2" y="458.3" fill-rule="evenodd" clip-rule="evenodd" fill="#9E9E9E" width="103.5" height="5.2"/>
	<rect x="457.2" y="474" fill-rule="evenodd" clip-rule="evenodd" fill="#9E9E9E" width="103.5" height="5.2"/>
	<rect x="457.2" y="489.7" fill-rule="evenodd" clip-rule="evenodd" fill="#9E9E9E" width="103.5" height="5"/>
	<rect x="457.2" y="505.5" fill-rule="evenodd" clip-rule="evenodd" fill="#9E9E9E" width="103.5" height="5"/>
	<rect x="457.2" y="521" fill-rule="evenodd" clip-rule="evenodd" fill="#9E9E9E" width="103.5" height="5.2"/>
	<rect x="457.2" y="536.8" fill-rule="evenodd" clip-rule="evenodd" fill="#9E9E9E" width="103.5" height="5.2"/>
	<path fill-rule="evenodd" clip-rule="evenodd" fill="#C8C9C9" d="M590.1,587v7.3c0,1-0.9,1.9-2.1,1.9H452.5c-0.5,0-1-0.4-1-1V586
		c0-0.6,0.5-1,1-1h135.5C589.2,584.9,590.1,585.8,590.1,587L590.1,587z"/>
	<path fill-rule="evenodd" clip-rule="evenodd" fill="#2B9DD8" d="M590.1,587v7.3c0,1-1.3,1.9-2.8,1.9h-20.7v-11.3h20.7
		C588.8,584.9,590.1,585.8,590.1,587L590.1,587z"/>
	<path fill-rule="evenodd" clip-rule="evenodd" fill="#888889" d="M451.5,586v9.3h-4.3c-2.1,0-3.7-1.3-3.7-2.8v-3.7
		c0-1.5,1.7-2.7,3.7-2.7H451.5z"/>
	<path fill-rule="evenodd" clip-rule="evenodd" fill="#B4B5B5" d="M443.9,593.7h-6.7c-1.4,0-2.7-0.9-2.7-1.9v-2.3
		c0-1,1.3-1.9,2.7-1.9h6.7c-0.3,0.4-0.4,0.8-0.4,1.2v3.7C443.5,592.9,443.6,593.3,443.9,593.7L443.9,593.7z"/>
	<path fill-rule="evenodd" clip-rule="evenodd" d="M434.7,592.4h-4.6c-1.4,0-2.6-0.8-2.6-1.8l0,0c0-1,1.2-1.9,2.6-1.9h4.6
		c-0.1,0.3-0.3,0.5-0.3,0.8v2.3C434.5,592,434.6,592.3,434.7,592.4L434.7,592.4z"/>
	<path fill-rule="evenodd" clip-rule="evenodd" fill="#DCDCDD" d="M76.9,409.7h78.3V545c0,21.6-17.7,39.3-39.2,39.3l0,0
		c-21.6,0-39.2-17.7-39.2-39.3V409.7z"/>
	<rect x="76.9" y="409.7" fill-rule="evenodd" clip-rule="evenodd" fill="#009949" width="78.3" height="17.8"/>
	<path fill-rule="evenodd" clip-rule="evenodd" d="M88.3,401.4L88.3,401.4c1.2,0,2.2,0.9,2.2,2.2v12.4c0,1.3-1,2.3-2.2,2.3l0,0
		c-1.3,0-2.2-1-2.2-2.3v-12.4C86.1,402.3,87,401.4,88.3,401.4L88.3,401.4z"/>
	<path fill-rule="evenodd" clip-rule="evenodd" d="M99.4,401.4L99.4,401.4c1.2,0,2.2,0.9,2.2,2.2v12.4c0,1.3-1,2.3-2.2,2.3l0,0
		c-1.3,0-2.2-1-2.2-2.3v-12.4C97.2,402.3,98.1,401.4,99.4,401.4L99.4,401.4z"/>
	<path fill-rule="evenodd" clip-rule="evenodd" d="M110.5,401.4L110.5,401.4c1.2,0,2.2,0.9,2.2,2.2v12.4c0,1.3-1,2.3-2.2,2.3l0,0
		c-1.3,0-2.2-1-2.2-2.3v-12.4C108.3,402.3,109.2,401.4,110.5,401.4L110.5,401.4z"/>
	<path fill-rule="evenodd" clip-rule="evenodd" d="M121.6,401.4L121.6,401.4c1.2,0,2.2,0.9,2.2,2.2v12.4c0,1.3-1,2.3-2.2,2.3l0,0
		c-1.3,0-2.2-1-2.2-2.3v-12.4C119.4,402.3,120.3,401.4,121.6,401.4L121.6,401.4z"/>
	<path fill-rule="evenodd" clip-rule="evenodd" d="M132.6,401.4L132.6,401.4c1.2,0,2.2,0.9,2.2,2.2v12.4c0,1.3-1,2.3-2.2,2.3l0,0
		c-1.3,0-2.2-1-2.2-2.3v-12.4C130.4,402.3,131.4,401.4,132.6,401.4L132.6,401.4z"/>
	<path fill-rule="evenodd" clip-rule="evenodd" d="M143.7,401.4L143.7,401.4c1.2,0,2.2,0.9,2.2,2.2v12.4c0,1.3-1,2.3-2.2,2.3l0,0
		c-1.3,0-2.2-1-2.2-2.3v-12.4C141.5,402.3,142.4,401.4,143.7,401.4L143.7,401.4z"/>
	<rect x="83.8" y="436.1" fill-rule="evenodd" clip-rule="evenodd" fill="#9E9E9E" width="64.3" height="5.2"/>
	<rect x="83.8" y="448.4" fill-rule="evenodd" clip-rule="evenodd" fill="#9E9E9E" width="64.3" height="5.2"/>
	<rect x="83.8" y="460.7" fill-rule="evenodd" clip-rule="evenodd" fill="#9E9E9E" width="64.3" height="5"/>
	<rect x="83.8" y="473" fill-rule="evenodd" clip-rule="evenodd" fill="#9E9E9E" width="64.3" height="5.2"/>
	<rect x="83.8" y="485.2" fill-rule="evenodd" clip-rule="evenodd" fill="#9E9E9E" width="64.3" height="5.2"/>
	<rect x="83.8" y="497.5" fill-rule="evenodd" clip-rule="evenodd" fill="#9E9E9E" width="64.3" height="5.2"/>
	<rect x="83.8" y="509.8" fill-rule="evenodd" clip-rule="evenodd" fill="#9E9E9E" width="64.3" height="5"/>
	<rect x="83.8" y="522.1" fill-rule="evenodd" clip-rule="evenodd" fill="#9E9E9E" width="64.3" height="5.2"/>
	<rect x="83.8" y="534.3" fill-rule="evenodd" clip-rule="evenodd" fill="#9E9E9E" width="64.3" height="5.2"/>
	<rect x="83.8" y="546.5" fill-rule="evenodd" clip-rule="evenodd" fill="#9E9E9E" width="64.3" height="5.2"/>
	<path fill-rule="evenodd" clip-rule="evenodd" fill="#C8C9C9" d="M192.5,415.7h7.3c1.2,0,2.1,1,2.1,2.1v135.7c0,0.5-0.5,1-1,1h-9.4
		c-0.5,0-1-0.5-1-1V417.7C190.5,416.7,191.4,415.7,192.5,415.7L192.5,415.7z"/>
	<path fill-rule="evenodd" clip-rule="evenodd" fill="#2B9DD8" d="M192.5,415.7h7.3c1.2,0,2.1,1.3,2.1,2.8v20.7h-11.5v-20.7
		C190.5,416.9,191.4,415.7,192.5,415.7L192.5,415.7z"/>
	<path fill-rule="evenodd" clip-rule="evenodd" fill="#888889" d="M191.5,554.4h9.4v4.3c0,2.1-1.3,3.7-2.8,3.7h-3.7
		c-1.5,0-2.8-1.7-2.8-3.7V554.4z"/>
	<path fill-rule="evenodd" clip-rule="evenodd" fill="#B4B5B5" d="M199.2,562v6.7c0,1.4-0.8,2.7-1.9,2.7l-2.3-0.1
		c-1,0-1.9-1.2-1.9-2.6V562c0.4,0.3,0.8,0.4,1.3,0.4h3.7C198.5,562.4,199,562.3,199.2,562L199.2,562z"/>
	<path fill-rule="evenodd" clip-rule="evenodd" d="M198.1,571.2v4.6c0,1.3-0.9,2.5-1.9,2.5l0,0c-1,0-1.8-1.2-1.8-2.5v-4.6
		c0.3,0.1,0.4,0.1,0.6,0.1l2.3,0.1C197.6,571.3,197.8,571.3,198.1,571.2L198.1,571.2z"/>
	<path fill-rule="evenodd" clip-rule="evenodd" fill="#EE8322" d="M198.3,940.3H61.7V755.6c0-6.2,5-11.2,11.1-11.2h114.4
		c6.2,0,11.2,5,11.2,11.2V940.3z"/>
	<rect x="65.4" y="784.2" fill-rule="evenodd" clip-rule="evenodd" fill="#F5AE5E" width="129.2" height="152.3"/>
	<path fill-rule="evenodd" clip-rule="evenodd" fill="#D07028" d="M65.4,780.6v-25c0-4.1,3.4-7.5,7.3-7.5h114.4
		c4.1,0,7.5,3.4,7.5,7.5v25H65.4z"/>
	<rect x="65.4" y="775.4" fill-rule="evenodd" clip-rule="evenodd" fill="#B56027" width="129.2" height="5.3"/>
	<path fill-rule="evenodd" clip-rule="evenodd" d="M86.5,732.5L86.5,732.5c1.4,0,2.4,1.2,2.4,2.4v21.4c0,1.3-1,2.4-2.4,2.4l0,0
		c-1.3,0-2.4-1.2-2.4-2.4v-21.4C84.1,733.6,85.2,732.5,86.5,732.5L86.5,732.5z"/>
	<path fill-rule="evenodd" clip-rule="evenodd" d="M103.9,732.5L103.9,732.5c1.4,0,2.4,1.2,2.4,2.4v21.4c0,1.3-1,2.4-2.4,2.4l0,0
		c-1.3,0-2.4-1.2-2.4-2.4v-21.4C101.5,733.6,102.6,732.5,103.9,732.5L103.9,732.5z"/>
	<path fill-rule="evenodd" clip-rule="evenodd" d="M121.3,732.5L121.3,732.5c1.3,0,2.4,1.2,2.4,2.4v21.4c0,1.3-1.2,2.4-2.4,2.4l0,0
		c-1.3,0-2.4-1.2-2.4-2.4v-21.4C118.9,733.6,120,732.5,121.3,732.5L121.3,732.5z"/>
	<path fill-rule="evenodd" clip-rule="evenodd" d="M138.7,732.5L138.7,732.5c1.3,0,2.4,1.2,2.4,2.4v21.4c0,1.3-1.2,2.4-2.4,2.4l0,0
		c-1.4,0-2.4-1.2-2.4-2.4v-21.4C136.2,733.6,137.3,732.5,138.7,732.5L138.7,732.5z"/>
	<path fill-rule="evenodd" clip-rule="evenodd" d="M156.1,732.5L156.1,732.5c1.3,0,2.4,1.2,2.4,2.4v21.4c0,1.3-1.2,2.4-2.4,2.4l0,0
		c-1.4,0-2.4-1.2-2.4-2.4v-21.4C153.6,733.6,154.7,732.5,156.1,732.5L156.1,732.5z"/>
	<path fill-rule="evenodd" clip-rule="evenodd" d="M173.3,732.5L173.3,732.5c1.4,0,2.4,1.2,2.4,2.4v21.4c0,1.3-1,2.4-2.4,2.4l0,0
		c-1.3,0-2.4-1.2-2.4-2.4v-21.4C170.9,733.6,172.1,732.5,173.3,732.5L173.3,732.5z"/>
	<path fill-rule="evenodd" clip-rule="evenodd" fill="#C8C9C9" d="M207.7,755.1h7.3c1,0,2.1,0.9,2.1,2.1L217,892.7c0,0.5-0.4,1-1,1
		h-9.3c-0.6,0-1-0.5-1-1V757.2C205.7,756,206.6,755.1,207.7,755.1L207.7,755.1z"/>
	<path fill-rule="evenodd" clip-rule="evenodd" fill="#2B9DD8" d="M207.7,755.1h7.3c1,0,2.1,1.3,2.1,2.8v20.7h-11.5V758
		C205.7,756.4,206.6,755.1,207.7,755.1L207.7,755.1z"/>
	<path fill-rule="evenodd" clip-rule="evenodd" fill="#888889" d="M206.7,893.7h9.3v4.3c0,2.1-1.3,3.7-2.7,3.7h-3.9
		c-1.4,0-2.7-1.7-2.7-3.7V893.7z"/>
	<path fill-rule="evenodd" clip-rule="evenodd" fill="#B4B5B5" d="M214.4,901.4v6.7c0,1.4-0.9,2.7-1.9,2.7h-2.3
		c-1,0-1.9-1.3-1.9-2.7v-6.7c0.4,0.3,0.8,0.4,1.2,0.4h3.9C213.7,901.7,214.1,901.6,214.4,901.4L214.4,901.4z"/>
	<path fill-rule="evenodd" clip-rule="evenodd" d="M213.2,910.5v4.6c0,1.4-0.8,2.6-1.8,2.6l0,0c-1,0-1.9-1.2-1.9-2.6l0.1-4.6
		c0.1,0.1,0.4,0.3,0.6,0.3h2.3C212.8,910.8,213,910.6,213.2,910.5L213.2,910.5z"/>
	<path fill-rule="evenodd" clip-rule="evenodd" fill="#EEEEEE" d="M420.2,915.9h99.3c32.6,0,59.4-26.8,59.4-59.4v-62.1H420.2V915.9z
		"/>
	<path fill-rule="evenodd" clip-rule="evenodd" fill="#5CC1CF" d="M420.2,794.4v-19.6c0-3.1,2.6-5.8,5.8-5.8h147.1
		c3.1,0,5.8,2.7,5.8,5.8v19.6H420.2z"/>
	<rect x="420.2" y="790.2" fill-rule="evenodd" clip-rule="evenodd" fill="#458E92" width="158.7" height="4.3"/>
	<path fill-rule="evenodd" clip-rule="evenodd" d="M435.3,756.9L435.3,756.9c1,0,1.8,0.8,1.8,1.9v16.5c0,1.2-0.8,1.9-1.8,1.9l0,0
		c-1.2,0-1.9-0.8-1.9-1.9v-16.5C433.3,757.7,434.1,756.9,435.3,756.9L435.3,756.9z"/>
	<path fill-rule="evenodd" clip-rule="evenodd" d="M453.6,756.9L453.6,756.9c1,0,1.9,0.8,1.9,1.9v16.5c0,1.2-0.9,1.9-1.9,1.9l0,0
		c-1,0-1.9-0.8-1.9-1.9v-16.5C451.6,757.7,452.5,756.9,453.6,756.9L453.6,756.9z"/>
	<path fill-rule="evenodd" clip-rule="evenodd" d="M472,756.9L472,756.9c1,0,1.9,0.8,1.9,1.9v16.5c0,1.2-0.9,1.9-1.9,1.9l0,0
		c-1,0-1.9-0.8-1.9-1.9v-16.5C470,757.7,471,756.9,472,756.9L472,756.9z"/>
	<path fill-rule="evenodd" clip-rule="evenodd" d="M490.3,756.9L490.3,756.9c1.2,0,1.9,0.8,1.9,1.9v16.5c0,1.2-0.8,1.9-1.9,1.9l0,0
		c-1,0-1.8-0.8-1.8-1.9v-16.5C488.5,757.7,489.2,756.9,490.3,756.9L490.3,756.9z"/>
	<path fill-rule="evenodd" clip-rule="evenodd" d="M508.7,756.9L508.7,756.9c1,0,1.9,0.8,1.9,1.9v16.5c0,1.2-0.9,1.9-1.9,1.9l0,0
		c-1,0-1.9-0.8-1.9-1.9v-16.5C506.8,757.7,507.7,756.9,508.7,756.9L508.7,756.9z"/>
	<path fill-rule="evenodd" clip-rule="evenodd" d="M527.1,756.9L527.1,756.9c1,0,1.9,0.8,1.9,1.9v16.5c0,1.2-0.9,1.9-1.9,1.9l0,0
		c-1,0-1.9-0.8-1.9-1.9v-16.5C525.2,757.7,526.1,756.9,527.1,756.9L527.1,756.9z"/>
	<path fill-rule="evenodd" clip-rule="evenodd" d="M545.4,756.9L545.4,756.9c1.2,0,1.9,0.8,1.9,1.9v16.5c0,1.2-0.8,1.9-1.9,1.9l0,0
		c-1,0-1.8-0.8-1.8-1.9v-16.5C543.6,757.7,544.4,756.9,545.4,756.9L545.4,756.9z"/>
	<path fill-rule="evenodd" clip-rule="evenodd" d="M563.8,756.9L563.8,756.9c1,0,1.9,0.8,1.9,1.9v16.5c0,1.2-0.9,1.9-1.9,1.9l0,0
		c-1,0-1.9-0.8-1.9-1.9v-16.5C561.9,757.7,562.8,756.9,563.8,756.9L563.8,756.9z"/>
	<rect x="436.7" y="804.6" fill-rule="evenodd" clip-rule="evenodd" fill="#B4B5B5" width="125.6" height="3.1"/>
	<rect x="436.7" y="813.4" fill-rule="evenodd" clip-rule="evenodd" fill="#B4B5B5" width="125.6" height="3.1"/>
	<rect x="436.7" y="822.1" fill-rule="evenodd" clip-rule="evenodd" fill="#B4B5B5" width="125.6" height="3.2"/>
	<rect x="436.7" y="831" fill-rule="evenodd" clip-rule="evenodd" fill="#B4B5B5" width="125.6" height="3.1"/>
	<rect x="436.7" y="839.8" fill-rule="evenodd" clip-rule="evenodd" fill="#B4B5B5" width="125.6" height="3.1"/>
	<rect x="436.7" y="848.5" fill-rule="evenodd" clip-rule="evenodd" fill="#B4B5B5" width="125.6" height="3.1"/>
	<rect x="436.7" y="857.3" fill-rule="evenodd" clip-rule="evenodd" fill="#B4B5B5" width="125.6" height="3.2"/>
	<rect x="436.7" y="866.1" fill-rule="evenodd" clip-rule="evenodd" fill="#B4B5B5" width="125.6" height="3.2"/>
	<rect x="436.7" y="874.9" fill-rule="evenodd" clip-rule="evenodd" fill="#B4B5B5" width="125.6" height="3.1"/>
	<path fill-rule="evenodd" clip-rule="evenodd" fill="#C8C9C9" d="M597.6,895.8v7.3c0,1-1,2.1-2.1,2.1l-135.7-0.1c-0.5,0-1-0.4-1-1
		v-9.3c0-0.6,0.5-1,1-1h135.7C596.6,893.7,597.6,894.6,597.6,895.8L597.6,895.8z"/>
	<path fill-rule="evenodd" clip-rule="evenodd" fill="#2B9DD8" d="M597.6,895.8v7.3c0,1-1.3,2.1-2.8,2.1H574v-11.5h20.7
		C596.3,893.7,597.6,894.6,597.6,895.8L597.6,895.8z"/>
	<path fill-rule="evenodd" clip-rule="evenodd" fill="#888889" d="M458.8,894.8v9.3h-4.1c-2.2,0-3.9-1.3-3.9-2.7v-3.9
		c0-1.4,1.7-2.7,3.9-2.7H458.8z"/>
	<path fill-rule="evenodd" clip-rule="evenodd" fill="#B4B5B5" d="M451.2,902.5h-6.7c-1.4,0-2.6-0.9-2.6-1.9v-2.3
		c0-1,1.2-1.9,2.6-1.9h6.7c-0.3,0.4-0.4,0.8-0.4,1.2v3.9C450.9,901.7,451,902.1,451.2,902.5L451.2,902.5z"/>
	<path fill-rule="evenodd" clip-rule="evenodd" d="M442.1,901.2h-4.5c-1.4,0-2.6-0.8-2.6-1.8l0,0c0-1,1.2-1.8,2.6-1.8h4.5
		c-0.1,0.1-0.1,0.4-0.1,0.6v2.3C442,900.8,442,901.1,442.1,901.2L442.1,901.2z"/>
	<path fill-rule="evenodd" clip-rule="evenodd" fill="#EE8322" d="M842,887h-25c-4.1,0-7.5-3.4-7.5-7.3V765.3c0-4.1,3.3-7.5,7.5-7.5
		h25V887z"/>
	<rect x="836.7" y="757.8" fill-rule="evenodd" clip-rule="evenodd" fill="#B56027" width="5.3" height="129.2"/>
	<path fill-rule="evenodd" clip-rule="evenodd" d="M793.9,865.9L793.9,865.9c0-1.4,1-2.4,2.4-2.4h21.3c1.4,0,2.4,1,2.4,2.4l0,0
		c0,1.3-1,2.5-2.4,2.5h-21.3C795,868.4,793.9,867.2,793.9,865.9L793.9,865.9z"/>
	<path fill-rule="evenodd" clip-rule="evenodd" d="M793.9,848.5L793.9,848.5c0-1.3,1-2.4,2.4-2.4h21.3c1.4,0,2.4,1.2,2.4,2.4l0,0
		c0,1.4-1,2.4-2.4,2.4h-21.3C795,851,793.9,849.9,793.9,848.5L793.9,848.5z"/>
	<path fill-rule="evenodd" clip-rule="evenodd" d="M793.9,831.1L793.9,831.1c0-1.3,1-2.4,2.4-2.4h21.3c1.4,0,2.4,1.2,2.4,2.4l0,0
		c0,1.4-1,2.5-2.4,2.5h-21.3C795,833.6,793.9,832.6,793.9,831.1L793.9,831.1z"/>
	<path fill-rule="evenodd" clip-rule="evenodd" d="M793.9,813.9L793.9,813.9c0-1.4,1-2.5,2.4-2.5h21.3c1.4,0,2.4,1,2.4,2.5l0,0
		c0,1.3-1,2.4-2.4,2.4h-21.3C795,816.3,793.9,815.2,793.9,813.9L793.9,813.9z"/>
	<path fill-rule="evenodd" clip-rule="evenodd" d="M793.9,796.5L793.9,796.5c0-1.4,1-2.4,2.4-2.4h21.3c1.4,0,2.4,1,2.4,2.4l0,0
		c0,1.3-1,2.4-2.4,2.4h-21.3C795,798.9,793.9,797.8,793.9,796.5L793.9,796.5z"/>
	<path fill-rule="evenodd" clip-rule="evenodd" d="M793.9,779.1L793.9,779.1c0-1.3,1-2.4,2.4-2.4h21.3c1.4,0,2.4,1.2,2.4,2.4l0,0
		c0,1.3-1,2.5-2.4,2.5h-21.3C795,781.5,793.9,780.4,793.9,779.1L793.9,779.1z"/>
	<path fill-rule="evenodd" clip-rule="evenodd" fill="#EEEEEE" d="M842,887V757.8h149.7c5.2,0,9.3,4.3,9.3,9.4v110.5
		c0,5.2-4.1,9.3-9.3,9.3H842z"/>
	<rect x="858.7" y="771.1" fill-rule="evenodd" clip-rule="evenodd" fill="#B4B5B5" width="125.6" height="3.1"/>
	<rect x="858.7" y="782.3" fill-rule="evenodd" clip-rule="evenodd" fill="#B4B5B5" width="125.6" height="3.1"/>
	<rect x="858.7" y="793.5" fill-rule="evenodd" clip-rule="evenodd" fill="#B4B5B5" width="125.6" height="3.1"/>
	<rect x="858.7" y="804.6" fill-rule="evenodd" clip-rule="evenodd" fill="#B4B5B5" width="125.6" height="3.2"/>
	<rect x="858.7" y="815.8" fill-rule="evenodd" clip-rule="evenodd" fill="#B4B5B5" width="125.6" height="3.1"/>
	<rect x="858.7" y="827" fill-rule="evenodd" clip-rule="evenodd" fill="#B4B5B5" width="125.6" height="3.1"/>
	<rect x="858.7" y="838.1" fill-rule="evenodd" clip-rule="evenodd" fill="#B4B5B5" width="125.6" height="3.2"/>
	<rect x="858.7" y="849.3" fill-rule="evenodd" clip-rule="evenodd" fill="#B4B5B5" width="125.6" height="3.2"/>
	<rect x="858.7" y="860.5" fill-rule="evenodd" clip-rule="evenodd" fill="#B4B5B5" width="125.6" height="3.1"/>
	<rect x="858.7" y="871.7" fill-rule="evenodd" clip-rule="evenodd" fill="#B4B5B5" width="125.6" height="3.1"/>
	<path fill-rule="evenodd" clip-rule="evenodd" fill="#C8C9C9" d="M978.8,905.5v7.3c0,1.2-1,2.1-2.1,2.1H841.1c-0.5,0-1-0.5-1-1
		v-9.4c0-0.5,0.5-1,1-1h135.7C977.8,903.4,978.8,904.3,978.8,905.5L978.8,905.5z"/>
	<path fill-rule="evenodd" clip-rule="evenodd" fill="#2B9DD8" d="M978.8,905.5v7.3c0,1.2-1.3,2.1-2.8,2.1h-20.7v-11.5H976
		C977.5,903.4,978.8,904.3,978.8,905.5L978.8,905.5z"/>
	<path fill-rule="evenodd" clip-rule="evenodd" fill="#888889" d="M840.1,904.4v9.4h-4.3c-2.1,0-3.7-1.3-3.7-2.8v-3.7
		c0-1.5,1.7-2.8,3.7-2.8H840.1z"/>
	<path fill-rule="evenodd" clip-rule="evenodd" fill="#B4B5B5" d="M832.5,912.2h-6.7c-1.4,0-2.7-0.8-2.7-1.9l0.1-2.3
		c0-1,1.2-1.9,2.6-1.9h6.7c-0.3,0.4-0.4,0.8-0.4,1.3v3.7C832.1,911.4,832.2,911.9,832.5,912.2L832.5,912.2z"/>
	<path fill-rule="evenodd" clip-rule="evenodd" d="M823.3,911h-4.6c-1.3,0-2.5-0.9-2.5-1.9l0,0c0-1,1.2-1.8,2.5-1.8h4.6
		c-0.1,0.3-0.1,0.4-0.1,0.6l-0.1,2.3C823.2,910.5,823.2,910.8,823.3,911L823.3,911z"/>
	<path fill-rule="evenodd" clip-rule="evenodd" fill="#A0D8F5" d="M1225.5,773.2h85c11.7,0,21.3,9.5,21.3,21.3v126h-106.3V773.2z"/>
	<rect x="1225.5" y="773.2" fill-rule="evenodd" clip-rule="evenodd" fill="#739BAA" width="18" height="147.3"/>
	<path fill-rule="evenodd" clip-rule="evenodd" fill="#63848F" d="M1331.8,842.2h-37c-4.4,0-8,3.6-8,8l0,0c0,4.4,3.6,8,8,8h37V842.2
		z"/>
	<path fill-rule="evenodd" clip-rule="evenodd" fill="#739BAA" d="M1310.3,805.9c5.7,0,10.3-4.6,10.3-10.3c0-5.5-4.6-10.2-10.3-10.2
		c-5.5,0-10.2,4.6-10.2,10.2C1300.1,801.2,1304.7,805.9,1310.3,805.9L1310.3,805.9z"/>
	<path fill-rule="evenodd" clip-rule="evenodd" fill="#C8C9C9" d="M1204.1,752.3h7.3c1.2,0,2.1,1,2.1,2.1V890c0,0.5-0.5,1-1.2,1
		h-9.3c-0.5,0-1-0.5-1-1V754.4C1202.1,753.3,1203,752.3,1204.1,752.3L1204.1,752.3z"/>
	<path fill-rule="evenodd" clip-rule="evenodd" fill="#2B9DD8" d="M1204.1,752.3h7.3c1.2,0,2.1,1.3,2.1,2.8v20.7h-11.5v-20.7
		C1202.1,753.6,1203,752.3,1204.1,752.3L1204.1,752.3z"/>
	<path fill-rule="evenodd" clip-rule="evenodd" fill="#888889" d="M1203.1,891h9.3v4.3c0,2.1-1.2,3.7-2.7,3.7h-3.7
		c-1.5,0-2.8-1.7-2.8-3.9V891z"/>
	<path fill-rule="evenodd" clip-rule="evenodd" fill="#B4B5B5" d="M1210.8,898.6v6.7c0,1.4-0.8,2.6-1.9,2.6h-2.3
		c-1,0-1.9-1.2-1.9-2.6v-6.7c0.4,0.3,0.8,0.4,1.3,0.4h3.7C1210.1,899,1210.4,898.9,1210.8,898.6L1210.8,898.6z"/>
	<path fill-rule="evenodd" clip-rule="evenodd" d="M1209.7,907.8v4.6c0,1.3-0.9,2.5-1.9,2.5l0,0c-1,0-1.8-1.2-1.8-2.5v-4.6
		c0.1,0.1,0.4,0.1,0.6,0.1h2.3C1209.2,907.9,1209.4,907.9,1209.7,907.8L1209.7,907.8z"/>
</g>
</svg>
