<?xml version="1.0" encoding="utf-8"?>
<!-- Generator: Adobe Illustrator 19.2.0, SVG Export Plug-In . SVG Version: 6.00 Build 0)  -->
<svg version="1.1" id="items" xmlns="http://www.w3.org/2000/svg" xmlns:xlink="http://www.w3.org/1999/xlink" x="0px" y="0px"
	 viewBox="0 0 335.99 235.19" style="enable-background:new 0 0 335.99 235.19;" xml:space="preserve">
<style type="text/css">
	.st0{fill:#EDEDED;}
	.st1{fill:#B2E1EE;}
	.st2{fill:#FFFFFF;}
	.st3{fill:#3D454A;}
	.st4{fill:#F69777;}
	.st5{fill:#FAB952;}
	.st6{fill:#586773;}
	.st7{fill:#D2CFD6;}
	.st8{fill:#BCB8BE;}
	.st9{fill:none;}
	.st10{fill:#FFD55C;}
</style>
<rect id="background" class="st0" width="335.99" height="235.19"/>
<g id="pencils">
	<g>
		<polygon class="st0" points="50.95,34.91 47.7,24 46.92,26.61 46.92,26.61 44.44,34.91 44.45,34.91 44.45,143.07 47.66,143.07 
			47.66,143.07 47.68,143.07 50.95,143.08 		"/>
		<polygon class="st0" points="37.21,26.61 37.21,26.61 34.73,34.91 34.73,34.91 34.73,143.07 37.95,143.07 37.95,143.07 
			37.97,143.07 41.24,143.08 41.24,34.91 37.99,24 		"/>
		<polygon class="st0" points="27.18,26.61 27.18,26.61 24.7,34.91 24.71,34.91 24.71,143.07 27.92,143.07 27.92,143.07 
			27.94,143.07 31.21,143.08 31.21,34.91 27.96,24 		"/>
		<polygon class="st0" points="17.15,26.61 17.15,26.61 14.68,34.91 14.68,34.91 14.68,143.07 17.9,143.07 17.9,143.07 
			17.91,143.07 21.18,143.08 21.18,34.91 17.93,24 		"/>
	</g>
	<g>
		<g>
			<path class="st1" d="M48.77,34.91c0-0.05-0.03-0.09-0.07-0.11c-0.05-0.02-0.1-0.01-0.13,0.03c-0.48,0.48-1.27,0.48-1.75,0v0
				c-0.05-0.06-0.13-0.09-0.21-0.09c-0.08,0-0.15,0.03-0.21,0.09l0,0c-0.23,0.23-0.55,0.36-0.87,0.36c-0.33,0-0.64-0.13-0.88-0.36h0
				c-0.06-0.06-0.13-0.09-0.21-0.09c-0.08,0-0.15,0.03-0.21,0.09l0,0c-0.48,0.48-1.27,0.48-1.75,0l0,0
				c-0.03-0.04-0.09-0.05-0.13-0.03c-0.05,0.02-0.08,0.06-0.08,0.11v108.16l6.5,0V34.91z"/>
			<g>
				<path class="st2" d="M42.27,34.91L42.27,34.91L42.27,34.91c0-0.05,0.03-0.1,0.08-0.12c0.05-0.02,0.1-0.01,0.13,0.03
					c0.48,0.49,1.27,0.48,1.75,0l0,0c0.05-0.06,0.13-0.09,0.21-0.09c0.08,0,0.15,0.03,0.21,0.09h0c0.23,0.23,0.55,0.36,0.88,0.36
					c0.33,0,0.64-0.13,0.87-0.36l0,0c0.06-0.06,0.13-0.09,0.21-0.09c0.08,0,0.15,0.03,0.21,0.09v0c0.49,0.48,1.27,0.48,1.75,0
					c0.03-0.04,0.09-0.05,0.13-0.03c0.05,0.02,0.08,0.06,0.07,0.11L45.52,24L42.27,34.91z"/>
			</g>
			<path class="st3" d="M46.3,26.61L45.52,24l-0.78,2.61c0.25,0.07,0.51,0.12,0.78,0.11C45.79,26.72,46.05,26.68,46.3,26.61z"/>
			<path class="st0" d="M45.48,35.18c0.33,0,0.64-0.13,0.87-0.36h0c0.06-0.06,0.13-0.09,0.21-0.09c0.08,0,0.15,0.03,0.21,0.09l0,0
				c0.48,0.48,1.27,0.48,1.75,0c0.04-0.04,0.09-0.05,0.13-0.03c0.05,0.02,0.08,0.06,0.08,0.11v108.16l-3.25,0V35.18z"/>
		</g>
		<g>
			<path class="st4" d="M39.06,34.91c0-0.05-0.03-0.09-0.07-0.11c-0.05-0.02-0.1-0.01-0.13,0.03c-0.48,0.48-1.27,0.48-1.75,0l0,0
				c-0.05-0.06-0.13-0.09-0.21-0.09c-0.08,0-0.15,0.03-0.21,0.09l0,0c-0.23,0.23-0.55,0.36-0.87,0.36c-0.33,0-0.64-0.13-0.87-0.36h0
				c-0.06-0.06-0.13-0.09-0.21-0.09c-0.08,0-0.15,0.03-0.21,0.09l0,0c-0.48,0.48-1.27,0.48-1.75,0l0,0
				c-0.04-0.04-0.09-0.05-0.13-0.03c-0.05,0.02-0.08,0.06-0.08,0.11v108.16l6.5,0V34.91z"/>
			<g>
				<path class="st2" d="M32.55,34.91L32.55,34.91L32.55,34.91c0-0.05,0.03-0.1,0.08-0.12c0.05-0.02,0.1-0.01,0.13,0.03
					c0.48,0.49,1.27,0.48,1.75,0l0,0c0.05-0.06,0.13-0.09,0.21-0.09c0.08,0,0.15,0.03,0.21,0.09h0c0.23,0.23,0.55,0.36,0.87,0.36
					c0.33,0,0.64-0.13,0.87-0.36l0,0c0.06-0.06,0.13-0.09,0.21-0.09c0.08,0,0.15,0.03,0.21,0.09l0,0c0.48,0.48,1.27,0.48,1.75,0
					c0.03-0.04,0.09-0.05,0.13-0.03c0.05,0.02,0.08,0.06,0.07,0.11L35.81,24L32.55,34.91z"/>
			</g>
			<path class="st3" d="M36.58,26.61L35.81,24l-0.78,2.61c0.25,0.07,0.51,0.12,0.78,0.11C36.08,26.72,36.34,26.68,36.58,26.61z"/>
			<path class="st0" d="M35.77,35.18c0.33,0,0.64-0.13,0.87-0.36h0c0.06-0.06,0.13-0.09,0.21-0.09c0.08,0,0.15,0.03,0.21,0.09l0,0
				c0.48,0.48,1.27,0.48,1.75,0c0.04-0.04,0.09-0.05,0.13-0.03c0.05,0.02,0.08,0.06,0.08,0.11v108.16l-3.25,0V35.18z"/>
		</g>
		<g>
			<path class="st5" d="M29.03,34.91c0-0.05-0.03-0.09-0.07-0.11c-0.05-0.02-0.1-0.01-0.13,0.03c-0.48,0.48-1.27,0.48-1.75,0l0,0
				c-0.05-0.06-0.13-0.09-0.21-0.09c-0.08,0-0.15,0.03-0.21,0.09l0,0c-0.23,0.23-0.55,0.36-0.87,0.36c-0.33,0-0.64-0.13-0.88-0.36h0
				c-0.06-0.06-0.13-0.09-0.21-0.09c-0.08,0-0.15,0.03-0.21,0.09l0,0c-0.48,0.48-1.27,0.48-1.75,0l0,0
				c-0.04-0.04-0.09-0.05-0.13-0.03c-0.05,0.02-0.08,0.06-0.08,0.11v108.16l6.5,0V34.91z"/>
			<g>
				<path class="st2" d="M22.53,34.91L22.53,34.91L22.53,34.91c0-0.05,0.03-0.1,0.08-0.12c0.05-0.02,0.1-0.01,0.13,0.03
					c0.48,0.49,1.27,0.48,1.75,0l0,0c0.06-0.06,0.13-0.09,0.21-0.09c0.08,0,0.15,0.03,0.21,0.09h0c0.23,0.23,0.55,0.36,0.88,0.36
					c0.33,0,0.64-0.13,0.87-0.36l0,0c0.06-0.06,0.13-0.09,0.21-0.09c0.08,0,0.15,0.03,0.21,0.09l0,0c0.48,0.48,1.27,0.48,1.75,0
					c0.03-0.04,0.09-0.05,0.13-0.03c0.05,0.02,0.08,0.06,0.07,0.11L25.78,24L22.53,34.91z"/>
			</g>
			<path class="st3" d="M26.56,26.61L25.78,24L25,26.61c0.25,0.07,0.51,0.12,0.78,0.11C26.05,26.72,26.31,26.68,26.56,26.61z"/>
			<path class="st0" d="M25.74,35.18c0.33,0,0.64-0.13,0.87-0.36h0c0.06-0.06,0.13-0.09,0.21-0.09c0.08,0,0.15,0.03,0.21,0.09l0,0
				c0.48,0.48,1.27,0.48,1.75,0c0.04-0.04,0.09-0.05,0.13-0.03c0.05,0.02,0.08,0.06,0.08,0.11v108.16l-3.25,0V35.18z"/>
		</g>
		<g>
			<path class="st6" d="M19.01,34.91c0-0.05-0.03-0.09-0.07-0.11c-0.05-0.02-0.1-0.01-0.13,0.03c-0.48,0.48-1.27,0.48-1.75,0l0,0
				c-0.05-0.06-0.13-0.09-0.21-0.09c-0.08,0-0.15,0.03-0.21,0.09l0,0c-0.23,0.23-0.55,0.36-0.87,0.36c-0.33,0-0.64-0.13-0.87-0.36h0
				c-0.06-0.06-0.13-0.09-0.21-0.09c-0.08,0-0.15,0.03-0.21,0.09l0,0c-0.48,0.48-1.27,0.48-1.75,0l0,0
				c-0.04-0.04-0.09-0.05-0.13-0.03c-0.05,0.02-0.08,0.06-0.08,0.11v108.16l6.5,0V34.91z"/>
			<g>
				<path class="st2" d="M12.5,34.91L12.5,34.91L12.5,34.91c0-0.05,0.03-0.1,0.08-0.12c0.05-0.02,0.1-0.01,0.13,0.03
					c0.48,0.49,1.27,0.48,1.75,0l0,0c0.06-0.06,0.13-0.09,0.21-0.09c0.08,0,0.15,0.03,0.21,0.09h0c0.23,0.23,0.55,0.36,0.87,0.36
					c0.33,0,0.64-0.13,0.87-0.36l0,0c0.06-0.06,0.13-0.09,0.21-0.09c0.08,0,0.15,0.03,0.21,0.09l0,0c0.49,0.48,1.27,0.48,1.75,0
					c0.03-0.04,0.09-0.05,0.13-0.03c0.05,0.02,0.08,0.06,0.07,0.11L15.75,24L12.5,34.91z"/>
			</g>
			<path class="st3" d="M16.53,26.61L15.75,24l-0.78,2.61c0.25,0.07,0.51,0.12,0.78,0.11C16.02,26.72,16.29,26.68,16.53,26.61z"/>
			<path class="st0" d="M15.72,35.18c0.33,0,0.64-0.13,0.87-0.36h0c0.06-0.06,0.13-0.09,0.21-0.09c0.08,0,0.15,0.03,0.21,0.09l0,0
				c0.48,0.48,1.27,0.48,1.75,0c0.04-0.04,0.09-0.05,0.13-0.03c0.05,0.02,0.08,0.06,0.08,0.11v108.16l-3.25,0V35.18z"/>
		</g>
	</g>
</g>
<g id="clip_1_">
	<path class="st0" d="M300.55,184.07l0.17,0l0-8.65l7.47-1.74c0.74-0.17,1.49-0.18,2.24-0.01c0.74,0.17,1.42,0.49,2.02,0.96
		l4.87,3.81c0.07,0.05,0.15,0.11,0.21,0.15c0.09,0.06,0.18,0.11,0.28,0.16c0.41,0.22,0.83,0.33,1.26,0.33
		c2.61,0.01,4.68-3.93,4.71-8.98c0.03-5.05-2-9.02-4.61-9.03c-0.43,0-0.86,0.1-1.29,0.32c-0.09,0.05-0.18,0.1-0.26,0.15
		c-0.07,0.04-0.14,0.09-0.21,0.15l-4.91,3.77c-0.6,0.46-1.29,0.78-2.03,0.93c-0.75,0.16-1.5,0.14-2.24-0.04l-7.51-1.84l0-8.81
		l-1.82-0.01v0.04l-13.83-0.07l-0.03,5.02l0,0v0.12l-0.01,1.17l-0.02,4.26l-0.04,7.28l-0.02,4.26l-0.03,6.3l15.62,0.08V184.07z
		 M307.93,167.57c0.93,0.23,1.87,0.25,2.8,0.05c0.93-0.2,1.79-0.59,2.55-1.17l4.88-3.75c0.05-0.03,0.1-0.07,0.15-0.11
		c0.05-0.04,0.12-0.07,0.17-0.1c0.23-0.12,0.45-0.17,0.68-0.17c1.6,0.01,3.37,3.19,3.34,7.75c-0.02,4.56-1.82,7.72-3.42,7.71
		c-0.23,0-0.45-0.06-0.67-0.17c-0.06-0.03-0.12-0.07-0.19-0.11c-0.05-0.03-0.1-0.07-0.13-0.1l-4.85-3.8
		c-0.75-0.59-1.6-0.99-2.54-1.2c-0.93-0.21-1.88-0.2-2.8,0.02l-7.18,1.67l0-8.29L307.93,167.57z"/>
	<polygon class="st6" points="298.19,156.17 282.58,156.09 282.55,162.39 282.52,166.65 282.52,166.65 282.52,166.65 282.48,173.93 
		282.48,173.93 282.46,178.18 282.46,178.18 282.43,184.48 298.04,184.57 	"/>
	<polygon class="st7" points="296.4,184.52 296.41,156.12 298.22,156.14 298.22,184.53 	"/>
	<path class="st2" d="M282.55,162.44l0.01-1.33l23.18,5.68c0.74,0.18,1.49,0.2,2.24,0.04c0.75-0.16,1.43-0.47,2.03-0.93l4.91-3.77
		c0.07-0.05,0.14-0.1,0.21-0.15c0.08-0.05,0.17-0.1,0.26-0.15c0.43-0.22,0.85-0.32,1.28-0.32c2.62,0.01,4.64,3.98,4.62,9.03
		c-0.03,5.05-2.1,8.99-4.71,8.98c-0.43,0-0.86-0.11-1.26-0.33c-0.1-0.05-0.19-0.1-0.28-0.16c-0.07-0.04-0.14-0.09-0.21-0.15
		l-4.86-3.81c-0.6-0.47-1.28-0.79-2.02-0.96c-0.75-0.16-1.5-0.16-2.24,0.02l-23.24,5.42l0.01-1.31l22.94-5.35
		c0.93-0.22,1.87-0.22,2.8-0.02c0.93,0.21,1.79,0.61,2.54,1.2l4.85,3.8c0.04,0.03,0.09,0.07,0.13,0.1c0.07,0.04,0.13,0.08,0.19,0.11
		c0.22,0.12,0.44,0.17,0.67,0.18c1.6,0.01,3.4-3.16,3.42-7.71c0.02-4.55-1.74-7.74-3.34-7.75c-0.23,0-0.45,0.05-0.68,0.17
		c-0.06,0.03-0.12,0.06-0.17,0.1c-0.06,0.04-0.11,0.07-0.16,0.11l-4.88,3.74c-0.76,0.58-1.62,0.97-2.55,1.17
		c-0.93,0.2-1.88,0.18-2.8-0.05L282.55,162.44z"/>
</g>
<g id="clip_2_">
	<path class="st0" d="M300.55,147.09h0.17l0-8.65l7.47-1.74c0.74-0.17,1.49-0.18,2.24-0.02c0.74,0.17,1.42,0.49,2.02,0.96l4.87,3.81
		c0.07,0.06,0.15,0.11,0.21,0.15c0.09,0.06,0.18,0.11,0.28,0.16c0.41,0.21,0.83,0.32,1.26,0.33c2.61,0.01,4.68-3.93,4.71-8.98
		c0.03-5.05-2-9.02-4.61-9.03c-0.43,0-0.86,0.1-1.29,0.32c-0.09,0.05-0.18,0.1-0.26,0.15c-0.07,0.05-0.14,0.1-0.21,0.15l-4.91,3.77
		c-0.6,0.46-1.29,0.78-2.03,0.93c-0.75,0.16-1.5,0.14-2.24-0.04l-7.51-1.84l0-8.81l-1.82-0.01v0.04l-13.83-0.07l-0.03,5.02l0,0v0.12
		l-0.01,1.17l-0.02,4.26l-0.04,7.28l-0.02,4.26l-0.03,6.3l15.62,0.08V147.09z M307.93,130.59c0.93,0.23,1.87,0.25,2.8,0.05
		c0.93-0.2,1.79-0.59,2.55-1.17l4.88-3.74c0.05-0.04,0.1-0.07,0.15-0.11c0.05-0.04,0.12-0.07,0.17-0.1
		c0.23-0.12,0.45-0.17,0.68-0.17c1.6,0.01,3.37,3.19,3.34,7.75c-0.02,4.55-1.82,7.72-3.42,7.71c-0.23,0-0.45-0.06-0.67-0.18
		c-0.06-0.03-0.12-0.06-0.19-0.11c-0.05-0.03-0.1-0.07-0.13-0.1l-4.85-3.8c-0.75-0.59-1.6-0.99-2.54-1.2
		c-0.93-0.2-1.88-0.2-2.8,0.02l-7.18,1.67l0-8.29L307.93,130.59z"/>
	<polygon class="st4" points="298.19,118.57 282.58,118.49 282.55,124.78 282.52,129.04 282.52,129.04 282.52,129.04 282.48,136.32 
		282.48,136.32 282.46,140.58 282.46,140.58 282.43,146.88 298.04,146.96 	"/>
	<polygon class="st8" points="296.4,146.92 296.41,118.52 298.22,118.53 298.22,146.92 	"/>
	<path class="st2" d="M282.55,124.84l0.01-1.34l23.18,5.69c0.74,0.18,1.49,0.19,2.24,0.04c0.75-0.16,1.43-0.47,2.03-0.93l4.91-3.77
		c0.07-0.05,0.14-0.1,0.21-0.15c0.08-0.05,0.17-0.1,0.26-0.15c0.43-0.22,0.85-0.32,1.28-0.32c2.62,0.01,4.64,3.98,4.62,9.03
		c-0.03,5.05-2.1,9-4.71,8.98c-0.43,0-0.86-0.11-1.26-0.33c-0.1-0.05-0.19-0.11-0.28-0.16c-0.07-0.04-0.14-0.1-0.21-0.15l-4.86-3.82
		c-0.6-0.47-1.28-0.79-2.02-0.96c-0.75-0.16-1.5-0.16-2.24,0.02l-23.24,5.42l0.01-1.32l22.94-5.35c0.93-0.22,1.87-0.22,2.8-0.02
		c0.93,0.21,1.79,0.61,2.54,1.2l4.85,3.8c0.04,0.03,0.09,0.06,0.13,0.1c0.07,0.04,0.13,0.08,0.19,0.11
		c0.22,0.12,0.44,0.17,0.67,0.17c1.6,0.01,3.4-3.16,3.42-7.71c0.02-4.55-1.74-7.74-3.34-7.75c-0.23,0-0.45,0.05-0.68,0.17
		c-0.06,0.03-0.12,0.06-0.17,0.1c-0.06,0.04-0.11,0.07-0.16,0.1l-4.88,3.75c-0.76,0.58-1.62,0.97-2.55,1.17
		c-0.93,0.2-1.88,0.18-2.8-0.05L282.55,124.84z"/>
</g>
<g id="notebook_1_">
	<path id="_x3C_Group_x3E__1_" class="st0" d="M270.73,24H68.77c-4.19,0-7.61,3.42-7.61,7.61v148.24c0,4.19,3.42,7.61,7.61,7.61
		h201.96c4.19,0,7.61-3.42,7.61-7.61V31.61C278.34,27.42,274.91,24,270.73,24z"/>
	<g>
		<g>
			<path class="st5" d="M267.29,24H65.32c-4.19,0-7.61,3.42-7.61,7.61v148.24c0,4.19,3.42,7.61,7.61,7.61h201.96
				c4.18,0,7.61-3.42,7.61-7.61V31.61C274.9,27.42,271.47,24,267.29,24"/>
			<polygon class="st7" points="166.5,28.19 143.85,28.19 61.76,28.19 61.76,183.04 143.85,183.04 166.5,183.04 271.24,183.04 
				271.24,28.19 			"/>
			<rect x="64.39" y="28.19" class="st2" width="101.61" height="154.86"/>
			<rect x="166.63" y="28.19" class="st2" width="101.61" height="154.86"/>
			<g>
				<g>
					<circle class="st7" cx="159.57" cy="35.93" r="2.24"/>
					<circle class="st7" cx="172.79" cy="35.93" r="2.24"/>
					<g>
						<path class="st0" d="M160.1,34.76h12.11c0.65,0,1.17,0.52,1.17,1.17c0,0.64-0.52,1.17-1.17,1.17H160.1
							c-0.64,0-1.17-0.52-1.17-1.17C158.93,35.28,159.46,34.76,160.1,34.76z"/>
						<path class="st8" d="M160.1,35.35l12.11,0c0.32,0,0.58,0.26,0.58,0.58c0,0.32-0.26,0.58-0.58,0.58l-12.11,0
							c-0.32,0-0.58-0.26-0.58-0.58C159.52,35.61,159.78,35.35,160.1,35.35z"/>
					</g>
				</g>
				<g>
					<circle class="st7" cx="159.57" cy="43.64" r="2.24"/>
					<circle class="st7" cx="172.79" cy="43.64" r="2.24"/>
					<g>
						<path class="st0" d="M160.1,42.47h12.11c0.65,0,1.17,0.52,1.17,1.17c0,0.64-0.52,1.17-1.17,1.17H160.1
							c-0.64,0-1.17-0.52-1.17-1.17C158.93,43,159.46,42.47,160.1,42.47z"/>
						<path class="st8" d="M160.1,43.06l12.11,0c0.32,0,0.58,0.26,0.58,0.58c0,0.32-0.26,0.58-0.58,0.58l-12.11,0
							c-0.32,0-0.58-0.26-0.58-0.58C159.52,43.32,159.78,43.06,160.1,43.06z"/>
					</g>
				</g>
				<g>
					<circle class="st7" cx="159.57" cy="51.35" r="2.24"/>
					<circle class="st7" cx="172.79" cy="51.35" r="2.24"/>
					<g>
						<path class="st0" d="M160.1,50.19h12.11c0.65,0,1.17,0.52,1.17,1.17c0,0.64-0.52,1.17-1.17,1.17H160.1
							c-0.64,0-1.17-0.52-1.17-1.17C158.93,50.71,159.46,50.19,160.1,50.19z"/>
						<path class="st8" d="M160.1,50.77l12.11,0c0.32,0,0.58,0.26,0.58,0.58c0,0.32-0.26,0.58-0.58,0.58l-12.11,0
							c-0.32,0-0.58-0.26-0.58-0.58C159.52,51.03,159.78,50.77,160.1,50.77z"/>
					</g>
				</g>
				<g>
					<circle class="st7" cx="159.57" cy="59.07" r="2.24"/>
					<circle class="st7" cx="172.79" cy="59.07" r="2.24"/>
					<g>
						<path class="st0" d="M160.1,57.9h12.11c0.65,0,1.17,0.52,1.17,1.17c0,0.65-0.52,1.17-1.17,1.17H160.1
							c-0.64,0-1.17-0.52-1.17-1.17C158.93,58.42,159.46,57.9,160.1,57.9z"/>
						<path class="st8" d="M160.1,58.48l12.11,0c0.32,0,0.58,0.26,0.58,0.58c0,0.32-0.26,0.58-0.58,0.58l-12.11,0
							c-0.32,0-0.58-0.26-0.58-0.58C159.52,58.74,159.78,58.48,160.1,58.48z"/>
					</g>
				</g>
				<g>
					<circle class="st7" cx="159.57" cy="66.78" r="2.24"/>
					<circle class="st7" cx="172.79" cy="66.78" r="2.24"/>
					<g>
						<path class="st0" d="M160.1,65.61h12.11c0.65,0,1.17,0.52,1.17,1.17c0,0.64-0.52,1.17-1.17,1.17H160.1
							c-0.64,0-1.17-0.52-1.17-1.17C158.93,66.13,159.46,65.61,160.1,65.61z"/>
						<path class="st8" d="M160.1,66.19l12.11,0c0.32,0,0.58,0.26,0.58,0.59c0,0.32-0.26,0.58-0.58,0.58l-12.11,0
							c-0.32,0-0.58-0.26-0.58-0.58C159.52,66.46,159.78,66.19,160.1,66.19z"/>
					</g>
				</g>
				<g>
					<circle class="st7" cx="159.57" cy="74.49" r="2.24"/>
					<circle class="st7" cx="172.79" cy="74.49" r="2.24"/>
					<g>
						<path class="st0" d="M160.1,73.32h12.11c0.65,0,1.17,0.52,1.17,1.17c0,0.64-0.52,1.17-1.17,1.17H160.1
							c-0.64,0-1.17-0.52-1.17-1.17C158.93,73.85,159.46,73.32,160.1,73.32z"/>
						<path class="st8" d="M160.1,73.91l12.11,0c0.32,0,0.58,0.26,0.58,0.58c0,0.32-0.26,0.58-0.58,0.58l-12.11,0
							c-0.32,0-0.58-0.26-0.58-0.58C159.52,74.17,159.78,73.91,160.1,73.91z"/>
					</g>
				</g>
				<g>
					<circle class="st7" cx="159.57" cy="82.2" r="2.24"/>
					<circle class="st7" cx="172.79" cy="82.2" r="2.24"/>
					<g>
						<path class="st0" d="M160.1,81.03h12.11c0.65,0,1.17,0.52,1.17,1.17c0,0.64-0.52,1.17-1.17,1.17H160.1
							c-0.64,0-1.17-0.52-1.17-1.17C158.93,81.56,159.46,81.03,160.1,81.03z"/>
						<path class="st8" d="M160.1,81.62l12.11,0c0.32,0,0.58,0.26,0.58,0.59c0,0.32-0.26,0.58-0.58,0.58l-12.11,0
							c-0.32,0-0.58-0.26-0.58-0.58C159.52,81.88,159.78,81.62,160.1,81.62z"/>
					</g>
				</g>
				<g>
					<circle class="st7" cx="159.57" cy="89.92" r="2.24"/>
					<circle class="st7" cx="172.79" cy="89.92" r="2.24"/>
					<g>
						<path class="st0" d="M160.1,88.75h12.11c0.65,0,1.17,0.52,1.17,1.17c0,0.64-0.52,1.17-1.17,1.17H160.1
							c-0.64,0-1.17-0.52-1.17-1.17C158.93,89.27,159.46,88.75,160.1,88.75z"/>
						<path class="st8" d="M160.1,89.33l12.11,0c0.32,0,0.58,0.26,0.58,0.58c0,0.32-0.26,0.58-0.58,0.58l-12.11,0
							c-0.32,0-0.58-0.26-0.58-0.58C159.52,89.59,159.78,89.33,160.1,89.33z"/>
					</g>
				</g>
				<g>
					<circle class="st7" cx="159.57" cy="97.63" r="2.24"/>
					<circle class="st7" cx="172.79" cy="97.63" r="2.24"/>
					<g>
						<path class="st0" d="M160.1,96.46h12.11c0.65,0,1.17,0.52,1.17,1.17c0,0.64-0.52,1.17-1.17,1.17H160.1
							c-0.64,0-1.17-0.52-1.17-1.17C158.93,96.98,159.46,96.46,160.1,96.46z"/>
						<path class="st8" d="M160.1,97.04l12.11,0c0.32,0,0.58,0.26,0.58,0.58c0,0.32-0.26,0.58-0.58,0.58l-12.11,0
							c-0.32,0-0.58-0.26-0.58-0.58C159.52,97.31,159.78,97.04,160.1,97.04z"/>
					</g>
				</g>
				<g>
					<circle class="st7" cx="159.57" cy="105.34" r="2.24"/>
					<circle class="st7" cx="172.79" cy="105.34" r="2.24"/>
					<g>
						<path class="st0" d="M160.1,104.17h12.11c0.65,0,1.17,0.52,1.17,1.17c0,0.64-0.52,1.17-1.17,1.17H160.1
							c-0.64,0-1.17-0.52-1.17-1.17C158.93,104.7,159.46,104.17,160.1,104.17z"/>
						<path class="st8" d="M160.1,104.76l12.11,0c0.32,0,0.58,0.26,0.58,0.58c0,0.32-0.26,0.58-0.58,0.58l-12.11,0
							c-0.32,0-0.58-0.26-0.58-0.58C159.52,105.02,159.78,104.76,160.1,104.76z"/>
					</g>
				</g>
				<g>
					<circle class="st7" cx="159.57" cy="113.05" r="2.24"/>
					<circle class="st7" cx="172.79" cy="113.05" r="2.24"/>
					<g>
						<path class="st0" d="M160.1,111.88h12.11c0.65,0,1.17,0.52,1.17,1.17c0,0.65-0.52,1.17-1.17,1.17H160.1
							c-0.64,0-1.17-0.52-1.17-1.17C158.93,112.4,159.46,111.88,160.1,111.88z"/>
						<path class="st8" d="M160.1,112.47l12.11,0c0.32,0,0.58,0.26,0.58,0.58c0,0.32-0.26,0.58-0.58,0.58l-12.11,0
							c-0.32,0-0.58-0.26-0.58-0.59C159.52,112.73,159.78,112.47,160.1,112.47z"/>
					</g>
				</g>
				<g>
					<circle class="st7" cx="159.57" cy="120.77" r="2.24"/>
					<circle class="st7" cx="172.79" cy="120.77" r="2.24"/>
					<g>
						<path class="st0" d="M160.1,119.6h12.11c0.65,0,1.17,0.52,1.17,1.17c0,0.64-0.52,1.17-1.17,1.17H160.1
							c-0.64,0-1.17-0.52-1.17-1.17C158.93,120.12,159.46,119.6,160.1,119.6z"/>
						<path class="st8" d="M160.1,120.18l12.11,0c0.32,0,0.58,0.26,0.58,0.58c0,0.32-0.26,0.58-0.58,0.58H160.1
							c-0.32,0-0.58-0.26-0.58-0.58C159.52,120.44,159.78,120.18,160.1,120.18z"/>
					</g>
				</g>
				<g>
					<circle class="st7" cx="159.57" cy="128.48" r="2.24"/>
					<circle class="st7" cx="172.79" cy="128.48" r="2.24"/>
					<g>
						<path class="st0" d="M160.1,127.31h12.11c0.65,0,1.17,0.52,1.17,1.17c0,0.64-0.52,1.17-1.17,1.17H160.1
							c-0.64,0-1.17-0.52-1.17-1.17C158.93,127.83,159.46,127.31,160.1,127.31z"/>
						<path class="st8" d="M160.1,127.89l12.11,0c0.32,0,0.58,0.26,0.58,0.59c0,0.32-0.26,0.58-0.58,0.58H160.1
							c-0.32,0-0.58-0.26-0.58-0.58C159.52,128.15,159.78,127.89,160.1,127.89z"/>
					</g>
				</g>
				<g>
					<circle class="st7" cx="159.57" cy="136.19" r="2.24"/>
					<circle class="st7" cx="172.79" cy="136.19" r="2.24"/>
					<g>
						<path class="st0" d="M160.1,135.02h12.11c0.65,0,1.17,0.52,1.17,1.17c0,0.65-0.52,1.17-1.17,1.17H160.1
							c-0.64,0-1.17-0.52-1.17-1.17C158.93,135.54,159.46,135.02,160.1,135.02z"/>
						<path class="st8" d="M160.1,135.6l12.11,0c0.32,0,0.58,0.26,0.58,0.59c0,0.32-0.26,0.59-0.58,0.59H160.1
							c-0.32,0-0.58-0.26-0.58-0.59C159.52,135.87,159.78,135.6,160.1,135.6z"/>
					</g>
				</g>
				<g>
					<circle class="st7" cx="159.57" cy="143.9" r="2.24"/>
					<circle class="st7" cx="172.79" cy="143.9" r="2.24"/>
					<g>
						<path class="st0" d="M160.1,142.73h12.11c0.65,0,1.17,0.52,1.17,1.17c0,0.64-0.52,1.17-1.17,1.17H160.1
							c-0.64,0-1.17-0.52-1.17-1.17C158.93,143.25,159.46,142.73,160.1,142.73z"/>
						<path class="st8" d="M160.1,143.32l12.11,0c0.32,0,0.58,0.26,0.58,0.58c0,0.32-0.26,0.58-0.58,0.58H160.1
							c-0.32,0-0.58-0.26-0.58-0.58C159.52,143.58,159.78,143.32,160.1,143.32z"/>
					</g>
				</g>
				<g>
					<circle class="st7" cx="159.57" cy="151.61" r="2.24"/>
					<circle class="st7" cx="172.79" cy="151.61" r="2.24"/>
					<g>
						<path class="st0" d="M160.1,150.44h12.11c0.65,0,1.17,0.52,1.17,1.17c0,0.64-0.52,1.17-1.17,1.17H160.1
							c-0.64,0-1.17-0.53-1.17-1.17C158.93,150.97,159.46,150.44,160.1,150.44z"/>
						<path class="st8" d="M160.1,151.03l12.11,0c0.32,0,0.58,0.26,0.58,0.58c0,0.32-0.26,0.58-0.58,0.58H160.1
							c-0.32,0-0.58-0.26-0.58-0.58C159.52,151.29,159.78,151.03,160.1,151.03z"/>
					</g>
				</g>
				<g>
					<circle class="st7" cx="159.57" cy="159.32" r="2.24"/>
					<circle class="st7" cx="172.79" cy="159.32" r="2.24"/>
					<g>
						<path class="st0" d="M160.1,158.16h12.11c0.65,0,1.17,0.52,1.17,1.17c0,0.64-0.52,1.17-1.17,1.17H160.1
							c-0.64,0-1.17-0.52-1.17-1.17C158.93,158.68,159.46,158.16,160.1,158.16z"/>
						<path class="st8" d="M160.1,158.74l12.11,0c0.32,0,0.58,0.26,0.58,0.58c0,0.32-0.26,0.58-0.58,0.58H160.1
							c-0.32,0-0.58-0.26-0.58-0.58C159.52,159,159.78,158.74,160.1,158.74z"/>
					</g>
				</g>
				<g>
					<circle class="st7" cx="159.57" cy="167.04" r="2.24"/>
					<circle class="st7" cx="172.79" cy="167.04" r="2.24"/>
					<g>
						<path class="st0" d="M160.1,165.87h12.11c0.65,0,1.17,0.52,1.17,1.17c0,0.64-0.52,1.17-1.17,1.17H160.1
							c-0.64,0-1.17-0.52-1.17-1.17C158.93,166.39,159.46,165.87,160.1,165.87z"/>
						<path class="st8" d="M160.1,166.45l12.11,0c0.32,0,0.58,0.26,0.58,0.59c0,0.32-0.26,0.58-0.58,0.58H160.1
							c-0.32,0-0.58-0.26-0.58-0.58C159.52,166.71,159.78,166.45,160.1,166.45z"/>
					</g>
				</g>
				<g>
					<circle class="st7" cx="159.57" cy="174.75" r="2.24"/>
					<circle class="st7" cx="172.79" cy="174.75" r="2.24"/>
					<g>
						<path class="st0" d="M160.1,173.58h12.11c0.65,0,1.17,0.52,1.17,1.17c0,0.65-0.52,1.17-1.17,1.17H160.1
							c-0.64,0-1.17-0.52-1.17-1.17C158.93,174.1,159.46,173.58,160.1,173.58z"/>
						<path class="st8" d="M160.1,174.17l12.11,0c0.32,0,0.58,0.26,0.58,0.58c0,0.32-0.26,0.59-0.58,0.59H160.1
							c-0.32,0-0.58-0.26-0.58-0.59C159.52,174.42,159.78,174.17,160.1,174.17z"/>
					</g>
				</g>
			</g>
		</g>
		<g>
			<g>
				<rect x="69.67" y="35.69" class="st0" width="83.94" height="0.55"/>
			</g>
			<g>
				<rect x="69.67" y="43.36" class="st0" width="83.94" height="0.55"/>
			</g>
			<g>
				<rect x="69.67" y="51.03" class="st0" width="83.94" height="0.55"/>
			</g>
			<g>
				<rect x="69.67" y="58.7" class="st0" width="83.94" height="0.55"/>
			</g>
			<g>
				<rect x="69.67" y="66.37" class="st0" width="83.94" height="0.55"/>
			</g>
			<g>
				<rect x="69.67" y="74.04" class="st0" width="83.94" height="0.55"/>
			</g>
			<g>
				<rect x="69.67" y="81.71" class="st0" width="83.94" height="0.55"/>
			</g>
			<g>
				<rect x="69.67" y="89.38" class="st0" width="83.94" height="0.55"/>
			</g>
			<g>
				<rect x="69.67" y="97.05" class="st0" width="83.94" height="0.55"/>
			</g>
			<g>
				<rect x="69.67" y="104.72" class="st0" width="83.94" height="0.55"/>
			</g>
			<g>
				<rect x="69.67" y="112.39" class="st0" width="83.94" height="0.55"/>
			</g>
			<g>
				<rect x="69.67" y="120.06" class="st0" width="83.94" height="0.55"/>
			</g>
			<g>
				<rect x="69.67" y="127.73" class="st0" width="83.94" height="0.55"/>
			</g>
			<g>
				<rect x="69.67" y="135.4" class="st0" width="83.94" height="0.55"/>
			</g>
			<g>
				<rect x="69.67" y="143.07" class="st0" width="83.94" height="0.55"/>
			</g>
			<g>
				<rect x="69.67" y="150.74" class="st0" width="83.94" height="0.55"/>
			</g>
			<g>
				<rect x="69.67" y="158.41" class="st0" width="83.94" height="0.55"/>
			</g>
			<g>
				<rect x="69.67" y="166.08" class="st0" width="83.94" height="0.55"/>
			</g>
			<g>
				<rect x="69.67" y="173.75" class="st0" width="83.94" height="0.55"/>
			</g>
		</g>
		<g>
			<g>
				<rect x="179.02" y="35.69" class="st0" width="83.94" height="0.55"/>
			</g>
			<g>
				<rect x="179.02" y="43.36" class="st0" width="83.94" height="0.55"/>
			</g>
			<g>
				<rect x="179.02" y="51.03" class="st0" width="83.94" height="0.55"/>
			</g>
			<g>
				<rect x="179.02" y="58.7" class="st0" width="83.94" height="0.55"/>
			</g>
			<g>
				<rect x="179.02" y="66.37" class="st0" width="83.94" height="0.55"/>
			</g>
			<g>
				<rect x="179.02" y="74.04" class="st0" width="83.94" height="0.55"/>
			</g>
			<g>
				<rect x="179.02" y="81.71" class="st0" width="83.94" height="0.55"/>
			</g>
			<g>
				<rect x="179.02" y="89.38" class="st0" width="83.94" height="0.55"/>
			</g>
			<g>
				<rect x="179.02" y="97.05" class="st0" width="83.94" height="0.55"/>
			</g>
			<g>
				<rect x="179.02" y="104.72" class="st0" width="83.94" height="0.55"/>
			</g>
			<g>
				<rect x="179.02" y="112.39" class="st0" width="83.94" height="0.55"/>
			</g>
			<g>
				<rect x="179.02" y="120.06" class="st0" width="83.94" height="0.55"/>
			</g>
			<g>
				<rect x="179.02" y="127.73" class="st0" width="83.94" height="0.55"/>
			</g>
			<g>
				<rect x="179.02" y="135.4" class="st0" width="83.94" height="0.55"/>
			</g>
			<g>
				<rect x="179.02" y="143.07" class="st0" width="83.94" height="0.55"/>
			</g>
			<g>
				<rect x="179.02" y="150.74" class="st0" width="83.94" height="0.55"/>
			</g>
			<g>
				<rect x="179.02" y="158.41" class="st0" width="83.94" height="0.55"/>
			</g>
			<g>
				<rect x="179.02" y="166.08" class="st0" width="83.94" height="0.55"/>
			</g>
			<g>
				<rect x="179.02" y="173.75" class="st0" width="83.94" height="0.55"/>
			</g>
		</g>
	</g>
</g>
<g id="scissor">
	<path class="st0" d="M219,89.42c-0.94,10.07,3.27,51.62,5.42,55.06c0.04-0.14,0.08-0.31,0.13-0.51c0.04,0.2,0.09,0.37,0.13,0.51
		c2.16-3.43,6.57-44.95,5.68-55.03l0-0.72c0.05-12.35,5.73-24.12,15.19-31.47c2.5-2.29,3.95-5.55,3.97-8.95
		c0.01-3.26-1.25-6.33-3.54-8.64c-2.29-2.31-5.35-3.59-8.61-3.61h-0.05c-3.24,0-6.28,1.26-8.58,3.54c-2.31,2.29-3.59,5.35-3.61,8.61
		 M224.87,48.19c0.04-3.26-1.2-6.34-3.47-8.66c-2.28-2.33-5.32-3.63-8.58-3.67l-0.14,0c-3.21,0-6.23,1.23-8.53,3.48
		c-2.33,2.27-3.63,5.32-3.67,8.58c-0.04,3.4,1.36,6.69,3.84,9.02c9.34,7.49,14.83,19.34,14.7,31.69L219,89.4 M212.81,58.3
		L212.81,58.3l-0.11,0c-2.67-0.03-5.17-1.1-7.03-3.01c-1.87-1.91-2.88-4.43-2.85-7.1c0.06-5.45,4.55-9.88,9.99-9.88l0.12,0
		c1.32,0.01,2.6,0.28,3.8,0.8c3.74,1.6,6.12,5.25,6.08,9.31C222.74,53.87,218.26,58.3,212.81,58.3z M244.22,55.6
		c-1.88,1.87-4.38,2.9-7.04,2.9l0,0h-0.04c-5.51-0.02-9.97-4.53-9.95-10.04c0.01-4.06,2.45-7.67,6.21-9.21
		c1.2-0.49,2.47-0.74,3.77-0.74h0.05c2.67,0.01,5.17,1.06,7.05,2.96c1.88,1.9,2.92,4.41,2.9,7.07
		C247.17,51.22,246.12,53.72,244.22,55.6z"/>
	<g>
		<path class="st1" d="M218.25,39.53c-2.28-2.33-5.32-3.63-8.58-3.67l-0.14,0c-3.21,0-6.23,1.23-8.53,3.48
			c-2.33,2.27-3.63,5.32-3.67,8.58c-0.04,3.4,1.36,6.69,3.84,9.02c9.34,7.49,14.83,19.34,14.7,31.69l-0.01,0.77l5.57-3.6l0.3-37.62
			C221.76,44.93,220.53,41.85,218.25,39.53z M209.66,58.3C209.66,58.3,209.66,58.3,209.66,58.3l-0.11,0
			c-2.67-0.03-5.17-1.1-7.03-3.01c-1.87-1.91-2.88-4.43-2.85-7.1c0.07-5.45,4.55-9.88,9.99-9.88l0.12,0c1.32,0.01,2.6,0.28,3.8,0.8
			c3.74,1.6,6.12,5.25,6.08,9.31C219.6,53.87,215.11,58.3,209.66,58.3z"/>
		<path class="st1" d="M242.4,57.26c2.5-2.29,3.95-5.55,3.97-8.95c0.01-3.26-1.25-6.33-3.54-8.64c-2.29-2.31-5.35-3.59-8.61-3.61
			h-0.05c-3.24,0-6.28,1.26-8.58,3.54c-2.31,2.29-3.59,5.35-3.61,8.61l-0.25,37.64l5.49,3.66l0-0.77
			C227.27,76.38,232.95,64.62,242.4,57.26z M234.04,58.5H234c-5.51-0.02-9.97-4.53-9.95-10.04c0.01-4.06,2.45-7.67,6.22-9.21
			c1.2-0.49,2.47-0.74,3.77-0.74h0.05c2.67,0.01,5.17,1.06,7.05,2.96c1.88,1.9,2.91,4.41,2.9,7.07c-0.01,2.67-1.06,5.18-2.96,7.06
			C239.19,57.47,236.69,58.5,234.04,58.5C234.04,58.5,234.04,58.5,234.04,58.5z"/>
		<path class="st8" d="M227.21,89.45l-5.64-3.7c0,0-0.21,4.66-4.43,4.61c-0.1,7.73,2.99,49.58,4.39,54.12
			C223.7,141.05,228.1,99.52,227.21,89.45z"/>
		<path class="st7" d="M215.85,89.42l5.65-3.67c0,0,0.18,4.54,4.41,4.63c0.06,7.73-3.23,49.57-4.65,54.1
			C219.12,141.04,214.92,99.49,215.85,89.42z"/>
		
			<ellipse transform="matrix(1 -8.242333e-03 8.242333e-03 1 -0.7992 1.822)" class="st0" cx="220.64" cy="97.88" rx="2.25" ry="2.25"/>
	</g>
</g>
<g id="postit">
	<rect x="15.32" y="150.64" class="st0" width="66.19" height="66.19"/>
	<rect x="12.5" y="150.64" class="st1" width="66.19" height="66.19"/>
	<g>
		<rect x="17.68" y="161.49" class="st6" width="55.91" height="3.37"/>
		<rect x="17.68" y="169.93" class="st2" width="55.91" height="3.38"/>
		<rect x="17.68" y="178.37" class="st2" width="27.96" height="3.38"/>
	</g>
</g>
<g id="ruler">
	<polygon class="st0" points="239.41,201.06 239.41,194.29 233.3,194.29 233.3,194.29 232.58,194.29 232.58,194.29 228.83,194.29 
		228.83,194.29 228.1,194.29 228.1,194.29 224.35,194.3 224.35,194.29 223.62,194.29 223.62,194.3 219.88,194.3 219.88,194.3 
		219.15,194.29 219.15,194.3 215.4,194.3 215.4,194.3 214.68,194.3 214.68,194.3 210.92,194.3 210.92,194.3 210.2,194.3 
		210.2,194.3 206.45,194.3 206.45,194.3 205.73,194.3 205.73,194.3 201.97,194.3 201.97,194.3 201.25,194.3 201.25,194.3 
		197.5,194.3 197.5,194.3 196.77,194.3 196.77,194.3 193.03,194.3 193.03,194.3 192.3,194.3 192.3,194.3 188.55,194.31 
		188.55,194.3 187.82,194.3 187.82,194.31 184.07,194.31 184.07,194.31 183.35,194.31 183.35,194.31 179.6,194.31 179.6,194.31 
		178.87,194.31 178.87,194.31 174.92,194.31 174.4,194.31 174.4,194.31 170.65,194.31 170.65,194.31 169.92,194.31 169.92,194.31 
		166.17,194.31 166.17,194.31 165.44,194.31 165.44,194.32 161.7,194.32 161.7,194.32 160.97,194.32 160.97,194.32 157.22,194.32 
		157.22,194.32 157.1,194.32 152.74,194.32 152.74,194.32 152.02,194.32 152.02,194.32 147.81,194.32 147.54,194.32 147.54,194.32 
		143.79,194.32 143.79,194.32 143.07,194.32 143.07,194.32 134.73,194.32 134.11,194.32 134.11,194.32 130.37,194.33 130.37,194.33 
		129.64,194.33 129.64,194.33 125.89,194.33 125.89,194.33 125.17,194.33 125.17,194.33 116.61,194.33 116.21,194.33 116.21,194.33 
		107.99,194.33 107.99,194.33 107.83,194.33 92.2,194.34 92.21,201.11 92.21,215.88 239.42,215.83 	"/>
	<g>
		<rect x="88.74" y="194.31" class="st9" width="147.21" height="6.77"/>
		<rect x="88.74" y="194.31" class="st10" width="147.21" height="6.77"/>
		<rect x="88.74" y="201.08" class="st9" width="147.21" height="14.77"/>
		<path class="st5" d="M235.96,215.83l0-14.77l-147.21,0.05l0.01,14.77L235.96,215.83z M228.64,205.06c0,1.32-1.07,2.39-2.39,2.39
			c-1.33,0-2.4-1.07-2.4-2.39c0-1.33,1.07-2.39,2.4-2.39C227.57,202.67,228.64,203.73,228.64,205.06L228.64,205.06z"/>
		<g>
			<rect x="94.85" y="194.34" class="st6" width="0.73" height="3.35"/>
			<rect x="99.33" y="194.34" class="st6" width="0.72" height="1.61"/>
			<rect x="103.8" y="194.33" class="st6" width="0.73" height="3.35"/>
			<rect x="108.28" y="194.33" class="st6" width="0.73" height="1.6"/>
			<rect x="112.75" y="194.33" class="st6" width="0.73" height="3.35"/>
			<rect x="117.23" y="194.33" class="st6" width="0.73" height="1.6"/>
			<rect x="121.7" y="194.33" class="st6" width="0.73" height="3.35"/>
			<rect x="126.18" y="194.33" class="st6" width="0.73" height="1.6"/>
			<rect x="130.65" y="194.32" class="st6" width="0.73" height="3.35"/>
			<rect x="135.13" y="194.32" class="st6" width="0.73" height="1.6"/>
			<rect x="139.6" y="194.32" class="st6" width="0.73" height="3.35"/>
			<rect x="144.08" y="194.32" class="st6" width="0.73" height="1.61"/>
			<rect x="148.56" y="194.32" class="st6" width="0.73" height="3.35"/>
			<rect x="153.03" y="194.32" class="st6" width="0.73" height="1.6"/>
			<rect x="157.51" y="194.32" class="st6" width="0.73" height="3.35"/>
			<rect x="161.98" y="194.31" class="st6" width="0.73" height="1.6"/>
			<rect x="166.46" y="194.31" class="st6" width="0.73" height="3.35"/>
			<rect x="170.94" y="194.31" class="st6" width="0.73" height="1.6"/>
			<rect x="175.41" y="194.31" class="st6" width="0.73" height="3.35"/>
			<rect x="179.89" y="194.31" class="st6" width="0.73" height="1.61"/>
			<polygon class="st6" points="185.09,194.3 185.09,197.65 184.37,197.65 184.36,194.3 			"/>
			<rect x="188.84" y="194.3" class="st6" width="0.73" height="1.61"/>
			<rect x="193.32" y="194.3" class="st6" width="0.73" height="3.35"/>
			<rect x="197.79" y="194.3" class="st6" width="0.73" height="1.61"/>
			<rect x="202.27" y="194.3" class="st6" width="0.73" height="3.35"/>
			<rect x="206.74" y="194.3" class="st6" width="0.73" height="1.6"/>
			<rect x="211.22" y="194.3" class="st6" width="0.72" height="3.35"/>
			<rect x="215.69" y="194.29" class="st6" width="0.73" height="1.6"/>
			<rect x="220.17" y="194.29" class="st6" width="0.73" height="3.35"/>
			<polygon class="st6" points="225.37,194.29 225.37,195.89 224.65,195.9 224.65,194.29 			"/>
			<rect x="229.12" y="194.29" class="st6" width="0.73" height="3.35"/>
		</g>
	</g>
</g>
<g id="ruler_1_">
	<path class="st0" d="M298.21,29.34v-4.75l-13.63,0v1.62v0.66v74.58l13.63,0V96.7c16-2.89,28.14-16.85,28.14-33.68
		C326.35,46.2,314.21,32.23,298.21,29.34z M298.21,84.17V41.88c9.18,2.65,15.9,11.11,15.91,21.14
		C314.12,73.06,307.4,81.52,298.21,84.17z"/>
	<g>
		<g>
			<path class="st2" d="M295.65,96.7c16-2.89,28.14-16.85,28.14-33.68c0-16.83-12.14-30.79-28.14-33.68v-4.75l-13.63,0v76.87
				l13.63,0V96.7z M295.65,41.88c9.18,2.65,15.9,11.11,15.91,21.14c0,10.04-6.72,18.49-15.91,21.14V41.88z"/>
		</g>
		<g>
			<rect x="282.05" y="99.23" class="st6" width="3.04" height="0.66"/>
			<rect x="282.05" y="95.18" class="st6" width="1.45" height="0.66"/>
			<rect x="282.04" y="91.12" class="st6" width="3.04" height="0.66"/>
			<rect x="282.04" y="87.06" class="st6" width="1.45" height="0.66"/>
			<rect x="282.04" y="83.01" class="st6" width="3.03" height="0.66"/>
			<rect x="282.04" y="78.95" class="st6" width="1.45" height="0.66"/>
			<rect x="282.04" y="74.89" class="st6" width="3.04" height="0.66"/>
			<rect x="282.04" y="70.84" class="st6" width="1.46" height="0.66"/>
			<polygon class="st6" points="282.04,66.78 285.07,66.78 285.07,67.44 282.04,67.44 			"/>
			<rect x="282.04" y="62.72" class="st6" width="1.46" height="0.66"/>
			<rect x="282.03" y="58.67" class="st6" width="3.04" height="0.66"/>
			<rect x="282.03" y="54.61" class="st6" width="1.46" height="0.66"/>
			<rect x="282.03" y="50.55" class="st6" width="3.04" height="0.66"/>
			<rect x="282.03" y="46.5" class="st6" width="1.46" height="0.66"/>
			<rect x="282.03" y="42.44" class="st6" width="3.03" height="0.66"/>
			<rect x="282.03" y="38.39" class="st6" width="1.45" height="0.66"/>
			<rect x="282.03" y="34.33" class="st6" width="3.03" height="0.66"/>
			<rect x="282.02" y="30.27" class="st6" width="1.45" height="0.66"/>
			<rect x="282.02" y="26.21" class="st6" width="3.03" height="0.66"/>
		</g>
	</g>
</g>
<g id="clips">
	<g>
		<path class="st0" d="M258.85,209.97v-12.52c0-2.19-1.62-3.96-3.61-3.96c-1.99,0-3.61,1.78-3.61,3.96v4.51v5.14v6.31
			c0,1.8,1.24,3.26,2.77,3.26c1.53,0,2.77-1.46,2.77-3.26v-6.31v-4.97v-4.36c0-1.1-0.88-2-1.96-2c-1.08,0-1.95,0.9-1.95,2v11.9h0.91
			v-11.9c0-0.6,0.47-1.09,1.04-1.09c0.58,0,1.04,0.49,1.04,1.09v4.36v4.97v6.31c0,1.3-0.83,2.35-1.86,2.35
			c-1.03,0-1.86-1.05-1.86-2.35v-6.31v-5.14v-4.51c0-1.68,1.21-3.05,2.7-3.05c1.49,0,2.7,1.37,2.7,3.05v12.52H258.85z"/>
		<path class="st0" d="M273.05,209.97v-12.52c0-2.19-1.62-3.96-3.61-3.96c-1.99,0-3.61,1.78-3.61,3.96v4.51v5.14v6.31
			c0,1.8,1.25,3.26,2.77,3.26c1.53,0,2.77-1.46,2.77-3.26v-6.31v-4.97v-4.36c0-1.1-0.88-2-1.96-2c-1.08,0-1.95,0.9-1.95,2v11.9h0.91
			v-11.9c0-0.6,0.47-1.09,1.04-1.09c0.57,0,1.04,0.49,1.04,1.09v4.36v4.97v6.31c0,1.3-0.83,2.35-1.86,2.35s-1.86-1.05-1.86-2.35
			v-6.31v-5.14v-4.51c0-1.68,1.21-3.05,2.7-3.05c1.49,0,2.7,1.37,2.7,3.05v12.52H273.05z"/>
		<path class="st0" d="M287.24,209.97v-12.52c0-2.19-1.62-3.96-3.61-3.96c-1.99,0-3.61,1.78-3.61,3.96v4.51v5.14v6.31
			c0,1.8,1.24,3.26,2.77,3.26c1.53,0,2.77-1.46,2.77-3.26v-6.31v-4.97v-4.36c0-1.1-0.88-2-1.95-2c-1.08,0-1.95,0.9-1.95,2v11.9h0.91
			v-11.9c0-0.6,0.47-1.09,1.04-1.09c0.58,0,1.04,0.49,1.04,1.09v4.36v4.97v6.31c0,1.3-0.83,2.35-1.86,2.35
			c-1.03,0-1.86-1.05-1.86-2.35v-6.31v-5.14v-4.51c0-1.68,1.21-3.05,2.7-3.05c1.49,0,2.7,1.37,2.7,3.05v12.52H287.24z"/>
		<path class="st0" d="M301.44,209.97v-12.52c0-2.19-1.62-3.96-3.61-3.96c-1.99,0-3.61,1.78-3.61,3.96v4.51v5.14v6.31
			c0,1.8,1.24,3.26,2.77,3.26c1.53,0,2.77-1.46,2.77-3.26v-6.31v-4.97v-4.36c0-1.1-0.88-2-1.95-2c-1.08,0-1.95,0.9-1.95,2v11.9h0.91
			v-11.9c0-0.6,0.47-1.09,1.04-1.09c0.57,0,1.04,0.49,1.04,1.09v4.36v4.97v6.31c0,1.3-0.83,2.35-1.86,2.35
			c-1.03,0-1.86-1.05-1.86-2.35v-6.31v-5.14v-4.51c0-1.68,1.21-3.05,2.7-3.05c1.49,0,2.7,1.37,2.7,3.05v12.52H301.44z"/>
		<path class="st0" d="M315.63,209.97v-12.52c0-2.19-1.62-3.96-3.61-3.96c-1.99,0-3.61,1.78-3.61,3.96v4.51v5.14v6.31
			c0,1.8,1.24,3.26,2.77,3.26c1.53,0,2.77-1.46,2.77-3.26v-6.31v-4.97v-4.36c0-1.1-0.88-2-1.95-2c-1.08,0-1.95,0.9-1.95,2v11.9h0.91
			v-11.9c0-0.6,0.47-1.09,1.04-1.09c0.57,0,1.04,0.49,1.04,1.09v4.36v4.97v6.31c0,1.3-0.83,2.35-1.86,2.35
			c-1.03,0-1.86-1.05-1.86-2.35v-6.31v-5.14v-4.51c0-1.68,1.21-3.05,2.7-3.05c1.49,0,2.7,1.37,2.7,3.05v12.52H315.63z"/>
	</g>
	<g>
		<path class="st6" d="M256.58,209.97v-12.52c0-2.19-1.62-3.96-3.61-3.96s-3.61,1.78-3.61,3.96v4.51v5.14v6.31
			c0,1.8,1.24,3.26,2.77,3.26c1.53,0,2.77-1.46,2.77-3.26v-6.31v-4.97v-4.36c0-1.1-0.88-2-1.96-2c-1.08,0-1.95,0.9-1.95,2v11.9h0.91
			v-11.9c0-0.6,0.47-1.09,1.04-1.09c0.58,0,1.04,0.49,1.04,1.09v4.36v4.97v6.31c0,1.3-0.83,2.35-1.86,2.35
			c-1.03,0-1.86-1.05-1.86-2.35v-6.31v-5.14v-4.51c0-1.68,1.21-3.05,2.7-3.05c1.49,0,2.7,1.37,2.7,3.05v12.52H256.58z"/>
		<path class="st4" d="M270.78,209.97v-12.52c0-2.19-1.62-3.96-3.61-3.96s-3.61,1.78-3.61,3.96v4.51v5.14v6.31
			c0,1.8,1.25,3.26,2.77,3.26c1.53,0,2.77-1.46,2.77-3.26v-6.31v-4.97v-4.36c0-1.1-0.88-2-1.96-2c-1.08,0-1.95,0.9-1.95,2v11.9h0.91
			v-11.9c0-0.6,0.47-1.09,1.04-1.09c0.57,0,1.04,0.49,1.04,1.09v4.36v4.97v6.31c0,1.3-0.83,2.35-1.86,2.35
			c-1.03,0-1.86-1.05-1.86-2.35v-6.31v-5.14v-4.51c0-1.68,1.21-3.05,2.7-3.05c1.49,0,2.7,1.37,2.7,3.05v12.52H270.78z"/>
		<path class="st1" d="M284.98,209.97v-12.52c0-2.19-1.62-3.96-3.61-3.96c-1.99,0-3.61,1.78-3.61,3.96v4.51v5.14v6.31
			c0,1.8,1.24,3.26,2.77,3.26c1.53,0,2.77-1.46,2.77-3.26v-6.31v-4.97v-4.36c0-1.1-0.88-2-1.96-2c-1.08,0-1.95,0.9-1.95,2v11.9h0.91
			v-11.9c0-0.6,0.47-1.09,1.04-1.09c0.58,0,1.04,0.49,1.04,1.09v4.36v4.97v6.31c0,1.3-0.83,2.35-1.86,2.35
			c-1.03,0-1.86-1.05-1.86-2.35v-6.31v-5.14v-4.51c0-1.68,1.21-3.05,2.7-3.05c1.49,0,2.7,1.37,2.7,3.05v12.52H284.98z"/>
		<path class="st5" d="M299.17,209.97v-12.52c0-2.19-1.62-3.96-3.61-3.96c-1.99,0-3.61,1.78-3.61,3.96v4.51v5.14v6.31
			c0,1.8,1.24,3.26,2.77,3.26c1.53,0,2.77-1.46,2.77-3.26v-6.31v-4.97v-4.36c0-1.1-0.88-2-1.95-2c-1.08,0-1.95,0.9-1.95,2v11.9h0.91
			v-11.9c0-0.6,0.47-1.09,1.04-1.09c0.57,0,1.04,0.49,1.04,1.09v4.36v4.97v6.31c0,1.3-0.83,2.35-1.86,2.35
			c-1.03,0-1.86-1.05-1.86-2.35v-6.31v-5.14v-4.51c0-1.68,1.21-3.05,2.7-3.05c1.49,0,2.7,1.37,2.7,3.05v12.52H299.17z"/>
		<path class="st2" d="M313.37,209.97v-12.52c0-2.19-1.62-3.96-3.61-3.96c-1.99,0-3.61,1.78-3.61,3.96v4.51v5.14v6.31
			c0,1.8,1.24,3.26,2.77,3.26c1.53,0,2.77-1.46,2.77-3.26v-6.31v-4.97v-4.36c0-1.1-0.88-2-1.95-2c-1.08,0-1.95,0.9-1.95,2v11.9h0.91
			v-11.9c0-0.6,0.47-1.09,1.04-1.09c0.57,0,1.04,0.49,1.04,1.09v4.36v4.97v6.31c0,1.3-0.83,2.35-1.86,2.35
			c-1.03,0-1.86-1.05-1.86-2.35v-6.31v-5.14v-4.51c0-1.68,1.21-3.05,2.7-3.05c1.49,0,2.7,1.37,2.7,3.05v12.52H313.37z"/>
	</g>
</g>
</svg>
