<svg id="Capa_1" enable-background="new 0 0 512 512" height="512" viewBox="0 0 512 512" width="512" xmlns="http://www.w3.org/2000/svg"><g><g><g><path d="m355.272 395.16-99.272-52.192-99.272 52.192 18.97-110.537-80.332-78.281 110.991-16.128 49.643-100.591 49.644 100.591 110.991 16.128-80.332 78.281z" fill="#ffdf40"/></g><g><path d="m0 241h61v30h-61z" fill="#ffdf40"/></g><g><path d="m451 241h61v30h-61z" fill="#ffbe40"/></g><g><path d="m241 451h30v61h-30z" fill="#ffdf40"/></g><g><path d="m241 0h30v61h-30z" fill="#ffdf40"/></g><g><path d="m353.498 420.849h30.005v60.01h-30.005z" fill="#ffbe40" transform="matrix(.866 -.5 .5 .866 -176.038 244.602)"/></g><g><path d="m128.498 31.142h30.005v60.01h-30.005z" fill="#ffdf40" transform="matrix(.866 -.5 .5 .866 -11.35 79.928)"/></g><g><path d="m435.851 338.495h30.005v60.01h-30.005z" fill="#ffbe40" transform="matrix(.5 -.866 .866 .5 -93.685 574.751)"/></g><g><path d="m46.144 113.495h30.005v60.01h-30.005z" fill="#ffdf40" transform="matrix(.5 -.866 .866 .5 -93.703 124.719)"/></g><g><path d="m420.849 128.498h60.01v30.005h-60.01z" fill="#ffbe40" transform="matrix(.866 -.5 .5 .866 -11.357 244.609)"/></g><g><path d="m31.142 353.498h60.01v30.005h-60.01z" fill="#ffdf40" transform="matrix(.866 -.5 .5 .866 -176.031 79.921)"/></g><g><path d="m338.495 46.144h60.01v30.005h-60.01z" fill="#ffbe40" transform="matrix(.5 -.866 .866 .5 131.322 349.726)"/></g><g><path d="m113.495 435.851h60.01v30.005h-60.01z" fill="#ffdf40" transform="matrix(.5 -.866 .866 .5 -318.71 349.744)"/></g></g><g fill="#ffbe40"><path d="m256 451h15v61h-15z"/><path d="m256 0h15v61h-15z"/><path d="m355.272 395.16-18.969-110.537 80.332-78.281-110.991-16.128-49.644-100.591v253.345z"/></g></g></svg>