<svg id="Capa_1" enable-background="new 0 0 512 512" height="512" viewBox="0 0 512 512" width="512" xmlns="http://www.w3.org/2000/svg"><g><g><g><g><path d="m241 376h30v136h-30z" fill="#e8ab4c"/></g><g><path d="m241 496.553h30v15.447h-30z" fill="#e1763a"/></g><g><path d="m256 210.711 34.969-32.316-3.463 47.489 47.068 7.191-39.287 26.901 23.725 41.283-45.528-13.943-17.484 44.288-17.484-44.288-45.528 13.943 23.725-41.283-39.287-26.901 47.068-7.191-3.463-47.489z" fill="#faef93"/></g><g><g><path d="m260.869 261.823-4.869 12.334-4.8-12.16-11.675 3.684 7.443-12.952-11.757-8.051 11.348-1.733-3.203-43.919-22.325-20.631 3.463 47.489-47.068 7.191 39.287 26.901-23.725 41.283 45.528-13.944 17.484 44.289 17.484-44.289 45.528 13.944-15.516-26.999z" fill="#f6e23d"/></g></g><g><path d="m241 7.457h30v91.053h-30z" fill="#c4e5f9"/></g><g><path d="m241 75.149h30v23.362h-30z" fill="#a4d7f5"/></g><g><path d="m97.446 66.919h30v91.053h-30z" fill="#e2fc85" transform="matrix(.707 -.707 .707 .707 -46.577 112.446)"/></g><g><g><path d="m121.307 124.524h30v23.565h-30z" fill="#caf62e" transform="matrix(.707 -.707 .707 .707 -56.46 136.306)"/></g></g><g><path d="m97.446 354.027h30v91.053h-30z" fill="#e2fc85" transform="matrix(-.707 -.707 .707 -.707 -90.57 761.593)"/></g><g><path d="m76.955 408.783h22.524v30h-22.524z" fill="#caf62e" transform="matrix(.707 -.707 .707 .707 -273.822 186.503)"/></g><g><path d="m384.554 354.027h30v91.053h-30z" fill="#e2fc85" transform="matrix(-.707 .707 -.707 -.707 964.609 399.554)"/></g><g><g><path d="m408.794 412.549h30v22.491h-30z" fill="#caf62e" transform="matrix(.707 -.707 .707 .707 -175.541 423.796)"/></g></g><g><path d="m354.027 97.446h91.053v30h-91.053z" fill="#e2fc85" transform="matrix(.707 -.707 .707 .707 37.515 315.462)"/></g><g><path d="m363.911 121.307h23.565v30h-23.565z" fill="#caf62e" transform="matrix(.707 -.707 .707 .707 13.655 305.58)"/></g><g><path d="m7.457 241h91.053v30h-91.053z" fill="#c4e5f9"/></g><g><path d="m7.457 241h23.542v30h-23.542z" fill="#a4d7f5"/></g><g><path d="m444.016 210.473h30v91.053h-30z" fill="#c4e5f9" transform="matrix(0 1 -1 0 715.016 -203.016)"/></g><g><path d="m413.489 241h23.542v30h-23.542z" fill="#a4d7f5"/></g><g><circle cx="346" cy="46" fill="#e8ab4c" r="15"/></g><g><circle cx="45.999" cy="165.999" fill="#e8ab4c" r="15"/></g><g><circle cx="165.998" cy="466" fill="#e8ab4c" r="15"/></g><g><circle cx="465.999" cy="346.001" fill="#e8ab4c" r="15"/></g><g><circle cx="171.147" cy="43.867" fill="#faef93" r="15"/></g><g><circle cx="43.866" cy="340.852" fill="#faef93" r="15"/></g><g><circle cx="340.851" cy="468.133" fill="#faef93" r="15"/></g><g><circle cx="468.132" cy="171.148" fill="#faef93" r="15"/></g><g><path d="m248.5 136h15v14.999h-15z" fill="#e1763a"/></g><g><path d="m168.95 168.95h15v14.999h-15z" fill="#e1763a" transform="matrix(.707 -.707 .707 .707 -73.088 176.45)"/></g><g><path d="m135.999 248.499h14.999v15h-14.999z" fill="#e1763a"/></g><g><path d="m168.949 328.049h14.999v15h-14.999z" fill="#e1763a" transform="matrix(.707 -.707 .707 .707 -185.589 223.048)"/></g><g><path d="m328.048 328.051h15v14.999h-15z" fill="#e1763a" transform="matrix(.707 -.707 .707 .707 -138.99 335.549)"/></g><g><path d="m361 248.501h14.999v15h-14.999z" fill="#e1763a"/></g><g><path d="m328.05 168.951h14.999v15h-14.999z" fill="#e1763a" transform="matrix(.707 -.707 .707 .707 -26.49 288.951)"/></g></g></g><g><path d="m157.529 228.553 49.236 33.715-29.732 51.741 57.055-17.476 21.912 55.509 21.912-55.508 57.055 17.476-29.732-51.741 49.236-33.715-58.987-9.012 4.34-59.518-43.824 40.5-43.823-40.502 4.34 59.518zm98.471-7.606 26.103-24.124-2.585 35.451 35.135 5.368-29.326 20.082 17.709 30.819-33.985-10.409-13.051 33.062-13.051-33.062-33.985 10.409 17.709-30.819-29.326-20.082 35.135-5.368-2.585-35.451z"/><path d="m263.499 481.109h14.998v30.891h-14.998z"/><path d="m263.499 451.005h14.998v15.297h-14.998z"/><path d="m233.504 512h14.997v-128.489h14.998v52.41h14.997v-67.409h-44.992z"/><path d="m278.496 0h-44.993v106.044h44.993zm-14.997 91.046h-14.998v-76.047h14.998z"/><path d="m134.052 165.88 31.814-31.817-74.978-74.984-31.814 31.816zm10.605-31.817-10.605 10.606-53.769-53.774 10.605-10.605z"/><path d="m106.036 233.523h-60.002v14.999h45.004v14.999h-76.04v-14.999h16.039v-14.999h-31.037v44.996h106.036z"/><path d="m134.052 346.163-74.978 74.984 31.814 31.817 74.978-74.984zm-53.769 74.984 53.769-53.773 10.605 10.606-53.769 53.773z"/><path d="m377.948 346.163-31.814 31.817 74.978 74.984 31.814-31.817zm-10.605 31.816 10.605-10.606 53.769 53.773-10.605 10.606z"/><path d="m405.964 233.523v44.996h106.036v-44.996zm91.038 29.998h-76.041v-14.999h76.041z"/><path d="m377.948 165.88 74.978-74.985-31.814-31.816-21.343 21.345 10.605 10.605 10.738-10.739 10.605 10.605-53.769 53.774-10.605-10.606 32.181-32.184-10.605-10.605-42.785 42.789z"/><path d="m345.985 68.537c29.731-.946 29.723-44.055 0-44.996-29.73.945-29.723 44.055 0 44.996zm0-29.998c9.888.259 9.886 14.741 0 14.999-9.888-.259-9.886-14.741 0-14.999z"/><path d="m171.161 66.393c19.687.225 30.087-24.413 15.907-38.396-8.373-8.727-23.441-8.728-31.814 0-14.177 13.982-3.78 38.625 15.907 38.396zm-5.302-27.79c7.159-6.819 17.417 3.429 10.604 10.606-7.176 6.809-17.413-3.432-10.604-10.606z"/><path d="m23.538 166.028c.946 29.733 44.051 29.726 44.993 0-.946-29.733-44.052-29.726-44.993 0zm29.995 0c-.259 9.889-14.74 9.887-14.998 0 .26-9.889 14.74-9.887 14.998 0z"/><path d="m27.994 324.958c-8.727 8.374-8.728 23.443 0 31.817 8.771 8.772 23.044 8.772 31.814 0 20.353-21.69-10.128-52.173-31.814-31.817zm21.21 21.211c-7.18 6.814-17.422-3.448-10.605-10.606 7.175-6.809 17.413 3.433 10.605 10.606z"/><path d="m166.013 443.506c-29.731.946-29.723 44.055 0 44.996 29.73-.946 29.723-44.055 0-44.996zm0 29.997c-9.888-.259-9.886-14.741 0-14.999 9.888.26 9.886 14.741 0 14.999z"/><path d="m324.93 452.228c-14.178 13.984-3.779 38.624 15.907 38.396 5.761 0 11.522-2.193 15.908-6.579 20.352-21.691-10.13-52.172-31.815-31.817zm21.21 21.211c-7.175 6.809-17.414-3.432-10.605-10.606 7.176-6.809 17.412 3.433 10.605 10.606z"/><path d="m488.46 346.015c-.946-29.733-44.051-29.726-44.993 0 .946 29.733 44.052 29.726 44.993 0zm-29.995 0c.259-9.889 14.74-9.887 14.998 0-.259 9.889-14.74 9.887-14.998 0z"/><path d="m452.19 155.267c-14.127 13.979-3.966 38.514 15.907 38.407 12.091.249 22.746-10.405 22.496-22.498.105-19.874-24.428-30.037-38.403-15.909zm23.405 15.909c-.242 9.891-14.757 9.888-14.997 0 .242-9.89 14.756-9.888 14.997 0z"/><path d="m465.965 61.037h14.998v-14.998h14.997v-14.999h-14.997v-14.999h-14.998v14.999h-14.997v14.999h14.997z"/><path d="m31.035 61.037h14.997v-14.998h14.998v-14.999h-14.998v-14.999h-14.997v14.999h-14.998v14.999h14.998z"/><path d="m480.963 451.005h-14.998v14.999h-14.997v14.999h14.997v14.998h14.998v-14.998h14.997v-14.999h-14.997z"/><path d="m46.032 451.005h-14.997v14.999h-14.998v14.999h14.998v14.998h14.997v-14.998h14.998v-14.999h-14.998z"/></g></g></svg>