<svg id="Capa_1" enable-background="new 0 0 512 512" height="512" viewBox="0 0 512 512" width="512" xmlns="http://www.w3.org/2000/svg"><g><g><g><g><path d="m458.953 148.766c-57.397 54.092-138.921-27.521-84.853-84.854l-53.387-53.386-309.738 309.738 53.386 53.386c57.376-54.08 138.909 27.541 84.853 84.854l42.072 42.072 309.738-309.738z" fill="#faef93"/></g><g><g><path d="m336.806 26.62-16.093-16.093-309.738 309.737 53.386 53.386c5.566-5.236 12.032-9.764 18.989-12.854 48.031-21.325 100.495 31.588 78.341 79.538l-12.476 18.169 42.072 42.072 15.921-15.921-27.194-27.194c41.063-73.22-40.275-154.499-113.447-113.447l-23.578-23.578z" fill="#f6e23d"/></g></g><g><path d="m128.526 188.541h255v135h-255z" fill="#e8ab4c" transform="matrix(.707 -.707 .707 .707 -106.06 256.031)"/></g><g><path d="m149.849 298.534 164.491-164.492-15.887-15.887-180.313 180.313 95.46 95.459 15.82-15.82z" fill="#e1763a"/></g><g><path d="m227.793 228.006-6.51 20.531-12.336-17.656-21.538.153 12.98-17.188-6.801-20.437 20.358 7.033 17.335-12.783-.398 21.535 17.514 12.536z" fill="#a4d7f5"/></g><g><path d="m174.3 256.979h195.16v29.968h-195.16z" fill="#c4e5f9" transform="matrix(.707 -.707 .707 .707 -112.675 271.904)"/></g><g><path d="m199.583 318.017h22.516v29.968h-22.516z" fill="#a4d7f5" transform="matrix(.707 -.707 .707 .707 -173.714 246.623)"/></g><g><path d="m281.159 77.955h15.001v15h-15.001z" fill="#fff" transform="matrix(.707 -.707 .707 .707 24.121 229.142)"/></g><g><path d="m302.35 56.763h15v15h-15z" fill="#fff" transform="matrix(.707 -.707 .707 .707 45.304 237.907)"/></g></g></g><g><path d="m228.665 448.885h15.021v15.022h-15.021z" transform="matrix(.707 -.707 .707 .707 -253.539 300.655)"/><path d="m459.244 138.439c-20.752 24.561-55.531 28.222-78.984 5.314-23.586-23.302-20.234-58.701 4.631-79.668l-64.085-64.085-320.806 320.806 64.085 64.085c20.748-24.555 55.508-28.215 78.958-5.309 23.603 23.287 20.264 58.696-4.605 79.662l52.756 52.756 34.36-34.36-10.622-10.623-23.738 23.739-31.803-31.804c48.461-63.725-31.634-143.269-95.01-95.01l-43.137-43.137 299.562-299.562 43.133 43.133c-48.281 63.89 31.191 143.275 95.014 95.015l31.804 31.803-243.959 243.958 10.622 10.623 254.58-254.581z"/><path d="m159.02 246.829-51.7 51.7 32.109 32.11 10.622-10.623-21.488-21.487 41.079-41.078z"/><path d="m404.732 213.554-106.218-106.219-51.685 51.685 10.622 10.622 41.063-41.064 84.975 84.976-169.95 169.95-53.144-53.144-10.621 10.623 63.765 63.764z"/><path d="m204.983 238.384 18.808 26.92 9.927-31.303 31.415-9.569-26.704-19.113.607-32.834-26.431 19.491-31.039-10.723 10.369 31.159-19.791 26.208zm.446-32.997 9.735 3.363 8.29-6.112-.191 10.298 8.376 5.995-9.853 3.001-3.113 9.817-5.9-8.444-10.299.073 6.207-8.219z"/><path d="m213.414 362.317 148.82-148.819-31.843-31.843-148.82 148.818zm127.576-148.82-127.576 127.577-10.599-10.6 127.576-127.575z"/></g></g></svg>