<svg id="Capa_1" enable-background="new 0 0 512 512" height="512" viewBox="0 0 512 512" width="512" xmlns="http://www.w3.org/2000/svg"><g><g><g><g><path d="m458.518 158.548-202.465-7.654-202.475 7.654v345.969h404.94z" fill="#c4e5f9"/></g><g><path d="m53.578 67.479h404.94v91.069h-404.94z" fill="#e593b9"/></g><g><path d="m75.28 136.846v-69.367h-21.702v91.069h404.94v-21.702z" fill="#e27aa8"/></g><g><path d="m75.682 482.412v-323.864h-22.104v345.969h404.94v-22.105z" fill="#a4d7f5"/></g><g><path d="m128.473 7.894h30.144v104.62h-30.144z" fill="#faef93"/></g><g><path d="m128.473 88.34h30.144v24.173h-30.144z" fill="#f6e23d"/></g><g><path d="m353.414 7.894h30.144v104.62h-30.144z" fill="#faef93"/></g><g><path d="m353.414 88.34h30.144v24.173h-30.144z" fill="#f6e23d"/></g><g><path d="m181.02 90.111h15v15h-15z" fill="#fff"/></g><g><path d="m211.02 90.111h15v15h-15z" fill="#fff"/></g><g><path d="m256 210.29 39.394 79.821 88.087 12.8-63.74 62.132 15.047 87.731-78.788-41.421-78.788 41.421 15.047-87.731-63.74-62.132 88.087-12.8z" fill="#faef93"/></g><g><g><path d="m256 386.077-48.309 25.397 9.267-54.027-39.165-38.176 53.989-7.845 37.066-75.104-12.848-26.032-39.394 79.821-88.087 12.8 63.74 62.132-15.047 87.731 78.788-41.421 78.788 41.421-4.765-27.781z" fill="#f6e23d"/></g></g><g><path d="m256 279.389 19.218 38.94 42.973 6.245-31.095 30.311 7.34 42.799-38.436-20.207-38.436 20.207 7.34-42.799-31.095-30.311 42.973-6.245z" fill="#e8ab4c"/></g><g><path d="m289.768 370.464-33.768-17.753-10.052 5.285 1.935-11.282-8.026-7.823 11.478-1.668 16.604-33.643-11.939-24.191-19.218 38.94-42.973 6.245 31.095 30.31-.692 4.034-6.648 38.766 38.436-20.207 38.437 20.207z" fill="#e1763a"/></g></g></g><g><path d="m391.049 496.989h15.011v15.011h-15.011z"/><path d="m391.033 59.63v-59.63h-45.025v29.66h15.011v-14.649h15.003v89.686h-15.003v-60.026h-15.011v14.959h-180.005v-59.63h-45.177v59.63h-74.951v452.37h330.163v-15.011h-315.152v-331.213h44.955v-15.011h-44.955v-76.124h59.94v45.067h45.177v-45.067h180.005v45.067h45.025v-45.067h60.08v76.124h-330.26v15.011h330.261v331.213h-30.043v15.011h45.054c0-73.445 0-385.601 0-452.37zm-240.041 45.067h-15.155v-89.686h15.155z"/><path d="m300.359 283.071-44.407-89.978-44.407 89.978-99.297 14.43 71.852 70.038-16.962 98.896 88.814-46.692 88.814 46.692-16.963-98.896 71.853-70.038zm24.471 155.923-68.878-36.211-68.877 36.211 13.154-76.696-55.723-54.317 77.007-11.189 34.439-69.782 34.438 69.782 77.008 11.189-55.724 54.317z"/><path d="m280.168 311.309-24.216-49.068-24.217 49.068-54.15 7.868 39.183 38.195-9.25 53.931 48.433-25.463 48.433 25.463-9.25-53.931 39.183-38.195zm4.281 72.555-28.497-14.983-28.497 14.983 5.442-31.731-23.054-22.473 31.86-4.629 14.248-28.87 14.248 28.87 31.86 4.629-23.054 22.473z"/></g></g></svg>