<svg id="Capa_1" enable-background="new 0 0 511.606 511.606" height="512" viewBox="0 0 511.606 511.606" width="512" xmlns="http://www.w3.org/2000/svg"><g><g><g><g><path d="m120.521 0h296.598c8.284 0 15 6.716 15 15v342.268l-311.598 11.896-10-173.082z" fill="#bceaf9"/><path d="m417.119 0h-176.07v369.735l191.07-.491v-354.244c0-8.284-6.715-15-15-15z" fill="#8bb9ff"/></g><path d="m50.009 15v384.591l45.343-29.466 25.169-.961v-369.164h-55.512c-8.284 0-15 6.716-15 15z" fill="#ff936b"/></g><g><g><path d="m92.352 429.81h308.237v-59.685h-308.237c-16.481 0-29.842 13.361-29.842 29.842-.001 16.482 13.36 29.843 29.842 29.843z" fill="#f9f2f2"/><path d="m241.049 370.125h159.54v59.685h-159.54z" fill="#e7e2ee"/></g><g><path d="m420.089 444.937h-327.734c-25.004 0-45.346-20.342-45.346-45.346s20.342-45.346 45.346-45.346h327.734c8.284 0 15 6.716 15 15s-6.716 15-15 15h-327.734c-8.462 0-15.346 6.884-15.346 15.346s6.884 15.346 15.346 15.346h327.734c8.284 0 15 6.716 15 15s-6.715 15-15 15z" fill="#8bb9ff"/><g fill="#7d81e7"><path d="m241.049 384.245h179.04c8.284 0 15-6.716 15-15s-6.716-15-15-15h-179.04z"/><path d="m420.089 414.937h-179.04v30h179.04c8.284 0 15-6.716 15-15s-6.715-15-15-15z"/></g></g></g></g><g><g><g><path d="m414.157 510.216-28.944-13.315-15-16.901-15 16.9-28.945 13.315c-9.938 4.572-21.269-2.688-21.269-13.627v-135.964h130.427v135.964c0 10.939-11.331 18.199-21.269 13.628z" fill="#bee75e"/><path d="m370.213 360.624v119.376l15 16.9 28.944 13.315c9.938 4.572 21.269-2.688 21.269-13.627v-135.964z" fill="#00cb75"/></g><g><path d="m355.213 496.9 15-6.9 15 6.9v-136.276h-30z" fill="#f9f2f2"/><path d="m370.213 360.624v129.376l15 6.9v-136.276z" fill="#e7e2ee"/></g></g><g><path d="m464.597 314.571c0 11.984-13.927 21.112-18.249 31.533-4.48 10.803-1.255 27.066-9.396 35.207s-24.404 4.916-35.206 9.396c-10.421 4.321-19.549 18.249-31.533 18.249s-21.112-13.927-31.533-18.249c-10.803-4.48-27.065-1.255-35.206-9.396s-4.916-24.404-9.396-35.206c-4.321-10.421-18.249-19.549-18.249-31.533s13.927-21.112 18.249-31.533c4.48-10.803 1.255-27.066 9.396-35.207s24.404-4.916 35.206-9.396c10.421-4.321 19.549-18.249 31.533-18.249s21.112 13.927 31.533 18.249c10.803 4.48 27.065 1.255 35.207 9.396 8.141 8.141 4.916 24.404 9.396 35.206 4.32 10.421 18.248 19.549 18.248 31.533z" fill="#ffe278"/><path d="m446.348 283.038c-4.479-10.802-1.255-27.065-9.396-35.206s-24.404-4.917-35.207-9.396c-10.421-4.321-19.549-18.249-31.533-18.249v188.768c11.984 0 21.112-13.928 31.533-18.249 10.803-4.479 27.065-1.255 35.206-9.396s4.916-24.404 9.396-35.206c4.321-10.421 18.249-19.55 18.249-31.534s-13.927-21.112-18.248-31.532z" fill="#ffc178"/></g></g></g></svg>