<svg id="Capa_1" enable-background="new 0 0 511.844 511.844" height="512" viewBox="0 0 511.844 511.844" width="512" xmlns="http://www.w3.org/2000/svg"><g><g><g><g><g><path d="m465.997 374.833h-370.837c-34.317 0-62.136 27.819-62.136 62.136h-1.036v-421.969c0-8.284 6.716-15 15-15h404.01c8.284 0 15 6.716 15 15z" fill="#b08361"/><path d="m450.997 0h-195.575v374.833h210.575v-359.833c0-8.284-6.716-15-15-15z" fill="#8a5e4e"/></g><g><path d="m114.397 504.36h329.565v-135.03h-329.565c-37.287 0-67.515 30.227-67.515 67.515 0 37.288 30.227 67.515 67.515 67.515z" fill="#f9f2f2"/><path d="m255.422 369.33h188.54v135.029h-188.54z" fill="#e7e2ee"/></g><g><path d="m443.962 421.845h-337.821c-8.284 0-15 6.716-15 15s6.716 15 15 15h337.821z" fill="#e7e2ee"/><path d="m255.422 421.845h188.54v30h-188.54z" fill="#d5d3ea"/></g><g><path d="m464.962 511.844h-358.081c-41.354 0-74.999-33.645-74.999-74.999s33.645-74.999 74.999-74.999h358.081c8.284 0 15 6.716 15 15s-6.716 15-15 15h-358.081c-24.812 0-44.999 20.186-44.999 44.999s20.187 44.999 44.999 44.999h358.081c8.284 0 15 6.716 15 15s-6.716 15-15 15z" fill="#8a5e4e"/><g fill="#6f4242"><path d="m464.962 481.844h-209.54v30h209.54c8.284 0 15-6.716 15-15s-6.716-15-15-15z"/><path d="m255.422 391.846h209.54c8.284 0 15-6.716 15-15s-6.716-15-15-15h-209.54z"/></g></g></g><path d="m405.202 211.398h-36.427c-8.284 0-15-6.716-15-15s6.716-15 15-15h36.427c8.284 0 15 6.716 15 15s-6.715 15-15 15z" fill="#6f4242"/></g><g><g><path d="m327.469 133.858h133.493c8.284 0 15-6.716 15-15v-29.26c0-8.284-6.716-15-15-15h-133.493c-1.315 0-2.578.518-3.514 1.443l-24.938 24.63c-1.982 1.958-1.982 5.157 0 7.115l24.938 24.63c.936.923 2.198 1.442 3.514 1.442z" fill="#6f4242"/><path d="m370.416 74.599v59.258h30v-59.258-.001h-30z" fill="#ffc178"/></g><g><path d="m327.469 315.858h133.493c8.284 0 15-6.716 15-15v-29.259c0-8.284-6.716-15-15-15h-133.493c-1.315 0-2.578.518-3.514 1.443l-24.938 24.63c-1.982 1.958-1.982 5.157 0 7.115l24.938 24.63c.936.922 2.198 1.441 3.514 1.441z" fill="#6f4242"/><path d="m370.416 256.599h30v59.259h-30z" fill="#ffc178"/></g></g></g><g><path d="m310.41 181.398h-12.51v-5.652c0-8.284-6.716-15-15-15s-15 6.716-15 15v5.652h-61.577c-6.576-23.613-28.259-40.996-53.939-40.996-30.876 0-55.995 25.12-55.995 55.996s25.119 55.996 55.995 55.996c25.68 0 47.363-17.383 53.939-40.996h104.087c8.284 0 15-6.716 15-15s-6.715-15-15-15zm-158.026 40.996c-14.334 0-25.995-11.662-25.995-25.996s11.661-25.996 25.995-25.996 25.996 11.662 25.996 25.996-11.662 25.996-25.996 25.996z" fill="#ffe278"/><path d="m152.384 222.394c-14.334 0-25.995-11.662-25.995-25.996h-30c0 30.876 25.119 55.996 55.995 55.996 25.68 0 47.363-17.383 53.939-40.996h104.087c8.284 0 15-6.716 15-15h-147.03c0 14.334-11.662 25.996-25.996 25.996z" fill="#ffc178"/></g></g></svg>