<svg id="Capa_1" enable-background="new 0 0 512 512" height="512" viewBox="0 0 512 512" width="512" xmlns="http://www.w3.org/2000/svg"><g><g><path d="m255.9 138.005c-1.215-21.844-13.437-41.695-32.604-52.576l-146.998-83.452c-10-5.677-22.405 1.546-22.405 13.045v178.34h202.007v-55.368" fill="#f9f2f2"/><path d="m256.1 137.994c1.218-21.84 13.439-41.686 32.604-52.565l146.998-83.452c10-5.677 22.405 1.546 22.405 13.045v163.083h-202.007z" fill="#e7e2ee"/></g><g><g><path d="m319.691 512 184.561-101.945c4.78-2.64 7.747-7.669 7.747-13.13v-328.991c0-11.421-12.255-18.652-22.253-13.13l-170.056 93.933v363.263z" fill="#ff5c5c"/><path d="m192.309 512-184.562-101.945c-4.78-2.64-7.747-7.669-7.747-13.13v-328.991c0-11.421 12.255-18.652 22.253-13.13l170.056 93.933z" fill="#ff936b"/></g><g><g><path d="m192.309 148.736h127.382v363.264h-127.382z" fill="#ff5c5c"/><path d="m256.1 148.736h63.591v363.264h-63.591z" fill="#c1126b"/></g><g><g><path d="m192.309 433.266h127.382v30h-127.382z" fill="#ffe278"/><path d="m256.1 433.266h63.591v30h-63.591z" fill="#ffc178"/></g><g><path d="m192.309 199.572h127.382v30h-127.382z" fill="#ffe278"/><path d="m256.1 199.572h63.591v30h-63.591z" fill="#ffc178"/></g></g></g></g></g></svg>