<svg id="Capa_1" enable-background="new 0 0 512 512" height="512" viewBox="0 0 512 512" width="512" xmlns="http://www.w3.org/2000/svg"><g><g><g><g><path d="m73.512 43.532h236.598c8.284 0 15 6.716 15 15v322.268l-251.598 11.896-10-173.082z" fill="#bceaf9"/><path d="m310.11 43.532h-116.07v349.735l131.07-.491v-334.244c0-8.285-6.716-15-15-15z" fill="#8bb9ff"/></g><path d="m0 58.532v364.591l48.343-29.466 25.169-.961v-349.164h-55.512c-8.284 0-15 6.715-18 15z" fill="#ff936b"/></g><g><g><path d="m45.343 453.342h248.237v-59.685h-248.237c-16.482 0-29.843 13.361-29.843 29.842 0 16.482 13.361 29.843 29.843 29.843z" fill="#f9f2f2"/><path d="m194.04 393.657h99.54v59.685h-99.54z" fill="#e7e2ee"/></g><g><path d="m313.08 468.469h-267.734c-25.004 0-45.346-20.343-45.346-45.347s20.342-45.346 45.346-45.346h267.734c8.284 0 15 6.716 15 15s-6.716 15-15 15h-267.734c-8.462 0-15.346 6.884-15.346 15.346s6.884 15.346 15.346 15.346h267.734c8.284 0 15 6.716 15 15 0 8.285-6.716 15.001-15 15.001z" fill="#8bb9ff"/><g fill="#7d81e7"><path d="m194.04 407.776h119.04c8.284 0 15-6.716 15-15s-6.716-15-15-15h-119.04z"/><path d="m313.08 438.469h-119.04v30h119.04c8.284 0 15-6.716 15-15 0-8.285-6.716-15-15-15z"/></g></g></g></g><g><g><path d="m246.92 423.059v-241.59c0-8.284 6.716-15 15-15h116.055l10 128.295-10 98.44-85.712.39z" fill="#ffe278"/><path d="m494.03 166.469h-116.055v226.735l133.484 1.938v-207.164c0-4.321-.994-8.623-3.152-12.367-3.328-5.773-8.409-9.142-14.277-9.142z" fill="#ffc178"/></g><g><g><path d="m289.263 453.279h208.237v-59.685h-208.237c-16.482 0-29.842 13.361-29.842 29.842-.001 16.482 13.36 29.843 29.842 29.843z" fill="#f9f2f2"/><path d="m377.96 393.594h119.54v59.685h-119.54z" fill="#e7e2ee"/></g><g><path d="m377.96 468.405h-88.694c-25.004 0-45.346-20.342-45.346-45.346s20.342-45.346 45.346-45.346h88.709l10 15.491-10 14.509h-88.709c-8.462 0-15.346 6.884-15.346 15.346s6.884 15.346 15.346 15.346h88.694l10 14.874z" fill="#ffc178"/><g fill="#ff936b"><path d="m377.975 407.713h119.025c8.284 0 15-6.716 15-15s-6.716-15-15-15h-119.025z"/><path d="m497 438.405h-119.04v30h119.04c8.284 0 15-6.716 15-15s-6.716-15-15-15z"/></g></g></g></g></g></svg>