<svg id="Capa_1" enable-background="new 0 0 511.937 511.937" height="512" viewBox="0 0 511.937 511.937" width="512" xmlns="http://www.w3.org/2000/svg"><g><g><g><path d="m34.929 466.591v-451.591c0-8.284 6.716-15 15-15h412.11c8.284 0 15 6.716 15 15v409.268l-396.768 12.857z" fill="#bee75e"/><path d="m462.039 0h-206.07v436.735l221.07-.491v-421.244c0-8.284-6.716-15-15-15z" fill="#00cb75"/></g><g><g><path d="m77.271 496.81h368.237v-59.685h-368.237c-16.482 0-29.842 13.361-29.842 29.842 0 16.483 13.361 29.843 29.842 29.843z" fill="#f9f2f2"/><path d="m255.969 437.125h189.54v59.685h-189.54z" fill="#e7e2ee"/></g><g><path d="m465.009 511.937h-387.735c-25.004 0-45.346-20.342-45.346-45.346s20.342-45.346 45.346-45.346h387.734c8.284 0 15 6.716 15 15s-6.716 15-15 15h-387.734c-8.462 0-15.346 6.884-15.346 15.346s6.884 15.346 15.346 15.346h387.734c8.284 0 15 6.716 15 15 .001 8.284-6.715 15-14.999 15z" fill="#00cb75"/><g fill="#009398"><path d="m255.969 451.245h209.04c8.284 0 15-6.716 15-15s-6.716-15-15-15h-209.04z"/><path d="m465.009 481.937h-209.04v30h209.04c8.284 0 15-6.716 15-15s-6.716-15-15-15z"/></g></g></g></g><g><g><path d="m255.969 384.003c-69.608 0-126.238-56.63-126.238-126.238v-91.505c0-69.608 56.63-126.237 126.238-126.237s126.238 56.629 126.238 126.237v91.505c-.001 69.608-56.631 126.238-126.238 126.238z" fill="#ffe278"/><path d="m255.969 40.024v343.979c69.608 0 126.238-56.63 126.238-126.238v-91.505c-.001-69.607-56.631-126.236-126.238-126.236z" fill="#ffc178"/></g><g><g><g><path d="m255.969 355.47c-51.365 0-93.154-41.789-93.154-93.154v-93.514l93.154-9.511 93.154 9.511v64.748l-9.511 28.767 2.179 36.225c-14.162 33.422-47.299 56.928-85.822 56.928z" fill="#bceaf9"/><path d="m349.122 168.802-93.14-9.51v196.177c38.518-.006 71.648-23.51 85.808-56.928l-2.179-36.225 9.511-28.767z" fill="#8bb9ff"/></g><g><path d="m349.122 262.316v-28.767c-1.504-.235-3.044-.361-4.614-.361-9.892 0-18.648 4.844-24.04 12.285-2.421-15.531-15.852-27.416-32.062-27.416-17.923 0-32.452 14.53-32.452 32.452 0 .133.008.264.01.396h-1.461c-13.712 0-24.828 11.116-24.828 24.828s11.116 24.828 24.828 24.828h86.402c5.277-11.674 8.217-24.623 8.217-38.245z" fill="#f9f2f2"/><path d="m344.508 233.188c-9.892 0-18.648 4.844-24.04 12.285-2.421-15.531-15.852-27.416-32.062-27.416-17.533 0-31.81 13.907-32.423 31.29v51.215h84.922c5.278-11.675 8.217-24.623 8.217-38.246v-28.767c-1.504-.234-3.044-.361-4.614-.361z" fill="#e7e2ee"/></g></g><g><g><path d="m255.969 68.557c-51.365 0-93.154 41.788-93.154 93.154v7.091h186.308v-7.091c-.001-51.365-41.789-93.154-93.154-93.154z" fill="#f9f2f2"/><path d="m255.983 68.558v100.244h93.14v-7.091c-.001-51.36-41.782-93.146-93.14-93.153z" fill="#e7e2ee"/></g><g><path d="m241.702 168.802v-13.397c0-7.879 6.387-14.267 14.267-14.267 7.879 0 14.267 6.387 14.267 14.267v13.397z" fill="#e7e2ee"/><path d="m255.983 141.139v27.663h14.252v-13.397c0-7.874-6.38-14.258-14.252-14.266z" fill="#d5d3ea"/></g></g></g></g></g></svg>