<svg id="Capa_1" enable-background="new 0 0 511.937 511.937" height="512" viewBox="0 0 511.937 511.937" width="512" xmlns="http://www.w3.org/2000/svg"><g><g><g><path d="m34.929 466.591v-451.591c0-8.284 6.716-15 15-15h412.11c8.284 0 15 6.716 15 15v409.268l-396.768 12.857z" fill="#bee75e"/><path d="m462.039 0h-206.07v436.735l221.07-.491v-421.244c0-8.284-6.716-15-15-15z" fill="#00cb75"/></g><g><g><path d="m77.271 496.81h368.237v-59.685h-368.237c-16.482 0-29.843 13.361-29.843 29.842.001 16.483 13.362 29.843 29.843 29.843z" fill="#f9f2f2"/><path d="m255.969 437.125h189.54v59.685h-189.54z" fill="#e7e2ee"/></g><g><g><path d="m465.009 511.937h-387.735c-25.004 0-45.346-20.342-45.346-45.346s20.342-45.346 45.346-45.346h387.734c8.284 0 15 6.716 15 15s-6.716 15-15 15h-387.734c-8.462 0-15.346 6.884-15.346 15.346s6.884 15.346 15.346 15.346h387.734c8.284 0 15 6.716 15 15 .001 8.284-6.715 15-14.999 15z" fill="#00cb75"/></g><g fill="#009398"><path d="m255.969 451.245h209.04c8.284 0 15-6.716 15-15s-6.716-15-15-15h-209.04z"/><path d="m465.009 481.937h-209.04v30h209.04c8.284 0 15-6.716 15-15s-6.716-15-15-15z"/></g></g></g></g><g><g><path d="m159.111 133.618c-3.839 0-7.678-1.464-10.607-4.394l-10.17-10.171c-5.857-5.858-5.857-15.355.001-21.213s15.355-5.858 21.213 0l10.17 10.171c5.857 5.858 5.857 15.355-.001 21.213-2.929 2.929-6.768 4.394-10.606 4.394z" fill="#f9f2f2"/><path d="m119.148 230.725h-14.644c-8.284 0-15-6.716-15-15s6.716-15 15-15h14.644c8.284 0 15 6.716 15 15s-6.716 15-15 15z" fill="#f9f2f2"/><path d="m407.933 230.725h-14.644c-8.284 0-15-6.716-15-15s6.716-15 15-15h14.644c8.284 0 15 6.716 15 15s-6.716 15-15 15z" fill="#e7e2ee"/><path d="m353.326 133.618c-3.839 0-7.677-1.464-10.607-4.394-5.858-5.857-5.858-15.354 0-21.213l10.171-10.171c5.857-5.857 15.355-5.859 21.213 0 5.858 5.857 5.858 15.354.001 21.213l-10.17 10.171c-2.929 2.929-6.769 4.394-10.608 4.394z" fill="#e7e2ee"/><g><path d="m256.219 93.193c-8.284 0-15-6.716-15-15v-14.182c0-8.284 6.716-15 15-15s15 6.716 15 15v14.182c0 8.284-6.716 15-15 15z" fill="#f9f2f2"/><path d="m256.219 49.011c-.084 0-.166.011-.25.013v44.156c.084.002.166.013.25.013 8.284 0 15-6.716 15-15v-14.182c0-8.284-6.716-15-15-15z" fill="#e7e2ee"/></g></g><g><g><path d="m220.478 297.966v46.189c0 19.463 15.778 35.24 35.24 35.24 19.463 0 35.24-15.777 35.24-35.24v-46.189c34.567-14.145 58.747-48.452 57.871-88.31-1.064-48.42-39.71-88.359-88.074-90.905-53.723-2.829-98.171 39.896-98.171 93.001.001 38.962 23.934 72.317 57.894 86.214z" fill="#ffe278"/><path d="m348.829 209.656c-1.064-48.42-39.71-88.359-88.074-90.905-1.604-.084-3.2-.126-4.787-.13v260.768c19.347-.135 34.99-15.855 34.99-35.234v-46.189c34.568-14.145 58.747-48.452 57.871-88.31z" fill="#ffc178"/></g><g><path d="m274.429 187.085h-36.922c-8.284 0-15 6.716-15 15s6.716 15 15 15h3.461v104.97c0 8.284 6.716 15 15 15s15-6.716 15-15v-104.97h3.461c8.284 0 15-6.716 15-15s-6.715-15-15-15z" fill="#f9f2f2"/><path d="m274.429 187.085h-18.461v149.97c8.284 0 15-6.716 15-15v-104.97h3.461c8.284 0 15-6.716 15-15s-6.715-15-15-15z" fill="#e7e2ee"/></g><g><path d="m220.478 344.155c0 19.463 15.778 35.24 35.24 35.24 19.463 0 35.24-15.778 35.24-35.24v-46.189h-70.48z" fill="#e7e2ee"/><path d="m255.969 297.966v81.423c19.347-.135 34.99-15.855 34.99-35.234v-46.189z" fill="#d5d3ea"/></g></g></g></g></svg>