<svg id="Capa_1" enable-background="new 0 0 511.844 511.844" height="512" viewBox="0 0 511.844 511.844" width="512" xmlns="http://www.w3.org/2000/svg"><g><g><g><path d="m465.997 374.833h-370.837c-34.317 0-62.136 27.819-62.136 62.136h-1.036v-421.969c0-8.284 6.716-15 15-15h404.01c8.284 0 15 6.716 15 15z" fill="#ffe278"/><path d="m450.997 0h-195.575v374.833h210.575v-359.833c0-8.284-6.716-15-15-15z" fill="#ffc178"/></g><g><path d="m114.397 504.36h329.565v-135.03h-329.565c-37.287 0-67.515 30.227-67.515 67.515 0 37.288 30.227 67.515 67.515 67.515z" fill="#f9f2f2"/><path d="m255.422 369.33h188.54v135.029h-188.54z" fill="#e7e2ee"/></g><g><path d="m443.962 421.845h-337.821c-8.284 0-15 6.716-15 15s6.716 15 15 15h337.821z" fill="#e7e2ee"/><path d="m255.422 421.845h188.54v30h-188.54z" fill="#d5d3ea"/></g><g><g><path d="m464.962 511.844h-358.081c-41.354 0-74.999-33.644-74.999-74.999 0-41.354 33.644-74.999 74.999-74.999h358.081c8.284 0 15 6.716 15 15s-6.716 15-15 15h-358.081c-24.812 0-44.999 20.187-44.999 44.999 0 24.813 20.186 44.999 44.999 44.999h358.081c8.284 0 15 6.716 15 15s-6.716 15-15 15z" fill="#ffc178"/></g><g fill="#ff936b"><path d="m464.962 481.844h-209.54v30h209.54c8.284 0 15-6.716 15-15s-6.716-15-15-15z"/><path d="m255.422 391.846h209.54c8.284 0 15-6.716 15-15s-6.716-15-15-15h-209.54z"/></g></g></g><g><g><g><path d="m266.383 256.454c-13.575 11.884-13.654 26.166-4.992 36.085s22.784 11.719 36.359-.165c9.567-8.376 12.007-26.24 12.613-36.058.241-3.893-2.701-7.259-6.591-7.544-9.806-.717-27.823-.693-37.389 7.682z" fill="#bee75e"/><g><path d="m255.236 188.059c-8.284 0-15 6.716-15 15v113.725c0 8.284 6.716 15 15 15s15-6.716 15-15v-113.725c.001-8.284-6.715-15-15-15z" fill="#bee75e"/><path d="m255.422 188.068v143.706c8.198-.1 14.815-6.769 14.815-14.991v-113.724c0-8.222-6.617-14.89-14.815-14.991z" fill="#00cb75"/></g></g><g><g><path d="m280.928 43.414c-11.336-18.122-39.676-18.122-51.012 0l-18.811 30.093 44.317 68.703 44.347-68.632z" fill="#ff5c5c"/><path d="m280.928 43.414c-5.668-9.061-15.587-13.592-25.506-13.592v112.388l44.347-68.632z" fill="#991d3d"/></g><g><path d="m255.435 111.261c15.189-24.254 41.316-41.585 71.264-44.469 8.705 0 15.763 7.057 15.763 15.763v31.542c0 42.035-29.455 76.728-72.931 85.785" fill="#c1126b"/><g><path d="m168.383 114.097c0 48.04 38.894 86.983 86.873 86.983 4.864 0 9.628-.419 14.274-1.189v-38.884c0-49.187-37.469-89.601-85.385-94.215-8.706 0-15.763 7.057-15.763 15.763v31.542z" fill="#ff936b"/><path d="m255.422 111.258v89.819c4.806-.009 9.515-.425 14.109-1.185v-38.884c0-18.254-5.169-35.294-14.109-49.75z" fill="#ff5c5c"/></g></g></g></g></g></g></svg>