<svg id="Capa_1" enable-background="new 0 0 511.844 511.844" height="512" viewBox="0 0 511.844 511.844" width="512" xmlns="http://www.w3.org/2000/svg"><g><g><g><path d="m465.997 374.833h-370.837c-34.317 0-62.136 27.819-62.136 62.136h-1.036v-421.969c0-8.284 6.716-15 15-15h404.01c8.284 0 15 6.716 15 15z" fill="#bceaf9"/><path d="m450.997 0h-195.575v374.833h210.575v-359.833c0-8.284-6.716-15-15-15z" fill="#8bb9ff"/></g><g><path d="m114.397 504.36h329.565v-135.03h-329.565c-37.287 0-67.515 30.227-67.515 67.515 0 37.288 30.227 67.515 67.515 67.515z" fill="#f9f2f2"/><path d="m255.422 369.33h188.54v135.029h-188.54z" fill="#e7e2ee"/></g><g><path d="m443.962 421.845h-337.821c-8.284 0-15 6.716-15 15s6.716 15 15 15h337.821z" fill="#e7e2ee"/><path d="m255.422 421.845h188.54v30h-188.54z" fill="#d5d3ea"/></g><g><g><path d="m464.962 511.844h-358.081c-41.354 0-74.999-33.645-74.999-74.999s33.645-74.999 74.999-74.999h358.081c8.284 0 15 6.716 15 15s-6.716 15-15 15h-358.081c-24.812 0-44.999 20.186-44.999 44.999s20.187 44.999 44.999 44.999h358.081c8.284 0 15 6.716 15 15s-6.716 15-15 15z" fill="#8bb9ff"/></g><g fill="#7d81e7"><path d="m464.962 481.844h-209.54v30h209.54c8.284 0 15-6.716 15-15s-6.716-15-15-15z"/><path d="m255.422 391.846h209.54c8.284 0 15-6.716 15-15s-6.716-15-15-15h-209.54z"/></g></g></g><g><g><g><path d="m324.322 76.648c-31.605 0-58.419 21.409-68.4 51.245-9.98-29.836-36.795-51.245-68.4-51.245-40.108 0-72.345 34.418-72.622 76.874-.435 66.535 103.667 134.08 133.262 151.933 4.77 2.877 10.744 2.868 15.505-.023 29.452-17.888 132.841-85.404 133.276-151.909.278-42.457-32.513-76.875-72.621-76.875z" fill="#ff936b"/></g><path d="m324.322 76.648c-31.605 0-58.419 21.409-68.4 51.245-.158-.474-.333-.939-.5-1.408v181.105c2.849.09 5.718-.624 8.245-2.159 29.452-17.888 132.841-85.404 133.276-151.909.278-42.456-32.513-76.874-72.621-76.874z" fill="#ff5c5c"/></g><g><path d="m390.976 188.558c-17.363 0-32.095 11.762-37.578 28.153-5.483-16.391-20.215-28.153-37.578-28.153-22.035 0-39.745 18.909-39.897 42.233-.223 34.155 49.697 68.796 69.512 81.195 4.868 3.046 11.052 3.037 15.91-.023 19.715-12.419 69.304-47.038 69.528-81.172.152-23.324-17.863-42.233-39.897-42.233z" fill="#c1126b"/></g></g></g></svg>