<svg id="Capa_1" enable-background="new 0 0 512 512" height="512" viewBox="0 0 512 512" width="512" xmlns="http://www.w3.org/2000/svg"><g><path d="m502.024 185.644c5.977-2.124 9.976-7.793 9.976-14.136v-95.508c0-8.291-6.709-15-15-15h-241-241c-8.291 0-15 6.709-15 15v95.508c0 6.343 3.999 12.012 9.976 14.136 29.926 10.634 50.024 38.92 50.024 70.356s-20.098 59.722-50.024 70.356c-5.977 2.124-9.976 7.793-9.976 14.136v95.508c0 8.291 6.709 15 15 15h241 241c8.291 0 15-6.709 15-15v-95.508c0-6.343-3.999-12.012-9.976-14.136-29.926-10.634-50.024-38.92-50.024-70.356s20.098-59.722 50.024-70.356z" fill="#ff6a4d"/><path d="m512 436v-95.508c0-6.343-3.999-12.012-9.976-14.136-29.926-10.634-50.024-38.92-50.024-70.356s20.098-59.722 50.024-70.356c5.977-2.124 9.976-7.793 9.976-14.136v-95.508c0-8.291-6.709-15-15-15h-241v390h241c8.291 0 15-6.709 15-15z" fill="#e64545"/><path d="m392 256c0-41.953 20.186-82.178 54.009-107.593 3.779-2.842 5.991-7.69 5.991-12.407 0-8.291-6.709-15-15-15h-181-181c-8.291 0-15 7.119-15 15.41 0 4.717 2.212 9.155 5.991 11.997 33.823 25.415 54.009 65.64 54.009 107.593s-20.186 82.178-54.009 107.593c-3.779 2.842-5.991 7.28-5.991 11.997v.41c0 8.291 6.709 15 15 15h181 181c8.291 0 15-7.119 15-15.41 0-4.717-2.212-9.155-5.991-11.997-33.823-25.415-54.009-65.64-54.009-107.593z" fill="#f3f5f9"/><path d="m452 375.59c0-4.717-2.212-9.155-5.991-11.997-33.823-25.415-54.009-65.64-54.009-107.593s20.186-82.178 54.009-107.593c3.779-2.842 5.991-7.69 5.991-12.407 0-8.291-6.709-15-15-15h-181v270h181c8.291 0 15-7.119 15-15.41z" fill="#e1e6f0"/><path d="m337.636 236.225c-1.772-5.42-6.46-9.375-12.114-10.195l-38.745-5.625-17.329-35.112c-2.52-5.127-7.983-7.69-13.447-7.69s-10.928 2.563-13.447 7.69l-17.329 35.112-38.745 5.625c-5.654.82-10.342 4.775-12.114 10.195-1.758 5.435-.293 11.396 3.794 15.381l28.052 27.334-6.621 38.599c-.967 5.625 1.348 11.309 5.962 14.663 4.629 3.384 10.781 3.809 15.791 1.143l34.656-18.209 34.658 18.208c4.979 2.639 11.142 2.252 15.791-1.143 4.614-3.354 6.929-9.038 5.962-14.663l-6.621-38.599 28.052-27.334c4.087-3.984 5.552-9.946 3.794-15.38z" fill="#ffdf80"/><path d="m306.449 332.201c4.614-3.354 6.929-9.038 5.962-14.663l-6.621-38.599 28.052-27.334c4.087-3.984 5.552-9.946 3.794-15.381-1.772-5.42-6.46-9.375-12.114-10.195l-38.745-5.625-17.329-35.112c-2.52-5.127-7.983-7.69-13.447-7.69v137.534l34.658 18.208c4.978 2.638 11.141 2.252 15.79-1.143z" fill="#ffc44d"/></g></svg>