<?xml version="1.0" encoding="utf-8"?>
<!-- Generator: Adobe Illustrator 16.0.0, SVG Export Plug-In . SVG Version: 6.00 Build 0)  -->
<!DOCTYPE svg PUBLIC "-//W3C//DTD SVG 1.1//EN" "http://www.w3.org/Graphics/SVG/1.1/DTD/svg11.dtd">
<svg version="1.1" xmlns="http://www.w3.org/2000/svg" xmlns:xlink="http://www.w3.org/1999/xlink" x="0px" y="0px" width="1400px"
	 height="980px" viewBox="0 0 1400 980" enable-background="new 0 0 1400 980" xml:space="preserve">
<g id="Line_art" display="none">
	<g display="inline">
		
			<polygon fill="none" stroke="#0D0E1F" stroke-width="8" stroke-linecap="round" stroke-linejoin="round" stroke-miterlimit="10" points="
			366.487,141.253 198.487,141.253 198.487,364.253 384.487,364.253 384.487,171.253 		"/>
		
			<line fill="none" stroke="#0D0E1F" stroke-width="5" stroke-linecap="round" stroke-linejoin="round" stroke-miterlimit="10" x1="229.82" y1="156.586" x2="229.82" y2="207.92"/>
		
			<line fill="none" stroke="#0D0E1F" stroke-width="5" stroke-linecap="round" stroke-linejoin="round" stroke-miterlimit="10" x1="229.82" y1="231.92" x2="229.82" y2="349.253"/>
		<g>
			<circle cx="214.404" cy="161.421" r="4.417"/>
			<circle cx="214.404" cy="184.254" r="4.417"/>
			<circle cx="214.404" cy="207.087" r="4.417"/>
			<circle cx="214.404" cy="229.92" r="4.417"/>
			<circle cx="214.404" cy="252.753" r="4.417"/>
			<circle cx="214.404" cy="275.586" r="4.417"/>
			<circle cx="214.404" cy="298.419" r="4.417"/>
			<circle cx="214.404" cy="321.252" r="4.417"/>
			<circle cx="214.404" cy="344.085" r="4.417"/>
		</g>
		
			<line fill="none" stroke="#0D0E1F" stroke-width="3" stroke-linecap="round" stroke-linejoin="round" stroke-miterlimit="10" x1="250.82" y1="165.837" x2="306.154" y2="165.837"/>
		
			<line fill="none" stroke="#0D0E1F" stroke-width="3" stroke-linecap="round" stroke-linejoin="round" stroke-miterlimit="10" x1="250.82" y1="182.253" x2="358.154" y2="182.253"/>
		
			<line fill="none" stroke="#0D0E1F" stroke-width="3" stroke-linecap="round" stroke-linejoin="round" stroke-miterlimit="10" x1="250.82" y1="195.586" x2="358.154" y2="195.586"/>
		
			<line fill="none" stroke="#0D0E1F" stroke-width="3" stroke-linecap="round" stroke-linejoin="round" stroke-miterlimit="10" x1="250.82" y1="208.92" x2="358.154" y2="208.92"/>
		
			<line fill="none" stroke="#0D0E1F" stroke-width="3" stroke-linecap="round" stroke-linejoin="round" stroke-miterlimit="10" x1="250.82" y1="222.253" x2="358.154" y2="222.253"/>
		
			<line fill="none" stroke="#0D0E1F" stroke-width="3" stroke-linecap="round" stroke-linejoin="round" stroke-miterlimit="10" x1="250.82" y1="235.587" x2="358.154" y2="235.587"/>
		
			<line fill="none" stroke="#0D0E1F" stroke-width="3" stroke-linecap="round" stroke-linejoin="round" stroke-miterlimit="10" x1="250.82" y1="248.92" x2="358.154" y2="248.92"/>
		
			<line fill="none" stroke="#0D0E1F" stroke-width="3" stroke-linecap="round" stroke-linejoin="round" stroke-miterlimit="10" x1="250.82" y1="262.254" x2="358.154" y2="262.254"/>
		
			<line fill="none" stroke="#0D0E1F" stroke-width="3" stroke-linecap="round" stroke-linejoin="round" stroke-miterlimit="10" x1="250.82" y1="275.587" x2="358.154" y2="275.587"/>
		
			<line fill="none" stroke="#0D0E1F" stroke-width="3" stroke-linecap="round" stroke-linejoin="round" stroke-miterlimit="10" x1="250.82" y1="288.921" x2="358.154" y2="288.921"/>
		
			<line fill="none" stroke="#0D0E1F" stroke-width="3" stroke-linecap="round" stroke-linejoin="round" stroke-miterlimit="10" x1="250.82" y1="302.254" x2="358.154" y2="302.254"/>
		
			<line fill="none" stroke="#0D0E1F" stroke-width="3" stroke-linecap="round" stroke-linejoin="round" stroke-miterlimit="10" x1="250.82" y1="315.588" x2="358.154" y2="315.588"/>
		
			<line fill="none" stroke="#0D0E1F" stroke-width="3" stroke-linecap="round" stroke-linejoin="round" stroke-miterlimit="10" x1="250.82" y1="328.921" x2="358.154" y2="328.921"/>
		
			<line fill="none" stroke="#0D0E1F" stroke-width="3" stroke-linecap="round" stroke-linejoin="round" stroke-miterlimit="10" x1="250.82" y1="342.255" x2="358.154" y2="342.255"/>
	</g>
	<g display="inline">
		<path fill="none" stroke="#0D0E1F" stroke-width="8" stroke-linejoin="round" stroke-miterlimit="10" d="M592.217,364.253h-111.99
			c-6.489,0-11.739-5.21-11.739-11.63v-199.74c0-6.42,5.25-11.63,11.739-11.63h149.591c6.479,0,11.739,5.21,11.739,11.63v171.704"/>
		<g>
			<path fill="#0D0E1F" d="M499.854,149.753c0,2.669-2.164,4.833-4.833,4.833l0,0c-2.67,0-4.834-2.164-4.834-4.833v-16
				c0-2.669,2.164-4.833,4.834-4.833l0,0c2.669,0,4.833,2.164,4.833,4.833V149.753z"/>
			<path fill="#0D0E1F" d="M523.854,149.753c0,2.669-2.164,4.833-4.833,4.833l0,0c-2.67,0-4.834-2.164-4.834-4.833v-16
				c0-2.669,2.164-4.833,4.834-4.833l0,0c2.669,0,4.833,2.164,4.833,4.833V149.753z"/>
			<path fill="#0D0E1F" d="M547.854,149.753c0,2.669-2.164,4.833-4.833,4.833l0,0c-2.67,0-4.834-2.164-4.834-4.833v-16
				c0-2.669,2.164-4.833,4.834-4.833l0,0c2.669,0,4.833,2.164,4.833,4.833V149.753z"/>
			<path fill="#0D0E1F" d="M571.854,149.753c0,2.669-2.164,4.833-4.833,4.833l0,0c-2.67,0-4.834-2.164-4.834-4.833v-16
				c0-2.669,2.164-4.833,4.834-4.833l0,0c2.669,0,4.833,2.164,4.833,4.833V149.753z"/>
			<path fill="#0D0E1F" d="M595.854,149.753c0,2.669-2.164,4.833-4.833,4.833l0,0c-2.67,0-4.834-2.164-4.834-4.833v-16
				c0-2.669,2.164-4.833,4.834-4.833l0,0c2.669,0,4.833,2.164,4.833,4.833V149.753z"/>
			<path fill="#0D0E1F" d="M619.854,149.753c0,2.669-2.164,4.833-4.833,4.833l0,0c-2.67,0-4.834-2.164-4.834-4.833v-16
				c0-2.669,2.164-4.833,4.834-4.833l0,0c2.669,0,4.833,2.164,4.833,4.833V149.753z"/>
		</g>
		
			<line fill="none" stroke="#0D0E1F" stroke-width="5" stroke-linecap="round" stroke-linejoin="round" stroke-miterlimit="10" x1="468.488" y1="179.837" x2="641.554" y2="179.837"/>
		<path fill="none" stroke="#0D0E1F" stroke-width="8" stroke-linecap="round" stroke-linejoin="round" stroke-miterlimit="10" d="
			M592.221,364.253c0,0,8.333-17.333,13-28c4.666-10.667,16.333-11.667,16.333-11.667h20
			C641.554,324.586,631.887,364.253,592.221,364.253z"/>
		
			<line fill="none" stroke="#0D0E1F" stroke-width="3" stroke-linecap="round" stroke-linejoin="round" stroke-miterlimit="10" x1="485.887" y1="200.92" x2="530.554" y2="200.92"/>
		
			<line fill="none" stroke="#0D0E1F" stroke-width="3" stroke-linecap="round" stroke-linejoin="round" stroke-miterlimit="10" x1="485.887" y1="224.92" x2="619.854" y2="224.92"/>
		
			<line fill="none" stroke="#0D0E1F" stroke-width="3" stroke-linecap="round" stroke-linejoin="round" stroke-miterlimit="10" x1="485.887" y1="241.92" x2="619.854" y2="241.92"/>
		
			<line fill="none" stroke="#0D0E1F" stroke-width="3" stroke-linecap="round" stroke-linejoin="round" stroke-miterlimit="10" x1="485.887" y1="258.921" x2="619.854" y2="258.921"/>
		
			<line fill="none" stroke="#0D0E1F" stroke-width="3" stroke-linecap="round" stroke-linejoin="round" stroke-miterlimit="10" x1="485.887" y1="275.921" x2="619.854" y2="275.921"/>
		
			<line fill="none" stroke="#0D0E1F" stroke-width="3" stroke-linecap="round" stroke-linejoin="round" stroke-miterlimit="10" x1="485.887" y1="292.922" x2="619.854" y2="292.922"/>
		
			<line fill="none" stroke="#0D0E1F" stroke-width="3" stroke-linecap="round" stroke-linejoin="round" stroke-miterlimit="10" x1="485.887" y1="309.922" x2="619.854" y2="309.922"/>
		
			<line fill="none" stroke="#0D0E1F" stroke-width="3" stroke-linecap="round" stroke-linejoin="round" stroke-miterlimit="10" x1="485.887" y1="326.923" x2="612.188" y2="326.923"/>
	</g>
	<g display="inline">
		<g>
			<path fill="#0D0E1F" d="M759.021,128.919c-2.67,0-4.834,2.164-4.834,4.833v16c0,2.669,2.164,4.833,4.834,4.833
				c2.668,0,4.832-2.164,4.832-4.833v-16C763.854,131.083,761.689,128.919,759.021,128.919z"/>
			<path fill="#0D0E1F" d="M783.021,128.919c-2.67,0-4.834,2.164-4.834,4.833v16c0,2.669,2.164,4.833,4.834,4.833
				c2.669,0,4.833-2.164,4.833-4.833v-16C787.854,131.083,785.69,128.919,783.021,128.919z"/>
			<path fill="#0D0E1F" d="M807.022,128.919c-2.67,0-4.834,2.164-4.834,4.833v16c0,2.669,2.164,4.833,4.834,4.833
				c2.668,0,4.832-2.164,4.832-4.833v-16C811.854,131.083,809.69,128.919,807.022,128.919z"/>
			<path fill="#0D0E1F" d="M831.022,128.919c-2.67,0-4.834,2.164-4.834,4.833v16c0,2.669,2.164,4.833,4.834,4.833
				c2.668,0,4.832-2.164,4.832-4.833v-16C835.854,131.083,833.69,128.919,831.022,128.919z"/>
			<path fill="#0D0E1F" d="M855.022,128.919c-2.67,0-4.834,2.164-4.834,4.833v16c0,2.669,2.164,4.833,4.834,4.833
				c2.668,0,4.832-2.164,4.832-4.833v-16C859.854,131.083,857.69,128.919,855.022,128.919z"/>
			<path fill="#0D0E1F" d="M879.022,128.919c-2.67,0-4.834,2.164-4.834,4.833v16c0,2.669,2.164,4.833,4.834,4.833
				c2.668,0,4.832-2.164,4.832-4.833v-16C883.854,131.083,881.69,128.919,879.022,128.919z"/>
			<path fill="#0D0E1F" d="M903.022,128.919c-2.67,0-4.834,2.164-4.834,4.833v16c0,2.669,2.164,4.833,4.834,4.833
				c2.668,0,4.832-2.164,4.832-4.833v-16C907.854,131.083,905.69,128.919,903.022,128.919z"/>
			<path fill="#0D0E1F" d="M927.022,128.919c-2.67,0-4.834,2.164-4.834,4.833v16c0,2.669,2.164,4.833,4.834,4.833
				c2.668,0,4.832-2.164,4.832-4.833v-16C931.854,131.083,929.69,128.919,927.022,128.919z"/>
		</g>
		<path fill="none" stroke="#0D0E1F" stroke-width="8" stroke-linejoin="round" stroke-miterlimit="10" d="M960.022,352.253
			c0,6.627-5.373,12-12,12H738.021c-6.627,0-12-5.373-12-12v-198.5c0-6.627,5.373-12,12-12h210.001c6.627,0,12,5.373,12,12V352.253z
			"/>
		
			<line fill="none" stroke="#0D0E1F" stroke-width="5" stroke-linecap="round" stroke-linejoin="round" stroke-miterlimit="10" x1="726.021" y1="173.501" x2="960.022" y2="173.501"/>
		
			<line fill="none" stroke="#0D0E1F" stroke-width="3" stroke-linecap="round" stroke-linejoin="round" stroke-miterlimit="10" x1="748.521" y1="199.501" x2="937.522" y2="199.501"/>
		
			<line fill="none" stroke="#0D0E1F" stroke-width="3" stroke-linecap="round" stroke-linejoin="round" stroke-miterlimit="10" x1="748.521" y1="220.836" x2="937.522" y2="220.836"/>
		
			<line fill="none" stroke="#0D0E1F" stroke-width="3" stroke-linecap="round" stroke-linejoin="round" stroke-miterlimit="10" x1="748.521" y1="242.171" x2="937.522" y2="242.171"/>
		
			<line fill="none" stroke="#0D0E1F" stroke-width="3" stroke-linecap="round" stroke-linejoin="round" stroke-miterlimit="10" x1="748.521" y1="263.506" x2="937.522" y2="263.506"/>
		
			<line fill="none" stroke="#0D0E1F" stroke-width="3" stroke-linecap="round" stroke-linejoin="round" stroke-miterlimit="10" x1="748.521" y1="284.841" x2="937.522" y2="284.841"/>
		
			<line fill="none" stroke="#0D0E1F" stroke-width="3" stroke-linecap="round" stroke-linejoin="round" stroke-miterlimit="10" x1="748.521" y1="306.176" x2="937.522" y2="306.176"/>
		
			<line fill="none" stroke="#0D0E1F" stroke-width="3" stroke-linecap="round" stroke-linejoin="round" stroke-miterlimit="10" x1="748.521" y1="327.511" x2="937.522" y2="327.511"/>
	</g>
	<g display="inline">
		<path fill="none" stroke="#0D0E1F" stroke-width="8" stroke-linejoin="round" stroke-miterlimit="10" d="M1201.514,351.685
			c0,6.941-5.373,12.568-12,12.568h-133.492c-6.627,0-12-5.627-12-12.568V153.821c0-6.941,5.373-12.568,12-12.568h133.492
			c6.627,0,12,5.627,12,12.568V351.685z"/>
		<g>
			
				<line fill="none" stroke="#0D0E1F" stroke-width="5" stroke-linecap="round" stroke-linejoin="round" stroke-miterlimit="10" x1="1068.768" y1="128.419" x2="1068.768" y2="154.086"/>
			
				<line fill="none" stroke="#0D0E1F" stroke-width="5" stroke-linecap="round" stroke-linejoin="round" stroke-miterlimit="10" x1="1080.768" y1="128.419" x2="1080.768" y2="154.086"/>
			
				<line fill="none" stroke="#0D0E1F" stroke-width="5" stroke-linecap="round" stroke-linejoin="round" stroke-miterlimit="10" x1="1092.768" y1="128.419" x2="1092.768" y2="154.086"/>
			
				<line fill="none" stroke="#0D0E1F" stroke-width="5" stroke-linecap="round" stroke-linejoin="round" stroke-miterlimit="10" x1="1104.768" y1="128.419" x2="1104.768" y2="154.086"/>
			
				<line fill="none" stroke="#0D0E1F" stroke-width="5" stroke-linecap="round" stroke-linejoin="round" stroke-miterlimit="10" x1="1116.768" y1="128.419" x2="1116.768" y2="154.086"/>
			
				<line fill="none" stroke="#0D0E1F" stroke-width="5" stroke-linecap="round" stroke-linejoin="round" stroke-miterlimit="10" x1="1128.768" y1="128.419" x2="1128.768" y2="154.086"/>
			
				<line fill="none" stroke="#0D0E1F" stroke-width="5" stroke-linecap="round" stroke-linejoin="round" stroke-miterlimit="10" x1="1140.768" y1="128.419" x2="1140.768" y2="154.086"/>
			
				<line fill="none" stroke="#0D0E1F" stroke-width="5" stroke-linecap="round" stroke-linejoin="round" stroke-miterlimit="10" x1="1152.768" y1="128.419" x2="1152.768" y2="154.086"/>
			
				<line fill="none" stroke="#0D0E1F" stroke-width="5" stroke-linecap="round" stroke-linejoin="round" stroke-miterlimit="10" x1="1164.768" y1="128.419" x2="1164.768" y2="154.086"/>
			
				<line fill="none" stroke="#0D0E1F" stroke-width="5" stroke-linecap="round" stroke-linejoin="round" stroke-miterlimit="10" x1="1176.768" y1="128.419" x2="1176.768" y2="154.086"/>
		</g>
		
			<line fill="none" stroke="#0D0E1F" stroke-width="5" stroke-linecap="round" stroke-linejoin="round" stroke-miterlimit="10" x1="1044.021" y1="179.837" x2="1201.514" y2="179.837"/>
		
			<polygon fill="none" stroke="#0D0E1F" stroke-width="5" stroke-linecap="round" stroke-linejoin="round" stroke-miterlimit="10" points="
			1142.035,220.876 1150.904,224.783 1113.182,310.426 1095.066,327.511 1095.441,302.612 1133.164,216.97 		"/>
		
			<line fill="none" stroke="#0D0E1F" stroke-width="3" stroke-linecap="round" stroke-linejoin="round" stroke-miterlimit="10" x1="1095.441" y1="302.612" x2="1113.182" y2="310.426"/>
		<path fill="#0D0E1F" d="M1100.859,320.974c-0.631,1.43-2.301,2.077-3.729,1.447c-1.43-0.629-2.078-2.297-1.449-3.727
			c0.631-1.431,2.299-2.079,3.73-1.449C1100.838,317.875,1101.488,319.543,1100.859,320.974z"/>
		
			<line fill="none" stroke="#0D0E1F" stroke-width="2" stroke-linecap="round" stroke-linejoin="round" stroke-miterlimit="10" x1="1104.313" y1="306.519" x2="1134.611" y2="237.729"/>
		
			<line fill="none" stroke="#0D0E1F" stroke-width="3" stroke-linecap="round" stroke-linejoin="round" stroke-miterlimit="10" x1="1126.176" y1="232.836" x2="1143.916" y2="240.649"/>
		
			<line fill="none" stroke="#0D0E1F" stroke-width="4" stroke-linecap="round" stroke-linejoin="round" stroke-miterlimit="10" x1="1115.473" y1="327.511" x2="1136.881" y2="327.511"/>
		
			<line fill="none" stroke="#0D0E1F" stroke-width="4" stroke-linecap="round" stroke-linejoin="round" stroke-miterlimit="10" x1="1148.916" y1="327.511" x2="1155.904" y2="327.511"/>
		<path fill="none" stroke="#0D0E1F" stroke-width="5" stroke-linecap="round" stroke-linejoin="round" stroke-miterlimit="10" d="
			M1103.182,209.278c0,4.248-3.443,7.691-7.691,7.691h-29.031c-4.248,0-7.691-3.444-7.691-7.691l0,0
			c0-4.248,3.443-7.692,7.691-7.692h29.031C1099.738,201.586,1103.182,205.03,1103.182,209.278L1103.182,209.278z"/>
		<path fill="none" stroke="#0D0E1F" stroke-width="5" stroke-linejoin="round" stroke-miterlimit="10" d="M1201.514,339.185
			c0,6.941-5.373,12.568-12,12.568h-133.492c-6.627,0-12-5.627-12-12.568"/>
	</g>
</g>
<g id="Layer_3" display="none">
	<path display="inline" fill="#31B78D" d="M948.022,447.753h-16.168v4c0,2.669-2.164,4.833-4.832,4.833
		c-2.67,0-4.834-2.164-4.834-4.833v-4h-14.334v4c0,2.669-2.164,4.833-4.832,4.833c-2.67,0-4.834-2.164-4.834-4.833v-4h-14.334v4
		c0,2.669-2.164,4.833-4.832,4.833c-2.67,0-4.834-2.164-4.834-4.833v-4h-14.334v4c0,2.669-2.164,4.833-4.832,4.833
		c-2.67,0-4.834-2.164-4.834-4.833v-4h-14.334v4c0,2.669-2.164,4.833-4.832,4.833c-2.67,0-4.834-2.164-4.834-4.833v-4h-14.334v4
		c0,2.669-2.164,4.833-4.832,4.833c-2.67,0-4.834-2.164-4.834-4.833v-4h-14.334v4c0,2.669-2.164,4.833-4.833,4.833
		c-2.67,0-4.834-2.164-4.834-4.833v-4h-14.334v4c0,2.669-2.164,4.833-4.832,4.833c-2.67,0-4.834-2.164-4.834-4.833v-4h-16.166
		c-4.411,0-8,3.589-8,8v17.249h226.001v-17.249C956.022,451.342,952.434,447.753,948.022,447.753z"/>
	<path display="inline" fill="#FFFFFF" d="M730.021,654.253c0,4.411,3.589,8,8,8h210.001c4.411,0,8-3.589,8-8V478.001H730.021
		V654.253z M748.521,500.002h189.001c0.828,0,1.5,0.672,1.5,1.5s-0.672,1.5-1.5,1.5H748.521c-0.828,0-1.5-0.672-1.5-1.5
		S747.693,500.002,748.521,500.002z M748.521,521.336h189.001c0.828,0,1.5,0.672,1.5,1.5s-0.672,1.5-1.5,1.5H748.521
		c-0.828,0-1.5-0.672-1.5-1.5S747.693,521.336,748.521,521.336z M748.521,542.672h189.001c0.828,0,1.5,0.672,1.5,1.5
		s-0.672,1.5-1.5,1.5H748.521c-0.828,0-1.5-0.672-1.5-1.5S747.693,542.672,748.521,542.672z M748.521,564.006h189.001
		c0.828,0,1.5,0.672,1.5,1.5s-0.672,1.5-1.5,1.5H748.521c-0.828,0-1.5-0.672-1.5-1.5S747.693,564.006,748.521,564.006z
		 M748.521,585.342h189.001c0.828,0,1.5,0.672,1.5,1.5s-0.672,1.5-1.5,1.5H748.521c-0.828,0-1.5-0.672-1.5-1.5
		S747.693,585.342,748.521,585.342z M748.521,606.676h189.001c0.828,0,1.5,0.672,1.5,1.5s-0.672,1.5-1.5,1.5H748.521
		c-0.828,0-1.5-0.672-1.5-1.5S747.693,606.676,748.521,606.676z M748.521,628.012h189.001c0.828,0,1.5,0.672,1.5,1.5
		s-0.672,1.5-1.5,1.5H748.521c-0.828,0-1.5-0.672-1.5-1.5S747.693,628.012,748.521,628.012z"/>
	<path display="inline" fill="#C7C8CA" d="M1056.021,656.253c-2.955,0-5.703-0.928-7.997-2.511c0.028,4.697,3.604,8.511,7.997,8.511
		h133.492c4.394,0,7.969-3.813,7.997-8.511c-2.294,1.583-5.042,2.511-7.997,2.511H1056.021z"/>
	<path display="inline" fill="#FFFFFF" d="M202.487,447.253v215h178V474.361l-16.265-27.108H202.487z M250.82,466.337h55.334
		c0.829,0,1.5,0.671,1.5,1.5s-0.671,1.5-1.5,1.5H250.82c-0.829,0-1.5-0.671-1.5-1.5S249.992,466.337,250.82,466.337z
		 M214.403,650.502c-2.438,0-4.416-1.979-4.416-4.417s1.978-4.417,4.416-4.417c2.439,0,4.417,1.979,4.417,4.417
		S216.843,650.502,214.403,650.502z M214.403,627.668c-2.438,0-4.416-1.977-4.416-4.416s1.978-4.416,4.416-4.416
		c2.439,0,4.417,1.977,4.417,4.416S216.843,627.668,214.403,627.668z M214.403,604.836c-2.438,0-4.416-1.979-4.416-4.417
		s1.978-4.417,4.416-4.417c2.439,0,4.417,1.979,4.417,4.417S216.843,604.836,214.403,604.836z M214.403,582.002
		c-2.438,0-4.416-1.977-4.416-4.416s1.978-4.416,4.416-4.416c2.439,0,4.417,1.977,4.417,4.416S216.843,582.002,214.403,582.002z
		 M214.403,559.17c-2.438,0-4.416-1.979-4.416-4.417s1.978-4.417,4.416-4.417c2.439,0,4.417,1.979,4.417,4.417
		S216.843,559.17,214.403,559.17z M214.403,536.336c-2.438,0-4.416-1.977-4.416-4.416s1.978-4.416,4.416-4.416
		c2.439,0,4.417,1.977,4.417,4.416S216.843,536.336,214.403,536.336z M214.403,513.504c-2.438,0-4.416-1.979-4.416-4.417
		s1.978-4.417,4.416-4.417c2.439,0,4.417,1.979,4.417,4.417S216.843,513.504,214.403,513.504z M214.403,490.67
		c-2.438,0-4.416-1.978-4.416-4.417s1.978-4.417,4.416-4.417c2.439,0,4.417,1.978,4.417,4.417S216.843,490.67,214.403,490.67z
		 M214.403,467.837c-2.438,0-4.416-1.978-4.416-4.417s1.978-4.417,4.416-4.417c2.439,0,4.417,1.978,4.417,4.417
		S216.843,467.837,214.403,467.837z M232.32,651.253c0,1.381-1.119,2.5-2.5,2.5s-2.5-1.119-2.5-2.5V533.92
		c0-1.381,1.119-2.5,2.5-2.5s2.5,1.119,2.5,2.5V651.253z M232.32,509.92c0,1.381-1.119,2.5-2.5,2.5s-2.5-1.119-2.5-2.5v-51.333
		c0-1.381,1.119-2.5,2.5-2.5s2.5,1.119,2.5,2.5V509.92z M358.154,645.755H250.82c-0.829,0-1.5-0.672-1.5-1.5s0.671-1.5,1.5-1.5
		h107.334c0.829,0,1.5,0.672,1.5,1.5S358.983,645.755,358.154,645.755z M358.154,632.422H250.82c-0.829,0-1.5-0.672-1.5-1.5
		s0.671-1.5,1.5-1.5h107.334c0.829,0,1.5,0.672,1.5,1.5S358.983,632.422,358.154,632.422z M358.154,619.088H250.82
		c-0.829,0-1.5-0.672-1.5-1.5s0.671-1.5,1.5-1.5h107.334c0.829,0,1.5,0.672,1.5,1.5S358.983,619.088,358.154,619.088z
		 M358.154,605.754H250.82c-0.829,0-1.5-0.672-1.5-1.5s0.671-1.5,1.5-1.5h107.334c0.829,0,1.5,0.672,1.5,1.5
		S358.983,605.754,358.154,605.754z M358.154,592.421H250.82c-0.829,0-1.5-0.672-1.5-1.5s0.671-1.5,1.5-1.5h107.334
		c0.829,0,1.5,0.672,1.5,1.5S358.983,592.421,358.154,592.421z M358.154,579.088H250.82c-0.829,0-1.5-0.672-1.5-1.5
		s0.671-1.5,1.5-1.5h107.334c0.829,0,1.5,0.672,1.5,1.5S358.983,579.088,358.154,579.088z M358.154,565.754H250.82
		c-0.829,0-1.5-0.672-1.5-1.5s0.671-1.5,1.5-1.5h107.334c0.829,0,1.5,0.672,1.5,1.5S358.983,565.754,358.154,565.754z
		 M358.154,552.42H250.82c-0.829,0-1.5-0.672-1.5-1.5s0.671-1.5,1.5-1.5h107.334c0.829,0,1.5,0.672,1.5,1.5
		S358.983,552.42,358.154,552.42z M358.154,539.087H250.82c-0.829,0-1.5-0.672-1.5-1.5s0.671-1.5,1.5-1.5h107.334
		c0.829,0,1.5,0.672,1.5,1.5S358.983,539.087,358.154,539.087z M358.154,525.754H250.82c-0.829,0-1.5-0.672-1.5-1.5
		s0.671-1.5,1.5-1.5h107.334c0.829,0,1.5,0.672,1.5,1.5S358.983,525.754,358.154,525.754z M358.154,512.42H250.82
		c-0.829,0-1.5-0.672-1.5-1.5s0.671-1.5,1.5-1.5h107.334c0.829,0,1.5,0.672,1.5,1.5S358.983,512.42,358.154,512.42z
		 M358.154,499.086H250.82c-0.829,0-1.5-0.672-1.5-1.5s0.671-1.5,1.5-1.5h107.334c0.829,0,1.5,0.672,1.5,1.5
		S358.983,499.086,358.154,499.086z M358.154,485.753H250.82c-0.829,0-1.5-0.671-1.5-1.5s0.671-1.5,1.5-1.5h107.334
		c0.829,0,1.5,0.671,1.5,1.5S358.983,485.753,358.154,485.753z"/>
	
		<rect x="1120.332" y="538.659" transform="matrix(-0.9151 -0.4032 0.4032 -0.9151 1919.5889 1554.6521)" display="inline" fill="#BA6F29" width="6.191" height="73.245"/>
	<path display="inline" fill="#F09B36" d="M629.817,447.253h-9.963v4.5c0,2.669-2.164,4.833-4.833,4.833
		c-2.67,0-4.834-2.164-4.834-4.833v-4.5h-14.333v4.5c0,2.669-2.164,4.833-4.833,4.833c-2.67,0-4.834-2.164-4.834-4.833v-4.5h-14.333
		v4.5c0,2.669-2.164,4.833-4.833,4.833c-2.67,0-4.834-2.164-4.834-4.833v-4.5h-14.333v4.5c0,2.669-2.164,4.833-4.833,4.833
		c-2.67,0-4.834-2.164-4.834-4.833v-4.5h-14.333v4.5c0,2.669-2.164,4.833-4.833,4.833c-2.67,0-4.834-2.164-4.834-4.833v-4.5h-14.333
		v4.5c0,2.669-2.164,4.833-4.833,4.833c-2.67,0-4.834-2.164-4.834-4.833v-4.5h-9.961c-4.268,0-7.739,3.423-7.739,7.63v24.455
		h165.069v-24.455C637.557,450.676,634.085,447.253,629.817,447.253z"/>
	<path display="inline" fill="#F09B36" d="M608.885,639.856c-2.906,6.642-7.258,15.923-10.128,21.979
		c23.267-3.052,33.568-22.068,37.229-31.25h-14.22C620.587,630.731,612.313,632.021,608.885,639.856z"/>
	<path display="inline" fill="#FFFFFF" d="M472.487,654.623c0,4.207,3.472,7.63,7.739,7.63H589.7
		c2.406-5.042,8.263-17.392,11.856-25.604c1.089-2.49,2.487-4.536,4.032-6.227H485.887c-0.829,0-1.5-0.672-1.5-1.5
		s0.671-1.5,1.5-1.5h123.048c5.714-4.191,11.894-4.79,12.277-4.822c0.114-0.01,0.228-0.015,0.342-0.015h16.003V484.337H472.487
		V654.623z M485.887,501.42h44.667c0.829,0,1.5,0.672,1.5,1.5s-0.671,1.5-1.5,1.5h-44.667c-0.829,0-1.5-0.672-1.5-1.5
		S485.058,501.42,485.887,501.42z M485.887,525.42h133.968c0.829,0,1.5,0.672,1.5,1.5s-0.671,1.5-1.5,1.5H485.887
		c-0.829,0-1.5-0.672-1.5-1.5S485.058,525.42,485.887,525.42z M485.887,542.42h133.968c0.829,0,1.5,0.672,1.5,1.5
		s-0.671,1.5-1.5,1.5H485.887c-0.829,0-1.5-0.672-1.5-1.5S485.058,542.42,485.887,542.42z M485.887,559.421h133.968
		c0.829,0,1.5,0.672,1.5,1.5s-0.671,1.5-1.5,1.5H485.887c-0.829,0-1.5-0.672-1.5-1.5S485.058,559.421,485.887,559.421z
		 M485.887,576.422h133.968c0.829,0,1.5,0.672,1.5,1.5s-0.671,1.5-1.5,1.5H485.887c-0.829,0-1.5-0.672-1.5-1.5
		S485.058,576.422,485.887,576.422z M485.887,593.422h133.968c0.829,0,1.5,0.672,1.5,1.5s-0.671,1.5-1.5,1.5H485.887
		c-0.829,0-1.5-0.672-1.5-1.5S485.058,593.422,485.887,593.422z M485.887,610.422h133.968c0.829,0,1.5,0.672,1.5,1.5
		s-0.671,1.5-1.5,1.5H485.887c-0.829,0-1.5-0.672-1.5-1.5S485.058,610.422,485.887,610.422z"/>
	<path display="inline" fill="#F09B36" d="M1066.459,516.47h29.031c2.862,0,5.191-2.329,5.191-5.191
		c0-2.863-2.329-5.192-5.191-5.192h-29.031c-2.862,0-5.191,2.329-5.191,5.192C1061.268,514.141,1063.597,516.47,1066.459,516.47z"/>
	
		<rect x="1131.146" y="524.598" transform="matrix(0.9151 0.4031 -0.4031 0.9151 310.7612 -413.8123)" display="inline" fill="#C8535D" width="14.385" height="13.337"/>
	<path display="inline" fill="#F7BF82" d="M1099.412,619.246c0.652,0.288,1.132,0.798,1.412,1.399l8.688-8.196l-11.612-5.115
		l-0.176,11.729C1098.273,618.954,1098.859,619.003,1099.412,619.246z"/>
	<path display="inline" fill="#BE1F45" d="M1189.514,447.253h-10.246v8.833c0,1.381-1.119,2.5-2.5,2.5s-2.5-1.119-2.5-2.5v-8.833h-7
		v8.833c0,1.381-1.119,2.5-2.5,2.5s-2.5-1.119-2.5-2.5v-8.833h-7v8.833c0,1.381-1.119,2.5-2.5,2.5s-2.5-1.119-2.5-2.5v-8.833h-7
		v8.833c0,1.381-1.119,2.5-2.5,2.5s-2.5-1.119-2.5-2.5v-8.833h-7v8.833c0,1.381-1.119,2.5-2.5,2.5s-2.5-1.119-2.5-2.5v-8.833h-7
		v8.833c0,1.381-1.119,2.5-2.5,2.5s-2.5-1.119-2.5-2.5v-8.833h-7v8.833c0,1.381-1.119,2.5-2.5,2.5s-2.5-1.119-2.5-2.5v-8.833h-7
		v8.833c0,1.381-1.119,2.5-2.5,2.5s-2.5-1.119-2.5-2.5v-8.833h-7v8.833c0,1.381-1.119,2.5-2.5,2.5s-2.5-1.119-2.5-2.5v-8.833h-7
		v8.833c0,1.381-1.119,2.5-2.5,2.5s-2.5-1.119-2.5-2.5v-8.833h-10.246c-4.411,0-8,3.844-8,8.568v23.517h149.492v-23.517
		C1197.514,451.097,1193.925,447.253,1189.514,447.253z"/>
	<path display="inline" fill="#C8535D" d="M1048.021,646.593c1.689,2.797,4.641,4.66,8,4.66h133.492c3.359,0,6.311-1.863,8-4.66
		V484.337h-149.492V646.593z M1136.881,631.512h-21.408c-1.104,0-2-0.896-2-2s0.896-2,2-2h21.408c1.104,0,2,0.896,2,2
		S1137.985,631.512,1136.881,631.512z M1157.904,629.512c0,1.104-0.896,2-2,2h-6.988c-1.104,0-2-0.896-2-2s0.896-2,2-2h6.988
		C1157.009,627.512,1157.904,628.407,1157.904,629.512z M1134.172,516.682l17.74,7.813c1.264,0.557,1.837,2.032,1.28,3.296
		l-37.723,85.643c-0.135,0.306-0.33,0.581-0.573,0.811l-18.114,17.086c-0.474,0.447-1.091,0.682-1.717,0.682
		c-0.34,0-0.683-0.069-1.007-0.212c-0.919-0.405-1.507-1.321-1.492-2.326l0.375-24.9c0.005-0.334,0.077-0.664,0.212-0.97
		l37.723-85.642C1131.433,516.698,1132.908,516.126,1134.172,516.682z M1066.459,501.086h29.031c5.619,0,10.191,4.572,10.191,10.192
		c0,5.619-4.572,10.191-10.191,10.191h-29.031c-5.619,0-10.191-4.572-10.191-10.191
		C1056.268,505.658,1060.84,501.086,1066.459,501.086z"/>
	
		<rect x="1112.833" y="535.358" transform="matrix(0.9152 0.4031 -0.4031 0.9152 325.2371 -401.2958)" display="inline" fill="#F09B36" width="6.192" height="73.244"/>
	<rect x="468.487" y="473.001" display="inline" fill="#BA6F29" width="173.066" height="9.751"/>
	<rect x="726.021" y="467.5" display="inline" fill="#167754" width="234.001" height="6.501"/>
</g>
<g id="Layer_2" display="none">
	<g display="inline">
		<path fill="#0D0E1F" d="M369.917,441.195c-0.723-1.205-2.025-1.942-3.43-1.942h-168c-2.209,0-4,1.791-4,4v223c0,2.209,1.791,4,4,4
			h186c2.209,0,4-1.791,4-4v-193c0-0.725-0.197-1.437-0.57-2.058L369.917,441.195z M380.487,662.253h-178v-215h161.735
			l16.265,27.108V662.253z"/>
		<path fill="#0D0E1F" d="M229.82,456.086c-1.381,0-2.5,1.119-2.5,2.5v51.333c0,1.381,1.119,2.5,2.5,2.5s2.5-1.119,2.5-2.5v-51.333
			C232.32,457.206,231.201,456.086,229.82,456.086z"/>
		<path fill="#0D0E1F" d="M229.82,531.42c-1.381,0-2.5,1.119-2.5,2.5v117.333c0,1.381,1.119,2.5,2.5,2.5s2.5-1.119,2.5-2.5V533.92
			C232.32,532.539,231.201,531.42,229.82,531.42z"/>
		<circle fill="#0D0E1F" cx="214.403" cy="463.421" r="4.417"/>
		<circle fill="#0D0E1F" cx="214.403" cy="486.254" r="4.417"/>
		<circle fill="#0D0E1F" cx="214.403" cy="509.087" r="4.417"/>
		<circle fill="#0D0E1F" cx="214.403" cy="531.92" r="4.416"/>
		<circle fill="#0D0E1F" cx="214.403" cy="554.753" r="4.417"/>
		<circle fill="#0D0E1F" cx="214.403" cy="577.586" r="4.416"/>
		<circle fill="#0D0E1F" cx="214.403" cy="600.419" r="4.417"/>
		<circle fill="#0D0E1F" cx="214.403" cy="623.252" r="4.416"/>
		<circle fill="#0D0E1F" cx="214.403" cy="646.085" r="4.417"/>
		<path fill="#0D0E1F" d="M250.82,469.337h55.334c0.829,0,1.5-0.671,1.5-1.5s-0.671-1.5-1.5-1.5H250.82c-0.829,0-1.5,0.671-1.5,1.5
			S249.992,469.337,250.82,469.337z"/>
		<path fill="#0D0E1F" d="M358.154,482.753H250.82c-0.829,0-1.5,0.671-1.5,1.5s0.671,1.5,1.5,1.5h107.334c0.829,0,1.5-0.671,1.5-1.5
			S358.983,482.753,358.154,482.753z"/>
		<path fill="#0D0E1F" d="M358.154,496.086H250.82c-0.829,0-1.5,0.672-1.5,1.5s0.671,1.5,1.5,1.5h107.334c0.829,0,1.5-0.672,1.5-1.5
			S358.983,496.086,358.154,496.086z"/>
		<path fill="#0D0E1F" d="M358.154,509.42H250.82c-0.829,0-1.5,0.672-1.5,1.5s0.671,1.5,1.5,1.5h107.334c0.829,0,1.5-0.672,1.5-1.5
			S358.983,509.42,358.154,509.42z"/>
		<path fill="#0D0E1F" d="M358.154,522.754H250.82c-0.829,0-1.5,0.672-1.5,1.5s0.671,1.5,1.5,1.5h107.334c0.829,0,1.5-0.672,1.5-1.5
			S358.983,522.754,358.154,522.754z"/>
		<path fill="#0D0E1F" d="M358.154,536.087H250.82c-0.829,0-1.5,0.672-1.5,1.5s0.671,1.5,1.5,1.5h107.334c0.829,0,1.5-0.672,1.5-1.5
			S358.983,536.087,358.154,536.087z"/>
		<path fill="#0D0E1F" d="M358.154,549.42H250.82c-0.829,0-1.5,0.672-1.5,1.5s0.671,1.5,1.5,1.5h107.334c0.829,0,1.5-0.672,1.5-1.5
			S358.983,549.42,358.154,549.42z"/>
		<path fill="#0D0E1F" d="M358.154,562.754H250.82c-0.829,0-1.5,0.672-1.5,1.5s0.671,1.5,1.5,1.5h107.334c0.829,0,1.5-0.672,1.5-1.5
			S358.983,562.754,358.154,562.754z"/>
		<path fill="#0D0E1F" d="M358.154,576.088H250.82c-0.829,0-1.5,0.672-1.5,1.5s0.671,1.5,1.5,1.5h107.334c0.829,0,1.5-0.672,1.5-1.5
			S358.983,576.088,358.154,576.088z"/>
		<path fill="#0D0E1F" d="M358.154,589.421H250.82c-0.829,0-1.5,0.672-1.5,1.5s0.671,1.5,1.5,1.5h107.334c0.829,0,1.5-0.672,1.5-1.5
			S358.983,589.421,358.154,589.421z"/>
		<path fill="#0D0E1F" d="M358.154,602.754H250.82c-0.829,0-1.5,0.672-1.5,1.5s0.671,1.5,1.5,1.5h107.334c0.829,0,1.5-0.672,1.5-1.5
			S358.983,602.754,358.154,602.754z"/>
		<path fill="#0D0E1F" d="M358.154,616.088H250.82c-0.829,0-1.5,0.672-1.5,1.5s0.671,1.5,1.5,1.5h107.334c0.829,0,1.5-0.672,1.5-1.5
			S358.983,616.088,358.154,616.088z"/>
		<path fill="#0D0E1F" d="M358.154,629.422H250.82c-0.829,0-1.5,0.672-1.5,1.5s0.671,1.5,1.5,1.5h107.334c0.829,0,1.5-0.672,1.5-1.5
			S358.983,629.422,358.154,629.422z"/>
		<path fill="#0D0E1F" d="M358.154,642.755H250.82c-0.829,0-1.5,0.672-1.5,1.5s0.671,1.5,1.5,1.5h107.334c0.829,0,1.5-0.672,1.5-1.5
			S358.983,642.755,358.154,642.755z"/>
		<path fill="#0D0E1F" d="M629.817,439.253h-9.963v-3.5c0-2.669-2.164-4.833-4.833-4.833c-2.67,0-4.834,2.164-4.834,4.833v3.5
			h-14.333v-3.5c0-2.669-2.164-4.833-4.833-4.833c-2.67,0-4.834,2.164-4.834,4.833v3.5h-14.333v-3.5
			c0-2.669-2.164-4.833-4.833-4.833c-2.67,0-4.834,2.164-4.834,4.833v3.5h-14.333v-3.5c0-2.669-2.164-4.833-4.833-4.833
			c-2.67,0-4.834,2.164-4.834,4.833v3.5h-14.333v-3.5c0-2.669-2.164-4.833-4.833-4.833c-2.67,0-4.834,2.164-4.834,4.833v3.5h-14.333
			v-3.5c0-2.669-2.164-4.833-4.833-4.833c-2.67,0-4.834,2.164-4.834,4.833v3.5h-9.961c-8.679,0-15.739,7.012-15.739,15.63v199.74
			c0,8.618,7.061,15.63,15.739,15.63h111.99c0.001,0,0.002,0,0.004,0c17.534,0,32.317-7.416,42.751-21.446
			c7.77-10.448,10.362-20.837,10.468-21.273c0.076-0.313,0.109-0.631,0.109-0.947h0.008V454.883
			C645.557,446.265,638.496,439.253,629.817,439.253z M598.757,661.836c2.87-6.057,7.223-15.338,10.128-21.979
			c3.428-7.836,11.702-9.125,12.88-9.271h14.22C632.325,639.768,622.023,658.784,598.757,661.836z M637.557,622.586h-16.003
			c-0.114,0-0.228,0.005-0.342,0.015c-0.383,0.032-6.563,0.631-12.277,4.822H485.887c-0.829,0-1.5,0.672-1.5,1.5s0.671,1.5,1.5,1.5
			h119.701c-1.545,1.69-2.942,3.736-4.032,6.227c-3.593,8.212-9.45,20.562-11.856,25.604H480.227c-4.268,0-7.739-3.423-7.739-7.63
			V484.337h165.069V622.586z M637.557,479.337H472.487v-24.455c0-4.207,3.472-7.63,7.739-7.63h9.961v4.5
			c0,2.669,2.164,4.833,4.834,4.833c2.669,0,4.833-2.164,4.833-4.833v-4.5h14.333v4.5c0,2.669,2.164,4.833,4.834,4.833
			c2.669,0,4.833-2.164,4.833-4.833v-4.5h14.333v4.5c0,2.669,2.164,4.833,4.834,4.833c2.669,0,4.833-2.164,4.833-4.833v-4.5h14.333
			v4.5c0,2.669,2.164,4.833,4.834,4.833c2.669,0,4.833-2.164,4.833-4.833v-4.5h14.333v4.5c0,2.669,2.164,4.833,4.834,4.833
			c2.669,0,4.833-2.164,4.833-4.833v-4.5h14.333v4.5c0,2.669,2.164,4.833,4.834,4.833c2.669,0,4.833-2.164,4.833-4.833v-4.5h9.963
			c4.268,0,7.739,3.423,7.739,7.63V479.337z"/>
		<path fill="#0D0E1F" d="M485.887,504.42h44.667c0.829,0,1.5-0.672,1.5-1.5s-0.671-1.5-1.5-1.5h-44.667c-0.829,0-1.5,0.672-1.5,1.5
			S485.058,504.42,485.887,504.42z"/>
		<path fill="#0D0E1F" d="M485.887,528.42h133.968c0.829,0,1.5-0.672,1.5-1.5s-0.671-1.5-1.5-1.5H485.887
			c-0.829,0-1.5,0.672-1.5,1.5S485.058,528.42,485.887,528.42z"/>
		<path fill="#0D0E1F" d="M485.887,545.42h133.968c0.829,0,1.5-0.672,1.5-1.5s-0.671-1.5-1.5-1.5H485.887
			c-0.829,0-1.5,0.672-1.5,1.5S485.058,545.42,485.887,545.42z"/>
		<path fill="#0D0E1F" d="M485.887,562.421h133.968c0.829,0,1.5-0.672,1.5-1.5s-0.671-1.5-1.5-1.5H485.887
			c-0.829,0-1.5,0.672-1.5,1.5S485.058,562.421,485.887,562.421z"/>
		<path fill="#0D0E1F" d="M485.887,579.422h133.968c0.829,0,1.5-0.672,1.5-1.5s-0.671-1.5-1.5-1.5H485.887
			c-0.829,0-1.5,0.672-1.5,1.5S485.058,579.422,485.887,579.422z"/>
		<path fill="#0D0E1F" d="M485.887,596.422h133.968c0.829,0,1.5-0.672,1.5-1.5s-0.671-1.5-1.5-1.5H485.887
			c-0.829,0-1.5,0.672-1.5,1.5S485.058,596.422,485.887,596.422z"/>
		<path fill="#0D0E1F" d="M485.887,613.422h133.968c0.829,0,1.5-0.672,1.5-1.5s-0.671-1.5-1.5-1.5H485.887
			c-0.829,0-1.5,0.672-1.5,1.5S485.058,613.422,485.887,613.422z"/>
		<path fill="#0D0E1F" d="M948.022,439.753h-16.168v-4c0-2.669-2.164-4.833-4.832-4.833c-2.67,0-4.834,2.164-4.834,4.833v4h-14.334
			v-4c0-2.669-2.164-4.833-4.832-4.833c-2.67,0-4.834,2.164-4.834,4.833v4h-14.334v-4c0-2.669-2.164-4.833-4.832-4.833
			c-2.67,0-4.834,2.164-4.834,4.833v4h-14.334v-4c0-2.669-2.164-4.833-4.832-4.833c-2.67,0-4.834,2.164-4.834,4.833v4h-14.334v-4
			c0-2.669-2.164-4.833-4.832-4.833c-2.67,0-4.834,2.164-4.834,4.833v4h-14.334v-4c0-2.669-2.164-4.833-4.832-4.833
			c-2.67,0-4.834,2.164-4.834,4.833v4h-14.334v-4c0-2.669-2.164-4.833-4.833-4.833c-2.67,0-4.834,2.164-4.834,4.833v4h-14.334v-4
			c0-2.669-2.164-4.833-4.832-4.833c-2.67,0-4.834,2.164-4.834,4.833v4h-16.166c-8.822,0-16,7.178-16,16v198.5
			c0,8.822,7.178,16,16,16h210.001c8.822,0,16-7.178,16-16v-198.5C964.022,446.931,956.845,439.753,948.022,439.753z
			 M956.022,654.253c0,4.411-3.589,8-8,8H738.021c-4.411,0-8-3.589-8-8V478.001h226.001V654.253z M956.022,473.001H730.021v-17.249
			c0-4.411,3.589-8,8-8h16.166v4c0,2.669,2.164,4.833,4.834,4.833c2.668,0,4.832-2.164,4.832-4.833v-4h14.334v4
			c0,2.669,2.164,4.833,4.834,4.833c2.669,0,4.833-2.164,4.833-4.833v-4h14.334v4c0,2.669,2.164,4.833,4.834,4.833
			c2.668,0,4.832-2.164,4.832-4.833v-4h14.334v4c0,2.669,2.164,4.833,4.834,4.833c2.668,0,4.832-2.164,4.832-4.833v-4h14.334v4
			c0,2.669,2.164,4.833,4.834,4.833c2.668,0,4.832-2.164,4.832-4.833v-4h14.334v4c0,2.669,2.164,4.833,4.834,4.833
			c2.668,0,4.832-2.164,4.832-4.833v-4h14.334v4c0,2.669,2.164,4.833,4.834,4.833c2.668,0,4.832-2.164,4.832-4.833v-4h14.334v4
			c0,2.669,2.164,4.833,4.834,4.833c2.668,0,4.832-2.164,4.832-4.833v-4h16.168c4.411,0,8,3.589,8,8V473.001z"/>
		<path fill="#0D0E1F" d="M748.521,503.002h189.001c0.828,0,1.5-0.672,1.5-1.5s-0.672-1.5-1.5-1.5H748.521
			c-0.828,0-1.5,0.672-1.5,1.5S747.693,503.002,748.521,503.002z"/>
		<path fill="#0D0E1F" d="M748.521,524.336h189.001c0.828,0,1.5-0.672,1.5-1.5s-0.672-1.5-1.5-1.5H748.521
			c-0.828,0-1.5,0.672-1.5,1.5S747.693,524.336,748.521,524.336z"/>
		<path fill="#0D0E1F" d="M748.521,545.672h189.001c0.828,0,1.5-0.672,1.5-1.5s-0.672-1.5-1.5-1.5H748.521
			c-0.828,0-1.5,0.672-1.5,1.5S747.693,545.672,748.521,545.672z"/>
		<path fill="#0D0E1F" d="M748.521,567.006h189.001c0.828,0,1.5-0.672,1.5-1.5s-0.672-1.5-1.5-1.5H748.521
			c-0.828,0-1.5,0.672-1.5,1.5S747.693,567.006,748.521,567.006z"/>
		<path fill="#0D0E1F" d="M748.521,588.342h189.001c0.828,0,1.5-0.672,1.5-1.5s-0.672-1.5-1.5-1.5H748.521
			c-0.828,0-1.5,0.672-1.5,1.5S747.693,588.342,748.521,588.342z"/>
		<path fill="#0D0E1F" d="M748.521,609.676h189.001c0.828,0,1.5-0.672,1.5-1.5s-0.672-1.5-1.5-1.5H748.521
			c-0.828,0-1.5,0.672-1.5,1.5S747.693,609.676,748.521,609.676z"/>
		<path fill="#0D0E1F" d="M748.521,631.012h189.001c0.828,0,1.5-0.672,1.5-1.5s-0.672-1.5-1.5-1.5H748.521
			c-0.828,0-1.5,0.672-1.5,1.5S747.693,631.012,748.521,631.012z"/>
		<path fill="#0D0E1F" d="M1189.514,439.253h-10.246v-8.833c0-1.381-1.119-2.5-2.5-2.5s-2.5,1.119-2.5,2.5v8.833h-7v-8.833
			c0-1.381-1.119-2.5-2.5-2.5s-2.5,1.119-2.5,2.5v8.833h-7v-8.833c0-1.381-1.119-2.5-2.5-2.5s-2.5,1.119-2.5,2.5v8.833h-7v-8.833
			c0-1.381-1.119-2.5-2.5-2.5s-2.5,1.119-2.5,2.5v8.833h-7v-8.833c0-1.381-1.119-2.5-2.5-2.5s-2.5,1.119-2.5,2.5v8.833h-7v-8.833
			c0-1.381-1.119-2.5-2.5-2.5s-2.5,1.119-2.5,2.5v8.833h-7v-8.833c0-1.381-1.119-2.5-2.5-2.5s-2.5,1.119-2.5,2.5v8.833h-7v-8.833
			c0-1.381-1.119-2.5-2.5-2.5s-2.5,1.119-2.5,2.5v8.833h-7v-8.833c0-1.381-1.119-2.5-2.5-2.5s-2.5,1.119-2.5,2.5v8.833h-7v-8.833
			c0-1.381-1.119-2.5-2.5-2.5s-2.5,1.119-2.5,2.5v8.833h-10.246c-8.822,0-16,7.432-16,16.568v197.865
			c0,9.136,7.178,16.567,16,16.567h133.492c8.822,0,16-7.432,16-16.567V455.821C1205.514,446.685,1198.336,439.253,1189.514,439.253
			z M1189.514,662.253h-133.492c-4.394,0-7.969-3.813-7.997-8.511c2.294,1.583,5.042,2.511,7.997,2.511h133.492
			c2.955,0,5.703-0.928,7.997-2.511C1197.482,658.439,1193.907,662.253,1189.514,662.253z M1197.514,646.593
			c-1.689,2.797-4.641,4.66-8,4.66h-133.492c-3.359,0-6.311-1.863-8-4.66V484.337h149.492V646.593z M1197.514,479.337h-149.492
			v-23.517c0-4.724,3.589-8.568,8-8.568h10.246v8.833c0,1.381,1.119,2.5,2.5,2.5s2.5-1.119,2.5-2.5v-8.833h7v8.833
			c0,1.381,1.119,2.5,2.5,2.5s2.5-1.119,2.5-2.5v-8.833h7v8.833c0,1.381,1.119,2.5,2.5,2.5s2.5-1.119,2.5-2.5v-8.833h7v8.833
			c0,1.381,1.119,2.5,2.5,2.5s2.5-1.119,2.5-2.5v-8.833h7v8.833c0,1.381,1.119,2.5,2.5,2.5s2.5-1.119,2.5-2.5v-8.833h7v8.833
			c0,1.381,1.119,2.5,2.5,2.5s2.5-1.119,2.5-2.5v-8.833h7v8.833c0,1.381,1.119,2.5,2.5,2.5s2.5-1.119,2.5-2.5v-8.833h7v8.833
			c0,1.381,1.119,2.5,2.5,2.5s2.5-1.119,2.5-2.5v-8.833h7v8.833c0,1.381,1.119,2.5,2.5,2.5s2.5-1.119,2.5-2.5v-8.833h7v8.833
			c0,1.381,1.119,2.5,2.5,2.5s2.5-1.119,2.5-2.5v-8.833h10.246c4.411,0,8,3.844,8,8.568V479.337z"/>
		<path fill="#0D0E1F" d="M1092.941,604.573l-0.375,24.9c-0.015,1.005,0.573,1.921,1.492,2.326c0.324,0.143,0.667,0.212,1.007,0.212
			c0.626,0,1.243-0.234,1.717-0.682l18.114-17.086c0.243-0.229,0.438-0.505,0.573-0.811l37.723-85.643
			c0.557-1.264-0.017-2.739-1.28-3.296l-17.74-7.813c-1.264-0.556-2.739,0.017-3.296,1.28l-37.723,85.642
			C1093.019,603.909,1092.946,604.239,1092.941,604.573z M1111.498,610.045l-5.666-2.496l29.523-67.03l5.668,2.496L1111.498,610.045
			z M1134.444,522.265l13.164,5.799l-5.376,12.205l-13.164-5.798L1134.444,522.265z M1127.858,537.217l5.667,2.496l-29.523,67.03
			l-5.668-2.497L1127.858,537.217z M1097.9,607.334l11.612,5.115l-8.688,8.196c-0.28-0.602-0.76-1.111-1.412-1.399
			c-0.553-0.243-1.139-0.292-1.688-0.184L1097.9,607.334z"/>
		<path fill="#0D0E1F" d="M1136.881,627.512h-21.408c-1.104,0-2,0.896-2,2s0.896,2,2,2h21.408c1.104,0,2-0.896,2-2
			S1137.985,627.512,1136.881,627.512z"/>
		<path fill="#0D0E1F" d="M1146.916,629.512c0,1.104,0.896,2,2,2h6.988c1.104,0,2-0.896,2-2s-0.896-2-2-2h-6.988
			C1147.812,627.512,1146.916,628.407,1146.916,629.512z"/>
		<path fill="#0D0E1F" d="M1066.459,521.47h29.031c5.619,0,10.191-4.572,10.191-10.191c0-5.62-4.572-10.192-10.191-10.192h-29.031
			c-5.619,0-10.191,4.572-10.191,10.192C1056.268,516.897,1060.84,521.47,1066.459,521.47z M1066.459,506.086h29.031
			c2.862,0,5.191,2.329,5.191,5.192c0,2.862-2.329,5.191-5.191,5.191h-29.031c-2.862,0-5.191-2.329-5.191-5.191
			C1061.268,508.415,1063.597,506.086,1066.459,506.086z"/>
	</g>
</g>
<g id="neg" display="none">
	<g display="inline">
		
			<rect x="1131.146" y="818.598" transform="matrix(0.9151 0.4031 -0.4031 0.9151 429.28 -388.8649)" fill="#27AAE1" width="14.385" height="13.337"/>
		
			<rect x="1120.332" y="832.659" transform="matrix(-0.9151 -0.4032 0.4032 -0.9151 1801.0626 2117.7014)" fill="#27AAE1" width="6.191" height="73.245"/>
		
			<rect x="1112.833" y="829.358" transform="matrix(0.9152 0.4031 -0.4031 0.9152 443.7464 -376.3527)" fill="#27AAE1" width="6.192" height="73.244"/>
		<path fill="#27AAE1" d="M1056.021,950.253c-2.955,0-5.703-0.928-7.997-2.511c0.028,4.697,3.604,8.511,7.997,8.511h133.492
			c4.394,0,7.969-3.813,7.997-8.511c-2.294,1.583-5.042,2.511-7.997,2.511H1056.021z"/>
		<path fill="#27AAE1" d="M1048.021,940.593c1.689,2.797,4.641,4.66,8,4.66h133.492c3.359,0,6.311-1.863,8-4.66V778.338h-149.492
			V940.593z M1136.881,925.512h-21.408c-1.104,0-2-0.896-2-2s0.896-2,2-2h21.408c1.104,0,2,0.896,2,2
			S1137.985,925.512,1136.881,925.512z M1157.904,923.512c0,1.104-0.896,2-2,2h-6.988c-1.104,0-2-0.896-2-2s0.896-2,2-2h6.988
			C1157.009,921.512,1157.904,922.407,1157.904,923.512z M1134.172,810.682l17.74,7.813c1.264,0.557,1.837,2.032,1.28,3.296
			l-37.723,85.643c-0.135,0.306-0.33,0.581-0.573,0.811l-18.114,17.086c-0.474,0.447-1.091,0.682-1.717,0.682
			c-0.34,0-0.683-0.069-1.007-0.212c-0.919-0.405-1.507-1.321-1.492-2.326l0.375-24.9c0.005-0.334,0.077-0.664,0.212-0.97
			l37.723-85.642C1131.433,810.698,1132.908,810.126,1134.172,810.682z M1066.459,795.086h29.031
			c5.619,0,10.191,4.572,10.191,10.192c0,5.619-4.572,10.191-10.191,10.191h-29.031c-5.619,0-10.191-4.572-10.191-10.191
			C1056.268,799.658,1060.84,795.086,1066.459,795.086z"/>
		<path fill="#27AAE1" d="M1066.459,810.47h29.031c2.862,0,5.191-2.329,5.191-5.191c0-2.863-2.329-5.192-5.191-5.192h-29.031
			c-2.862,0-5.191,2.329-5.191,5.192C1061.268,808.141,1063.597,810.47,1066.459,810.47z"/>
		<path fill="#27AAE1" d="M1099.412,913.246c0.652,0.288,1.132,0.798,1.412,1.399l8.688-8.196l-11.612-5.115l-0.176,11.729
			C1098.273,912.954,1098.859,913.003,1099.412,913.246z"/>
		<path fill="#27AAE1" d="M1066.268,750.086v-8.833h-10.246c-4.411,0-8,3.844-8,8.567v23.518h149.492V749.82
			c0-4.724-3.589-8.567-8-8.567h-10.246v8.833c0,1.381-1.119,2.5-2.5,2.5s-2.5-1.119-2.5-2.5v-8.833h-7v8.833
			c0,1.381-1.119,2.5-2.5,2.5s-2.5-1.119-2.5-2.5v-8.833h-7v8.833c0,1.381-1.119,2.5-2.5,2.5s-2.5-1.119-2.5-2.5v-8.833h-7v8.833
			c0,1.381-1.119,2.5-2.5,2.5s-2.5-1.119-2.5-2.5v-8.833h-7v8.833c0,1.381-1.119,2.5-2.5,2.5s-2.5-1.119-2.5-2.5v-8.833h-7v8.833
			c0,1.381-1.119,2.5-2.5,2.5s-2.5-1.119-2.5-2.5v-8.833h-7v8.833c0,1.381-1.119,2.5-2.5,2.5s-2.5-1.119-2.5-2.5v-8.833h-7v8.833
			c0,1.381-1.119,2.5-2.5,2.5s-2.5-1.119-2.5-2.5v-8.833h-7v8.833c0,1.381-1.119,2.5-2.5,2.5s-2.5-1.119-2.5-2.5v-8.833h-7v8.833
			c0,1.381-1.119,2.5-2.5,2.5S1066.268,751.467,1066.268,750.086z"/>
	</g>
	<path display="inline" fill="#27AAE1" d="M202.487,741.253v215h178V768.361l-16.265-27.108H202.487z M250.82,760.338h55.334
		c0.829,0,1.5,0.671,1.5,1.5c0,0.828-0.671,1.5-1.5,1.5H250.82c-0.829,0-1.5-0.672-1.5-1.5
		C249.32,761.009,249.992,760.338,250.82,760.338z M214.403,944.502c-2.438,0-4.416-1.979-4.416-4.417s1.978-4.417,4.416-4.417
		c2.439,0,4.417,1.979,4.417,4.417S216.843,944.502,214.403,944.502z M214.403,921.668c-2.438,0-4.416-1.977-4.416-4.416
		s1.978-4.416,4.416-4.416c2.439,0,4.417,1.977,4.417,4.416S216.843,921.668,214.403,921.668z M214.403,898.836
		c-2.438,0-4.416-1.979-4.416-4.417s1.978-4.417,4.416-4.417c2.439,0,4.417,1.979,4.417,4.417S216.843,898.836,214.403,898.836z
		 M214.403,876.002c-2.438,0-4.416-1.977-4.416-4.416s1.978-4.416,4.416-4.416c2.439,0,4.417,1.977,4.417,4.416
		S216.843,876.002,214.403,876.002z M214.403,853.17c-2.438,0-4.416-1.979-4.416-4.417s1.978-4.417,4.416-4.417
		c2.439,0,4.417,1.979,4.417,4.417S216.843,853.17,214.403,853.17z M214.403,830.336c-2.438,0-4.416-1.977-4.416-4.416
		s1.978-4.416,4.416-4.416c2.439,0,4.417,1.977,4.417,4.416S216.843,830.336,214.403,830.336z M214.403,807.504
		c-2.438,0-4.416-1.979-4.416-4.417s1.978-4.417,4.416-4.417c2.439,0,4.417,1.979,4.417,4.417S216.843,807.504,214.403,807.504z
		 M214.403,784.67c-2.438,0-4.416-1.977-4.416-4.416s1.978-4.416,4.416-4.416c2.439,0,4.417,1.977,4.417,4.416
		S216.843,784.67,214.403,784.67z M214.403,761.838c-2.438,0-4.416-1.979-4.416-4.417s1.978-4.417,4.416-4.417
		c2.439,0,4.417,1.979,4.417,4.417S216.843,761.838,214.403,761.838z M232.32,945.253c0,1.381-1.119,2.5-2.5,2.5s-2.5-1.119-2.5-2.5
		V827.92c0-1.381,1.119-2.5,2.5-2.5s2.5,1.119,2.5,2.5V945.253z M232.32,803.92c0,1.381-1.119,2.5-2.5,2.5s-2.5-1.119-2.5-2.5
		v-51.334c0-1.381,1.119-2.5,2.5-2.5s2.5,1.119,2.5,2.5V803.92z M358.154,939.755H250.82c-0.829,0-1.5-0.672-1.5-1.5
		s0.671-1.5,1.5-1.5h107.334c0.829,0,1.5,0.672,1.5,1.5S358.983,939.755,358.154,939.755z M358.154,926.422H250.82
		c-0.829,0-1.5-0.672-1.5-1.5s0.671-1.5,1.5-1.5h107.334c0.829,0,1.5,0.672,1.5,1.5S358.983,926.422,358.154,926.422z
		 M358.154,913.088H250.82c-0.829,0-1.5-0.672-1.5-1.5s0.671-1.5,1.5-1.5h107.334c0.829,0,1.5,0.672,1.5,1.5
		S358.983,913.088,358.154,913.088z M358.154,899.754H250.82c-0.829,0-1.5-0.672-1.5-1.5s0.671-1.5,1.5-1.5h107.334
		c0.829,0,1.5,0.672,1.5,1.5S358.983,899.754,358.154,899.754z M358.154,886.421H250.82c-0.829,0-1.5-0.672-1.5-1.5
		s0.671-1.5,1.5-1.5h107.334c0.829,0,1.5,0.672,1.5,1.5S358.983,886.421,358.154,886.421z M358.154,873.088H250.82
		c-0.829,0-1.5-0.672-1.5-1.5s0.671-1.5,1.5-1.5h107.334c0.829,0,1.5,0.672,1.5,1.5S358.983,873.088,358.154,873.088z
		 M358.154,859.754H250.82c-0.829,0-1.5-0.672-1.5-1.5s0.671-1.5,1.5-1.5h107.334c0.829,0,1.5,0.672,1.5,1.5
		S358.983,859.754,358.154,859.754z M358.154,846.42H250.82c-0.829,0-1.5-0.672-1.5-1.5s0.671-1.5,1.5-1.5h107.334
		c0.829,0,1.5,0.672,1.5,1.5S358.983,846.42,358.154,846.42z M358.154,833.087H250.82c-0.829,0-1.5-0.672-1.5-1.5s0.671-1.5,1.5-1.5
		h107.334c0.829,0,1.5,0.672,1.5,1.5S358.983,833.087,358.154,833.087z M358.154,819.754H250.82c-0.829,0-1.5-0.672-1.5-1.5
		s0.671-1.5,1.5-1.5h107.334c0.829,0,1.5,0.672,1.5,1.5S358.983,819.754,358.154,819.754z M358.154,806.42H250.82
		c-0.829,0-1.5-0.672-1.5-1.5s0.671-1.5,1.5-1.5h107.334c0.829,0,1.5,0.672,1.5,1.5S358.983,806.42,358.154,806.42z
		 M358.154,793.086H250.82c-0.829,0-1.5-0.672-1.5-1.5s0.671-1.5,1.5-1.5h107.334c0.829,0,1.5,0.672,1.5,1.5
		S358.983,793.086,358.154,793.086z M358.154,779.753H250.82c-0.829,0-1.5-0.671-1.5-1.5s0.671-1.5,1.5-1.5h107.334
		c0.829,0,1.5,0.671,1.5,1.5S358.983,779.753,358.154,779.753z"/>
	<g display="inline">
		<path fill="#27AAE1" d="M472.487,948.623c0,4.207,3.472,7.63,7.739,7.63H589.7c2.406-5.042,8.263-17.392,11.856-25.604
			c1.089-2.49,2.487-4.536,4.032-6.227H485.887c-0.829,0-1.5-0.672-1.5-1.5s0.671-1.5,1.5-1.5h123.048
			c5.714-4.191,11.894-4.79,12.277-4.822c0.114-0.01,0.228-0.015,0.342-0.015h16.003V778.338H472.487V948.623z M485.887,795.42
			h44.667c0.829,0,1.5,0.672,1.5,1.5s-0.671,1.5-1.5,1.5h-44.667c-0.829,0-1.5-0.672-1.5-1.5S485.058,795.42,485.887,795.42z
			 M485.887,819.42h133.968c0.829,0,1.5,0.672,1.5,1.5s-0.671,1.5-1.5,1.5H485.887c-0.829,0-1.5-0.672-1.5-1.5
			S485.058,819.42,485.887,819.42z M485.887,836.42h133.968c0.829,0,1.5,0.672,1.5,1.5s-0.671,1.5-1.5,1.5H485.887
			c-0.829,0-1.5-0.672-1.5-1.5S485.058,836.42,485.887,836.42z M485.887,853.421h133.968c0.829,0,1.5,0.672,1.5,1.5
			s-0.671,1.5-1.5,1.5H485.887c-0.829,0-1.5-0.672-1.5-1.5S485.058,853.421,485.887,853.421z M485.887,870.422h133.968
			c0.829,0,1.5,0.672,1.5,1.5s-0.671,1.5-1.5,1.5H485.887c-0.829,0-1.5-0.672-1.5-1.5S485.058,870.422,485.887,870.422z
			 M485.887,887.422h133.968c0.829,0,1.5,0.672,1.5,1.5s-0.671,1.5-1.5,1.5H485.887c-0.829,0-1.5-0.672-1.5-1.5
			S485.058,887.422,485.887,887.422z M485.887,904.422h133.968c0.829,0,1.5,0.672,1.5,1.5s-0.671,1.5-1.5,1.5H485.887
			c-0.829,0-1.5-0.672-1.5-1.5S485.058,904.422,485.887,904.422z"/>
		<path fill="#27AAE1" d="M629.817,741.253h-9.963v4.5c0,2.669-2.164,4.833-4.833,4.833c-2.67,0-4.834-2.164-4.834-4.833v-4.5
			h-14.333v4.5c0,2.669-2.164,4.833-4.833,4.833c-2.67,0-4.834-2.164-4.834-4.833v-4.5h-14.333v4.5c0,2.669-2.164,4.833-4.833,4.833
			c-2.67,0-4.834-2.164-4.834-4.833v-4.5h-14.333v4.5c0,2.669-2.164,4.833-4.833,4.833c-2.67,0-4.834-2.164-4.834-4.833v-4.5
			h-14.333v4.5c0,2.669-2.164,4.833-4.833,4.833c-2.67,0-4.834-2.164-4.834-4.833v-4.5h-14.333v4.5c0,2.669-2.164,4.833-4.833,4.833
			c-2.67,0-4.834-2.164-4.834-4.833v-4.5h-9.961c-4.268,0-7.739,3.423-7.739,7.63v24.455h165.069v-24.455
			C637.557,744.676,634.085,741.253,629.817,741.253z"/>
		<path fill="#27AAE1" d="M608.885,933.856c-2.906,6.642-7.258,15.923-10.128,21.979c23.267-3.052,33.568-22.068,37.229-31.25
			h-14.22C620.587,924.731,612.313,926.021,608.885,933.856z"/>
	</g>
	<g display="inline">
		<path fill="#27AAE1" d="M730.021,948.253c0,4.411,3.589,8,8,8h210.001c4.411,0,8-3.589,8-8V772.002H730.021V948.253z
			 M748.521,794.002h189.001c0.828,0,1.5,0.672,1.5,1.5s-0.672,1.5-1.5,1.5H748.521c-0.828,0-1.5-0.672-1.5-1.5
			S747.693,794.002,748.521,794.002z M748.521,815.336h189.001c0.828,0,1.5,0.672,1.5,1.5s-0.672,1.5-1.5,1.5H748.521
			c-0.828,0-1.5-0.672-1.5-1.5S747.693,815.336,748.521,815.336z M748.521,836.672h189.001c0.828,0,1.5,0.672,1.5,1.5
			s-0.672,1.5-1.5,1.5H748.521c-0.828,0-1.5-0.672-1.5-1.5S747.693,836.672,748.521,836.672z M748.521,858.006h189.001
			c0.828,0,1.5,0.672,1.5,1.5s-0.672,1.5-1.5,1.5H748.521c-0.828,0-1.5-0.672-1.5-1.5S747.693,858.006,748.521,858.006z
			 M748.521,879.342h189.001c0.828,0,1.5,0.672,1.5,1.5s-0.672,1.5-1.5,1.5H748.521c-0.828,0-1.5-0.672-1.5-1.5
			S747.693,879.342,748.521,879.342z M748.521,900.676h189.001c0.828,0,1.5,0.672,1.5,1.5s-0.672,1.5-1.5,1.5H748.521
			c-0.828,0-1.5-0.672-1.5-1.5S747.693,900.676,748.521,900.676z M748.521,922.012h189.001c0.828,0,1.5,0.672,1.5,1.5
			s-0.672,1.5-1.5,1.5H748.521c-0.828,0-1.5-0.672-1.5-1.5S747.693,922.012,748.521,922.012z"/>
		<path fill="#27AAE1" d="M948.022,741.753h-16.168v4c0,2.669-2.164,4.833-4.832,4.833c-2.67,0-4.834-2.164-4.834-4.833v-4h-14.334
			v4c0,2.669-2.164,4.833-4.832,4.833c-2.67,0-4.834-2.164-4.834-4.833v-4h-14.334v4c0,2.669-2.164,4.833-4.832,4.833
			c-2.67,0-4.834-2.164-4.834-4.833v-4h-14.334v4c0,2.669-2.164,4.833-4.832,4.833c-2.67,0-4.834-2.164-4.834-4.833v-4h-14.334v4
			c0,2.669-2.164,4.833-4.832,4.833c-2.67,0-4.834-2.164-4.834-4.833v-4h-14.334v4c0,2.669-2.164,4.833-4.832,4.833
			c-2.67,0-4.834-2.164-4.834-4.833v-4h-14.334v4c0,2.669-2.164,4.833-4.833,4.833c-2.67,0-4.834-2.164-4.834-4.833v-4h-14.334v4
			c0,2.669-2.164,4.833-4.832,4.833c-2.67,0-4.834-2.164-4.834-4.833v-4h-16.166c-4.411,0-8,3.589-8,8v17.249h226.001v-17.249
			C956.022,745.342,952.434,741.753,948.022,741.753z"/>
	</g>
</g>
<g id="preview">
	<rect x="-53.075" y="-35.052" fill="#514E5A" width="1506.15" height="1050.105"/>
	<g>
		
			<polygon fill="none" stroke="#0D0E1F" stroke-width="8" stroke-linecap="round" stroke-linejoin="round" stroke-miterlimit="10" points="
			366.487,88.917 198.487,88.917 198.487,311.917 384.487,311.917 384.487,118.917 		"/>
		
			<line fill="none" stroke="#0D0E1F" stroke-width="5" stroke-linecap="round" stroke-linejoin="round" stroke-miterlimit="10" x1="229.82" y1="104.25" x2="229.82" y2="155.584"/>
		
			<line fill="none" stroke="#0D0E1F" stroke-width="5" stroke-linecap="round" stroke-linejoin="round" stroke-miterlimit="10" x1="229.82" y1="179.584" x2="229.82" y2="296.917"/>
		<g>
			<circle cx="214.403" cy="109.085" r="4.417"/>
			<circle cx="214.403" cy="131.918" r="4.417"/>
			<circle cx="214.403" cy="154.751" r="4.417"/>
			<circle cx="214.403" cy="177.584" r="4.417"/>
			<circle cx="214.403" cy="200.417" r="4.417"/>
			<circle cx="214.403" cy="223.25" r="4.417"/>
			<circle cx="214.403" cy="246.083" r="4.417"/>
			<circle cx="214.403" cy="268.916" r="4.417"/>
			<circle cx="214.403" cy="291.749" r="4.417"/>
		</g>
		
			<line fill="none" stroke="#0D0E1F" stroke-width="3" stroke-linecap="round" stroke-linejoin="round" stroke-miterlimit="10" x1="250.82" y1="113.501" x2="306.154" y2="113.501"/>
		
			<line fill="none" stroke="#0D0E1F" stroke-width="3" stroke-linecap="round" stroke-linejoin="round" stroke-miterlimit="10" x1="250.82" y1="129.917" x2="358.154" y2="129.917"/>
		
			<line fill="none" stroke="#0D0E1F" stroke-width="3" stroke-linecap="round" stroke-linejoin="round" stroke-miterlimit="10" x1="250.82" y1="143.25" x2="358.154" y2="143.25"/>
		
			<line fill="none" stroke="#0D0E1F" stroke-width="3" stroke-linecap="round" stroke-linejoin="round" stroke-miterlimit="10" x1="250.82" y1="156.584" x2="358.154" y2="156.584"/>
		
			<line fill="none" stroke="#0D0E1F" stroke-width="3" stroke-linecap="round" stroke-linejoin="round" stroke-miterlimit="10" x1="250.82" y1="169.917" x2="358.154" y2="169.917"/>
		
			<line fill="none" stroke="#0D0E1F" stroke-width="3" stroke-linecap="round" stroke-linejoin="round" stroke-miterlimit="10" x1="250.82" y1="183.251" x2="358.154" y2="183.251"/>
		
			<line fill="none" stroke="#0D0E1F" stroke-width="3" stroke-linecap="round" stroke-linejoin="round" stroke-miterlimit="10" x1="250.82" y1="196.584" x2="358.154" y2="196.584"/>
		
			<line fill="none" stroke="#0D0E1F" stroke-width="3" stroke-linecap="round" stroke-linejoin="round" stroke-miterlimit="10" x1="250.82" y1="209.918" x2="358.154" y2="209.918"/>
		
			<line fill="none" stroke="#0D0E1F" stroke-width="3" stroke-linecap="round" stroke-linejoin="round" stroke-miterlimit="10" x1="250.82" y1="223.251" x2="358.154" y2="223.251"/>
		
			<line fill="none" stroke="#0D0E1F" stroke-width="3" stroke-linecap="round" stroke-linejoin="round" stroke-miterlimit="10" x1="250.82" y1="236.585" x2="358.154" y2="236.585"/>
		
			<line fill="none" stroke="#0D0E1F" stroke-width="3" stroke-linecap="round" stroke-linejoin="round" stroke-miterlimit="10" x1="250.82" y1="249.918" x2="358.154" y2="249.918"/>
		
			<line fill="none" stroke="#0D0E1F" stroke-width="3" stroke-linecap="round" stroke-linejoin="round" stroke-miterlimit="10" x1="250.82" y1="263.252" x2="358.154" y2="263.252"/>
		
			<line fill="none" stroke="#0D0E1F" stroke-width="3" stroke-linecap="round" stroke-linejoin="round" stroke-miterlimit="10" x1="250.82" y1="276.585" x2="358.154" y2="276.585"/>
		
			<line fill="none" stroke="#0D0E1F" stroke-width="3" stroke-linecap="round" stroke-linejoin="round" stroke-miterlimit="10" x1="250.82" y1="289.919" x2="358.154" y2="289.919"/>
	</g>
	<g>
		<path fill="none" stroke="#0D0E1F" stroke-width="8" stroke-linejoin="round" stroke-miterlimit="10" d="M592.216,311.917h-111.99
			c-6.489,0-11.739-5.21-11.739-11.63v-199.74c0-6.42,5.25-11.63,11.739-11.63h149.591c6.479,0,11.739,5.21,11.739,11.63V272.25"/>
		<g>
			<path fill="#0D0E1F" d="M499.854,97.417c0,2.669-2.164,4.833-4.833,4.833l0,0c-2.67,0-4.834-2.164-4.834-4.833v-16
				c0-2.67,2.164-4.834,4.834-4.834l0,0c2.669,0,4.833,2.164,4.833,4.834V97.417z"/>
			<path fill="#0D0E1F" d="M523.854,97.417c0,2.669-2.164,4.833-4.833,4.833l0,0c-2.67,0-4.834-2.164-4.834-4.833v-16
				c0-2.67,2.164-4.834,4.834-4.834l0,0c2.669,0,4.833,2.164,4.833,4.834V97.417z"/>
			<path fill="#0D0E1F" d="M547.854,97.417c0,2.669-2.164,4.833-4.833,4.833l0,0c-2.67,0-4.834-2.164-4.834-4.833v-16
				c0-2.67,2.164-4.834,4.834-4.834l0,0c2.669,0,4.833,2.164,4.833,4.834V97.417z"/>
			<path fill="#0D0E1F" d="M571.854,97.417c0,2.669-2.164,4.833-4.833,4.833l0,0c-2.67,0-4.834-2.164-4.834-4.833v-16
				c0-2.67,2.164-4.834,4.834-4.834l0,0c2.669,0,4.833,2.164,4.833,4.834V97.417z"/>
			<path fill="#0D0E1F" d="M595.854,97.417c0,2.669-2.164,4.833-4.833,4.833l0,0c-2.67,0-4.834-2.164-4.834-4.833v-16
				c0-2.67,2.164-4.834,4.834-4.834l0,0c2.669,0,4.833,2.164,4.833,4.834V97.417z"/>
			<path fill="#0D0E1F" d="M619.854,97.417c0,2.669-2.164,4.833-4.833,4.833l0,0c-2.67,0-4.834-2.164-4.834-4.833v-16
				c0-2.67,2.164-4.834,4.834-4.834l0,0c2.669,0,4.833,2.164,4.833,4.834V97.417z"/>
		</g>
		
			<line fill="none" stroke="#0D0E1F" stroke-width="5" stroke-linecap="round" stroke-linejoin="round" stroke-miterlimit="10" x1="468.488" y1="127.501" x2="641.553" y2="127.501"/>
		<path fill="none" stroke="#0D0E1F" stroke-width="8" stroke-linecap="round" stroke-linejoin="round" stroke-miterlimit="10" d="
			M592.22,311.917c0,0,8.333-17.334,13-28c4.666-10.667,16.333-11.667,16.333-11.667h20
			C641.553,272.25,631.886,311.917,592.22,311.917z"/>
		
			<line fill="none" stroke="#0D0E1F" stroke-width="3" stroke-linecap="round" stroke-linejoin="round" stroke-miterlimit="10" x1="485.886" y1="148.584" x2="530.553" y2="148.584"/>
		
			<line fill="none" stroke="#0D0E1F" stroke-width="3" stroke-linecap="round" stroke-linejoin="round" stroke-miterlimit="10" x1="485.886" y1="172.584" x2="619.854" y2="172.584"/>
		
			<line fill="none" stroke="#0D0E1F" stroke-width="3" stroke-linecap="round" stroke-linejoin="round" stroke-miterlimit="10" x1="485.886" y1="189.584" x2="619.854" y2="189.584"/>
		
			<line fill="none" stroke="#0D0E1F" stroke-width="3" stroke-linecap="round" stroke-linejoin="round" stroke-miterlimit="10" x1="485.886" y1="206.585" x2="619.854" y2="206.585"/>
		
			<line fill="none" stroke="#0D0E1F" stroke-width="3" stroke-linecap="round" stroke-linejoin="round" stroke-miterlimit="10" x1="485.886" y1="223.585" x2="619.854" y2="223.585"/>
		
			<line fill="none" stroke="#0D0E1F" stroke-width="3" stroke-linecap="round" stroke-linejoin="round" stroke-miterlimit="10" x1="485.886" y1="240.586" x2="619.854" y2="240.586"/>
		
			<line fill="none" stroke="#0D0E1F" stroke-width="3" stroke-linecap="round" stroke-linejoin="round" stroke-miterlimit="10" x1="485.886" y1="257.586" x2="619.854" y2="257.586"/>
		
			<line fill="none" stroke="#0D0E1F" stroke-width="3" stroke-linecap="round" stroke-linejoin="round" stroke-miterlimit="10" x1="485.886" y1="274.587" x2="612.188" y2="274.587"/>
	</g>
	<g>
		<g>
			<path fill="#0D0E1F" d="M759.021,76.583c-2.67,0-4.834,2.164-4.834,4.834v16c0,2.669,2.164,4.833,4.834,4.833
				c2.668,0,4.832-2.164,4.832-4.833v-16C763.854,78.747,761.689,76.583,759.021,76.583z"/>
			<path fill="#0D0E1F" d="M783.021,76.583c-2.67,0-4.834,2.164-4.834,4.834v16c0,2.669,2.164,4.833,4.834,4.833
				c2.668,0,4.832-2.164,4.832-4.833v-16C787.854,78.747,785.689,76.583,783.021,76.583z"/>
			<path fill="#0D0E1F" d="M807.021,76.583c-2.67,0-4.834,2.164-4.834,4.834v16c0,2.669,2.164,4.833,4.834,4.833
				c2.668,0,4.832-2.164,4.832-4.833v-16C811.854,78.747,809.689,76.583,807.021,76.583z"/>
			<path fill="#0D0E1F" d="M831.021,76.583c-2.67,0-4.834,2.164-4.834,4.834v16c0,2.669,2.164,4.833,4.834,4.833
				c2.668,0,4.832-2.164,4.832-4.833v-16C835.854,78.747,833.689,76.583,831.021,76.583z"/>
			<path fill="#0D0E1F" d="M855.021,76.583c-2.67,0-4.834,2.164-4.834,4.834v16c0,2.669,2.164,4.833,4.834,4.833
				c2.668,0,4.832-2.164,4.832-4.833v-16C859.854,78.747,857.689,76.583,855.021,76.583z"/>
			<path fill="#0D0E1F" d="M879.021,76.583c-2.67,0-4.834,2.164-4.834,4.834v16c0,2.669,2.164,4.833,4.834,4.833
				c2.668,0,4.832-2.164,4.832-4.833v-16C883.854,78.747,881.689,76.583,879.021,76.583z"/>
			<path fill="#0D0E1F" d="M903.021,76.583c-2.67,0-4.834,2.164-4.834,4.834v16c0,2.669,2.164,4.833,4.834,4.833
				c2.668,0,4.832-2.164,4.832-4.833v-16C907.854,78.747,905.689,76.583,903.021,76.583z"/>
			<path fill="#0D0E1F" d="M927.021,76.583c-2.67,0-4.834,2.164-4.834,4.834v16c0,2.669,2.164,4.833,4.834,4.833
				c2.668,0,4.832-2.164,4.832-4.833v-16C931.854,78.747,929.689,76.583,927.021,76.583z"/>
		</g>
		<path fill="none" stroke="#0D0E1F" stroke-width="8" stroke-linejoin="round" stroke-miterlimit="10" d="M960.021,299.917
			c0,6.627-5.373,12-12,12h-210c-6.627,0-12-5.373-12-12v-198.5c0-6.628,5.373-12,12-12h210c6.627,0,12,5.372,12,12V299.917z"/>
		
			<line fill="none" stroke="#0D0E1F" stroke-width="5" stroke-linecap="round" stroke-linejoin="round" stroke-miterlimit="10" x1="726.021" y1="121.165" x2="960.021" y2="121.165"/>
		
			<line fill="none" stroke="#0D0E1F" stroke-width="3" stroke-linecap="round" stroke-linejoin="round" stroke-miterlimit="10" x1="748.521" y1="147.165" x2="937.521" y2="147.165"/>
		
			<line fill="none" stroke="#0D0E1F" stroke-width="3" stroke-linecap="round" stroke-linejoin="round" stroke-miterlimit="10" x1="748.521" y1="168.5" x2="937.521" y2="168.5"/>
		
			<line fill="none" stroke="#0D0E1F" stroke-width="3" stroke-linecap="round" stroke-linejoin="round" stroke-miterlimit="10" x1="748.521" y1="189.835" x2="937.521" y2="189.835"/>
		
			<line fill="none" stroke="#0D0E1F" stroke-width="3" stroke-linecap="round" stroke-linejoin="round" stroke-miterlimit="10" x1="748.521" y1="211.17" x2="937.521" y2="211.17"/>
		
			<line fill="none" stroke="#0D0E1F" stroke-width="3" stroke-linecap="round" stroke-linejoin="round" stroke-miterlimit="10" x1="748.521" y1="232.505" x2="937.521" y2="232.505"/>
		
			<line fill="none" stroke="#0D0E1F" stroke-width="3" stroke-linecap="round" stroke-linejoin="round" stroke-miterlimit="10" x1="748.521" y1="253.84" x2="937.521" y2="253.84"/>
		
			<line fill="none" stroke="#0D0E1F" stroke-width="3" stroke-linecap="round" stroke-linejoin="round" stroke-miterlimit="10" x1="748.521" y1="275.175" x2="937.521" y2="275.175"/>
	</g>
	<g>
		<path fill="none" stroke="#0D0E1F" stroke-width="8" stroke-linejoin="round" stroke-miterlimit="10" d="M1201.514,299.349
			c0,6.941-5.373,12.568-12,12.568h-133.492c-6.627,0-12-5.627-12-12.568V101.484c0-6.94,5.373-12.567,12-12.567h133.492
			c6.627,0,12,5.627,12,12.567V299.349z"/>
		<g>
			
				<line fill="none" stroke="#0D0E1F" stroke-width="5" stroke-linecap="round" stroke-linejoin="round" stroke-miterlimit="10" x1="1068.768" y1="76.083" x2="1068.768" y2="101.75"/>
			
				<line fill="none" stroke="#0D0E1F" stroke-width="5" stroke-linecap="round" stroke-linejoin="round" stroke-miterlimit="10" x1="1080.768" y1="76.083" x2="1080.768" y2="101.75"/>
			
				<line fill="none" stroke="#0D0E1F" stroke-width="5" stroke-linecap="round" stroke-linejoin="round" stroke-miterlimit="10" x1="1092.768" y1="76.083" x2="1092.768" y2="101.75"/>
			
				<line fill="none" stroke="#0D0E1F" stroke-width="5" stroke-linecap="round" stroke-linejoin="round" stroke-miterlimit="10" x1="1104.768" y1="76.083" x2="1104.768" y2="101.75"/>
			
				<line fill="none" stroke="#0D0E1F" stroke-width="5" stroke-linecap="round" stroke-linejoin="round" stroke-miterlimit="10" x1="1116.768" y1="76.083" x2="1116.768" y2="101.75"/>
			
				<line fill="none" stroke="#0D0E1F" stroke-width="5" stroke-linecap="round" stroke-linejoin="round" stroke-miterlimit="10" x1="1128.768" y1="76.083" x2="1128.768" y2="101.75"/>
			
				<line fill="none" stroke="#0D0E1F" stroke-width="5" stroke-linecap="round" stroke-linejoin="round" stroke-miterlimit="10" x1="1140.768" y1="76.083" x2="1140.768" y2="101.75"/>
			
				<line fill="none" stroke="#0D0E1F" stroke-width="5" stroke-linecap="round" stroke-linejoin="round" stroke-miterlimit="10" x1="1152.768" y1="76.083" x2="1152.768" y2="101.75"/>
			
				<line fill="none" stroke="#0D0E1F" stroke-width="5" stroke-linecap="round" stroke-linejoin="round" stroke-miterlimit="10" x1="1164.768" y1="76.083" x2="1164.768" y2="101.75"/>
			
				<line fill="none" stroke="#0D0E1F" stroke-width="5" stroke-linecap="round" stroke-linejoin="round" stroke-miterlimit="10" x1="1176.768" y1="76.083" x2="1176.768" y2="101.75"/>
		</g>
		
			<line fill="none" stroke="#0D0E1F" stroke-width="5" stroke-linecap="round" stroke-linejoin="round" stroke-miterlimit="10" x1="1044.021" y1="127.501" x2="1201.514" y2="127.501"/>
		
			<polygon fill="none" stroke="#0D0E1F" stroke-width="5" stroke-linecap="round" stroke-linejoin="round" stroke-miterlimit="10" points="
			1142.035,168.54 1150.904,172.447 1113.182,258.09 1095.066,275.175 1095.441,250.275 1133.164,164.634 		"/>
		
			<line fill="none" stroke="#0D0E1F" stroke-width="3" stroke-linecap="round" stroke-linejoin="round" stroke-miterlimit="10" x1="1095.441" y1="250.275" x2="1113.182" y2="258.09"/>
		<path fill="#0D0E1F" d="M1100.859,268.638c-0.631,1.43-2.301,2.077-3.729,1.447c-1.43-0.629-2.078-2.298-1.449-3.727
			c0.631-1.431,2.299-2.079,3.73-1.449C1100.838,265.538,1101.488,267.207,1100.859,268.638z"/>
		
			<line fill="none" stroke="#0D0E1F" stroke-width="2" stroke-linecap="round" stroke-linejoin="round" stroke-miterlimit="10" x1="1104.313" y1="254.183" x2="1134.611" y2="185.393"/>
		
			<line fill="none" stroke="#0D0E1F" stroke-width="3" stroke-linecap="round" stroke-linejoin="round" stroke-miterlimit="10" x1="1126.176" y1="180.5" x2="1143.916" y2="188.313"/>
		
			<line fill="none" stroke="#0D0E1F" stroke-width="4" stroke-linecap="round" stroke-linejoin="round" stroke-miterlimit="10" x1="1115.473" y1="275.175" x2="1136.881" y2="275.175"/>
		
			<line fill="none" stroke="#0D0E1F" stroke-width="4" stroke-linecap="round" stroke-linejoin="round" stroke-miterlimit="10" x1="1148.916" y1="275.175" x2="1155.904" y2="275.175"/>
		<path fill="none" stroke="#0D0E1F" stroke-width="5" stroke-linecap="round" stroke-linejoin="round" stroke-miterlimit="10" d="
			M1103.182,156.942c0,4.247-3.443,7.691-7.691,7.691h-29.031c-4.248,0-7.691-3.444-7.691-7.691l0,0
			c0-4.248,3.443-7.692,7.691-7.692h29.031C1099.738,149.25,1103.182,152.694,1103.182,156.942L1103.182,156.942z"/>
		<path fill="none" stroke="#0D0E1F" stroke-width="5" stroke-linejoin="round" stroke-miterlimit="10" d="M1201.514,286.849
			c0,6.941-5.373,12.568-12,12.568h-133.492c-6.627,0-12-5.627-12-12.568"/>
	</g>
	<path fill="#31B78D" d="M948.021,395.417h-16.168v4c0,2.669-2.164,4.833-4.832,4.833c-2.67,0-4.834-2.164-4.834-4.833v-4h-14.334v4
		c0,2.669-2.164,4.833-4.832,4.833c-2.67,0-4.834-2.164-4.834-4.833v-4h-14.334v4c0,2.669-2.164,4.833-4.832,4.833
		c-2.67,0-4.834-2.164-4.834-4.833v-4h-14.334v4c0,2.669-2.164,4.833-4.832,4.833c-2.67,0-4.834-2.164-4.834-4.833v-4h-14.334v4
		c0,2.669-2.164,4.833-4.832,4.833c-2.67,0-4.834-2.164-4.834-4.833v-4h-14.334v4c0,2.669-2.164,4.833-4.832,4.833
		c-2.67,0-4.834-2.164-4.834-4.833v-4h-14.334v4c0,2.669-2.164,4.833-4.832,4.833c-2.67,0-4.834-2.164-4.834-4.833v-4h-14.334v4
		c0,2.669-2.164,4.833-4.832,4.833c-2.67,0-4.834-2.164-4.834-4.833v-4h-16.166c-4.412,0-8,3.589-8,8v17.248h226v-17.248
		C956.021,399.006,952.434,395.417,948.021,395.417z"/>
	<path fill="#FFFFFF" d="M730.021,601.917c0,4.411,3.588,8,8,8h210c4.412,0,8-3.589,8-8V425.665h-226V601.917z M748.521,447.666h189
		c0.828,0,1.5,0.672,1.5,1.5s-0.672,1.5-1.5,1.5h-189c-0.828,0-1.5-0.672-1.5-1.5S747.693,447.666,748.521,447.666z M748.521,469
		h189c0.828,0,1.5,0.672,1.5,1.5s-0.672,1.5-1.5,1.5h-189c-0.828,0-1.5-0.672-1.5-1.5S747.693,469,748.521,469z M748.521,490.336
		h189c0.828,0,1.5,0.672,1.5,1.5s-0.672,1.5-1.5,1.5h-189c-0.828,0-1.5-0.672-1.5-1.5S747.693,490.336,748.521,490.336z
		 M748.521,511.67h189c0.828,0,1.5,0.672,1.5,1.5s-0.672,1.5-1.5,1.5h-189c-0.828,0-1.5-0.672-1.5-1.5
		S747.693,511.67,748.521,511.67z M748.521,533.006h189c0.828,0,1.5,0.672,1.5,1.5s-0.672,1.5-1.5,1.5h-189
		c-0.828,0-1.5-0.672-1.5-1.5S747.693,533.006,748.521,533.006z M748.521,554.34h189c0.828,0,1.5,0.672,1.5,1.5s-0.672,1.5-1.5,1.5
		h-189c-0.828,0-1.5-0.672-1.5-1.5S747.693,554.34,748.521,554.34z M748.521,575.676h189c0.828,0,1.5,0.672,1.5,1.5
		s-0.672,1.5-1.5,1.5h-189c-0.828,0-1.5-0.672-1.5-1.5S747.693,575.676,748.521,575.676z"/>
	<path fill="#C7C8CA" d="M1056.021,603.917c-2.955,0-5.703-0.928-7.998-2.511c0.029,4.697,3.604,8.511,7.998,8.511h133.492
		c4.393,0,7.969-3.813,7.996-8.511c-2.293,1.583-5.041,2.511-7.996,2.511H1056.021z"/>
	<path fill="#FFFFFF" d="M202.487,394.917v215h178V422.024l-16.265-27.107H202.487z M250.82,414.001h55.334
		c0.829,0,1.5,0.672,1.5,1.5c0,0.829-0.671,1.5-1.5,1.5H250.82c-0.829,0-1.5-0.671-1.5-1.5
		C249.32,414.673,249.991,414.001,250.82,414.001z M214.403,598.166c-2.438,0-4.416-1.979-4.416-4.417s1.978-4.417,4.416-4.417
		c2.439,0,4.417,1.979,4.417,4.417S216.842,598.166,214.403,598.166z M214.403,575.332c-2.438,0-4.416-1.977-4.416-4.416
		s1.978-4.416,4.416-4.416c2.439,0,4.417,1.977,4.417,4.416S216.842,575.332,214.403,575.332z M214.403,552.5
		c-2.438,0-4.416-1.979-4.416-4.417s1.978-4.417,4.416-4.417c2.439,0,4.417,1.979,4.417,4.417S216.842,552.5,214.403,552.5z
		 M214.403,529.666c-2.438,0-4.416-1.977-4.416-4.416s1.978-4.416,4.416-4.416c2.439,0,4.417,1.977,4.417,4.416
		S216.842,529.666,214.403,529.666z M214.403,506.834c-2.438,0-4.416-1.979-4.416-4.417s1.978-4.417,4.416-4.417
		c2.439,0,4.417,1.979,4.417,4.417S216.842,506.834,214.403,506.834z M214.403,484c-2.438,0-4.416-1.977-4.416-4.416
		s1.978-4.416,4.416-4.416c2.439,0,4.417,1.977,4.417,4.416S216.842,484,214.403,484z M214.403,461.168
		c-2.438,0-4.416-1.979-4.416-4.417s1.978-4.417,4.416-4.417c2.439,0,4.417,1.979,4.417,4.417S216.842,461.168,214.403,461.168z
		 M214.403,438.334c-2.438,0-4.416-1.978-4.416-4.416c0-2.439,1.978-4.417,4.416-4.417c2.439,0,4.417,1.978,4.417,4.417
		C218.82,436.356,216.842,438.334,214.403,438.334z M214.403,415.501c-2.438,0-4.416-1.978-4.416-4.416
		c0-2.439,1.978-4.417,4.416-4.417c2.439,0,4.417,1.978,4.417,4.417C218.82,413.523,216.842,415.501,214.403,415.501z
		 M232.32,598.917c0,1.381-1.119,2.5-2.5,2.5s-2.5-1.119-2.5-2.5V481.584c0-1.381,1.119-2.5,2.5-2.5s2.5,1.119,2.5,2.5V598.917z
		 M232.32,457.584c0,1.381-1.119,2.5-2.5,2.5s-2.5-1.119-2.5-2.5V406.25c0-1.381,1.119-2.5,2.5-2.5s2.5,1.119,2.5,2.5V457.584z
		 M358.154,593.419H250.82c-0.829,0-1.5-0.672-1.5-1.5s0.671-1.5,1.5-1.5h107.334c0.829,0,1.5,0.672,1.5,1.5
		S358.982,593.419,358.154,593.419z M358.154,580.086H250.82c-0.829,0-1.5-0.672-1.5-1.5s0.671-1.5,1.5-1.5h107.334
		c0.829,0,1.5,0.672,1.5,1.5S358.982,580.086,358.154,580.086z M358.154,566.752H250.82c-0.829,0-1.5-0.672-1.5-1.5
		s0.671-1.5,1.5-1.5h107.334c0.829,0,1.5,0.672,1.5,1.5S358.982,566.752,358.154,566.752z M358.154,553.418H250.82
		c-0.829,0-1.5-0.672-1.5-1.5s0.671-1.5,1.5-1.5h107.334c0.829,0,1.5,0.672,1.5,1.5S358.982,553.418,358.154,553.418z
		 M358.154,540.085H250.82c-0.829,0-1.5-0.672-1.5-1.5s0.671-1.5,1.5-1.5h107.334c0.829,0,1.5,0.672,1.5,1.5
		S358.982,540.085,358.154,540.085z M358.154,526.752H250.82c-0.829,0-1.5-0.672-1.5-1.5s0.671-1.5,1.5-1.5h107.334
		c0.829,0,1.5,0.672,1.5,1.5S358.982,526.752,358.154,526.752z M358.154,513.418H250.82c-0.829,0-1.5-0.672-1.5-1.5
		s0.671-1.5,1.5-1.5h107.334c0.829,0,1.5,0.672,1.5,1.5S358.982,513.418,358.154,513.418z M358.154,500.084H250.82
		c-0.829,0-1.5-0.672-1.5-1.5s0.671-1.5,1.5-1.5h107.334c0.829,0,1.5,0.672,1.5,1.5S358.982,500.084,358.154,500.084z
		 M358.154,486.751H250.82c-0.829,0-1.5-0.672-1.5-1.5s0.671-1.5,1.5-1.5h107.334c0.829,0,1.5,0.672,1.5,1.5
		S358.982,486.751,358.154,486.751z M358.154,473.418H250.82c-0.829,0-1.5-0.672-1.5-1.5s0.671-1.5,1.5-1.5h107.334
		c0.829,0,1.5,0.672,1.5,1.5S358.982,473.418,358.154,473.418z M358.154,460.084H250.82c-0.829,0-1.5-0.672-1.5-1.5
		s0.671-1.5,1.5-1.5h107.334c0.829,0,1.5,0.672,1.5,1.5S358.982,460.084,358.154,460.084z M358.154,446.75H250.82
		c-0.829,0-1.5-0.672-1.5-1.5s0.671-1.5,1.5-1.5h107.334c0.829,0,1.5,0.672,1.5,1.5S358.982,446.75,358.154,446.75z
		 M358.154,433.417H250.82c-0.829,0-1.5-0.672-1.5-1.5c0-0.829,0.671-1.5,1.5-1.5h107.334c0.829,0,1.5,0.671,1.5,1.5
		C359.654,432.745,358.982,433.417,358.154,433.417z"/>
	
		<rect x="1120.332" y="486.323" transform="matrix(-0.9151 -0.4032 0.4032 -0.9151 1940.6882 1454.4219)" fill="#BA6F29" width="6.191" height="73.245"/>
	<path fill="#F09B36" d="M629.817,394.917h-9.963v4.5c0,2.669-2.164,4.833-4.833,4.833c-2.67,0-4.834-2.164-4.834-4.833v-4.5
		h-14.333v4.5c0,2.669-2.164,4.833-4.833,4.833c-2.67,0-4.834-2.164-4.834-4.833v-4.5h-14.333v4.5c0,2.669-2.164,4.833-4.833,4.833
		c-2.67,0-4.834-2.164-4.834-4.833v-4.5h-14.333v4.5c0,2.669-2.164,4.833-4.833,4.833c-2.67,0-4.834-2.164-4.834-4.833v-4.5h-14.333
		v4.5c0,2.669-2.164,4.833-4.833,4.833c-2.67,0-4.834-2.164-4.834-4.833v-4.5h-14.333v4.5c0,2.669-2.164,4.833-4.833,4.833
		c-2.67,0-4.834-2.164-4.834-4.833v-4.5h-9.961c-4.268,0-7.739,3.423-7.739,7.63v24.454h165.069v-24.454
		C637.556,398.34,634.084,394.917,629.817,394.917z"/>
	<path fill="#F09B36" d="M608.885,587.521c-2.906,6.642-7.258,15.923-10.128,21.979c23.267-3.052,33.568-22.068,37.229-31.25h-14.22
		C620.587,578.396,612.313,579.685,608.885,587.521z"/>
	<path fill="#FFFFFF" d="M472.487,602.287c0,4.207,3.472,7.63,7.739,7.63H589.7c2.406-5.042,8.263-17.392,11.856-25.604
		c1.089-2.49,2.487-4.536,4.032-6.227H485.886c-0.829,0-1.5-0.672-1.5-1.5s0.671-1.5,1.5-1.5h123.048
		c5.714-4.191,11.894-4.79,12.277-4.822c0.114-0.01,0.228-0.015,0.342-0.015h16.003V432.001H472.487V602.287z M485.886,449.084
		h44.667c0.829,0,1.5,0.672,1.5,1.5s-0.671,1.5-1.5,1.5h-44.667c-0.829,0-1.5-0.672-1.5-1.5S485.058,449.084,485.886,449.084z
		 M485.886,473.084h133.968c0.829,0,1.5,0.672,1.5,1.5s-0.671,1.5-1.5,1.5H485.886c-0.829,0-1.5-0.672-1.5-1.5
		S485.058,473.084,485.886,473.084z M485.886,490.084h133.968c0.829,0,1.5,0.672,1.5,1.5s-0.671,1.5-1.5,1.5H485.886
		c-0.829,0-1.5-0.672-1.5-1.5S485.058,490.084,485.886,490.084z M485.886,507.085h133.968c0.829,0,1.5,0.672,1.5,1.5
		s-0.671,1.5-1.5,1.5H485.886c-0.829,0-1.5-0.672-1.5-1.5S485.058,507.085,485.886,507.085z M485.886,524.086h133.968
		c0.829,0,1.5,0.672,1.5,1.5s-0.671,1.5-1.5,1.5H485.886c-0.829,0-1.5-0.672-1.5-1.5S485.058,524.086,485.886,524.086z
		 M485.886,541.086h133.968c0.829,0,1.5,0.672,1.5,1.5s-0.671,1.5-1.5,1.5H485.886c-0.829,0-1.5-0.672-1.5-1.5
		S485.058,541.086,485.886,541.086z M485.886,558.086h133.968c0.829,0,1.5,0.672,1.5,1.5s-0.671,1.5-1.5,1.5H485.886
		c-0.829,0-1.5-0.672-1.5-1.5S485.058,558.086,485.886,558.086z"/>
	<path fill="#F09B36" d="M1066.459,464.134h29.031c2.861,0,5.191-2.329,5.191-5.191c0-2.863-2.33-5.192-5.191-5.192h-29.031
		c-2.863,0-5.191,2.329-5.191,5.192C1061.268,461.805,1063.596,464.134,1066.459,464.134z"/>
	
		<rect x="1131.146" y="472.263" transform="matrix(0.9151 0.4031 -0.4031 0.9151 289.6631 -418.2531)" fill="#C8535D" width="14.385" height="13.337"/>
	<path fill="#F7BF82" d="M1099.412,566.91c0.652,0.288,1.131,0.798,1.412,1.399l8.688-8.196l-11.611-5.115l-0.176,11.729
		C1098.273,566.618,1098.859,566.667,1099.412,566.91z"/>
	<path fill="#BE1F45" d="M1189.514,394.917h-10.246v8.833c0,1.381-1.119,2.5-2.5,2.5s-2.5-1.119-2.5-2.5v-8.833h-7v8.833
		c0,1.381-1.119,2.5-2.5,2.5s-2.5-1.119-2.5-2.5v-8.833h-7v8.833c0,1.381-1.119,2.5-2.5,2.5s-2.5-1.119-2.5-2.5v-8.833h-7v8.833
		c0,1.381-1.119,2.5-2.5,2.5s-2.5-1.119-2.5-2.5v-8.833h-7v8.833c0,1.381-1.119,2.5-2.5,2.5s-2.5-1.119-2.5-2.5v-8.833h-7v8.833
		c0,1.381-1.119,2.5-2.5,2.5s-2.5-1.119-2.5-2.5v-8.833h-7v8.833c0,1.381-1.119,2.5-2.5,2.5s-2.5-1.119-2.5-2.5v-8.833h-7v8.833
		c0,1.381-1.119,2.5-2.5,2.5s-2.5-1.119-2.5-2.5v-8.833h-7v8.833c0,1.381-1.119,2.5-2.5,2.5s-2.5-1.119-2.5-2.5v-8.833h-7v8.833
		c0,1.381-1.119,2.5-2.5,2.5s-2.5-1.119-2.5-2.5v-8.833h-10.246c-4.412,0-8,3.844-8,8.567v23.517h149.492v-23.517
		C1197.514,398.761,1193.924,394.917,1189.514,394.917z"/>
	<path fill="#C8535D" d="M1048.021,594.257c1.689,2.797,4.641,4.66,8,4.66h133.492c3.359,0,6.311-1.863,8-4.66V432.001h-149.492
		V594.257z M1136.881,579.176h-21.408c-1.105,0-2-0.896-2-2s0.895-2,2-2h21.408c1.104,0,2,0.896,2,2
		S1137.984,579.176,1136.881,579.176z M1157.904,577.176c0,1.104-0.896,2-2,2h-6.988c-1.105,0-2-0.896-2-2s0.895-2,2-2h6.988
		C1157.008,575.176,1157.904,576.071,1157.904,577.176z M1134.172,464.346l17.74,7.813c1.264,0.557,1.836,2.032,1.279,3.296
		l-37.723,85.643c-0.135,0.306-0.33,0.581-0.572,0.811l-18.115,17.086c-0.473,0.447-1.09,0.682-1.717,0.682
		c-0.34,0-0.682-0.069-1.006-0.212c-0.92-0.405-1.508-1.321-1.492-2.326l0.375-24.9c0.004-0.334,0.076-0.664,0.211-0.97
		l37.723-85.642C1131.432,464.362,1132.908,463.79,1134.172,464.346z M1066.459,448.75h29.031c5.619,0,10.191,4.572,10.191,10.192
		c0,5.619-4.572,10.191-10.191,10.191h-29.031c-5.619,0-10.191-4.572-10.191-10.191
		C1056.268,453.322,1060.84,448.75,1066.459,448.75z"/>
	
		<rect x="1112.833" y="483.022" transform="matrix(0.9152 0.403 -0.403 0.9152 304.0821 -405.6845)" fill="#F09B36" width="6.193" height="73.243"/>
	<rect x="468.487" y="420.665" fill="#BA6F29" width="173.066" height="9.752"/>
	<rect x="726.021" y="415.164" fill="#167754" width="234" height="6.501"/>
	<g>
		<path fill="#0D0E1F" d="M369.917,388.858c-0.723-1.204-2.025-1.941-3.43-1.941h-168c-2.209,0-4,1.791-4,4v223c0,2.209,1.791,4,4,4
			h186c2.209,0,4-1.791,4-4v-193c0-0.726-0.197-1.437-0.57-2.059L369.917,388.858z M380.487,609.917h-178v-215h161.735
			l16.265,27.107V609.917z"/>
		<path fill="#0D0E1F" d="M229.82,403.75c-1.381,0-2.5,1.119-2.5,2.5v51.334c0,1.381,1.119,2.5,2.5,2.5s2.5-1.119,2.5-2.5V406.25
			C232.32,404.869,231.201,403.75,229.82,403.75z"/>
		<path fill="#0D0E1F" d="M229.82,479.084c-1.381,0-2.5,1.119-2.5,2.5v117.333c0,1.381,1.119,2.5,2.5,2.5s2.5-1.119,2.5-2.5V481.584
			C232.32,480.203,231.201,479.084,229.82,479.084z"/>
		<circle fill="#0D0E1F" cx="214.403" cy="411.084" r="4.417"/>
		<circle fill="#0D0E1F" cx="214.403" cy="433.917" r="4.417"/>
		<circle fill="#0D0E1F" cx="214.403" cy="456.751" r="4.417"/>
		<circle fill="#0D0E1F" cx="214.403" cy="479.584" r="4.416"/>
		<circle fill="#0D0E1F" cx="214.403" cy="502.417" r="4.417"/>
		<circle fill="#0D0E1F" cx="214.403" cy="525.25" r="4.416"/>
		<circle fill="#0D0E1F" cx="214.403" cy="548.083" r="4.417"/>
		<circle fill="#0D0E1F" cx="214.403" cy="570.916" r="4.416"/>
		<circle fill="#0D0E1F" cx="214.403" cy="593.749" r="4.417"/>
		<path fill="#0D0E1F" d="M250.82,417.001h55.334c0.829,0,1.5-0.671,1.5-1.5c0-0.828-0.671-1.5-1.5-1.5H250.82
			c-0.829,0-1.5,0.672-1.5,1.5C249.32,416.33,249.991,417.001,250.82,417.001z"/>
		<path fill="#0D0E1F" d="M358.154,430.417H250.82c-0.829,0-1.5,0.671-1.5,1.5c0,0.828,0.671,1.5,1.5,1.5h107.334
			c0.829,0,1.5-0.672,1.5-1.5C359.654,431.088,358.982,430.417,358.154,430.417z"/>
		<path fill="#0D0E1F" d="M358.154,443.75H250.82c-0.829,0-1.5,0.672-1.5,1.5s0.671,1.5,1.5,1.5h107.334c0.829,0,1.5-0.672,1.5-1.5
			S358.982,443.75,358.154,443.75z"/>
		<path fill="#0D0E1F" d="M358.154,457.084H250.82c-0.829,0-1.5,0.672-1.5,1.5s0.671,1.5,1.5,1.5h107.334c0.829,0,1.5-0.672,1.5-1.5
			S358.982,457.084,358.154,457.084z"/>
		<path fill="#0D0E1F" d="M358.154,470.418H250.82c-0.829,0-1.5,0.672-1.5,1.5s0.671,1.5,1.5,1.5h107.334c0.829,0,1.5-0.672,1.5-1.5
			S358.982,470.418,358.154,470.418z"/>
		<path fill="#0D0E1F" d="M358.154,483.751H250.82c-0.829,0-1.5,0.672-1.5,1.5s0.671,1.5,1.5,1.5h107.334c0.829,0,1.5-0.672,1.5-1.5
			S358.982,483.751,358.154,483.751z"/>
		<path fill="#0D0E1F" d="M358.154,497.084H250.82c-0.829,0-1.5,0.672-1.5,1.5s0.671,1.5,1.5,1.5h107.334c0.829,0,1.5-0.672,1.5-1.5
			S358.982,497.084,358.154,497.084z"/>
		<path fill="#0D0E1F" d="M358.154,510.418H250.82c-0.829,0-1.5,0.672-1.5,1.5s0.671,1.5,1.5,1.5h107.334c0.829,0,1.5-0.672,1.5-1.5
			S358.982,510.418,358.154,510.418z"/>
		<path fill="#0D0E1F" d="M358.154,523.752H250.82c-0.829,0-1.5,0.672-1.5,1.5s0.671,1.5,1.5,1.5h107.334c0.829,0,1.5-0.672,1.5-1.5
			S358.982,523.752,358.154,523.752z"/>
		<path fill="#0D0E1F" d="M358.154,537.085H250.82c-0.829,0-1.5,0.672-1.5,1.5s0.671,1.5,1.5,1.5h107.334c0.829,0,1.5-0.672,1.5-1.5
			S358.982,537.085,358.154,537.085z"/>
		<path fill="#0D0E1F" d="M358.154,550.418H250.82c-0.829,0-1.5,0.672-1.5,1.5s0.671,1.5,1.5,1.5h107.334c0.829,0,1.5-0.672,1.5-1.5
			S358.982,550.418,358.154,550.418z"/>
		<path fill="#0D0E1F" d="M358.154,563.752H250.82c-0.829,0-1.5,0.672-1.5,1.5s0.671,1.5,1.5,1.5h107.334c0.829,0,1.5-0.672,1.5-1.5
			S358.982,563.752,358.154,563.752z"/>
		<path fill="#0D0E1F" d="M358.154,577.086H250.82c-0.829,0-1.5,0.672-1.5,1.5s0.671,1.5,1.5,1.5h107.334c0.829,0,1.5-0.672,1.5-1.5
			S358.982,577.086,358.154,577.086z"/>
		<path fill="#0D0E1F" d="M358.154,590.419H250.82c-0.829,0-1.5,0.672-1.5,1.5s0.671,1.5,1.5,1.5h107.334c0.829,0,1.5-0.672,1.5-1.5
			S358.982,590.419,358.154,590.419z"/>
		<path fill="#0D0E1F" d="M629.817,386.917h-9.963v-3.5c0-2.67-2.164-4.834-4.833-4.834c-2.67,0-4.834,2.164-4.834,4.834v3.5
			h-14.333v-3.5c0-2.67-2.164-4.834-4.833-4.834c-2.67,0-4.834,2.164-4.834,4.834v3.5h-14.333v-3.5c0-2.67-2.164-4.834-4.833-4.834
			c-2.67,0-4.834,2.164-4.834,4.834v3.5h-14.333v-3.5c0-2.67-2.164-4.834-4.833-4.834c-2.67,0-4.834,2.164-4.834,4.834v3.5h-14.333
			v-3.5c0-2.67-2.164-4.834-4.833-4.834c-2.67,0-4.834,2.164-4.834,4.834v3.5h-14.333v-3.5c0-2.67-2.164-4.834-4.833-4.834
			c-2.67,0-4.834,2.164-4.834,4.834v3.5h-9.961c-8.679,0-15.739,7.012-15.739,15.63v199.74c0,8.618,7.061,15.63,15.739,15.63h111.99
			c0.001,0,0.002,0,0.004,0c17.534,0,32.317-7.416,42.751-21.446c7.77-10.448,10.362-20.837,10.468-21.273
			c0.076-0.313,0.109-0.631,0.109-0.947h0.008V402.547C645.556,393.929,638.496,386.917,629.817,386.917z M598.756,609.5
			c2.87-6.057,7.223-15.338,10.128-21.979c3.428-7.836,11.702-9.125,12.88-9.271h14.22
			C632.324,587.432,622.023,606.448,598.756,609.5z M637.556,570.25h-16.003c-0.114,0-0.228,0.005-0.342,0.015
			c-0.383,0.032-6.563,0.631-12.277,4.822H485.886c-0.829,0-1.5,0.672-1.5,1.5s0.671,1.5,1.5,1.5h119.701
			c-1.545,1.69-2.942,3.736-4.032,6.227c-3.593,8.212-9.45,20.562-11.856,25.604H480.226c-4.268,0-7.739-3.423-7.739-7.63V432.001
			h165.069V570.25z M637.556,427.001H472.487v-24.454c0-4.207,3.472-7.63,7.739-7.63h9.961v4.5c0,2.669,2.164,4.833,4.834,4.833
			c2.669,0,4.833-2.164,4.833-4.833v-4.5h14.333v4.5c0,2.669,2.164,4.833,4.834,4.833c2.669,0,4.833-2.164,4.833-4.833v-4.5h14.333
			v4.5c0,2.669,2.164,4.833,4.834,4.833c2.669,0,4.833-2.164,4.833-4.833v-4.5h14.333v4.5c0,2.669,2.164,4.833,4.834,4.833
			c2.669,0,4.833-2.164,4.833-4.833v-4.5h14.333v4.5c0,2.669,2.164,4.833,4.834,4.833c2.669,0,4.833-2.164,4.833-4.833v-4.5h14.333
			v4.5c0,2.669,2.164,4.833,4.834,4.833c2.669,0,4.833-2.164,4.833-4.833v-4.5h9.963c4.268,0,7.739,3.423,7.739,7.63V427.001z"/>
		<path fill="#0D0E1F" d="M485.886,452.084h44.667c0.829,0,1.5-0.672,1.5-1.5s-0.671-1.5-1.5-1.5h-44.667
			c-0.829,0-1.5,0.672-1.5,1.5S485.058,452.084,485.886,452.084z"/>
		<path fill="#0D0E1F" d="M485.886,476.084h133.968c0.829,0,1.5-0.672,1.5-1.5s-0.671-1.5-1.5-1.5H485.886
			c-0.829,0-1.5,0.672-1.5,1.5S485.058,476.084,485.886,476.084z"/>
		<path fill="#0D0E1F" d="M485.886,493.084h133.968c0.829,0,1.5-0.672,1.5-1.5s-0.671-1.5-1.5-1.5H485.886
			c-0.829,0-1.5,0.672-1.5,1.5S485.058,493.084,485.886,493.084z"/>
		<path fill="#0D0E1F" d="M485.886,510.085h133.968c0.829,0,1.5-0.672,1.5-1.5s-0.671-1.5-1.5-1.5H485.886
			c-0.829,0-1.5,0.672-1.5,1.5S485.058,510.085,485.886,510.085z"/>
		<path fill="#0D0E1F" d="M485.886,527.086h133.968c0.829,0,1.5-0.672,1.5-1.5s-0.671-1.5-1.5-1.5H485.886
			c-0.829,0-1.5,0.672-1.5,1.5S485.058,527.086,485.886,527.086z"/>
		<path fill="#0D0E1F" d="M485.886,544.086h133.968c0.829,0,1.5-0.672,1.5-1.5s-0.671-1.5-1.5-1.5H485.886
			c-0.829,0-1.5,0.672-1.5,1.5S485.058,544.086,485.886,544.086z"/>
		<path fill="#0D0E1F" d="M485.886,561.086h133.968c0.829,0,1.5-0.672,1.5-1.5s-0.671-1.5-1.5-1.5H485.886
			c-0.829,0-1.5,0.672-1.5,1.5S485.058,561.086,485.886,561.086z"/>
		<path fill="#0D0E1F" d="M948.021,387.417h-16.168v-4c0-2.67-2.164-4.834-4.832-4.834c-2.67,0-4.834,2.164-4.834,4.834v4h-14.334
			v-4c0-2.67-2.164-4.834-4.832-4.834c-2.67,0-4.834,2.164-4.834,4.834v4h-14.334v-4c0-2.67-2.164-4.834-4.832-4.834
			c-2.67,0-4.834,2.164-4.834,4.834v4h-14.334v-4c0-2.67-2.164-4.834-4.832-4.834c-2.67,0-4.834,2.164-4.834,4.834v4h-14.334v-4
			c0-2.67-2.164-4.834-4.832-4.834c-2.67,0-4.834,2.164-4.834,4.834v4h-14.334v-4c0-2.67-2.164-4.834-4.832-4.834
			c-2.67,0-4.834,2.164-4.834,4.834v4h-14.334v-4c0-2.67-2.164-4.834-4.832-4.834c-2.67,0-4.834,2.164-4.834,4.834v4h-14.334v-4
			c0-2.67-2.164-4.834-4.832-4.834c-2.67,0-4.834,2.164-4.834,4.834v4h-16.166c-8.822,0-16,7.178-16,16v198.5
			c0,8.822,7.178,16,16,16h210c8.822,0,16-7.178,16-16v-198.5C964.021,394.595,956.844,387.417,948.021,387.417z M956.021,601.917
			c0,4.411-3.588,8-8,8h-210c-4.412,0-8-3.589-8-8V425.665h226V601.917z M956.021,420.665h-226v-17.248c0-4.411,3.588-8,8-8h16.166
			v4c0,2.669,2.164,4.833,4.834,4.833c2.668,0,4.832-2.164,4.832-4.833v-4h14.334v4c0,2.669,2.164,4.833,4.834,4.833
			c2.668,0,4.832-2.164,4.832-4.833v-4h14.334v4c0,2.669,2.164,4.833,4.834,4.833c2.668,0,4.832-2.164,4.832-4.833v-4h14.334v4
			c0,2.669,2.164,4.833,4.834,4.833c2.668,0,4.832-2.164,4.832-4.833v-4h14.334v4c0,2.669,2.164,4.833,4.834,4.833
			c2.668,0,4.832-2.164,4.832-4.833v-4h14.334v4c0,2.669,2.164,4.833,4.834,4.833c2.668,0,4.832-2.164,4.832-4.833v-4h14.334v4
			c0,2.669,2.164,4.833,4.834,4.833c2.668,0,4.832-2.164,4.832-4.833v-4h14.334v4c0,2.669,2.164,4.833,4.834,4.833
			c2.668,0,4.832-2.164,4.832-4.833v-4h16.168c4.412,0,8,3.589,8,8V420.665z"/>
		<path fill="#0D0E1F" d="M748.521,450.666h189c0.828,0,1.5-0.672,1.5-1.5s-0.672-1.5-1.5-1.5h-189c-0.828,0-1.5,0.672-1.5,1.5
			S747.693,450.666,748.521,450.666z"/>
		<path fill="#0D0E1F" d="M748.521,472h189c0.828,0,1.5-0.672,1.5-1.5s-0.672-1.5-1.5-1.5h-189c-0.828,0-1.5,0.672-1.5,1.5
			S747.693,472,748.521,472z"/>
		<path fill="#0D0E1F" d="M748.521,493.336h189c0.828,0,1.5-0.672,1.5-1.5s-0.672-1.5-1.5-1.5h-189c-0.828,0-1.5,0.672-1.5,1.5
			S747.693,493.336,748.521,493.336z"/>
		<path fill="#0D0E1F" d="M748.521,514.67h189c0.828,0,1.5-0.672,1.5-1.5s-0.672-1.5-1.5-1.5h-189c-0.828,0-1.5,0.672-1.5,1.5
			S747.693,514.67,748.521,514.67z"/>
		<path fill="#0D0E1F" d="M748.521,536.006h189c0.828,0,1.5-0.672,1.5-1.5s-0.672-1.5-1.5-1.5h-189c-0.828,0-1.5,0.672-1.5,1.5
			S747.693,536.006,748.521,536.006z"/>
		<path fill="#0D0E1F" d="M748.521,557.34h189c0.828,0,1.5-0.672,1.5-1.5s-0.672-1.5-1.5-1.5h-189c-0.828,0-1.5,0.672-1.5,1.5
			S747.693,557.34,748.521,557.34z"/>
		<path fill="#0D0E1F" d="M748.521,578.676h189c0.828,0,1.5-0.672,1.5-1.5s-0.672-1.5-1.5-1.5h-189c-0.828,0-1.5,0.672-1.5,1.5
			S747.693,578.676,748.521,578.676z"/>
		<path fill="#0D0E1F" d="M1189.514,386.917h-10.246v-8.834c0-1.381-1.119-2.5-2.5-2.5s-2.5,1.119-2.5,2.5v8.834h-7v-8.834
			c0-1.381-1.119-2.5-2.5-2.5s-2.5,1.119-2.5,2.5v8.834h-7v-8.834c0-1.381-1.119-2.5-2.5-2.5s-2.5,1.119-2.5,2.5v8.834h-7v-8.834
			c0-1.381-1.119-2.5-2.5-2.5s-2.5,1.119-2.5,2.5v8.834h-7v-8.834c0-1.381-1.119-2.5-2.5-2.5s-2.5,1.119-2.5,2.5v8.834h-7v-8.834
			c0-1.381-1.119-2.5-2.5-2.5s-2.5,1.119-2.5,2.5v8.834h-7v-8.834c0-1.381-1.119-2.5-2.5-2.5s-2.5,1.119-2.5,2.5v8.834h-7v-8.834
			c0-1.381-1.119-2.5-2.5-2.5s-2.5,1.119-2.5,2.5v8.834h-7v-8.834c0-1.381-1.119-2.5-2.5-2.5s-2.5,1.119-2.5,2.5v8.834h-7v-8.834
			c0-1.381-1.119-2.5-2.5-2.5s-2.5,1.119-2.5,2.5v8.834h-10.246c-8.822,0-16,7.432-16,16.567V601.35c0,9.136,7.178,16.567,16,16.567
			h133.492c8.822,0,16-7.432,16-16.567V403.484C1205.514,394.349,1198.336,386.917,1189.514,386.917z M1189.514,609.917h-133.492
			c-4.395,0-7.969-3.813-7.998-8.511c2.295,1.583,5.043,2.511,7.998,2.511h133.492c2.955,0,5.703-0.928,7.996-2.511
			C1197.482,606.104,1193.906,609.917,1189.514,609.917z M1197.514,594.257c-1.689,2.797-4.641,4.66-8,4.66h-133.492
			c-3.359,0-6.311-1.863-8-4.66V432.001h149.492V594.257z M1197.514,427.001h-149.492v-23.517c0-4.724,3.588-8.567,8-8.567h10.246
			v8.833c0,1.381,1.119,2.5,2.5,2.5s2.5-1.119,2.5-2.5v-8.833h7v8.833c0,1.381,1.119,2.5,2.5,2.5s2.5-1.119,2.5-2.5v-8.833h7v8.833
			c0,1.381,1.119,2.5,2.5,2.5s2.5-1.119,2.5-2.5v-8.833h7v8.833c0,1.381,1.119,2.5,2.5,2.5s2.5-1.119,2.5-2.5v-8.833h7v8.833
			c0,1.381,1.119,2.5,2.5,2.5s2.5-1.119,2.5-2.5v-8.833h7v8.833c0,1.381,1.119,2.5,2.5,2.5s2.5-1.119,2.5-2.5v-8.833h7v8.833
			c0,1.381,1.119,2.5,2.5,2.5s2.5-1.119,2.5-2.5v-8.833h7v8.833c0,1.381,1.119,2.5,2.5,2.5s2.5-1.119,2.5-2.5v-8.833h7v8.833
			c0,1.381,1.119,2.5,2.5,2.5s2.5-1.119,2.5-2.5v-8.833h7v8.833c0,1.381,1.119,2.5,2.5,2.5s2.5-1.119,2.5-2.5v-8.833h10.246
			c4.41,0,8,3.844,8,8.567V427.001z"/>
		<path fill="#0D0E1F" d="M1092.941,552.237l-0.375,24.9c-0.016,1.005,0.572,1.921,1.492,2.326c0.324,0.143,0.666,0.212,1.006,0.212
			c0.627,0,1.244-0.234,1.717-0.682l18.115-17.086c0.242-0.229,0.438-0.505,0.572-0.811l37.723-85.643
			c0.557-1.264-0.016-2.739-1.279-3.296l-17.74-7.813c-1.264-0.556-2.74,0.017-3.297,1.28l-37.723,85.642
			C1093.018,551.573,1092.945,551.903,1092.941,552.237z M1111.498,557.709l-5.666-2.496l29.523-67.03l5.668,2.496L1111.498,557.709
			z M1134.443,469.929l13.164,5.799l-5.375,12.205l-13.164-5.798L1134.443,469.929z M1127.857,484.881l5.668,2.496l-29.523,67.03
			l-5.668-2.497L1127.857,484.881z M1097.9,554.998l11.611,5.115l-8.688,8.196c-0.281-0.602-0.76-1.111-1.412-1.399
			c-0.553-0.243-1.139-0.292-1.688-0.184L1097.9,554.998z"/>
		<path fill="#0D0E1F" d="M1136.881,575.176h-21.408c-1.105,0-2,0.896-2,2s0.895,2,2,2h21.408c1.104,0,2-0.896,2-2
			S1137.984,575.176,1136.881,575.176z"/>
		<path fill="#0D0E1F" d="M1146.916,577.176c0,1.104,0.895,2,2,2h6.988c1.104,0,2-0.896,2-2s-0.896-2-2-2h-6.988
			C1147.811,575.176,1146.916,576.071,1146.916,577.176z"/>
		<path fill="#0D0E1F" d="M1066.459,469.134h29.031c5.619,0,10.191-4.572,10.191-10.191c0-5.62-4.572-10.192-10.191-10.192h-29.031
			c-5.619,0-10.191,4.572-10.191,10.192C1056.268,464.562,1060.84,469.134,1066.459,469.134z M1066.459,453.75h29.031
			c2.861,0,5.191,2.329,5.191,5.192c0,2.862-2.33,5.191-5.191,5.191h-29.031c-2.863,0-5.191-2.329-5.191-5.191
			C1061.268,456.079,1063.596,453.75,1066.459,453.75z"/>
	</g>
	
		<rect x="1131.146" y="766.263" transform="matrix(0.9151 0.4031 -0.4031 0.9151 408.182 -393.3057)" fill="#FFFFFF" width="14.385" height="13.337"/>
	
		<rect x="1120.332" y="780.323" transform="matrix(-0.9151 -0.4032 0.4032 -0.9151 1822.1619 2017.4711)" fill="#FFFFFF" width="6.191" height="73.245"/>
	
		<rect x="1112.833" y="777.022" transform="matrix(0.9152 0.403 -0.403 0.9152 422.5742 -380.7488)" fill="#FFFFFF" width="6.193" height="73.243"/>
	<path fill="#FFFFFF" d="M1056.021,897.917c-2.955,0-5.703-0.928-7.998-2.511c0.029,4.697,3.604,8.511,7.998,8.511h133.492
		c4.393,0,7.969-3.813,7.996-8.511c-2.293,1.583-5.041,2.511-7.996,2.511H1056.021z"/>
	<path fill="#FFFFFF" d="M1048.021,888.257c1.689,2.797,4.641,4.66,8,4.66h133.492c3.359,0,6.311-1.863,8-4.66V726.002h-149.492
		V888.257z M1136.881,873.176h-21.408c-1.105,0-2-0.896-2-2s0.895-2,2-2h21.408c1.104,0,2,0.896,2,2
		S1137.984,873.176,1136.881,873.176z M1157.904,871.176c0,1.104-0.896,2-2,2h-6.988c-1.105,0-2-0.896-2-2s0.895-2,2-2h6.988
		C1157.008,869.176,1157.904,870.071,1157.904,871.176z M1134.172,758.346l17.74,7.813c1.264,0.557,1.836,2.032,1.279,3.296
		l-37.723,85.643c-0.135,0.306-0.33,0.581-0.572,0.811l-18.115,17.086c-0.473,0.447-1.09,0.682-1.717,0.682
		c-0.34,0-0.682-0.069-1.006-0.212c-0.92-0.405-1.508-1.321-1.492-2.326l0.375-24.9c0.004-0.334,0.076-0.664,0.211-0.97
		l37.723-85.642C1131.432,758.362,1132.908,757.79,1134.172,758.346z M1066.459,742.75h29.031c5.619,0,10.191,4.572,10.191,10.192
		c0,5.619-4.572,10.191-10.191,10.191h-29.031c-5.619,0-10.191-4.572-10.191-10.191
		C1056.268,747.322,1060.84,742.75,1066.459,742.75z"/>
	<path fill="#FFFFFF" d="M1066.459,758.134h29.031c2.861,0,5.191-2.329,5.191-5.191c0-2.863-2.33-5.192-5.191-5.192h-29.031
		c-2.863,0-5.191,2.329-5.191,5.192C1061.268,755.805,1063.596,758.134,1066.459,758.134z"/>
	<path fill="#FFFFFF" d="M1099.412,860.91c0.652,0.288,1.131,0.798,1.412,1.399l8.688-8.196l-11.611-5.115l-0.176,11.729
		C1098.273,860.618,1098.859,860.667,1099.412,860.91z"/>
	<path fill="#FFFFFF" d="M1066.268,697.75v-8.833h-10.246c-4.412,0-8,3.844-8,8.567v23.518h149.492v-23.518
		c0-4.724-3.59-8.567-8-8.567h-10.246v8.833c0,1.381-1.119,2.5-2.5,2.5s-2.5-1.119-2.5-2.5v-8.833h-7v8.833
		c0,1.381-1.119,2.5-2.5,2.5s-2.5-1.119-2.5-2.5v-8.833h-7v8.833c0,1.381-1.119,2.5-2.5,2.5s-2.5-1.119-2.5-2.5v-8.833h-7v8.833
		c0,1.381-1.119,2.5-2.5,2.5s-2.5-1.119-2.5-2.5v-8.833h-7v8.833c0,1.381-1.119,2.5-2.5,2.5s-2.5-1.119-2.5-2.5v-8.833h-7v8.833
		c0,1.381-1.119,2.5-2.5,2.5s-2.5-1.119-2.5-2.5v-8.833h-7v8.833c0,1.381-1.119,2.5-2.5,2.5s-2.5-1.119-2.5-2.5v-8.833h-7v8.833
		c0,1.381-1.119,2.5-2.5,2.5s-2.5-1.119-2.5-2.5v-8.833h-7v8.833c0,1.381-1.119,2.5-2.5,2.5s-2.5-1.119-2.5-2.5v-8.833h-7v8.833
		c0,1.381-1.119,2.5-2.5,2.5S1066.268,699.131,1066.268,697.75z"/>
	<path fill="#FFFFFF" d="M472.487,896.287c0,4.207,3.472,7.63,7.739,7.63H589.7c2.406-5.042,8.263-17.392,11.856-25.604
		c1.089-2.49,2.487-4.536,4.032-6.227H485.886c-0.829,0-1.5-0.672-1.5-1.5s0.671-1.5,1.5-1.5h123.048
		c5.714-4.191,11.894-4.79,12.277-4.822c0.114-0.01,0.228-0.015,0.342-0.015h16.003V726.002H472.487V896.287z M485.886,743.084
		h44.667c0.829,0,1.5,0.672,1.5,1.5s-0.671,1.5-1.5,1.5h-44.667c-0.829,0-1.5-0.672-1.5-1.5S485.058,743.084,485.886,743.084z
		 M485.886,767.084h133.968c0.829,0,1.5,0.672,1.5,1.5s-0.671,1.5-1.5,1.5H485.886c-0.829,0-1.5-0.672-1.5-1.5
		S485.058,767.084,485.886,767.084z M485.886,784.084h133.968c0.829,0,1.5,0.672,1.5,1.5s-0.671,1.5-1.5,1.5H485.886
		c-0.829,0-1.5-0.672-1.5-1.5S485.058,784.084,485.886,784.084z M485.886,801.085h133.968c0.829,0,1.5,0.672,1.5,1.5
		s-0.671,1.5-1.5,1.5H485.886c-0.829,0-1.5-0.672-1.5-1.5S485.058,801.085,485.886,801.085z M485.886,818.086h133.968
		c0.829,0,1.5,0.672,1.5,1.5s-0.671,1.5-1.5,1.5H485.886c-0.829,0-1.5-0.672-1.5-1.5S485.058,818.086,485.886,818.086z
		 M485.886,835.086h133.968c0.829,0,1.5,0.672,1.5,1.5s-0.671,1.5-1.5,1.5H485.886c-0.829,0-1.5-0.672-1.5-1.5
		S485.058,835.086,485.886,835.086z M485.886,852.086h133.968c0.829,0,1.5,0.672,1.5,1.5s-0.671,1.5-1.5,1.5H485.886
		c-0.829,0-1.5-0.672-1.5-1.5S485.058,852.086,485.886,852.086z"/>
	<path fill="#FFFFFF" d="M629.817,688.917h-9.963v4.5c0,2.669-2.164,4.833-4.833,4.833c-2.67,0-4.834-2.164-4.834-4.833v-4.5
		h-14.333v4.5c0,2.669-2.164,4.833-4.833,4.833c-2.67,0-4.834-2.164-4.834-4.833v-4.5h-14.333v4.5c0,2.669-2.164,4.833-4.833,4.833
		c-2.67,0-4.834-2.164-4.834-4.833v-4.5h-14.333v4.5c0,2.669-2.164,4.833-4.833,4.833c-2.67,0-4.834-2.164-4.834-4.833v-4.5h-14.333
		v4.5c0,2.669-2.164,4.833-4.833,4.833c-2.67,0-4.834-2.164-4.834-4.833v-4.5h-14.333v4.5c0,2.669-2.164,4.833-4.833,4.833
		c-2.67,0-4.834-2.164-4.834-4.833v-4.5h-9.961c-4.268,0-7.739,3.423-7.739,7.63v24.455h165.069v-24.455
		C637.556,692.34,634.084,688.917,629.817,688.917z"/>
	<path fill="#FFFFFF" d="M730.021,895.917c0,4.411,3.588,8,8,8h210c4.412,0,8-3.589,8-8V719.666h-226V895.917z M748.521,741.666h189
		c0.828,0,1.5,0.672,1.5,1.5s-0.672,1.5-1.5,1.5h-189c-0.828,0-1.5-0.672-1.5-1.5S747.693,741.666,748.521,741.666z M748.521,763
		h189c0.828,0,1.5,0.672,1.5,1.5s-0.672,1.5-1.5,1.5h-189c-0.828,0-1.5-0.672-1.5-1.5S747.693,763,748.521,763z M748.521,784.336
		h189c0.828,0,1.5,0.672,1.5,1.5s-0.672,1.5-1.5,1.5h-189c-0.828,0-1.5-0.672-1.5-1.5S747.693,784.336,748.521,784.336z
		 M748.521,805.67h189c0.828,0,1.5,0.672,1.5,1.5s-0.672,1.5-1.5,1.5h-189c-0.828,0-1.5-0.672-1.5-1.5
		S747.693,805.67,748.521,805.67z M748.521,827.006h189c0.828,0,1.5,0.672,1.5,1.5s-0.672,1.5-1.5,1.5h-189
		c-0.828,0-1.5-0.672-1.5-1.5S747.693,827.006,748.521,827.006z M748.521,848.34h189c0.828,0,1.5,0.672,1.5,1.5s-0.672,1.5-1.5,1.5
		h-189c-0.828,0-1.5-0.672-1.5-1.5S747.693,848.34,748.521,848.34z M748.521,869.676h189c0.828,0,1.5,0.672,1.5,1.5
		s-0.672,1.5-1.5,1.5h-189c-0.828,0-1.5-0.672-1.5-1.5S747.693,869.676,748.521,869.676z"/>
	<path fill="#FFFFFF" d="M202.487,688.917v215h178V716.025l-16.265-27.108H202.487z M250.82,708.002h55.334
		c0.829,0,1.5,0.671,1.5,1.5c0,0.828-0.671,1.5-1.5,1.5H250.82c-0.829,0-1.5-0.672-1.5-1.5
		C249.32,708.673,249.991,708.002,250.82,708.002z M214.403,892.166c-2.438,0-4.416-1.979-4.416-4.417s1.978-4.417,4.416-4.417
		c2.439,0,4.417,1.979,4.417,4.417S216.842,892.166,214.403,892.166z M214.403,869.332c-2.438,0-4.416-1.977-4.416-4.416
		s1.978-4.416,4.416-4.416c2.439,0,4.417,1.977,4.417,4.416S216.842,869.332,214.403,869.332z M214.403,846.5
		c-2.438,0-4.416-1.979-4.416-4.417s1.978-4.417,4.416-4.417c2.439,0,4.417,1.979,4.417,4.417S216.842,846.5,214.403,846.5z
		 M214.403,823.666c-2.438,0-4.416-1.977-4.416-4.416s1.978-4.416,4.416-4.416c2.439,0,4.417,1.977,4.417,4.416
		S216.842,823.666,214.403,823.666z M214.403,800.834c-2.438,0-4.416-1.979-4.416-4.417s1.978-4.417,4.416-4.417
		c2.439,0,4.417,1.979,4.417,4.417S216.842,800.834,214.403,800.834z M214.403,778c-2.438,0-4.416-1.977-4.416-4.416
		s1.978-4.416,4.416-4.416c2.439,0,4.417,1.977,4.417,4.416S216.842,778,214.403,778z M214.403,755.168
		c-2.438,0-4.416-1.979-4.416-4.417s1.978-4.417,4.416-4.417c2.439,0,4.417,1.979,4.417,4.417S216.842,755.168,214.403,755.168z
		 M214.403,732.334c-2.438,0-4.416-1.977-4.416-4.416s1.978-4.416,4.416-4.416c2.439,0,4.417,1.977,4.417,4.416
		S216.842,732.334,214.403,732.334z M214.403,709.502c-2.438,0-4.416-1.979-4.416-4.417s1.978-4.417,4.416-4.417
		c2.439,0,4.417,1.979,4.417,4.417S216.842,709.502,214.403,709.502z M232.32,892.917c0,1.381-1.119,2.5-2.5,2.5s-2.5-1.119-2.5-2.5
		V775.584c0-1.381,1.119-2.5,2.5-2.5s2.5,1.119,2.5,2.5V892.917z M232.32,751.584c0,1.381-1.119,2.5-2.5,2.5s-2.5-1.119-2.5-2.5
		V700.25c0-1.381,1.119-2.5,2.5-2.5s2.5,1.119,2.5,2.5V751.584z M358.154,887.419H250.82c-0.829,0-1.5-0.672-1.5-1.5
		s0.671-1.5,1.5-1.5h107.334c0.829,0,1.5,0.672,1.5,1.5S358.982,887.419,358.154,887.419z M358.154,874.086H250.82
		c-0.829,0-1.5-0.672-1.5-1.5s0.671-1.5,1.5-1.5h107.334c0.829,0,1.5,0.672,1.5,1.5S358.982,874.086,358.154,874.086z
		 M358.154,860.752H250.82c-0.829,0-1.5-0.672-1.5-1.5s0.671-1.5,1.5-1.5h107.334c0.829,0,1.5,0.672,1.5,1.5
		S358.982,860.752,358.154,860.752z M358.154,847.418H250.82c-0.829,0-1.5-0.672-1.5-1.5s0.671-1.5,1.5-1.5h107.334
		c0.829,0,1.5,0.672,1.5,1.5S358.982,847.418,358.154,847.418z M358.154,834.085H250.82c-0.829,0-1.5-0.672-1.5-1.5
		s0.671-1.5,1.5-1.5h107.334c0.829,0,1.5,0.672,1.5,1.5S358.982,834.085,358.154,834.085z M358.154,820.752H250.82
		c-0.829,0-1.5-0.672-1.5-1.5s0.671-1.5,1.5-1.5h107.334c0.829,0,1.5,0.672,1.5,1.5S358.982,820.752,358.154,820.752z
		 M358.154,807.418H250.82c-0.829,0-1.5-0.672-1.5-1.5s0.671-1.5,1.5-1.5h107.334c0.829,0,1.5,0.672,1.5,1.5
		S358.982,807.418,358.154,807.418z M358.154,794.084H250.82c-0.829,0-1.5-0.672-1.5-1.5s0.671-1.5,1.5-1.5h107.334
		c0.829,0,1.5,0.672,1.5,1.5S358.982,794.084,358.154,794.084z M358.154,780.751H250.82c-0.829,0-1.5-0.672-1.5-1.5
		s0.671-1.5,1.5-1.5h107.334c0.829,0,1.5,0.672,1.5,1.5S358.982,780.751,358.154,780.751z M358.154,767.418H250.82
		c-0.829,0-1.5-0.672-1.5-1.5s0.671-1.5,1.5-1.5h107.334c0.829,0,1.5,0.672,1.5,1.5S358.982,767.418,358.154,767.418z
		 M358.154,754.084H250.82c-0.829,0-1.5-0.672-1.5-1.5s0.671-1.5,1.5-1.5h107.334c0.829,0,1.5,0.672,1.5,1.5
		S358.982,754.084,358.154,754.084z M358.154,740.75H250.82c-0.829,0-1.5-0.672-1.5-1.5s0.671-1.5,1.5-1.5h107.334
		c0.829,0,1.5,0.672,1.5,1.5S358.982,740.75,358.154,740.75z M358.154,727.417H250.82c-0.829,0-1.5-0.671-1.5-1.5s0.671-1.5,1.5-1.5
		h107.334c0.829,0,1.5,0.671,1.5,1.5S358.982,727.417,358.154,727.417z"/>
	<path fill="#BCBEC0" d="M608.885,881.521c-2.906,6.642-7.258,15.923-10.128,21.979c23.267-3.052,33.568-22.068,37.229-31.25h-14.22
		C620.587,872.396,612.313,873.685,608.885,881.521z"/>
	<path fill="#FFFFFF" d="M948.021,689.417h-16.168v4c0,2.669-2.164,4.833-4.832,4.833c-2.67,0-4.834-2.164-4.834-4.833v-4h-14.334v4
		c0,2.669-2.164,4.833-4.832,4.833c-2.67,0-4.834-2.164-4.834-4.833v-4h-14.334v4c0,2.669-2.164,4.833-4.832,4.833
		c-2.67,0-4.834-2.164-4.834-4.833v-4h-14.334v4c0,2.669-2.164,4.833-4.832,4.833c-2.67,0-4.834-2.164-4.834-4.833v-4h-14.334v4
		c0,2.669-2.164,4.833-4.832,4.833c-2.67,0-4.834-2.164-4.834-4.833v-4h-14.334v4c0,2.669-2.164,4.833-4.832,4.833
		c-2.67,0-4.834-2.164-4.834-4.833v-4h-14.334v4c0,2.669-2.164,4.833-4.832,4.833c-2.67,0-4.834-2.164-4.834-4.833v-4h-14.334v4
		c0,2.669-2.164,4.833-4.832,4.833c-2.67,0-4.834-2.164-4.834-4.833v-4h-16.166c-4.412,0-8,3.589-8,8v17.249h226v-17.249
		C956.021,693.006,952.434,689.417,948.021,689.417z"/>
</g>
</svg>
